<?xml version="1.0" standalone="no"?>
   <!DOCTYPE svg PUBLIC "-//W3C//DTD SVG 1.1//EN" 
   "http://www.w3.org/Graphics/SVG/1.1/DTD/svg11.dtd"><svg id="svg" version="1.1" width="2529" height="2778" xmlns="http://www.w3.org/2000/svg"><path d="M1020.918 234.264 C 990.951 240.543,955.453 271.411,937.770 306.566 C 927.680 326.626,926.171 332.295,926.190 350.066 C 926.213 371.559,937.668 408.708,951.342 431.636 C 954.906 437.611,961.205 448.575,965.341 456.000 C 983.235 488.124,1018.697 540.729,1033.989 557.832 C 1045.144 570.308,1083.000 627.686,1083.000 632.116 C 1083.000 633.081,1087.853 644.137,1093.785 656.685 C 1099.716 669.233,1107.374 685.575,1110.802 693.000 C 1114.230 700.425,1121.527 713.614,1127.017 722.308 C 1132.508 731.003,1137.000 738.739,1137.000 739.500 C 1137.000 740.261,1141.834 748.440,1147.742 757.676 C 1153.650 766.911,1168.654 794.275,1181.085 818.484 C 1193.516 842.693,1212.964 875.459,1224.303 891.299 C 1235.641 907.138,1248.487 928.063,1252.849 937.799 C 1272.522 981.712,1284.075 1004.688,1294.145 1019.932 C 1300.115 1028.969,1305.000 1037.311,1305.000 1038.469 C 1305.000 1042.620,1328.670 1076.079,1354.372 1108.260 C 1389.878 1152.717,1393.645 1164.553,1377.279 1180.233 L 1368.558 1188.588 1351.029 1183.558 C 1319.351 1174.468,1291.129 1154.538,1256.993 1117.151 C 1226.800 1084.082,1220.055 1075.121,1171.454 1003.500 C 1119.694 927.224,1110.467 912.915,1101.388 894.850 C 1083.284 858.829,1062.114 831.810,1022.654 794.365 C 1001.287 774.089,979.650 750.750,974.572 742.500 C 969.494 734.250,955.935 714.675,944.440 699.000 C 932.945 683.325,916.556 660.834,908.020 649.021 C 899.484 637.208,882.375 614.491,870.000 598.540 C 830.928 548.177,828.795 545.071,814.345 517.500 C 765.973 425.207,722.602 388.009,672.812 396.112 C 648.699 400.036,590.677 431.363,581.485 445.419 C 580.377 447.114,575.367 453.073,570.351 458.661 C 560.038 470.152,545.126 499.543,540.500 517.500 C 538.799 524.100,538.039 542.154,538.811 557.620 C 540.108 583.617,541.318 588.078,554.833 616.731 C 571.640 652.361,587.692 674.681,625.027 714.329 C 639.618 729.823,661.355 756.000,673.333 772.500 C 685.312 789.000,699.988 807.607,705.948 813.850 C 711.909 820.092,726.287 837.642,737.901 852.850 C 749.514 868.057,762.725 884.993,767.258 890.485 C 777.209 902.539,775.360 899.320,814.946 973.500 C 852.322 1043.537,852.679 1044.145,868.976 1065.587 C 885.097 1086.798,900.192 1104.249,935.937 1143.000 C 951.918 1160.325,970.957 1181.174,978.247 1189.332 C 985.536 1197.490,993.525 1206.375,996.000 1209.078 C 1011.408 1225.904,1024.202 1241.928,1049.834 1276.500 C 1087.182 1326.874,1089.545 1330.788,1088.433 1340.423 C 1087.550 1348.070,1086.541 1348.549,1069.500 1349.426 C 1059.600 1349.935,1045.425 1348.707,1038.000 1346.696 C 1024.846 1343.134,960.356 1311.512,926.756 1292.149 C 897.077 1275.046,849.239 1234.961,792.110 1179.324 C 782.975 1170.427,770.257 1159.627,763.849 1155.324 C 731.449 1133.568,725.413 1129.450,680.541 1098.497 C 638.976 1069.825,575.801 1015.154,544.767 981.000 C 506.533 938.923,433.619 871.258,413.842 859.500 C 350.271 821.706,304.337 815.129,262.074 837.770 C 244.793 847.027,221.035 883.888,213.602 912.975 C 207.131 938.298,216.686 976.168,237.200 1006.500 C 255.010 1032.834,324.210 1097.206,360.164 1120.884 C 368.741 1126.533,378.339 1134.435,381.493 1138.446 C 384.648 1142.456,394.912 1152.884,404.304 1161.619 C 466.328 1219.308,468.176 1221.329,519.863 1287.979 C 527.763 1298.165,536.521 1309.200,539.326 1312.500 C 549.705 1324.713,568.677 1348.872,577.455 1361.053 C 610.586 1407.029,642.213 1438.224,675.000 1457.264 C 682.425 1461.575,693.419 1468.905,699.432 1473.552 C 705.444 1478.198,711.093 1482.000,711.985 1482.000 C 712.877 1482.000,725.510 1489.763,740.059 1499.250 C 770.443 1519.064,770.084 1518.839,804.000 1539.304 C 865.414 1576.360,914.996 1618.874,936.598 1653.000 C 943.387 1663.725,952.443 1677.769,956.721 1684.210 C 966.106 1698.338,982.645 1726.663,987.545 1737.000 C 989.500 1741.125,996.252 1750.817,1002.550 1758.538 C 1008.847 1766.259,1014.000 1773.740,1014.000 1775.163 C 1014.000 1776.586,1018.388 1782.545,1023.750 1788.405 C 1059.554 1827.532,1085.267 1862.717,1099.869 1892.566 C 1112.198 1917.767,1107.509 1938.605,1083.739 1964.250 C 1070.784 1978.228,1071.764 1978.037,1013.685 1977.893 C 992.861 1977.841,944.669 1966.976,934.582 1960.058 C 931.328 1957.826,926.914 1956.000,924.773 1956.000 C 922.632 1956.000,915.643 1952.693,909.241 1948.652 C 902.839 1944.611,884.978 1934.938,869.551 1927.156 C 854.123 1919.375,838.786 1910.601,835.470 1907.658 C 830.102 1902.894,818.063 1897.006,783.000 1881.995 C 777.225 1879.522,768.094 1875.600,762.709 1873.279 C 757.324 1870.957,747.199 1868.185,740.209 1867.119 C 733.219 1866.053,726.150 1864.253,724.500 1863.119 C 722.850 1861.985,715.425 1860.745,708.000 1860.363 C 700.575 1859.982,692.003 1858.935,688.951 1858.038 C 685.900 1857.140,680.500 1856.016,676.951 1855.540 C 632.780 1849.606,617.371 1848.035,615.387 1849.261 C 610.916 1852.024,571.444 1857.551,538.500 1860.027 C 457.979 1866.079,404.023 1881.237,376.274 1905.601 C 363.909 1916.458,333.692 1955.248,325.330 1971.000 C 321.200 1978.780,319.723 1988.106,319.628 2007.000 C 319.489 2034.758,323.594 2046.176,343.041 2072.120 C 350.956 2082.680,354.948 2085.223,367.500 2087.702 C 397.221 2093.570,433.455 2097.441,484.020 2100.150 C 512.334 2101.666,546.975 2104.796,561.000 2107.105 C 575.025 2109.413,587.508 2110.707,588.740 2109.980 C 592.531 2107.743,651.862 2138.061,663.000 2147.926 C 703.263 2183.589,727.162 2197.649,815.992 2237.939 C 838.263 2248.040,866.613 2262.407,878.992 2269.866 C 891.372 2277.325,903.748 2284.622,906.496 2286.081 C 909.244 2287.540,927.469 2301.122,946.996 2316.263 C 985.030 2345.755,1015.688 2367.000,1020.212 2367.000 C 1021.745 2367.000,1023.000 2368.111,1023.000 2369.468 C 1023.000 2370.826,1029.190 2375.213,1036.755 2379.218 C 1052.000 2387.289,1054.865 2388.987,1073.190 2400.811 C 1080.170 2405.315,1086.609 2409.000,1087.500 2409.000 C 1088.391 2409.000,1094.155 2412.144,1100.310 2415.986 C 1109.666 2421.828,1135.875 2434.141,1162.500 2445.204 C 1165.800 2446.575,1179.300 2450.598,1192.500 2454.144 C 1205.700 2457.691,1220.550 2462.393,1225.500 2464.593 C 1230.450 2466.794,1248.000 2474.157,1264.500 2480.955 C 1281.000 2487.753,1299.900 2495.873,1306.500 2499.000 C 1313.100 2502.128,1333.644 2510.788,1352.154 2518.245 C 1418.062 2544.800,1499.677 2551.031,1593.000 2536.633 C 1607.740 2534.359,1663.922 2517.532,1680.000 2510.576 C 1707.593 2498.638,1771.879 2464.703,1779.236 2458.192 C 1781.841 2455.886,1784.974 2454.000,1786.199 2454.000 C 1789.434 2454.000,1820.077 2427.470,1832.694 2413.746 C 1838.637 2407.281,1846.036 2399.856,1849.136 2397.246 C 1852.236 2394.636,1858.986 2387.808,1864.136 2382.074 C 1869.286 2376.340,1881.912 2362.840,1892.194 2352.074 C 1902.476 2341.308,1913.214 2329.125,1916.056 2325.000 C 1920.883 2317.995,1925.677 2312.664,1959.511 2276.688 C 2001.625 2231.906,2041.590 2206.169,2091.450 2191.720 C 2134.939 2179.118,2140.060 2176.709,2174.128 2152.842 C 2207.828 2129.233,2233.894 2104.464,2253.413 2077.500 C 2265.648 2060.599,2292.000 2010.059,2292.000 2003.494 C 2292.000 2001.133,2293.184 1997.918,2294.631 1996.350 C 2296.078 1994.783,2299.371 1986.750,2301.949 1978.500 C 2321.720 1915.223,2321.787 1815.163,2302.100 1755.284 C 2295.591 1735.486,2277.214 1691.732,2271.110 1681.500 C 2258.961 1661.133,2250.000 1643.567,2250.000 1640.120 C 2250.000 1631.018,2201.326 1551.681,2176.716 1520.667 C 2169.189 1511.182,2168.040 1509.453,2143.713 1470.975 C 2123.033 1438.264,2110.615 1412.055,2099.899 1378.500 C 2074.618 1299.335,2068.413 1283.819,2045.908 1243.500 C 2025.633 1207.176,1984.750 1153.493,1969.233 1142.816 C 1954.784 1132.875,1949.433 1124.581,1944.189 1104.000 C 1942.297 1096.575,1939.581 1087.800,1938.153 1084.500 C 1936.725 1081.200,1933.897 1071.750,1931.870 1063.500 C 1929.842 1055.250,1924.484 1037.025,1919.963 1023.000 C 1892.263 937.068,1894.836 944.236,1879.582 910.500 C 1875.106 900.600,1863.026 879.675,1852.739 864.000 C 1842.451 848.325,1829.854 828.750,1824.745 820.500 C 1813.813 802.847,1779.000 731.140,1779.000 726.275 C 1779.000 724.429,1777.806 720.574,1776.347 717.709 C 1774.888 714.844,1768.507 701.700,1762.168 688.500 C 1755.829 675.300,1744.294 654.687,1736.535 642.692 C 1728.776 630.698,1720.819 615.848,1718.854 609.692 C 1712.434 589.584,1691.063 538.676,1685.820 531.000 C 1683.002 526.875,1675.644 514.050,1669.469 502.500 C 1663.294 490.950,1653.350 473.671,1647.371 464.103 C 1635.785 445.562,1597.003 399.000,1593.145 399.000 C 1591.876 399.000,1586.261 395.907,1580.669 392.126 C 1564.912 381.474,1538.442 376.572,1521.403 381.150 C 1513.756 383.204,1506.218 386.036,1504.650 387.442 C 1503.083 388.849,1498.858 390.000,1495.261 390.000 C 1487.581 390.000,1469.911 410.225,1462.871 427.074 C 1450.901 455.724,1453.793 484.488,1473.617 533.949 C 1486.058 564.989,1500.596 591.645,1519.456 618.000 C 1543.027 650.936,1553.947 678.124,1567.656 738.000 C 1573.240 762.388,1587.673 808.155,1595.092 825.000 C 1597.635 830.775,1604.843 846.300,1611.108 859.500 C 1623.246 885.071,1630.485 914.476,1633.635 951.000 C 1634.703 963.375,1636.796 974.783,1638.288 976.350 C 1639.780 977.918,1641.000 981.293,1640.999 983.850 C 1640.998 989.276,1670.095 1082.018,1674.212 1089.709 C 1681.211 1102.787,1673.726 1113.275,1661.907 1106.950 C 1653.590 1102.499,1637.381 1086.395,1625.723 1071.000 C 1613.391 1054.715,1611.725 1051.796,1592.623 1013.009 C 1584.359 996.229,1576.311 980.475,1574.738 978.000 C 1573.166 975.525,1569.824 968.775,1567.312 963.000 C 1551.028 925.568,1523.410 875.079,1495.638 831.972 C 1489.420 822.319,1485.204 815.342,1443.381 745.500 C 1420.619 707.489,1409.259 689.854,1401.770 680.899 C 1388.935 665.553,1381.565 654.900,1363.450 625.500 C 1352.267 607.350,1337.578 584.586,1330.808 574.914 C 1324.039 565.242,1315.125 552.180,1311.000 545.887 C 1300.931 530.528,1266.378 480.361,1259.422 471.000 C 1246.528 453.651,1226.769 422.273,1214.823 400.174 C 1207.785 387.153,1200.408 374.475,1198.430 372.000 C 1196.453 369.525,1187.679 354.000,1178.933 337.500 C 1160.572 302.861,1142.200 274.772,1131.186 264.499 C 1114.442 248.880,1097.339 239.335,1083.517 237.895 C 1075.841 237.095,1067.358 235.262,1064.665 233.821 C 1059.491 231.051,1035.070 231.299,1020.918 234.264 M1086.000 258.169 C 1109.504 266.677,1130.752 286.706,1144.846 313.640 C 1149.986 323.463,1160.660 342.975,1168.567 357.000 C 1176.473 371.025,1188.551 393.300,1195.407 406.500 C 1206.332 427.536,1223.774 454.455,1263.195 511.125 C 1269.078 519.581,1280.938 536.625,1289.552 549.000 C 1306.311 573.076,1322.875 597.995,1333.425 615.000 C 1351.451 644.057,1369.419 670.794,1391.910 702.029 C 1405.562 720.988,1417.461 738.525,1418.354 741.000 C 1419.246 743.475,1422.299 748.875,1425.137 753.000 C 1427.976 757.125,1434.664 768.600,1440.000 778.500 C 1448.732 794.699,1465.786 822.316,1496.501 870.000 C 1508.831 889.140,1516.181 902.985,1565.790 1000.500 C 1585.935 1040.100,1605.874 1076.132,1610.099 1080.571 C 1620.752 1091.766,1617.635 1097.988,1601.344 1098.046 C 1594.280 1098.071,1586.475 1099.376,1584.000 1100.945 C 1580.790 1102.981,1583.370 1103.735,1593.000 1103.575 C 1605.590 1103.367,1619.007 1107.229,1643.624 1118.147 C 1669.177 1129.479,1704.241 1125.180,1746.426 1105.541 C 1763.958 1097.380,1758.080 1095.062,1737.904 1102.181 C 1725.723 1106.479,1702.146 1106.354,1697.779 1101.968 C 1694.149 1098.324,1662.587 1001.101,1657.601 978.208 C 1655.240 967.369,1651.060 942.868,1648.312 923.762 C 1641.150 873.966,1643.340 871.052,1705.500 847.641 C 1717.050 843.291,1733.276 837.092,1741.558 833.866 C 1749.840 830.640,1758.873 828.000,1761.631 828.000 C 1764.389 828.000,1767.608 826.444,1768.783 824.542 C 1772.019 819.306,1739.421 823.264,1716.000 830.951 C 1690.415 839.347,1664.220 849.593,1660.650 852.600 C 1656.528 856.071,1638.627 855.547,1631.525 851.746 C 1622.128 846.717,1602.389 798.237,1589.896 749.500 C 1582.816 721.881,1582.141 690.989,1588.422 682.022 C 1594.406 673.479,1637.990 652.322,1662.000 646.305 C 1688.565 639.648,1691.184 635.991,1669.350 636.039 C 1649.166 636.082,1618.640 644.710,1599.981 655.645 C 1586.495 663.549,1568.524 665.343,1563.870 659.250 C 1562.295 657.188,1559.149 650.775,1556.880 645.000 C 1554.610 639.225,1544.816 623.289,1535.114 609.587 C 1516.087 582.715,1488.503 530.598,1480.732 506.841 C 1472.861 482.775,1471.545 458.929,1477.156 442.035 C 1485.555 416.747,1493.508 407.946,1513.633 401.665 C 1538.038 394.048,1546.628 394.555,1567.756 404.863 C 1595.934 418.610,1613.073 438.996,1650.296 503.044 C 1675.094 545.710,1678.734 553.070,1688.796 580.878 C 1698.507 607.716,1722.439 657.802,1729.468 666.000 C 1735.164 672.643,1749.989 703.713,1758.098 726.000 C 1770.316 759.582,1804.828 825.123,1828.395 859.500 C 1840.837 877.650,1853.845 898.575,1857.302 906.000 C 1864.799 922.105,1884.271 969.246,1885.184 973.500 C 1885.538 975.150,1887.292 981.225,1889.081 987.000 C 1890.871 992.775,1894.708 1005.600,1897.607 1015.500 C 1900.506 1025.400,1904.237 1036.875,1905.897 1041.000 C 1907.558 1045.125,1909.365 1050.784,1909.913 1053.575 C 1910.461 1056.366,1912.856 1064.300,1915.235 1071.207 C 1920.018 1085.088,1918.255 1093.288,1908.623 1101.963 C 1900.815 1108.995,1895.604 1109.429,1815.250 1109.740 C 1778.263 1109.883,1748.939 1110.939,1750.087 1112.087 C 1752.953 1114.953,1753.874 1115.047,1817.316 1118.909 C 1875.522 1122.452,1905.073 1127.161,1923.035 1135.752 C 1928.791 1138.505,1939.137 1143.477,1946.027 1146.799 C 1952.916 1150.122,1964.576 1159.064,1971.937 1166.670 C 1991.328 1186.708,2031.976 1248.706,2044.929 1278.000 C 2055.538 1301.994,2057.831 1308.287,2070.074 1347.000 C 2085.654 1396.268,2093.564 1416.387,2109.392 1446.999 C 2122.958 1473.236,2153.476 1522.280,2161.972 1531.499 C 2168.888 1539.004,2193.000 1574.072,2193.000 1576.627 C 2193.000 1577.668,2196.761 1584.140,2201.357 1591.010 C 2213.192 1608.697,2215.138 1612.121,2231.482 1644.000 C 2261.987 1703.504,2265.000 1709.772,2265.000 1713.732 C 2265.000 1715.969,2266.166 1719.083,2267.591 1720.650 C 2273.318 1726.949,2288.742 1776.481,2292.076 1799.281 C 2294.216 1813.915,2295.090 1843.011,2294.278 1872.529 C 2293.107 1915.093,2291.704 1926.174,2283.551 1957.225 C 2271.241 2004.115,2242.609 2062.939,2221.868 2083.952 C 2218.366 2087.501,2210.100 2096.112,2203.500 2103.088 C 2196.900 2110.065,2178.143 2125.247,2161.819 2136.828 C 2136.057 2155.102,2126.152 2159.986,2086.819 2173.815 C 2061.893 2182.578,2038.851 2191.345,2035.614 2193.296 C 2032.377 2195.248,2024.185 2199.792,2017.410 2203.395 C 2003.707 2210.681,1948.776 2254.549,1939.656 2265.489 C 1925.115 2282.932,1858.574 2352.940,1818.841 2392.599 C 1772.593 2438.760,1758.828 2448.638,1698.000 2479.316 C 1666.100 2495.405,1658.206 2498.358,1618.500 2509.064 C 1575.270 2520.719,1544.064 2524.520,1496.374 2523.939 C 1450.162 2523.376,1392.225 2514.863,1376.537 2506.331 C 1372.158 2503.949,1367.018 2502.000,1365.115 2502.000 C 1363.213 2502.000,1349.246 2496.104,1334.078 2488.899 C 1318.910 2481.693,1303.125 2474.751,1299.000 2473.472 C 1294.875 2472.194,1282.050 2466.727,1270.500 2461.324 C 1258.950 2455.921,1236.000 2447.162,1219.500 2441.861 C 1176.147 2427.931,1144.258 2415.372,1122.000 2403.460 C 1111.275 2397.721,1097.951 2390.608,1092.392 2387.653 C 1086.832 2384.699,1080.082 2380.382,1077.392 2378.061 C 1074.701 2375.740,1065.075 2369.792,1056.000 2364.842 C 1035.652 2353.745,1009.791 2336.769,996.485 2325.775 C 945.829 2283.919,845.191 2225.555,783.000 2201.966 C 753.697 2190.852,730.764 2176.922,679.500 2139.100 C 652.228 2118.979,622.481 2103.000,612.294 2103.000 C 609.246 2103.000,591.395 2096.427,572.626 2088.394 C 521.128 2066.352,492.604 2060.701,425.141 2059.178 C 391.329 2058.415,366.576 2059.086,363.268 2060.856 C 355.716 2064.898,349.617 2057.638,342.024 2035.571 C 330.789 2002.916,334.313 1986.965,360.265 1953.000 C 381.694 1924.954,390.536 1916.676,409.532 1906.877 C 435.711 1893.372,506.543 1878.043,543.000 1877.992 C 553.725 1877.977,570.600 1876.498,580.500 1874.705 C 590.400 1872.912,604.575 1870.376,612.000 1869.069 C 626.753 1866.474,649.932 1868.936,708.687 1879.342 C 770.101 1890.218,782.588 1900.462,787.499 1944.000 C 788.709 1954.725,790.155 1965.944,790.712 1968.931 C 793.339 1983.013,771.660 2062.644,759.597 2083.221 C 750.970 2097.938,749.655 2103.000,754.460 2103.000 C 760.577 2103.000,781.559 2065.958,788.447 2043.000 C 795.015 2021.105,800.145 1993.301,802.560 1966.500 C 805.328 1935.773,807.032 1929.318,813.582 1924.730 C 820.454 1919.917,817.152 1918.611,858.000 1942.294 C 879.391 1954.696,929.740 1978.534,950.427 1986.053 C 966.026 1991.723,970.975 1995.289,978.576 2006.338 C 987.463 2019.254,987.742 2020.631,986.237 2044.121 C 985.366 2057.695,981.801 2076.478,978.193 2086.500 C 969.892 2109.556,969.897 2109.526,973.790 2110.972 C 979.691 2113.163,995.436 2075.968,997.484 2055.000 C 999.838 2030.892,1006.068 2012.832,1014.825 2004.727 C 1020.195 1999.758,1026.779 1998.249,1048.500 1997.013 C 1063.350 1996.167,1082.684 1993.263,1091.464 1990.558 C 1131.869 1978.112,1205.401 1930.164,1224.517 1903.800 C 1236.968 1886.627,1234.890 1884.826,1218.883 1898.917 C 1200.266 1915.304,1162.036 1938.994,1158.117 1936.572 C 1156.316 1935.459,1161.750 1926.249,1171.093 1914.579 C 1193.106 1887.082,1216.624 1846.913,1229.031 1815.621 C 1255.312 1749.337,1267.463 1665.418,1252.570 1653.058 C 1249.119 1650.194,1248.604 1652.514,1249.462 1667.063 C 1251.420 1700.274,1232.391 1770.308,1206.822 1824.000 C 1191.243 1856.713,1152.017 1914.000,1145.196 1914.000 C 1141.088 1914.000,1144.111 1892.075,1152.227 1863.000 C 1158.546 1840.365,1159.330 1831.433,1159.202 1783.500 C 1159.095 1743.055,1157.714 1723.476,1153.703 1705.500 C 1145.296 1667.833,1142.536 1668.285,1144.551 1707.000 C 1145.539 1725.975,1146.408 1754.325,1146.483 1770.000 C 1146.738 1823.509,1135.134 1875.059,1122.857 1874.954 C 1115.080 1874.887,1113.067 1872.839,1096.525 1848.156 C 1088.289 1835.866,1070.264 1812.291,1056.470 1795.766 C 1017.623 1749.228,985.519 1700.739,971.876 1668.000 C 965.639 1653.034,966.118 1600.466,972.752 1571.828 C 978.619 1546.503,994.409 1505.592,1009.814 1475.805 C 1021.267 1453.660,1021.688 1452.000,1015.842 1452.000 C 1012.484 1452.000,989.076 1486.515,984.306 1498.500 C 983.649 1500.150,980.079 1508.250,976.372 1516.500 C 966.368 1538.769,960.180 1558.532,955.416 1583.430 C 948.806 1617.979,941.606 1621.887,920.183 1602.555 C 909.305 1592.739,887.638 1575.160,865.500 1558.190 C 846.228 1543.417,826.185 1529.576,802.956 1515.000 C 751.964 1483.003,709.405 1454.402,701.127 1446.566 C 696.522 1442.208,689.315 1432.535,685.112 1425.071 C 673.153 1403.834,676.119 1385.071,698.166 1342.500 C 706.643 1326.130,735.476 1283.710,745.787 1272.436 C 754.921 1262.450,765.989 1242.000,762.261 1242.000 C 758.341 1242.000,730.739 1269.063,716.251 1287.111 C 710.242 1294.596,697.736 1316.871,688.461 1336.611 C 679.185 1356.350,669.488 1376.816,666.911 1382.091 C 661.436 1393.301,650.248 1398.019,637.319 1394.572 C 628.145 1392.125,613.460 1375.580,577.500 1327.171 C 569.250 1316.066,561.096 1305.521,559.381 1303.740 C 557.665 1301.958,547.603 1289.025,537.021 1275.000 C 526.439 1260.975,516.689 1249.045,515.354 1248.488 C 514.020 1247.931,508.616 1241.181,503.347 1233.488 C 498.077 1225.795,484.750 1209.949,473.731 1198.274 C 450.138 1173.279,444.000 1162.558,444.000 1146.344 C 444.000 1129.175,447.502 1121.892,472.582 1086.900 C 484.912 1069.697,495.000 1054.096,495.000 1052.231 C 495.000 1048.667,475.794 1068.398,460.500 1087.673 C 437.966 1116.074,422.549 1128.000,408.365 1128.000 C 385.394 1128.000,266.402 1021.301,247.272 983.549 C 236.760 962.806,230.019 934.337,232.277 920.220 C 235.995 896.969,258.905 862.340,276.636 853.171 C 281.673 850.566,294.432 847.212,304.990 845.717 C 321.246 843.414,327.040 843.950,342.842 849.214 C 368.590 857.791,394.908 870.581,411.295 882.482 C 425.574 892.851,475.418 937.955,510.222 972.000 C 592.285 1052.274,619.365 1077.432,637.617 1090.354 C 649.102 1098.485,659.175 1105.966,660.000 1106.979 C 661.843 1109.241,703.111 1137.964,739.589 1162.373 C 760.881 1176.621,810.339 1216.742,819.000 1226.793 C 819.825 1227.751,825.315 1232.119,831.201 1236.501 C 837.086 1240.882,848.372 1250.756,856.280 1258.442 C 881.732 1283.179,906.614 1300.765,946.500 1322.209 C 995.021 1348.295,1015.541 1357.838,1029.000 1360.575 C 1053.118 1365.479,1056.117 1374.083,1039.500 1390.700 C 1028.091 1402.109,1024.715 1412.048,1035.750 1401.742 C 1039.463 1398.274,1052.123 1389.602,1063.884 1382.469 C 1095.906 1363.049,1107.149 1351.433,1118.251 1326.297 C 1130.253 1299.123,1130.443 1295.750,1119.296 1307.683 C 1114.509 1312.807,1109.291 1317.000,1107.701 1317.000 C 1102.974 1317.000,1089.000 1304.873,1089.000 1300.771 C 1089.000 1297.413,1071.583 1271.299,1059.062 1255.883 C 1036.850 1228.535,974.836 1157.006,964.942 1147.322 C 936.703 1119.682,886.367 1060.764,878.611 1046.273 C 876.688 1042.681,875.331 1032.262,875.595 1023.121 C 876.726 983.852,911.902 940.530,982.435 891.538 C 1000.671 878.871,997.251 872.210,977.607 882.138 C 945.536 898.346,912.264 927.275,886.332 961.500 C 871.785 980.698,867.604 983.788,856.017 983.905 C 845.746 984.008,833.833 972.735,826.001 955.500 C 823.751 950.550,820.725 944.475,819.276 942.000 C 817.827 939.525,812.311 928.725,807.019 918.000 C 801.727 907.275,793.820 893.935,789.449 888.355 C 785.077 882.775,773.327 866.955,763.339 853.200 C 753.350 839.445,735.800 818.121,724.339 805.814 C 691.593 770.652,690.000 767.987,690.000 748.375 C 690.000 731.840,690.532 730.678,704.250 717.260 C 712.088 709.594,734.496 691.458,754.047 676.958 C 773.598 662.458,788.898 649.898,788.046 649.046 C 782.815 643.815,730.982 675.707,697.500 704.758 C 685.950 714.780,674.475 722.979,672.000 722.978 C 663.869 722.977,649.746 712.276,634.500 694.564 C 603.982 659.112,600.838 655.223,591.993 642.000 C 568.314 606.600,559.576 577.360,561.677 540.556 C 563.596 506.942,576.178 480.204,601.215 456.531 C 619.378 439.357,662.460 416.785,677.912 416.345 C 687.787 416.065,714.000 422.829,714.000 425.658 C 714.000 426.690,718.067 429.335,723.037 431.536 C 733.293 436.075,747.484 449.465,757.029 463.608 C 778.304 495.132,786.280 507.988,797.910 529.500 C 808.621 549.312,833.541 586.205,856.675 616.500 C 859.195 619.800,863.562 625.632,866.379 629.460 C 869.195 633.288,881.625 649.526,894.000 665.544 C 906.375 681.562,928.242 711.505,942.593 732.084 C 961.174 758.729,980.030 780.727,1008.094 808.500 C 1048.184 848.174,1064.385 868.924,1080.597 901.363 C 1085.582 911.338,1092.888 923.797,1096.831 929.050 C 1100.774 934.302,1104.000 939.732,1104.000 941.116 C 1104.000 942.500,1107.785 948.328,1112.412 954.066 C 1117.039 959.805,1131.327 980.700,1144.163 1000.500 C 1200.357 1087.178,1243.732 1139.726,1283.419 1169.205 C 1295.474 1178.160,1304.814 1187.059,1304.173 1188.982 C 1303.532 1190.905,1298.041 1193.286,1291.970 1194.272 C 1280.229 1196.181,1275.786 1198.786,1278.923 1201.923 C 1279.980 1202.980,1302.866 1203.993,1329.779 1204.173 C 1370.154 1204.443,1380.005 1203.653,1386.106 1199.656 C 1397.668 1192.083,1443.000 1147.428,1443.000 1143.613 C 1443.000 1141.731,1446.713 1138.178,1451.250 1135.716 C 1458.396 1131.839,1458.675 1131.224,1453.333 1131.120 C 1449.941 1131.054,1442.613 1134.359,1437.048 1138.464 C 1431.484 1142.570,1422.364 1146.785,1416.782 1147.833 C 1405.771 1149.898,1400.398 1146.056,1392.273 1130.306 C 1389.948 1125.800,1381.377 1114.325,1373.226 1104.806 C 1365.075 1095.288,1354.840 1082.100,1350.482 1075.500 C 1346.124 1068.900,1340.845 1062.413,1338.750 1061.085 C 1336.656 1059.757,1332.858 1054.357,1330.310 1049.085 C 1324.645 1037.362,1317.739 1025.342,1307.504 1009.391 C 1303.230 1002.731,1296.747 990.581,1293.097 982.391 C 1289.446 974.201,1278.481 951.543,1268.730 932.040 C 1258.978 912.536,1251.000 892.752,1251.000 888.073 C 1251.000 866.833,1305.920 821.146,1359.311 797.971 C 1387.671 785.661,1391.853 781.678,1373.704 784.265 C 1340.547 788.991,1300.537 809.873,1268.924 838.952 C 1243.675 862.178,1236.427 866.045,1227.300 861.161 C 1222.166 858.413,1201.347 821.923,1186.169 789.068 C 1183.518 783.330,1177.446 772.962,1172.675 766.027 C 1167.904 759.093,1164.000 752.585,1164.000 751.565 C 1164.000 750.546,1159.526 742.689,1154.058 734.106 C 1142.700 716.278,1133.168 698.347,1117.602 665.529 C 1101.078 630.693,1101.684 619.528,1121.358 596.259 C 1141.758 572.133,1156.270 562.262,1224.750 525.937 C 1229.288 523.530,1233.000 520.309,1233.000 518.780 C 1233.000 515.173,1233.634 515.073,1214.224 521.751 C 1180.332 533.412,1119.000 568.037,1119.000 575.511 C 1119.000 580.187,1091.987 591.639,1085.367 589.769 C 1078.300 587.773,1063.595 570.259,1042.394 538.586 C 1035.735 528.639,1020.036 505.650,1007.506 487.500 C 968.617 431.166,957.591 410.581,943.917 368.774 C 939.687 355.844,939.825 353.929,946.294 335.774 C 955.066 311.151,960.361 300.000,963.279 300.000 C 964.553 300.000,966.472 297.239,967.543 293.863 C 970.094 285.826,1006.841 255.604,1018.449 251.996 C 1032.755 247.549,1064.736 250.472,1086.000 258.169 M1006.950 288.809 C 978.859 317.967,965.217 339.166,961.012 360.192 C 958.019 375.154,964.216 368.857,975.050 345.926 C 985.707 323.371,994.737 310.199,1012.188 291.750 C 1018.822 284.738,1022.483 279.000,1020.325 279.000 C 1018.166 279.000,1012.148 283.414,1006.950 288.809 M1004.209 351.586 C 990.680 368.286,984.403 380.871,981.289 397.541 C 977.688 416.816,982.682 414.167,988.436 393.750 C 991.110 384.263,998.752 368.633,1005.417 359.017 C 1019.842 338.206,1019.041 333.276,1004.209 351.586 M1019.361 412.924 C 1009.578 433.829,1004.560 462.000,1010.618 462.000 C 1012.478 462.000,1014.000 457.950,1014.000 453.000 C 1014.000 441.600,1013.802 442.515,1020.461 423.160 C 1023.553 414.174,1028.120 403.711,1030.610 399.910 C 1033.313 395.786,1033.837 393.000,1031.912 393.000 C 1030.137 393.000,1024.489 401.966,1019.361 412.924 M1527.000 417.317 C 1511.224 426.775,1501.311 437.113,1495.356 450.319 C 1491.565 458.727,1490.933 463.133,1493.196 465.396 C 1495.459 467.659,1497.011 465.779,1498.508 458.963 C 1500.603 449.426,1521.131 426.039,1536.000 416.252 C 1546.979 409.025,1539.320 409.931,1527.000 417.317 M632.424 456.104 C 609.294 475.930,582.000 521.547,582.000 540.377 C 582.000 543.470,583.350 546.000,585.000 546.000 C 586.650 546.000,588.000 544.375,588.000 542.388 C 588.000 540.402,593.951 526.564,601.224 511.638 C 611.413 490.729,619.151 479.852,634.935 464.250 C 657.127 442.313,655.328 436.472,632.424 456.104 M1041.080 478.947 C 1036.847 492.653,1035.844 500.044,1037.933 502.133 C 1040.022 504.222,1041.000 503.723,1041.000 500.566 C 1041.000 498.017,1043.528 488.270,1046.617 478.906 C 1049.706 469.542,1051.122 461.194,1049.764 460.354 C 1048.406 459.515,1044.498 467.881,1041.080 478.947 M1524.269 466.734 C 1512.978 476.235,1506.000 488.761,1506.000 499.528 C 1506.000 509.985,1510.733 506.586,1513.175 494.375 C 1514.248 489.012,1520.072 479.559,1526.118 473.368 C 1539.148 460.023,1537.837 455.317,1524.269 466.734 M1535.343 512.232 C 1523.544 525.688,1515.769 555.000,1524.000 555.000 C 1525.650 555.000,1527.000 550.731,1527.000 545.514 C 1527.000 540.296,1530.494 530.065,1534.764 522.778 C 1542.907 508.884,1543.216 503.254,1535.343 512.232 M623.138 526.047 C 610.184 539.419,592.302 571.738,589.158 587.459 C 586.861 598.945,593.140 603.095,595.835 591.873 C 599.419 576.950,619.959 535.666,626.851 529.534 C 633.831 523.322,640.476 513.000,637.494 513.000 C 636.549 513.000,630.089 518.871,623.138 526.047 M1069.940 521.250 C 1064.731 539.928,1064.856 541.391,1070.771 531.000 C 1077.517 519.151,1078.237 516.000,1074.202 516.000 C 1072.663 516.000,1070.745 518.363,1069.940 521.250 M1202.975 562.078 C 1174.301 583.127,1142.834 626.152,1143.158 643.865 C 1143.304 651.855,1143.848 651.427,1150.446 638.130 C 1166.516 605.742,1189.545 577.920,1213.009 562.546 C 1220.560 557.598,1223.678 551.911,1218.750 552.074 C 1217.513 552.115,1210.414 556.617,1202.975 562.078 M1543.721 569.572 C 1538.299 580.058,1537.973 582.000,1541.636 582.000 C 1544.919 582.000,1552.425 564.425,1550.125 562.125 C 1549.200 561.200,1546.318 564.551,1543.721 569.572 M633.318 579.212 C 622.120 594.358,612.060 618.795,612.029 630.927 C 611.992 645.664,616.696 642.833,618.843 626.827 C 619.751 620.052,625.338 604.948,631.257 593.263 C 643.048 569.986,643.769 565.076,633.318 579.212 M1560.000 612.000 C 1560.000 615.300,1561.350 618.000,1563.000 618.000 C 1564.650 618.000,1566.000 615.300,1566.000 612.000 C 1566.000 608.700,1564.650 606.000,1563.000 606.000 C 1561.350 606.000,1560.000 608.700,1560.000 612.000 M810.750 624.661 C 807.038 626.452,804.000 630.411,804.000 633.458 C 804.000 641.283,807.566 640.369,817.500 630.000 C 826.404 620.706,823.580 618.474,810.750 624.661 M644.456 636.762 C 638.302 649.668,635.054 665.043,637.610 669.177 C 639.282 671.883,653.425 637.162,653.873 629.250 C 654.196 623.536,648.655 627.956,644.456 636.762 M1185.286 643.887 C 1171.195 659.896,1156.987 687.106,1158.568 695.056 C 1159.268 698.574,1162.966 693.447,1169.019 680.568 C 1177.203 663.155,1185.004 651.989,1199.250 637.296 C 1203.684 632.723,1204.059 630.000,1200.255 630.000 C 1198.745 630.000,1192.009 636.249,1185.286 643.887 M1647.899 672.175 C 1628.117 681.770,1605.054 704.934,1605.019 715.242 C 1605.005 719.395,1607.956 717.190,1615.681 707.275 C 1626.913 692.858,1640.995 681.959,1659.750 673.164 C 1665.938 670.263,1671.000 666.789,1671.000 665.444 C 1671.000 661.597,1667.763 662.540,1647.899 672.175 M668.266 676.500 C 667.477 680.625,667.995 684.000,669.416 684.000 C 670.837 684.000,672.000 682.760,672.000 681.245 C 672.000 679.730,672.819 676.355,673.821 673.745 C 674.822 671.135,674.305 669.000,672.671 669.000 C 671.037 669.000,669.054 672.375,668.266 676.500 M771.180 697.952 C 748.302 719.134,731.824 745.862,732.210 761.164 C 732.384 768.079,733.966 766.242,741.488 750.390 C 747.519 737.681,758.503 723.003,774.278 706.570 C 787.325 692.980,798.000 680.993,798.000 679.931 C 798.000 674.896,791.010 679.593,771.180 697.952 M1195.841 703.975 C 1187.534 716.558,1178.829 745.974,1181.408 752.749 C 1182.297 755.085,1185.249 749.010,1187.968 739.249 C 1190.688 729.487,1195.951 715.632,1199.665 708.459 C 1208.286 691.812,1205.797 688.893,1195.841 703.975 M1633.017 723.987 C 1621.261 734.658,1608.681 753.000,1613.118 753.000 C 1614.470 753.000,1618.248 749.288,1621.514 744.750 C 1624.779 740.213,1632.012 732.050,1637.587 726.611 C 1651.358 713.174,1647.420 710.913,1633.017 723.987 M766.676 760.829 C 755.174 778.152,747.000 797.490,747.000 807.377 C 747.000 817.342,751.941 813.367,755.859 800.250 C 760.364 785.173,769.613 766.333,777.412 756.345 C 783.421 748.651,784.556 744.000,780.425 744.000 C 779.008 744.000,772.821 751.573,766.676 760.829 M1210.826 762.061 C 1205.646 775.007,1204.236 789.133,1208.601 784.350 C 1210.729 782.019,1221.000 754.363,1221.000 750.966 C 1221.000 750.435,1219.797 750.000,1218.326 750.000 C 1216.855 750.000,1213.480 755.427,1210.826 762.061 M1632.559 764.151 C 1628.951 768.634,1626.000 774.934,1626.000 778.151 C 1626.000 781.368,1626.598 783.402,1627.328 782.672 C 1629.924 780.076,1644.000 758.711,1644.000 757.367 C 1644.000 753.574,1638.395 756.898,1632.559 764.151 M789.834 812.112 C 781.433 830.463,779.864 844.064,785.500 849.700 C 788.167 852.367,789.000 850.578,789.000 842.186 C 789.000 836.128,792.375 823.540,796.500 814.212 C 805.099 794.768,805.047 795.000,800.834 795.000 C 799.093 795.000,794.143 802.700,789.834 812.112 M1640.862 804.257 C 1639.021 807.698,1638.409 811.409,1639.502 812.502 C 1641.537 814.537,1650.000 804.803,1650.000 800.427 C 1650.000 795.660,1644.152 798.111,1640.862 804.257 M1233.046 815.250 C 1233.082 821.679,1233.734 822.507,1236.000 819.000 C 1239.793 813.130,1239.793 807.000,1236.000 807.000 C 1234.350 807.000,1233.021 810.713,1233.046 815.250 M1351.211 828.126 C 1321.485 851.485,1287.593 895.930,1294.567 902.407 C 1295.807 903.558,1297.383 902.937,1298.069 901.026 C 1301.634 891.096,1319.278 868.715,1341.073 846.477 C 1366.731 820.296,1370.994 812.580,1351.211 828.126 M1653.000 837.177 C 1653.000 838.924,1654.350 839.520,1656.000 838.500 C 1657.650 837.480,1659.000 836.051,1659.000 835.323 C 1659.000 834.595,1657.650 834.000,1656.000 834.000 C 1654.350 834.000,1653.000 835.430,1653.000 837.177 M812.070 862.572 C 809.281 868.419,807.111 876.870,807.246 881.352 C 807.453 888.234,808.641 886.981,814.888 873.292 C 818.999 864.284,821.142 855.942,819.712 854.512 C 818.283 853.083,814.888 856.663,812.070 862.572 M1724.384 861.188 C 1700.965 872.927,1683.951 885.689,1673.746 899.169 C 1657.741 920.309,1664.903 918.954,1686.914 896.678 C 1701.959 881.452,1715.124 871.404,1728.914 864.622 C 1739.961 859.189,1749.000 854.127,1749.000 853.372 C 1749.000 850.374,1740.698 853.010,1724.384 861.188 M284.431 879.750 C 268.532 901.042,256.514 943.983,262.263 958.963 C 265.367 967.052,269.897 958.331,269.954 944.155 C 270.010 930.282,279.854 900.230,290.031 882.865 C 298.869 867.783,294.982 865.621,284.431 879.750 M837.243 902.546 C 833.360 909.801,832.938 924.000,836.605 924.000 C 839.136 924.000,843.682 899.682,841.550 897.550 C 840.965 896.965,839.027 899.213,837.243 902.546 M1337.890 903.845 C 1327.037 912.449,1311.194 943.375,1311.044 956.250 C 1310.937 965.409,1317.157 958.688,1321.112 945.371 C 1323.501 937.325,1328.711 925.513,1332.689 919.121 C 1346.101 897.573,1346.212 897.249,1337.890 903.845 M1698.000 917.307 C 1685.301 926.706,1669.567 944.567,1671.917 946.917 C 1672.851 947.851,1681.888 940.238,1692.000 930.000 C 1702.112 919.762,1709.961 910.969,1709.443 910.460 C 1708.924 909.951,1703.775 913.032,1698.000 917.307 M980.837 932.333 C 964.221 945.060,961.082 948.188,944.034 969.000 C 924.355 993.025,916.613 1006.351,910.631 1026.493 C 905.422 1044.034,904.869 1050.000,908.452 1050.000 C 909.801 1050.000,913.290 1042.432,916.206 1033.182 C 926.671 999.981,949.438 966.607,980.023 939.630 C 998.437 923.389,998.991 918.430,980.837 932.333 M288.724 955.109 C 282.504 968.760,281.276 988.047,286.216 994.500 C 290.513 1000.114,290.817 999.438,290.923 984.000 C 290.986 974.925,293.054 963.633,295.518 958.907 C 300.990 948.416,301.007 948.000,295.982 948.000 C 293.771 948.000,290.505 951.199,288.724 955.109 M1350.493 954.906 C 1346.456 959.771,1332.000 991.960,1332.000 996.086 C 1332.000 997.688,1333.350 999.000,1335.000 999.000 C 1336.650 999.000,1338.001 997.313,1338.002 995.250 C 1338.004 993.188,1342.087 982.871,1347.076 972.324 C 1355.923 953.624,1357.274 946.735,1350.493 954.906 M1697.834 960.144 C 1688.643 968.115,1680.002 981.259,1680.177 987.000 C 1680.267 989.932,1682.089 988.912,1685.407 984.071 C 1688.208 979.985,1694.392 972.177,1699.149 966.720 C 1709.147 955.252,1708.309 951.059,1697.834 960.144 M310.875 1002.375 C 307.224 1020.632,309.391 1038.000,315.321 1038.000 C 316.794 1038.000,318.000 1027.875,318.000 1015.500 C 318.000 992.495,314.237 985.563,310.875 1002.375 M1698.735 1005.750 C 1697.084 1007.813,1694.809 1012.875,1693.679 1017.000 L 1691.624 1024.500 1697.745 1017.000 C 1703.157 1010.369,1706.015 1002.000,1702.867 1002.000 C 1702.244 1002.000,1700.385 1003.688,1698.735 1005.750 M958.855 1022.262 C 944.829 1039.410,933.069 1063.391,933.029 1074.927 C 932.988 1086.918,938.098 1082.215,940.490 1068.062 C 942.230 1057.760,952.555 1039.587,970.779 1014.750 C 980.174 1001.946,970.472 1008.057,958.855 1022.262 M1365.474 1019.130 C 1358.762 1032.226,1356.762 1050.000,1362.000 1050.000 C 1363.650 1050.000,1365.000 1046.790,1365.000 1042.866 C 1365.000 1038.943,1367.096 1030.717,1369.657 1024.587 C 1376.387 1008.479,1373.118 1004.215,1365.474 1019.130 M511.958 1025.493 C 509.224 1028.515,507.890 1031.890,508.993 1032.993 C 512.556 1036.556,514.965 1035.157,518.454 1027.500 C 522.460 1018.707,519.052 1017.655,511.958 1025.493 M343.796 1037.522 C 341.370 1041.446,344.217 1059.417,347.837 1063.037 C 350.054 1065.254,351.000 1062.038,351.000 1052.277 C 351.000 1039.144,347.378 1031.726,343.796 1037.522 M1709.188 1045.813 C 1707.984 1047.016,1707.000 1050.070,1707.000 1052.600 C 1707.000 1055.977,1707.888 1056.313,1710.338 1053.863 C 1712.173 1052.027,1713.158 1048.973,1712.525 1047.075 C 1711.893 1045.178,1710.391 1044.609,1709.188 1045.813 M523.967 1062.872 C 496.950 1091.443,465.217 1164.217,476.685 1171.305 C 478.161 1172.218,483.051 1161.835,487.550 1148.232 C 498.588 1114.862,512.615 1087.706,529.551 1066.914 C 537.295 1057.408,542.805 1048.805,541.795 1047.795 C 540.786 1046.786,532.763 1053.570,523.967 1062.872 M992.324 1055.232 C 979.727 1069.536,970.824 1094.326,971.668 1112.750 C 972.134 1122.933,974.532 1119.315,976.588 1105.325 C 977.544 1098.821,982.922 1084.107,988.539 1072.626 C 999.179 1050.879,1000.171 1046.320,992.324 1055.232 M369.682 1075.269 C 370.132 1080.091,372.188 1084.591,374.250 1085.269 C 379.434 1086.971,378.953 1079.362,373.432 1072.323 C 369.075 1066.768,368.902 1066.904,369.682 1075.269 M1389.000 1075.255 C 1389.000 1077.595,1388.215 1081.982,1387.255 1085.005 C 1385.658 1090.033,1385.913 1090.005,1390.255 1084.677 C 1395.608 1078.108,1396.514 1071.000,1392.000 1071.000 C 1390.350 1071.000,1389.000 1072.915,1389.000 1075.255 M1011.119 1105.254 C 1002.990 1122.046,1000.400 1137.735,1004.571 1144.913 C 1007.319 1149.643,1007.832 1148.765,1007.909 1139.190 C 1007.959 1132.970,1011.280 1119.808,1015.290 1109.940 C 1023.732 1089.164,1020.607 1085.654,1011.119 1105.254 M1414.196 1111.211 C 1411.280 1118.809,1414.251 1122.490,1418.198 1116.169 C 1420.534 1112.429,1420.796 1109.610,1418.917 1108.449 C 1417.290 1107.443,1415.165 1108.686,1414.196 1111.211 M1517.659 1114.341 C 1516.921 1115.079,1511.678 1116.500,1506.008 1117.499 C 1495.061 1119.427,1479.113 1128.134,1472.970 1135.536 C 1467.963 1141.569,1472.620 1141.158,1488.412 1134.172 C 1495.658 1130.967,1513.588 1126.853,1528.256 1125.030 C 1552.364 1122.035,1566.000 1118.192,1566.000 1114.394 C 1566.000 1112.607,1519.445 1112.555,1517.659 1114.341 M516.971 1137.750 C 506.477 1154.259,501.270 1168.906,501.238 1182.000 L 501.213 1192.500 505.500 1185.000 C 507.858 1180.875,509.835 1175.236,509.894 1172.468 C 509.952 1169.700,514.725 1158.371,520.500 1147.292 C 532.220 1124.807,532.154 1125.000,528.038 1125.000 C 526.408 1125.000,521.428 1130.738,516.971 1137.750 M1041.364 1149.000 C 1039.514 1153.950,1036.496 1162.026,1034.658 1166.946 C 1032.820 1171.866,1032.312 1178.279,1033.528 1181.196 C 1035.443 1185.790,1036.038 1185.496,1037.970 1179.000 C 1039.196 1174.875,1042.332 1164.413,1044.938 1155.750 C 1049.949 1139.096,1047.086 1133.690,1041.364 1149.000 M1596.280 1149.486 C 1592.719 1159.700,1594.550 1165.136,1599.117 1157.913 C 1601.870 1153.561,1603.139 1140.000,1600.793 1140.000 C 1600.130 1140.000,1598.099 1144.269,1596.280 1149.486 M1739.122 1142.050 C 1735.682 1147.747,1731.673 1167.062,1733.674 1168.298 C 1736.026 1169.752,1744.041 1143.041,1741.897 1140.897 C 1741.184 1140.184,1739.935 1140.703,1739.122 1142.050 M1777.982 1153.447 C 1775.462 1160.842,1774.533 1167.593,1775.917 1168.449 C 1777.302 1169.305,1780.587 1163.688,1783.217 1155.968 C 1788.829 1139.498,1788.764 1140.000,1785.282 1140.000 C 1783.787 1140.000,1780.502 1146.051,1777.982 1153.447 M1830.795 1142.445 C 1828.758 1143.739,1826.201 1149.456,1825.114 1155.149 C 1822.725 1167.662,1825.179 1166.091,1831.444 1151.096 C 1836.428 1139.169,1836.406 1138.881,1830.795 1142.445 M1702.949 1145.273 C 1702.177 1146.523,1700.656 1152.935,1699.570 1159.523 C 1698.484 1166.110,1696.869 1175.550,1695.982 1180.500 C 1694.865 1186.729,1695.338 1188.576,1697.517 1186.500 C 1699.250 1184.850,1701.458 1178.775,1702.424 1173.000 C 1703.390 1167.225,1704.965 1158.113,1705.924 1152.750 C 1707.556 1143.624,1706.151 1140.092,1702.949 1145.273 M1552.800 1150.800 C 1551.732 1153.582,1551.534 1156.534,1552.359 1157.359 C 1553.184 1158.184,1554.732 1156.582,1555.800 1153.800 C 1556.868 1151.018,1557.066 1148.066,1556.241 1147.241 C 1555.416 1146.416,1553.868 1148.018,1552.800 1150.800 M1866.600 1149.600 C 1862.267 1153.933,1861.758 1162.122,1865.984 1159.510 C 1870.277 1156.857,1875.679 1146.000,1872.706 1146.000 C 1871.327 1146.000,1868.580 1147.620,1866.600 1149.600 M1515.487 1156.628 C 1511.335 1165.743,1510.971 1173.000,1514.666 1173.000 C 1517.387 1173.000,1522.372 1152.372,1520.181 1150.181 C 1519.517 1149.517,1517.405 1152.419,1515.487 1156.628 M1627.440 1155.098 C 1623.724 1161.110,1620.450 1176.000,1622.845 1176.000 C 1624.179 1176.000,1626.641 1170.600,1628.316 1164.000 C 1631.352 1152.040,1631.074 1149.217,1627.440 1155.098 M1659.542 1161.549 C 1654.810 1176.956,1652.010 1202.012,1655.413 1198.500 C 1658.605 1195.205,1666.117 1155.117,1663.948 1152.948 C 1663.205 1152.205,1661.223 1156.076,1659.542 1161.549 M1476.106 1172.803 C 1474.397 1175.994,1473.000 1184.994,1473.000 1192.803 C 1473.000 1208.016,1475.394 1209.212,1477.633 1195.118 C 1478.386 1190.378,1479.738 1182.113,1480.637 1176.750 C 1482.482 1165.746,1480.709 1164.201,1476.106 1172.803 M1436.702 1181.250 C 1435.372 1218.060,1436.664 1251.000,1439.438 1251.000 C 1440.779 1251.000,1441.977 1233.450,1442.100 1212.000 C 1442.222 1190.550,1441.125 1173.000,1439.661 1173.000 C 1438.198 1173.000,1436.866 1176.713,1436.702 1181.250 M1959.367 1196.250 C 1976.069 1213.698,1996.665 1242.987,2010.524 1269.000 C 2022.428 1291.342,2049.000 1356.121,2049.000 1362.798 C 2049.000 1368.729,2057.971 1390.029,2059.729 1388.271 C 2062.685 1385.315,2051.479 1342.395,2041.279 1317.607 C 2022.270 1271.413,2009.509 1248.143,1989.126 1222.500 C 1974.100 1203.598,1952.740 1182.000,1949.072 1182.000 C 1947.231 1182.000,1951.864 1188.413,1959.367 1196.250 M531.644 1196.250 C 526.281 1214.445,525.589 1220.098,528.206 1224.334 C 530.992 1228.842,530.906 1229.039,536.591 1205.207 C 540.664 1188.130,540.802 1185.000,537.480 1185.000 C 536.094 1185.000,533.468 1190.063,531.644 1196.250 M1070.959 1205.250 C 1070.937 1208.138,1070.078 1213.875,1069.051 1218.000 C 1067.698 1223.436,1068.106 1224.649,1070.536 1222.406 C 1075.459 1217.862,1078.520 1200.000,1074.375 1200.000 C 1072.519 1200.000,1070.982 1202.363,1070.959 1205.250 M1236.000 1221.405 C 1206.977 1237.212,1187.869 1251.613,1157.606 1280.488 C 1125.405 1311.211,1127.524 1318.259,1160.776 1291.036 C 1193.617 1264.151,1205.277 1255.455,1218.000 1248.358 C 1229.228 1242.095,1260.838 1216.007,1262.500 1211.632 C 1264.280 1206.945,1258.915 1208.924,1236.000 1221.405 M1396.125 1221.375 C 1397.156 1226.531,1398.000 1233.281,1398.000 1236.375 C 1398.000 1239.469,1399.350 1242.000,1401.000 1242.000 C 1404.316 1242.000,1404.924 1229.255,1402.109 1218.750 C 1399.299 1208.264,1393.970 1210.601,1396.125 1221.375 M551.050 1228.950 C 548.042 1231.958,548.548 1248.000,551.650 1248.000 C 555.111 1248.000,558.198 1232.183,555.319 1229.200 C 554.099 1227.935,552.178 1227.823,551.050 1228.950 M1357.939 1238.289 C 1355.147 1242.807,1358.627 1268.416,1362.346 1270.714 C 1365.410 1272.608,1365.394 1253.065,1362.323 1242.030 C 1360.904 1236.932,1359.512 1235.744,1357.939 1238.289 M1280.709 1245.250 C 1280.257 1256.538,1281.384 1275.306,1282.929 1282.225 C 1283.700 1285.676,1285.269 1294.458,1286.416 1301.741 C 1287.562 1309.023,1289.850 1314.761,1291.500 1314.491 C 1295.125 1313.898,1295.166 1315.387,1290.661 1284.000 C 1288.647 1269.975,1286.601 1254.839,1286.113 1250.363 C 1284.947 1239.656,1281.080 1235.998,1280.709 1245.250 M1321.526 1254.750 C 1329.102 1300.059,1337.894 1332.809,1344.236 1339.350 C 1348.353 1343.595,1347.677 1337.659,1342.333 1322.627 C 1339.766 1315.407,1335.675 1298.025,1333.240 1284.000 C 1330.806 1269.975,1328.090 1256.138,1327.205 1253.250 C 1324.857 1245.591,1320.200 1246.821,1321.526 1254.750 M1249.821 1258.745 C 1247.004 1266.087,1247.757 1287.982,1251.000 1293.000 C 1253.026 1296.135,1253.922 1290.900,1253.954 1275.750 C 1254.001 1253.743,1253.124 1250.137,1249.821 1258.745 M567.000 1264.677 C 567.000 1267.249,568.372 1268.506,570.049 1267.470 C 571.726 1266.433,572.321 1264.329,571.372 1262.793 C 568.800 1258.632,567.000 1259.407,567.000 1264.677 M1215.203 1284.150 C 1215.394 1293.870,1215.607 1294.083,1218.705 1287.652 C 1221.144 1282.589,1221.092 1279.892,1218.502 1277.302 C 1215.833 1274.633,1215.048 1276.261,1215.203 1284.150 M1186.821 1297.745 C 1183.952 1305.221,1184.698 1335.000,1187.754 1335.000 C 1189.268 1335.000,1190.956 1325.547,1191.504 1313.993 C 1192.460 1293.832,1190.685 1287.675,1186.821 1297.745 M744.959 1312.950 C 727.003 1340.627,710.068 1405.927,715.369 1427.048 C 718.426 1439.228,721.838 1431.023,724.328 1405.500 C 726.955 1378.571,738.989 1337.963,750.407 1317.500 C 763.231 1294.515,759.138 1291.096,744.959 1312.950 M1159.672 1326.994 C 1155.476 1336.210,1159.896 1377.219,1165.675 1382.695 C 1170.393 1387.166,1170.582 1386.875,1168.402 1378.500 C 1167.113 1373.550,1165.185 1358.700,1164.116 1345.500 C 1162.787 1329.080,1161.383 1323.235,1159.672 1326.994 M1133.156 1360.844 C 1129.805 1364.195,1130.618 1394.860,1134.373 1406.787 C 1149.826 1455.865,1149.568 1455.186,1165.853 1489.500 C 1177.953 1514.997,1200.413 1552.047,1205.779 1555.364 C 1211.092 1558.647,1209.579 1555.051,1197.000 1534.500 C 1190.400 1523.717,1185.000 1514.376,1185.000 1513.741 C 1185.000 1513.107,1179.778 1501.319,1173.396 1487.544 C 1153.021 1443.568,1140.200 1402.849,1139.789 1380.805 C 1139.544 1367.649,1136.253 1357.747,1133.156 1360.844 M771.676 1377.685 C 763.028 1388.106,756.000 1414.075,756.000 1435.611 C 756.000 1448.537,757.268 1458.000,759.000 1458.000 C 760.650 1458.000,762.181 1453.613,762.403 1448.250 C 762.625 1442.888,763.067 1432.275,763.386 1424.667 C 763.704 1417.058,767.074 1403.172,770.875 1393.809 C 777.643 1377.132,777.994 1370.072,771.676 1377.685 M1098.461 1410.776 C 1098.789 1424.446,1100.381 1432.241,1103.347 1434.703 C 1107.170 1437.876,1107.457 1435.811,1105.540 1418.927 C 1102.371 1391.022,1097.863 1385.831,1098.461 1410.776 M1067.000 1412.000 C 1064.153 1414.847,1064.513 1434.000,1067.413 1434.000 C 1068.741 1434.000,1070.146 1428.600,1070.535 1422.000 C 1071.247 1409.926,1070.680 1408.320,1067.000 1412.000 M801.209 1421.237 C 794.819 1435.258,791.827 1461.216,795.170 1473.632 C 799.499 1489.707,804.860 1488.284,802.376 1471.718 C 801.280 1464.413,802.010 1448.800,803.996 1437.022 C 807.946 1413.604,807.036 1408.451,801.209 1421.237 M2070.000 1418.423 C 2070.000 1423.950,2082.865 1452.000,2085.400 1452.000 C 2089.314 1452.000,2088.603 1448.127,2081.915 1433.006 C 2076.131 1419.932,2070.000 1412.427,2070.000 1418.423 M1038.379 1444.456 C 1034.430 1453.844,1036.170 1488.795,1041.252 1502.162 C 1044.669 1511.149,1051.130 1511.286,1048.281 1502.311 C 1047.114 1498.632,1045.256 1482.094,1044.152 1465.561 C 1042.300 1437.795,1041.859 1436.184,1038.379 1444.456 M832.871 1465.616 C 830.482 1471.840,830.453 1489.084,832.821 1495.255 C 836.659 1505.257,839.233 1499.273,838.556 1481.925 C 837.810 1462.843,835.965 1457.551,832.871 1465.616 M867.000 1510.323 C 867.000 1519.301,868.440 1527.536,870.200 1528.623 C 874.745 1531.432,874.932 1530.479,873.621 1511.250 C 872.128 1489.349,867.000 1488.631,867.000 1510.323 M1011.044 1509.750 C 1011.105 1531.266,1018.690 1561.738,1027.895 1577.445 C 1038.462 1595.476,1040.492 1590.762,1031.182 1569.812 C 1026.507 1559.293,1022.012 1541.023,1019.726 1523.250 C 1015.658 1491.628,1010.973 1484.343,1011.044 1509.750 M2116.743 1517.250 C 2119.732 1521.788,2126.418 1533.600,2131.601 1543.500 C 2147.013 1572.935,2198.694 1652.522,2206.725 1659.187 C 2215.409 1666.393,2213.987 1659.584,2203.580 1644.119 C 2197.761 1635.472,2193.000 1627.726,2193.000 1626.905 C 2193.000 1626.085,2185.238 1614.496,2175.750 1601.152 C 2166.263 1587.809,2156.475 1573.092,2154.000 1568.449 C 2142.260 1546.423,2117.417 1509.000,2114.536 1509.000 C 2112.762 1509.000,2113.755 1512.713,2116.743 1517.250 M900.000 1544.427 C 900.000 1547.411,902.125 1552.474,904.723 1555.677 C 909.281 1561.297,909.387 1561.239,907.764 1554.000 C 906.839 1549.875,906.063 1544.813,906.041 1542.750 C 906.018 1540.688,904.650 1539.000,903.000 1539.000 C 901.350 1539.000,900.000 1541.442,900.000 1544.427 M994.795 1556.522 C 993.538 1558.556,993.387 1565.908,994.459 1572.860 C 996.620 1586.868,1009.823 1629.154,1015.148 1639.118 C 1022.228 1652.367,1039.495 1677.000,1041.702 1677.000 C 1045.243 1677.000,1044.481 1674.139,1038.628 1665.463 C 1023.526 1643.075,1016.740 1625.737,1002.700 1573.662 C 999.322 1561.135,996.169 1554.299,994.795 1556.522 M981.000 1624.123 C 981.000 1647.606,1008.975 1699.548,1049.642 1751.575 C 1060.787 1765.834,1075.748 1785.938,1082.888 1796.250 C 1090.028 1806.563,1097.041 1815.000,1098.472 1815.000 C 1102.325 1815.000,1078.542 1778.386,1045.880 1734.036 C 1023.054 1703.041,987.000 1633.359,987.000 1620.238 C 987.000 1618.457,985.650 1617.000,984.000 1617.000 C 982.350 1617.000,981.000 1620.205,981.000 1624.123 M2040.000 1632.094 C 2040.000 1633.692,2042.025 1635.000,2044.500 1635.000 C 2046.975 1635.000,2049.000 1634.469,2049.000 1633.821 C 2049.000 1633.172,2046.975 1631.865,2044.500 1630.915 C 2042.025 1629.965,2040.000 1630.496,2040.000 1632.094 M2070.000 1638.812 C 2070.000 1641.312,2072.025 1644.135,2074.500 1645.085 C 2076.975 1646.035,2079.000 1645.669,2079.000 1644.273 C 2079.000 1642.877,2076.975 1640.054,2074.500 1638.000 C 2070.837 1634.960,2070.000 1635.111,2070.000 1638.812 M2106.000 1645.329 C 2106.000 1649.387,2119.352 1668.445,2120.268 1665.695 C 2121.720 1661.340,2112.652 1644.000,2108.923 1644.000 C 2107.315 1644.000,2106.000 1644.598,2106.000 1645.329 M2139.157 1651.842 C 2138.903 1657.248,2155.636 1692.364,2157.553 1690.447 C 2158.516 1689.484,2157.099 1682.930,2154.402 1675.884 C 2148.980 1661.713,2139.404 1646.611,2139.157 1651.842 M2172.000 1672.409 C 2172.000 1673.184,2174.464 1678.246,2177.475 1683.659 C 2180.485 1689.071,2185.383 1700.925,2188.359 1710.000 C 2191.334 1719.075,2194.854 1729.200,2196.181 1732.500 C 2198.337 1737.861,2198.616 1737.672,2198.797 1730.720 C 2199.174 1716.285,2181.070 1671.000,2174.923 1671.000 C 2173.315 1671.000,2172.000 1671.634,2172.000 1672.409 M2230.359 1688.006 C 2233.002 1698.536,2241.000 1710.279,2241.000 1703.628 C 2241.000 1698.333,2232.430 1680.000,2229.955 1680.000 C 2229.072 1680.000,2229.254 1683.603,2230.359 1688.006 M2211.000 1695.413 C 2211.000 1696.348,2214.530 1711.112,2218.845 1728.223 C 2223.160 1745.333,2228.275 1773.546,2230.212 1790.916 C 2233.871 1823.727,2238.045 1826.911,2236.194 1795.478 C 2233.756 1754.077,2223.554 1706.516,2215.308 1698.107 C 2212.938 1695.691,2211.000 1694.479,2211.000 1695.413 M2254.261 1747.500 C 2254.912 1754.100,2257.569 1773.000,2260.164 1789.500 C 2266.108 1827.284,2266.239 1865.822,2260.541 1900.500 C 2255.763 1929.578,2254.973 1940.027,2257.762 1937.238 C 2262.713 1932.287,2272.776 1874.621,2273.639 1846.253 C 2274.370 1822.236,2264.719 1761.062,2257.803 1745.876 L 2253.077 1735.500 2254.261 1747.500 M2178.309 1871.250 C 2176.702 1877.438,2174.628 1889.250,2173.700 1897.500 C 2172.052 1912.148,2172.111 1912.289,2176.202 1903.500 C 2180.627 1893.997,2185.909 1860.000,2182.961 1860.000 C 2182.010 1860.000,2179.916 1865.063,2178.309 1871.250 M609.015 1895.250 C 609.023 1896.488,612.350 1901.550,616.407 1906.500 C 624.691 1916.607,627.157 1910.842,619.330 1899.668 C 614.792 1893.188,608.985 1890.701,609.015 1895.250 M652.637 1901.250 C 653.891 1904.138,657.211 1912.939,660.017 1920.809 C 662.823 1928.679,666.182 1936.104,667.482 1937.309 C 671.622 1941.147,666.152 1910.179,661.412 1902.945 C 656.046 1894.755,649.248 1893.442,652.637 1901.250 M696.036 1899.082 C 696.055 1901.512,698.064 1910.925,700.500 1920.000 C 702.936 1929.075,704.945 1942.913,704.964 1950.750 C 704.984 1958.588,706.202 1965.000,707.672 1965.000 C 715.713 1965.000,710.229 1914.980,700.696 1901.369 C 697.617 1896.973,696.012 1896.186,696.036 1899.082 M546.000 1902.000 C 546.000 1903.650,547.350 1905.000,549.000 1905.000 C 550.650 1905.000,552.000 1903.650,552.000 1902.000 C 552.000 1900.350,550.650 1899.000,549.000 1899.000 C 547.350 1899.000,546.000 1900.350,546.000 1902.000 M573.653 1902.463 C 574.392 1904.684,577.403 1906.966,580.344 1907.537 C 583.764 1908.199,585.207 1907.118,584.347 1904.537 C 583.608 1902.316,580.597 1900.034,577.656 1899.463 C 574.236 1898.801,572.793 1899.882,573.653 1902.463 M740.645 1903.582 C 740.167 1907.506,739.977 1905.229,743.972 1943.409 C 747.309 1975.297,745.007 2017.067,739.058 2032.570 C 738.123 2035.007,738.815 2037.000,740.595 2037.000 C 744.585 2037.000,751.874 2011.419,754.487 1988.246 C 756.831 1967.457,750.770 1914.836,745.080 1906.582 C 742.836 1903.328,740.840 1901.978,740.645 1903.582 M2208.372 1916.940 C 2205.027 1928.107,2178.018 1977.651,2165.567 1995.463 C 2159.009 2004.844,2158.675 2007.000,2163.778 2007.000 C 2167.875 2007.000,2171.227 2002.263,2185.008 1977.000 C 2189.959 1967.925,2196.914 1955.775,2200.465 1950.000 C 2208.080 1937.615,2217.000 1915.733,2217.000 1909.439 C 2217.000 1900.750,2211.893 1905.190,2208.372 1916.940 M414.000 1927.500 C 411.880 1930.055,410.820 1932.820,411.645 1933.645 C 412.470 1934.470,414.880 1933.055,417.000 1930.500 C 419.120 1927.945,420.180 1925.180,419.355 1924.355 C 418.530 1923.530,416.120 1924.945,414.000 1927.500 M833.021 1970.453 C 830.906 2000.247,827.224 2020.358,818.693 2048.707 C 815.514 2059.270,813.576 2068.576,814.386 2069.386 C 815.196 2070.196,816.456 2068.978,817.186 2066.679 C 817.915 2064.381,822.595 2050.350,827.585 2035.500 C 840.391 1997.391,846.101 1947.534,837.970 1944.823 C 836.135 1944.212,834.156 1954.460,833.021 1970.453 M391.158 1951.310 C 388.794 1957.469,392.123 1965.896,395.979 1963.513 C 397.640 1962.486,399.000 1959.105,399.000 1956.000 C 399.000 1948.609,393.465 1945.299,391.158 1951.310 M863.869 1979.250 C 863.797 1988.738,862.629 2002.238,861.272 2009.250 C 858.003 2026.148,862.361 2025.679,866.644 2008.672 C 870.812 1992.120,871.041 1962.000,867.000 1962.000 C 865.350 1962.000,863.941 1969.763,863.869 1979.250 M370.030 1972.643 C 367.639 1978.874,370.764 2000.964,374.576 2004.776 C 376.641 2006.841,377.625 2001.402,377.625 1987.913 C 377.625 1969.246,374.073 1962.106,370.030 1972.643 M906.447 1992.750 C 906.262 2001.413,905.303 2012.213,904.317 2016.750 C 902.177 2026.592,907.504 2027.971,910.109 2018.250 C 912.876 2007.924,912.339 1977.000,909.392 1977.000 C 907.958 1977.000,906.632 1984.088,906.447 1992.750 M2238.544 2000.860 C 2227.961 2022.037,2227.974 2022.000,2231.509 2022.000 C 2235.152 2022.000,2250.814 1989.942,2249.336 1985.509 C 2248.649 1983.448,2243.793 1990.356,2238.544 2000.860 M351.584 2004.040 C 352.987 2023.433,360.698 2037.673,370.818 2039.559 C 375.546 2040.440,375.115 2039.153,368.250 2031.895 C 362.143 2025.437,359.989 2020.097,359.959 2011.336 C 359.907 1996.381,357.175 1986.000,353.290 1986.000 C 351.464 1986.000,350.793 1993.104,351.584 2004.040 M944.356 2010.031 C 943.632 2014.964,943.998 2019.000,945.170 2019.000 C 948.186 2019.000,950.668 2004.149,947.934 2002.459 C 946.690 2001.690,945.080 2005.097,944.356 2010.031 M466.420 2040.130 C 464.838 2042.690,474.427 2044.865,495.750 2046.783 C 512.147 2048.258,509.543 2043.696,492.750 2041.527 C 484.913 2040.515,476.139 2039.209,473.253 2038.625 C 470.367 2038.041,467.292 2038.718,466.420 2040.130 M406.500 2043.000 C 414.788 2046.562,420.000 2046.562,420.000 2043.000 C 420.000 2041.350,415.613 2040.095,410.250 2040.211 C 402.079 2040.388,401.472 2040.839,406.500 2043.000 M1035.000 2046.000 C 1035.000 2047.650,1036.430 2049.000,1038.177 2049.000 C 1039.924 2049.000,1040.520 2047.650,1039.500 2046.000 C 1038.480 2044.350,1037.051 2043.000,1036.323 2043.000 C 1035.595 2043.000,1035.000 2044.350,1035.000 2046.000 M2126.027 2047.208 C 2124.255 2051.827,2087.633 2081.816,2076.555 2087.719 C 2062.803 2095.047,2011.059 2132.758,1997.921 2145.027 C 1982.729 2159.215,1989.854 2155.642,2020.567 2133.672 C 2030.430 2126.616,2055.016 2109.981,2075.202 2096.704 C 2107.503 2075.460,2133.000 2052.854,2133.000 2045.460 C 2133.000 2041.382,2127.759 2042.696,2126.027 2047.208 M538.715 2051.653 C 537.813 2053.112,547.521 2057.015,560.288 2060.328 C 573.054 2063.640,595.070 2071.135,609.210 2076.982 C 638.161 2088.955,654.227 2093.593,649.500 2088.615 C 644.042 2082.867,576.252 2054.893,560.575 2051.919 C 541.743 2048.348,540.764 2048.336,538.715 2051.653 M2182.500 2081.908 C 2160.519 2100.893,2142.910 2111.579,2110.500 2125.600 C 2093.326 2133.030,2046.327 2156.661,2034.219 2163.953 C 2015.109 2175.463,2029.792 2172.247,2059.740 2158.362 C 2090.160 2144.259,2093.212 2142.895,2127.000 2128.300 C 2148.907 2118.837,2158.210 2113.064,2178.658 2096.242 C 2193.330 2084.172,2213.391 2060.932,2209.002 2061.090 C 2207.626 2061.139,2195.700 2070.508,2182.500 2081.908 M1023.000 2070.680 C 1023.000 2076.149,1028.318 2080.682,1031.271 2077.729 C 1032.301 2076.699,1030.861 2073.575,1028.071 2070.786 C 1023.395 2066.109,1023.000 2066.101,1023.000 2070.680 M504.066 2079.036 C 514.827 2080.831,525.627 2083.648,528.066 2085.295 C 534.435 2089.597,411.283 2084.272,404.132 2079.936 C 402.830 2079.146,395.742 2078.500,388.382 2078.500 C 381.022 2078.500,375.000 2077.317,375.000 2075.871 C 375.000 2069.689,460.623 2071.788,504.066 2079.036 M1011.000 2105.786 C 1011.000 2109.954,1031.798 2131.202,1033.859 2129.141 C 1034.839 2128.161,1031.109 2121.903,1025.570 2115.234 C 1015.669 2103.312,1011.000 2100.284,1011.000 2105.786 M673.758 2110.091 C 674.622 2112.342,680.218 2118.079,686.195 2122.841 C 692.171 2127.604,698.510 2132.850,700.281 2134.500 C 709.493 2143.085,752.397 2166.650,778.645 2177.543 C 795.065 2184.357,816.042 2193.928,825.259 2198.812 C 843.386 2208.416,867.746 2217.634,865.532 2214.052 C 863.642 2210.994,797.333 2177.312,773.787 2167.450 C 755.064 2159.607,703.191 2127.487,686.020 2113.103 C 676.551 2105.172,671.383 2103.903,673.758 2110.091 M1829.000 2129.000 C 1825.067 2132.933,1827.103 2135.411,1833.000 2133.869 C 1836.300 2133.006,1839.000 2131.108,1839.000 2129.650 C 1839.000 2126.551,1831.910 2126.090,1829.000 2129.000 M1019.027 2157.065 C 1027.567 2165.279,1036.949 2172.000,1039.877 2172.000 C 1045.977 2172.000,1045.474 2171.417,1024.555 2154.259 C 1003.793 2137.229,1000.266 2139.019,1019.027 2157.065 M1854.136 2148.900 C 1847.067 2152.453,1842.145 2160.063,1847.000 2159.933 C 1850.949 2159.828,1864.582 2148.582,1862.855 2146.855 C 1861.999 2145.999,1858.076 2146.919,1854.136 2148.900 M1883.250 2178.859 C 1875.413 2184.127,1869.000 2190.254,1869.000 2192.474 C 1869.000 2195.833,1890.364 2182.775,1903.350 2171.479 C 1910.992 2164.832,1895.848 2170.392,1883.250 2178.859 M1774.163 2179.594 C 1768.248 2188.621,1771.126 2193.622,1777.436 2185.281 C 1781.672 2179.681,1783.484 2172.000,1780.569 2172.000 C 1779.782 2172.000,1776.899 2175.417,1774.163 2179.594 M1002.000 2183.375 C 1002.000 2192.009,1059.105 2232.895,1064.137 2227.863 C 1065.161 2226.839,1065.438 2225.553,1064.750 2225.008 C 1064.063 2224.462,1053.189 2216.973,1040.586 2208.365 C 1027.984 2199.758,1015.287 2190.079,1012.371 2186.858 C 1006.918 2180.832,1002.000 2179.180,1002.000 2183.375 M1990.500 2186.495 C 1940.738 2214.975,1911.145 2237.731,1895.743 2259.361 C 1883.384 2276.718,1893.415 2271.951,1916.340 2249.572 C 1939.875 2226.599,1972.375 2202.097,1992.750 2191.966 C 1998.938 2188.890,2004.000 2185.164,2004.000 2183.686 C 2004.000 2179.911,2000.863 2180.564,1990.500 2186.495 M1918.322 2196.450 C 1901.257 2205.554,1884.000 2219.814,1884.000 2224.811 C 1884.000 2227.553,1892.443 2223.335,1907.250 2213.194 C 1920.038 2204.437,1930.950 2196.198,1931.500 2194.886 C 1933.591 2189.898,1929.749 2190.354,1918.322 2196.450 M1786.955 2218.799 C 1783.906 2222.985,1782.328 2227.328,1783.450 2228.450 C 1785.893 2230.893,1794.000 2220.500,1794.000 2214.927 C 1794.000 2209.634,1793.387 2209.971,1786.955 2218.799 M919.883 2242.415 C 921.629 2246.966,962.383 2275.076,981.000 2284.572 C 991.142 2289.745,991.347 2289.741,987.000 2284.467 C 984.525 2281.464,975.232 2274.168,966.348 2268.253 C 957.465 2262.339,945.315 2254.258,939.348 2250.295 C 933.382 2246.333,928.050 2241.945,927.500 2240.545 C 926.950 2239.145,924.630 2238.000,922.344 2238.000 C 919.918 2238.000,918.894 2239.838,919.883 2242.415 M1789.652 2263.385 C 1767.397 2286.553,1761.779 2295.005,1772.422 2289.309 C 1783.473 2283.395,1815.000 2251.453,1815.000 2246.170 C 1815.000 2243.327,1813.988 2241.154,1812.750 2241.341 C 1811.513 2241.529,1801.118 2251.449,1789.652 2263.385 M1015.512 2253.019 C 1017.437 2256.135,1057.489 2283.000,1060.208 2283.000 C 1061.049 2283.000,1068.883 2287.285,1077.618 2292.522 C 1093.568 2302.086,1144.585 2328.000,1147.462 2328.000 C 1152.558 2328.000,1147.554 2322.129,1139.678 2318.867 C 1134.551 2316.743,1105.288 2300.379,1074.648 2282.503 C 1021.085 2251.252,1011.451 2246.449,1015.512 2253.019 M1829.250 2283.322 C 1823.063 2290.274,1818.000 2296.414,1818.000 2296.965 C 1818.000 2299.208,1780.930 2332.812,1766.247 2343.879 C 1757.586 2350.407,1741.725 2360.037,1731.000 2365.278 C 1707.790 2376.620,1675.042 2398.518,1686.000 2395.369 C 1690.125 2394.183,1696.875 2390.880,1701.000 2388.028 C 1705.125 2385.177,1713.900 2380.482,1720.500 2377.596 C 1751.976 2363.833,1775.628 2349.441,1789.591 2335.557 C 1792.941 2332.226,1801.716 2324.173,1809.091 2317.661 C 1827.155 2301.713,1842.737 2281.458,1841.506 2275.527 C 1840.765 2271.956,1837.540 2274.007,1829.250 2283.322 M1035.484 2320.419 C 1040.373 2325.469,1095.530 2353.696,1140.000 2373.905 C 1226.203 2413.081,1246.566 2421.073,1259.720 2420.894 L 1267.500 2420.787 1260.000 2416.500 C 1255.875 2414.142,1250.864 2412.165,1248.865 2412.106 C 1246.866 2412.048,1232.016 2405.782,1215.865 2398.182 C 1199.714 2390.582,1168.950 2376.985,1147.500 2367.966 C 1126.050 2358.946,1103.100 2349.094,1096.500 2346.070 C 1083.152 2339.956,1060.012 2329.730,1044.000 2322.869 C 1038.225 2320.394,1034.393 2319.292,1035.484 2320.419 M1225.831 2332.504 C 1246.230 2341.834,1290.000 2355.157,1290.000 2352.036 C 1290.000 2350.674,1281.563 2346.879,1271.250 2343.604 C 1260.938 2340.329,1245.363 2334.803,1236.639 2331.325 C 1215.221 2322.784,1206.629 2323.721,1225.831 2332.504 M1648.500 2346.324 C 1636.950 2352.456,1625.679 2357.591,1623.453 2357.736 C 1621.228 2357.881,1615.153 2359.836,1609.953 2362.080 C 1594.943 2368.558,1568.361 2375.808,1552.288 2377.806 C 1536.996 2379.707,1527.685 2381.082,1522.500 2382.203 C 1520.850 2382.560,1524.900 2383.706,1531.500 2384.750 C 1549.391 2387.580,1587.645 2379.457,1621.500 2365.640 C 1652.337 2353.054,1675.232 2339.262,1670.678 2336.016 C 1670.030 2335.554,1660.050 2340.193,1648.500 2346.324 M1831.750 2338.929 C 1830.710 2341.641,1830.533 2344.533,1831.357 2345.357 C 1833.272 2347.272,1842.000 2340.118,1842.000 2336.633 C 1842.000 2331.974,1833.706 2333.832,1831.750 2338.929 M1780.500 2390.046 C 1764.614 2404.671,1706.343 2445.000,1701.100 2445.000 C 1699.395 2445.000,1698.000 2446.350,1698.000 2448.000 C 1698.000 2455.086,1711.454 2449.769,1737.553 2432.366 C 1761.294 2416.536,1800.000 2382.551,1800.000 2377.536 C 1800.000 2373.669,1794.363 2377.285,1780.500 2390.046 M1318.513 2412.021 C 1324.521 2421.741,1380.344 2436.856,1386.713 2430.487 C 1389.362 2427.838,1388.290 2427.000,1382.246 2427.000 C 1372.412 2427.000,1346.398 2420.343,1330.884 2413.857 C 1317.285 2408.171,1316.017 2407.983,1318.513 2412.021 M1582.008 2434.660 C 1554.379 2445.083,1499.594 2454.095,1462.946 2454.246 C 1445.396 2454.318,1429.679 2453.538,1428.019 2452.512 C 1426.358 2451.485,1425.000 2452.014,1425.000 2453.687 C 1425.000 2460.368,1479.436 2463.490,1511.375 2458.642 C 1551.795 2452.506,1566.379 2448.313,1599.000 2433.450 C 1617.293 2425.115,1604.985 2425.991,1582.008 2434.660 M1312.500 2449.593 C 1320.234 2455.933,1332.000 2459.645,1332.000 2455.745 C 1332.000 2453.335,1311.758 2442.001,1307.646 2442.108 C 1305.360 2442.167,1307.538 2445.526,1312.500 2449.593 M1648.500 2470.317 C 1633.320 2477.224,1594.192 2488.492,1555.144 2497.201 C 1511.297 2506.981,1433.233 2501.619,1386.244 2485.600 C 1374.002 2481.427,1363.353 2478.647,1362.577 2479.423 C 1361.162 2480.838,1362.987 2481.639,1396.915 2494.499 C 1437.705 2509.960,1511.958 2515.339,1560.419 2506.345 C 1610.205 2497.104,1665.359 2477.210,1669.241 2467.093 C 1671.396 2461.477,1666.126 2462.297,1648.500 2470.317 " stroke="none" fill="#ffffff" fill-rule="evenodd"/></svg>