<?xml version="1.0" encoding="utf-8"?>
<!-- Generator: Adobe Illustrator 27.7.0, SVG Export Plug-In . SVG Version: 6.00 Build 0)  -->
<svg version="1.1" id="Layer_1" xmlns="http://www.w3.org/2000/svg" xmlns:xlink="http://www.w3.org/1999/xlink" x="0px" y="0px"
	 viewBox="0 0 1610 768" style="enable-background:new 0 0 1610 768;" xml:space="preserve">
<style type="text/css">
	.st0{fill:#A0A0A0;}
</style>
<path class="st0" d="M761.7,362.2c2.1,3.1,1.1,6.8-1.7,8.9c0.2,0.5,0.2,1.1,0.3,1.6l0,0c0.5,4.8-2.6,8.2-7.5,7.6
	c-1,1.4-2.3,2.1-4.1,1.8c-0.8-0.1-1.6-0.5-2.3-0.9c0,0.2-0.1,0.5-0.2,1.1c0,0.4,0.2,0.7,0.4,1.1l0.5,0.7c0.2,0.4,0.5,0.7,0.6,1.1
	c0.3,1.1-0.9,2.8-1.7,3.3c-2.3,1.4-4.8,2.6-7.2,3.6l-0.6,0.3l0.3,0.7l0.2,0.4l0.5,0.8c1,1.4,2.2,2.5,2.8,4.1
	c0.9,2.6-1.2,4.5-3.2,5.4c-1.1,0.4-2.5,0.7-4,0.8c-0.6,0.4-1.3,0.7-2,0.9c1.1,1.6,1.5,3.6,0.6,6.1c-1.4,3.6-6.3,3.3-9.6,2.6
	c-1.3,0.9-2.7,1.2-4.2,0.7v0.1l0.4,0.7h0.3c0.2,0.5,0.3,1.1,0.3,1.6v0.1v0.4v0.9l-0.1,0.4l-0.3,0.9c0.7,1.2,0.3,1.1,1.9,1.4
	c2.2,0.4,4.4,3.2,4.8,5.4c0.1,0.6,0.1,1.2,0.1,1.7c0.2,3.8-2.4,6.4-5.8,6.6c-0.1,0.5-0.3,1-0.5,1.5l0,0c-1.9,4.4-6.2,5.5-10.1,2.4
	c-1.4,0.6-2.7,0.4-4-0.5l-0.4,0.3c-0.9,2.1,0.2,2,0.3,4.1c0.2,5.8-8,4.1-12.7,2c-0.5,0.1-0.9,0.1-1.3,0.2c0.2,1.1,0.3,2.2,0.1,3.3
	c-0.2,1.1-0.8,1.8-1.6,2.3l-0.3,0.8c-2.4,2.3-5.4,1.8-8.2,0.9c-2.2,3-6.2,1.7-9.2-0.8c-1.2,0.7-2.8,0.6-4.5-0.7
	c-1.6-1.1-2.4-2.9-3.1-4.6c-2.7,0.5-5.2-0.4-7.1-2.5c-1.1,0.4-2.1,0.4-3.2,0.3c-0.5,0.1-1,0.2-1.6,0.2c-1.4,0-4.1-1.2-4.9,0.2
	c-0.3,0.5-0.4,0.9-0.5,1.2c-0.2,0.9,0.5,1.4,0.4,2.9c-0.3,5.8-8.3,3.2-12.8,0.7h-0.7l-0.3,0.2c-0.5,0.2-1,0.4-1.5,0.6
	c0.5,1.9,0.5,3.8-1.2,5.1c-2.2,1.8-4.7,1.4-7.1,0.5c-1.8,3-3.8,5.8-4.7,9.3c-0.9,3.3-1.2,6.7-1.2,10.1c-0.2,15.9,3.8,31.4,5.1,47.1
	c0.4,4.5,0.6,10.6,2.2,15.6l0.1-0.4c0.6-5,0.8-10,3.4-14.4c0.4-0.7,1.4-0.1,1,0.6l-0.2,0.6v0.1c-0.9,3.6-1.1,7-1.1,10.6
	c0.9-4,2.4-7.9,4.4-11.5c0.2-0.4,0.8,0,0.7,0.4c-2.8,6.8-3.8,13.9-4,21.1l0.3,0.4c-0.2-2.1,0.9-4.8,1.2-6.3c0.9-4.1,2.6-7.7,5.1-11
	l0.2,0.2l-0.5,1c0.7-1,1.3-2,1.9-3c0.3-0.6,1-0.1,0.8,0.5c-1.4,3.5-3.5,6.7-4.2,10.4c-0.2,1.2-0.4,2.4-0.5,3.7
	c1.7-3.5,4.1-6.6,7.2-8.5c0.4-0.2,0.7,0.4,0.4,0.7l-0.9,0.9c0.3-0.2,0.7,0.1,0.5,0.6s-0.5,0.9-0.7,1.4c0.6-0.6,1.1-1.2,1.7-1.7
	l0.6,0.6c-1.7,2.4-3.4,4.7-4.7,7.4c-0.9,1.9-1.4,3.7-1.8,5.5l0.6-1.1c1.4-2.2,3.1-4.5,5.4-5.5l0.5,0.6l-0.1,0.1
	c0.7-0.4,1.4-0.7,2.2-1l0.2,0.6c-2,1.1-3.7,3-4.9,5.2c0.6-0.6,1.2-1.1,1.8-1.6l0.5,0.5c-1.6,1.9-3.3,3.8-4.2,6.1
	c-0.1,0.6-0.2,1.1-0.2,1.6l-0.3,0.7l-0.1,0.4c-0.1,1.1-1.7,1.4-1.8,0.3l0,0c-1.3,1.1-4,1.5-5,1.7c2.7,3.6-1.8,4.6-4.3,5
	c-3.2,0.6-6.3,1.5-9.5,1.5H618l0.2,0.2v0.4c-0.6,0-1.3,0-1.9-0.1c-1.3-0.1-3.6,0.1-4.5-1c-0.3-0.5-0.5-1.1-0.7-1.6h-0.4
	c0.1,0.4,0.1,0.8,0.2,1.2h-0.2l-0.5-0.4c-0.7-0.5-1.2-0.6-1.6-0.5v-0.1l-0.9,0.2v0.5c-0.4,0-0.8,0-1.2,0.1l-0.5,0.1v-0.4h-0.1v0.4
	c-0.6,0.2-1.2,0.4-1.8,0.7c-1.2,1.3-1.7,3.2-4,3.4c-2,0.2-4.2,0-6.1-0.3c-2.8-0.4-5.5-1.2-7.9-2.7c-0.5-0.3-1-0.7-1.3-1.3
	c-0.5,0.1-0.9,0-1.3-0.4c-0.5-0.7-0.2-2.1,0.2-3.1c-1.1,0.5-2.3,1-3.5,1.3c-1.9-0.4-3.8-1-5.7-1.4c-1.1,0-2.3-0.1-3.4-0.2
	c-2.4-0.3-3.2-0.9-3.1-1.7h-0.2c-3.8-3.1-7.1-6.2-12.2-6.3c-0.4,0-0.5-0.6-0.1-0.7c4.1-0.7,7.6,0.4,10.8,2.4
	c-0.4-0.6-0.9-1.2-1.4-1.8l0,0c-0.9-0.9-2-1.6-3.2-1.8v-0.3l0.9,0.1c-0.7-0.5-1.4-0.9-2.2-1.2c-0.4-0.1-0.3-0.8,0.1-0.7
	c1.1,0.2,2.2,0.5,3.2,1c-1.7-1.7-3.8-2.9-6.2-3v-0.6c3.7-0.4,7.5,1.5,10,4.4c1.1,1.2,2.7,3.1,3.6,5l0,0c-0.1-0.4-0.1-0.9-0.2-1.5
	c-0.2-1.3-0.6-2.7-1.1-3.9c-1.1-2.5-2.8-5.2-5.2-6.6l0.2-0.5c2.6,1.2,4.5,3.2,6.1,5.7l0.6,0.9v-0.5c-0.5-3-1.6-6.7-4.2-8.4
	c-0.5-0.3-0.1-1,0.4-0.7c3,1.4,4.3,4.9,5.4,7.9c0.4,1,1,2.6,1.4,4.4c1-5.4,0.7-11.8-3.4-15.6l0.2-0.3c2.2,1.2,3.7,3.3,4.6,5.6
	c0.9,1.4,1.6,2.9,2,4.4c0.2-0.4,0.3-0.8,0.4-1.2c0-3.4-0.4-6.8-2.1-9.9l0.3-0.3c1.5,1.9,2.3,4,2.8,6.2c0.7-4,0.7-8.1,0.7-12.2
	c0.1-9.6-0.2-19.1,0-28.6c0.1-5.2,0.4-10.4,0.9-15.5c0.5-4.5,0.1-9-0.1-13.6c-0.2-4.5-0.6-8.3-2.6-12.2c-2.1,0.7-4.4,0.1-6.6-0.8
	c-2.5,2.7-6.3,1.1-9-1.8c-1.3,0.6-2.8,0.3-4.5-1.2c-0.5-0.5-0.9-1-1.2-1.5c-3.4,4.2-9.7,6.4-14.5,5.1c-2.4-0.7-4.3-2.5-5.7-4.8
	l-1,0.4c-1.5,0.4-3-0.1-4.5-0.4c-1.6-0.4-3.1,0-4.7-0.4c-3-0.8-4.3-3.8-5.2-6.6l-0.3-0.5c0.2,1.6-0.2,3.1-1.6,4.4
	c-1.9,1.8-4.5,1.5-6.9,1.3c-0.9,2.1-3,2.5-5.3,1.9l0,0l0,0c-0.8-0.2-1.7-0.5-2.5-0.8c-3.2,4.7-10,7.2-15.1,5.9
	c-5.2-1.4-8.5-8.2-7.4-13.7c-0.8-1-1.4-2.1-1.9-3.3c-4.7-1.9-6.1-7.4-4-11.9h-0.1c-3.1,3.4-9.8,3.9-13.4,2.7
	c-2.1-0.7-4.5-2.7-3.6-5.4c0.6-1.8,1.8-3,2.7-4.5c0.2-0.4,0.5-1,0.7-1.6l0.2-0.4l-0.6-0.2c-2.6-0.8-5.2-1.9-7.7-3.2
	c-0.9-0.4-2.2-2.2-1.9-3.3c0.1-0.4,0.3-0.8,0.6-1.1l0.5-0.8c0.2-0.4,0.3-0.7,0.3-1.1c-0.1-0.6-0.2-0.9-0.2-1.1
	c-0.7,0.4-1.5,1-2.4,1.1c-1.9,0.4-3.3-0.3-4.3-1.6c-5,0.9-8.5-2.4-8.2-7.4l0,0c0-0.6,0.1-1.1,0.2-1.7c-3-2-4.2-5.8-2.3-9.2
	c0.2-0.5,0.5-1,0.9-1.5c1.4-1.8,4.7-3.2,7.2-2.2c1.6,0.5,1.2,0.5,2.4-0.4l0.1-1.1l0.1-0.4l0.4-0.9l0.2-0.4l0.1-0.1
	c0.3-0.5,0.6-0.9,1-1.3l0.2,0.1l0.6-0.4l0.1-0.1c-1.6-0.4-2.8-1.4-3.6-2.8c-3.4-1-8.1-3.3-7.6-7.4c0.2-2.7,1.6-4.3,3.3-5.2
	c-2.1-2.5-3.7-5.4-2.4-8.5c0.4-1,0.9-1.7,1.4-2.2l0,0l0.2-0.2l0,0c0.5-0.4,0.9-0.7,1.4-1l0.3-0.2c0.9-0.4,2-0.7,3.2-0.7h0.4
	c0.5,0,1.1,0,1.7-0.1c0.6-2.1,2.4-3.2,4.5-3.7c-0.2-1.7-0.5-3.4-1.4-4.3c-2.4-2.6,0.6-5.4,2.9-3.1c0.1-1.4,0.3-2.7,1.3-3.7
	c-0.4-1.3-0.2-2.6,0.5-3.8c-1.2-1.1-1.8-2.6-1-4.5c0.2-0.4,0.5-0.8,0.8-1.1c0-1.8,0.2-3.4,0.7-4.8c1-2.6,2.5-3.5,4.3-3.7
	c-1.8-3.1-2.5-6.8-0.7-10.1c1.3-2.3,1.1-5,2.5-7.3c1.5-2.6,3.4-1.7,5.3-1.1c0.1-1.6,0.5-3.1,1.4-4.4c-3.2-2.7-5.9-6.3-7.4-10.1
	c-0.2-0.7-0.5-1.3-0.6-1.9l-0.1-0.7l-0.1-1.1v-0.7l0.1-0.9l0.2-0.7l0.2-0.7l0.3-0.6l0.5-0.6l0.5-0.5l0.6-0.5l0.5-0.4l0.9-0.4
	c0.7-0.3,1.4-0.6,2.2-0.7c0.4-3.8,1.7-8.1,5.4-9c2.2-0.5,4,0.4,5.9,1.7c0.9,0.7,2,1.7,2.6,2.7c0.6-0.4,1-1,1.4-1.7
	c1-0.3,1-0.6,0.2-1.1c-0.9-0.9-1.8-1.7-2.4-2.8c-1.3-2.4-1.7-5.3-1-8c0.6-2.2,2.4-3.9,4.6-4.2c2.1-0.3,3.3,0.2,4.7,1.1
	c0.6-0.4,1-1.3,1.7-1.6c1.5-0.7,2.9-0.5,4.3,0.3c1,0.6,1.8,1.5,2.4,2.5c2.8-0.4,6,0.5,8.5,2c0.4-0.5,0.8-1,1.3-1.5
	c-0.6-1.6-0.2-3.4,1.9-4.6c1-0.6,2.2-0.9,3.3-1.3c0.5-0.2,0.9-0.4,1.4-0.6L513,249c-0.3-0.4-0.5-0.9-0.7-1.3
	c-2.4,0.3-5.1,0.4-6.9-0.9c-3.1-2.2-3.8-5.2-2.9-8.3c-0.6-0.8-0.9-1.8-0.5-3c0.6-2,2.7-3.9,4.5-5.1c0-1.5,0.4-2.9,1.3-4.4l0.6-1
	v-0.4c-0.4-1.2-0.5-2.4-0.5-3.7c0.2-4.3,4.9-6.6,8.4-7.1c0.8-0.6,1.6-1.2,2.5-1.7h0.1l0,0c2.4-1.4,5.1-2.3,8-2.5
	c1.5-0.1,2.8,0.4,3.8,1.4l0.6-0.2c0.5-0.3,1.1-0.4,1.7-0.5c0.9-0.2,1.9,0,2.7,0.3c1.6,0.6,3.3,3.3,4.4,3.5c3.1,0.4,4.7-0.2,7.1-2.2
	c1.4-1.2,2.8-1.6,4-1.3c0.7-1.9,2.4-3.1,4.7-4c1.2-0.4,2.5-0.7,3.8-0.6c-0.9-2.7-1.2-5.5,0.4-7.8c1.4-1.8,2.8-2.8,5-3
	c1-0.1,2.1,0,3.1,0.1c0.6,0,1.2,0.1,1.6,0c1.3-0.1,1.6-0.7,1-2.6c-1-3-0.7-7.7,2.9-8.5c0.5-0.1,0.9-0.1,1.4-0.1l0,0l0,0
	c1.8,0.2,3.6,1.2,5.3,2.4l0,0l1.1,0.7l0.7,0.5c0.5,0.4,1,0.7,1.5,0.9c0.2,0.1,0.7-0.7,1.2-1.4l0.2-0.3l0.7-0.4
	c1.8-0.2,3.2,0.3,4.6,1.4c2.1,1.6,4.4-1.7,5.9-2.9c1.6-1.3,3.6-1.5,5.5-1.5c1.6,0.1,2.9,1.6,2.9,3.3c0,1.8-0.4,3.6-0.6,5.4
	c-0.1,0.8,0.8,1.5,1.9,2.2c2.9-1,6.2-0.4,8.1,2c1.1-1.2,2.2-2.4,3.4-3.6c1.3-1.2,2.7-1.1,4.2-0.4c6.3,3.1,8.3,13.5,6.6,21.5
	c1.1,0.4,2.1,1.1,3.1,1.9c1.2,0.4,2.1,1.6,2.4,3.1l0.2,0.4c0.6-0.4,1.2-0.8,1.7-1.4c1-0.1,1.1-0.4,0.3-1.1c-0.7-1-1.5-1.9-2-3.1
	c-0.9-2.5-0.9-5.5,0.2-8c0.9-2.1,3-3.4,5.1-3.4c2.1,0,3.3,0.7,4.5,1.8c0.6-0.3,1.2-1.1,1.9-1.3c1.6-0.4,2.9-0.1,4.2,1
	c0.9,0.7,1.5,1.7,1.9,2.8c3.7,0.1,7.5,2.3,9.9,5.1c2.1,2.4,2.9,5.3,2.2,8.4l-0.4,0.9l-0.2,0.3l-0.4,0.5l-0.3,0.3l-0.4,0.4l-0.5,0.4
	l0,0l0,0l-0.4,0.3l-0.2,0.1l0,0l-0.2,0.1l0.7,0.7c0.5,0.6,1.1,1.5,1.3,2.4l0.3-0.2l0,0c1.1-0.8,2.2-1,3.6-0.7
	c0.8-3.4,3.7-5.6,7.6-5.1c4.5,0.6,6.1,4.5,6.7,8.5c4.1,1.9,7.1,6.4,5.6,11.3c-0.2,0.4-0.4,0.8-0.6,1.3l0.9,0.2l0,0l0.2,0.1
	c0.8,0.1,1.6,0.4,2.4,0.7c1.4,0.6,1.1-0.7,2.6-1.2c0.9-0.3,1.7-0.7,2.6-1c0.4-0.1,0.7-0.3,1.1-0.4v0.1l0.7-0.2
	c2.3-0.3,3.6-2.1,5.8-2.4c3.2-0.5,6.7,1.3,9.2,3.3c2.6,2,4.4,5,4.8,8.5c0.4,2.7-0.7,4.7-1.9,6.6c1.5,0.8,2.8,1.9,3.8,3.3
	c2.8-1.1,5.8-1.4,8.8-0.4c3.1,1.1,3.2,4.3,4.3,6.9c1.7,3.8,4.7,6.9,3.5,11.5l-0.4,0.7l0.2,0.6c0.6,1.8,0,3.1-0.9,4.6
	c-0.4,0.7-1.2,1.2-2,1.7h1.1c0.7,0,1.4,0,2.1,0h0.3c0.6,0,1.2,0.1,1.8,0.2h0.2l0,0c1.1,0.2,2.2,0.5,3.3,1.2c1.6,1.1,2.3,2.6,2.6,4.4
	l0.6,0.1l0,0l0.2,0.1l0.7,0.3l0.5,0.2l0.7,0.4l0.5,0.3l0.5,0.4l0.4,0.4l0.4,0.4l0.4,0.5l0.3,0.5l0.2,0.6l0.2,0.5l0.1,0.4l0,0v0.2
	v0.2l0.1,0.5c0,0.4,0,0.8-0.1,1.3c3,3.1,3.6,7.9,0,9.5l0.4,0.7c0.5,0.9,1,3-0.2,3.5c-1.4,0.7-2.6,0.8-3.9,0.8
	c2.7,4.3,7.7,10.2,3.3,13.7h-0.1c0.4,0.4,0.8,0.9,1,1.6c0.5,0,1.1,0,1.6,0h0.4c1.1,0,2.1,0.2,3.1,0.5l0.3,0.1
	c0.5,0.2,0.9,0.4,1.3,0.8l0,0l0,0l0.2,0.2l0,0l0,0c0.6,0.5,1.1,1.2,1.5,2.1c1.5,2.8,0.1,5.8-1.8,8.2c1.7,0.8,3.1,2.2,3.5,4.8
	c0.6,3.8-3.8,6.3-6.9,7.5c-0.7,1.5-1.8,2.5-3.3,2.9l0.1,0.1l0.6,0.4l0.2-0.1c0.4,0.4,0.7,0.7,1,1.2l0.1,0.1l0.2,0.3l0.4,0.8l0.1,0.4
	l0.2,1c1.2,0.7,0.8,0.8,2.3,0.2c2.1-0.9,5.3,0.3,6.8,1.9C761.1,361.2,761.4,361.6,761.7,362.2z M594.9,257L594.9,257l-1,0.3l0.9,0.6
	L594.9,257z M638.6,537.3c0.9-1.1,1.8-2.1,2.6-3.3C640.2,535,639.3,536.1,638.6,537.3z M649.1,361.2l-0.2-0.1l0.1,0.2L649.1,361.2z
	 M681.7,333.3c-0.4,0-0.7-0.1-1.1-0.2c0.2,0.5,0.3,1,0.5,1.5C681.2,334.2,681.4,333.8,681.7,333.3z M716.5,308.7c-0.2-1-0.4-2-0.6-3
	l-0.1-0.6c-0.2-0.8-0.3-1-0.2-0.4c-0.5-0.1-1.5,0-2.4,0.2c1,1.1,1.7,2.3,2.1,3.7C715.7,308.5,716.1,308.6,716.5,308.7z"/>
<path class="st0" d="M965.1,370.5c1.8,2.7-0.1,6.1-2,7.7c-2.3,1.9-5.6,1-7.9-0.2c-1.3-0.7-2.4-1.9-3.7-2.8c-0.6-0.4-1.7,0.8-2.1,1.2
	c-0.6,0.5-0.3,1.8-0.2,2.6c0,1.1-0.9,1.9-1.7,1.7c-2.6-0.4-5-0.9-6.7-3.4l-0.2-0.4c-0.8,1.3,1.4,2.7,2.1,3.6c0.6,1,0.6,2.3-0.2,3.1
	c-0.7,0.6-1.3,0.9-2.2,1c-1.5,0.2-1.1,0.3-0.5,1.8c0.8,2,0.6,4.2-0.7,5.9c-1.9,2.5-5.3,1.7-7.7,0c-2.2,1.3-4.4-0.8-6.1-3.1
	c-0.4-0.6-0.8-1.2-1.2-1.7l-0.1-0.1c-0.7,0.9,0.6,2.2,0.4,3.3l-0.2,1v0.1l-0.3,0.7l-0.2,0.3l-0.3,0.4l-0.7,0.5
	c-0.8,0.5-1.7,0.2-2.5,0c-0.6-0.2-1.1-0.7-1.7-0.8c-0.8-0.1-1.8,0.5-2.6,0.8c-2.1,0.7-4.5-1.5-5-3.9c-0.2-1.3-0.6,0.3-0.7,0.8
	c-0.1,0.8,0.1,1.7,0.3,2.4c0.3,0.9,0.6,2.1,0.3,3c-0.9,2.7-3.1,2.9-5.2,2.9c-1.9,0-3.8-1.3-4.7-3.4c-0.5-1.3-0.4-2.4-1.5-1.8
	c-0.8,0.4-1.8,0.3-2.5-0.1c-0.9-0.6-1.7-1.4-2.2-2.4l-0.2-0.6c-0.6-0.1-1.3,0-1.5,0.5c-0.7,1.5,0,1.5,0,3.1
	c-0.2,4.4-5.7,2.4-8.7,0.5c-0.6,0.1-1.2,0.1-1.8,0.1c0.4,1.6,0.6,3.3-0.7,4.4c-1.7,1.5-3.7,0.9-5.6,0c-1.7,2.1-4.3,0.8-6.1-1.4
	c-0.9,0.4-1.9,0.2-3-0.9l-0.6-0.9h-0.2c-0.8,0.8-2,1-3,0.8c-0.5-0.1-1.1-0.3-1.6-0.6c-1,0-1.9,0-2.9,0c-1.6,0-3.2,0-4.8,0.1
	c-0.6,0.2-1.4,0.2-2.3,0.1h-0.2l-0.8,0.1c-0.6,0.1-1.3,0.2-1.9,0.3l-0.9,0.1c-0.6,0.1-1.3,0.3-1.9,0.5l-0.8,0.2h-0.2
	c-0.2,0.4-0.4,0.9-0.8,1.2c-1.1,0.9-2.1,1-3.2,0.8c-1.5,1-2.9,2.2-3.9,3.8l-0.3,0.5c-4.1,6.5-5,16.4-5.6,24.1
	c-2,25.5-2.7,50.6,0.3,76.1c1.3,11.1,1.7,22.9,5.3,33.3c1.3,3.7,3,7.1,5.2,9.9h0.1l0.4,0.6c0.6,0.8,1.4,1.5,2.2,2.2
	c0.3-1,0.8-1.7,1.5-2.1c-0.5-1.2-1.1-2.4-1.7-3.5c-0.4-0.7,0.5-1.6,1-1l0.2,0.3c0.8-0.2,1.5,0.3,2.1,1.1c0.3-0.3,0.8-0.5,1.2,0
	c0.8,1.1,1.5,2.3,1.9,3.7l0.2-1.2c-0.6-1.8-2.8-4.8-0.6-5.9c0.4-0.2,1.1,0,1.5,0.4c0.4,0.5,0.8,1.1,1.1,1.7h0.1l1.1,0.4
	c1.3,1.7,1.8,3.7,1.7,5.8h0.1l0.4-0.7c-0.4-2.2-1.5-4.9-0.9-6.7c0.2-0.4,0.8-0.8,1.2-0.6c0.7,0.3,1.1,0.9,1.5,1.7
	c1.1,0,2.1,2.1,2.4,3.6h0.1l0.6,0.5c0.3-0.6,0.7-1.2,1.3-1.4s1.3,0.4,1.3,1.1c0.1,1.2-0.5,2.6-1.1,3.9v0.9c0.7-1.4,1.5-2.7,2.3-3.8
	c0.6-0.8,1.7,0.1,1.3,1.1c-1.1,2-2.4,3.8-3.5,5.8c0.5-0.3,0.9-0.7,1.4-1c0.8-1.1,1.7-1.9,2.9-2.2c0.4-0.1,0.8,0.3,1,0.8l0,0h0.6
	c0.6-0.5,1.1-1,1.7-1.2c1.1-0.3,2,0.9,1.5,2.1c-0.2,0.5-0.5,1-0.9,1.5l0.6-0.1h0.3c0.9-0.5,1.9-0.7,3-0.4c0.6,0.2,0.8,1,0.5,1.6
	c0.6-0.3,1.3,0,1.7,0.5l0.8,0.3l0.1,0.1h0.3c0.5,0.1,0.8,0.8,0.6,1.4c0.4-0.1,0.8-0.1,1.1-0.1l0.2-0.2c0.4-0.2,0.7,0.2,0.8,0.6
	l0.4,0.2c0.4,0.3,0.4,0.9,0.2,1.4v0.1c0.7-0.2,1.5-0.4,2.1-0.4c1,0,1.2,1.4,0.5,2l0,0c1.8-0.3,3.8-0.8,5.4-0.3
	c0.5,0.1,0.7,0.8,0.5,1.3c1.3,0.6,1.3,3.2-0.1,3.6c-3.6,1-7.1,0.6-10.7,0.1c-1.5,0.3-2.9,0.6-4.4,0.8c-2.3,0.6-4.7,0.7-7,0.8
	l-0.8-0.3c-0.5,0.2-0.9,0.5-1.4,0.8c-0.4,0.3-0.8-0.4-0.4-0.7c0.4-0.4,0.8-0.7,1.2-1v-0.9c-1.1,0.2-2.2,0.4-3.4,0.6
	c0.9,0,1.9-0.1,2.7-0.2c0.4,0,0.4,0.7,0,0.8c-4.8,1-9.8,0.8-14.7,1.5c-0.5,0-0.6-0.9-0.2-1.1c0.9-0.3,1.9-0.5,2.9-0.7
	c-0.4-0.5-0.6-1.3-0.3-1.9l-0.6,0.4l-0.7-0.2h-0.1c-0.3,1.4-2,1.2-2.1-0.3v-0.2l-0.4,0.2l-0.4,0.3l-0.6,0.8l-0.5,0.2l0,0l-1,0.4
	l-0.6,0.4c-0.9,0.5-1.9-0.5-2-1.6c-0.6,0.9-1.9,1.2-2.5,0l-0.1-0.2l-0.3,0.8c-0.6,0.8-1,0.8-1.9,1.1c-0.4,0.1-0.8-0.1-1.1-0.4l0,0
	c-0.9,1-2.1,1-3.3,0.5l-0.4,0.7l-0.4,1c-1.1,0.7-2.3,1.3-3.4,1.9c-1.2,0.6-2.5,1.4-3.8,1c-0.7-0.1-0.9-1.1-0.5-1.7l0.2-0.2
	c-0.3-0.2-0.5-0.7-0.4-1.1l0.1-0.2c-0.5,0.2-1.1,0.5-1.6,0.7c-1.6,0.7-3.1,1.3-4.8,1.1c-0.5,0-0.7-0.4-0.8-0.9
	c-1.1,0.1-2.1,0-2.8-0.2c-0.6-0.2-0.9-0.8-1-1.4h-0.6l0.6,0.6c0.4,0.4,0.3,1.1,0,1.5c-0.2,0.6-0.8,1-1.4,0.6l0,0l-0.2-0.2l-0.1-0.1
	l0.3,0.3l-0.3,0.6c-1-0.7-2-1.5-2.8-2.4c-0.5,0-1.1-0.4-1.1-1.1V568c-0.4,0.5-0.8,1-1.3,1.5c0.4,0.5,0.8,1,1.1,1.5s-0.4,1-0.7,0.5
	s-0.7-1-1.1-1.5l-0.4,0.3c-0.7,0.3-1.2-0.2-1.4-0.8H806l-0.8-0.4l0.9,0.9l-0.4,0.7c-0.8-0.6-1.5-1.4-2.2-2.2l0,0
	c0.3,0.6,0.6,1.2,0.8,1.7c0.5,1.1-0.7,2-1.4,1.1c-0.4-0.6-0.8-1.4-1.1-2l-0.8-0.6l-0.7,0.1l0.3,0.3l0.5,0.3c0.4,0.3,0.2,1-0.3,1
	l-1-0.1c-1,0.3-2.2,0.1-3.1-0.5h-0.2c0.1,0.7-0.4,1.3-1,0.9l-0.6-0.2l-0.6,0.5c-1.4,0-3.6-0.2-4.8-1.4c-0.3,0.5-1,0.6-1.3,0l0,0
	c-0.7,0-1.4,0.1-2.1,0.1l-0.4,0.2l-0.2-0.2c-0.7,0-1.3,0-2,0l-0.1,0.4l0,0c-0.3,0.5-1,0.2-1.5-0.3h-1l0,0c0,1.2-1.2,2.1-2,1.2
	l-0.2-0.3l-0.2,0.4l-0.5-0.5l0.2-0.5l0,0c-0.6,0-1.1,0.2-1.7,0.2c-0.4,0.7-1.2,0.8-1.7,0.3l0,0c-0.4,0.1-0.8,0.1-1.3,0.2
	c-0.4,1.1-1.8,1.4-2.6,0.4c-0.7,0.1-1.4,0.2-2.1,0.3h-0.4h-0.2c-0.6,0-1.3,0-1.9,0h-0.6c-0.4,0.3-0.8,0.1-1.1-0.2
	c-0.5-0.1-1.1-0.2-1.6-0.4c0,0.7-0.2,1.3-0.8,1.8c-0.5,0.4-1.1-0.1-1.2-0.8c-0.1-0.7-0.3-1.4-0.6-1.9c-0.2-0.3-0.5-0.8-0.7-1.2
	l-0.4-0.4c0.4,1.2,0.4,2.3-1,2.6c-0.5,0.1-0.9-0.3-1.1-0.9l-0.2-0.3l-1-0.1l-0.4-0.5c-0.2,0.9-0.8,1.6-2,1.8c-1,0.1-1.3-1.3-0.8-2
	c0.4-0.6,0.4-1.3,0.2-2c0.1,0.5,0.1,1-0.1,1.5c-0.2,0.8-1.3,0.8-1.6,0.1l-0.2-0.4c-0.1,0.5-0.6,0.9-1.1,0.4l-0.4-0.5l-0.2,0.5
	c-0.3,0.4-0.9,0.2-1.1-0.3c-0.2-1-0.7-1.7-1.5-2.1c-0.4-0.2-0.2-1.1,0.2-0.9l0.6,0.2l-0.9-1.3c-0.4-0.4,0.2-1.1,0.6-0.7
	c1.1,1.2,2.5,2.2,3.4,3.6c-0.2-0.6-0.3-1.2-0.6-1.7l-0.4-0.6c-0.6,0-1.1-0.1-1.7-0.7V563v-0.5l-0.2-0.2c-0.3-0.3,0-1,0.4-0.7
	l0.2,0.1h0.1l0.2-0.6h0.1l-0.1-0.1c-0.4-0.5-0.4-1.4,0.1-1.8c1.5-1.2,3.6,0.3,4.7,1.5c0.4,0.4,0.6,0.9,0.8,1.4l0,0
	c0.3,0.3,1,0.8,1.9,1.5l-0.1-0.2c-0.4-0.5-0.8-1-1.2-1.5v-0.7c-0.6-0.8-1.2-1.4-2.1-2c-0.4-0.3-0.4-1,0.1-1.2l0.9-0.2v-0.1
	c-0.6-0.9,0.2-2,1.1-1.8c0.4,0,0.9,0.2,1.3,0.5c-0.4-0.4-0.4-1.4,0.1-1.7c0.8-0.6,1.6-0.5,2.2,0c-0.3-0.4-0.6-0.8-0.8-1.3l-0.1-0.5
	l-0.2-0.1c-0.4-0.2-0.4-1,0.1-1.2h0.4c0.3-0.5,0.8-0.8,1.4-0.7c1.7,0.3,3.2,2.1,4.5,3.7c1.6,0.8,2.8,2.3,3.7,4.1
	c0-0.6-0.1-1.3-0.1-1.8c-0.4-0.7-0.8-1.4-1.2-1.9c-0.8-1-1.9-1.3-2.7-2.2c-0.3-0.3-0.2-1.1,0.2-1.2c0.5-0.1,0.9,0,1.3,0.1
	c0.1-0.4,0.4-0.8,0.9-0.8c0.1-0.5,0.5-0.9,1-0.8c2.3,0.5,3.9,3.7,5.2,5.8c0.5,0.7,0.9,1.5,1.3,2.2l0.6,0.1c-0.1-0.4-0.2-0.9-0.4-1.3
	c-0.4-1.4-1.1-2.8-1.8-4c-0.8-1.4-2-1.8-3.1-2.8c-0.7-0.7-0.2-2.2,0.7-2.2c2.8,0,4.4,3,5.4,6.5c0.2-0.4,0.6-0.7,1-0.7
	c-1.3-3.1-3.1-5.2-5.1-7.8c-0.6-0.9,0-2.1,0.9-1.6c1.3,0.7,2.4,1.8,3.4,3.1l0,0c-0.4-0.5-0.6-1-0.8-1.8c-0.1-0.9,0.6-1.7,1.3-1.7
	c1.5,0,2.5,1.7,3.4,3l0.2-0.4c-0.6-0.9,0.2-2.2,1.1-1.6l0.8,0.7l0.7,0.6l0.4,0.3c0.8,0.2,1.5,0.8,2,1.4v-0.6c0-0.5,0.2-0.9,0.4-1.2
	v-1c0.5-1.6,2.3-1.4,3.2-0.5c0.8,0.8,1.3,2,1.6,3.2c0.1-0.5,0.1-1,0.2-1.5c0.2-1.1,1.2-1.3,1.8-0.8c0.2-0.4,0.7-0.7,1.2-0.4
	c1.1,0.8,1.7,1.8,2.1,2.9c6.4-5.8,12.2-13.2,15.5-21.8c4-10.5,2.7-22.2,1.6-33.4c-1.1-10.9-2.7-21.5-1.9-32.5
	c0.9-12.5,3.2-24.6,2.5-37.1c-0.4-6.7-1.1-13.3-2.4-19.8c-1.9,0.4-4.8-0.8-6.8-2c-0.6,0.1-1.2,0.1-1.8,0.1c0.4,1.6,0.6,3.3-0.7,4.4
	c-1.7,1.5-3.7,1-5.6,0c-1.7,2.1-4.3,0.8-6.1-1.4c-0.9,0.4-1.9,0.2-3-0.9c-0.9-0.9-1.3-2.1-1.7-3.3l-0.9-0.2
	c-0.4-0.1-0.8-0.3-1.3-0.6c-1-0.4-1.9-1.1-2.7-2.2c-1.3,0.4-2.5,0-3.7-0.8c-0.6-0.1-1.2-0.1-1.8-0.1c-1.6,0.2-3.1-0.7-4.5-2
	c-1.2,1.2-2.6,1.2-4.5,0.2c-1.1-0.5-1.9-1.4-2.9-2.2l-0.2-0.1l-0.5,0.1c-0.4,0.1-1.9,1.2-2.3,0.6c1.4,2.1,2.5,5.1,0.4,7.2
	c-1.3,1.4-3,1.2-4.7,1c-0.6,1.6-2,1.8-3.6,1.5l0,0H751c-0.5-0.1-1.1-0.3-1.7-0.6c-2.2,3.6-6.8,5.5-10.3,4.4
	c-2.9-0.9-4.9-4.5-5.1-8.2l-0.4,0.3c-0.8,0.4-1.7,0.8-2.5,0.4l-0.7-0.4l-0.5-0.5h-0.1l-0.2-0.4l-0.2-0.3l-0.1-0.2l-0.2-0.6l0,0l0,0
	c-0.3-1.1,0.8-2.6,0-3.4l-0.1,0.1c-0.4,0.6-0.7,1.3-1.1,1.9c-1.4,2.5-3.4,4.9-5.7,3.9c-2.1,2-5.5,3.3-7.6,1.1
	c-1.4-1.5-1.9-3.5-1.3-5.7c0.4-1.5,0.8-1.7-0.7-1.7c-0.8,0-1.5-0.1-2.2-0.6c-0.9-0.6-1.1-2-0.5-3c0.6-1.1,2.6-2.8,1.7-3.9l-0.2,0.4
	c-1.5,2.8-3.8,3.6-6.3,4.4c-0.8,0.2-1.9-0.4-1.9-1.5c0-0.7,0.1-2-0.5-2.5c-0.4-0.3-1.7-1.4-2.2-0.9c-1.2,1.1-2.1,2.4-3.4,3.3
	c-2.2,1.5-5.4,2.9-7.9,1.4c-2.1-1.3-4.2-4.4-2.8-7.4c0.8-1.5,1.9-2.2,3.1-2.9c-0.9-1.4-1.6-2.8-0.9-5c0.6-2.1,2.3-2.9,4-3.4
	c-0.2-0.5-0.3-1-0.4-1.6c-0.1-1.1,0.3-2.3,0.8-3.2c0.6-1.2,1.4-1.6,2.2-1.9c-0.2-0.7-0.1-1.5,0.4-2.5c0.3-0.6,0.7-1.1,1.1-1.5
	l0.4-0.3c0.4-0.2,0.7-0.5,1.1-0.7l0.1-0.1l0,0c0.4-0.2,0.8-0.3,1.1-0.5l0,0c0.4-0.1,0.8-0.3,1.2-0.4c0.9-0.3,1.7-0.3,2.3-1.1
	l0.9-0.8c-3,0.2-5-2.1-4.8-5.7l0,0l0.1-1.3c-2-1.5-2.9-4.4-1.5-7l0.6-1.2c1-1.4,3.2-2.5,4.7-1.9c1.1,0.4,0.8,0.4,1.6-0.2
	c0-0.4,0.1-0.8,0.2-1.2l0.1-0.3l0.4-0.7l0.5-0.9h0.3l0.3-0.2l0.1-0.1c-1.1-0.2-1.9-1-2.4-2.1c-2.3-0.8-5.5-2.6-5.2-5.6
	c0.2-2.1,1.1-3.3,2.3-4c-1.5-1.9-2.5-4.1-1.6-6.4c0.3-0.7,0.6-1.3,1-1.7l0,0l0.1-0.1l1-0.8l0.2-0.1c0.7-0.3,1.4-0.5,2.2-0.6h0.2
	c0.4,0,0.8-0.1,1.2-0.1c0.5-1.9,2.1-2.8,4-3c-0.1-2.3,0.2-4.5,2.2-5.7c1.8-1.1,3.8-0.8,5.4,0.4c1.1-0.6,2.1-0.4,3.1,0.2l0.2-0.3
	c0.6-0.9,1.2-1.5,2.2-1.8l0.9-0.2l0.2-1.1l0.6-0.9c0-1.3,0.1-2.6,0.5-3.6c0.7-1.9,1.7-2.7,2.9-2.8c-1.3-2.4-1.7-5.2-0.5-7.7
	c0.8-1.7,0.7-3.8,1.7-5.5c1-1.9,2.3-1.3,3.6-0.9c0.1-1.3,0.4-2.4,0.9-3.4c-2.1-2-4-4.8-5-7.7c-0.3-0.9-0.4-1.7-0.5-2.5v-0.3
	c0-0.7,0.1-1.4,0.2-1.9l0.1-0.3c0.2-0.6,0.5-1.1,0.9-1.5l0.2-0.1c0.7-0.7,1.6-1.2,2.7-1.4c0.2-2.9,1.1-6.2,3.6-6.8
	c1.5-0.4,2.7,0.3,4,1.3c0.6,0.5,1.3,1.3,1.7,2.1c0.4-0.4,0.7-0.8,1-1.3c0.6-0.2,0.7-0.5,0.1-0.8c-0.6-0.7-1.3-1.3-1.7-2.1
	c-0.9-1.8-1.2-4-0.7-6c0.4-1.7,1.7-3,3.1-3.2s2.3,0.1,3.2,0.8c0.4-0.3,0.7-1,1.2-1.3c1-0.5,2-0.4,2.9,0.2c0.7,0.4,1.2,1.1,1.6,1.9
	c1.9-0.3,4.1,0.3,5.8,1.5l0.8-1.1c-0.4-1.3-0.1-2.7,1.3-3.5c0.7-0.4,1.5-0.7,2.2-1l0.9-0.4l-0.2-0.3l-0.5-1
	c-1.7,0.2-3.4,0.3-4.6-0.7c-2.1-1.7-2.6-3.9-2-6.3c-0.4-0.6-0.6-1.3-0.4-2.2c0.4-1.5,1.8-2.9,3.1-3.9c0-1.2,0.3-2.2,0.9-3.3l0.4-0.8
	V224c-0.3-1-0.4-1.8-0.3-2.8c0.2-3.2,3.3-5,5.7-5.4c0.5-0.5,1.1-0.9,1.7-1.3l0,0l0,0c1.7-1.1,3.5-1.8,5.4-1.9c1,0,1.9,0.3,2.6,1.1
	l0.4-0.2c0.4-0.2,0.7-0.3,1.1-0.4c0.6-0.2,1.3,0,1.9,0.2c1.1,0.4,2.2,2.6,3,2.7c2.1,0.3,3.2-0.1,4.8-1.7c0.5-0.5,1-0.8,1.5-1
	c0.7-1.5,1.8-2.7,3.2-3.6c0.3-1.1,0.8-2,1.4-2.8c-0.1-0.7-0.1-1.3,0.2-1.8c0.2-0.5,0.5-0.9,0.8-1.2c-1.4-2.6-3.1-6.7-1.2-9.4
	c0.9-1.4,1.9-2.1,3.4-2.3c0.7-0.1,1.4,0,2.1,0.1c0.4,0,0.8,0.1,1.1,0l0,0c0.8-0.1,1.1-0.6,0.6-2c-0.7-2.3-0.5-5.9,2-6.5h1l0,0l0,0
	c1.7,0.1,3.4,1.6,4.8,2.8l0.9,0.7c0.1,0,0.4-0.4,0.7-0.9l0.3-0.4l0.4-0.3c1.2-0.1,2.1,0.2,3.1,1.1c1.4,1.2,3-1.3,4-2.2
	c1.1-1,2.5-1.2,3.8-1.1c1.1,0,2,1.3,2,2.5c0,1.4-0.3,2.8-0.4,4.1c0,0.6,0.6,1.2,1.3,1.6c2-0.7,4.2-0.3,5.5,1.5
	c0.7-1,1.5-1.8,2.3-2.8s1.8-0.8,2.8-0.3c4.7,2.6,5.9,12,4,18.3l1-0.4c1.5-0.7,3.2,0.8,3.2,2.7c0,0.5,0,0.8-0.1,1.2l0,0v0.3l1,0.3
	l0.5,0.2l0,0l1,0.6l0.5,0.2l0.5,0.1l-0.3-0.6c-0.5-0.8-1.1-1.5-1.4-2.4c-0.6-1.9-0.6-4.2,0.1-6.1c0.6-1.6,2-2.6,3.5-2.6
	c1.4,0,2.2,0.6,3.1,1.4c0.4-0.2,0.8-0.9,1.3-1c1.1-0.3,2,0,2.9,0.8c0.6,0.6,1.1,1.4,1.3,2.2c2.5,0.1,5.1,1.7,6.7,3.8
	c1.4,1.8,2,4,1.5,6.4l-0.5,1.1l-0.1,0.2l-1.1,1.1l-0.1,0.1l0,0l-0.1,0.1l0,0l0.4,0.5c0.4,0.5,0.7,1.2,0.9,1.8l0.2-0.1v0.1
	c0.8-0.6,1.5-0.8,2.5-0.6c0.6-2.6,2.5-4.3,5.2-3.9c3,0.4,4.1,3.4,4.5,6.5c2.8,1.5,4.8,4.9,3.8,8.6l-0.4,1l0.6,0.1l0,0h0.2
	c0.6,0.1,1.1,0.2,1.7,0.5c0.9,0.5,0.7-0.4,1.8-0.9c0.6-0.2,1.2-0.5,1.8-0.8l0.7-0.3l0,0l0.5-0.1c1.5-0.2,2.5-1.5,4-1.8
	c2.2-0.4,4.6,1,6.3,2.5s3,3.8,3.3,6.4c0.2,2.1-0.4,3.6-1.3,5c1,0.6,1.9,1.5,2.6,2.5c1.9-0.8,3.9-1,5.9-0.2c2.1,0.8,2.1,3.2,3,5.2
	c1.2,2.9,3.2,5.2,2.4,8.8l-0.2,0.5l0.1,0.4c0.4,1.4,0,2.4-0.6,3.5c-0.3,0.5-0.8,0.9-1.4,1.3h0.7c0.5,0,0.9,0,1.4,0h0.4l1,0.1h0.2
	h-0.5c0.8,0.1,1.5,0.4,2.2,0.9c1.1,0.8,1.6,2,1.8,3.3l0.4,0.1l0,0l0,0c0.5,0.1,1,0.4,1.5,0.7l0.1,0.1c0.4,0.3,0.8,0.7,1.1,1.1
	l0.1,0.1c0.3,0.4,0.5,0.9,0.6,1.5v0.1v0.2l0,0v0.1c0,0.4,0,0.9,0,1.5c2.1,2.4,2.4,6,0,7.2l0.3,0.5c0.3,0.6,0.7,2.2-0.2,2.7
	s-1.8,0.6-2.6,0.6c1.7,2.9,4.6,6.9,2.9,9.6l1,0.1c1.5-1.3,3.4-1.6,5.2-0.7c2,1,2.4,3.1,2.4,5.3c1.7,0.1,3.4,0.8,3.9,2.6
	c0.4,0,0.7,0,1.1,0h0.2c0.8,0,1.5,0.1,2.1,0.4l0.2,0.1l1,0.8l0.1,0.1l0,0c0.4,0.4,0.7,0.9,1,1.5c1,2.2,0,4.4-1.3,6.3
	c1.2,0.6,2.1,1.7,2.4,3.7c0.4,2.9-2.5,4.8-4.7,5.8c-0.4,1.1-1.2,1.9-2.2,2.2l0.1,0.1l0.4,0.3l0.2-0.1l0.6,0.8l0.4,0.6l0.1,0.3
	l0.2,1.2c0.8,0.6,0.6,0.6,1.6,0.1c1.4-0.6,3.6,0.2,4.6,1.5l0.6,1.1c1.4,2.4,0.7,5.2-1.2,6.8l0.2,1.2l0,0c0.3,3.5-1.5,5.9-4.5,5.8
	c0.5,0.4,0.9,0.9,1.2,1.5c0.6,1.4,0.8,2.5,0.4,4c-0.2,0.6-0.2,1-0.3,1.6l-0.2-0.2l0.2,0.3c0.4,0.6,0.8,1.2,1,1.8
	c0.4-0.3,0.9-0.4,1.5-0.3c0.1-1.7,0.7-3.4,2.3-3.8c0.9-0.2,1.9,0.2,2.6,0.9c0.7,0.7,1.5,0.6,2.4,0.8c0.4,0,0.8,0.1,1.2,0.2l0,0
	c0.4,0,0.8,0.1,1.2,0.3l0,0h0.2c0.4,0.1,0.7,0.3,1.1,0.5l0.4,0.2c0.5,0.3,0.9,0.7,1.3,1.3c0.5,0.9,0.7,1.6,0.6,2.4
	c0.9,0.2,1.7,0.5,2.4,1.6c0.6,0.9,1.1,1.9,1.1,3.1c0,0.6,0,1.1-0.2,1.6c1.7,0.2,3.5,0.8,4.3,2.8c0.9,2.1,0.4,3.5-0.4,5.1
	C963,369,964.1,369.6,965.1,370.5z M709,358l-0.1-0.8c-0.5,0.3-1.1,0.7-1.6,0.8c0.3,0.5,0.5,1.2,0.6,1.8h0.5l0.2-0.3l0.3-0.6
	L709,358z M757.7,562.7c-0.4-0.6-0.7-1.2-1.1-1.7l-0.4-0.4c0.3,0.6,0.5,1.3,0.7,1.9L757.7,562.7z M760.5,556.7
	c-0.5-0.4-1.1-0.9-1.6-1.4c0.4,0.5,0.7,1.2,1,1.7L760.5,556.7L760.5,556.7z M766.4,562.2l-0.6-0.6l0.4,0.7L766.4,562.2z
	 M776.1,558.8c-0.4-0.6-0.7-1.2-1.1-1.7c0.1,0.6,0.2,1.3,0.4,1.9L776.1,558.8z M783.5,550.4l-0.4-0.8c0.2,0.4,0.2,0.9,0.4,1.4V550.4
	z M820.9,283.1L820.9,283.1l0.4-0.1L820.9,283.1z M821.6,294.7l-0.6-0.6l-0.1,0.3l0.5,0.5L821.6,294.7z M876.1,560.5l0.2-0.1
	L876.1,560.5L876.1,560.5z M874.8,561.8l0.5-0.2l0.3-0.6L874.8,561.8z M879.1,303.4L879.1,303.4l-0.1,0.2L879.1,303.4z M899.4,280.7
	v-0.1c-0.2-0.6-0.2-0.7-0.2-0.3h-0.9C898.6,280.4,899,280.5,899.4,280.7z M905.2,299.1l-0.1-0.5L905.2,299.1z"/>
<path class="st0" d="M-70.4,158.1V158V158.1z"/>
<path class="st0" d="M-31.4,49.6L-31.4,49.6L-31.4,49.6z"/>
<path class="st0" d="M539.1,367c1.8,2.7-0.1,6.1-2,7.7c-2.3,1.9-5.6,1-7.9-0.2c-1.3-0.7-2.4-1.9-3.7-2.8c-0.6-0.4-1.7,0.8-2.1,1.2
	c-0.6,0.5-0.3,1.8-0.2,2.6c0,1.1-0.9,1.9-1.7,1.7c-2.6-0.4-5-0.9-6.7-3.4l-0.2-0.4c-0.8,1.3,1.4,2.7,2.1,3.6c0.6,1,0.6,2.3-0.2,3.1
	c-0.7,0.6-1.3,0.9-2.2,1c-1.5,0.2-1.1,0.3-0.5,1.8c0.8,2,0.6,4.2-0.7,5.9c-1.9,2.5-5.3,1.7-7.7,0c-2.2,1.3-4.4-0.8-6.1-3.1
	c-0.4-0.6-0.8-1.2-1.2-1.7l-0.1-0.1c-0.7,0.9,0.6,2.2,0.4,3.3l-0.2,1v0.1l-0.3,0.7l-0.2,0.3l-0.3,0.4l-0.7,0.5
	c-0.8,0.5-1.7,0.2-2.5,0c-0.6-0.2-1.1-0.7-1.7-0.8c-0.8-0.1-1.8,0.5-2.6,0.8c-2.1,0.7-4.5-1.5-5-3.9c-0.2-1.3-0.6,0.3-0.7,0.8
	c-0.1,0.8,0.1,1.7,0.3,2.4c0.3,0.9,0.6,2.1,0.3,3c-0.9,2.7-3.1,2.9-5.2,2.9c-1.9,0-3.8-1.3-4.7-3.4c-0.5-1.3-0.4-2.4-1.5-1.8
	c-0.8,0.4-1.8,0.3-2.5-0.1c-0.9-0.6-1.7-1.4-2.2-2.4l-0.2-0.6c-0.6-0.1-1.3,0-1.5,0.5c-0.7,1.5,0,1.5,0,3.1
	c-0.2,4.4-5.7,2.4-8.7,0.5c-0.6,0.1-1.2,0.1-1.8,0.1c0.4,1.6,0.6,3.3-0.7,4.4c-1.7,1.5-3.7,0.9-5.6,0c-1.7,2.1-4.3,0.8-6.1-1.4
	c-0.9,0.4-1.9,0.2-3-0.9l-0.6-0.9h-0.2c-0.8,0.8-2,1-3,0.8c-0.5-0.1-1.1-0.3-1.6-0.6c-1,0-1.9,0-2.9,0c-1.6,0-3.2,0-4.8,0.1
	c-0.6,0.2-1.4,0.2-2.3,0.1h-0.2l-0.8,0.1c-0.6,0.1-1.3,0.2-1.9,0.3l-0.9,0.1c-0.6,0.1-1.3,0.3-1.9,0.5l-0.8,0.2h-0.2
	c-0.2,0.4-0.4,0.9-0.8,1.2c-1.1,0.9-2.1,1-3.2,0.8c-1.5,1-2.9,2.2-3.9,3.8l-0.3,0.5c-4.1,6.5-5,16.4-5.6,24.1
	c-2,25.5-2.7,50.6,0.3,76.1c1.3,11.1,1.7,22.9,5.3,33.3c1.3,3.7,3,7.1,5.2,9.9h0.1l0.4,0.6c0.6,0.8,1.4,1.5,2.2,2.2
	c0.3-1,0.8-1.7,1.5-2.1c-0.5-1.2-1.1-2.4-1.7-3.5c-0.4-0.7,0.5-1.6,1-1l0.2,0.3c0.8-0.2,1.5,0.3,2.1,1.1c0.3-0.3,0.8-0.5,1.2,0
	c0.8,1.1,1.5,2.3,1.9,3.7l0.2-1.2c-0.6-1.8-2.8-4.8-0.6-5.9c0.4-0.2,1.1,0,1.5,0.4c0.4,0.5,0.8,1.1,1.1,1.7h0.1l1.1,0.4
	c1.3,1.7,1.8,3.7,1.7,5.8h0.1l0.4-0.7c-0.4-2.2-1.5-4.9-0.9-6.7c0.2-0.4,0.8-0.8,1.2-0.6c0.7,0.3,1.1,0.9,1.5,1.7
	c1.1,0,2.1,2.1,2.4,3.6h0.1l0.6,0.5c0.3-0.6,0.7-1.2,1.3-1.4s1.3,0.4,1.3,1.1c0.1,1.2-0.5,2.6-1.1,3.9v0.9c0.7-1.4,1.5-2.7,2.3-3.8
	c0.6-0.8,1.7,0.1,1.3,1.1c-1.1,2-2.4,3.8-3.5,5.8c0.5-0.3,0.9-0.7,1.4-1c0.8-1.1,1.7-1.9,2.9-2.2c0.4-0.1,0.8,0.3,1,0.8l0,0h0.6
	c0.6-0.5,1.1-1,1.7-1.2c1.1-0.3,2,0.9,1.5,2.1c-0.2,0.5-0.5,1-0.9,1.5l0.6-0.1h0.3c0.9-0.5,1.9-0.7,3-0.4c0.6,0.2,0.8,1,0.5,1.6
	c0.6-0.3,1.3,0,1.7,0.5l0.8,0.3l0.1,0.1h0.3c0.5,0.1,0.8,0.8,0.6,1.4c0.4-0.1,0.8-0.1,1.1-0.1l0.2-0.2c0.4-0.2,0.7,0.2,0.8,0.6
	l0.4,0.2c0.4,0.3,0.4,0.9,0.2,1.4v0.1c0.7-0.2,1.5-0.4,2.1-0.4c1,0,1.2,1.4,0.5,2l0,0c1.8-0.3,3.8-0.8,5.4-0.3
	c0.5,0.1,0.7,0.8,0.5,1.3c1.3,0.6,1.3,3.2-0.1,3.6c-3.6,1-7.1,0.6-10.7,0.1c-1.5,0.3-2.9,0.6-4.4,0.8c-2.3,0.6-4.7,0.7-7,0.8
	l-0.8-0.3c-0.5,0.2-0.9,0.5-1.4,0.8c-0.4,0.3-0.8-0.4-0.4-0.7c0.4-0.4,0.8-0.7,1.2-1v-0.9c-1.1,0.2-2.2,0.4-3.4,0.6
	c0.9,0,1.9-0.1,2.7-0.2c0.4,0,0.4,0.7,0,0.8c-4.8,1-9.8,0.8-14.7,1.5c-0.5,0-0.6-0.9-0.2-1.1c0.9-0.3,1.9-0.5,2.9-0.7
	c-0.4-0.5-0.6-1.3-0.3-1.9l-0.6,0.4l-0.7-0.2h-0.1c-0.3,1.4-2,1.2-2.1-0.3v-0.2l-0.4,0.2l-0.4,0.3l-0.6,0.8l-0.5,0.2l0,0l-1,0.4
	l-0.8,0.5c-0.9,0.5-1.9-0.5-2-1.6c-0.6,0.9-1.9,1.2-2.5,0l-0.1-0.2l-0.3,0.8c-0.6,0.8-1,0.8-1.9,1.1c-0.4,0.1-0.8-0.1-1.1-0.4l0,0
	c-0.9,1-2.1,1-3.3,0.5l-0.4,0.7l-0.4,1c-1.1,0.7-2.3,1.3-3.4,1.9c-1.2,0.6-2.5,1.4-3.8,1c-0.7-0.1-0.9-1.1-0.5-1.7l0.2-0.2
	c-0.3-0.2-0.5-0.7-0.4-1.1l0.1-0.2c-0.5,0.2-1.1,0.5-1.6,0.7c-1.6,0.7-3.1,1.3-4.8,1.1c-0.5,0-0.7-0.4-0.8-0.9
	c-1.1,0.1-2.1,0-2.8-0.2c-0.6-0.2-0.9-0.8-1-1.4h-0.6l0.6,0.6c0.4,0.4,0.3,1.1,0,1.5c-0.2,0.6-0.8,1-1.4,0.6l0,0l-0.2-0.2l-0.1-0.1
	l0.3,0.3l-0.3,0.6c-1-0.7-2-1.5-2.8-2.4c-0.5,0-1.1-0.4-1.1-1.1v-0.1c-0.4,0.5-0.8,1-1.3,1.5c0.4,0.5,0.8,1,1.1,1.5
	c0.3,0.5-0.4,1-0.7,0.5c-0.3-0.5-0.7-1-1.1-1.5l-0.4,0.3c-0.7,0.3-1.2-0.2-1.4-0.8h-0.4l-0.8-0.4l0.9,0.9l-0.4,0.7
	c-0.8-0.6-1.5-1.4-2.2-2.2l0,0c0.3,0.6,0.6,1.2,0.8,1.7c0.5,1.1-0.7,2-1.4,1.1c-0.4-0.6-0.8-1.4-1.1-2l-0.8-0.6l-0.7,0.1l0.3,0.3
	l0.5,0.3c0.4,0.3,0.2,1-0.3,1l-1-0.1c-1,0.3-2.2,0.1-3.1-0.5h-0.2c0.1,0.7-0.4,1.3-1,0.9l-0.6-0.2l-0.6,0.5c-1.4,0-3.6-0.2-4.8-1.4
	c-0.3,0.5-1,0.6-1.3,0l0,0c-0.7,0-1.4,0.1-2.1,0.1l-0.4,0.2l-0.2-0.2c-0.7,0-1.3,0-2,0l-0.1,0.4l0,0c-0.3,0.5-1,0.2-1.5-0.3h-1l0,0
	c0,1.2-1.2,2.1-2,1.2l-0.2-0.3l-0.2,0.4l-0.5-0.5l0.2-0.5l0,0c-0.6,0-1.1,0.2-1.7,0.2c-0.4,0.7-1.2,0.8-1.7,0.3l0,0
	c-0.4,0.1-0.8,0.1-1.3,0.2c-0.4,1.1-1.8,1.4-2.6,0.4c-0.7,0.1-1.4,0.2-2.1,0.3h-0.4h-0.2c-0.6,0-1.3,0-1.9,0h-0.6
	c-0.4,0.3-0.8,0.1-1.1-0.2c-0.5-0.1-1.1-0.2-1.6-0.4c0,0.7-0.2,1.3-0.8,1.8c-0.5,0.4-1.1-0.1-1.2-0.8s-0.3-1.4-0.6-1.9
	c-0.2-0.3-0.5-0.8-0.7-1.2l-0.4-0.4c0.4,1.2,0.4,2.3-1,2.6c-0.5,0.1-0.9-0.3-1.1-0.9l-0.2-0.3l-1-0.1l-0.4-0.5
	c-0.2,0.9-0.8,1.6-2,1.8c-1,0.1-1.3-1.3-0.8-2c0.4-0.6,0.4-1.3,0.2-2c0.1,0.5,0.1,1-0.1,1.5c-0.2,0.8-1.3,0.8-1.6,0.1l-0.2-0.4
	c-0.1,0.5-0.6,0.9-1.1,0.4l-0.4-0.5l-0.2,0.5c-0.3,0.4-0.9,0.2-1.1-0.3c-0.2-1-0.7-1.7-1.5-2.1c-0.4-0.2-0.2-1.1,0.2-0.9l0.6,0.2
	l-0.9-1.3c-0.4-0.4,0.2-1.1,0.6-0.7c1.1,1.2,2.5,2.2,3.4,3.6c-0.2-0.6-0.3-1.2-0.6-1.7l-0.4-0.6c-0.6,0-1.1-0.1-1.7-0.7v-1.1v-0.5
	l-0.2-0.2c-0.3-0.3,0-1,0.4-0.7l0.2,0.1h0.1l0.2-0.6h0.1l-0.1-0.1c-0.4-0.5-0.4-1.4,0.1-1.8c1.5-1.2,3.6,0.3,4.7,1.5
	c0.4,0.4,0.6,0.9,0.8,1.4l0,0c0.3,0.3,1,0.8,1.9,1.5L330,560c-0.4-0.5-0.8-1-1.2-1.5v-0.7c-0.6-0.8-1.2-1.4-2.1-2
	c-0.4-0.3-0.4-1,0.1-1.2l0.9-0.2v-0.1c-0.6-0.9,0.2-2,1.1-1.8c0.4,0,0.9,0.2,1.3,0.5c-0.4-0.4-0.4-1.4,0.1-1.7
	c0.8-0.6,1.6-0.5,2.2,0c-0.3-0.4-0.6-0.8-0.8-1.3l-0.1-0.5l-0.2-0.1c-0.4-0.2-0.4-1,0.1-1.2h0.4c0.3-0.5,0.8-0.8,1.4-0.7
	c1.7,0.3,3.2,2.1,4.5,3.7c1.6,0.8,2.8,2.3,3.7,4.1c0-0.6-0.1-1.3-0.1-1.8c-0.4-0.7-0.8-1.4-1.2-1.9c-0.8-1-1.9-1.3-2.7-2.2
	c-0.3-0.3-0.2-1.1,0.2-1.2c0.5-0.1,0.9,0,1.3,0.1c0.1-0.4,0.4-0.8,0.9-0.8c0.1-0.5,0.5-0.9,1-0.8c2.3,0.5,3.9,3.7,5.2,5.8
	c0.5,0.7,0.9,1.5,1.3,2.2l0.6,0.1c-0.1-0.4-0.2-0.9-0.4-1.3c-0.4-1.4-1.1-2.8-1.8-4c-0.8-1.4-2-1.8-3.1-2.8
	c-0.7-0.7-0.2-2.2,0.7-2.2c2.8,0,4.4,3,5.4,6.5c0.2-0.4,0.6-0.7,1-0.7c-1.3-3.1-3.1-5.2-5.1-7.8c-0.6-0.9,0-2.1,0.9-1.6
	c1.3,0.7,2.4,1.8,3.4,3.1l0,0c-0.4-0.5-0.6-1-0.8-1.8c-0.1-0.9,0.6-1.7,1.3-1.7c1.5,0,2.5,1.7,3.4,3l0.2-0.4
	c-0.6-0.9,0.2-2.2,1.1-1.6l0.8,0.7l0.7,0.6l0.4,0.3c0.8,0.2,1.5,0.8,2,1.4v-0.6c0-0.5,0.2-0.9,0.4-1.2v-1c0.5-1.6,2.3-1.4,3.2-0.5
	c0.8,0.8,1.3,2,1.6,3.2c0.1-0.5,0.1-1,0.2-1.5c0.2-1.1,1.2-1.3,1.8-0.8c0.2-0.4,0.7-0.7,1.2-0.4c1.1,0.8,1.7,1.8,2.1,2.9
	c6.4-5.8,12.2-13.2,15.5-21.8c4-10.5,2.7-22.2,1.6-33.4c-1.1-10.9-2.7-21.5-1.9-32.5c0.9-12.5,3.2-24.6,2.5-37.1
	c-0.4-6.7-1.1-13.3-2.4-19.8c-1.9,0.4-4.8-0.8-6.8-2c-0.6,0.1-1.2,0.1-1.8,0.1c0.4,1.6,0.6,3.3-0.7,4.4c-1.7,1.5-3.7,1-5.6,0
	c-1.7,2.1-4.3,0.8-6.1-1.4c-0.9,0.4-1.9,0.2-3-0.9c-0.9-0.9-1.3-2.1-1.7-3.3l-0.9-0.2c-0.4-0.1-0.8-0.3-1.3-0.6
	c-1-0.4-1.9-1.1-2.7-2.2c-1.3,0.4-2.5,0-3.7-0.8c-0.6-0.1-1.2-0.1-1.8-0.1c-1.6,0.2-3.1-0.7-4.5-2c-1.2,1.2-2.6,1.2-4.5,0.2
	c-1.1-0.5-1.9-1.4-2.9-2.2l-0.2-0.1l-0.5,0.1c-0.4,0.1-1.9,1.2-2.3,0.6c1.4,2.1,2.5,5.1,0.4,7.2c-1.3,1.4-3,1.2-4.7,1
	c-0.6,1.6-2,1.8-3.6,1.5l0,0h-0.1c-0.5-0.1-1.1-0.3-1.7-0.6c-2.2,3.6-6.8,5.5-10.3,4.4c-2.9-0.9-4.9-4.5-5.1-8.2l-0.4,0.3
	c-0.8,0.4-1.7,0.8-2.5,0.4l-0.7-0.4l-0.5-0.5h-0.1l-0.2-0.4L303,394l-0.1-0.2l-0.2-0.6l0,0l0,0c-0.3-1.1,0.8-2.6,0-3.4l-0.1,0.1
	c-0.4,0.6-0.7,1.3-1.1,1.9c-1.4,2.5-3.4,4.9-5.7,3.9c-2.1,2-5.5,3.3-7.6,1.1c-1.4-1.5-1.9-3.5-1.3-5.7c0.4-1.5,0.8-1.7-0.7-1.7
	c-0.8,0-1.5-0.1-2.2-0.6c-0.9-0.6-1.1-2-0.5-3c0.6-1.1,2.6-2.8,1.7-3.9l-0.2,0.4c-1.5,2.8-3.8,3.6-6.3,4.4c-0.8,0.2-1.9-0.4-1.9-1.5
	c0-0.7,0.1-2-0.5-2.5c-0.4-0.3-1.7-1.4-2.2-0.9c-1.2,1.1-2.1,2.4-3.4,3.3c-2.2,1.5-5.4,2.9-7.9,1.4c-2.1-1.3-4.2-4.4-2.8-7.4
	c0.8-1.5,1.9-2.2,3.1-2.9c-0.9-1.4-1.6-2.8-0.9-5c0.6-2.1,2.3-2.9,4-3.4c-0.2-0.5-0.3-1-0.4-1.6c-0.1-1.1,0.3-2.3,0.8-3.2
	c0.6-1.2,1.4-1.6,2.2-1.9c-0.2-0.7-0.1-1.5,0.4-2.5c0.3-0.6,0.7-1.1,1.1-1.5l0.4-0.3c0.4-0.2,0.7-0.5,1.1-0.7l0.1-0.1l0,0
	c0.4-0.2,0.8-0.3,1.1-0.5l0,0c0.4-0.1,0.8-0.3,1.2-0.4c0.9-0.3,1.7-0.3,2.3-1.1l0.9-0.8c-3,0.2-5-2.1-4.8-5.7l0,0l0.1-1.3
	c-2-1.5-2.9-4.4-1.5-7l0.6-1.2c1-1.4,3.2-2.5,4.7-1.9c1.1,0.4,0.8,0.4,1.6-0.2c0-0.4,0.1-0.8,0.2-1.2l0.1-0.3l0.4-0.7l0.5-0.9h0.3
	l0.3-0.2l0.1-0.1c-1.1-0.2-1.9-1-2.4-2.1c-2.3-0.8-5.5-2.6-5.2-5.6c0.2-2.1,1.1-3.3,2.3-4c-1.5-1.9-2.5-4.1-1.6-6.4
	c0.3-0.7,0.6-1.3,1-1.7l0,0l0.1-0.1l1-0.8l0.2-0.1c0.7-0.3,1.4-0.5,2.2-0.6h0.2c0.4,0,0.8-0.1,1.2-0.1c0.5-1.9,2.1-2.8,4-3
	c-0.1-2.3,0.2-4.5,2.2-5.7c1.8-1.1,3.8-0.8,5.4,0.4c1.1-0.6,2.1-0.4,3.1,0.2l0.2-0.3c0.6-0.9,1.2-1.5,2.2-1.8l0.9-0.2l0.2-1.1
	l0.6-0.9c0-1.3,0.1-2.6,0.5-3.6c0.7-1.9,1.7-2.7,2.9-2.8c-1.3-2.4-1.7-5.2-0.5-7.7c0.8-1.7,0.7-3.8,1.7-5.5c1-1.9,2.3-1.3,3.6-0.9
	c0.1-1.3,0.4-2.4,0.9-3.4c-2.1-2-4-4.8-5-7.7c-0.3-0.9-0.4-1.7-0.5-2.5v-0.3c0-0.7,0.1-1.4,0.2-1.9l0.1-0.3c0.2-0.6,0.5-1.1,0.9-1.5
	l0.2-0.1c0.7-0.7,1.6-1.2,2.7-1.4c0.2-2.9,1.1-6.2,3.6-6.8c1.5-0.4,2.7,0.3,4,1.3c0.6,0.5,1.3,1.3,1.7,2.1c0.4-0.4,0.7-0.8,1-1.3
	c0.6-0.2,0.7-0.5,0.1-0.8c-0.6-0.7-1.3-1.3-1.7-2.1c-0.9-1.8-1.2-4-0.7-6c0.4-1.7,1.7-3,3.1-3.2c1.5-0.2,2.3,0.1,3.2,0.8
	c0.4-0.3,0.7-1,1.2-1.3c1-0.5,2-0.4,2.9,0.2c0.7,0.4,1.2,1.1,1.6,1.9c1.9-0.3,4.1,0.3,5.8,1.5l0.8-1.1c-0.4-1.3-0.1-2.7,1.3-3.5
	c0.7-0.4,1.5-0.7,2.2-1l0.9-0.4l-0.2-0.3l-0.5-1c-1.7,0.2-3.4,0.3-4.6-0.7c-2.1-1.7-2.6-3.9-2-6.3c-0.4-0.6-0.6-1.3-0.4-2.2
	c0.4-1.5,1.8-2.9,3.1-3.9c0-1.2,0.3-2.2,0.9-3.3l0.4-0.8v-0.2c-0.3-1-0.4-1.8-0.3-2.8c0.2-3.2,3.3-5,5.7-5.4
	c0.5-0.5,1.1-0.9,1.7-1.3l0,0l0,0c1.7-1.1,3.5-1.8,5.4-1.9c1,0,1.9,0.3,2.6,1.1l0.4-0.2c0.4-0.2,0.7-0.3,1.1-0.4
	c0.6-0.2,1.3,0,1.9,0.2c1.1,0.4,2.2,2.6,3,2.7c2.1,0.3,3.2-0.1,4.8-1.7c0.5-0.5,1-0.8,1.5-1c0.7-1.5,1.8-2.7,3.2-3.6
	c0.3-1.1,0.8-2,1.4-2.8c-0.1-0.7-0.1-1.3,0.2-1.8c0.2-0.5,0.5-0.9,0.8-1.2c-1.4-2.6-3.1-6.7-1.2-9.4c0.9-1.4,1.9-2.1,3.4-2.3
	c0.7-0.1,1.4,0,2.1,0.1c0.4,0,0.8,0.1,1.1,0l0,0c0.8-0.1,1.1-0.6,0.6-2c-0.7-2.3-0.5-5.9,2-6.5h1l0,0l0,0c1.7,0.1,3.4,1.6,4.8,2.8
	l0.9,0.7c0.1,0,0.4-0.4,0.7-0.9l0.3-0.4l0.4-0.3c1.2-0.1,2.1,0.2,3.1,1.1c1.4,1.2,3-1.3,4-2.2c1.1-1,2.5-1.2,3.8-1.1
	c1.1,0,2,1.3,2,2.5c0,1.4-0.3,2.8-0.4,4.1c0,0.6,0.6,1.2,1.3,1.6c2-0.7,4.2-0.3,5.5,1.5c0.7-1,1.5-1.8,2.3-2.8
	c0.8-1,1.8-0.8,2.8-0.3c4.7,2.6,5.9,12,4,18.3l1-0.4c1.5-0.7,3.2,0.8,3.2,2.7c0,0.5,0,0.8-0.1,1.2l0,0v0.3l1,0.3l0.5,0.2l0,0l1,0.6
	l0.5,0.2l0.5,0.1l-0.3-0.6c-0.5-0.8-1.1-1.5-1.4-2.4c-0.6-1.9-0.6-4.2,0.1-6.1c0.6-1.6,2-2.6,3.5-2.6c1.4,0,2.2,0.6,3.1,1.4
	c0.4-0.2,0.8-0.9,1.3-1c1.1-0.3,2,0,2.9,0.8c0.6,0.6,1.1,1.4,1.3,2.2c2.5,0.1,5.1,1.7,6.7,3.8c1.4,1.8,2,4,1.5,6.4l-0.5,1.1
	l-0.1,0.2l-1.1,1.1l-0.1,0.1l0,0l-0.1,0.1l0,0l0.4,0.5c0.4,0.5,0.7,1.2,0.9,1.8l0.2-0.1v0.1c0.8-0.6,1.5-0.8,2.5-0.6
	c0.6-2.6,2.5-4.3,5.2-3.9c3,0.4,4.1,3.4,4.5,6.5c2.8,1.5,4.8,4.9,3.8,8.6l-0.4,1l0.6,0.1l0,0h0.2c0.6,0.1,1.1,0.2,1.7,0.5
	c0.9,0.5,0.7-0.4,1.8-0.9c0.6-0.2,1.2-0.5,1.8-0.8l0.7-0.3l0,0l0.5-0.1c1.5-0.2,2.5-1.5,4-1.8c2.2-0.4,4.6,1,6.3,2.5
	c1.7,1.5,3,3.8,3.3,6.4c0.2,2.1-0.4,3.6-1.3,5c1,0.6,1.9,1.5,2.6,2.5c1.9-0.8,3.9-1,5.9-0.2c2.1,0.8,2.1,3.2,3,5.2
	c1.2,2.9,3.2,5.2,2.4,8.8l-0.2,0.5l0.1,0.4c0.4,1.4,0,2.4-0.6,3.5c-0.3,0.5-0.8,0.9-1.4,1.3h0.7c0.5,0,0.9,0,1.4,0h0.4l1,0.1h0.2
	h-0.3c0.8,0.1,1.5,0.4,2.2,0.9c1.1,0.8,1.6,2,1.8,3.3l0.4,0.1l0,0l0,0c0.5,0.1,1,0.4,1.5,0.7l0.1,0.1c0.4,0.3,0.8,0.7,1.1,1.1
	l0.1,0.1c0.3,0.4,0.5,0.9,0.6,1.5v0.1v0.2l0,0v0.1c0,0.4,0,0.9,0,1.5c2.1,2.4,2.4,6,0,7.2l0.3,0.5c0.3,0.6,0.7,2.2-0.2,2.7
	c-0.9,0.5-1.8,0.6-2.6,0.6c1.7,2.9,4.6,6.9,2.9,9.6l1,0.1c1.5-1.3,3.4-1.6,5.2-0.7c2,1,2.4,3.1,2.4,5.3c1.7,0.1,3.4,0.8,3.9,2.6
	c0.4,0,0.7,0,1.1,0h0.2c0.8,0,1.5,0.1,2.1,0.4l0.2,0.1l1,0.8l0.1,0.1l0,0c0.4,0.4,0.7,0.9,1,1.5c1,2.2,0,4.4-1.3,6.3
	c1.2,0.6,2.1,1.7,2.4,3.7c0.4,2.9-2.5,4.8-4.7,5.8c-0.4,1.1-1.2,1.9-2.2,2.2l0.1,0.1l0.4,0.3l0.2-0.1l0.6,0.8l0.4,0.6l0.1,0.3
	l0.2,1.2c0.8,0.6,0.6,0.6,1.6,0.1c1.4-0.6,3.6,0.2,4.6,1.5l0.6,1.1c1.4,2.4,0.7,5.2-1.2,6.8l0.2,1.2l0,0c0.3,3.5-1.5,5.9-4.5,5.8
	c0.5,0.4,0.9,0.9,1.2,1.5c0.6,1.4,0.8,2.5,0.4,4c-0.2,0.6-0.2,1-0.3,1.6l-0.2-0.2l0.2,0.3c0.4,0.6,0.8,1.2,1,1.8
	c0.4-0.3,0.9-0.4,1.5-0.3c0.1-1.7,0.7-3.4,2.3-3.8c0.9-0.2,1.9,0.2,2.6,0.9c0.7,0.7,1.5,0.6,2.4,0.8c0.4,0,0.8,0.1,1.2,0.2l0,0
	c0.4,0,0.8,0.1,1.2,0.3l0,0h0.2c0.4,0.1,0.7,0.3,1.1,0.5l0.4,0.2c0.5,0.3,0.9,0.7,1.3,1.3c0.5,0.9,0.7,1.6,0.6,2.4
	c0.9,0.2,1.7,0.5,2.4,1.6c0.6,0.9,1.1,1.9,1.1,3.1c0,0.6,0,1.1-0.2,1.6c1.7,0.2,3.5,0.8,4.3,2.8c0.9,2.1,0.4,3.5-0.4,5.1
	C536.9,365.5,538.1,366,539.1,367z M282.9,354.4l-0.1-0.8c-0.5,0.3-1.1,0.7-1.6,0.8c0.3,0.5,0.5,1.2,0.6,1.8h0.5l0.2-0.3l0.3-0.6
	L282.9,354.4z M331.6,559.2c-0.4-0.6-0.7-1.2-1.1-1.7l-0.4-0.4c0.3,0.6,0.5,1.3,0.7,1.9L331.6,559.2z M334.5,553.2
	c-0.5-0.4-1.1-0.9-1.6-1.4c0.4,0.5,0.7,1.2,1,1.7L334.5,553.2L334.5,553.2z M340.4,558.7l-0.6-0.6l0.4,0.7L340.4,558.7z
	 M350.1,555.3c-0.4-0.6-0.7-1.2-1.1-1.7c0.1,0.6,0.2,1.3,0.4,1.9L350.1,555.3z M357.4,546.9l-0.4-0.8c0.2,0.4,0.2,0.9,0.4,1.4V546.9
	z M394.9,279.5L394.9,279.5l0.4-0.1L394.9,279.5z M395.6,291.2l-0.6-0.6l-0.1,0.3l0.5,0.5L395.6,291.2z M450,556.9l0.2-0.1
	L450,556.9L450,556.9z M448.8,558.2l0.5-0.2l0.3-0.6L448.8,558.2z M453.1,299.9H453v0.2L453.1,299.9z M473.3,277.2v-0.1
	c-0.2-0.6-0.2-0.7-0.2-0.3h-0.9C472.6,276.8,472.9,277,473.3,277.2z M479.1,295.6l-0.1-0.5L479.1,295.6z"/>
<path class="st0" d="M364.6,361.2c2.2,3.5,1.2,7.6-1.8,9.9c0.2,0.6,0.3,1.2,0.3,1.8l0,0c0.5,5.4-2.9,9.2-8.1,8.5
	c-1.1,1.5-2.5,2.3-4.4,2.1c-0.9-0.1-1.7-0.6-2.5-1c0,0.2-0.1,0.6-0.2,1.2c0,0.4,0.2,0.8,0.4,1.2l0.5,0.8c0.3,0.4,0.5,0.8,0.7,1.2
	c0.4,1.2-1,3.1-1.8,3.6c-2.5,1.5-5.2,3-7.9,4l-0.6,0.3l0.3,0.7l0.2,0.5l0.5,0.9c1.1,1.5,2.4,2.8,3.1,4.6c1,2.9-1.3,5.1-3.5,6
	c-1.2,0.5-2.7,0.8-4.4,0.9c-0.7,0.4-1.4,0.7-2.2,1c1.2,1.8,1.7,4,0.7,6.8c-1.5,4-6.8,3.7-10.4,2.9c-1.4,1-3,1.3-4.6,0.8v0.1l0.4,0.8
	h0.3c0.2,0.6,0.3,1.2,0.3,1.8v0.1v0.4v1l-0.1,0.4l-0.4,1c0.7,1.4,0.4,1.2,2.1,1.6c2.4,0.4,4.8,3.5,5.3,6.1c0.1,0.7,0.1,1.3,0.1,1.9
	c0.3,4.2-2.6,7.1-6.3,7.4c-0.1,0.6-0.4,1.1-0.6,1.7l0,0c-2.1,5-6.8,6.2-11,2.7c-1.5,0.6-2.9,0.5-4.4-0.5l-0.4,0.3
	c-0.9,2.3,0.3,2.2,0.4,4.5c0.2,6.4-8.7,4.5-13.8,2.3c-0.5,0.1-0.9,0.1-1.4,0.2c0.2,1.2,0.3,2.5,0.1,3.7c-0.2,1.3-0.9,2.1-1.8,2.6
	l-0.3,0.9c-2.7,2.6-5.8,2-8.9,1c-2.4,3.3-6.7,1.9-10-0.9c-1.3,0.8-3.1,0.6-4.9-0.8c-1.7-1.3-2.6-3.2-3.4-5.1
	c-2.9,0.5-5.6-0.5-7.7-2.8c-1.2,0.4-2.3,0.5-3.5,0.3c-0.5,0.1-1.1,0.2-1.7,0.2c-1.5,0-4.5-1.3-5.3,0.2c-0.3,0.5-0.4,1-0.5,1.3
	c-0.2,1,0.5,1.5,0.4,3.2c-0.4,6.4-9.1,3.5-14,0.7h-0.8l-0.3,0.2c-0.5,0.2-1.1,0.4-1.7,0.7c0.5,2.1,0.5,4.3-1.3,5.7
	c-2.4,2-5.1,1.6-7.7,0.6c-1.9,3.3-4.1,6.5-5.1,10.4c-0.9,3.7-1.3,7.5-1.3,11.3c-0.3,17.7,4.1,35.1,5.5,52.7
	c0.4,5.1,0.7,11.9,2.4,17.4l0.1-0.4c0.7-5.6,0.9-11.2,3.7-16.1c0.4-0.8,1.5-0.1,1.1,0.7l-0.3,0.7v0.1c-0.9,4-1.2,7.9-1.2,11.8
	c1-4.5,2.6-8.9,4.8-12.8c0.3-0.5,0.9,0,0.7,0.5c-3,7.6-4.1,15.5-4.4,23.6l0.3,0.4c-0.2-2.3,1-5.4,1.3-7c1-4.6,2.8-8.6,5.6-12.3
	l0.2,0.2l-0.5,1.1c0.7-1.1,1.4-2.2,2-3.3c0.4-0.6,1.1-0.1,0.9,0.5c-1.5,3.9-3.8,7.5-4.6,11.7c-0.2,1.3-0.4,2.7-0.5,4.1
	c1.9-3.9,4.4-7.4,7.8-9.5c0.4-0.2,0.8,0.4,0.4,0.7l-1,1c0.4-0.2,0.8,0.1,0.6,0.6c-0.3,0.5-0.5,1-0.8,1.5c0.6-0.6,1.2-1.3,1.8-1.9
	l0.6,0.7c-1.8,2.7-3.7,5.3-5.2,8.3c-1,2.1-1.5,4.1-1.9,6.2l0.6-1.2c1.5-2.5,3.3-5,5.9-6.2l0.5,0.7l-0.1,0.1c0.8-0.4,1.6-0.8,2.4-1.1
	l0.3,0.6c-2.2,1.3-4,3.4-5.3,5.9c0.7-0.6,1.3-1.2,1.9-1.8l0.5,0.6c-1.7,2.2-3.6,4.2-4.5,6.8c-0.1,0.6-0.2,1.2-0.3,1.8l-0.4,0.8
	l-0.1,0.4c-0.1,1.2-1.8,1.6-2,0.3l0,0c-1.4,1.2-4.3,1.7-5.4,1.9c3,4-1.9,5.1-4.6,5.6c-3.5,0.6-6.9,1.7-10.4,1.7h-0.4l0.2,0.2v0.4
	c-0.7,0-1.4,0-2.1-0.1c-1.4-0.1-3.9,0.1-4.9-1.1c-0.3-0.6-0.6-1.2-0.8-1.8h-0.4c0.1,0.4,0.1,0.9,0.2,1.3h-0.2l-0.5-0.4
	c-0.7-0.5-1.3-0.7-1.8-0.5v-0.1l-1,0.2v0.6c-0.4,0-0.9,0-1.3,0.1l-0.5,0.1v-0.4h-0.1v0.4c-0.7,0.2-1.3,0.5-2,0.8
	c-1.3,1.4-1.9,3.5-4.3,3.8c-2.2,0.2-4.5,0-6.7-0.3c-3-0.4-6-1.3-8.6-3.1c-0.6-0.3-1.1-0.8-1.4-1.5c-0.5,0.1-1,0-1.4-0.4
	c-0.6-0.8-0.2-2.3,0.2-3.5c-1.2,0.6-2.5,1.1-3.8,1.4c-2-0.5-4.1-1.1-6.2-1.6c-1.2,0-2.5-0.1-3.7-0.2c-2.7-0.3-3.5-1-3.3-1.9h-0.2
	c-4.1-3.5-7.7-6.9-13.3-7c-0.4,0-0.5-0.7-0.1-0.8c4.5-0.8,8.2,0.4,11.8,2.7c-0.4-0.7-0.9-1.4-1.5-2l0,0c-1-1-2.2-1.8-3.5-2v-0.3
	l1,0.1c-0.8-0.5-1.5-1-2.4-1.4c-0.4-0.1-0.4-0.9,0.1-0.8c1.2,0.2,2.4,0.6,3.5,1.1c-1.9-1.9-4.1-3.2-6.8-3.3v-0.6
	c4-0.5,8.2,1.7,10.9,4.9c1.2,1.4,3,3.4,3.9,5.6l0,0c-0.1-0.5-0.1-1-0.3-1.7c-0.3-1.5-0.6-3-1.2-4.3c-1.2-2.8-3.1-5.8-5.6-7.4
	l0.2-0.6c2.9,1.3,4.9,3.6,6.7,6.3l0.6,1v-0.5c-0.6-3.4-1.8-7.5-4.6-9.3c-0.5-0.3-0.1-1.1,0.4-0.8c3.3,1.5,4.6,5.5,5.8,8.8
	c0.4,1.1,1.1,3,1.5,4.9c1.1-6,0.8-13.1-3.7-17.4l0.2-0.3c2.4,1.4,4,3.6,5,6.2c0.9,1.6,1.7,3.2,2.2,5c0.2-0.4,0.3-0.9,0.4-1.3
	c0-3.8-0.4-7.6-2.3-11l0.4-0.3c1.6,2.1,2.5,4.4,3,6.9c0.7-4.4,0.7-9.1,0.8-13.6c0.1-10.7-0.2-21.3,0-32c0.1-5.8,0.4-11.6,1-17.4
	c0.5-5.1,0.1-10.1-0.1-15.2c-0.3-5.1-0.7-9.3-2.9-13.6c-2.3,0.8-4.8,0.1-7.2-0.9c-2.7,3.1-6.9,1.2-9.8-2c-1.4,0.6-3.1,0.3-4.9-1.3
	c-0.5-0.5-0.9-1.1-1.3-1.7c-3.7,4.7-10.6,7.1-15.8,5.7c-2.6-0.7-4.7-2.8-6.2-5.3l-1.1,0.5c-1.7,0.4-3.3-0.1-4.9-0.5
	c-1.8-0.4-3.4,0-5.2-0.4c-3.2-0.9-4.7-4.3-5.6-7.4l-0.3-0.6c0.2,1.8-0.3,3.5-1.8,4.9c-2.1,2-4.9,1.7-7.5,1.5
	c-0.9,2.4-3.3,2.8-5.8,2.2l0,0l0,0c-0.9-0.2-1.8-0.5-2.7-0.9c-3.5,5.2-10.9,8.1-16.5,6.5c-5.6-1.5-9.3-9.2-8.1-15.4
	c-0.9-1.1-1.5-2.3-2.1-3.6c-5.1-2.1-6.7-8.2-4.4-13.3h-0.1c-3.4,3.8-10.7,4.3-14.6,3c-2.3-0.8-4.9-3-4-6c0.6-2,1.9-3.3,3-5
	c0.3-0.4,0.6-1.1,0.8-1.8l0.2-0.5l-0.7-0.2c-2.8-0.9-5.7-2.2-8.4-3.6c-0.9-0.5-2.4-2.4-2.1-3.7c0.1-0.4,0.4-0.9,0.6-1.3l0.5-0.9
	c0.2-0.4,0.4-0.8,0.3-1.3c-0.1-0.6-0.2-1-0.2-1.2c-0.8,0.5-1.7,1.1-2.6,1.2c-2,0.4-3.6-0.3-4.7-1.8c-5.4,1-9.2-2.7-8.9-8.3l0,0
	c0-0.6,0.1-1.2,0.2-1.9c-3.3-2.3-4.6-6.4-2.5-10.2c0.3-0.5,0.6-1.1,1-1.7c1.6-2.1,5.2-3.6,7.8-2.5c1.8,0.6,1.3,0.5,2.6-0.4l0.1-1.2
	l0.1-0.4l0.4-1l0.2-0.4l0.1-0.1c0.3-0.5,0.6-1,1.1-1.5l0.3,0.1l0.7-0.5l0.1-0.1c-1.7-0.4-3.1-1.5-3.9-3.1c-3.7-1.1-8.8-3.7-8.3-8.3
	c0.3-3.1,1.7-4.8,3.6-5.9c-2.3-2.8-4-6.1-2.6-9.4c0.4-1.1,1-1.9,1.6-2.5l0,0l0.2-0.2l0,0c0.5-0.5,1-0.8,1.5-1.1l0.4-0.2
	c1-0.5,2.2-0.7,3.5-0.8h0.4c0.6,0,1.2,0,1.8-0.1c0.7-2.4,2.6-3.5,4.9-4.1c-0.3-1.9-0.6-3.8-1.5-4.8c-2.6-2.9,0.6-6.1,3.2-3.4
	c0.1-1.6,0.3-3.1,1.4-4.1c-0.4-1.5-0.3-2.9,0.5-4.3c-1.3-1.3-1.9-3-1.1-5c0.2-0.5,0.5-0.9,0.9-1.3c0-2,0.2-3.8,0.8-5.4
	c1.1-2.9,2.7-3.9,4.7-4.1c-2-3.5-2.7-7.6-0.8-11.3c1.4-2.6,1.2-5.6,2.7-8.1c1.7-2.9,3.7-1.9,5.8-1.3c0.1-1.8,0.6-3.4,1.5-5
	c-3.5-3-6.4-7-8-11.3c-0.3-0.7-0.5-1.5-0.6-2.2l-0.1-0.7l-0.1-1.2V271l0.1-1l0.2-0.8l0.3-0.8l0.4-0.7l0.5-0.7l0.5-0.6l0.7-0.6
	l0.5-0.4l1-0.5c0.7-0.3,1.5-0.6,2.4-0.8c0.4-4.2,1.8-9.1,5.8-10c2.4-0.5,4.4,0.5,6.4,1.9c1,0.7,2.2,1.9,2.8,3.1
	c0.6-0.5,1.1-1.1,1.6-1.9c1.1-0.3,1.1-0.7,0.2-1.2c-0.9-1-2-1.9-2.7-3.1c-1.4-2.7-1.8-6-1.1-8.9c0.6-2.5,2.7-4.4,5-4.7
	s3.6,0.2,5.2,1.2c0.6-0.4,1.1-1.5,1.9-1.8c1.6-0.7,3.1-0.6,4.7,0.3c1.1,0.7,1.9,1.7,2.6,2.8c3.1-0.4,6.5,0.6,9.3,2.3
	c0.4-0.6,0.9-1.1,1.4-1.6c-0.6-1.8-0.2-3.8,2.1-5.2c1.1-0.6,2.4-1,3.6-1.5c0.5-0.2,1-0.4,1.5-0.6l-0.4-0.5c-0.3-0.5-0.6-1-0.8-1.5
	c-2.7,0.3-5.5,0.4-7.5-1c-3.3-2.5-4.2-5.8-3.1-9.3c-0.7-0.9-1-2-0.6-3.3c0.7-2.3,2.9-4.3,4.9-5.7c0-1.7,0.4-3.2,1.4-4.9l0.7-1.1
	v-0.4c-0.4-1.4-0.6-2.7-0.5-4.1c0.2-4.8,5.3-7.4,9.1-8c0.9-0.7,1.8-1.3,2.7-1.9h0.1l0,0c2.7-1.6,5.5-2.6,8.7-2.8
	c1.6-0.1,3.1,0.4,4.1,1.6l0.7-0.2c0.6-0.3,1.2-0.5,1.8-0.6c1-0.2,2,0,3,0.3c1.7,0.6,3.6,3.7,4.8,3.9c3.4,0.4,5.2-0.2,7.8-2.5
	c1.6-1.4,3.1-1.8,4.4-1.4c0.7-2.2,2.6-3.4,5.1-4.5c1.3-0.5,2.7-0.7,4.1-0.6c-1-3-1.3-6.2,0.4-8.7c1.5-2,3.1-3.1,5.5-3.3
	c1.1-0.1,2.2,0,3.4,0.1c0.7,0,1.3,0.1,1.7,0c1.4-0.1,1.8-0.8,1.1-2.9c-1.1-3.4-0.8-8.6,3.2-9.5c0.5-0.1,1-0.1,1.6-0.1l0,0l0,0
	c1.9,0.2,3.9,1.4,5.8,2.7l0,0l1.2,0.8l0.8,0.5c0.6,0.4,1.1,0.7,1.6,1c0.2,0.1,0.7-0.8,1.3-1.5l0.2-0.3l0.7-0.5
	c1.9-0.2,3.5,0.3,5,1.6c2.3,1.8,4.8-1.9,6.4-3.2c1.8-1.5,3.9-1.7,6-1.6c1.7,0.1,3.2,1.8,3.2,3.7c0,2-0.4,4-0.6,6.1
	c-0.1,0.9,0.9,1.7,2,2.4c3.1-1.1,6.8-0.4,8.9,2.2c1.2-1.4,2.4-2.7,3.7-4c1.4-1.4,2.9-1.3,4.5-0.4c6.9,3.4,9,15.1,7.2,24.1
	c1.2,0.4,2.3,1.2,3.4,2.2c1.3,0.5,2.3,1.8,2.6,3.4l0.3,0.5c0.7-0.4,1.3-0.9,1.8-1.6c1.1-0.1,1.2-0.5,0.4-1.2
	c-0.8-1.1-1.7-2.2-2.2-3.5c-1-2.8-1-6.2,0.2-9c1-2.4,3.2-3.8,5.6-3.8c2.3,0,3.6,0.8,4.9,2c0.7-0.3,1.3-1.3,2.1-1.5
	c1.7-0.4,3.2-0.1,4.6,1.1c1,0.8,1.6,1.9,2.1,3.1c4,0.1,8.2,2.6,10.7,5.7c2.2,2.7,3.1,5.9,2.4,9.4l-0.4,1l-0.2,0.3l-0.4,0.6l-0.3,0.3
	l-0.4,0.4l-0.5,0.4l0,0l0,0l-0.4,0.3l-0.2,0.1l0,0l-0.2,0.1l0.7,0.8c0.6,0.7,1.2,1.7,1.4,2.7l0.3-0.2l0,0c1.2-0.9,2.4-1.1,4-0.8
	c0.9-3.8,4-6.3,8.3-5.7c4.9,0.6,6.7,5,7.3,9.5c4.4,2.1,7.7,7.1,6.1,12.6c-0.2,0.5-0.4,0.9-0.6,1.4l1,0.2l0,0l0.3,0.1
	c0.9,0.1,1.7,0.4,2.6,0.8c1.5,0.7,1.2-0.7,2.8-1.3c0.9-0.3,1.8-0.7,2.8-1.1c0.4-0.1,0.8-0.3,1.2-0.4v0.1l0.8-0.2
	c2.5-0.3,3.9-2.3,6.3-2.7c3.5-0.6,7.3,1.4,10,3.6c2.8,2.3,4.8,5.6,5.3,9.4c0.4,3.1-0.7,5.2-2.1,7.4c1.6,0.9,3.1,2.2,4.2,3.7
	c3.1-1.2,6.3-1.5,9.6-0.4c3.4,1.2,3.5,4.8,4.7,7.7c1.8,4.3,5.1,7.7,3.8,12.8l-0.4,0.8l0.2,0.6c0.6,2,0,3.5-0.9,5.2
	c-0.4,0.8-1.3,1.4-2.2,1.9h1.2c0.8,0,1.5,0,2.3,0h0.4c0.7,0,1.3,0.1,1.9,0.2h0.2l0,0c1.2,0.2,2.4,0.5,3.6,1.3c1.7,1.2,2.5,3,2.8,4.9
	l0.6,0.1l0,0l0.3,0.1l0.8,0.3l0.5,0.2l0.7,0.4l0.5,0.3l0.6,0.4l0.4,0.4l0.4,0.5l0.4,0.6l0.3,0.5l0.3,0.7l0.2,0.6l0.1,0.4l0,0v0.2
	v0.2l0.1,0.5c0,0.4,0,0.9-0.1,1.4c3.3,3.4,3.9,8.8,0,10.6l0.4,0.7c0.6,1,1.1,3.3-0.2,3.9c-1.5,0.7-2.8,0.9-4.2,0.9
	c3,4.8,8.4,11.4,3.6,15.4h-0.1c0.4,0.5,0.9,1,1.1,1.8c0.6,0,1.2,0,1.7,0h0.4c1.2,0,2.3,0.2,3.3,0.6l0.4,0.1c0.5,0.2,1,0.5,1.4,0.9
	l0,0l0,0l0.2,0.2l0,0l0,0c0.6,0.6,1.2,1.3,1.7,2.3c1.6,3.1,0.1,6.4-2,9.2c1.9,0.9,3.4,2.5,3.8,5.4c0.6,4.3-4.1,7.1-7.6,8.4
	c-0.7,1.6-1.9,2.8-3.6,3.2l0.1,0.1l0.7,0.4l0.3-0.1c0.4,0.4,0.8,0.8,1.1,1.3l0.1,0.1l0.2,0.3l0.4,0.9l0.1,0.4l0.2,1.1
	c1.3,0.8,0.9,0.9,2.5,0.2c2.2-1,5.8,0.3,7.4,2.2C363.9,360.1,364.3,360.6,364.6,361.2z M183,243.7L183,243.7l-1.1,0.3l0.9,0.7
	L183,243.7z M230.6,556.9c1-1.2,2-2.4,2.8-3.7C232.3,554.3,231.3,555.6,230.6,556.9z M242,360.1l-0.3-0.1l0.1,0.2L242,360.1z
	 M277.5,329c-0.4,0-0.8-0.1-1.2-0.2c0.2,0.5,0.4,1.1,0.5,1.7C277,329.9,277.2,329.5,277.5,329z M315.4,301.4
	c-0.2-1.1-0.4-2.2-0.7-3.3l-0.1-0.7c-0.3-0.9-0.3-1.1-0.2-0.5c-0.6-0.1-1.6,0-2.6,0.2c1.1,1.2,1.8,2.6,2.3,4.1
	C314.6,301.3,315,301.3,315.4,301.4z"/>
<path class="st0" d="M1193.7,366.1c2.1,3.1,1.1,6.8-1.7,8.9c0.2,0.5,0.2,1.1,0.3,1.6l0,0c0.5,4.8-2.6,8.2-7.5,7.6
	c-1,1.4-2.3,2.1-4.1,1.8c-0.8-0.1-1.6-0.5-2.3-0.9c0,0.2-0.1,0.5-0.2,1.1c0,0.4,0.2,0.7,0.4,1.1l0.5,0.7c0.2,0.4,0.5,0.7,0.6,1.1
	c0.3,1.1-0.9,2.8-1.7,3.3c-2.3,1.4-4.8,2.6-7.2,3.6l-0.6,0.3l0.3,0.7l0.2,0.4l0.5,0.8c1,1.4,2.2,2.5,2.8,4.1
	c0.9,2.6-1.2,4.5-3.2,5.4c-1.1,0.4-2.5,0.7-4,0.8c-0.6,0.4-1.3,0.7-2,0.9c1.1,1.6,1.5,3.6,0.6,6.1c-1.4,3.6-6.3,3.3-9.6,2.6
	c-1.3,0.9-2.7,1.2-4.2,0.7v0.1l0.4,0.7h0.3c0.2,0.5,0.3,1.1,0.3,1.6v0.1v0.4v0.9l-0.1,0.4l-0.3,0.9c0.7,1.2,0.3,1.1,1.9,1.4
	c2.2,0.4,4.4,3.2,4.8,5.4c0.1,0.6,0.1,1.2,0.1,1.7c0.2,3.8-2.4,6.4-5.8,6.6c-0.1,0.5-0.3,1-0.5,1.5l0,0c-1.9,4.4-6.2,5.5-10.1,2.4
	c-1.4,0.6-2.7,0.4-4-0.5l-0.4,0.3c-0.9,2.1,0.2,2,0.3,4.1c0.2,5.8-8,4.1-12.7,2c-0.5,0.1-0.9,0.1-1.3,0.2c0.2,1.1,0.3,2.2,0.1,3.3
	c-0.2,1.1-0.8,1.8-1.6,2.3l-0.3,0.8c-2.4,2.3-5.4,1.8-8.2,0.9c-2.2,3-6.2,1.7-9.2-0.8c-1.2,0.7-2.8,0.6-4.5-0.7
	c-1.6-1.1-2.4-2.9-3.1-4.6c-2.7,0.5-5.2-0.4-7.1-2.5c-1.1,0.4-2.1,0.4-3.2,0.3c-0.5,0.1-1,0.2-1.6,0.2c-1.4,0-4.1-1.2-4.9,0.2
	c-0.3,0.5-0.4,0.9-0.5,1.2c-0.2,0.9,0.5,1.4,0.4,2.9c-0.3,5.8-8.3,3.2-12.8,0.7h-0.7l-0.3,0.2c-0.5,0.2-1,0.4-1.5,0.6
	c0.5,1.9,0.5,3.8-1.2,5.1c-2.2,1.8-4.7,1.4-7.1,0.5c-1.8,3-3.8,5.8-4.7,9.3c-0.9,3.3-1.2,6.7-1.2,10.1c-0.2,15.9,3.8,31.4,5.1,47.1
	c0.4,4.5,0.6,10.6,2.2,15.6l0.1-0.4c0.6-5,0.8-10,3.4-14.4c0.4-0.7,1.4-0.1,1,0.6l-0.2,0.6v0.1c-0.9,3.6-1.1,7-1.1,10.6
	c0.9-4,2.4-7.9,4.4-11.5c0.2-0.4,0.8,0,0.7,0.4c-2.8,6.8-3.8,13.9-4,21.1l0.3,0.4c-0.2-2.1,0.9-4.8,1.2-6.3c0.9-4.1,2.6-7.7,5.1-11
	l0.2,0.2l-0.5,1c0.7-1,1.3-2,1.9-3c0.3-0.6,1-0.1,0.8,0.5c-1.4,3.5-3.5,6.7-4.2,10.4c-0.2,1.2-0.4,2.4-0.5,3.7
	c1.7-3.5,4.1-6.6,7.2-8.5c0.4-0.2,0.7,0.4,0.4,0.7l-0.9,0.9c0.3-0.2,0.7,0.1,0.5,0.6c-0.2,0.5-0.5,0.9-0.7,1.4
	c0.6-0.6,1.1-1.2,1.7-1.7l0.6,0.6c-1.7,2.4-3.4,4.7-4.7,7.4c-0.9,1.9-1.4,3.7-1.8,5.5l0.6-1.1c1.4-2.2,3.1-4.5,5.4-5.5l0.5,0.6
	l-0.1,0.1c0.7-0.4,1.4-0.7,2.2-1l0.2,0.6c-2,1.1-3.7,3-4.9,5.2c0.6-0.6,1.2-1.1,1.8-1.6l0.5,0.5c-1.6,1.9-3.3,3.8-4.2,6.1
	c-0.1,0.6-0.2,1.1-0.2,1.6l-0.3,0.7l-0.1,0.4c-0.1,1.1-1.7,1.4-1.8,0.3l0,0c-1.3,1.1-4,1.5-5,1.7c2.7,3.6-1.8,4.6-4.3,5
	c-3.2,0.6-6.3,1.5-9.5,1.5h-0.3l0.2,0.2v0.4c-0.6,0-1.3,0-1.9-0.1c-1.3-0.1-3.6,0.1-4.5-1c-0.3-0.5-0.5-1.1-0.7-1.6h-0.4
	c0.1,0.4,0.1,0.8,0.2,1.2h-0.2l-0.5-0.4c-0.7-0.5-1.2-0.6-1.6-0.5v-0.1l-0.9,0.2v0.5c-0.4,0-0.8,0-1.2,0.1l-0.5,0.1v-0.4h-0.1v0.4
	c-0.6,0.2-1.2,0.4-1.8,0.7c-1.2,1.3-1.7,3.2-4,3.4c-2,0.2-4.2,0-6.1-0.3c-2.8-0.4-5.5-1.2-7.9-2.7c-0.5-0.3-1-0.7-1.3-1.3
	c-0.5,0.1-0.9,0-1.3-0.4c-0.5-0.7-0.2-2.1,0.2-3.1c-1.1,0.5-2.3,1-3.5,1.3c-1.9-0.4-3.8-1-5.7-1.4c-1.1,0-2.3-0.1-3.4-0.2
	c-2.4-0.3-3.2-0.9-3.1-1.7h-0.2c-3.8-3.1-7.1-6.2-12.2-6.3c-0.4,0-0.5-0.6-0.1-0.7c4.1-0.7,7.6,0.4,10.8,2.4
	c-0.4-0.6-0.9-1.2-1.4-1.8l0,0c-0.9-0.9-2-1.6-3.2-1.8v-0.3l0.9,0.1c-0.7-0.5-1.4-0.9-2.2-1.2c-0.4-0.1-0.3-0.8,0.1-0.7
	c1.1,0.2,2.2,0.5,3.2,1c-1.7-1.7-3.8-2.9-6.2-3v-0.6c3.7-0.4,7.5,1.5,10,4.4c1.1,1.2,2.7,3.1,3.6,5l0,0c-0.1-0.4-0.1-0.9-0.2-1.5
	c-0.2-1.3-0.6-2.7-1.1-3.9c-1.1-2.5-2.8-5.2-5.2-6.6l0.2-0.5c2.6,1.2,4.5,3.2,6.1,5.7l0.6,0.9v-0.5c-0.5-3-1.6-6.7-4.2-8.4
	c-0.5-0.3-0.1-1,0.4-0.7c3,1.4,4.3,4.9,5.4,7.9c0.4,1,1,2.6,1.4,4.4c1-5.4,0.7-11.8-3.4-15.6l0.2-0.3c2.2,1.2,3.7,3.3,4.6,5.6
	c0.9,1.4,1.6,2.9,2,4.4c0.2-0.4,0.3-0.8,0.4-1.2c0-3.4-0.4-6.8-2.1-9.9l0.3-0.3c1.5,1.9,2.3,4,2.8,6.2c0.7-4,0.7-8.1,0.7-12.2
	c0.1-9.6-0.2-19.1,0-28.6c0.1-5.2,0.4-10.4,0.9-15.5c0.5-4.5,0.1-9-0.1-13.6c-0.2-4.5-0.6-8.3-2.6-12.2c-2.1,0.7-4.4,0.1-6.6-0.8
	c-2.5,2.7-6.3,1.1-9-1.8c-1.3,0.6-2.8,0.3-4.5-1.2c-0.5-0.5-0.9-1-1.2-1.5c-3.4,4.2-9.7,6.4-14.5,5.1c-2.4-0.7-4.3-2.5-5.7-4.8
	l-1,0.4c-1.5,0.4-3-0.1-4.5-0.4c-1.6-0.4-3.1,0-4.7-0.4c-3-0.8-4.3-3.8-5.2-6.6l-0.3-0.5c0.2,1.6-0.2,3.1-1.6,4.4
	c-1.9,1.8-4.5,1.5-6.9,1.3c-0.9,2.1-3,2.5-5.3,1.9l0,0l0,0c-0.8-0.2-1.7-0.5-2.5-0.8c-3.2,4.7-10,7.2-15.1,5.9
	c-5.2-1.4-8.5-8.2-7.4-13.7c-0.8-1-1.4-2.1-1.9-3.3c-4.7-1.9-6.1-7.4-4-11.9h-0.1c-3.1,3.4-9.8,3.9-13.4,2.7
	c-2.1-0.7-4.5-2.7-3.6-5.4c0.6-1.8,1.8-3,2.7-4.5c0.2-0.4,0.5-1,0.7-1.6l0.2-0.4l-0.6-0.2c-2.6-0.8-5.2-1.9-7.7-3.2
	c-0.9-0.4-2.2-2.2-1.9-3.3c0.1-0.4,0.3-0.8,0.6-1.1l0.5-0.8c0.2-0.4,0.3-0.7,0.3-1.1c-0.1-0.6-0.2-0.9-0.2-1.1
	c-0.7,0.4-1.5,1-2.4,1.1c-1.9,0.4-3.3-0.3-4.3-1.6c-5,0.9-8.5-2.4-8.2-7.4l0,0c0-0.6,0.1-1.1,0.2-1.7c-3-2-4.2-5.8-2.3-9.2
	c0.2-0.5,0.5-1,0.9-1.5c1.4-1.8,4.7-3.2,7.2-2.2c1.6,0.5,1.2,0.5,2.4-0.4l0.1-1.1l0.1-0.4l0.4-0.9l0.2-0.4l0.1-0.1
	c0.3-0.5,0.6-0.9,1-1.3l0.2,0.1l0.6-0.4l0.1-0.1c-1.6-0.4-2.8-1.4-3.6-2.8c-3.4-1-8.1-3.3-7.6-7.4c0.2-2.7,1.6-4.3,3.3-5.2
	c-2.1-2.5-3.7-5.4-2.4-8.5c0.4-1,0.9-1.7,1.4-2.2l0,0l0.2-0.2l0,0c0.5-0.4,0.9-0.7,1.4-1l0.3-0.2c0.9-0.4,2-0.7,3.2-0.7h0.4
	c0.5,0,1.1,0,1.7-0.1c0.6-2.1,2.4-3.2,4.5-3.7c-0.2-1.7-0.5-3.4-1.4-4.3c-2.4-2.6,0.6-5.4,2.9-3.1c0.1-1.4,0.3-2.7,1.3-3.7
	c-0.4-1.3-0.2-2.6,0.5-3.8c-1.2-1.1-1.8-2.6-1-4.5c0.2-0.4,0.5-0.8,0.8-1.1c0-1.8,0.2-3.4,0.7-4.8c1-2.6,2.5-3.5,4.3-3.7
	c-1.8-3.1-2.5-6.8-0.7-10.1c1.3-2.3,1.1-5,2.5-7.3c1.5-2.6,3.4-1.7,5.3-1.1c0.1-1.6,0.5-3.1,1.4-4.4c-3.2-2.7-5.9-6.3-7.4-10.1
	c-0.2-0.7-0.5-1.3-0.6-1.9l-0.1-0.7l-0.1-1.1v-0.7l0.1-0.9l0.2-0.7l0.2-0.7l0.3-0.6l0.5-0.6l0.5-0.5l0.6-0.5l0.5-0.4l0.9-0.4
	c0.7-0.3,1.4-0.6,2.2-0.7c0.4-3.8,1.7-8.1,5.4-9c2.2-0.5,4,0.4,5.9,1.7c0.9,0.7,2,1.7,2.6,2.7c0.6-0.4,1-1,1.4-1.7
	c1-0.3,1-0.6,0.2-1.1c-0.9-0.9-1.8-1.7-2.4-2.8c-1.3-2.4-1.7-5.3-1-8c0.6-2.2,2.4-3.9,4.6-4.2c2.1-0.3,3.3,0.2,4.7,1.1
	c0.6-0.4,1-1.3,1.7-1.6c1.5-0.7,2.9-0.5,4.3,0.3c1,0.6,1.8,1.5,2.4,2.5c2.8-0.4,6,0.5,8.5,2c0.4-0.5,0.8-1,1.3-1.5
	c-0.6-1.6-0.2-3.4,1.9-4.6c1-0.6,2.2-0.9,3.3-1.3c0.5-0.2,0.9-0.4,1.4-0.6l-0.4-0.5c-0.3-0.4-0.5-0.9-0.7-1.3
	c-2.4,0.3-5.1,0.4-6.9-0.9c-3.1-2.2-3.8-5.2-2.9-8.3c-0.6-0.8-0.9-1.8-0.5-3c0.6-2,2.7-3.9,4.5-5.1c0-1.5,0.4-2.9,1.3-4.4l0.6-1
	v-0.4c-0.4-1.2-0.5-2.4-0.5-3.7c0.2-4.3,4.9-6.6,8.4-7.1c0.8-0.6,1.6-1.2,2.5-1.7h0.1l0,0c2.4-1.4,5.1-2.3,8-2.5
	c1.5-0.1,2.8,0.4,3.8,1.4l0.6-0.2c0.5-0.3,1.1-0.4,1.7-0.5c0.9-0.2,1.9,0,2.7,0.3c1.6,0.6,3.3,3.3,4.4,3.5c3.1,0.4,4.7-0.2,7.1-2.2
	c1.4-1.2,2.8-1.6,4-1.3c0.7-1.9,2.4-3.1,4.7-4c1.2-0.4,2.5-0.7,3.8-0.6c-0.9-2.7-1.2-5.5,0.4-7.8c1.4-1.8,2.8-2.8,5-3
	c1-0.1,2.1,0,3.1,0.1c0.6,0,1.2,0.1,1.6,0c1.3-0.1,1.6-0.7,1-2.6c-1-3-0.7-7.7,2.9-8.5c0.5-0.1,0.9-0.1,1.4-0.1l0,0l0,0
	c1.8,0.2,3.6,1.2,5.3,2.4l0,0l1.1,0.7l0.7,0.5c0.5,0.4,1,0.7,1.5,0.9c0.2,0.1,0.7-0.7,1.2-1.4l0.2-0.3l0.7-0.4
	c1.8-0.2,3.2,0.3,4.6,1.4c2.1,1.6,4.4-1.7,5.9-2.9c1.6-1.3,3.6-1.5,5.5-1.5c1.6,0.1,2.9,1.6,2.9,3.3c0,1.8-0.4,3.6-0.6,5.4
	c-0.1,0.8,0.8,1.5,1.9,2.2c2.9-1,6.2-0.4,8.1,2c1.1-1.2,2.2-2.4,3.4-3.6c1.3-1.2,2.7-1.1,4.2-0.4c6.3,3.1,8.3,13.5,6.6,21.5
	c1.1,0.4,2.1,1.1,3.1,1.9c1.2,0.4,2.1,1.6,2.4,3.1l0.2,0.4c0.6-0.4,1.2-0.8,1.7-1.4c1-0.1,1.1-0.4,0.3-1.1c-0.7-1-1.5-1.9-2-3.1
	c-0.9-2.5-0.9-5.5,0.2-8c0.9-2.1,3-3.4,5.1-3.4s3.3,0.7,4.5,1.8c0.6-0.3,1.2-1.1,1.9-1.3c1.6-0.4,2.9-0.1,4.2,1
	c0.9,0.7,1.5,1.7,1.9,2.8c3.7,0.1,7.5,2.3,9.9,5.1c2.1,2.4,2.9,5.3,2.2,8.4l-0.4,0.9l-0.2,0.3l-0.4,0.5l-0.3,0.3l-0.4,0.4l-0.5,0.4
	l0,0l0,0l-0.4,0.3l-0.2,0.1l0,0l-0.2,0.1l0.7,0.7c0.5,0.6,1.1,1.5,1.3,2.4l0.3-0.2l0,0c1.1-0.8,2.2-1,3.6-0.7
	c0.8-3.4,3.7-5.6,7.6-5.1c4.5,0.6,6.1,4.5,6.7,8.5c4.1,1.9,7.1,6.4,5.6,11.3c-0.2,0.4-0.4,0.8-0.6,1.3l0.9,0.2l0,0l0.2,0.1
	c0.8,0.1,1.6,0.4,2.4,0.7c1.4,0.6,1.1-0.7,2.6-1.2c0.9-0.3,1.7-0.7,2.6-1c0.4-0.1,0.7-0.3,1.1-0.4v0.1l0.7-0.2
	c2.3-0.3,3.6-2.1,5.8-2.4c3.2-0.5,6.7,1.3,9.2,3.3c2.6,2,4.4,5,4.8,8.5c0.4,2.7-0.7,4.7-1.9,6.6c1.5,0.8,2.8,1.9,3.8,3.3
	c2.8-1.1,5.8-1.4,8.8-0.4c3.1,1.1,3.2,4.3,4.3,6.9c1.7,3.8,4.7,6.9,3.5,11.5l-0.4,0.7l0.2,0.6c0.6,1.8,0,3.1-0.9,4.6
	c-0.4,0.7-1.2,1.2-2,1.7h1.1c0.7,0,1.4,0,2.1,0h0.3c0.6,0,1.2,0.1,1.8,0.2h0.2l0,0c1.1,0.2,2.2,0.5,3.3,1.2c1.6,1.1,2.3,2.6,2.6,4.4
	l0.6,0.1l0,0l0.2,0.1l0.7,0.3l0.5,0.2l0.7,0.4l0.5,0.3l0.5,0.4l0.4,0.4l0.4,0.4l0.4,0.5l0.3,0.5l0.2,0.6l0.2,0.5l0.1,0.4l0,0v0.2
	v0.2l0.1,0.5c0,0.4,0,0.8-0.1,1.3c3,3.1,3.6,7.9,0,9.5l0.4,0.7c0.5,0.9,1,3-0.2,3.5c-1.4,0.7-2.6,0.8-3.9,0.8
	c2.7,4.3,7.7,10.2,3.3,13.7h-0.1c0.4,0.4,0.8,0.9,1,1.6c0.5,0,1.1,0,1.6,0h0.4c1.1,0,2.1,0.2,3.1,0.5l0.3,0.1
	c0.5,0.2,0.9,0.4,1.3,0.8l0,0l0,0l0.2,0.2l0,0l0,0c0.6,0.5,1.1,1.2,1.5,2.1c1.5,2.8,0.1,5.8-1.8,8.2c1.7,0.8,3.1,2.2,3.5,4.8
	c0.6,3.8-3.8,6.3-6.9,7.5c-0.7,1.5-1.8,2.5-3.3,2.9l0.1,0.1l0.6,0.4l0.2-0.1c0.4,0.4,0.7,0.7,1,1.2l0.1,0.1l0.2,0.3l0.4,0.8l0.1,0.4
	l0.2,1c1.2,0.7,0.8,0.8,2.3,0.2c2.1-0.9,5.3,0.3,6.8,1.9C1193.1,365.1,1193.4,365.6,1193.7,366.1z M1026.9,261L1026.9,261l-1,0.3
	l0.9,0.6L1026.9,261z M1070.6,541.3c0.9-1.1,1.8-2.1,2.6-3.3C1072.2,539,1071.2,540.1,1070.6,541.3z M1081.1,365.1l-0.2-0.1l0.1,0.2
	L1081.1,365.1z M1113.7,337.3c-0.4,0-0.7-0.1-1.1-0.2c0.2,0.5,0.3,1,0.5,1.5C1113.2,338.2,1113.4,337.7,1113.7,337.3z M1148.5,312.6
	c-0.2-1-0.4-2-0.6-3l-0.1-0.6c-0.2-0.8-0.3-1-0.2-0.4c-0.5-0.1-1.5,0-2.4,0.2c1,1.1,1.7,2.3,2.1,3.7
	C1147.8,312.5,1148.1,312.5,1148.5,312.6z"/>
<path class="st0" d="M1390.1,374c1.8,2.7-0.1,6.1-2,7.7c-2.3,1.9-5.6,1-7.9-0.2c-1.3-0.7-2.4-1.9-3.7-2.8c-0.6-0.4-1.7,0.8-2.1,1.2
	c-0.6,0.5-0.3,1.8-0.2,2.6c0,1.1-0.9,1.9-1.7,1.7c-2.6-0.4-5-0.9-6.7-3.4l-0.2-0.4c-0.8,1.3,1.4,2.7,2.1,3.6c0.6,1,0.6,2.3-0.2,3.1
	c-0.7,0.6-1.3,0.9-2.2,1c-1.5,0.2-1.1,0.3-0.5,1.8c0.8,2,0.6,4.2-0.7,5.9c-1.9,2.5-5.3,1.7-7.7,0c-2.2,1.3-4.4-0.8-6.1-3.1
	c-0.4-0.6-0.8-1.2-1.2-1.7l-0.1-0.1c-0.7,0.9,0.6,2.2,0.4,3.3l-0.2,1v0.1l-0.3,0.7l-0.2,0.3l-0.3,0.4l-0.7,0.5
	c-0.8,0.5-1.7,0.2-2.5,0c-0.6-0.2-1.1-0.7-1.7-0.8c-0.8-0.1-1.8,0.5-2.6,0.8c-2.1,0.7-4.5-1.5-5-3.9c-0.2-1.3-0.6,0.3-0.7,0.8
	c-0.1,0.8,0.1,1.7,0.3,2.4c0.3,0.9,0.6,2.1,0.3,3c-0.9,2.7-3.1,2.9-5.2,2.9c-1.9,0-3.8-1.3-4.7-3.4c-0.5-1.3-0.4-2.4-1.5-1.8
	c-0.8,0.4-1.8,0.3-2.5-0.1c-0.9-0.6-1.7-1.4-2.2-2.4l-0.2-0.6c-0.6-0.1-1.3,0-1.5,0.5c-0.7,1.5,0,1.5,0,3.1
	c-0.2,4.4-5.7,2.4-8.7,0.5c-0.6,0.1-1.2,0.1-1.8,0.1c0.4,1.6,0.6,3.3-0.7,4.4c-1.7,1.5-3.7,0.9-5.6,0c-1.7,2.1-4.3,0.8-6.1-1.4
	c-0.9,0.4-1.9,0.2-3-0.9l-0.6-0.9h-0.2c-0.8,0.8-2,1-3,0.8c-0.5-0.1-1.1-0.3-1.6-0.6c-1,0-1.9,0-2.9,0c-1.6,0-3.2,0-4.8,0.1
	c-0.6,0.2-1.4,0.2-2.3,0.1h-0.2l-0.8,0.1c-0.6,0.1-1.3,0.2-1.9,0.3l-0.9,0.1c-0.6,0.1-1.3,0.3-1.9,0.5l-0.8,0.2h-0.2
	c-0.2,0.4-0.4,0.9-0.8,1.2c-1.1,0.9-2.1,1-3.2,0.8c-1.5,1-2.9,2.2-3.9,3.8l-0.3,0.5c-4.1,6.5-5,16.4-5.6,24.1
	c-2,25.5-2.7,50.6,0.3,76.1c1.3,11.1,1.7,22.9,5.3,33.3c1.3,3.7,3,7.1,5.2,9.9h0.1l0.4,0.6c0.6,0.8,1.4,1.5,2.2,2.2
	c0.3-1,0.8-1.7,1.5-2.1c-0.5-1.2-1.1-2.4-1.7-3.5c-0.4-0.7,0.5-1.6,1-1l0.2,0.3c0.8-0.2,1.5,0.3,2.1,1.1c0.3-0.3,0.8-0.5,1.2,0
	c0.8,1.1,1.5,2.3,1.9,3.7l0.2-1.2c-0.6-1.8-2.8-4.8-0.6-5.9c0.4-0.2,1.1,0,1.5,0.4c0.4,0.5,0.8,1.1,1.1,1.7h0.1l1.1,0.4
	c1.3,1.7,1.8,3.7,1.7,5.8h0.1l0.4-0.7c-0.4-2.2-1.5-4.9-0.9-6.7c0.2-0.4,0.8-0.8,1.2-0.6c0.7,0.3,1.1,0.9,1.5,1.7
	c1.1,0,2.1,2.1,2.4,3.6h0.1l0.6,0.5c0.3-0.6,0.7-1.2,1.3-1.4c0.6-0.2,1.3,0.4,1.3,1.1c0.1,1.2-0.5,2.6-1.1,3.9v0.9
	c0.7-1.4,1.5-2.7,2.3-3.8c0.6-0.8,1.7,0.1,1.3,1.1c-1.1,2-2.4,3.8-3.5,5.8c0.5-0.3,0.9-0.7,1.4-1c0.8-1.1,1.7-1.9,2.9-2.2
	c0.4-0.1,0.8,0.3,1,0.8l0,0h0.6c0.6-0.5,1.1-1,1.7-1.2c1.1-0.3,2,0.9,1.5,2.1c-0.2,0.5-0.5,1-0.9,1.5l0.6-0.1h0.3
	c0.9-0.5,1.9-0.7,3-0.4c0.6,0.2,0.8,1,0.5,1.6c0.6-0.3,1.3,0,1.7,0.5l0.8,0.3l0.1,0.1h0.3c0.5,0.1,0.8,0.8,0.6,1.4
	c0.4-0.1,0.8-0.1,1.1-0.1l0.2-0.2c0.4-0.2,0.7,0.2,0.8,0.6l0.4,0.2c0.4,0.3,0.4,0.9,0.2,1.4v0.1c0.7-0.2,1.5-0.4,2.1-0.4
	c1,0,1.2,1.4,0.5,2l0,0c1.8-0.3,3.8-0.8,5.4-0.3c0.5,0.1,0.7,0.8,0.5,1.3c1.3,0.6,1.3,3.2-0.1,3.6c-3.6,1-7.1,0.6-10.7,0.1
	c-1.5,0.3-2.9,0.6-4.4,0.8c-2.3,0.6-4.7,0.7-7,0.8l-0.8-0.3c-0.5,0.2-0.9,0.5-1.4,0.8c-0.4,0.3-0.8-0.4-0.4-0.7
	c0.4-0.4,0.8-0.7,1.2-1v-0.9c-1.1,0.2-2.2,0.4-3.4,0.6c0.9,0,1.9-0.1,2.7-0.2c0.4,0,0.4,0.7,0,0.8c-4.8,1-9.8,0.8-14.7,1.5
	c-0.5,0-0.6-0.9-0.2-1.1c0.9-0.3,1.9-0.5,2.9-0.7c-0.4-0.5-0.6-1.3-0.3-1.9l-0.6,0.4l-0.7-0.2h-0.1c-0.3,1.4-2,1.2-2.1-0.3v-0.2
	l-0.4,0.2l-0.4,0.3l-0.6,0.8l-0.5,0.2l0,0l-1,0.4l-0.6,0.4c-0.9,0.5-1.9-0.5-2-1.6c-0.6,0.9-1.9,1.2-2.5,0l-0.1-0.2l-0.3,0.8
	c-0.6,0.8-1,0.8-1.9,1.1c-0.4,0.1-0.8-0.1-1.1-0.4l0,0c-0.9,1-2.1,1-3.3,0.5l-0.4,0.7l-0.4,1c-1.1,0.7-2.3,1.3-3.4,1.9
	c-1.2,0.6-2.5,1.4-3.8,1c-0.7-0.1-0.9-1.1-0.5-1.7l0.2-0.2c-0.3-0.2-0.5-0.7-0.4-1.1l0.1-0.2c-0.5,0.2-1.1,0.5-1.6,0.7
	c-1.6,0.7-3.1,1.3-4.8,1.1c-0.5,0-0.7-0.4-0.8-0.9c-1.1,0.1-2.1,0-2.8-0.2c-0.6-0.2-0.9-0.8-1-1.4h-0.6l0.6,0.6
	c0.4,0.4,0.3,1.1,0,1.5c-0.2,0.6-0.8,1-1.4,0.6l0,0l-0.2-0.2l-0.1-0.1l0.3,0.3l-0.3,0.6c-1-0.7-2-1.5-2.8-2.4
	c-0.5,0-1.1-0.4-1.1-1.1v-0.1c-0.4,0.5-0.8,1-1.3,1.5c0.4,0.5,0.8,1,1.1,1.5c0.3,0.5-0.4,1-0.7,0.5c-0.3-0.5-0.7-1-1.1-1.5l-0.4,0.3
	c-0.7,0.3-1.2-0.2-1.4-0.8h-0.4l-0.8-0.4l0.9,0.9l-0.4,0.7c-0.8-0.6-1.5-1.4-2.2-2.2l0,0c0.3,0.6,0.6,1.2,0.8,1.7
	c0.5,1.1-0.7,2-1.4,1.1c-0.4-0.6-0.8-1.4-1.1-2l-0.8-0.6l-0.7,0.1l0.3,0.3l0.5,0.3c0.4,0.3,0.2,1-0.3,1l-1-0.1
	c-1,0.3-2.2,0.1-3.1-0.5h-0.2c0.1,0.7-0.4,1.3-1,0.9l-0.6-0.2l-0.6,0.5c-1.4,0-3.6-0.2-4.8-1.4c-0.3,0.5-1,0.6-1.3,0l0,0
	c-0.7,0-1.4,0.1-2.1,0.1l-0.4,0.2l-0.2-0.2c-0.7,0-1.3,0-2,0l-0.1,0.4l0,0c-0.3,0.5-1,0.2-1.5-0.3h-1l0,0c0,1.2-1.2,2.1-2,1.2
	l-0.2-0.3l-0.2,0.4l-0.5-0.5l0.2-0.5l0,0c-0.6,0-1.1,0.2-1.7,0.2c-0.4,0.7-1.2,0.8-1.7,0.3l0,0c-0.4,0.1-0.8,0.1-1.3,0.2
	c-0.4,1.1-1.8,1.4-2.6,0.4c-0.7,0.1-1.4,0.2-2.1,0.3h-0.4h-0.2c-0.6,0-1.3,0-1.9,0h-0.6c-0.4,0.3-0.8,0.1-1.1-0.2
	c-0.5-0.1-1.1-0.2-1.6-0.4c0,0.7-0.2,1.3-0.8,1.8c-0.5,0.4-1.1-0.1-1.2-0.8c-0.1-0.7-0.3-1.4-0.6-1.9c-0.2-0.3-0.5-0.8-0.7-1.2
	l-0.4-0.4c0.4,1.2,0.4,2.3-1,2.6c-0.5,0.1-0.9-0.3-1.1-0.9l-0.2-0.3l-1-0.1l-0.4-0.5c-0.2,0.9-0.8,1.6-2,1.8c-1,0.1-1.3-1.3-0.8-2
	c0.4-0.6,0.4-1.3,0.2-2c0.1,0.5,0.1,1-0.1,1.5c-0.2,0.8-1.3,0.8-1.6,0.1l-0.2-0.4c-0.1,0.5-0.6,0.9-1.1,0.4l-0.4-0.5l-0.2,0.5
	c-0.3,0.4-0.9,0.2-1.1-0.3c-0.2-1-0.7-1.7-1.5-2.1c-0.4-0.2-0.2-1.1,0.2-0.9l0.6,0.2l-0.9-1.3c-0.4-0.4,0.2-1.1,0.6-0.7
	c1.1,1.2,2.5,2.2,3.4,3.6c-0.2-0.6-0.3-1.2-0.6-1.7l-0.4-0.6c-0.6,0-1.1-0.1-1.7-0.7v-1.1V566l-0.2-0.2c-0.3-0.3,0-1,0.4-0.7
	l0.2,0.1h0.1l0.2-0.6h0.1l-0.1-0.1c-0.4-0.5-0.4-1.4,0.1-1.8c1.5-1.2,3.6,0.3,4.7,1.5c0.4,0.4,0.6,0.9,0.8,1.4l0,0
	c0.3,0.3,1,0.8,1.9,1.5l-0.1-0.2c-0.4-0.5-0.8-1-1.2-1.5v-0.7c-0.6-0.8-1.2-1.4-2.1-2c-0.4-0.3-0.4-1,0.1-1.2l0.9-0.2v-0.1
	c-0.6-0.9,0.2-2,1.1-1.8c0.4,0,0.9,0.2,1.3,0.5c-0.4-0.4-0.4-1.4,0.1-1.7c0.8-0.6,1.6-0.5,2.2,0c-0.3-0.4-0.6-0.8-0.8-1.3l-0.1-0.5
	l-0.2-0.1c-0.4-0.2-0.4-1,0.1-1.2h0.4c0.3-0.5,0.8-0.8,1.4-0.7c1.7,0.3,3.2,2.1,4.5,3.7c1.6,0.8,2.8,2.3,3.7,4.1
	c0-0.6-0.1-1.3-0.1-1.8c-0.4-0.7-0.8-1.4-1.2-1.9c-0.8-1-1.9-1.3-2.7-2.2c-0.3-0.3-0.2-1.1,0.2-1.2c0.5-0.1,0.9,0,1.3,0.1
	c0.1-0.4,0.4-0.8,0.9-0.8c0.1-0.5,0.5-0.9,1-0.8c2.3,0.5,3.9,3.7,5.2,5.8c0.5,0.7,0.9,1.5,1.3,2.2l0.6,0.1c-0.1-0.4-0.2-0.9-0.4-1.3
	c-0.4-1.4-1.1-2.8-1.8-4c-0.8-1.4-2-1.8-3.1-2.8c-0.7-0.7-0.2-2.2,0.7-2.2c2.8,0,4.4,3,5.4,6.5c0.2-0.4,0.6-0.7,1-0.7
	c-1.3-3.1-3.1-5.2-5.1-7.8c-0.6-0.9,0-2.1,0.9-1.6c1.3,0.7,2.4,1.8,3.4,3.1l0,0c-0.4-0.5-0.6-1-0.8-1.8c-0.1-0.9,0.6-1.7,1.3-1.7
	c1.5,0,2.5,1.7,3.4,3l0.2-0.4c-0.6-0.9,0.2-2.2,1.1-1.6l0.8,0.7l0.7,0.6l0.4,0.3c0.8,0.2,1.5,0.8,2,1.4v-0.6c0-0.5,0.2-0.9,0.4-1.2
	v-1c0.5-1.6,2.3-1.4,3.2-0.5c0.8,0.8,1.3,2,1.6,3.2c0.1-0.5,0.1-1,0.2-1.5c0.2-1.1,1.2-1.3,1.8-0.8c0.2-0.4,0.7-0.7,1.2-0.4
	c1.1,0.8,1.7,1.8,2.1,2.9c6.4-5.8,12.2-13.2,15.5-21.8c4-10.5,2.7-22.2,1.6-33.4c-1.1-10.9-2.7-21.5-1.9-32.5
	c0.9-12.5,3.2-24.6,2.5-37.1c-0.4-6.7-1.1-13.3-2.4-19.8c-1.9,0.4-4.8-0.8-6.8-2c-0.6,0.1-1.2,0.1-1.8,0.1c0.4,1.6,0.6,3.3-0.7,4.4
	c-1.7,1.5-3.7,1-5.6,0c-1.7,2.1-4.3,0.8-6.1-1.4c-0.9,0.4-1.9,0.2-3-0.9c-0.9-0.9-1.3-2.1-1.7-3.3l-0.9-0.2
	c-0.4-0.1-0.8-0.3-1.3-0.6c-1-0.4-1.9-1.1-2.7-2.2c-1.3,0.4-2.5,0-3.7-0.8c-0.6-0.1-1.2-0.1-1.8-0.1c-1.6,0.2-3.1-0.7-4.5-2
	c-1.2,1.2-2.6,1.2-4.5,0.2c-1.1-0.5-1.9-1.4-2.9-2.2l-0.2-0.1l-0.5,0.1c-0.4,0.1-1.9,1.2-2.3,0.6c1.4,2.1,2.5,5.1,0.4,7.2
	c-1.3,1.4-3,1.2-4.7,1c-0.6,1.6-2,1.8-3.6,1.5l0,0h-0.1c-0.5-0.1-1.1-0.3-1.7-0.6c-2.2,3.6-6.8,5.5-10.3,4.4
	c-2.9-0.9-4.9-4.5-5.1-8.2l-0.4,0.3c-0.8,0.4-1.7,0.8-2.5,0.4l-0.7-0.4l-0.5-0.5h-0.1l-0.2-0.4l-0.2-0.3l-0.1-0.2l-0.2-0.6l0,0l0,0
	c-0.3-1.1,0.8-2.6,0-3.4l-0.1,0.1c-0.4,0.6-0.7,1.3-1.1,1.9c-1.4,2.5-3.4,4.9-5.7,3.9c-2.1,2-5.5,3.3-7.6,1.1
	c-1.4-1.5-1.9-3.5-1.3-5.7c0.4-1.5,0.8-1.7-0.7-1.7c-0.8,0-1.5-0.1-2.2-0.6c-0.9-0.6-1.1-2-0.5-3c0.6-1.1,2.6-2.8,1.7-3.9l-0.2,0.4
	c-1.5,2.8-3.8,3.6-6.3,4.4c-0.8,0.2-1.9-0.4-1.9-1.5c0-0.7,0.1-2-0.5-2.5c-0.4-0.3-1.7-1.4-2.2-0.9c-1.2,1.1-2.1,2.4-3.4,3.3
	c-2.2,1.5-5.4,2.9-7.9,1.4c-2.1-1.3-4.2-4.4-2.8-7.4c0.8-1.5,1.9-2.2,3.1-2.9c-0.9-1.4-1.6-2.8-0.9-5c0.6-2.1,2.3-2.9,4-3.4
	c-0.2-0.5-0.3-1-0.4-1.6c-0.1-1.1,0.3-2.3,0.8-3.2c0.6-1.2,1.4-1.6,2.2-1.9c-0.2-0.7-0.1-1.5,0.4-2.5c0.3-0.6,0.7-1.1,1.1-1.5
	l0.4-0.3c0.4-0.2,0.7-0.5,1.1-0.7l0.1-0.1l0,0c0.4-0.2,0.8-0.3,1.1-0.5l0,0c0.4-0.1,0.8-0.3,1.2-0.4c0.9-0.3,1.7-0.3,2.3-1.1
	l0.9-0.8c-3,0.2-5-2.1-4.8-5.7l0,0l0.1-1.3c-2-1.5-2.9-4.4-1.5-7l0.6-1.2c1-1.4,3.2-2.5,4.7-1.9c1.1,0.4,0.8,0.4,1.6-0.2
	c0-0.4,0.1-0.8,0.2-1.2l0.1-0.3l0.4-0.7l0.5-0.9h0.3l0.3-0.2l0.1-0.1c-1.1-0.2-1.9-1-2.4-2.1c-2.3-0.8-5.5-2.6-5.2-5.6
	c0.2-2.1,1.1-3.3,2.3-4c-1.5-1.9-2.5-4.1-1.6-6.4c0.3-0.7,0.6-1.3,1-1.7l0,0l0.1-0.1l1-0.8l0.2-0.1c0.7-0.3,1.4-0.5,2.2-0.6h0.2
	c0.4,0,0.8-0.1,1.2-0.1c0.5-1.9,2.1-2.8,4-3c-0.1-2.3,0.2-4.5,2.2-5.7c1.8-1.1,3.8-0.8,5.4,0.4c1.1-0.6,2.1-0.4,3.1,0.2l0.2-0.3
	c0.6-0.9,1.2-1.5,2.2-1.8l0.9-0.2l0.2-1.1l0.6-0.9c0-1.3,0.1-2.6,0.5-3.6c0.7-1.9,1.7-2.7,2.9-2.8c-1.3-2.4-1.7-5.2-0.5-7.7
	c0.8-1.7,0.7-3.8,1.7-5.5c1-1.9,2.3-1.3,3.6-0.9c0.1-1.3,0.4-2.4,0.9-3.4c-2.1-2-4-4.8-5-7.7c-0.3-0.9-0.4-1.7-0.5-2.5v-0.3
	c0-0.7,0.1-1.4,0.2-1.9l0.1-0.3c0.2-0.6,0.5-1.1,0.9-1.5l0.2-0.1c0.7-0.7,1.6-1.2,2.7-1.4c0.2-2.9,1.1-6.2,3.6-6.8
	c1.5-0.4,2.7,0.3,4,1.3c0.6,0.5,1.3,1.3,1.7,2.1c0.4-0.4,0.7-0.8,1-1.3c0.6-0.2,0.7-0.5,0.1-0.8c-0.6-0.7-1.3-1.3-1.7-2.1
	c-0.9-1.8-1.2-4-0.7-6c0.4-1.7,1.7-3,3.1-3.2c1.5-0.2,2.3,0.1,3.2,0.8c0.4-0.3,0.7-1,1.2-1.3c1-0.5,2-0.4,2.9,0.2
	c0.7,0.4,1.2,1.1,1.6,1.9c1.9-0.3,4.1,0.3,5.8,1.5l0.8-1.1c-0.4-1.3-0.1-2.7,1.3-3.5c0.7-0.4,1.5-0.7,2.2-1l0.9-0.4l-0.2-0.3l-0.5-1
	c-1.7,0.2-3.4,0.3-4.6-0.7c-2.1-1.7-2.6-3.9-2-6.3c-0.4-0.6-0.6-1.3-0.4-2.2c0.4-1.5,1.8-2.9,3.1-3.9c0-1.2,0.3-2.2,0.9-3.3l0.4-0.8
	v-0.2c-0.3-1-0.4-1.8-0.3-2.8c0.2-3.2,3.3-5,5.7-5.4c0.5-0.5,1.1-0.9,1.7-1.3l0,0l0,0c1.7-1.1,3.5-1.8,5.4-1.9c1,0,1.9,0.3,2.6,1.1
	l0.4-0.2c0.4-0.2,0.7-0.3,1.1-0.4c0.6-0.2,1.3,0,1.9,0.2c1.1,0.4,2.2,2.6,3,2.7c2.1,0.3,3.2-0.1,4.8-1.7c0.5-0.5,1-0.8,1.5-1
	c0.7-1.5,1.8-2.7,3.2-3.6c0.3-1.1,0.8-2,1.4-2.8c-0.1-0.7-0.1-1.3,0.2-1.8c0.2-0.5,0.5-0.9,0.8-1.2c-1.4-2.6-3.1-6.7-1.2-9.4
	c0.9-1.4,1.9-2.1,3.4-2.3c0.7-0.1,1.4,0,2.1,0.1c0.4,0,0.8,0.1,1.1,0l0,0c0.8-0.1,1.1-0.6,0.6-2c-0.7-2.3-0.5-5.9,2-6.5h1l0,0l0,0
	c1.7,0.1,3.4,1.6,4.8,2.8l0.9,0.7c0.1,0,0.4-0.4,0.7-0.9l0.3-0.4l0.4-0.3c1.2-0.1,2.1,0.2,3.1,1.1c1.4,1.2,3-1.3,4-2.2
	c1.1-1,2.5-1.2,3.8-1.1c1.1,0,2,1.3,2,2.5c0,1.4-0.3,2.8-0.4,4.1c0,0.6,0.6,1.2,1.3,1.6c2-0.7,4.2-0.3,5.5,1.5
	c0.7-1,1.5-1.8,2.3-2.8s1.8-0.8,2.8-0.3c4.7,2.6,5.9,12,4,18.3l1-0.4c1.5-0.7,3.2,0.8,3.2,2.7c0,0.5,0,0.8-0.1,1.2l0,0v0.3l1,0.3
	l0.5,0.2l0,0l1,0.6l0.5,0.2l0.5,0.1l-0.3-0.6c-0.5-0.8-1.1-1.5-1.4-2.4c-0.6-1.9-0.6-4.2,0.1-6.1c0.6-1.6,2-2.6,3.5-2.6
	c1.4,0,2.2,0.6,3.1,1.4c0.4-0.2,0.8-0.9,1.3-1c1.1-0.3,2,0,2.9,0.8c0.6,0.6,1.1,1.4,1.3,2.2c2.5,0.1,5.1,1.7,6.7,3.8
	c1.4,1.8,2,4,1.5,6.4l-0.5,1.1l-0.1,0.2l-1.1,1.1l-0.1,0.1l0,0l-0.1,0.1l0,0l0.4,0.5c0.4,0.5,0.7,1.2,0.9,1.8l0.2-0.1v0.1
	c0.8-0.6,1.5-0.8,2.5-0.6c0.6-2.6,2.5-4.3,5.2-3.9c3,0.4,4.1,3.4,4.5,6.5c2.8,1.5,4.8,4.9,3.8,8.6l-0.4,1l0.6,0.1l0,0h0.2
	c0.6,0.1,1.1,0.2,1.7,0.5c0.9,0.5,0.7-0.4,1.8-0.9c0.6-0.2,1.2-0.5,1.8-0.8l0.7-0.3l0,0l0.5-0.1c1.5-0.2,2.5-1.5,4-1.8
	c2.2-0.4,4.6,1,6.3,2.5c1.7,1.5,3,3.8,3.3,6.4c0.2,2.1-0.4,3.6-1.3,5c1,0.6,1.9,1.5,2.6,2.5c1.9-0.8,3.9-1,5.9-0.2
	c2.1,0.8,2.1,3.2,3,5.2c1.2,2.9,3.2,5.2,2.4,8.8l-0.2,0.5l0.1,0.4c0.4,1.4,0,2.4-0.6,3.5c-0.3,0.5-0.8,0.9-1.4,1.3h0.7
	c0.5,0,0.9,0,1.4,0h0.4l1,0.1h0.2h-0.1c0.8,0.1,1.5,0.4,2.2,0.9c1.1,0.8,1.6,2,1.8,3.3l0.4,0.1l0,0l0,0c0.5,0.1,1,0.4,1.5,0.7
	l0.1,0.1c0.4,0.3,0.8,0.7,1.1,1.1l0.1,0.1c0.3,0.4,0.5,0.9,0.6,1.5v0.1v0.2l0,0v0.1c0,0.4,0,0.9,0,1.5c2.1,2.4,2.4,6,0,7.2l0.3,0.5
	c0.3,0.6,0.7,2.2-0.2,2.7c-0.9,0.5-1.8,0.6-2.6,0.6c1.7,2.9,4.6,6.9,2.9,9.6l1,0.1c1.5-1.3,3.4-1.6,5.2-0.7c2,1,2.4,3.1,2.4,5.3
	c1.7,0.1,3.4,0.8,3.9,2.6c0.4,0,0.7,0,1.1,0h0.2c0.8,0,1.5,0.1,2.1,0.4l0.2,0.1l1,0.8l0.1,0.1l0,0c0.4,0.4,0.7,0.9,1,1.5
	c1,2.2,0,4.4-1.3,6.3c1.2,0.6,2.1,1.7,2.4,3.7c0.4,2.9-2.5,4.8-4.7,5.8c-0.4,1.1-1.2,1.9-2.2,2.2l0.1,0.1l0.4,0.3l0.2-0.1l0.6,0.8
	l0.4,0.6l0.1,0.3l0.2,1.2c0.8,0.6,0.6,0.6,1.6,0.1c1.4-0.6,3.6,0.2,4.6,1.5l0.6,1.1c1.4,2.4,0.7,5.2-1.2,6.8l0.2,1.2l0,0
	c0.3,3.5-1.5,5.9-4.5,5.8c0.5,0.4,0.9,0.9,1.2,1.5c0.6,1.4,0.8,2.5,0.4,4c-0.2,0.6-0.2,1-0.3,1.6l-0.2-0.2l0.2,0.3
	c0.4,0.6,0.8,1.2,1,1.8c0.4-0.3,0.9-0.4,1.5-0.3c0.1-1.7,0.7-3.4,2.3-3.8c0.9-0.2,1.9,0.2,2.6,0.9c0.7,0.7,1.5,0.6,2.4,0.8
	c0.4,0,0.8,0.1,1.2,0.2l0,0c0.4,0,0.8,0.1,1.2,0.3l0,0h0.2c0.4,0.1,0.7,0.3,1.1,0.5l0.4,0.2c0.5,0.3,0.9,0.7,1.3,1.3
	c0.5,0.9,0.7,1.6,0.6,2.4c0.9,0.2,1.7,0.5,2.4,1.6c0.6,0.9,1.1,1.9,1.1,3.1c0,0.6,0,1.1-0.2,1.6c1.7,0.2,3.5,0.8,4.3,2.8
	c0.9,2.1,0.4,3.5-0.4,5.1C1387.9,372.5,1389.1,373,1390.1,374z M1133.9,361.4l-0.1-0.8c-0.5,0.3-1.1,0.7-1.6,0.8
	c0.3,0.5,0.5,1.2,0.6,1.8h0.5l0.2-0.3l0.3-0.6L1133.9,361.4z M1182.6,566.2c-0.4-0.6-0.7-1.2-1.1-1.7l-0.4-0.4
	c0.3,0.6,0.5,1.3,0.7,1.9L1182.6,566.2z M1185.5,560.2c-0.5-0.4-1.1-0.9-1.6-1.4c0.4,0.5,0.7,1.2,1,1.7L1185.5,560.2L1185.5,560.2z
	 M1191.4,565.7l-0.6-0.6l0.4,0.7L1191.4,565.7z M1201.1,562.3c-0.4-0.6-0.7-1.2-1.1-1.7c0.1,0.6,0.2,1.3,0.4,1.9L1201.1,562.3z
	 M1208.4,553.9l-0.4-0.8c0.2,0.4,0.2,0.9,0.4,1.4V553.9z M1245.9,286.5L1245.9,286.5l0.4-0.1L1245.9,286.5z M1246.6,298.2l-0.6-0.6
	l-0.1,0.3l0.5,0.5L1246.6,298.2z M1301,563.9l0.2-0.1L1301,563.9L1301,563.9z M1299.8,565.2l0.5-0.2l0.3-0.6L1299.8,565.2z
	 M1304.1,306.9L1304.1,306.9l-0.1,0.2L1304.1,306.9z M1324.3,284.2v-0.1c-0.2-0.6-0.2-0.7-0.2-0.3h-0.9
	C1323.6,283.8,1323.9,284,1324.3,284.2z M1330.1,302.6l-0.1-0.5L1330.1,302.6z"/>
<path class="st0" d="M1601.1,361.7c2.2,3.5,1.2,7.6-1.8,9.9c0.2,0.6,0.3,1.2,0.3,1.8l0,0c0.5,5.4-2.9,9.2-8.1,8.5
	c-1.1,1.5-2.5,2.3-4.4,2.1c-0.9-0.1-1.7-0.6-2.5-1c0,0.2-0.1,0.6-0.2,1.2c0,0.4,0.2,0.8,0.4,1.2l0.5,0.8c0.3,0.4,0.5,0.8,0.7,1.2
	c0.4,1.2-1,3.1-1.8,3.6c-2.5,1.5-5.2,3-7.9,4l-0.6,0.3l0.3,0.7l0.2,0.5l0.5,0.9c1.1,1.5,2.4,2.8,3.1,4.6c1,2.9-1.3,5.1-3.5,6
	c-1.2,0.5-2.7,0.8-4.4,0.9c-0.7,0.4-1.4,0.7-2.2,1c1.2,1.8,1.7,4,0.7,6.8c-1.5,4-6.8,3.7-10.4,2.9c-1.4,1-3,1.3-4.6,0.8v0.1l0.4,0.8
	h0.3c0.2,0.6,0.3,1.2,0.3,1.8v0.1v0.4v1l-0.1,0.4l-0.4,1c0.7,1.4,0.4,1.2,2.1,1.6c2.4,0.4,4.8,3.5,5.3,6.1c0.1,0.7,0.1,1.3,0.1,1.9
	c0.3,4.2-2.6,7.1-6.3,7.4c-0.1,0.6-0.4,1.1-0.6,1.7l0,0c-2.1,5-6.8,6.2-11,2.7c-1.5,0.6-2.9,0.5-4.4-0.5l-0.4,0.3
	c-0.9,2.3,0.3,2.2,0.4,4.5c0.2,6.4-8.7,4.5-13.8,2.3c-0.5,0.1-0.9,0.1-1.4,0.2c0.2,1.2,0.3,2.5,0.1,3.7c-0.2,1.3-0.9,2.1-1.8,2.6
	l-0.3,0.9c-2.7,2.6-5.8,2-8.9,1c-2.4,3.3-6.7,1.9-10-0.9c-1.3,0.8-3.1,0.6-4.9-0.8c-1.7-1.3-2.6-3.2-3.4-5.1
	c-2.9,0.5-5.6-0.5-7.7-2.8c-1.2,0.4-2.3,0.5-3.5,0.3c-0.5,0.1-1.1,0.2-1.7,0.2c-1.5,0-4.5-1.3-5.3,0.2c-0.3,0.5-0.4,1-0.5,1.3
	c-0.2,1,0.5,1.5,0.4,3.2c-0.4,6.4-9.1,3.5-14,0.7h-0.8l-0.3,0.2c-0.5,0.2-1.1,0.4-1.7,0.7c0.5,2.1,0.5,4.3-1.3,5.7
	c-2.4,2-5.1,1.6-7.7,0.6c-1.9,3.3-4.1,6.5-5.1,10.4c-0.9,3.7-1.3,7.5-1.3,11.3c-0.3,17.7,4.1,35.1,5.5,52.7
	c0.4,5.1,0.7,11.9,2.4,17.4l0.1-0.4c0.7-5.6,0.9-11.2,3.7-16.1c0.4-0.8,1.5-0.1,1.1,0.7l-0.3,0.7v0.1c-0.9,4-1.2,7.9-1.2,11.8
	c1-4.5,2.6-8.9,4.8-12.8c0.3-0.5,0.9,0,0.7,0.5c-3,7.6-4.1,15.5-4.4,23.6l0.3,0.4c-0.2-2.3,1-5.4,1.3-7c1-4.6,2.8-8.6,5.6-12.3
	l0.2,0.2l-0.5,1.1c0.7-1.1,1.4-2.2,2-3.3c0.4-0.6,1.1-0.1,0.9,0.5c-1.5,3.9-3.8,7.5-4.6,11.7c-0.2,1.3-0.4,2.7-0.5,4.1
	c1.9-3.9,4.5-7.4,7.8-9.5c0.4-0.2,0.8,0.4,0.4,0.7l-1,1c0.4-0.2,0.8,0.1,0.6,0.6c-0.3,0.5-0.5,1-0.8,1.5c0.6-0.6,1.2-1.3,1.8-1.9
	l0.6,0.7c-1.8,2.7-3.7,5.3-5.2,8.3c-1,2.1-1.5,4.1-1.9,6.2l0.6-1.2c1.5-2.5,3.3-5,5.9-6.2l0.5,0.7l-0.1,0.1c0.8-0.4,1.6-0.8,2.4-1.1
	l0.3,0.6c-2.2,1.3-4,3.4-5.3,5.9c0.7-0.6,1.3-1.2,1.9-1.8l0.5,0.6c-1.7,2.2-3.6,4.2-4.5,6.8c-0.1,0.6-0.2,1.2-0.3,1.8l-0.4,0.8
	l-0.1,0.4c-0.1,1.2-1.8,1.6-2,0.3l0,0c-1.4,1.2-4.3,1.7-5.4,1.9c3,4-1.9,5.1-4.6,5.6c-3.5,0.6-6.9,1.7-10.4,1.7h-0.4l0.2,0.2v0.4
	c-0.7,0-1.4,0-2.1-0.1c-1.4-0.1-3.9,0.1-4.9-1.1c-0.3-0.6-0.6-1.2-0.8-1.8h-0.4c0.1,0.4,0.1,0.9,0.2,1.3h-0.2l-0.5-0.4
	c-0.7-0.5-1.3-0.7-1.8-0.5v-0.1l-1,0.2v0.6c-0.4,0-0.9,0-1.3,0.1l-0.5,0.1v-0.4h-0.1v0.4c-0.7,0.2-1.3,0.5-2,0.8
	c-1.3,1.4-1.9,3.5-4.3,3.8c-2.2,0.2-4.5,0-6.7-0.3c-3-0.4-6-1.3-8.6-3.1c-0.6-0.3-1.1-0.8-1.4-1.5c-0.5,0.1-1,0-1.4-0.4
	c-0.6-0.8-0.2-2.3,0.2-3.5c-1.2,0.6-2.5,1.1-3.8,1.4c-2-0.5-4.1-1.1-6.2-1.6c-1.2,0-2.5-0.1-3.7-0.2c-2.7-0.3-3.5-1-3.3-1.9h-0.2
	c-4.1-3.5-7.7-6.9-13.3-7c-0.4,0-0.5-0.7-0.1-0.8c4.5-0.8,8.2,0.4,11.8,2.7c-0.4-0.7-0.9-1.4-1.5-2l0,0c-1-1-2.2-1.8-3.5-2v-0.3
	l1,0.1c-0.8-0.5-1.5-1-2.4-1.4c-0.4-0.1-0.4-0.9,0.1-0.8c1.2,0.2,2.4,0.6,3.5,1.1c-1.9-1.9-4.1-3.2-6.8-3.3v-0.6
	c4-0.5,8.2,1.7,10.9,4.9c1.2,1.4,3,3.4,3.9,5.6l0,0c-0.1-0.5-0.1-1-0.3-1.7c-0.3-1.5-0.6-3-1.2-4.3c-1.2-2.8-3.1-5.8-5.6-7.4
	l0.2-0.6c2.9,1.3,4.9,3.6,6.7,6.3l0.6,1v-0.5c-0.6-3.4-1.8-7.5-4.6-9.3c-0.5-0.3-0.1-1.1,0.4-0.8c3.3,1.5,4.6,5.5,5.8,8.8
	c0.4,1.1,1.1,3,1.5,4.9c1.1-6,0.8-13.1-3.7-17.4l0.2-0.3c2.4,1.4,4,3.6,5,6.2c0.9,1.6,1.7,3.2,2.2,5c0.2-0.4,0.3-0.9,0.4-1.3
	c0-3.8-0.4-7.6-2.3-11l0.4-0.3c1.6,2.1,2.5,4.4,3,6.9c0.7-4.4,0.7-9.1,0.8-13.6c0.1-10.7-0.2-21.3,0-32c0.1-5.8,0.4-11.6,1-17.4
	c0.5-5.1,0.1-10.1-0.1-15.2c-0.3-5.1-0.7-9.3-2.9-13.6c-2.3,0.8-4.8,0.1-7.2-0.9c-2.7,3.1-6.9,1.2-9.8-2c-1.4,0.6-3.1,0.3-4.9-1.3
	c-0.5-0.5-0.9-1.1-1.3-1.7c-3.7,4.7-10.6,7.1-15.8,5.7c-2.6-0.7-4.7-2.8-6.2-5.3l-1.1,0.5c-1.7,0.4-3.3-0.1-4.9-0.5
	c-1.8-0.4-3.4,0-5.2-0.4c-3.2-0.9-4.7-4.3-5.6-7.4l-0.3-0.6c0.2,1.8-0.3,3.5-1.8,4.9c-2.1,2-4.9,1.7-7.5,1.5
	c-0.9,2.4-3.3,2.8-5.8,2.2l0,0l0,0c-0.9-0.2-1.8-0.5-2.7-0.9c-3.5,5.2-10.9,8.1-16.5,6.5c-5.6-1.5-9.3-9.2-8.1-15.4
	c-0.9-1.1-1.5-2.3-2.1-3.6c-5.1-2.1-6.7-8.2-4.4-13.3h-0.1c-3.4,3.8-10.7,4.3-14.6,3c-2.3-0.8-4.9-3-4-6c0.6-2,1.9-3.3,3-5
	c0.3-0.4,0.6-1.1,0.8-1.8l0.2-0.5l-0.7-0.2c-2.8-0.9-5.7-2.2-8.4-3.6c-0.9-0.5-2.4-2.4-2.1-3.7c0.1-0.4,0.4-0.9,0.6-1.3l0.5-0.9
	c0.2-0.4,0.4-0.8,0.3-1.3c-0.1-0.6-0.2-1-0.2-1.2c-0.8,0.5-1.7,1.1-2.6,1.2c-2,0.4-3.6-0.3-4.7-1.8c-5.4,1-9.2-2.7-8.9-8.3l0,0
	c0-0.6,0.1-1.2,0.2-1.9c-3.3-2.3-4.6-6.4-2.5-10.2c0.3-0.5,0.6-1.1,1-1.7c1.6-2.1,5.2-3.6,7.8-2.5c1.8,0.6,1.3,0.5,2.6-0.4l0.1-1.2
	l0.1-0.4l0.4-1l0.2-0.4l0.1-0.1c0.3-0.5,0.6-1,1.1-1.5l0.3,0.1l0.7-0.5l0.1-0.1c-1.7-0.4-3.1-1.5-3.9-3.1c-3.7-1.1-8.8-3.7-8.3-8.3
	c0.3-3.1,1.7-4.8,3.6-5.9c-2.3-2.8-4-6.1-2.6-9.4c0.4-1.1,1-1.9,1.6-2.5l0,0l0.2-0.2l0,0c0.5-0.5,1-0.8,1.5-1.1l0.4-0.2
	c1-0.5,2.2-0.7,3.5-0.8h0.4c0.6,0,1.2,0,1.8-0.1c0.7-2.4,2.6-3.5,4.9-4.1c-0.3-1.9-0.6-3.8-1.5-4.8c-2.6-2.9,0.6-6.1,3.2-3.4
	c0.1-1.6,0.3-3.1,1.4-4.1c-0.4-1.5-0.3-2.9,0.5-4.3c-1.3-1.3-1.9-3-1.1-5c0.2-0.5,0.5-0.9,0.9-1.3c0-2,0.2-3.8,0.8-5.4
	c1.1-2.9,2.7-3.9,4.7-4.1c-2-3.5-2.7-7.6-0.8-11.3c1.4-2.6,1.2-5.6,2.7-8.1c1.7-2.9,3.7-1.9,5.8-1.3c0.1-1.8,0.6-3.4,1.5-5
	c-3.5-3-6.4-7-8-11.3c-0.3-0.7-0.5-1.5-0.6-2.2l-0.1-0.7l-0.1-1.2v-0.8l0.1-1l0.2-0.8l0.3-0.8l0.4-0.7l0.5-0.7l0.5-0.6l0.7-0.6
	l0.5-0.4l1-0.5c0.7-0.3,1.5-0.6,2.4-0.8c0.4-4.2,1.8-9.1,5.8-10c2.4-0.5,4.4,0.5,6.4,1.9c1,0.7,2.2,1.9,2.8,3.1
	c0.6-0.5,1.1-1.1,1.6-1.9c1.1-0.3,1.1-0.7,0.2-1.2c-0.9-1-2-1.9-2.7-3.1c-1.4-2.7-1.8-6-1.1-8.9c0.6-2.5,2.7-4.4,5-4.7
	s3.6,0.2,5.2,1.2c0.6-0.4,1.1-1.5,1.9-1.8c1.6-0.7,3.1-0.6,4.7,0.3c1.1,0.7,1.9,1.7,2.6,2.8c3.1-0.4,6.5,0.6,9.3,2.3
	c0.4-0.6,0.9-1.1,1.4-1.6c-0.6-1.8-0.2-3.8,2.1-5.2c1.1-0.6,2.4-1,3.6-1.5c0.5-0.2,1-0.4,1.5-0.6l-0.4-0.5c-0.3-0.5-0.6-1-0.8-1.5
	c-2.7,0.3-5.5,0.4-7.5-1c-3.3-2.5-4.2-5.8-3.1-9.3c-0.7-0.9-1-2-0.6-3.3c0.7-2.3,2.9-4.3,4.9-5.7c0-1.7,0.4-3.2,1.4-4.9l0.7-1.1V208
	c-0.4-1.4-0.6-2.7-0.5-4.1c0.2-4.8,5.3-7.4,9.1-8c0.9-0.7,1.8-1.3,2.7-1.9h0.1l0,0c2.7-1.6,5.5-2.6,8.7-2.8c1.6-0.1,3.1,0.4,4.1,1.6
	l0.7-0.2c0.6-0.3,1.2-0.5,1.8-0.6c1-0.2,2,0,3,0.3c1.7,0.6,3.6,3.7,4.8,3.9c3.4,0.4,5.2-0.2,7.8-2.5c1.6-1.4,3.1-1.8,4.4-1.4
	c0.7-2.2,2.6-3.4,5.1-4.5c1.3-0.5,2.7-0.7,4.1-0.6c-1-3-1.3-6.2,0.4-8.7c1.5-2,3.1-3.1,5.5-3.3c1.1-0.1,2.2,0,3.4,0.1
	c0.7,0,1.3,0.1,1.7,0c1.4-0.1,1.8-0.8,1.1-2.9c-1.1-3.4-0.8-8.6,3.2-9.5c0.5-0.1,1-0.1,1.6-0.1l0,0l0,0c1.9,0.2,3.9,1.4,5.8,2.7l0,0
	l1.2,0.8l0.8,0.5c0.6,0.4,1.1,0.7,1.6,1c0.2,0.1,0.7-0.8,1.3-1.5l0.2-0.3l0.7-0.5c1.9-0.2,3.5,0.3,5,1.6c2.3,1.8,4.8-1.9,6.4-3.2
	c1.8-1.5,3.9-1.7,6-1.6c1.7,0.1,3.2,1.8,3.2,3.7c0,2-0.4,4-0.6,6.1c-0.1,0.9,0.9,1.7,2,2.4c3.1-1.1,6.8-0.4,8.9,2.2
	c1.2-1.4,2.4-2.7,3.7-4c1.4-1.4,2.9-1.3,4.5-0.4c6.9,3.4,9,15.1,7.2,24.1c1.2,0.4,2.3,1.2,3.4,2.2c1.3,0.5,2.3,1.8,2.6,3.4l0.3,0.5
	c0.7-0.4,1.3-0.9,1.8-1.6c1.1-0.1,1.2-0.5,0.4-1.2c-0.8-1.1-1.7-2.2-2.2-3.5c-1-2.8-1-6.2,0.2-9c1-2.4,3.2-3.8,5.6-3.8
	c2.3,0,3.6,0.8,4.9,2c0.7-0.3,1.3-1.3,2.1-1.5c1.7-0.4,3.2-0.1,4.6,1.1c1,0.8,1.6,1.9,2.1,3.1c4,0.1,8.2,2.6,10.7,5.7
	c2.2,2.7,3.1,5.9,2.4,9.4l-0.4,1l-0.2,0.3l-0.4,0.6l-0.3,0.3l-0.4,0.4l-0.5,0.4l0,0l0,0l-0.4,0.3l-0.2,0.1l0,0l-0.2,0.1l0.7,0.8
	c0.6,0.7,1.2,1.7,1.4,2.7l0.3-0.2l0,0c1.2-0.9,2.4-1.1,4-0.8c0.9-3.8,4-6.3,8.3-5.7c4.9,0.6,6.7,5,7.3,9.5c4.4,2.1,7.7,7.1,6.1,12.6
	c-0.2,0.5-0.4,0.9-0.6,1.4l1,0.2l0,0l0.3,0.1c0.9,0.1,1.7,0.4,2.6,0.8c1.5,0.7,1.2-0.7,2.8-1.3c0.9-0.3,1.8-0.7,2.8-1.1
	c0.4-0.1,0.8-0.3,1.2-0.4v0.1l0.8-0.2c2.5-0.3,3.9-2.3,6.3-2.7c3.5-0.6,7.3,1.4,10,3.6c2.8,2.3,4.8,5.6,5.3,9.4
	c0.4,3.1-0.7,5.2-2.1,7.4c1.6,0.9,3.1,2.2,4.2,3.7c3.1-1.2,6.3-1.5,9.6-0.4c3.4,1.2,3.5,4.8,4.7,7.7c1.8,4.3,5.1,7.7,3.8,12.8
	l-0.4,0.8l0.2,0.6c0.6,2,0,3.5-0.9,5.2c-0.4,0.8-1.3,1.4-2.2,1.9h1.2c0.8,0,1.5,0,2.3,0h0.4c0.7,0,1.3,0.1,1.9,0.2h0.2l0,0
	c1.2,0.2,2.4,0.5,3.6,1.3c1.7,1.2,2.5,3,2.8,4.9l0.6,0.1l0,0l0.3,0.1l0.8,0.3l0.5,0.2l0.7,0.4l0.5,0.3l0.6,0.4l0.4,0.4l0.4,0.5
	l0.4,0.6l0.3,0.5l0.3,0.7l0.2,0.6l0.1,0.4l0,0v0.2v0.2l0.1,0.5c0,0.4,0,0.9-0.1,1.4c3.3,3.4,3.9,8.8,0,10.6l0.4,0.7
	c0.6,1,1.1,3.3-0.2,3.9c-1.5,0.7-2.8,0.9-4.2,0.9c3,4.8,8.4,11.4,3.6,15.4h-0.1c0.4,0.5,0.9,1,1.1,1.8c0.6,0,1.2,0,1.7,0h0.4
	c1.2,0,2.3,0.2,3.3,0.6l0.4,0.1c0.5,0.2,1,0.5,1.4,0.9l0,0l0,0l0.2,0.2l0,0l0,0c0.6,0.6,1.2,1.3,1.7,2.3c1.6,3.1,0.1,6.4-2,9.2
	c1.9,0.9,3.4,2.5,3.8,5.4c0.6,4.3-4.1,7.1-7.6,8.4c-0.7,1.6-1.9,2.8-3.6,3.2l0.1,0.1l0.7,0.4l0.3-0.1c0.4,0.4,0.8,0.8,1.1,1.3
	l0.1,0.1l0.2,0.3l0.4,0.9l0.1,0.4l0.2,1.1c1.3,0.8,0.9,0.9,2.5,0.2c2.2-1,5.8,0.3,7.4,2.2C1600.5,360.5,1600.8,361.1,1601.1,361.7z
	 M1419.5,244.2L1419.5,244.2l-1.1,0.3l0.9,0.7L1419.5,244.2z M1467.1,557.4c1-1.2,2-2.4,2.8-3.7
	C1468.8,554.8,1467.8,556,1467.1,557.4z M1478.5,360.6l-0.3-0.1l0.1,0.2L1478.5,360.6z M1514,329.4c-0.4,0-0.8-0.1-1.2-0.2
	c0.2,0.5,0.4,1.1,0.5,1.7C1513.5,330.4,1513.7,329.9,1514,329.4z M1551.9,301.9c-0.2-1.1-0.4-2.2-0.7-3.3l-0.1-0.7
	c-0.3-0.9-0.3-1.1-0.2-0.5c-0.6-0.1-1.6,0-2.6,0.2c1.1,1.2,1.8,2.6,2.3,4.1C1551.1,301.7,1551.5,301.8,1551.9,301.9z"/>
<polygon class="st0" points="33.8,604.2 175.1,569.6 236,567.8 361.9,563.5 579.6,549.9 794.6,562.2 1009,539.6 1194.1,569.6 
	1390.4,559.6 1383.5,765.7 33.8,765.7 "/>
<polyline class="st0" points="1406.8,555 1647.4,574.1 1699.2,570.3 1699.2,824.7 332.4,824.7 332.4,714.1 290.4,709.7 "/>
<rect x="94.5" y="603" class="st0" width="1526" height="315"/>
<polyline class="st0" points="175.1,569.6 -0.9,562 -0.9,774 145.5,774 146.5,760.5 "/>
</svg>
