<?xml version="1.0" encoding="utf-8"?>
<!-- Generator: Adobe Illustrator 27.7.0, SVG Export Plug-In . SVG Version: 6.00 Build 0)  -->
<svg version="1.1" id="Layer_1" xmlns="http://www.w3.org/2000/svg" xmlns:xlink="http://www.w3.org/1999/xlink" x="0px" y="0px"
	 viewBox="0 0 1610 966" style="enable-background:new 0 0 1610 966;" xml:space="preserve">
<style type="text/css">
	.st0{clip-path:url(#SVGID_00000057141482723611384000000010332598432830099088_);}
</style>
<g>
	<defs>
		<rect id="SVGID_1_" width="1610" height="966"/>
	</defs>
	<clipPath id="SVGID_00000113332548443100306290000004706505018395711129_">
		<use xlink:href="#SVGID_1_"  style="overflow:visible;"/>
	</clipPath>
	<path style="clip-path:url(#SVGID_00000113332548443100306290000004706505018395711129_);" d="M-75.4,300.8v-0.1V300.8z"/>
	<polygon style="clip-path:url(#SVGID_00000113332548443100306290000004706505018395711129_);" points="-49.9,87.1 -49.9,87.1 
		-50,87 	"/>
	<path style="clip-path:url(#SVGID_00000113332548443100306290000004706505018395711129_);" d="M-36.4,192.3v-0.1V192.3z"/>
	<polygon style="clip-path:url(#SVGID_00000113332548443100306290000004706505018395711129_);" points="28.8,746.9 170.1,712.2 
		231,710.5 356.9,706.2 574.6,692.6 789.6,704.9 1004,682.2 1189.1,712.2 1385.4,702.2 1378.5,908.4 28.8,908.4 	"/>
	<polyline style="clip-path:url(#SVGID_00000113332548443100306290000004706505018395711129_);" points="1401.8,697.7 1642.4,716.8 
		1694.2,713 1694.2,967.4 327.4,967.4 327.4,856.8 285.4,852.4 	"/>
	
		<rect x="291" y="901.7" style="clip-path:url(#SVGID_00000113332548443100306290000004706505018395711129_);" width="70" height="41"/>
	<polyline style="clip-path:url(#SVGID_00000113332548443100306290000004706505018395711129_);" points="91.8,731.5 -17.8,745.8 
		-17.8,908.4 -17.8,967.4 327.4,967.4 	"/>
	
		<rect x="236.7" y="891.2" style="clip-path:url(#SVGID_00000113332548443100306290000004706505018395711129_);" width="124.1" height="76.1"/>
	<path style="clip-path:url(#SVGID_00000113332548443100306290000004706505018395711129_);" d="M769.5,508.3
		c2.1,3.1,1.1,6.8-1.7,8.9c0.2,0.5,0.2,1.1,0.3,1.6l0,0c0.5,4.8-2.6,8.2-7.5,7.6c-1,1.4-2.3,2.1-4.1,1.8c-0.8-0.1-1.6-0.5-2.3-0.9
		c0,0.2-0.1,0.5-0.2,1.1c0,0.4,0.2,0.7,0.4,1.1l0.5,0.7c0.2,0.4,0.5,0.7,0.6,1.1c0.3,1.1-0.9,2.8-1.7,3.3c-2.3,1.4-4.8,2.6-7.2,3.6
		l-0.6,0.3l0.3,0.7l0.2,0.4l0.5,0.8c1,1.4,2.2,2.5,2.8,4.1c0.9,2.6-1.2,4.5-3.2,5.4c-1.1,0.4-2.5,0.7-4,0.8c-0.6,0.4-1.3,0.7-2,0.9
		c1.1,1.6,1.5,3.6,0.6,6.1c-1.4,3.6-6.3,3.3-9.6,2.6c-1.3,0.9-2.7,1.2-4.2,0.7v0.1l0.4,0.7h0.3c0.2,0.5,0.3,1.1,0.3,1.6v0.1v0.4v0.9
		l-0.1,0.4L728,566c0.7,1.2,0.3,1.1,1.9,1.4c2.2,0.4,4.4,3.2,4.8,5.4c0.1,0.6,0.1,1.2,0.1,1.7c0.2,3.8-2.4,6.4-5.8,6.6
		c-0.1,0.5-0.3,1-0.5,1.5l0,0c-1.9,4.4-6.2,5.5-10.1,2.4c-1.4,0.6-2.7,0.4-4-0.5l-0.4,0.3c-0.9,2.1,0.2,2,0.3,4.1
		c0.2,5.8-8,4.1-12.7,2c-0.5,0.1-0.9,0.1-1.3,0.2c0.2,1.1,0.3,2.2,0.1,3.3s-0.8,1.8-1.6,2.3l-0.3,0.8c-2.4,2.3-5.4,1.8-8.2,0.9
		c-2.2,3-6.2,1.7-9.2-0.8c-1.2,0.7-2.8,0.6-4.5-0.7c-1.6-1.1-2.4-2.9-3.1-4.6c-2.7,0.5-5.2-0.4-7.1-2.5c-1.1,0.4-2.1,0.4-3.2,0.3
		c-0.5,0.1-1,0.2-1.6,0.2c-1.4,0-4.1-1.2-4.9,0.2c-0.3,0.5-0.4,0.9-0.5,1.2c-0.2,0.9,0.5,1.4,0.4,2.9c-0.3,5.8-8.3,3.2-12.8,0.7
		h-0.7l-0.3,0.2c-0.5,0.2-1,0.4-1.5,0.6c0.5,1.9,0.5,3.8-1.2,5.1c-2.2,1.8-4.7,1.4-7.1,0.5c-1.8,3-3.8,5.8-4.7,9.3
		c-0.9,3.3-1.2,6.7-1.2,10.1c-0.2,15.9,3.8,31.4,5.1,47.1c0.4,4.5,0.6,10.6,2.2,15.6l0.1-0.4c0.6-5,0.8-10,3.4-14.4
		c0.4-0.7,1.4-0.1,1,0.6l-0.2,0.6v0.1c-0.9,3.6-1.1,7-1.1,10.6c0.9-4,2.4-7.9,4.4-11.5c0.2-0.4,0.8,0,0.7,0.4
		c-2.8,6.8-3.8,13.9-4,21.1l0.3,0.4c-0.2-2.1,0.9-4.8,1.2-6.3c0.9-4.1,2.6-7.7,5.1-11l0.2,0.2l-0.5,1c0.7-1,1.3-2,1.9-3
		c0.3-0.6,1-0.1,0.8,0.5c-1.4,3.5-3.5,6.7-4.2,10.4c-0.2,1.2-0.4,2.4-0.5,3.7c1.7-3.5,4.1-6.6,7.2-8.5c0.4-0.2,0.7,0.4,0.4,0.7
		l-0.9,0.9c0.3-0.2,0.7,0.1,0.5,0.6s-0.5,0.9-0.7,1.4c0.6-0.6,1.1-1.2,1.7-1.7l0.6,0.6c-1.7,2.4-3.4,4.7-4.7,7.4
		c-0.9,1.9-1.4,3.7-1.8,5.5l0.6-1.1c1.4-2.2,3.1-4.5,5.4-5.5l0.5,0.6l-0.1,0.1c0.7-0.4,1.4-0.7,2.2-1l0.2,0.6c-2,1.1-3.7,3-4.9,5.2
		c0.6-0.6,1.2-1.1,1.8-1.6l0.5,0.5c-1.6,1.9-3.3,3.8-4.2,6.1c-0.1,0.6-0.2,1.1-0.2,1.6l-0.3,0.7l-0.1,0.4c-0.1,1.1-1.7,1.4-1.8,0.3
		l0,0c-1.3,1.1-4,1.5-5,1.7c2.7,3.6-1.8,4.6-4.3,5c-3.2,0.6-6.3,1.5-9.5,1.5h-0.3l0.2,0.2v0.4c-0.6,0-1.3,0-1.9-0.1
		c-1.3-0.1-3.6,0.1-4.5-1c-0.3-0.5-0.5-1.1-0.7-1.6h-0.4c0.1,0.4,0.1,0.8,0.2,1.2h-0.2l-0.5-0.4c-0.7-0.5-1.2-0.6-1.6-0.5v-0.1
		l-0.9,0.2v0.5c-0.4,0-0.8,0-1.2,0.1l-0.5,0.1v-0.4h-0.1v0.4c-0.6,0.2-1.2,0.4-1.8,0.7c-1.2,1.3-1.7,3.2-4,3.4c-2,0.2-4.2,0-6.1-0.3
		c-2.8-0.4-5.5-1.2-7.9-2.7c-0.5-0.3-1-0.7-1.3-1.3c-0.5,0.1-0.9,0-1.3-0.4c-0.5-0.7-0.2-2.1,0.2-3.1c-1.1,0.5-2.3,1-3.5,1.3
		c-1.9-0.4-3.8-1-5.7-1.4c-1.1,0-2.3-0.1-3.4-0.2c-2.4-0.3-3.2-0.9-3.1-1.7h-0.2c-3.8-3.1-7.1-6.2-12.2-6.3c-0.4,0-0.5-0.6-0.1-0.7
		c4.1-0.7,7.6,0.4,10.8,2.4c-0.4-0.6-0.9-1.2-1.4-1.8l0,0c-0.9-0.9-2-1.6-3.2-1.8v-0.3l0.9,0.1c-0.7-0.5-1.4-0.9-2.2-1.2
		c-0.4-0.1-0.3-0.8,0.1-0.7c1.1,0.2,2.2,0.5,3.2,1c-1.7-1.7-3.8-2.9-6.2-3v-0.6c3.7-0.4,7.5,1.5,10,4.4c1.1,1.2,2.7,3.1,3.6,5l0,0
		c-0.1-0.4-0.1-0.9-0.2-1.5c-0.2-1.3-0.6-2.7-1.1-3.9c-1.1-2.5-2.8-5.2-5.2-6.6l0.2-0.5c2.6,1.2,4.5,3.2,6.1,5.7l0.6,0.9v-0.5
		c-0.5-3-1.6-6.7-4.2-8.4c-0.5-0.3-0.1-1,0.4-0.7c3,1.4,4.3,4.9,5.4,7.9c0.4,1,1,2.6,1.4,4.4c1-5.4,0.7-11.8-3.4-15.6l0.2-0.3
		c2.2,1.2,3.7,3.3,4.6,5.6c0.9,1.4,1.6,2.9,2,4.4c0.2-0.4,0.3-0.8,0.4-1.2c0-3.4-0.4-6.8-2.1-9.9l0.3-0.3c1.5,1.9,2.3,4,2.8,6.2
		c0.7-4,0.7-8.1,0.7-12.2c0.1-9.6-0.2-19.1,0-28.6c0.1-5.2,0.4-10.4,0.9-15.5c0.5-4.5,0.1-9-0.1-13.6c-0.2-4.5-0.6-8.3-2.6-12.2
		c-2.1,0.7-4.4,0.1-6.6-0.8c-2.5,2.7-6.3,1.1-9-1.8c-1.3,0.6-2.8,0.3-4.5-1.2c-0.5-0.5-0.9-1-1.2-1.5c-3.4,4.2-9.7,6.4-14.5,5.1
		c-2.4-0.7-4.3-2.5-5.7-4.8l-1,0.4c-1.5,0.4-3-0.1-4.5-0.4c-1.6-0.4-3.1,0-4.7-0.4c-3-0.8-4.3-3.8-5.2-6.6l-0.3-0.5
		c0.2,1.6-0.2,3.1-1.6,4.4c-1.9,1.8-4.5,1.5-6.9,1.3c-0.9,2.1-3,2.5-5.3,1.9l0,0l0,0c-0.8-0.2-1.7-0.5-2.5-0.8
		c-3.2,4.7-10,7.2-15.1,5.9c-5.2-1.4-8.5-8.2-7.4-13.7c-0.8-1-1.4-2.1-1.9-3.3c-4.7-1.9-6.1-7.4-4-11.9H484
		c-3.1,3.4-9.8,3.9-13.4,2.7c-2.1-0.7-4.5-2.7-3.6-5.4c0.6-1.8,1.8-3,2.7-4.5c0.2-0.4,0.5-1,0.7-1.6l0.2-0.4l-0.6-0.2
		c-2.6-0.8-5.2-1.9-7.7-3.2c-0.9-0.4-2.2-2.2-1.9-3.3c0.1-0.4,0.3-0.8,0.6-1.1l0.5-0.8c0.2-0.4,0.3-0.7,0.3-1.1
		c-0.1-0.6-0.2-0.9-0.2-1.1c-0.7,0.4-1.5,1-2.4,1.1c-1.9,0.4-3.3-0.3-4.3-1.6c-5,0.9-8.5-2.4-8.2-7.4l0,0c0-0.6,0.1-1.1,0.2-1.7
		c-3-2-4.2-5.8-2.3-9.2c0.2-0.5,0.5-1,0.9-1.5c1.4-1.8,4.7-3.2,7.2-2.2c1.6,0.5,1.2,0.5,2.4-0.4l0.1-1.1l0.1-0.4l0.4-0.9l0.2-0.4
		l0.1-0.1c0.3-0.5,0.6-0.9,1-1.3l0.2,0.1l0.6-0.4l0.1-0.1c-1.6-0.4-2.8-1.4-3.6-2.8c-3.4-1-8.1-3.3-7.6-7.4c0.2-2.7,1.6-4.3,3.3-5.2
		c-2.1-2.5-3.7-5.4-2.4-8.5c0.4-1,0.9-1.7,1.4-2.2l0,0l0.2-0.2l0,0c0.5-0.4,0.9-0.7,1.4-1l0.3-0.2c0.9-0.4,2-0.7,3.2-0.7h0.4
		c0.5,0,1.1,0,1.7-0.1c0.6-2.1,2.4-3.2,4.5-3.7c-0.2-1.7-0.5-3.4-1.4-4.3c-2.4-2.6,0.6-5.4,2.9-3.1c0.1-1.4,0.3-2.7,1.3-3.7
		c-0.4-1.3-0.2-2.6,0.5-3.8c-1.2-1.1-1.8-2.6-1-4.5c0.2-0.4,0.5-0.8,0.8-1.1c0-1.8,0.2-3.4,0.7-4.8c1-2.6,2.5-3.5,4.3-3.7
		c-1.8-3.1-2.5-6.8-0.7-10.1c1.3-2.3,1.1-5,2.5-7.3c1.5-2.6,3.4-1.7,5.3-1.1c0.1-1.6,0.5-3.1,1.4-4.4c-3.2-2.7-5.9-6.3-7.4-10.1
		c-0.2-0.7-0.5-1.3-0.6-1.9l-0.1-0.7l-0.1-1.1v-0.7l0.1-0.9l0.2-0.7l0.2-0.7l0.3-0.6l0.5-0.6l0.5-0.5l0.6-0.5l0.5-0.4l0.9-0.4
		c0.7-0.3,1.4-0.6,2.2-0.7c0.4-3.8,1.7-8.1,5.4-9c2.2-0.5,4,0.4,5.9,1.7c0.9,0.7,2,1.7,2.6,2.7c0.6-0.4,1-1,1.4-1.7
		c1-0.3,1-0.6,0.2-1.1c-0.9-0.9-1.8-1.7-2.4-2.8c-1.3-2.4-1.7-5.3-1-8c0.6-2.2,2.4-3.9,4.6-4.2c2.1-0.3,3.3,0.2,4.7,1.1
		c0.6-0.4,1-1.3,1.7-1.6c1.5-0.7,2.9-0.5,4.3,0.3c1,0.6,1.8,1.5,2.4,2.5c2.8-0.4,6,0.5,8.5,2c0.4-0.5,0.8-1,1.3-1.5
		c-0.6-1.6-0.2-3.4,1.9-4.6c1-0.6,2.2-0.9,3.3-1.3c0.5-0.2,0.9-0.4,1.4-0.6l-0.4-0.5c-0.3-0.4-0.5-0.9-0.7-1.3
		c-2.4,0.3-5.1,0.4-6.9-0.9c-3.1-2.2-3.8-5.2-2.9-8.3c-0.6-0.8-0.9-1.8-0.5-3c0.6-2,2.7-3.9,4.5-5.1c0-1.5,0.4-2.9,1.3-4.4l0.6-1
		v-0.4c-0.4-1.2-0.5-2.4-0.5-3.7c0.2-4.3,4.9-6.6,8.4-7.1c0.8-0.6,1.6-1.2,2.5-1.7h0.1l0,0c2.4-1.4,5.1-2.3,8-2.5
		c1.5-0.1,2.8,0.4,3.8,1.4l0.6-0.2c0.5-0.3,1.1-0.4,1.7-0.5c0.9-0.2,1.9,0,2.7,0.3c1.6,0.6,3.3,3.3,4.4,3.5c3.1,0.4,4.7-0.2,7.1-2.2
		c1.4-1.2,2.8-1.6,4-1.3c0.7-1.9,2.4-3.1,4.7-4c1.2-0.4,2.5-0.7,3.8-0.6c-0.9-2.7-1.2-5.5,0.4-7.8c1.4-1.8,2.8-2.8,5-3
		c1-0.1,2.1,0,3.1,0.1c0.6,0,1.2,0.1,1.6,0c1.3-0.1,1.6-0.7,1-2.6c-1-3-0.7-7.7,2.9-8.5c0.5-0.1,0.9-0.1,1.4-0.1l0,0l0,0
		c1.8,0.2,3.6,1.2,5.3,2.4l0,0l1.1,0.7l0.7,0.5c0.5,0.4,1,0.7,1.5,0.9c0.2,0.1,0.7-0.7,1.2-1.4l0.2-0.3l0.7-0.4
		c1.8-0.2,3.2,0.3,4.6,1.4c2.1,1.6,4.4-1.7,5.9-2.9c1.6-1.3,3.6-1.5,5.5-1.5c1.6,0.1,2.9,1.6,2.9,3.3c0,1.8-0.4,3.6-0.6,5.4
		c-0.1,0.8,0.8,1.5,1.9,2.2c2.9-1,6.2-0.4,8.1,2c1.1-1.2,2.2-2.4,3.4-3.6c1.3-1.2,2.7-1.1,4.2-0.4c6.3,3.1,8.3,13.5,6.6,21.5
		c1.1,0.4,2.1,1.1,3.1,1.9c1.2,0.4,2.1,1.6,2.4,3.1l0.2,0.4c0.6-0.4,1.2-0.8,1.7-1.4c1-0.1,1.1-0.4,0.3-1.1c-0.7-1-1.5-1.9-2-3.1
		c-0.9-2.5-0.9-5.5,0.2-8c0.9-2.1,3-3.4,5.1-3.4s3.3,0.7,4.5,1.8c0.6-0.3,1.2-1.1,1.9-1.3c1.6-0.4,2.9-0.1,4.2,1
		c0.9,0.7,1.5,1.7,1.9,2.8c3.7,0.1,7.5,2.3,9.9,5.1c2.1,2.4,2.9,5.3,2.2,8.4l-0.4,0.9l-0.2,0.3l-0.4,0.5l-0.3,0.3l-0.4,0.4l-0.5,0.4
		l0,0l0,0l-0.4,0.3l-0.2,0.1l0,0l-0.2,0.1l0.7,0.7c0.5,0.6,1.1,1.5,1.3,2.4l0.3-0.2l0,0c1.1-0.8,2.2-1,3.6-0.7
		c0.8-3.4,3.7-5.6,7.6-5.1c4.5,0.6,6.1,4.5,6.7,8.5c4.1,1.9,7.1,6.4,5.6,11.3c-0.2,0.4-0.4,0.8-0.6,1.3l0.9,0.2l0,0l0.2,0.1
		c0.8,0.1,1.6,0.4,2.4,0.7c1.4,0.6,1.1-0.7,2.6-1.2c0.9-0.3,1.7-0.7,2.6-1c0.4-0.1,0.7-0.3,1.1-0.4v0.1l0.7-0.2
		c2.3-0.3,3.6-2.1,5.8-2.4c3.2-0.5,6.7,1.3,9.2,3.3c2.6,2,4.4,5,4.8,8.5c0.4,2.7-0.7,4.7-1.9,6.6c1.5,0.8,2.8,1.9,3.8,3.3
		c2.8-1.1,5.8-1.4,8.8-0.4c3.1,1.1,3.2,4.3,4.3,6.9c1.7,3.8,4.7,6.9,3.5,11.5l-0.4,0.7l0.2,0.6c0.6,1.8,0,3.1-0.9,4.6
		c-0.4,0.7-1.2,1.2-2,1.7h1.1c0.7,0,1.4,0,2.1,0h0.3c0.6,0,1.2,0.1,1.8,0.2h0.2l0,0c1.1,0.2,2.2,0.5,3.3,1.2
		c1.6,1.1,2.3,2.6,2.6,4.4l0.6,0.1l0,0l0.2,0.1l0.7,0.3l0.5,0.2l0.7,0.4l0.5,0.3l0.5,0.4l0.4,0.4l0.4,0.4l0.4,0.5l0.3,0.5l0.2,0.6
		l0.2,0.5l0.1,0.4l0,0v0.2v0.2l0.1,0.5c0,0.4,0,0.8-0.1,1.3c3,3.1,3.6,7.9,0,9.5l0.4,0.7c0.5,0.9,1,3-0.2,3.5
		c-1.4,0.7-2.6,0.8-3.9,0.8c2.7,4.3,7.7,10.2,3.3,13.7h-0.1c0.4,0.4,0.8,0.9,1,1.6c0.5,0,1.1,0,1.6,0h0.4c1.1,0,2.1,0.2,3.1,0.5
		l0.3,0.1c0.5,0.2,0.9,0.4,1.3,0.8l0,0l0,0l0.2,0.2l0,0l0,0c0.6,0.5,1.1,1.2,1.5,2.1c1.5,2.8,0.1,5.8-1.8,8.2
		c1.7,0.8,3.1,2.2,3.5,4.8c0.6,3.8-3.8,6.3-6.9,7.5c-0.7,1.5-1.8,2.5-3.3,2.9l0.1,0.1l0.6,0.4l0.2-0.1c0.4,0.4,0.7,0.7,1,1.2
		l0.1,0.1l0.2,0.3l0.4,0.8l0.1,0.4l0.2,1c1.2,0.7,0.8,0.8,2.3,0.2c2.1-0.9,5.3,0.3,6.8,1.9C768.9,507.3,769.2,507.7,769.5,508.3z
		 M602.7,403.1L602.7,403.1l-1,0.3l0.9,0.6L602.7,403.1z M646.4,683.4c0.9-1.1,1.8-2.1,2.6-3.3C648,681.1,647.1,682.2,646.4,683.4z
		 M656.9,507.3l-0.2-0.1l0.1,0.2L656.9,507.3z M689.5,479.4c-0.4,0-0.7-0.1-1.1-0.2c0.2,0.5,0.3,1,0.5,1.5
		C689,480.3,689.2,479.9,689.5,479.4z M724.3,454.8c-0.2-1-0.4-2-0.6-3l-0.1-0.6c-0.2-0.8-0.3-1-0.2-0.4c-0.5-0.1-1.5,0-2.4,0.2
		c1,1.1,1.7,2.3,2.1,3.7C723.5,454.6,723.9,454.7,724.3,454.8z"/>
</g>
</svg>
