<?xml version="1.0" encoding="utf-8"?>
<!-- Generator: Adobe Illustrator 27.7.0, SVG Export Plug-In . SVG Version: 6.00 Build 0)  -->
<svg version="1.1" id="Layer_1" xmlns="http://www.w3.org/2000/svg" xmlns:xlink="http://www.w3.org/1999/xlink" x="0px" y="0px"
	 viewBox="0 0 1610 966" style="enable-background:new 0 0 1610 966;" xml:space="preserve">
<style type="text/css">
	.st0{clip-path:url(#SVGID_00000116229522931695428740000003722133475446658976_);}
</style>
<g>
	<defs>
		<rect id="SVGID_1_" width="1610" height="966"/>
	</defs>
	<clipPath id="SVGID_00000007389529681859451990000009706607162080237216_">
		<use xlink:href="#SVGID_1_"  style="overflow:visible;"/>
	</clipPath>
	<path style="clip-path:url(#SVGID_00000007389529681859451990000009706607162080237216_);" d="M-75.4,300.8v-0.1V300.8z"/>
	<polygon style="clip-path:url(#SVGID_00000007389529681859451990000009706607162080237216_);" points="-49.9,87.1 -49.9,87.1 
		-50,87 	"/>
	<path style="clip-path:url(#SVGID_00000007389529681859451990000009706607162080237216_);" d="M-36.4,192.3v-0.1V192.3z"/>
	<polygon style="clip-path:url(#SVGID_00000007389529681859451990000009706607162080237216_);" points="28.8,746.9 170.1,712.2 
		231,710.5 356.9,706.2 574.6,692.6 789.6,704.9 1004,682.2 1189.1,712.2 1385.4,702.2 1378.5,908.4 28.8,908.4 	"/>
	<polyline style="clip-path:url(#SVGID_00000007389529681859451990000009706607162080237216_);" points="1401.8,697.7 1642.4,716.8 
		1694.2,713 1694.2,967.4 327.4,967.4 327.4,856.8 285.4,852.4 	"/>
	
		<rect x="291" y="901.7" style="clip-path:url(#SVGID_00000007389529681859451990000009706607162080237216_);" width="70" height="41"/>
	<polyline style="clip-path:url(#SVGID_00000007389529681859451990000009706607162080237216_);" points="91.8,731.5 -17.8,745.8 
		-17.8,908.4 -17.8,967.4 327.4,967.4 	"/>
	
		<rect x="236.7" y="891.2" style="clip-path:url(#SVGID_00000007389529681859451990000009706607162080237216_);" width="124.1" height="76.1"/>
	<path style="clip-path:url(#SVGID_00000007389529681859451990000009706607162080237216_);" d="M121.6,564.2c1.8,2.7-0.1,6.1-2,7.7
		c-2.3,1.9-5.6,1-7.9-0.2c-1.3-0.7-2.4-1.9-3.7-2.8c-0.6-0.4-1.7,0.8-2.1,1.2c-0.6,0.5-0.3,1.8-0.2,2.6c0,1.1-0.9,1.9-1.7,1.7
		c-2.6-0.4-5-0.9-6.7-3.4l-0.2-0.4c-0.8,1.3,1.4,2.7,2.1,3.6c0.6,1,0.6,2.3-0.2,3.1c-0.7,0.6-1.3,0.9-2.2,1
		c-1.5,0.2-1.1,0.3-0.5,1.8c0.8,2,0.6,4.2-0.7,5.9c-1.9,2.5-5.3,1.7-7.7,0c-2.2,1.3-4.4-0.8-6.1-3.1c-0.4-0.6-0.8-1.2-1.2-1.7
		l-0.1-0.1c-0.7,0.9,0.6,2.2,0.4,3.3l-0.2,1v0.1l-0.3,0.7l-0.2,0.3l-0.3,0.4l-0.7,0.5c-0.8,0.5-1.7,0.2-2.5,0
		c-0.6-0.2-1.1-0.7-1.7-0.8c-0.8-0.1-1.8,0.5-2.6,0.8c-2.1,0.7-4.5-1.5-5-3.9c-0.2-1.3-0.6,0.3-0.7,0.8c-0.1,0.8,0.1,1.7,0.3,2.4
		c0.3,0.9,0.6,2.1,0.3,3c-0.9,2.7-3.1,2.9-5.2,2.9c-1.9,0-3.8-1.3-4.7-3.4c-0.5-1.3-0.4-2.4-1.5-1.8c-0.8,0.4-1.8,0.3-2.5-0.1
		c-0.9-0.6-1.7-1.4-2.2-2.4l-0.2-0.6c-0.6-0.1-1.3,0-1.5,0.5c-0.7,1.5,0,1.5,0,3.1c-0.2,4.4-5.7,2.4-8.7,0.5
		c-0.6,0.1-1.2,0.1-1.8,0.1c0.4,1.6,0.6,3.3-0.7,4.4c-1.7,1.5-3.7,0.9-5.6,0c-1.7,2.1-4.3,0.8-6.1-1.4c-0.9,0.4-1.9,0.2-3-0.9
		l-0.6-0.9h-0.2c-0.8,0.8-2,1-3,0.8c-0.5-0.1-1.1-0.3-1.6-0.6c-1,0-1.9,0-2.9,0c-1.6,0-3.2,0-4.8,0.1c-0.6,0.2-1.4,0.2-2.3,0.1H8
		l-0.8,0.1c-0.6,0.1-1.3,0.2-1.9,0.3l-0.9,0.1c-0.6,0.1-1.3,0.3-1.9,0.5l-0.8,0.2H1.5c-0.2,0.4-0.4,0.9-0.8,1.2
		c-1.1,0.9-2.1,1-3.2,0.8c-1.5,1-2.9,2.2-3.9,3.8l-0.3,0.5c-4.1,6.5-5,16.4-5.6,24.1c-2,25.5-2.7,50.6,0.3,76.1
		c1.3,11.1,1.7,22.9,5.3,33.3c1.3,3.7,3,7.1,5.2,9.9h0.1l0.4,0.6c0.6,0.8,1.4,1.5,2.2,2.2c0.3-1,0.8-1.7,1.5-2.1
		c-0.5-1.2-1.1-2.4-1.7-3.5c-0.4-0.7,0.5-1.6,1-1l0.2,0.3c0.8-0.2,1.5,0.3,2.1,1.1c0.3-0.3,0.8-0.5,1.2,0c0.8,1.1,1.5,2.3,1.9,3.7
		l0.2-1.2c-0.6-1.8-2.8-4.8-0.6-5.9c0.4-0.2,1.1,0,1.5,0.4c0.4,0.5,0.8,1.1,1.1,1.7h0.1l1.1,0.4c1.3,1.7,1.8,3.7,1.7,5.8h0.1
		l0.4-0.7c-0.4-2.2-1.5-4.9-0.9-6.7c0.2-0.4,0.8-0.8,1.2-0.6c0.7,0.3,1.1,0.9,1.5,1.7c1.1,0,2.1,2.1,2.4,3.6h0.1l0.6,0.5
		c0.3-0.6,0.7-1.2,1.3-1.4c0.6-0.2,1.3,0.4,1.3,1.1c0.1,1.2-0.5,2.6-1.1,3.9v0.9c0.7-1.4,1.5-2.7,2.3-3.8c0.6-0.8,1.7,0.1,1.3,1.1
		c-1.1,2-2.4,3.8-3.5,5.8c0.5-0.3,0.9-0.7,1.4-1c0.8-1.1,1.7-1.9,2.9-2.2c0.4-0.1,0.8,0.3,1,0.8l0,0h0.6c0.6-0.5,1.1-1,1.7-1.2
		c1.1-0.3,2,0.9,1.5,2.1c-0.2,0.5-0.5,1-0.9,1.5l0.6-0.1h0.3c0.9-0.5,1.9-0.7,3-0.4c0.6,0.2,0.8,1,0.5,1.6c0.6-0.3,1.3,0,1.7,0.5
		l0.8,0.3l0.1,0.1H35c0.5,0.1,0.8,0.8,0.6,1.4c0.4-0.1,0.8-0.1,1.1-0.1l0.2-0.2c0.4-0.2,0.7,0.2,0.8,0.6l0.4,0.2
		c0.4,0.3,0.4,0.9,0.2,1.4v0.1c0.7-0.2,1.5-0.4,2.1-0.4c1,0,1.2,1.4,0.5,2l0,0c1.8-0.3,3.8-0.8,5.4-0.3c0.5,0.1,0.7,0.8,0.5,1.3
		c1.3,0.6,1.3,3.2-0.1,3.6c-3.6,1-7.1,0.6-10.7,0.1c-1.5,0.3-2.9,0.6-4.4,0.8c-2.3,0.6-4.7,0.7-7,0.8l-0.8-0.3
		c-0.5,0.2-0.9,0.5-1.4,0.8c-0.4,0.3-0.8-0.4-0.4-0.7c0.4-0.4,0.8-0.7,1.2-1v-0.9c-1.1,0.2-2.2,0.4-3.4,0.6c0.9,0,1.9-0.1,2.7-0.2
		c0.4,0,0.4,0.7,0,0.8c-4.8,1-9.8,0.8-14.7,1.5c-0.5,0-0.6-0.9-0.2-1.1c0.9-0.3,1.9-0.5,2.9-0.7c-0.4-0.5-0.6-1.3-0.3-1.9l-0.6,0.4
		l-0.7-0.2H8.8c-0.3,1.4-2,1.2-2.1-0.3v-0.2L6.3,759l-0.4,0.3l-0.6,0.8l-0.5,0.2l0,0l-1,0.4L3,761.2c-0.9,0.5-1.9-0.5-2-1.6
		c-0.6,0.9-1.9,1.2-2.5,0l-0.1-0.2l-0.3,0.8c-0.6,0.8-1,0.8-1.9,1.1c-0.4,0.1-0.8-0.1-1.1-0.4l0,0c-0.9,1-2.1,1-3.3,0.5l-0.4,0.7
		l-0.4,1c-1.1,0.7-2.3,1.3-3.4,1.9c-1.2,0.6-2.5,1.4-3.8,1c-0.7-0.1-0.9-1.1-0.5-1.7l0.2-0.2c-0.3-0.2-0.5-0.7-0.4-1.1l0.1-0.2
		c-0.5,0.2-1.1,0.5-1.6,0.7c-1.6,0.7-3.1,1.3-4.8,1.1c-0.5,0-0.7-0.4-0.8-0.9c-1.1,0.1-2.1,0-2.8-0.2c-0.6-0.2-0.9-0.8-1-1.4h-0.6
		l0.6,0.6c0.4,0.4,0.3,1.1,0,1.5c-0.2,0.6-0.8,1-1.4,0.6l0,0l-0.2-0.2l-0.1-0.1l0.3,0.3l-0.3,0.6c-1-0.7-2-1.5-2.8-2.4
		c-0.5,0-1.1-0.4-1.1-1.1v-0.1c-0.4,0.5-0.8,1-1.3,1.5c0.4,0.5,0.8,1,1.1,1.5s-0.4,1-0.7,0.5s-0.7-1-1.1-1.5l-0.4,0.3
		c-0.7,0.3-1.2-0.2-1.4-0.8h-0.4l-0.8-0.4l0.9,0.9l-0.4,0.7c-0.8-0.6-1.5-1.4-2.2-2.2l0,0c0.3,0.6,0.6,1.2,0.8,1.7
		c0.5,1.1-0.7,2-1.4,1.1c-0.4-0.6-0.8-1.4-1.1-2l-0.8-0.6l-0.7,0.1l0.3,0.3l0.5,0.3c0.4,0.3,0.2,1-0.3,1l-1-0.1
		c-1,0.3-2.2,0.1-3.1-0.5h-0.2c0.1,0.7-0.4,1.3-1,0.9l-0.6-0.2l-0.6,0.5c-1.4,0-3.6-0.2-4.8-1.4c-0.3,0.5-1,0.6-1.3,0l0,0
		c-0.7,0-1.4,0.1-2.1,0.1l-0.4,0.2l-0.2-0.2c-0.7,0-1.3,0-2,0l-0.1,0.4l0,0c-0.3,0.5-1,0.2-1.5-0.3h-1l0,0c0,1.2-1.2,2.1-2,1.2
		l-0.2-0.3l-0.2,0.4l-0.5-0.5l0.2-0.5l0,0c-0.6,0-1.1,0.2-1.7,0.2c-0.4,0.7-1.2,0.8-1.7,0.3l0,0c-0.4,0.1-0.8,0.1-1.3,0.2
		c-0.4,1.1-1.8,1.4-2.6,0.4c-0.7,0.1-1.4,0.2-2.1,0.3h-0.4h-0.2c-0.6,0-1.3,0-1.9,0h-0.6c-0.4,0.3-0.8,0.1-1.1-0.2
		c-0.5-0.1-1.1-0.2-1.6-0.4c0,0.7-0.2,1.3-0.8,1.8c-0.5,0.4-1.1-0.1-1.2-0.8s-0.3-1.4-0.6-1.9c-0.2-0.3-0.5-0.8-0.7-1.2l-0.4-0.4
		c0.4,1.2,0.4,2.3-1,2.6c-0.5,0.1-0.9-0.3-1.1-0.9l-0.2-0.3l-1-0.1L-88,763c-0.2,0.9-0.8,1.6-2,1.8c-1,0.1-1.3-1.3-0.8-2
		c0.4-0.6,0.4-1.3,0.2-2c0.1,0.5,0.1,1-0.1,1.5c-0.2,0.8-1.3,0.8-1.6,0.1l-0.2-0.4c-0.1,0.5-0.6,0.9-1.1,0.4l-0.4-0.5l-0.2,0.5
		c-0.3,0.4-0.9,0.2-1.1-0.3c-0.2-1-0.7-1.7-1.5-2.1c-0.4-0.2-0.2-1.1,0.2-0.9l0.6,0.2l-0.9-1.3c-0.4-0.4,0.2-1.1,0.6-0.7
		c1.1,1.2,2.5,2.2,3.4,3.6c-0.2-0.6-0.3-1.2-0.6-1.7l-0.4-0.6c-0.6,0-1.1-0.1-1.7-0.7v-1.1v-0.5l-0.2-0.2c-0.3-0.3,0-1,0.4-0.7
		l0.2,0.1h0.1l0.2-0.6h0.1l-0.1-0.1c-0.4-0.5-0.4-1.4,0.1-1.8c1.5-1.2,3.6,0.3,4.7,1.5c0.4,0.4,0.6,0.9,0.8,1.4l0,0
		c0.3,0.3,1,0.8,1.9,1.5l-0.1-0.2c-0.4-0.5-0.8-1-1.2-1.5V755c-0.6-0.8-1.2-1.4-2.1-2c-0.4-0.3-0.4-1,0.1-1.2l0.9-0.2v-0.1
		c-0.6-0.9,0.2-2,1.1-1.8c0.4,0,0.9,0.2,1.3,0.5c-0.4-0.4-0.4-1.4,0.1-1.7c0.8-0.6,1.6-0.5,2.2,0c-0.3-0.4-0.6-0.8-0.8-1.3l-0.1-0.5
		l-0.2-0.1c-0.4-0.2-0.4-1,0.1-1.2h0.4c0.3-0.5,0.8-0.8,1.4-0.7c1.7,0.3,3.2,2.1,4.5,3.7c1.6,0.8,2.8,2.3,3.7,4.1
		c0-0.6-0.1-1.3-0.1-1.8c-0.4-0.7-0.8-1.4-1.2-1.9c-0.8-1-1.9-1.3-2.7-2.2c-0.3-0.3-0.2-1.1,0.2-1.2s0.9,0,1.3,0.1
		c0.1-0.4,0.4-0.8,0.9-0.8c0.1-0.5,0.5-0.9,1-0.8c2.3,0.5,3.9,3.7,5.2,5.8c0.5,0.7,0.9,1.5,1.3,2.2l0.6,0.1
		c-0.1-0.4-0.2-0.9-0.4-1.3c-0.4-1.4-1.1-2.8-1.8-4c-0.8-1.4-2-1.8-3.1-2.8c-0.7-0.7-0.2-2.2,0.7-2.2c2.8,0,4.4,3,5.4,6.5
		c0.2-0.4,0.6-0.7,1-0.7c-1.3-3.1-3.1-5.2-5.1-7.8c-0.6-0.9,0-2.1,0.9-1.6c1.3,0.7,2.4,1.8,3.4,3.1l0,0c-0.4-0.5-0.6-1-0.8-1.8
		c-0.1-0.9,0.6-1.7,1.3-1.7c1.5,0,2.5,1.7,3.4,3l0.2-0.4c-0.6-0.9,0.2-2.2,1.1-1.6l0.8,0.7l0.7,0.6l0.4,0.3c0.8,0.2,1.5,0.8,2,1.4
		v-0.6c0-0.5,0.2-0.9,0.4-1.2v-1c0.5-1.6,2.3-1.4,3.2-0.5c0.8,0.8,1.3,2,1.6,3.2c0.1-0.5,0.1-1,0.2-1.5c0.2-1.1,1.2-1.3,1.8-0.8
		c0.2-0.4,0.7-0.7,1.2-0.4c1.1,0.8,1.7,1.8,2.1,2.9c6.4-5.8,12.2-13.2,15.5-21.8c4-10.5,2.7-22.2,1.6-33.4
		c-1.1-10.9-2.7-21.5-1.9-32.5c0.9-12.5,3.2-24.6,2.5-37.1c-0.4-6.7-1.1-13.3-2.4-19.8c-1.9,0.4-4.8-0.8-6.8-2
		c-0.6,0.1-1.2,0.1-1.8,0.1c0.4,1.6,0.6,3.3-0.7,4.4c-1.7,1.5-3.7,1-5.6,0c-1.7,2.1-4.3,0.8-6.1-1.4c-0.9,0.4-1.9,0.2-3-0.9
		c-0.9-0.9-1.3-2.1-1.7-3.3l-0.9-0.2c-0.4-0.1-0.8-0.3-1.3-0.6c-1-0.4-1.9-1.1-2.7-2.2c-1.3,0.4-2.5,0-3.7-0.8
		c-0.6-0.1-1.2-0.1-1.8-0.1c-1.6,0.2-3.1-0.7-4.5-2c-1.2,1.2-2.6,1.2-4.5,0.2c-1.1-0.5-1.9-1.4-2.9-2.2l-0.2-0.1l-0.5,0.1
		c-0.4,0.1-1.9,1.2-2.3,0.6c1.4,2.1,2.5,5.1,0.4,7.2c-1.3,1.4-3,1.2-4.7,1c-0.6,1.6-2,1.8-3.6,1.5l0,0h-0.1
		c-0.5-0.1-1.1-0.3-1.7-0.6c-2.2,3.6-6.8,5.5-10.3,4.4c-2.9-0.9-4.9-4.5-5.1-8.2l-0.4,0.3c-0.8,0.4-1.7,0.8-2.5,0.4l-0.7-0.4
		l-0.5-0.5h-0.1l-0.2-0.4l-0.2-0.3l-0.1-0.2l-0.2-0.6l0,0l0,0c-0.3-1.1,0.8-2.6,0-3.4l-0.1,0.1c-0.4,0.6-0.7,1.3-1.1,1.9
		c-1.4,2.5-3.4,4.9-5.7,3.9c-2.1,2-5.5,3.3-7.6,1.1c-1.4-1.5-1.9-3.5-1.3-5.7c0.4-1.5,0.8-1.7-0.7-1.7c-0.8,0-1.5-0.1-2.2-0.6
		c-0.9-0.6-1.1-2-0.5-3c0.6-1.1,2.6-2.8,1.7-3.9l-0.2,0.4c-1.5,2.8-3.8,3.6-6.3,4.4c-0.8,0.2-1.9-0.4-1.9-1.5c0-0.7,0.1-2-0.5-2.5
		c-0.4-0.3-1.7-1.4-2.2-0.9c-1.2,1.1-2.1,2.4-3.4,3.3c-2.2,1.5-5.4,2.9-7.9,1.4c-2.1-1.3-4.2-4.4-2.8-7.4c0.8-1.5,1.9-2.2,3.1-2.9
		c-0.9-1.4-1.6-2.8-0.9-5c0.6-2.1,2.3-2.9,4-3.4c-0.2-0.5-0.3-1-0.4-1.6c-0.1-1.1,0.3-2.3,0.8-3.2c0.6-1.2,1.4-1.6,2.2-1.9
		c-0.2-0.7-0.1-1.5,0.4-2.5c0.3-0.6,0.7-1.1,1.1-1.5l0.4-0.3c0.4-0.2,0.7-0.5,1.1-0.7l0.1-0.1l0,0c0.4-0.2,0.8-0.3,1.1-0.5l0,0
		c0.4-0.1,0.8-0.3,1.2-0.4c0.9-0.3,1.7-0.3,2.3-1.1l0.9-0.8c-3,0.2-5-2.1-4.8-5.7l0,0l0.1-1.3c-2-1.5-2.9-4.4-1.5-7l0.6-1.2
		c1-1.4,3.2-2.5,4.7-1.9c1.1,0.4,0.8,0.4,1.6-0.2c0-0.4,0.1-0.8,0.2-1.2l0.1-0.3l0.4-0.7l0.5-0.9h0.3l0.3-0.2l0.1-0.1
		c-1.1-0.2-1.9-1-2.4-2.1c-2.3-0.8-5.5-2.6-5.2-5.6c0.2-2.1,1.1-3.3,2.3-4c-1.5-1.9-2.5-4.1-1.6-6.4c0.3-0.7,0.6-1.3,1-1.7l0,0
		l0.1-0.1l1-0.8l0.2-0.1c0.7-0.3,1.4-0.5,2.2-0.6h0.2c0.4,0,0.8-0.1,1.2-0.1c0.5-1.9,2.1-2.8,4-3c-0.1-2.3,0.2-4.5,2.2-5.7
		c1.8-1.1,3.8-0.8,5.4,0.4c1.1-0.6,2.1-0.4,3.1,0.2l0.2-0.3c0.6-0.9,1.2-1.5,2.2-1.8l0.9-0.2l0.2-1.1l0.6-0.9c0-1.3,0.1-2.6,0.5-3.6
		c0.7-1.9,1.7-2.7,2.9-2.8c-1.3-2.4-1.7-5.2-0.5-7.7c0.8-1.7,0.7-3.8,1.7-5.5c1-1.9,2.3-1.3,3.6-0.9c0.1-1.3,0.4-2.4,0.9-3.4
		c-2.1-2-4-4.8-5-7.7c-0.3-0.9-0.4-1.7-0.5-2.5v-0.3c0-0.7,0.1-1.4,0.2-1.9l0.1-0.3c0.2-0.6,0.5-1.1,0.9-1.5l0.2-0.1
		c0.7-0.7,1.6-1.2,2.7-1.4c0.2-2.9,1.1-6.2,3.6-6.8c1.5-0.4,2.7,0.3,4,1.3c0.6,0.5,1.3,1.3,1.7,2.1c0.4-0.4,0.7-0.8,1-1.3
		c0.6-0.2,0.7-0.5,0.1-0.8c-0.6-0.7-1.3-1.3-1.7-2.1c-0.9-1.8-1.2-4-0.7-6c0.4-1.7,1.7-3,3.1-3.2c1.5-0.2,2.3,0.1,3.2,0.8
		c0.4-0.3,0.7-1,1.2-1.3c1-0.5,2-0.4,2.9,0.2c0.7,0.4,1.2,1.1,1.6,1.9c1.9-0.3,4.1,0.3,5.8,1.5l0.8-1.1c-0.4-1.3-0.1-2.7,1.3-3.5
		c0.7-0.4,1.5-0.7,2.2-1l0.9-0.4l-0.2-0.3l-0.5-1c-1.7,0.2-3.4,0.3-4.6-0.7c-2.1-1.7-2.6-3.9-2-6.3c-0.4-0.6-0.6-1.3-0.4-2.2
		c0.4-1.5,1.8-2.9,3.1-3.9c0-1.2,0.3-2.2,0.9-3.3l0.4-0.8v-0.2c-0.3-1-0.4-1.8-0.3-2.8c0.2-3.2,3.3-5,5.7-5.4
		c0.5-0.5,1.1-0.9,1.7-1.3l0,0l0,0c1.7-1.1,3.5-1.8,5.4-1.9c1,0,1.9,0.3,2.6,1.1l0.4-0.2c0.4-0.2,0.7-0.3,1.1-0.4
		c0.6-0.2,1.3,0,1.9,0.2c1.1,0.4,2.2,2.6,3,2.7c2.1,0.3,3.2-0.1,4.8-1.7c0.5-0.5,1-0.8,1.5-1c0.7-1.5,1.8-2.7,3.2-3.6
		c0.3-1.1,0.8-2,1.4-2.8c-0.1-0.7-0.1-1.3,0.2-1.8c0.2-0.5,0.5-0.9,0.8-1.2c-1.4-2.6-3.1-6.7-1.2-9.4c0.9-1.4,1.9-2.1,3.4-2.3
		c0.7-0.1,1.4,0,2.1,0.1c0.4,0,0.8,0.1,1.1,0l0,0c0.8-0.1,1.1-0.6,0.6-2c-0.7-2.3-0.5-5.9,2-6.5h1l0,0l0,0c1.7,0.1,3.4,1.6,4.8,2.8
		l0.9,0.7c0.1,0,0.4-0.4,0.7-0.9l0.3-0.4l0.4-0.3c1.2-0.1,2.1,0.2,3.1,1.1c1.4,1.2,3-1.3,4-2.2c1.1-1,2.5-1.2,3.8-1.1
		c1.1,0,2,1.3,2,2.5c0,1.4-0.3,2.8-0.4,4.1c0,0.6,0.6,1.2,1.3,1.6c2-0.7,4.2-0.3,5.5,1.5c0.7-1,1.5-1.8,2.3-2.8s1.8-0.8,2.8-0.3
		c4.7,2.6,5.9,12,4,18.3l1-0.4c1.5-0.7,3.2,0.8,3.2,2.7c0,0.5,0,0.8-0.1,1.2l0,0v0.3l1,0.3l0.5,0.2l0,0l1,0.6l0.5,0.2l0.5,0.1
		L1,406.9c-0.5-0.8-1.1-1.5-1.4-2.4c-0.6-1.9-0.6-4.2,0.1-6.1c0.6-1.6,2-2.6,3.5-2.6c1.4,0,2.2,0.6,3.1,1.4c0.4-0.2,0.8-0.9,1.3-1
		c1.1-0.3,2,0,2.9,0.8c0.6,0.6,1.1,1.4,1.3,2.2c2.5,0.1,5.1,1.7,6.7,3.8c1.4,1.8,2,4,1.5,6.4l-0.5,1.1l-0.1,0.2l-1.1,1.1l-0.1,0.1
		l0,0l-0.1,0.1l0,0l0.4,0.5c0.4,0.5,0.7,1.2,0.9,1.8l0.2-0.1v0.1c0.8-0.6,1.5-0.8,2.5-0.6c0.6-2.6,2.5-4.3,5.2-3.9
		c3,0.4,4.1,3.4,4.5,6.5c2.8,1.5,4.8,4.9,3.8,8.6l-0.4,1l0.6,0.1l0,0H36c0.6,0.1,1.1,0.2,1.7,0.5c0.9,0.5,0.7-0.4,1.8-0.9
		c0.6-0.2,1.2-0.5,1.8-0.8l0.7-0.3l0,0l0.5-0.1c1.5-0.2,2.5-1.5,4-1.8c2.2-0.4,4.6,1,6.3,2.5s3,3.8,3.3,6.4c0.2,2.1-0.4,3.6-1.3,5
		c1,0.6,1.9,1.5,2.6,2.5c1.9-0.8,3.9-1,5.9-0.2c2.1,0.8,2.1,3.2,3,5.2c1.2,2.9,3.2,5.2,2.4,8.8l-0.2,0.5l0.1,0.4
		c0.4,1.4,0,2.4-0.6,3.5c-0.3,0.5-0.8,0.9-1.4,1.3h0.7c0.5,0,0.9,0,1.4,0h0.4l1,0.1h0.2H70c0.8,0.1,1.5,0.4,2.2,0.9
		c1.1,0.8,1.6,2,1.8,3.3l0.4,0.1l0,0l0,0c0.5,0.1,1,0.4,1.5,0.7l0.1,0.1c0.4,0.3,0.8,0.7,1.1,1.1l0.1,0.1c0.3,0.4,0.5,0.9,0.6,1.5
		v0.1v0.2l0,0v0.1c0,0.4,0,0.9,0,1.5c2.1,2.4,2.4,6,0,7.2l0.3,0.5c0.3,0.6,0.7,2.2-0.2,2.7c-0.9,0.5-1.8,0.6-2.6,0.6
		c1.7,2.9,4.6,6.9,2.9,9.6l1,0.1c1.5-1.3,3.4-1.6,5.2-0.7c2,1,2.4,3.1,2.4,5.3c1.7,0.1,3.4,0.8,3.9,2.6c0.4,0,0.7,0,1.1,0H92
		c0.8,0,1.5,0.1,2.1,0.4l0.2,0.1l1,0.8l0.1,0.1l0,0c0.4,0.4,0.7,0.9,1,1.5c1,2.2,0,4.4-1.3,6.3c1.2,0.6,2.1,1.7,2.4,3.7
		c0.4,2.9-2.5,4.8-4.7,5.8c-0.4,1.1-1.2,1.9-2.2,2.2l0.1,0.1l0.4,0.3l0.2-0.1l0.6,0.8l0.4,0.6l0.1,0.3l0.2,1.2
		c0.8,0.6,0.6,0.6,1.6,0.1c1.4-0.6,3.6,0.2,4.6,1.5l0.6,1.1c1.4,2.4,0.7,5.2-1.2,6.8l0.2,1.2l0,0c0.3,3.5-1.5,5.9-4.5,5.8
		c0.5,0.4,0.9,0.9,1.2,1.5c0.6,1.4,0.8,2.5,0.4,4c-0.2,0.6-0.2,1-0.3,1.6l-0.2-0.2l0.2,0.3c0.4,0.6,0.8,1.2,1,1.8
		c0.4-0.3,0.9-0.4,1.5-0.3c0.1-1.7,0.7-3.4,2.3-3.8c0.9-0.2,1.9,0.2,2.6,0.9s1.5,0.6,2.4,0.8c0.4,0,0.8,0.1,1.2,0.2l0,0
		c0.4,0,0.8,0.1,1.2,0.3l0,0h0.2c0.4,0.1,0.7,0.3,1.1,0.5l0.4,0.2c0.5,0.3,0.9,0.7,1.3,1.3c0.5,0.9,0.7,1.6,0.6,2.4
		c0.9,0.2,1.7,0.5,2.4,1.6c0.6,0.9,1.1,1.9,1.1,3.1c0,0.6,0,1.1-0.2,1.6c1.7,0.2,3.5,0.8,4.3,2.8c0.9,2.1,0.4,3.5-0.4,5.1
		C119.4,562.8,120.6,563.2,121.6,564.2z M-134.6,551.7l-0.1-0.8c-0.5,0.3-1.1,0.7-1.6,0.8c0.3,0.5,0.5,1.2,0.6,1.8h0.5l0.2-0.3
		l0.3-0.6L-134.6,551.7z M-85.9,756.5c-0.4-0.6-0.7-1.2-1.1-1.7l-0.4-0.4c0.3,0.6,0.5,1.3,0.7,1.9L-85.9,756.5z M-83,750.5
		c-0.5-0.4-1.1-0.9-1.6-1.4c0.4,0.5,0.7,1.2,1,1.7L-83,750.5L-83,750.5z M-77.1,756l-0.6-0.6l0.4,0.7L-77.1,756z M-67.4,752.6
		c-0.4-0.6-0.7-1.2-1.1-1.7c0.1,0.6,0.2,1.3,0.4,1.9L-67.4,752.6z M-60.1,744.2l-0.4-0.8c0.2,0.4,0.2,0.9,0.4,1.4V744.2z
		 M-22.6,476.8L-22.6,476.8l0.4-0.1L-22.6,476.8z M-21.9,488.5l-0.6-0.6l-0.1,0.3l0.5,0.5L-21.9,488.5z M32.5,754.2l0.2-0.1
		L32.5,754.2L32.5,754.2z M31.3,755.5l0.5-0.2l0.3-0.6L31.3,755.5z M35.6,497.2L35.6,497.2l-0.1,0.2L35.6,497.2z M55.8,474.5v-0.1
		c-0.2-0.6-0.2-0.7-0.2-0.3h-0.9C55.1,474.1,55.4,474.3,55.8,474.5z M61.6,492.9l-0.1-0.5L61.6,492.9z"/>
</g>
</svg>
