<?xml version="1.0" encoding="utf-8"?>
<!-- Generator: Adobe Illustrator 27.7.0, SVG Export Plug-In . SVG Version: 6.00 Build 0)  -->
<svg version="1.1" id="Layer_1" xmlns="http://www.w3.org/2000/svg" xmlns:xlink="http://www.w3.org/1999/xlink" x="0px" y="0px"
	 viewBox="0 0 1610 966" style="enable-background:new 0 0 1610 966;" xml:space="preserve">
<style type="text/css">
	.st0{clip-path:url(#SVGID_00000018943303334392793590000000197283787652703116_);}
</style>
<g>
	<defs>
		<rect id="SVGID_1_" width="1610" height="967.3"/>
	</defs>
	<clipPath id="SVGID_00000078043138924704210120000005137463755626775189_">
		<use xlink:href="#SVGID_1_"  style="overflow:visible;"/>
	</clipPath>
	<path style="clip-path:url(#SVGID_00000078043138924704210120000005137463755626775189_);" d="M-75.4,300.8v-0.1V300.8z"/>
	<polygon style="clip-path:url(#SVGID_00000078043138924704210120000005137463755626775189_);" points="-49.9,87 -49.9,87 -50,86.9 
			"/>
	<path style="clip-path:url(#SVGID_00000078043138924704210120000005137463755626775189_);" d="M-36.4,192.2v-0.1V192.2z"/>
	<polygon style="clip-path:url(#SVGID_00000078043138924704210120000005137463755626775189_);" points="28.8,746.8 170.1,712.2 
		231,710.4 356.9,706.2 574.6,692.6 789.6,704.8 1004,682.2 1189.1,712.2 1385.4,702.2 1378.5,908.3 28.8,908.3 	"/>
	<polyline style="clip-path:url(#SVGID_00000078043138924704210120000005137463755626775189_);" points="1401.8,697.7 1642.4,716.8 
		1694.2,712.9 1694.2,967.3 327.4,967.3 327.4,856.8 285.4,852.3 	"/>
	
		<rect x="291" y="901.7" style="clip-path:url(#SVGID_00000078043138924704210120000005137463755626775189_);" width="70" height="41"/>
	<polyline style="clip-path:url(#SVGID_00000078043138924704210120000005137463755626775189_);" points="91.8,731.4 -17.8,745.8 
		-17.8,908.3 -17.8,967.3 327.4,967.3 	"/>
	
		<rect x="236.7" y="891.2" style="clip-path:url(#SVGID_00000078043138924704210120000005137463755626775189_);" width="124.1" height="76.1"/>
</g>
</svg>
