<?xml version="1.0" encoding="utf-8"?>
<!-- Generator: Adobe Illustrator 27.7.0, SVG Export Plug-In . SVG Version: 6.00 Build 0)  -->
<svg version="1.1" id="Layer_1" xmlns="http://www.w3.org/2000/svg" xmlns:xlink="http://www.w3.org/1999/xlink" x="0px" y="0px"
	 viewBox="0 0 1610 966" style="enable-background:new 0 0 1610 966;" xml:space="preserve">
<style type="text/css">
	.st0{clip-path:url(#SVGID_00000041271408643090688370000005223150364549533368_);}
	.st1{clip-path:url(#SVGID_00000044875592709866430070000009880696381458862469_);}
	.st2{clip-path:url(#SVGID_00000121996875182980250370000013408869404546149013_);}
	.st3{clip-path:url(#SVGID_00000038391382713832107190000017199618134512532354_);}
	.st4{clip-path:url(#SVGID_00000150097122679243785900000008602825646164412081_);}
	.st5{clip-path:url(#SVGID_00000168115668576443591490000001659209079525770160_);}
	.st6{clip-path:url(#SVGID_00000041291702200938478140000011558534392690961068_);}
	.st7{clip-path:url(#SVGID_00000060725724891143902040000010886502796211057793_);}
	.st8{clip-path:url(#SVGID_00000065780574429873127890000009987716818314861190_);}
</style>
<g>
	<g>
		<defs>
			<rect id="SVGID_1_" width="1610" height="966"/>
		</defs>
		<clipPath id="SVGID_00000151511834966849518680000002598655136230716805_">
			<use xlink:href="#SVGID_1_"  style="overflow:visible;"/>
		</clipPath>
		<path style="clip-path:url(#SVGID_00000151511834966849518680000002598655136230716805_);" d="M-75.4,300.8v-0.1V300.8z"/>
	</g>
	<g>
		<defs>
			<rect id="SVGID_00000152949240703647367860000002843254928307599030_" width="1610" height="966"/>
		</defs>
		<clipPath id="SVGID_00000103243087413583321720000008755659296214528425_">
			<use xlink:href="#SVGID_00000152949240703647367860000002843254928307599030_"  style="overflow:visible;"/>
		</clipPath>
		<polygon style="clip-path:url(#SVGID_00000103243087413583321720000008755659296214528425_);" points="-49.9,87 -49.9,87 
			-50,86.9 		"/>
	</g>
	<g>
		<defs>
			<rect id="SVGID_00000159428498990703907550000007783265272594312850_" width="1610" height="966"/>
		</defs>
		<clipPath id="SVGID_00000041257496585446550870000007141662049761969035_">
			<use xlink:href="#SVGID_00000159428498990703907550000007783265272594312850_"  style="overflow:visible;"/>
		</clipPath>
		<path style="clip-path:url(#SVGID_00000041257496585446550870000007141662049761969035_);" d="M-36.4,192.2v-0.1V192.2z"/>
	</g>
	<g>
		<defs>
			<rect id="SVGID_00000132058227803453201340000013269533879367807672_" width="1610" height="966"/>
		</defs>
		<clipPath id="SVGID_00000084504804707289944870000012157964225323972283_">
			<use xlink:href="#SVGID_00000132058227803453201340000013269533879367807672_"  style="overflow:visible;"/>
		</clipPath>
		<path style="clip-path:url(#SVGID_00000084504804707289944870000012157964225323972283_);" d="M1188.7,508.8
			c2.1,3.1,1.1,6.8-1.7,8.9c0.2,0.5,0.2,1.1,0.3,1.6l0,0c0.5,4.8-2.6,8.2-7.5,7.6c-1,1.4-2.3,2.1-4.1,1.8c-0.8-0.1-1.6-0.5-2.3-0.9
			c0,0.2-0.1,0.5-0.2,1.1c0,0.4,0.2,0.7,0.4,1.1l0.5,0.7c0.2,0.4,0.5,0.7,0.6,1.1c0.3,1.1-0.9,2.8-1.7,3.3c-2.3,1.4-4.8,2.6-7.2,3.6
			l-0.6,0.3l0.3,0.7l0.2,0.4l0.5,0.8c1,1.4,2.2,2.5,2.8,4.1c0.9,2.6-1.2,4.5-3.2,5.4c-1.1,0.4-2.5,0.7-4,0.8c-0.6,0.4-1.3,0.7-2,0.9
			c1.1,1.6,1.5,3.6,0.6,6.1c-1.4,3.6-6.3,3.3-9.6,2.6c-1.3,0.9-2.7,1.2-4.2,0.7v0.1l0.4,0.7h0.3c0.2,0.5,0.3,1.1,0.3,1.6v0.1v0.4
			v0.9l-0.1,0.4l-0.3,0.9c0.7,1.2,0.3,1.1,1.9,1.4c2.2,0.4,4.4,3.2,4.8,5.4c0.1,0.6,0.1,1.2,0.1,1.7c0.2,3.8-2.4,6.4-5.8,6.6
			c-0.1,0.5-0.3,1-0.5,1.5l0,0c-1.9,4.4-6.2,5.5-10.1,2.4c-1.4,0.6-2.7,0.4-4-0.5l-0.4,0.3c-0.9,2.1,0.2,2,0.3,4.1
			c0.2,5.8-8,4.1-12.7,2c-0.5,0.1-0.9,0.1-1.3,0.2c0.2,1.1,0.3,2.2,0.1,3.3c-0.2,1.1-0.8,1.8-1.6,2.3l-0.3,0.8
			c-2.4,2.3-5.4,1.8-8.2,0.9c-2.2,3-6.2,1.7-9.2-0.8c-1.2,0.7-2.8,0.6-4.5-0.7c-1.6-1.1-2.4-2.9-3.1-4.6c-2.7,0.5-5.2-0.4-7.1-2.5
			c-1.1,0.4-2.1,0.4-3.2,0.3c-0.5,0.1-1,0.2-1.6,0.2c-1.4,0-4.1-1.2-4.9,0.2c-0.3,0.5-0.4,0.9-0.5,1.2c-0.2,0.9,0.5,1.4,0.4,2.9
			c-0.3,5.8-8.3,3.2-12.8,0.7h-0.7l-0.3,0.2c-0.5,0.2-1,0.4-1.5,0.6c0.5,1.9,0.5,3.8-1.2,5.1c-2.2,1.8-4.7,1.4-7.1,0.5
			c-1.8,3-3.8,5.8-4.7,9.3c-0.9,3.3-1.2,6.7-1.2,10.1c-0.2,15.9,3.8,31.4,5.1,47.1c0.4,4.5,0.6,10.6,2.2,15.6l0.1-0.4
			c0.6-5,0.8-10,3.4-14.4c0.4-0.7,1.4-0.1,1,0.6l-0.2,0.6v0.1c-0.9,3.6-1.1,7-1.1,10.6c0.9-4,2.4-7.9,4.4-11.5
			c0.2-0.4,0.8,0,0.7,0.4c-2.8,6.8-3.8,13.9-4,21.1l0.3,0.4c-0.2-2.1,0.9-4.8,1.2-6.3c0.9-4.1,2.6-7.7,5.1-11l0.2,0.2l-0.5,1
			c0.7-1,1.3-2,1.9-3c0.3-0.6,1-0.1,0.8,0.5c-1.4,3.5-3.5,6.7-4.2,10.4c-0.2,1.2-0.4,2.4-0.5,3.7c1.7-3.5,4.1-6.6,7.2-8.5
			c0.4-0.2,0.7,0.4,0.4,0.7l-0.9,0.9c0.3-0.2,0.7,0.1,0.5,0.6s-0.5,0.9-0.7,1.4c0.6-0.6,1.1-1.2,1.7-1.7l0.6,0.6
			c-1.7,2.4-3.4,4.7-4.7,7.4c-0.9,1.9-1.4,3.7-1.8,5.5l0.6-1.1c1.4-2.2,3.1-4.5,5.4-5.5l0.5,0.6l-0.1,0.1c0.7-0.4,1.4-0.7,2.2-1
			l0.2,0.6c-2,1.1-3.7,3-4.9,5.2c0.6-0.6,1.2-1.1,1.8-1.6l0.5,0.5c-1.6,1.9-3.3,3.8-4.2,6.1c-0.1,0.6-0.2,1.1-0.2,1.6l-0.3,0.7
			l-0.1,0.4c-0.1,1.1-1.7,1.4-1.8,0.3l0,0c-1.3,1.1-4,1.5-5,1.7c2.7,3.6-1.8,4.6-4.3,5c-3.2,0.6-6.3,1.5-9.5,1.5h-0.3l0.2,0.2v0.4
			c-0.6,0-1.3,0-1.9-0.1c-1.3-0.1-3.6,0.1-4.5-1c-0.3-0.5-0.5-1.1-0.7-1.6h-0.4c0.1,0.4,0.1,0.8,0.2,1.2h-0.2l-0.5-0.4
			c-0.7-0.5-1.2-0.6-1.6-0.5v-0.1l-0.9,0.2v0.5c-0.4,0-0.8,0-1.2,0.1l-0.5,0.1V708h-0.1v0.4c-0.6,0.2-1.2,0.4-1.8,0.7
			c-1.2,1.3-1.7,3.2-4,3.4c-2,0.2-4.2,0-6.1-0.3c-2.8-0.4-5.5-1.2-7.9-2.7c-0.5-0.3-1-0.7-1.3-1.3c-0.5,0.1-0.9,0-1.3-0.4
			c-0.5-0.7-0.2-2.1,0.2-3.1c-1.1,0.5-2.3,1-3.5,1.3c-1.9-0.4-3.8-1-5.7-1.4c-1.1,0-2.3-0.1-3.4-0.2c-2.4-0.3-3.2-0.9-3.1-1.7h-0.2
			c-3.8-3.1-7.1-6.2-12.2-6.3c-0.4,0-0.5-0.6-0.1-0.7c4.1-0.7,7.6,0.4,10.8,2.4c-0.4-0.6-0.9-1.2-1.4-1.8l0,0
			c-0.9-0.9-2-1.6-3.2-1.8v-0.3l0.9,0.1c-0.7-0.5-1.4-0.9-2.2-1.2c-0.4-0.1-0.3-0.8,0.1-0.7c1.1,0.2,2.2,0.5,3.2,1
			c-1.7-1.7-3.8-2.9-6.2-3v-0.6c3.7-0.4,7.5,1.5,10,4.4c1.1,1.2,2.7,3.1,3.6,5l0,0c-0.1-0.4-0.1-0.9-0.2-1.5
			c-0.2-1.3-0.6-2.7-1.1-3.9c-1.1-2.5-2.8-5.2-5.2-6.6l0.2-0.5c2.6,1.2,4.5,3.2,6.1,5.7l0.6,0.9v-0.5c-0.5-3-1.6-6.7-4.2-8.4
			c-0.5-0.3-0.1-1,0.4-0.7c3,1.4,4.3,4.9,5.4,7.9c0.4,1,1,2.6,1.4,4.4c1-5.4,0.7-11.8-3.4-15.6l0.2-0.3c2.2,1.2,3.7,3.3,4.6,5.6
			c0.9,1.4,1.6,2.9,2,4.4c0.2-0.4,0.3-0.8,0.4-1.2c0-3.4-0.4-6.8-2.1-9.9l0.3-0.3c1.5,1.9,2.3,4,2.8,6.2c0.7-4,0.7-8.1,0.7-12.2
			c0.1-9.6-0.2-19.1,0-28.6c0.1-5.2,0.4-10.4,0.9-15.5c0.5-4.5,0.1-9-0.1-13.6c-0.2-4.5-0.6-8.3-2.6-12.2c-2.1,0.7-4.4,0.1-6.6-0.8
			c-2.5,2.7-6.3,1.1-9-1.8c-1.3,0.6-2.8,0.3-4.5-1.2c-0.5-0.5-0.9-1-1.2-1.5c-3.4,4.2-9.7,6.4-14.5,5.1c-2.4-0.7-4.3-2.5-5.7-4.8
			l-1,0.4c-1.5,0.4-3-0.1-4.5-0.4c-1.6-0.4-3.1,0-4.7-0.4c-3-0.8-4.3-3.8-5.2-6.6l-0.3-0.5c0.2,1.6-0.2,3.1-1.6,4.4
			c-1.9,1.8-4.5,1.5-6.9,1.3c-0.9,2.1-3,2.5-5.3,1.9l0,0l0,0c-0.8-0.2-1.7-0.5-2.5-0.8c-3.2,4.7-10,7.2-15.1,5.9
			c-5.2-1.4-8.5-8.2-7.4-13.7c-0.8-1-1.4-2.1-1.9-3.3c-4.7-1.9-6.1-7.4-4-11.9h-0.1c-3.1,3.4-9.8,3.9-13.4,2.7
			c-2.1-0.7-4.5-2.7-3.6-5.4c0.6-1.8,1.8-3,2.7-4.5c0.2-0.4,0.5-1,0.7-1.6l0.2-0.4l-0.6-0.2c-2.6-0.8-5.2-1.9-7.7-3.2
			c-0.9-0.4-2.2-2.2-1.9-3.3c0.1-0.4,0.3-0.8,0.6-1.1l0.5-0.8c0.2-0.4,0.3-0.7,0.3-1.1c-0.1-0.6-0.2-0.9-0.2-1.1
			c-0.7,0.4-1.5,1-2.4,1.1c-1.9,0.4-3.3-0.3-4.3-1.6c-5,0.9-8.5-2.4-8.2-7.4l0,0c0-0.6,0.1-1.1,0.2-1.7c-3-2-4.2-5.8-2.3-9.2
			c0.2-0.5,0.5-1,0.9-1.5c1.4-1.8,4.7-3.2,7.2-2.2c1.6,0.5,1.2,0.5,2.4-0.4l0.1-1.1l0.1-0.4l0.4-0.9l0.2-0.4l0.1-0.1
			c0.3-0.5,0.6-0.9,1-1.3l0.2,0.1l0.6-0.4l0.1-0.1c-1.6-0.4-2.8-1.4-3.6-2.8c-3.4-1-8.1-3.3-7.6-7.4c0.2-2.7,1.6-4.3,3.3-5.2
			c-2.1-2.5-3.7-5.4-2.4-8.5c0.4-1,0.9-1.7,1.4-2.2l0,0l0.2-0.2l0,0c0.5-0.4,0.9-0.7,1.4-1l0.3-0.2c0.9-0.4,2-0.7,3.2-0.7h0.4
			c0.5,0,1.1,0,1.7-0.1c0.6-2.1,2.4-3.2,4.5-3.7c-0.2-1.7-0.5-3.4-1.4-4.3c-2.4-2.6,0.6-5.4,2.9-3.1c0.1-1.4,0.3-2.7,1.3-3.7
			c-0.4-1.3-0.2-2.6,0.5-3.8c-1.2-1.1-1.8-2.6-1-4.5c0.2-0.4,0.5-0.8,0.8-1.1c0-1.8,0.2-3.4,0.7-4.8c1-2.6,2.5-3.5,4.3-3.7
			c-1.8-3.1-2.5-6.8-0.7-10.1c1.3-2.3,1.1-5,2.5-7.3c1.5-2.6,3.4-1.7,5.3-1.1c0.1-1.6,0.5-3.1,1.4-4.4c-3.2-2.7-5.9-6.3-7.4-10.1
			c-0.2-0.7-0.5-1.3-0.6-1.9l-0.1-0.7l-0.1-1.1v-0.7l0.1-0.9l0.2-0.7l0.2-0.7l0.3-0.6l0.5-0.6l0.5-0.5l0.6-0.5l0.5-0.4l0.9-0.4
			c0.7-0.3,1.4-0.6,2.2-0.7c0.4-3.8,1.7-8.1,5.4-9c2.2-0.5,4,0.4,5.9,1.7c0.9,0.7,2,1.7,2.6,2.7c0.6-0.4,1-1,1.4-1.7
			c1-0.3,1-0.6,0.2-1.1c-0.9-0.9-1.8-1.7-2.4-2.8c-1.3-2.4-1.7-5.3-1-8c0.6-2.2,2.4-3.9,4.6-4.2c2.1-0.3,3.3,0.2,4.7,1.1
			c0.6-0.4,1-1.3,1.7-1.6c1.5-0.7,2.9-0.5,4.3,0.3c1,0.6,1.8,1.5,2.4,2.5c2.8-0.4,6,0.5,8.5,2c0.4-0.5,0.8-1,1.3-1.5
			c-0.6-1.6-0.2-3.4,1.9-4.6c1-0.6,2.2-0.9,3.3-1.3c0.5-0.2,0.9-0.4,1.4-0.6l-0.4-0.5c-0.3-0.4-0.5-0.9-0.7-1.3
			c-2.4,0.3-5.1,0.4-6.9-0.9c-3.1-2.2-3.8-5.2-2.9-8.3c-0.6-0.8-0.9-1.8-0.5-3c0.6-2,2.7-3.9,4.5-5.1c0-1.5,0.4-2.9,1.3-4.4l0.6-1
			v-0.4c-0.4-1.2-0.5-2.4-0.5-3.7c0.2-4.3,4.9-6.6,8.4-7.1c0.8-0.6,1.6-1.2,2.5-1.7h0.1l0,0c2.4-1.4,5.1-2.3,8-2.5
			c1.5-0.1,2.8,0.4,3.8,1.4l0.6-0.2c0.5-0.3,1.1-0.4,1.7-0.5c0.9-0.2,1.9,0,2.7,0.3c1.6,0.6,3.3,3.3,4.4,3.5
			c3.1,0.4,4.7-0.2,7.1-2.2c1.4-1.2,2.8-1.6,4-1.3c0.7-1.9,2.4-3.1,4.7-4c1.2-0.4,2.5-0.7,3.8-0.6c-0.9-2.7-1.2-5.5,0.4-7.8
			c1.4-1.8,2.8-2.8,5-3c1-0.1,2.1,0,3.1,0.1c0.6,0,1.2,0.1,1.6,0c1.3-0.1,1.6-0.7,1-2.6c-1-3-0.7-7.7,2.9-8.5
			c0.5-0.1,0.9-0.1,1.4-0.1l0,0l0,0c1.8,0.2,3.6,1.2,5.3,2.4l0,0l1.1,0.7l0.7,0.5c0.5,0.4,1,0.7,1.5,0.9c0.2,0.1,0.7-0.7,1.2-1.4
			l0.2-0.3l0.7-0.4c1.8-0.2,3.2,0.3,4.6,1.4c2.1,1.6,4.4-1.7,5.9-2.9c1.6-1.3,3.6-1.5,5.5-1.5c1.6,0.1,2.9,1.6,2.9,3.3
			c0,1.8-0.4,3.6-0.6,5.4c-0.1,0.8,0.8,1.5,1.9,2.2c2.9-1,6.2-0.4,8.1,2c1.1-1.2,2.2-2.4,3.4-3.6c1.3-1.2,2.7-1.1,4.2-0.4
			c6.3,3.1,8.3,13.5,6.6,21.5c1.1,0.4,2.1,1.1,3.1,1.9c1.2,0.4,2.1,1.6,2.4,3.1l0.2,0.4c0.6-0.4,1.2-0.8,1.7-1.4
			c1-0.1,1.1-0.4,0.3-1.1c-0.7-1-1.5-1.9-2-3.1c-0.9-2.5-0.9-5.5,0.2-8c0.9-2.1,3-3.4,5.1-3.4s3.3,0.7,4.5,1.8
			c0.6-0.3,1.2-1.1,1.9-1.3c1.6-0.4,2.9-0.1,4.2,1c0.9,0.7,1.5,1.7,1.9,2.8c3.7,0.1,7.5,2.3,9.9,5.1c2.1,2.4,2.9,5.3,2.2,8.4
			l-0.4,0.9l-0.2,0.3l-0.4,0.5l-0.3,0.3l-0.4,0.4l-0.5,0.4l0,0l0,0l-0.4,0.3l-0.2,0.1l0,0l-0.2,0.1l0.7,0.7c0.5,0.6,1.1,1.5,1.3,2.4
			l0.3-0.2l0,0c1.1-0.8,2.2-1,3.6-0.7c0.8-3.4,3.7-5.6,7.6-5.1c4.5,0.6,6.1,4.5,6.7,8.5c4.1,1.9,7.1,6.4,5.6,11.3
			c-0.2,0.4-0.4,0.8-0.6,1.3l0.9,0.2l0,0l0.2,0.1c0.8,0.1,1.6,0.4,2.4,0.7c1.4,0.6,1.1-0.7,2.6-1.2c0.9-0.3,1.7-0.7,2.6-1
			c0.4-0.1,0.7-0.3,1.1-0.4v0.1l0.7-0.2c2.3-0.3,3.6-2.1,5.8-2.4c3.2-0.5,6.7,1.3,9.2,3.3c2.6,2,4.4,5,4.8,8.5
			c0.4,2.7-0.7,4.7-1.9,6.6c1.5,0.8,2.8,1.9,3.8,3.3c2.8-1.1,5.8-1.4,8.8-0.4c3.1,1.1,3.2,4.3,4.3,6.9c1.7,3.8,4.7,6.9,3.5,11.5
			l-0.4,0.7l0.2,0.6c0.6,1.8,0,3.1-0.9,4.6c-0.4,0.7-1.2,1.2-2,1.7h1.1c0.7,0,1.4,0,2.1,0h0.3c0.6,0,1.2,0.1,1.8,0.2h0.2l0,0
			c1.1,0.2,2.2,0.5,3.3,1.2c1.6,1.1,2.3,2.6,2.6,4.4l0.6,0.1l0,0l0.2,0.1l0.7,0.3l0.5,0.2l0.7,0.4l0.5,0.3l0.5,0.4l0.4,0.4l0.4,0.4
			l0.4,0.5l0.3,0.5l0.2,0.6l0.2,0.5l0.1,0.4l0,0v0.2v0.2l0.1,0.5c0,0.4,0,0.8-0.1,1.3c3,3.1,3.6,7.9,0,9.5l0.4,0.7
			c0.5,0.9,1,3-0.2,3.5c-1.4,0.7-2.6,0.8-3.9,0.8c2.7,4.3,7.7,10.2,3.3,13.7h-0.1c0.4,0.4,0.8,0.9,1,1.6c0.5,0,1.1,0,1.6,0h0.4
			c1.1,0,2.1,0.2,3.1,0.5l0.3,0.1c0.5,0.2,0.9,0.4,1.3,0.8l0,0l0,0l0.2,0.2l0,0l0,0c0.6,0.5,1.1,1.2,1.5,2.1
			c1.5,2.8,0.1,5.8-1.8,8.2c1.7,0.8,3.1,2.2,3.5,4.8c0.6,3.8-3.8,6.3-6.9,7.5c-0.7,1.5-1.8,2.5-3.3,2.9l0.1,0.1l0.6,0.4l0.2-0.1
			c0.4,0.4,0.7,0.7,1,1.2l0.1,0.1l0.2,0.3l0.4,0.8l0.1,0.4l0.2,1c1.2,0.7,0.8,0.8,2.3,0.2c2.1-0.9,5.3,0.3,6.8,1.9
			C1188.1,507.8,1188.4,508.2,1188.7,508.8z M1021.9,403.6L1021.9,403.6l-1,0.3l0.9,0.6L1021.9,403.6z M1065.6,683.9
			c0.9-1.1,1.8-2.1,2.6-3.3C1067.2,681.7,1066.3,682.8,1065.6,683.9z M1076.1,507.8l-0.2-0.1l0.1,0.2L1076.1,507.8z M1108.7,479.9
			c-0.4,0-0.7-0.1-1.1-0.2c0.2,0.5,0.3,1,0.5,1.5C1108.2,480.9,1108.4,480.4,1108.7,479.9z M1143.5,455.2c-0.2-1-0.4-2-0.6-3
			l-0.1-0.6c-0.2-0.8-0.3-1-0.2-0.4c-0.5-0.1-1.5,0-2.4,0.2c1,1.1,1.7,2.3,2.1,3.7C1142.8,455.1,1143.1,455.1,1143.5,455.2z"/>
	</g>
	<g>
		<defs>
			<rect id="SVGID_00000059285933261885524090000015872990650813702532_" width="1610" height="966"/>
		</defs>
		<clipPath id="SVGID_00000018937841188883219770000007735149458760159911_">
			<use xlink:href="#SVGID_00000059285933261885524090000015872990650813702532_"  style="overflow:visible;"/>
		</clipPath>
		<polygon style="clip-path:url(#SVGID_00000018937841188883219770000007735149458760159911_);" points="28.8,746.8 170.1,712.2 
			231,710.4 356.9,706.2 574.6,692.6 789.6,704.8 1004,682.2 1189.1,712.2 1385.4,702.2 1378.5,908.3 28.8,908.3 		"/>
	</g>
	<g>
		<defs>
			<rect id="SVGID_00000021086731278263953920000015070844657888335762_" width="1610" height="966"/>
		</defs>
		<clipPath id="SVGID_00000076574158789321993100000018166978422265407923_">
			<use xlink:href="#SVGID_00000021086731278263953920000015070844657888335762_"  style="overflow:visible;"/>
		</clipPath>
		<polyline style="clip-path:url(#SVGID_00000076574158789321993100000018166978422265407923_);" points="1401.8,697.7 
			1642.4,716.8 1694.2,712.9 1694.2,967.3 327.4,967.3 327.4,856.8 285.4,852.3 		"/>
	</g>
	<g>
		<defs>
			<rect id="SVGID_00000103955330383239385560000000565625747863109812_" width="1610" height="966"/>
		</defs>
		<clipPath id="SVGID_00000104678003503695387630000013890201584537621416_">
			<use xlink:href="#SVGID_00000103955330383239385560000000565625747863109812_"  style="overflow:visible;"/>
		</clipPath>
		
			<rect x="291" y="901.7" style="clip-path:url(#SVGID_00000104678003503695387630000013890201584537621416_);" width="70" height="41"/>
	</g>
	<g>
		<defs>
			<rect id="SVGID_00000041296321228467242150000007277906123550338740_" width="1610" height="966"/>
		</defs>
		<clipPath id="SVGID_00000175300576126417418610000018207095849646396313_">
			<use xlink:href="#SVGID_00000041296321228467242150000007277906123550338740_"  style="overflow:visible;"/>
		</clipPath>
		<polyline style="clip-path:url(#SVGID_00000175300576126417418610000018207095849646396313_);" points="91.8,731.4 -17.8,745.8 
			-17.8,908.3 -17.8,967.3 327.4,967.3 		"/>
	</g>
	<g>
		<defs>
			<rect id="SVGID_00000139287956950916184440000012837259352865142148_" width="1610" height="966"/>
		</defs>
		<clipPath id="SVGID_00000153700766009397480590000005358072084733941664_">
			<use xlink:href="#SVGID_00000139287956950916184440000012837259352865142148_"  style="overflow:visible;"/>
		</clipPath>
		
			<rect x="236.7" y="891.2" style="clip-path:url(#SVGID_00000153700766009397480590000005358072084733941664_);" width="124.1" height="76.1"/>
	</g>
	<g>
		<defs>
			<rect id="SVGID_00000067925084061848217140000002430395375525248647_" width="1610" height="966"/>
		</defs>
		<clipPath id="SVGID_00000000224497784233406460000013073805279712275342_">
			<use xlink:href="#SVGID_00000067925084061848217140000002430395375525248647_"  style="overflow:visible;"/>
		</clipPath>
	</g>
</g>
</svg>
