<?xml version="1.0" encoding="utf-8"?>
<!-- Generator: Adobe Illustrator 27.7.0, SVG Export Plug-In . SVG Version: 6.00 Build 0)  -->
<svg version="1.1" id="Layer_1" xmlns="http://www.w3.org/2000/svg" xmlns:xlink="http://www.w3.org/1999/xlink" x="0px" y="0px"
	 viewBox="0 0 1610 966" style="enable-background:new 0 0 1610 966;" xml:space="preserve">
<style type="text/css">
	.st0{clip-path:url(#SVGID_00000046332207995548711960000007783677368697073854_);}
	.st1{clip-path:url(#SVGID_00000139995778595861646900000002223454931865578402_);}
	.st2{clip-path:url(#SVGID_00000043457133915507760180000004813314773722171306_);}
	.st3{clip-path:url(#SVGID_00000045579070547118485080000004325140193024964271_);}
	.st4{clip-path:url(#SVGID_00000106130236328566436010000015080153823241090992_);}
	.st5{clip-path:url(#SVGID_00000055681956789682278850000003051511611476985750_);}
	.st6{clip-path:url(#SVGID_00000036251950012384219280000014099153513271447447_);}
	.st7{clip-path:url(#SVGID_00000122681311128390390390000012889214821461295774_);}
	.st8{clip-path:url(#SVGID_00000182519228879519782230000009883576469450450090_);}
	.st9{clip-path:url(#SVGID_00000124120730820731655360000016206042418622190513_);}
</style>
<g>
	<g>
		<defs>
			<rect id="SVGID_1_" width="1610" height="966"/>
		</defs>
		<clipPath id="SVGID_00000109729187484533875140000002469344050847103158_">
			<use xlink:href="#SVGID_1_"  style="overflow:visible;"/>
		</clipPath>
		<path style="clip-path:url(#SVGID_00000109729187484533875140000002469344050847103158_);" d="M-75.4,300.8v-0.1V300.8z"/>
	</g>
	<g>
		<defs>
			<rect id="SVGID_00000119839557664158815650000017598411053902447508_" width="1610" height="966"/>
		</defs>
		<clipPath id="SVGID_00000139268832141868937970000018241435311711403656_">
			<use xlink:href="#SVGID_00000119839557664158815650000017598411053902447508_"  style="overflow:visible;"/>
		</clipPath>
		<polygon style="clip-path:url(#SVGID_00000139268832141868937970000018241435311711403656_);" points="-49.9,87.1 -49.9,87.1 
			-50,87 		"/>
	</g>
	<g>
		<defs>
			<rect id="SVGID_00000025442745500393774920000017221351443933114268_" width="1610" height="966"/>
		</defs>
		<clipPath id="SVGID_00000093175315897313727230000009932353504436773309_">
			<use xlink:href="#SVGID_00000025442745500393774920000017221351443933114268_"  style="overflow:visible;"/>
		</clipPath>
		<path style="clip-path:url(#SVGID_00000093175315897313727230000009932353504436773309_);" d="M-36.4,192.3v-0.1V192.3z"/>
	</g>
	<g>
		<defs>
			<rect id="SVGID_00000000189560749668849420000015045694198192397711_" width="1610" height="966"/>
		</defs>
		<clipPath id="SVGID_00000088117019177819862200000011422290951338763429_">
			<use xlink:href="#SVGID_00000000189560749668849420000015045694198192397711_"  style="overflow:visible;"/>
		</clipPath>
		<path style="clip-path:url(#SVGID_00000088117019177819862200000011422290951338763429_);" d="M1596.1,504.4
			c2.2,3.5,1.2,7.6-1.8,9.9c0.2,0.6,0.3,1.2,0.3,1.8l0,0c0.5,5.4-2.9,9.2-8.1,8.5c-1.1,1.5-2.5,2.3-4.4,2.1c-0.9-0.1-1.7-0.6-2.5-1
			c0,0.2-0.1,0.6-0.2,1.2c0,0.4,0.2,0.8,0.4,1.2l0.5,0.8c0.3,0.4,0.5,0.8,0.7,1.2c0.4,1.2-1,3.1-1.8,3.6c-2.5,1.5-5.2,3-7.9,4
			l-0.6,0.3l0.3,0.7l0.2,0.5l0.5,0.9c1.1,1.5,2.4,2.8,3.1,4.6c1,2.9-1.3,5.1-3.5,6c-1.2,0.5-2.7,0.8-4.4,0.9c-0.7,0.4-1.4,0.7-2.2,1
			c1.2,1.8,1.7,4,0.7,6.8c-1.5,4-6.8,3.7-10.4,2.9c-1.4,1-3,1.3-4.6,0.8v0.1l0.4,0.8h0.3c0.2,0.6,0.3,1.2,0.3,1.8v0.1v0.4v1
			l-0.1,0.4l-0.4,1c0.7,1.4,0.4,1.2,2.1,1.6c2.4,0.4,4.8,3.5,5.3,6.1c0.1,0.7,0.1,1.3,0.1,1.9c0.3,4.2-2.6,7.1-6.3,7.4
			c-0.1,0.6-0.4,1.1-0.6,1.7l0,0c-2.1,5-6.8,6.2-11,2.7c-1.5,0.6-2.9,0.5-4.4-0.5l-0.4,0.3c-0.9,2.3,0.3,2.2,0.4,4.5
			c0.2,6.4-8.7,4.5-13.8,2.3c-0.5,0.1-0.9,0.1-1.4,0.2c0.2,1.2,0.3,2.5,0.1,3.7c-0.2,1.3-0.9,2.1-1.8,2.6l-0.3,0.9
			c-2.7,2.6-5.8,2-8.9,1c-2.4,3.3-6.7,1.9-10-0.9c-1.3,0.8-3.1,0.6-4.9-0.8c-1.7-1.3-2.6-3.2-3.4-5.1c-2.9,0.5-5.6-0.5-7.7-2.8
			c-1.2,0.4-2.3,0.5-3.5,0.3c-0.5,0.1-1.1,0.2-1.7,0.2c-1.5,0-4.5-1.3-5.3,0.2c-0.3,0.5-0.4,1-0.5,1.3c-0.2,1,0.5,1.5,0.4,3.2
			c-0.4,6.4-9.1,3.5-14,0.7h-0.8l-0.3,0.2c-0.5,0.2-1.1,0.4-1.7,0.7c0.5,2.1,0.5,4.3-1.3,5.7c-2.4,2-5.1,1.6-7.7,0.6
			c-1.9,3.3-4.1,6.5-5.1,10.4c-0.9,3.7-1.3,7.5-1.3,11.3c-0.3,17.7,4.1,35.1,5.5,52.7c0.4,5.1,0.7,11.9,2.4,17.4l0.1-0.4
			c0.7-5.6,0.9-11.2,3.7-16.1c0.4-0.8,1.5-0.1,1.1,0.7l-0.3,0.7v0.1c-0.9,4-1.2,7.9-1.2,11.8c1-4.5,2.6-8.9,4.8-12.8
			c0.3-0.5,0.9,0,0.7,0.5c-3,7.6-4.1,15.5-4.4,23.6l0.3,0.4c-0.2-2.3,1-5.4,1.3-7c1-4.6,2.8-8.6,5.6-12.3l0.2,0.2l-0.5,1.1
			c0.7-1.1,1.4-2.2,2-3.3c0.4-0.6,1.1-0.1,0.9,0.5c-1.5,3.9-3.8,7.5-4.6,11.7c-0.2,1.3-0.4,2.7-0.5,4.1c1.9-3.9,4.5-7.4,7.8-9.5
			c0.4-0.2,0.8,0.4,0.4,0.7l-1,1c0.4-0.2,0.8,0.1,0.6,0.6c-0.3,0.5-0.5,1-0.8,1.5c0.6-0.6,1.2-1.3,1.8-1.9l0.6,0.7
			c-1.8,2.7-3.7,5.3-5.2,8.3c-1,2.1-1.5,4.1-1.9,6.2l0.6-1.2c1.5-2.5,3.3-5,5.9-6.2l0.5,0.7l-0.1,0.1c0.8-0.4,1.6-0.8,2.4-1.1
			l0.3,0.6c-2.2,1.3-4,3.4-5.3,5.9c0.7-0.6,1.3-1.2,1.9-1.8l0.5,0.6c-1.7,2.2-3.6,4.2-4.5,6.8c-0.1,0.6-0.2,1.2-0.3,1.8l-0.4,0.8
			l-0.1,0.4c-0.1,1.2-1.8,1.6-2,0.3l0,0c-1.4,1.2-4.3,1.7-5.4,1.9c3,4-1.9,5.1-4.6,5.6c-3.5,0.6-6.9,1.7-10.4,1.7h-0.4l0.2,0.2v0.4
			c-0.7,0-1.4,0-2.1-0.1c-1.4-0.1-3.9,0.1-4.9-1.1c-0.3-0.6-0.6-1.2-0.8-1.8h-0.4c0.1,0.4,0.1,0.9,0.2,1.3h-0.2l-0.5-0.4
			c-0.7-0.5-1.3-0.7-1.8-0.5v-0.1l-1,0.2v0.6c-0.4,0-0.9,0-1.3,0.1l-0.5,0.1v-0.4h-0.1v0.4c-0.7,0.2-1.3,0.5-2,0.8
			c-1.3,1.4-1.9,3.5-4.3,3.8c-2.2,0.2-4.5,0-6.7-0.3c-3-0.4-6-1.3-8.6-3.1c-0.6-0.3-1.1-0.8-1.4-1.5c-0.5,0.1-1,0-1.4-0.4
			c-0.6-0.8-0.2-2.3,0.2-3.5c-1.2,0.6-2.5,1.1-3.8,1.4c-2-0.5-4.1-1.1-6.2-1.6c-1.2,0-2.5-0.1-3.7-0.2c-2.7-0.3-3.5-1-3.3-1.9h-0.2
			c-4.1-3.5-7.7-6.9-13.3-7c-0.4,0-0.5-0.7-0.1-0.8c4.5-0.8,8.2,0.4,11.8,2.7c-0.4-0.7-0.9-1.4-1.5-2l0,0c-1-1-2.2-1.8-3.5-2v-0.3
			l1,0.1c-0.8-0.5-1.5-1-2.4-1.4c-0.4-0.1-0.4-0.9,0.1-0.8c1.2,0.2,2.4,0.6,3.5,1.1c-1.9-1.9-4.1-3.2-6.8-3.3v-0.6
			c4-0.5,8.2,1.7,10.9,4.9c1.2,1.4,3,3.4,3.9,5.6l0,0c-0.1-0.5-0.1-1-0.3-1.7c-0.3-1.5-0.6-3-1.2-4.3c-1.2-2.8-3.1-5.8-5.6-7.4
			l0.2-0.6c2.9,1.3,4.9,3.6,6.7,6.3l0.6,1v-0.5c-0.6-3.4-1.8-7.5-4.6-9.3c-0.5-0.3-0.1-1.1,0.4-0.8c3.3,1.5,4.6,5.5,5.8,8.8
			c0.4,1.1,1.1,3,1.5,4.9c1.1-6,0.8-13.1-3.7-17.4l0.2-0.3c2.4,1.4,4,3.6,5,6.2c0.9,1.6,1.7,3.2,2.2,5c0.2-0.4,0.3-0.9,0.4-1.3
			c0-3.8-0.4-7.6-2.3-11l0.4-0.3c1.6,2.1,2.5,4.4,3,6.9c0.7-4.4,0.7-9.1,0.8-13.6c0.1-10.7-0.2-21.3,0-32c0.1-5.8,0.4-11.6,1-17.4
			c0.5-5.1,0.1-10.1-0.1-15.2c-0.3-5.1-0.7-9.3-2.9-13.6c-2.3,0.8-4.8,0.1-7.2-0.9c-2.7,3.1-6.9,1.2-9.8-2c-1.4,0.6-3.1,0.3-4.9-1.3
			c-0.5-0.5-0.9-1.1-1.3-1.7c-3.7,4.7-10.6,7.1-15.8,5.7c-2.6-0.7-4.7-2.8-6.2-5.3l-1.1,0.5c-1.7,0.4-3.3-0.1-4.9-0.5
			c-1.8-0.4-3.4,0-5.2-0.4c-3.2-0.9-4.7-4.3-5.6-7.4l-0.3-0.6c0.2,1.8-0.3,3.5-1.8,4.9c-2.1,2-4.9,1.7-7.5,1.5
			c-0.9,2.4-3.3,2.8-5.8,2.2l0,0l0,0c-0.9-0.2-1.8-0.5-2.7-0.9c-3.5,5.2-10.9,8.1-16.5,6.5c-5.6-1.5-9.3-9.2-8.1-15.4
			c-0.9-1.1-1.5-2.3-2.1-3.6c-5.1-2.1-6.7-8.2-4.4-13.3h-0.1c-3.4,3.8-10.7,4.3-14.6,3c-2.3-0.8-4.9-3-4-6c0.6-2,1.9-3.3,3-5
			c0.3-0.4,0.6-1.1,0.8-1.8l0.2-0.5l-0.7-0.2c-2.8-0.9-5.7-2.2-8.4-3.6c-0.9-0.5-2.4-2.4-2.1-3.7c0.1-0.4,0.4-0.9,0.6-1.3l0.5-0.9
			c0.2-0.4,0.4-0.8,0.3-1.3c-0.1-0.6-0.2-1-0.2-1.2c-0.8,0.5-1.7,1.1-2.6,1.2c-2,0.4-3.6-0.3-4.7-1.8c-5.4,1-9.2-2.7-8.9-8.3l0,0
			c0-0.6,0.1-1.2,0.2-1.9c-3.3-2.3-4.6-6.4-2.5-10.2c0.3-0.5,0.6-1.1,1-1.7c1.6-2.1,5.2-3.6,7.8-2.5c1.8,0.6,1.3,0.5,2.6-0.4
			l0.1-1.2l0.1-0.4l0.4-1l0.2-0.4l0.1-0.1c0.3-0.5,0.6-1,1.1-1.5l0.3,0.1l0.7-0.5l0.1-0.1c-1.7-0.4-3.1-1.5-3.9-3.1
			c-3.7-1.1-8.8-3.7-8.3-8.3c0.3-3.1,1.7-4.8,3.6-5.9c-2.3-2.8-4-6.1-2.6-9.4c0.4-1.1,1-1.9,1.6-2.5l0,0l0.2-0.2l0,0
			c0.5-0.5,1-0.8,1.5-1.1l0.4-0.2c1-0.5,2.2-0.7,3.5-0.8h0.4c0.6,0,1.2,0,1.8-0.1c0.7-2.4,2.6-3.5,4.9-4.1c-0.3-1.9-0.6-3.8-1.5-4.8
			c-2.6-2.9,0.6-6.1,3.2-3.4c0.1-1.6,0.3-3.1,1.4-4.1c-0.4-1.5-0.3-2.9,0.5-4.3c-1.3-1.3-1.9-3-1.1-5c0.2-0.5,0.5-0.9,0.9-1.3
			c0-2,0.2-3.8,0.8-5.4c1.1-2.9,2.7-3.9,4.7-4.1c-2-3.5-2.7-7.6-0.8-11.3c1.4-2.6,1.2-5.6,2.7-8.1c1.7-2.9,3.7-1.9,5.8-1.3
			c0.1-1.8,0.6-3.4,1.5-5c-3.5-3-6.4-7-8-11.3c-0.3-0.7-0.5-1.5-0.6-2.2l-0.1-0.7l-0.1-1.2v-0.8l0.1-1l0.2-0.8l0.3-0.8l0.4-0.7
			l0.5-0.7l0.5-0.6l0.7-0.6l0.5-0.4l1-0.5c0.7-0.3,1.5-0.6,2.4-0.8c0.4-4.2,1.8-9.1,5.8-10c2.4-0.5,4.4,0.5,6.4,1.9
			c1,0.7,2.2,1.9,2.8,3.1c0.6-0.5,1.1-1.1,1.6-1.9c1.1-0.3,1.1-0.7,0.2-1.2c-0.9-1-2-1.9-2.7-3.1c-1.4-2.7-1.8-6-1.1-8.9
			c0.6-2.5,2.7-4.4,5-4.7c2.3-0.3,3.6,0.2,5.2,1.2c0.6-0.4,1.1-1.5,1.9-1.8c1.6-0.7,3.1-0.6,4.7,0.3c1.1,0.7,1.9,1.7,2.6,2.8
			c3.1-0.4,6.5,0.6,9.3,2.3c0.4-0.6,0.9-1.1,1.4-1.6c-0.6-1.8-0.2-3.8,2.1-5.2c1.1-0.6,2.4-1,3.6-1.5c0.5-0.2,1-0.4,1.5-0.6
			l-0.4-0.5c-0.3-0.5-0.6-1-0.8-1.5c-2.7,0.3-5.5,0.4-7.5-1c-3.3-2.5-4.2-5.8-3.1-9.3c-0.7-0.9-1-2-0.6-3.3c0.7-2.3,2.9-4.3,4.9-5.7
			c0-1.7,0.4-3.2,1.4-4.9l0.7-1.1v-0.4c-0.4-1.4-0.6-2.7-0.5-4.1c0.2-4.8,5.3-7.4,9.1-8c0.9-0.7,1.8-1.3,2.7-1.9h0.1l0,0
			c2.7-1.6,5.5-2.6,8.7-2.8c1.6-0.1,3.1,0.4,4.1,1.6l0.7-0.2c0.6-0.3,1.2-0.5,1.8-0.6c1-0.2,2,0,3,0.3c1.7,0.6,3.6,3.7,4.8,3.9
			c3.4,0.4,5.2-0.2,7.8-2.5c1.6-1.4,3.1-1.8,4.4-1.4c0.7-2.2,2.6-3.4,5.1-4.5c1.3-0.5,2.7-0.7,4.1-0.6c-1-3-1.3-6.2,0.4-8.7
			c1.5-2,3.1-3.1,5.5-3.3c1.1-0.1,2.2,0,3.4,0.1c0.7,0,1.3,0.1,1.7,0c1.4-0.1,1.8-0.8,1.1-2.9c-1.1-3.4-0.8-8.6,3.2-9.5
			c0.5-0.1,1-0.1,1.6-0.1l0,0l0,0c1.9,0.2,3.9,1.4,5.8,2.7l0,0l1.2,0.8l0.8,0.5c0.6,0.4,1.1,0.7,1.6,1c0.2,0.1,0.7-0.8,1.3-1.5
			l0.2-0.3l0.7-0.5c1.9-0.2,3.5,0.3,5,1.6c2.3,1.8,4.8-1.9,6.4-3.2c1.8-1.5,3.9-1.7,6-1.6c1.7,0.1,3.2,1.8,3.2,3.7
			c0,2-0.4,4-0.6,6.1c-0.1,0.9,0.9,1.7,2,2.4c3.1-1.1,6.8-0.4,8.9,2.2c1.2-1.4,2.4-2.7,3.7-4c1.4-1.4,2.9-1.3,4.5-0.4
			c6.9,3.4,9,15.1,7.2,24.1c1.2,0.4,2.3,1.2,3.4,2.2c1.3,0.5,2.3,1.8,2.6,3.4l0.3,0.5c0.7-0.4,1.3-0.9,1.8-1.6
			c1.1-0.1,1.2-0.5,0.4-1.2c-0.8-1.1-1.7-2.2-2.2-3.5c-1-2.8-1-6.2,0.2-9c1-2.4,3.2-3.8,5.6-3.8c2.3,0,3.6,0.8,4.9,2
			c0.7-0.3,1.3-1.3,2.1-1.5c1.7-0.4,3.2-0.1,4.6,1.1c1,0.8,1.6,1.9,2.1,3.1c4,0.1,8.2,2.6,10.7,5.7c2.2,2.7,3.1,5.9,2.4,9.4l-0.4,1
			l-0.2,0.3l-0.4,0.6l-0.3,0.3l-0.4,0.4l-0.5,0.4l0,0l0,0l-0.4,0.3l-0.2,0.1l0,0l-0.2,0.1l0.7,0.8c0.6,0.7,1.2,1.7,1.4,2.7l0.3-0.2
			l0,0c1.2-0.9,2.4-1.1,4-0.8c0.9-3.8,4-6.3,8.3-5.7c4.9,0.6,6.7,5,7.3,9.5c4.4,2.1,7.7,7.1,6.1,12.6c-0.2,0.5-0.4,0.9-0.6,1.4
			l1,0.2l0,0l0.3,0.1c0.9,0.1,1.7,0.4,2.6,0.8c1.5,0.7,1.2-0.7,2.8-1.3c0.9-0.3,1.8-0.7,2.8-1.1c0.4-0.1,0.8-0.3,1.2-0.4v0.1
			l0.8-0.2c2.5-0.3,3.9-2.3,6.3-2.7c3.5-0.6,7.3,1.4,10,3.6c2.8,2.3,4.8,5.6,5.3,9.4c0.4,3.1-0.7,5.2-2.1,7.4
			c1.6,0.9,3.1,2.2,4.2,3.7c3.1-1.2,6.3-1.5,9.6-0.4c3.4,1.2,3.5,4.8,4.7,7.7c1.8,4.3,5.1,7.7,3.8,12.8l-0.4,0.8l0.2,0.6
			c0.6,2,0,3.5-0.9,5.2c-0.4,0.8-1.3,1.4-2.2,1.9h1.2c0.8,0,1.5,0,2.3,0h0.4c0.7,0,1.3,0.1,1.9,0.2h0.2l0,0c1.2,0.2,2.4,0.5,3.6,1.3
			c1.7,1.2,2.5,3,2.8,4.9l0.6,0.1l0,0l0.3,0.1l0.8,0.3l0.5,0.2l0.7,0.4l0.5,0.3l0.6,0.4l0.4,0.4l0.4,0.5l0.4,0.6l0.3,0.5l0.3,0.7
			l0.2,0.6l0.1,0.4l0,0v0.2v0.2l0.1,0.5c0,0.4,0,0.9-0.1,1.4c3.3,3.4,3.9,8.8,0,10.6l0.4,0.7c0.6,1,1.1,3.3-0.2,3.9
			c-1.5,0.7-2.8,0.9-4.2,0.9c3,4.8,8.4,11.4,3.6,15.4h-0.1c0.4,0.5,0.9,1,1.1,1.8c0.6,0,1.2,0,1.7,0h0.4c1.2,0,2.3,0.2,3.3,0.6
			l0.4,0.1c0.5,0.2,1,0.5,1.4,0.9l0,0l0,0l0.2,0.2l0,0l0,0c0.6,0.6,1.2,1.3,1.7,2.3c1.6,3.1,0.1,6.4-2,9.2c1.9,0.9,3.4,2.5,3.8,5.4
			c0.6,4.3-4.1,7.1-7.6,8.4c-0.7,1.6-1.9,2.8-3.6,3.2l0.1,0.1l0.7,0.4l0.3-0.1c0.4,0.4,0.8,0.8,1.1,1.3l0.1,0.1l0.2,0.3l0.4,0.9
			l0.1,0.4l0.2,1.1c1.3,0.8,0.9,0.9,2.5,0.2c2.2-1,5.8,0.3,7.4,2.2C1595.5,503.2,1595.8,503.8,1596.1,504.4z M1414.5,386.9
			L1414.5,386.9l-1.1,0.3l0.9,0.7L1414.5,386.9z M1462.1,700.1c1-1.2,2-2.4,2.8-3.7C1463.8,697.5,1462.8,698.7,1462.1,700.1z
			 M1473.5,503.3l-0.3-0.1l0.1,0.2L1473.5,503.3z M1509,472.1c-0.4,0-0.8-0.1-1.2-0.2c0.2,0.5,0.4,1.1,0.5,1.7
			C1508.5,473.1,1508.7,472.6,1509,472.1z M1546.9,444.6c-0.2-1.1-0.4-2.2-0.7-3.3l-0.1-0.7c-0.3-0.9-0.3-1.1-0.2-0.5
			c-0.6-0.1-1.6,0-2.6,0.2c1.1,1.2,1.8,2.6,2.3,4.1C1546.1,444.4,1546.5,444.5,1546.9,444.6z"/>
	</g>
	<g>
		<defs>
			<rect id="SVGID_00000101091583440392626320000010813162446741155252_" width="1610" height="966"/>
		</defs>
		<clipPath id="SVGID_00000041297409915168751830000007424224066179507099_">
			<use xlink:href="#SVGID_00000101091583440392626320000010813162446741155252_"  style="overflow:visible;"/>
		</clipPath>
		<polygon style="clip-path:url(#SVGID_00000041297409915168751830000007424224066179507099_);" points="28.8,746.9 170.1,712.2 
			231,710.5 356.9,706.2 574.6,692.6 789.6,704.9 1004,682.2 1189.1,712.2 1385.4,702.2 1378.5,908.4 28.8,908.4 		"/>
	</g>
	<g>
		<defs>
			<rect id="SVGID_00000162334971765922964030000016677809021237022874_" width="1610" height="966"/>
		</defs>
		<clipPath id="SVGID_00000083795269702540540420000015648508170705007237_">
			<use xlink:href="#SVGID_00000162334971765922964030000016677809021237022874_"  style="overflow:visible;"/>
		</clipPath>
		<polyline style="clip-path:url(#SVGID_00000083795269702540540420000015648508170705007237_);" points="1401.8,697.7 
			1642.4,716.8 1694.2,713 1694.2,967.4 327.4,967.4 327.4,856.8 285.4,852.4 		"/>
	</g>
	<g>
		<defs>
			<rect id="SVGID_00000117676620991775363630000005518118967564494469_" width="1610" height="966"/>
		</defs>
		<clipPath id="SVGID_00000157279293111010079070000013179167467904497086_">
			<use xlink:href="#SVGID_00000117676620991775363630000005518118967564494469_"  style="overflow:visible;"/>
		</clipPath>
		
			<rect x="291" y="901.7" style="clip-path:url(#SVGID_00000157279293111010079070000013179167467904497086_);" width="70" height="41"/>
	</g>
	<g>
		<defs>
			<rect id="SVGID_00000055703987159046864520000000142318258459216561_" width="1610" height="966"/>
		</defs>
		<clipPath id="SVGID_00000044155582782998935920000011061783579327089594_">
			<use xlink:href="#SVGID_00000055703987159046864520000000142318258459216561_"  style="overflow:visible;"/>
		</clipPath>
		<polyline style="clip-path:url(#SVGID_00000044155582782998935920000011061783579327089594_);" points="91.8,731.5 -17.8,745.8 
			-17.8,908.4 -17.8,967.4 327.4,967.4 		"/>
	</g>
	<g>
		<defs>
			<rect id="SVGID_00000165204139472839123840000006879689352371846538_" width="1610" height="966"/>
		</defs>
		<clipPath id="SVGID_00000103948364473157626750000004993945050229667238_">
			<use xlink:href="#SVGID_00000165204139472839123840000006879689352371846538_"  style="overflow:visible;"/>
		</clipPath>
		
			<rect x="236.7" y="891.2" style="clip-path:url(#SVGID_00000103948364473157626750000004993945050229667238_);" width="124.1" height="76.1"/>
	</g>
	<g>
		<defs>
			<rect id="SVGID_00000168095888350062292510000012283897878961632665_" width="1610" height="966"/>
		</defs>
		<clipPath id="SVGID_00000170958142763622823200000018212785680895644056_">
			<use xlink:href="#SVGID_00000168095888350062292510000012283897878961632665_"  style="overflow:visible;"/>
		</clipPath>
		<polygon style="clip-path:url(#SVGID_00000170958142763622823200000018212785680895644056_);" points="656.9,507.3 656.7,507.2 
			656.8,507.4 		"/>
	</g>
</g>
</svg>
