<?xml version="1.0" encoding="utf-8"?>
<!-- Generator: Adobe Illustrator 27.7.0, SVG Export Plug-In . SVG Version: 6.00 Build 0)  -->
<svg version="1.1" id="Layer_1" xmlns="http://www.w3.org/2000/svg" xmlns:xlink="http://www.w3.org/1999/xlink" x="0px" y="0px"
	 viewBox="0 0 1610 966" style="enable-background:new 0 0 1610 966;" xml:space="preserve">
<style type="text/css">
	.st0{fill:#606060;}
	.st1{fill:#454545;}
</style>
<path class="st0" d="M1677.6,212.6v-0.1V212.6z"/>
<polygon class="st0" points="1652,-1.1 1652.1,-1.1 1652.1,-1.2 "/>
<path class="st0" d="M1638.6,104.1L1638.6,104.1L1638.6,104.1z"/>
<path class="st1" d="M1459.7,453.5c0-1.6-1.1-2.9-2.8-3.7l-0.6-0.3l0,0c-0.4-0.2-0.8-0.3-1.2-0.4l0,0h-0.1l-0.8-0.1l-0.4-0.1
	c-0.4,0-0.8,0.1-1.2,0.2l-1.8-0.4c-0.5-0.1-1,0-1.5,0c-1.5-0.5-1.7-0.7-0.9-0.6l0.7-0.1c1.2-0.3,2.1-0.5,2.1-1.5
	c0-1.1-0.6-3.1-2-3.7c-0.7-0.3-1.4-0.4-2.1-0.6c-1.3-0.3-0.4-0.8,0.6-0.9c1.5-0.1,2.2-0.7,2-1.8l-0.2-0.2c0.4-0.5,0.7-1.1,0.5-1.7
	s-0.8-1-1.5-1.2c0.2-0.3,0.4-0.6,0.7-0.9c-0.1-0.3-0.4-0.6-0.7-0.9c-0.3-0.2-0.6-0.4-0.8-0.7c-0.3-0.4-0.4-0.8-0.8-1.1
	c-0.4-0.4-1-0.9-1.7-1c-0.5-0.1-1,0.1-1.3,0.4c-0.4,0.4-0.5,0.8-1.2,0.9c-0.4,0.1-0.8,0.1-1.2,0.2c-0.4,0.1-0.6,0.3-0.8,0.5
	l-0.6,0.5l-0.4,0.1c-0.8-0.2-1.5-0.5-2.2-0.8c-0.5,0.1-1,0.1-1.5,0.2l-0.2-0.5c-0.9-1.3-2.5-2.9-4.3-3.5c-1.4-0.4-3.2,0.6-3.8,1.5
	h-0.4l-0.7,0.1c0.3-0.3,0.4-0.6,0.3-1.1c-0.3-1.1-1.4-2.9-3-3.2c-0.7-0.1-1.5-0.1-2.2-0.2c-1.4-0.1-0.6-0.8,0.3-1
	c1.4-0.4,2-1,1.5-2.1l-0.2-0.2c0.3-0.6,0.4-1.2,0-1.7l-0.4-0.3c3.2,0.2,5.4-1.4,5.1-3.8l0,0c0-0.3-0.1-0.5-0.1-0.8
	c2-1,2.8-2.9,1.4-4.6c-0.2-0.3-0.4-0.5-0.7-0.8c-1-0.9-3.3-1.5-4.8-1.1c-1.1,0.3-0.8,0.3-1.7-0.1c0-0.3-0.1-0.6-0.3-0.8l-0.1-0.2
	l-0.4-0.4l-0.6-0.6l-0.2,0.1l-0.4-0.2l-0.1-0.1c1.1-0.2,1.9-0.7,2.4-1.5c2.3-0.6,5.4-1.8,5.1-3.8c-0.2-1.3-1.2-2.1-2.4-2.5
	c1.4-1.3,2.4-2.7,1.5-4.2c-0.3-0.5-0.7-0.8-1.1-1.1l0,0l0,0l-0.1-0.1l0,0l-0.1,0.2l-0.8-0.4l-0.3-0.1l-0.9-0.2h-0.1
	c-0.4-0.1-0.7-0.1-1.1-0.1h-0.3c-0.4,0-0.7,0-1.1,0c-0.1-0.3-0.4-0.6-0.7-0.8h0.1c3.2-1.7-0.2-4.9-2.1-7.1c0.9,0,1.8,0,2.8-0.4
	c0.9-0.3,0.6-1.3,0.2-1.8l-0.3-0.4c2.6-0.8,2.3-3.2,0.2-4.9l0.1-0.7v-0.2V378v-0.1l0,0v-0.2l-0.1-0.2l-0.2-0.3l-0.2-0.2l-0.3-0.3
	l-0.3-0.2l-0.3-0.2l-0.4-0.2l-0.4-0.2l-0.4-0.2l-0.4-0.1l-0.4-0.1l-0.3-0.1l0,0l-0.4-0.1c-0.1-0.9-0.7-1.7-1.8-2.3
	c-0.7-0.4-1.5-0.6-2.3-0.7l0,0h-0.1c-0.4-0.1-0.8-0.1-1.2-0.1h-0.4c-0.5,0-1,0-1.5,0h-0.8c0.6-0.2,1.2-0.5,1.5-0.8
	c0.7-0.8,1.1-1.5,0.7-2.4l-0.1-0.3l0.3-0.4c1-2.4-1.1-4-2.2-6c-0.8-1.3-0.8-3-2.9-3.6s-4.2-0.5-6.3,0c-0.7-0.7-1.6-1.3-2.6-1.8
	c0.9-1,1.7-2,1.5-3.4c-0.3-1.8-1.5-3.4-3.3-4.5c-1.7-1.1-4.2-2-6.5-1.8c-1.6,0.1-2.6,1.1-4.2,1.2l-0.5,0.1l0,0l-0.8,0.2
	c-0.6,0.1-1.2,0.3-1.8,0.4c-1.1,0.3-0.9,0.9-1.9,0.6c-0.5-0.2-1.1-0.3-1.7-0.4l-0.2-0.1l0,0l-0.7-0.1l0.4-0.6
	c1.2-2.5-0.9-4.9-3.8-5.9c-0.3-2.1-1.4-4.2-4.6-4.5c-2.8-0.3-4.9,0.8-5.5,2.5c-1-0.1-1.8-0.1-2.6,0.3l0,0l-0.2,0.1
	c-0.1-0.5-0.5-0.9-0.9-1.3l-0.5-0.4l0.1-0.1l0.1-0.1l0.1-0.1l0.3-0.1l0,0l0.1-0.1l0.8-0.5l0.1-0.1c0.3-0.2,0.5-0.4,0.6-0.7
	c0.5-1.6,0-3.1-1.4-4.4c-1.6-1.5-4.3-2.6-6.9-2.8c-0.3-0.6-0.7-1.1-1.3-1.5c-0.9-0.6-1.8-0.8-3-0.6c-0.5,0.1-1,0.5-1.4,0.7
	c-0.9-0.6-1.7-1-3.2-1c-1.6-0.1-3,0.6-3.7,1.7c-0.8,1.3-0.9,2.8-0.3,4.1c0.3,0.6,0.9,1.1,1.4,1.7c0.5,0.3,0.5,0.5-0.3,0.5
	c-0.4,0.3-0.8,0.5-1.2,0.7l-0.2-0.3c-0.1-0.6-0.7-1.1-1.4-1.4c-0.7-0.5-1.5-0.9-2.3-1.1c1.4-4.1,0.1-9.5-4.3-11.2
	c-1.1-0.4-2.1-0.5-3,0.1s-1.7,1.2-2.5,1.8c-1.3-1.3-3.7-1.6-5.7-1.1c-0.7-0.3-1.3-0.7-1.3-1.1c0.2-0.9,0.5-1.8,0.5-2.8
	c0-0.8-0.9-1.7-2-1.7c-1.4-0.1-2.8,0-4,0.6c-1.1,0.6-2.8,2.3-4.2,1.4c-1-0.6-2-0.9-3.3-0.8l-0.5,0.2l-0.4,0.3l0,0l-0.1,0.1l0,0
	l-0.5,0.4c-0.3-0.1-0.7-0.3-1-0.5c-1.5-0.8-3.3-1.8-5-2l0,0l0,0c-0.4,0-0.7,0-1.1,0c-2.6,0.4-2.9,2.8-2.2,4.4c0.4,1,0.1,1.3-0.8,1.3
	l0,0c-0.3,0-0.7,0-1.1-0.1c-0.7-0.1-1.5-0.2-2.2-0.1c-1.6,0.1-2.6,0.5-3.7,1.5c-1.3,1.1-1.1,2.7-0.4,4.1c-0.9-0.1-1.9,0-2.7,0.2
	c-1.7,0.4-2.9,1-3.4,2c-0.8-0.2-1.8,0-2.9,0.6c-1.7,1-2.9,1.3-5.1,1.1c-0.8-0.1-1.9-1.6-3-1.9c-0.6-0.2-1.3-0.3-1.9-0.2
	c-0.4,0.1-0.8,0.1-1.2,0.2l-0.4,0.1c-0.7-0.5-1.6-0.8-2.7-0.8c-2,0-4,0.4-5.7,1.1l0,0h-0.1c-0.6,0.3-1.2,0.5-1.8,0.8
	c-2.5,0.2-5.9,1.4-6.1,3.6c-0.1,0.7,0,1.2,0.3,1.9v0.2l-0.5,0.5c-0.7,0.8-1,1.4-1.1,2.2c-1.3,0.6-2.9,1.5-3.3,2.5
	c-0.3,0.6-0.1,1.1,0.3,1.5c-0.8,1.6-0.2,3.1,1.9,4.3c1.3,0.7,3.1,0.7,4.9,0.6l0.5,0.7l0.3,0.3c-0.3,0.1-0.7,0.2-1,0.3
	c-0.8,0.2-1.7,0.3-2.4,0.6c-1.5,0.6-1.8,1.5-1.4,2.4c-0.4,0.2-0.7,0.5-0.9,0.7c-1.8-0.8-4-1.3-6.1-1.2c-0.4-0.5-0.9-1-1.6-1.3
	c-1-0.5-2-0.5-3-0.2c-0.5,0.1-0.9,0.6-1.3,0.8c-1-0.5-1.8-0.8-3.4-0.6c-1.5,0.1-2.9,1-3.4,2.1c-0.5,1.3-0.3,2.9,0.5,4.1
	c0.4,0.6,1.1,1,1.7,1.5c0.6,0.3,0.6,0.4-0.1,0.6c-0.3,0.3-0.7,0.6-1.1,0.8c-0.4-0.5-1.1-1.1-1.8-1.5c-1.3-0.6-2.6-1.2-4.1-1
	c-2.6,0.4-3.7,2.6-4,4.6c-0.6,0.1-1.2,0.2-1.7,0.3l-0.6,0.2l-0.4,0.2l-0.4,0.2l-0.4,0.3l-0.3,0.3l-0.3,0.4l-0.2,0.3l-0.1,0.4
	l-0.1,0.4v0.4l0.1,0.5l0.1,0.4c0.1,0.3,0.2,0.6,0.4,1c1,2,2.8,3.9,5,5.3c-0.6,0.7-1,1.4-1.1,2.3c-1.4-0.3-2.7-0.8-3.8,0.5
	c-1,1.1-0.9,2.5-1.9,3.7c-1.4,1.7-0.9,3.6,0.3,5.2c-1.3,0.1-2.4,0.5-3.1,1.8c-0.4,0.7-0.6,1.6-0.6,2.5l-0.6,0.6
	c-0.5,0.9-0.1,1.7,0.7,2.3c-0.5,0.6-0.7,1.3-0.4,2c-0.7,0.5-0.9,1.1-1,1.9c-1.6-1.3-3.8,0.2-2.2,1.5c0.6,0.5,0.8,1.4,0.9,2.2
	c-1.5,0.2-2.8,0.8-3.3,1.8c-0.4,0-0.8,0-1.2,0h-0.3c-0.4,0-0.8,0-1.2,0.1l0,0c-0.4,0.1-0.7,0.1-1,0.2l-0.3,0.1l-0.9,0.4l0,0l0,0
	l-0.1,0.1l0,0l0,0c-0.4,0.3-0.8,0.6-1.1,1.1c-1,1.5,0,3.1,1.5,4.4c-1.3,0.4-2.2,1.2-2.5,2.7c-0.4,2.1,2.9,3.4,5.3,4
	c0.5,0.8,1.4,1.3,2.5,1.5l-0.1,0.1l-0.4,0.2l-0.2-0.1l-0.6,0.6l-0.4,0.4l-0.1,0.2c-0.1,0.3-0.2,0.5-0.3,0.8
	c-0.9,0.4-0.6,0.4-1.7,0.1c-1.6-0.4-3.9,0.2-5,1.2c-0.3,0.3-0.5,0.5-0.7,0.8c-1.5,1.7-0.7,3.7,1.5,4.7c-0.1,0.3-0.1,0.6-0.2,0.9l0,0
	c-0.3,2.6,2.1,4.3,5.7,4c0.7,0.7,1.7,1.1,3.1,0.9c0.6-0.1,1.2-0.3,1.7-0.5c0,0.1,0.1,0.3,0.1,0.6l-0.2,0.6l-0.4,0.4l-0.4,0.6
	c-0.2,0.6,0.7,1.5,1.3,1.7c1.7,0.7,3.6,1.3,5.4,1.8l0.4,0.1l-0.1,0.2c-0.1,0.3-0.4,0.6-0.6,0.8c-0.7,0.8-1.6,1.4-2,2.3
	c-0.7,1.4,1,2.4,2.5,2.8c2.5,0.7,7.3,0.5,9.6-1.2h0.1c-0.3,0.5-0.6,1-0.7,1.5c-1-0.5-2.5-0.5-3.3,0.2c-0.5,0.4-0.7,1-0.6,1.7
	l-0.3,0.1c-0.9,1-0.5,1.7,0.7,2.4c0.8,0.4,1.3,1.3-0.1,1c-0.7-0.1-1.4-0.3-2.2-0.3c-1.6,0-3.3,1.5-4,2.5c-0.6,0.9,0,1.5,0.9,2.1
	l0.6,0.3c0.8,0.2,0.4,0.3-1.2,0.2c-0.4-0.2-0.9-0.4-1.3-0.5l-1.8-0.3c-0.3-0.3-0.6-0.5-1-0.6l-0.3-0.1c-0.3-0.1-0.6-0.2-0.9-0.2
	h-0.1l0,0c-0.4-0.1-0.9-0.1-1.3-0.1l0,0l-0.8,0.1c-2.1,0.1-3.8,0.8-4.7,2.3c-0.9,1.3,0.9,2.5-0.1,3.6c-0.4,0.4-0.5,0.8-0.5,1.3
	c-0.4,0.4-0.8,0.8-1.1,1.2c-0.4,0.8,0.1,1.6-0.4,2.4l-0.1,0.3l0,0l-0.1,0.3c-0.1,0.4-0.1,0.8-0.3,1.1c-0.1,0.6,0.4,0.7-0.1,1.1
	c-0.4,0.2-0.6,0.4-0.9,0.7l-0.1,0.1l0,0l-0.3,0.3l-0.4-0.4c-1.7-1.4-4.3-1.1-6.1,0c-1.8-0.5-3.8-0.6-5.2,0.8
	c-1.2,1.3-0.9,2.6,0.3,3.5c-0.4,0.4-0.7,0.9-0.5,1.4v-0.1v0.1c-0.4-0.1-0.9,0-1.3,0l-0.4,0.1l0,0l0,0v-0.2v-0.1l0,0V471v-0.1
	l-0.1-0.4l-0.1-0.2l-0.5-0.6c-1.2-0.8-2.6-1-4.1-0.7c-1.7,0.3-3.5,1.3-4.5,2.5c-0.5,0-1.1,0-1.7,0.2c-0.8,0.3-1.2,0.7-1.4,1.3
	c-0.1,0.3,0.1,0.6,0.1,0.9c-0.8,0.3-1.3,0.5-1.8,1.2s-0.5,1.7,0.2,2.4c0.8,0.8,2,1.3,3.3,1.5c0.6,0.1,1.2-0.1,1.8-0.1
	c0.4-0.2,0.6-0.1,0.4,0.3c0.1,0.3,0.2,0.5,0.2,0.8c-0.6-0.1-1.3,0-1.8,0.2c-1,0.3-1.9,0.7-2.4,1.5c-0.8,1.3,0.4,2.7,1.7,3.7
	l-0.3,0.7l-0.1-0.1l-0.1,0.4l-0.1,0.5l0.1,0.6l0.2,0.4l0.6,0.6l0.3,0.3c0.4,0.3,1,0.4,1.6,0.6c1.9,0.4,4.1,0.3,6.1-0.1
	c0.3,0.6,0.7,1,1.3,1.4c-0.8,0.5-1.7,0.9-1.2,1.9c0.4,0.9,1.5,1.5,2,2.4c0.7,1.3,2.3,1.9,4,2c-0.5,0.6-0.6,1.3,0.1,2.2
	c0.4,0.5,0.9,0.9,1.6,1.3l0.2,0.5l0.4,0.4l-0.2,0.1c-1.1,0.7-2.3,1.7-2,2.9c0.2,0.5,0.5,0.9,0.8,1.3l0.3,0.6v0.1
	c-0.3,0.8-1.1,2-0.5,2.7c0.8,1.1,1.8,1.5,3.3,1.8c0,0-0.4,0.3-0.6,0.6c-0.3,0.5-0.4,1.1-0.1,1.7c0.2,0.5,0.5,0.8,1,1
	c-0.8,0.6-1.4,1.3-0.8,2.1c0.7,0.8,1.6,1.2,2.5,1.7c-0.8,1-1.4,2.2,0.4,3c1.3,0.6,3.3,1.3,4.9,1h0.4c0.4,0,0.8,0,1.3-0.1
	c1.1,1,2.7,1.3,4.5,0.7c1.1-0.4,1.8-0.5,3-0.5l0,0c0,0.5,0,1,0.3,1.4s0.7,0.6,1.2,0.6c0.6,0.9,1.7,1.4,3.2,1.3
	c-0.1,0.5-0.7,1-1.1,1.4c-0.9,1.1-1.5,2.6-0.2,3.7c0.7,0.6,1.6,0.8,2.5,0.8c0.7,1.9,3.2,3.1,5.7,2.2c0.6,0.2,1.2,0.3,1.8,0.3
	c1.5,1.7,5,2.5,7.3,1.4c1.8-0.9,3.1-2.7,3.3-4.5c0.5-0.4,0.8-1,0.6-1.5l0.5-0.2l0,0l0,0c0.3-0.2,0.6-0.4,0.8-0.6
	c1,0.3,2.1,0.4,3.1-0.1c0.7-0.3,1.1-0.9,1.8-1.2c0.4-0.2,0.8-0.4,1.2-0.7c0.5-0.1,0.9-0.2,1.3-0.4c2.1-1,3.5-3.3,3.3-5.3l0.1-0.1
	c0.9,0.1,1.8,0,2.5-0.6c0.7-0.5,0.8-1,1-1.8c0.1-0.6,0.8-0.8,1.2-1.3c0.4-0.6,0.7-1.3,0.7-2c0.4,0.1,0.8,0.1,1.3,0.1
	c1.1-0.1,1.7-0.4,2-1c1.7,0,3.4-0.6,3.7-1.7c12,5.5,19,5.6,29.4,9.1c11.9,4,20.5,17,23.1,31.7s1.7,108.6,1.5,114.4
	c-0.1,4.3-1.3,9.6-2.2,13.5c0.3-2.7,0.8-5.2,0.8-5.2s-3.4,2.9-5,9.7c-3.4-5.3-10.9-8.1-10.9-8.1s4.8,3.9,6.4,7.9
	c-4.7-5.6-16.7-7.2-16.7-7.2s16,5.2,15.9,12.1c-0.5,1.1,9.5,2.5,25.6,3.1c16.1,0.5,23.8,1,25-1c1.2-1.9,5.1-5.9,11.6-6.8
	c-8.4,0.3-12.6,2.1-14.3,3.9c5.7-7.2,11.7-10.4,11.7-10.4s-11.3,0.5-17,7.3v-0.2c2.8-6,3-9.3,3-9.3l-3.8,5
	c-3.7-25.9-3.4-113.5-1.1-122.6c2-7.7,11.6-11.8,18.7-13.3c1.7,0.9,4.3,0.9,5.9-0.1c0.5,0.1,1.1,0.1,1.6,0.1
	c0.8,0.6,1.7,0.7,2.6,0.6l-0.8,0.2c-1.2,0.5-1,1.8-0.7,2.6c0.2,0.5,0.7,0.8,0.7,1.3c0,0.7,0,1.1,0.5,1.7s1.2,0.8,2,0.8l0.5,0.6
	c-0.4,0.6-0.1,1.2,0.7,1.8l0,0l0,0l0.9,0.6c-0.9,1.7-0.1,4.1,1.6,5.4c1.3,1,3.5,1,5.1,0.5c-0.6,0.7-0.3,1.7,0.7,2.1
	c0.7,0.3,1.3,0.4,1.7,1c0.5,0.7,1.3,1.1,2.2,1.5c1.1,0.4,3.7,0.9,4.8,0.1c0.6-0.4,0.9-0.8,0.9-1.5c0-0.2-0.3-0.7,0.1-0.8h0.1
	c1.6,0.6,2.8-0.3,3-1.6c0.7-0.1,1.2-0.5,1.2-1.3c0-0.4-0.2-0.8-0.3-1.2l-0.1-0.5h0.3h0.6c0.5,0.8,1.1,1.5,2,1.8
	c1.5,0.5,2.7,0.2,3.6-0.6c0.4,0,0.8,0,1.2-0.4l0.2-0.4c0,0.6,0,1.3,0.7,1.8c0.5,0.3,0.9,0.5,1.5,0.6c1,0.2,1.6,0.4,2.4,0.8
	c1.4,0.8,3,0.7,4.1,0c0.4,0.1,0.7,0.2,1.1,0.3h0.4c1.2,0.5,3.1,0.2,4.4-0.1c1.7-0.5,1.5-1.5,1.1-2.5c0.9-0.3,1.8-0.5,2.5-1.1
	s0.4-1.3-0.2-1.9c0.4-0.1,0.8-0.3,1.1-0.7c0.3-0.4,0.4-1,0.3-1.5c-0.1-0.3-0.4-0.6-0.4-0.6c1.4,0,2.3-0.2,3.2-1.1
	c0.7-0.6,0.2-1.7,0.1-2.4v-0.1l0.4-0.5c0.3-0.4,0.8-0.6,1-1c0.6-1-0.2-2-1-2.8l-0.2-0.1l0.4-0.3l0.3-0.4c0.7-0.3,1.2-0.5,1.7-0.9
	c0.8-0.7,0.8-1.3,0.6-1.8c1.5,0.1,3-0.2,3.9-1.2c0.6-0.7,1.7-1,2.2-1.8c0.7-0.8,0-1.3-0.6-1.8c0.6-0.3,1.1-0.6,1.4-1
	c1.6,0.6,3.4,0.9,5.2,0.9c0.6,0,1.1-0.1,1.5-0.3l0.4-0.2l0.6-0.4l0.3-0.3l0.3-0.5v-0.5v-0.3l-0.1,0.1l-0.1-0.6
	c1.3-0.6,2.7-1.6,2.3-2.9c-0.3-0.8-1-1.2-1.8-1.6c-0.4-0.2-1-0.4-1.5-0.4l0.3-0.7c-0.1-0.3,0-0.4,0.4-0.2c0.5,0.1,1,0.3,1.5,0.4
	c1.1,0.1,2.3-0.2,3.2-0.8c0.7-0.5,1-1.3,0.7-2s-0.7-1-1.3-1.3c0-0.2,0.3-0.5,0.3-0.8c0-0.6-0.3-1-0.9-1.3c-0.4-0.2-0.9-0.3-1.4-0.4
	c-0.5-1.2-1.9-2.2-3.3-2.8c-1.2-0.4-2.5-0.4-3.6,0.1l-0.5,0.5l-0.2,0.3l-0.1,0.2l0,0l-0.1,0.1v0.1v0.1v0.1l-0.4-0.1
	c-0.3-0.1-0.7-0.2-1.1-0.2v-0.1l0,0c0.2-0.4,0.1-0.8-0.1-1.3c1.3-0.6,1.7-1.7,1.1-3c-0.8-1.4-2.6-1.6-4.2-1.4
	c-1.3-1.1-3.4-1.7-5.2-0.8l-0.4,0.3l-0.2-0.3h0.1c-0.2-0.3-0.4-0.5-0.7-0.8c-0.4-0.4,0.1-0.4,0.1-1l0.1-0.7V513v-0.4l0,0v-0.3
	c-0.2-0.8,0.4-1.4,0.2-2.1c-0.1-0.4-0.3-0.8-0.6-1.2c0.1-0.4,0.1-0.8-0.1-1.1c-0.6-1.1,1.2-1.9,0.8-3.1c-0.5-1.4-1.8-2.2-3.6-2.6
	l-0.6-0.1l0,0c-0.4-0.1-0.8-0.1-1.2-0.1l0,0h-0.1l-0.7,0.1l-0.4,0.1c-0.4,0.1-0.7,0.2-0.9,0.4h-1.6c-0.4,0.1-0.9,0.2-1.3,0.3
	c-1.4-0.1-1.7-0.3-0.9-0.3l0.5-0.2c0.8-0.4,1.4-0.8,1.3-1.5c1.6-0.1,3.1-0.7,4-1.7c0.6,0,1.2-0.1,1.8-0.2c2.4,1,5,0,5.8-1.9
	c0.9,0,1.8-0.1,2.5-0.7c1.4-1,0.9-2.5,0.1-3.7c-0.3-0.4-0.8-0.9-0.9-1.4c1.5,0.2,2.6-0.3,3.3-1.2c0.5,0,0.9-0.1,1.2-0.5
	c0.5-0.7,0.5-1.7,0.3-2.5l0.1-0.1l0.3,0.3c0.6,0.3,1.1,0.5,1.8,0.5c1.2,0.1,1.9,0.2,2.9,0.6c1.8,0.7,3.5,0.4,4.6-0.5
	c0.4,0.1,0.9,0.1,1.3,0.1h0.4c1.5,0.4,3.6-0.2,4.9-0.7c1.9-0.7,1.3-1.9,0.6-3c0.9-0.5,1.9-0.8,2.6-1.6c0.7-0.7,0.1-1.5-0.6-2.1
	c0.4-0.2,0.8-0.5,1.1-1c0.3-0.5,0.3-1.1,0-1.7c-0.2-0.4-0.5-0.6-0.5-0.6c1.6-0.1,2.6-0.6,3.4-1.6c0.6-0.8-0.1-1.9-0.4-2.7v-0.1
	l0.3-0.6c0.3-0.4,0.7-0.8,0.9-1.3c0.5-1.2-0.7-2.3-1.7-3c-0.3-0.2-0.7-0.4-1-0.6l-0.4-0.1l-0.6-0.2h-0.5h-0.5l-0.5,0.1l-0.4,0.1l0,0
	l-0.3,0.1c-0.1-0.3-0.3-0.5-0.5-0.8c-0.4-0.6-1.1-1-1.6-1.4c1.4-0.6,2.9-1.2,2.6-2.6c-0.2-1.1-0.7-2.2-1.2-3.3
	c0.9,0.3,1.9,0.5,3,0.3c0.5-0.1,0.9-0.2,1.3-0.4l0.3-0.2l0.7-0.5l0.1-0.1h-0.1c0.4-0.4,0.6-0.9,0.5-1.5
	C1457.4,455.3,1459.7,454.9,1459.7,453.5z M1309.8,687.2L1309.8,687.2L1309.8,687.2L1309.8,687.2z M1397.6,382
	c-0.1-0.3,0-0.2,0.1,0.2l0.1,0.3c0.1,0.5,0.3,1,0.4,1.6l-0.8-0.1c-0.3-0.7-0.8-1.4-1.5-1.9C1396.6,382,1397.2,381.9,1397.6,382z
	 M1372.9,396.3l-0.5,0.7c-0.1-0.3-0.2-0.5-0.3-0.8L1372.9,396.3z M1371.8,460.7L1371.8,460.7c0.4,0.4,0.8,0.7,1.3,1l0.1,0.1
	c-0.9,0.3-1.7,0.8-1.7,1.6c-0.1-0.6-0.1-1.6-0.1-2.6L1371.8,460.7z M1371.7,472.2c0.8-1.7,1.9-3.4,3.2-5c0.7,0.5,1.8,0.9,2.9,1
	c0.2,0.5,0.8,0.9,1.9,1c0.4,0.1,0.8,0,1.2,0c-0.1,0.3-0.3,0.5-0.2,0.8c0.1,1,1,1.7,1.9,2.3c-0.4,0.8,0.2,1.5,1.2,2l0,0h0.1l0.4,0.2
	l0.7,0.5v0.6c-2.1,1.3-4.5,2.4-7.9,4c-6.5,3.1-9.8,4-9.8,4S1367.4,480.9,1371.7,472.2z M1349.2,410.2L1349.2,410.2l-0.2-0.1
	L1349.2,410.2z M1338,455.2c0.8,0.4,1.9,0.7,2.9,1c-0.6,0.8-1.2,1.7-1.7,2.3c-1.5,2.1-2.2-0.4-3-3.3
	C1336.8,455.2,1337.4,455.3,1338,455.2z M1312.6,355.5L1312.6,355.5l-0.1,0.4l-0.6-0.3L1312.6,355.5z M1266.2,455l0.7-0.2
	c0.9,1.2,2.3,2.2,4,2.5c3.4,0.7,7.9-0.3,10.4-2.4c0.2,0.3,0.5,0.6,0.8,0.8c1.1,0.8,2.2,1,3.2,0.7c1.5,1.2,3.6,2,5.3,1.6
	c1.5,2.8,3,5.9,5,9.6l0,0c-1.3-0.5-2.2,0-3,0.7c-0.2-0.9-0.8-1.6-2.1-1.6l-0.1-0.5c-0.5-0.9-1.3-1.3-2.3-1.4
	c0.7-1.1,0.9-2.2-0.1-3.1c-1.5-1.2-2.9-0.8-4.6-0.5c-0.7-0.8-2-0.8-3.2-0.6c-0.4-1-0.9-2-2.5-2.1c-1.5-0.2-2.8,0.3-3.6,1.1
	c-0.9-0.1-1.6,0.2-2.1,0.6l-0.1-0.1c-0.6-0.3-1.1-0.4-1.8-0.4l-0.3,0.1h-0.1l-0.3-0.1l-0.6-0.1h-0.4h-0.6l-0.3,0.1h-0.3l0,0
	l-0.5,0.1l-0.6-0.2c1.1-0.6,1.8-1.5,1.5-2.5c-0.3-0.8-0.9-1.5-2-1.8c-0.1,0-0.5-0.1-0.8-0.2C1265.1,455,1265.6,455,1266.2,455z
	 M1272.6,498.8l-0.2,0.1l-0.5-0.3l0.7-0.6C1272.7,498.4,1272.7,498.7,1272.6,498.8z M1264.5,511.1l0.3-0.1c2.1-1.3,3.3-3.9,2.5-5.9
	l0.7-0.3c1.5-0.3,2.6-0.9,2.6-2l0,0c1.3,0.4,2.5,0.9,3.5,1.3c5.3,2.1,8.7,7.2,12,12C1280.6,516.3,1272.2,513.9,1264.5,511.1z
	 M1306.3,518.5c-0.9,1.7-9-5.5-20.3-12.9c-4.5-2.9-7.7-6.1-9.9-9c1.3-0.7,2-1.6,0.9-2.5c-0.7-0.6-1.1-0.3-1.4-1.1
	c-0.2-0.6,1.2-1,1.6-1.4l0.5-0.5c0.4-0.3,0.8-0.5,1-0.9c0.8,0,1.5-0.2,2-0.4l0.2-0.1c1.9,0.8,5.1,0.1,6.6-0.7c0.7-0.4,1.3-1,1.2-1.6
	c0.8-0.4,1.5-1,1.3-1.8c1.3-0.6,2.5-1.3,2.6-2.5c0-0.9-0.8-1.3-1.8-1.7c0.3-0.3,0.6-0.5,0.8-0.8c2.3-0.8,5.8-2.7,3.8-4.1
	c-0.4-0.3-0.7-0.3-1-0.4l-0.1-0.1l0,0l-0.3-0.5c0.3-0.3,0.5-0.6,0.7-0.9l0.7-0.5c0.8-0.8,0.8-1.6,0.1-2.2c0.4-0.6,0.9-1.5,1.1-2.4
	c5.8,10.8,8.7,19.7,8.8,30.2C1305.6,507.6,1307.2,516.8,1306.3,518.5z M1317.1,491.9c-2.8-0.2-15.9-23.3-19.8-32.9
	c-0.1-0.4-0.3-0.8-0.5-1.3l0.7-0.2c1.4-0.7,1.3-1.9,0.8-3c0.6,0,1.3,0.1,1.9,0c1.8,0.8,4.5,1.6,6.5,1.6c0.5,2.4,2.8,4.8,5.9,5.2
	l0.8,0.1c0.1,0.5,0.2,0.9,0.3,1.4C1315.3,471.3,1319.9,492.2,1317.1,491.9z M1329.3,477.8c-0.5,3.6-1.8,10-3.8,10.6s-3.1-3-5.3-17.8
	c-0.4-2.9-1.1-6.3-2-9.9c2-0.6,3.9-1.7,5-3.1c0.3,0.1,0.7,0.1,1,0.2c1.7,0.9,3.7,1.3,5.1,0.2c1.3,0.4,2.6,0.7,3.8,0.6
	c0.5,1.7,0.5,3.1,0.3,4.8C1332.9,467.5,1329.8,474.3,1329.3,477.8z M1354.3,536.6c-1.2,1.1-2.2,2.1-2.9,2.7
	c-3.8,3-8.3,8.1-10.8,10.7s-4.3,1.5-4.1-3.6c0.2-5.2-1.9-13.9-0.6-19.2c0.9-3.6,2.6-8.2,5.5-12.2c0.4,0.3,0.9,0.6,1.3,0.8
	c0.1,0.3,0.3,0.6,0.5,0.8c-0.9,0.1-1.8,0.4-2,1.2c-0.2,1.1,0.7,1.8,1.6,2.5c-0.3,0.7,0.1,1.2,0.7,1.7c-0.2,0.5,0.2,1.1,0.7,1.5
	c1.1,0.9,3.7,1.8,5.5,1.5l0.2,0.1c0.4,0.3,1,0.5,1.6,0.6c0.1,0.3,0.3,0.6,0.6,0.9l0.3,0.5c0.3,0.4,1.4,1,1.1,1.5
	c-0.4,0.6-0.7,0.3-1.4,0.7c-2,1.1,0.9,2.9,2.8,3.8c0.1,0.3,0.4,0.6,0.6,0.8c-0.9,0.2-1.7,0.5-1.8,1.3
	C1353.7,535.8,1354,536.2,1354.3,536.6z M1357.5,541.1h-0.3c-0.3,0-0.1-0.5,0.4-1.4l0.4,0.3C1357.7,540.3,1357.6,540.7,1357.5,541.1
	z M1352.8,497.1c-2,2.3-5.4,5-8.7,7.2c-0.4-0.3-1-0.5-1.7-0.3c-1.3,0.3-1.5,1.3-1.4,2.4c-2.4,1.5-4.5,2.5-5.5,2.7
	c-2.7,0.6-1.9-5.4-1.6-15.3c0.4-9.9,2.7-21.2,8.4-31.2c1.2-2.1,2.3-4,3.3-6c0.8-0.2,1.4-0.7,1.5-1.5c0-0.4,0-0.7-0.1-0.9
	c0.3-0.5,0.5-1,0.8-1.4c0.8-0.2,2.2,0.2,3,0.2c0.4,0,0.8,0,1.1-0.1c0.8,0.1,1.5,0.1,2.3-0.1c0.9,0.7,2,1.2,3.2,1.3l-0.1,0.5
	c0.2,1.2,1.5,1.9,2.8,2.4c-0.1,1.4,1.8,2,3.7,2.1c0.3,0.5,0.9,0.9,2,1c0.8,0.1,1.5-0.1,2.2-0.3c-1,8.2-3.2,16.6-4.5,20.5
	C1362.2,484.5,1360,488.8,1352.8,497.1z M1369.9,546.5L1369.9,546.5L1369.9,546.5L1369.9,546.5z M1403.2,493.6
	c-0.7,0.2-1.5,0.3-2.2,0.6l-0.8-0.5c-0.3-0.4-0.6-0.7-1-1c-1.1-0.9-3-2-4.7-2.1c-1.3-0.1-2.4,1.1-2.7,2l-0.3,0.1
	c-0.4,0.1-0.8,0.3-1.2,0.4l-0.1,0.1l-0.7-0.6c-0.4-0.2-0.9-0.4-1.4-0.4c-0.7-0.1-1.4,0.1-2.1,0.3c-0.4-0.3-0.7-0.5-1.2-0.6
	c-0.9-0.3-1.9,0-2.6,0.4c-0.4,0.3-1.6-0.2-2.2-0.1c-0.9,0.1-1.4,0.5-1.8,1.1l-0.1,0.3v0.1v0.1v0.1v0.1l0.1,0.3l0.1,0.3l0.1,0.1
	l0.1,0.2l0,0l0.1,0.1c0.5,0.7,0.8,0.9-0.3,0.7c-1.1-0.1-2,0-2.6,0.4l-0.5-0.1l0,0h-0.2h-0.3h-0.6h-0.3l-0.6,0.1l-0.1,0.1l-0.7,0.4
	l-0.4,0.7l-1.3,0.2c-1,0.1-1.7,0.6-2.1,1.3c-0.5,0.8,0,1.7,0.7,2.3l-0.5,0.1l-0.4-0.2l0,0l-0.2-0.1l-0.3-0.1l-0.5-0.1h-0.4h-0.5
	h-0.3h-0.1l-0.2-0.1c-0.6-0.1-1.1,0-1.6,0.1l-0.1,0.1c-0.3-0.4-0.8-0.8-1.6-0.8c-0.6-0.8-1.6-1.4-2.8-1.4c3.7-3.2,7.7-6.6,12.3-10.4
	c5.5-4.6,10-7.3,14-9.4c0.5,0.7,1.2,1.3,2,1.8c1.5,0.7,3.5,0.6,5.2,0l0.2,0.4c0.3,0.6,1,0.8,1.1,1.4c0.1,0.8,0.2,1.3,0.9,1.8
	c0.7,0.6,1.6,0.8,2.5,0.7l0.1,0.1c-0.4,2,0.9,4.3,2.9,5.4c0.4,0.2,0.8,0.3,1.3,0.4c0.3,0.3,0.7,0.5,1.1,0.7c0.7,0.4,1,0.9,1.7,1.3
	C1404.3,493,1403.9,493.4,1403.2,493.6z M1408.1,493.6l-0.3,0.2l-0.9-0.3l-0.4-0.3c0.5,0,1,0,1.5-0.1l0.4,0.3L1408.1,493.6z
	 M1418.2,422.3l-0.2-0.1V422l0.4,0.2L1418.2,422.3z M1426.4,450.8l-0.3,0.1c-0.4,0.1-0.8,0-1.1-0.4
	C1425.4,450.7,1425.9,450.8,1426.4,450.8L1426.4,450.8z M1437.2,435.6l-0.3-0.7l0.7-0.1l0.3,0.1l0.1,0.2l0.8,0.4
	C1438.2,435.5,1437.7,435.5,1437.2,435.6z M1445.2,436.8l-0.4,0.1l-0.8-0.5c-0.2-0.3-0.5-0.7-0.9-1l0,0c0.5,0,1,0,1.5-0.1
	c0.4-0.1,0.5-0.4,0.8-0.6c0.7-0.4,1.9,0.3,2.3,0.6c0.3,0.2,0.2,0.5,0.1,0.8h-0.6C1446.4,436.2,1445.8,436.5,1445.2,436.8z"/>
</svg>
