<?xml version="1.0" encoding="utf-8"?>
<!-- Generator: Adobe Illustrator 27.7.0, SVG Export Plug-In . SVG Version: 6.00 Build 0)  -->
<svg version="1.1" id="Layer_1" xmlns="http://www.w3.org/2000/svg" xmlns:xlink="http://www.w3.org/1999/xlink" x="0px" y="0px"
	 viewBox="0 0 1610 966" style="enable-background:new 0 0 1610 966;" xml:space="preserve">
<style type="text/css">
	.st0{clip-path:url(#SVGID_00000138533292619426117950000012310693661632214953_);fill:#606060;}
	.st1{clip-path:url(#SVGID_00000138533292619426117950000012310693661632214953_);fill:#454545;}
</style>
<g>
	<defs>
		<rect id="SVGID_1_" width="1610" height="966"/>
	</defs>
	<clipPath id="SVGID_00000116213542836345756670000001641880688804591263_">
		<use xlink:href="#SVGID_1_"  style="overflow:visible;"/>
	</clipPath>
	<path style="clip-path:url(#SVGID_00000116213542836345756670000001641880688804591263_);fill:#606060;" d="M1677.6,212.6v-0.1
		V212.6z"/>
	<polygon style="clip-path:url(#SVGID_00000116213542836345756670000001641880688804591263_);fill:#606060;" points="1652,-1.1 
		1652.1,-1.1 1652.1,-1.2 	"/>
	<path style="clip-path:url(#SVGID_00000116213542836345756670000001641880688804591263_);fill:#606060;" d="M1638.6,104.1
		L1638.6,104.1L1638.6,104.1z"/>
	<path style="clip-path:url(#SVGID_00000116213542836345756670000001641880688804591263_);fill:#454545;" d="M1685.9,432.9
		c0-1.6-1.1-2.9-2.8-3.7l-0.6-0.3l0,0c-0.4-0.2-0.8-0.3-1.2-0.4l0,0h-0.1l-0.8-0.1l-0.4-0.1c-0.4,0-0.8,0.1-1.2,0.2l-1.8-0.4
		c-0.5-0.1-1,0-1.5,0c-1.5-0.5-1.7-0.7-0.9-0.6l0.7-0.1c1.2-0.3,2.1-0.5,2.1-1.5c0-1.1-0.6-3.1-2-3.7c-0.7-0.3-1.4-0.4-2.1-0.6
		c-1.3-0.3-0.4-0.8,0.6-0.9c1.5-0.1,2.2-0.7,2-1.8l-0.2-0.2c0.4-0.5,0.7-1.1,0.5-1.7s-0.8-1-1.5-1.2c0.2-0.3,0.4-0.6,0.7-0.9
		c-0.1-0.3-0.4-0.6-0.7-0.9c-0.3-0.2-0.6-0.4-0.8-0.7c-0.3-0.4-0.4-0.8-0.8-1.1c-0.4-0.4-1-0.9-1.7-1c-0.5-0.1-1,0.1-1.3,0.4
		c-0.4,0.4-0.5,0.8-1.2,0.9c-0.4,0.1-0.8,0.1-1.2,0.2s-0.6,0.3-0.8,0.5l-0.6,0.5l-0.4,0.1c-0.8-0.2-1.5-0.5-2.2-0.8
		c-0.5,0.1-1,0.1-1.5,0.2l-0.2-0.5c-0.9-1.3-2.5-2.9-4.3-3.5c-1.4-0.4-3.2,0.6-3.8,1.5h-0.4l-0.7,0.1c0.3-0.3,0.4-0.6,0.3-1.1
		c-0.3-1.1-1.4-2.9-3-3.2c-0.7-0.1-1.5-0.1-2.2-0.2c-1.4-0.1-0.6-0.8,0.3-1c1.4-0.4,2-1,1.5-2.1l-0.2-0.2c0.3-0.6,0.4-1.2,0-1.7
		l-0.4-0.3c3.2,0.2,5.4-1.4,5.1-3.8l0,0c0-0.3-0.1-0.5-0.1-0.8c2-1,2.8-2.9,1.4-4.6c-0.2-0.3-0.4-0.5-0.7-0.8
		c-1-0.9-3.3-1.5-4.8-1.1c-1.1,0.3-0.8,0.3-1.7-0.1c0-0.3-0.1-0.6-0.3-0.8l-0.1-0.2l-0.4-0.4l-0.6-0.6l-0.2,0.1l-0.4-0.2l-0.1-0.1
		c1.1-0.2,1.9-0.7,2.4-1.5c2.3-0.6,5.4-1.8,5.1-3.8c-0.2-1.3-1.2-2.1-2.4-2.5c1.4-1.3,2.4-2.7,1.5-4.2c-0.3-0.5-0.7-0.8-1.1-1.1l0,0
		l0,0l-0.1-0.1l0,0l-0.1,0.2l-0.8-0.4l-0.3-0.1l-0.9-0.2h-0.1c-0.4-0.1-0.7-0.1-1.1-0.1h-0.3c-0.4,0-0.7,0-1.1,0
		c-0.1-0.3-0.4-0.6-0.7-0.8h0.1c3.2-1.7-0.2-4.9-2.1-7.1c0.9,0,1.8,0,2.8-0.4c0.9-0.3,0.6-1.3,0.2-1.8l-0.3-0.4
		c2.6-0.8,2.3-3.2,0.2-4.9l0.1-0.7v-0.2v-0.1v-0.1l0,0v-0.2l-0.1-0.2l-0.2-0.3l-0.2-0.2l-0.3-0.3l-0.3-0.2l-0.3-0.2l-0.4-0.2
		l-0.4-0.2l-0.4-0.2l-0.4-0.1l-0.4-0.1l-0.3-0.1l0,0l-0.4-0.1c-0.1-0.9-0.7-1.7-1.8-2.3c-0.7-0.4-1.5-0.6-2.3-0.7l0,0h-0.1
		c-0.4-0.1-0.8-0.1-1.2-0.1h-0.4c-0.5,0-1,0-1.5,0h-0.8c0.6-0.2,1.2-0.5,1.5-0.8c0.7-0.8,1.1-1.5,0.7-2.4l-0.1-0.3l0.3-0.4
		c1-2.4-1.1-4-2.2-6c-0.8-1.3-0.8-3-2.9-3.6s-4.2-0.5-6.3,0c-0.7-0.7-1.6-1.3-2.6-1.8c0.9-1,1.7-2,1.5-3.4c-0.3-1.8-1.5-3.4-3.3-4.5
		c-1.7-1.1-4.2-2-6.5-1.8c-1.6,0.1-2.6,1.1-4.2,1.2l-0.5,0.1l0,0l-0.8,0.2c-0.6,0.1-1.2,0.3-1.8,0.4c-1.1,0.3-0.9,0.9-1.9,0.6
		c-0.5-0.2-1.1-0.3-1.7-0.4l-0.2-0.1l0,0l-0.7-0.1l0.4-0.6c1.2-2.5-0.9-4.9-3.8-5.9c-0.3-2.1-1.4-4.2-4.6-4.5
		c-2.8-0.3-4.9,0.8-5.5,2.5c-1-0.1-1.8-0.1-2.6,0.3l0,0l-0.2,0.1c-0.1-0.5-0.5-0.9-0.9-1.3l-0.5-0.4l0.1-0.1l0.1-0.1l0.1-0.1
		l0.3-0.1l0,0l0.1-0.1l0.8-0.5l0.1-0.1c0.3-0.2,0.5-0.4,0.6-0.7c0.5-1.6,0-3.1-1.4-4.4c-1.6-1.5-4.3-2.6-6.9-2.8
		c-0.3-0.6-0.7-1.1-1.3-1.5c-0.9-0.6-1.8-0.8-3-0.6c-0.5,0.1-1,0.5-1.4,0.7c-0.9-0.6-1.7-1-3.2-1c-1.6-0.1-3,0.6-3.7,1.7
		c-0.8,1.3-0.9,2.8-0.3,4.1c0.3,0.6,0.9,1.1,1.4,1.7c0.5,0.3,0.5,0.5-0.3,0.5c-0.4,0.3-0.8,0.5-1.2,0.7l-0.2-0.3
		c-0.1-0.6-0.7-1.1-1.4-1.4c-0.7-0.5-1.5-0.9-2.3-1.1c1.4-4.1,0.1-9.5-4.3-11.2c-1.1-0.4-2.1-0.5-3,0.1s-1.7,1.2-2.5,1.8
		c-1.3-1.3-3.7-1.6-5.7-1.1c-0.7-0.3-1.3-0.7-1.3-1.1c0.2-0.9,0.5-1.8,0.5-2.8c0-0.8-0.9-1.7-2-1.7c-1.4-0.1-2.8,0-4,0.6
		c-1.1,0.6-2.8,2.3-4.2,1.4c-1-0.6-2-0.9-3.3-0.8l-0.5,0.2l-0.4,0.3l0,0l-0.1,0.1l0,0l-0.5,0.4c-0.3-0.1-0.7-0.3-1-0.5
		c-1.5-0.8-3.3-1.8-5-2l0,0l0,0c-0.4,0-0.7,0-1.1,0c-2.6,0.4-2.9,2.8-2.2,4.4c0.4,1,0.1,1.3-0.8,1.3l0,0c-0.3,0-0.7,0-1.1-0.1
		c-0.7-0.1-1.5-0.2-2.2-0.1c-1.6,0.1-2.6,0.5-3.7,1.5c-1.3,1.1-1.1,2.7-0.4,4.1c-0.9-0.1-1.9,0-2.7,0.2c-1.7,0.4-2.9,1-3.4,2
		c-0.8-0.2-1.8,0-2.9,0.6c-1.7,1-2.9,1.3-5.1,1.1c-0.8-0.1-1.9-1.6-3-1.9c-0.6-0.2-1.3-0.3-1.9-0.2c-0.4,0.1-0.8,0.1-1.2,0.2
		l-0.4,0.1c-0.7-0.5-1.6-0.8-2.7-0.8c-2,0-4,0.4-5.7,1.1l0,0h-0.1c-0.6,0.3-1.2,0.5-1.8,0.8c-2.5,0.2-5.9,1.4-6.1,3.6
		c-0.1,0.7,0,1.2,0.3,1.9v0.2l-0.5,0.5c-0.7,0.8-1,1.4-1.1,2.2c-1.3,0.6-2.9,1.5-3.3,2.5c-0.3,0.6-0.1,1.1,0.3,1.5
		c-0.8,1.6-0.2,3.1,1.9,4.3c1.3,0.7,3.1,0.7,4.9,0.6l0.5,0.7l0.3,0.3c-0.3,0.1-0.7,0.2-1,0.3c-0.8,0.2-1.7,0.3-2.4,0.6
		c-1.5,0.6-1.8,1.5-1.4,2.4c-0.4,0.2-0.7,0.5-0.9,0.7c-1.8-0.8-4-1.3-6.1-1.2c-0.4-0.5-0.9-1-1.6-1.3c-1-0.5-2-0.5-3-0.2
		c-0.5,0.1-0.9,0.6-1.3,0.8c-1-0.5-1.8-0.8-3.4-0.6c-1.5,0.1-2.9,1-3.4,2.1c-0.5,1.3-0.3,2.9,0.5,4.1c0.4,0.6,1.1,1,1.7,1.5
		c0.6,0.3,0.6,0.4-0.1,0.6c-0.3,0.3-0.7,0.6-1.1,0.8c-0.4-0.5-1.1-1.1-1.8-1.5c-1.3-0.6-2.6-1.2-4.1-1c-2.6,0.4-3.7,2.6-4,4.6
		c-0.6,0.1-1.2,0.2-1.7,0.3l-0.6,0.2l-0.4,0.2l-0.4,0.2l-0.4,0.3l-0.3,0.3l-0.3,0.4l-0.2,0.3l-0.1,0.4l-0.1,0.4v0.4l0.1,0.5l0.1,0.4
		c0.1,0.3,0.2,0.6,0.4,1c1,2,2.8,3.9,5,5.3c-0.6,0.7-1,1.4-1.1,2.3c-1.4-0.3-2.7-0.8-3.8,0.5c-1,1.1-0.9,2.5-1.9,3.7
		c-1.4,1.7-0.9,3.6,0.3,5.2c-1.3,0.1-2.4,0.5-3.1,1.8c-0.4,0.7-0.6,1.6-0.6,2.5l-0.6,0.6c-0.5,0.9-0.1,1.7,0.7,2.3
		c-0.5,0.6-0.7,1.3-0.4,2c-0.7,0.5-0.9,1.1-1,1.9c-1.6-1.3-3.8,0.2-2.2,1.5c0.6,0.5,0.8,1.4,0.9,2.2c-1.5,0.2-2.8,0.8-3.3,1.8
		c-0.4,0-0.8,0-1.2,0h-0.3c-0.4,0-0.8,0-1.2,0.1l0,0c-0.4,0.1-0.7,0.1-1,0.2l-0.3,0.1l-0.9,0.4l0,0l0,0l-0.1,0.1l0,0l0,0
		c-0.4,0.3-0.8,0.6-1.1,1.1c-1,1.5,0,3.1,1.5,4.4c-1.3,0.4-2.2,1.2-2.5,2.7c-0.4,2.1,2.9,3.4,5.3,4c0.5,0.8,1.4,1.3,2.5,1.5
		l-0.1,0.1l-0.4,0.2l-0.2-0.1l-0.6,0.6l-0.4,0.4l-0.1,0.2c-0.1,0.3-0.2,0.5-0.3,0.8c-0.9,0.4-0.6,0.4-1.7,0.1
		c-1.6-0.4-3.9,0.2-5,1.2c-0.3,0.3-0.5,0.5-0.7,0.8c-1.5,1.7-0.7,3.7,1.5,4.7c-0.1,0.3-0.1,0.6-0.2,0.9l0,0c-0.3,2.6,2.1,4.3,5.7,4
		c0.7,0.7,1.7,1.1,3.1,0.9c0.6-0.1,1.2-0.3,1.7-0.5c0,0.1,0.1,0.3,0.1,0.6l-0.2,0.6l-0.4,0.4l-0.4,0.6c-0.2,0.6,0.7,1.5,1.3,1.7
		c1.7,0.7,3.6,1.3,5.4,1.8l0.4,0.1l-0.1,0.2c-0.1,0.3-0.4,0.6-0.6,0.8c-0.7,0.8-1.6,1.4-2,2.3c-0.7,1.4,1,2.4,2.5,2.8
		c2.5,0.7,7.3,0.5,9.6-1.2h0.1c-0.3,0.5-0.6,1-0.7,1.5c-1-0.5-2.5-0.5-3.3,0.2c-0.5,0.4-0.7,1-0.6,1.7l-0.3,0.1
		c-0.9,1-0.5,1.7,0.7,2.4c0.8,0.4,1.3,1.3-0.1,1c-0.7-0.1-1.4-0.3-2.2-0.3c-1.6,0-3.3,1.5-4,2.5c-0.6,0.9,0,1.5,0.9,2.1l0.6,0.3
		c0.8,0.2,0.4,0.3-1.2,0.2c-0.4-0.2-0.9-0.4-1.3-0.5l-1.8-0.3c-0.3-0.3-0.6-0.5-1-0.6l-0.3-0.1c-0.3-0.1-0.6-0.2-0.9-0.2h-0.1l0,0
		c-0.4-0.1-0.9-0.1-1.3-0.1l0,0l-0.8,0.1c-2.1,0.1-3.8,0.8-4.7,2.3c-0.9,1.3,0.9,2.5-0.1,3.6c-0.4,0.4-0.5,0.8-0.5,1.3
		c-0.4,0.4-0.8,0.8-1.1,1.2c-0.4,0.8,0.1,1.6-0.4,2.4l-0.1,0.3l0,0l-0.1,0.3c-0.1,0.4-0.1,0.8-0.3,1.1c-0.1,0.6,0.4,0.7-0.1,1.1
		c-0.4,0.2-0.6,0.4-0.9,0.7l-0.1,0.1l0,0l-0.3,0.3l-0.4-0.4c-1.7-1.4-4.3-1.1-6.1,0c-1.8-0.5-3.8-0.6-5.2,0.8
		c-1.2,1.3-0.9,2.6,0.3,3.5c-0.4,0.4-0.7,0.9-0.5,1.4v-0.1v0.1c-0.4-0.1-0.9,0-1.3,0l-0.4,0.1l0,0l0,0v-0.2v-0.1l0,0v-0.1v-0.1
		l-0.1-0.4l-0.1-0.2l-0.5-0.6c-1.2-0.8-2.6-1-4.1-0.7c-1.7,0.3-3.5,1.3-4.5,2.5c-0.5,0-1.1,0-1.7,0.2c-0.8,0.3-1.2,0.7-1.4,1.3
		c-0.1,0.3,0.1,0.6,0.1,0.9c-0.8,0.3-1.3,0.5-1.8,1.2s-0.5,1.7,0.2,2.4c0.8,0.8,2,1.3,3.3,1.5c0.6,0.1,1.2-0.1,1.8-0.1
		c0.4-0.2,0.6-0.1,0.4,0.3c0.1,0.3,0.2,0.5,0.2,0.8c-0.6-0.1-1.3,0-1.8,0.2c-1,0.3-1.9,0.7-2.4,1.5c-0.8,1.3,0.4,2.7,1.7,3.7
		l-0.3,0.7l-0.1-0.1l-0.1,0.4l-0.1,0.5l0.1,0.6l0.2,0.4l0.6,0.6l0.3,0.3c0.4,0.3,1,0.4,1.6,0.6c1.9,0.4,4.1,0.3,6.1-0.1
		c0.3,0.6,0.7,1,1.3,1.4c-0.8,0.5-1.7,0.9-1.2,1.9c0.4,0.9,1.5,1.5,2,2.4c0.7,1.3,2.3,1.9,4,2c-0.5,0.6-0.6,1.3,0.1,2.2
		c0.4,0.5,0.9,0.9,1.6,1.3l0.2,0.5l0.4,0.4l-0.2,0.1c-1.1,0.7-2.3,1.7-2,2.9c0.2,0.5,0.5,0.9,0.8,1.3l0.3,0.6v0.1
		c-0.3,0.8-1.1,2-0.5,2.7c0.8,1.1,1.8,1.5,3.3,1.8c0,0-0.4,0.3-0.6,0.6c-0.3,0.5-0.4,1.1-0.1,1.7c0.2,0.5,0.5,0.8,1,1
		c-0.8,0.6-1.4,1.3-0.8,2.1c0.6,0.8,1.6,1.2,2.5,1.7c-0.8,1-1.4,2.2,0.4,3c1.3,0.6,3.3,1.3,4.9,1h0.4c0.4,0,0.8,0,1.3-0.1
		c1.1,1,2.7,1.3,4.5,0.7c1.1-0.4,1.8-0.5,3-0.5l0,0c0,0.5,0,1,0.3,1.4s0.7,0.6,1.2,0.6c0.6,0.9,1.7,1.4,3.2,1.3
		c-0.1,0.5-0.7,1-1.1,1.4c-0.9,1.1-1.5,2.6-0.2,3.7c0.7,0.6,1.6,0.8,2.5,0.8c0.7,1.9,3.2,3.1,5.7,2.2c0.6,0.2,1.2,0.3,1.8,0.3
		c1.5,1.7,5,2.5,7.3,1.4c1.8-0.9,3.1-2.7,3.3-4.5c0.5-0.4,0.8-1,0.6-1.5l0.5-0.2l0,0l0,0c0.3-0.2,0.6-0.4,0.8-0.6
		c1,0.3,2.1,0.4,3.1-0.1c0.7-0.3,1.1-0.9,1.8-1.2c0.4-0.2,0.8-0.4,1.2-0.7c0.5-0.1,0.9-0.2,1.3-0.4c2.1-1,3.5-3.3,3.3-5.3l0.1-0.1
		c0.9,0.1,1.8,0,2.5-0.6c0.7-0.5,0.8-1,1-1.8c0.1-0.6,0.8-0.8,1.2-1.3c0.4-0.6,0.7-1.3,0.7-2c0.4,0.1,0.8,0.1,1.3,0.1
		c1.1-0.1,1.7-0.4,2-1c1.7,0,3.4-0.6,3.7-1.7c12,5.5,19,5.6,29.4,9.1c11.9,4,20.5,17,23.1,31.7s1.7,108.6,1.5,114.4
		c-0.1,4.3-1.3,9.6-2.2,13.5c0.3-2.7,0.8-5.2,0.8-5.2s-3.4,2.9-5,9.7c-3.4-5.3-10.9-8.1-10.9-8.1s4.8,3.9,6.4,7.9
		c-4.7-5.6-16.7-7.2-16.7-7.2s16,5.2,15.9,12.1c-0.5,1.1,9.5,2.5,25.6,3.1c16.1,0.5,23.8,1,25-1c1.2-1.9,5.1-5.9,11.6-6.8
		c-8.4,0.3-12.6,2.1-14.3,3.9c5.7-7.2,11.7-10.4,11.7-10.4s-11.3,0.5-17,7.3v-0.2c2.8-6,3-9.3,3-9.3l-3.8,5
		c-3.7-25.9-3.4-113.5-1.1-122.6c2-7.7,11.6-11.8,18.7-13.3c1.7,0.9,4.3,0.9,5.9-0.1c0.5,0.1,1.1,0.1,1.6,0.1
		c0.8,0.6,1.7,0.7,2.6,0.6l-0.8,0.2c-1.2,0.5-1,1.8-0.7,2.6c0.2,0.5,0.7,0.8,0.7,1.3c0,0.7,0,1.1,0.5,1.7c0.5,0.6,1.2,0.8,2,0.8
		l0.5,0.6c-0.4,0.6-0.1,1.2,0.7,1.8l0,0l0,0l0.9,0.6c-0.9,1.7-0.1,4.1,1.6,5.4c1.3,1,3.5,1,5.1,0.5c-0.6,0.7-0.3,1.7,0.7,2.1
		c0.7,0.3,1.3,0.4,1.7,1c0.5,0.7,1.3,1.1,2.2,1.5c1.1,0.4,3.7,0.9,4.8,0.1c0.6-0.4,0.9-0.8,0.9-1.5c0-0.2-0.3-0.7,0.1-0.8h0.1
		c1.6,0.6,2.8-0.3,3-1.6c0.7-0.1,1.2-0.5,1.2-1.3c0-0.4-0.2-0.8-0.3-1.2l-0.1-0.5h0.3h0.6c0.5,0.8,1.1,1.5,2,1.8
		c1.5,0.5,2.7,0.2,3.6-0.6c0.4,0,0.8,0,1.2-0.4l0.2-0.4c0,0.6,0,1.3,0.7,1.8c0.5,0.3,0.9,0.5,1.5,0.6c1,0.2,1.6,0.4,2.4,0.8
		c1.4,0.8,3,0.7,4.1,0c0.4,0.1,0.7,0.2,1.1,0.3h0.4c1.2,0.5,3.1,0.2,4.4-0.1c1.7-0.5,1.5-1.5,1.1-2.5c0.9-0.3,1.8-0.5,2.5-1.1
		s0.4-1.3-0.2-1.9c0.4-0.1,0.8-0.3,1.1-0.7s0.4-1,0.3-1.5c-0.1-0.3-0.4-0.6-0.4-0.6c1.4,0,2.3-0.2,3.2-1.1c0.7-0.6,0.2-1.7,0.1-2.4
		v-0.1l0.4-0.5c0.3-0.4,0.8-0.6,1-1c0.6-1-0.2-2-1-2.8l-0.2-0.1l0.4-0.3l0.3-0.4c0.7-0.3,1.2-0.5,1.7-0.9c0.8-0.7,0.8-1.3,0.6-1.8
		c1.5,0.1,3-0.2,3.9-1.2c0.6-0.7,1.7-1,2.2-1.8c0.7-0.8,0-1.3-0.6-1.8c0.6-0.3,1.1-0.6,1.4-1c1.6,0.6,3.4,0.9,5.2,0.9
		c0.6,0,1.1-0.1,1.5-0.3l0.4-0.2l0.6-0.4l0.3-0.3l0.3-0.5v-0.5v-0.3l-0.1,0.1l-0.1-0.6c1.3-0.6,2.7-1.6,2.3-2.9
		c-0.3-0.8-1-1.2-1.8-1.6c-0.4-0.2-1-0.4-1.5-0.4l0.3-0.7c-0.1-0.3,0-0.4,0.4-0.2c0.5,0.1,1,0.3,1.5,0.4c1.1,0.1,2.3-0.2,3.2-0.8
		c0.7-0.5,1-1.3,0.7-2s-0.7-1-1.3-1.3c0-0.2,0.3-0.5,0.3-0.8c0-0.6-0.3-1-0.9-1.3c-0.4-0.2-0.9-0.3-1.4-0.4
		c-0.5-1.2-1.9-2.2-3.3-2.8c-1.2-0.4-2.5-0.4-3.6,0.1l-0.5,0.5l-0.3,0.3l-0.1,0.2l0,0l-0.1,0.1v0.1v0.1v0.1l-0.4-0.1
		c-0.3-0.1-0.7-0.2-1.1-0.2v-0.1l0,0c0.2-0.4,0.1-0.8-0.1-1.3c1.3-0.6,1.7-1.7,1.1-3c-0.8-1.4-2.6-1.6-4.2-1.4
		c-1.3-1.1-3.4-1.7-5.2-0.8l-0.4,0.3l-0.2-0.3h0.1c-0.2-0.3-0.4-0.5-0.7-0.8c-0.4-0.4,0.1-0.4,0.1-1l0.1-0.7v-0.3V492l0,0v-0.3
		c-0.2-0.8,0.4-1.4,0.2-2.1c-0.1-0.4-0.3-0.8-0.6-1.2c0.1-0.4,0.1-0.8-0.1-1.1c-0.6-1.1,1.2-1.9,0.8-3.1c-0.5-1.4-1.8-2.2-3.6-2.6
		l-0.6-0.1l0,0c-0.4-0.1-0.8-0.1-1.2-0.1l0,0h-0.1l-0.7,0.1l-0.4,0.1c-0.4,0.1-0.7,0.2-0.9,0.4h-1.6c-0.4,0.1-0.9,0.2-1.3,0.3
		c-1.4-0.1-1.7-0.3-0.9-0.3l0.5-0.2c0.8-0.4,1.4-0.8,1.3-1.5c1.6-0.1,3.1-0.7,4-1.7c0.6,0,1.2-0.1,1.8-0.2c2.4,1,5,0,5.8-1.9
		c0.9,0,1.8-0.1,2.5-0.7c1.4-1,0.9-2.5,0.1-3.7c-0.3-0.4-0.8-0.9-0.9-1.4c1.5,0.2,2.6-0.3,3.3-1.2c0.5,0,0.9-0.1,1.2-0.5
		c0.5-0.7,0.5-1.7,0.3-2.5l0.1-0.1l0.3,0.3c0.6,0.3,1.1,0.5,1.8,0.5c1.2,0.1,1.9,0.2,2.9,0.6c1.8,0.7,3.5,0.4,4.6-0.5
		c0.4,0.1,0.9,0.1,1.3,0.1h0.4c1.5,0.4,3.6-0.2,4.9-0.7c1.9-0.7,1.3-1.9,0.6-3c0.9-0.5,1.9-0.8,2.6-1.6c0.7-0.7,0.1-1.5-0.6-2.1
		c0.4-0.2,0.8-0.5,1.1-1c0.3-0.5,0.3-1.1,0-1.7c-0.2-0.4-0.5-0.6-0.5-0.6c1.6-0.1,2.6-0.6,3.4-1.6c0.6-0.8-0.1-1.9-0.4-2.7v-0.1
		l0.3-0.6c0.3-0.4,0.7-0.8,0.9-1.3c0.5-1.2-0.7-2.3-1.7-3c-0.3-0.2-0.7-0.4-1-0.6l-0.4-0.1l-0.6-0.2h-0.5h-0.5l-0.5,0.1l-0.4,0.1
		l0,0l-0.3,0.1c-0.1-0.3-0.3-0.5-0.5-0.8c-0.4-0.6-1.1-1-1.6-1.4c1.4-0.6,2.9-1.2,2.6-2.6c-0.2-1.1-0.7-2.2-1.2-3.3
		c0.9,0.3,1.9,0.5,3,0.3c0.5-0.1,0.9-0.2,1.3-0.4l0.3-0.2l0.7-0.5l0.1-0.1h-0.1c0.4-0.4,0.6-0.9,0.5-1.5
		C1683.6,434.7,1685.9,434.3,1685.9,432.9z M1535.9,666.6L1535.9,666.6L1535.9,666.6L1535.9,666.6z M1623.8,361.4
		c-0.1-0.3,0-0.2,0.1,0.2l0.1,0.3c0.1,0.5,0.3,1,0.4,1.6l-0.8-0.1c-0.3-0.7-0.8-1.4-1.5-1.9C1622.7,361.4,1623.4,361.4,1623.8,361.4
		z M1599.1,375.7l-0.5,0.7c-0.1-0.3-0.2-0.5-0.3-0.8L1599.1,375.7z M1598,440.2L1598,440.2c0.4,0.4,0.8,0.7,1.3,1l0.1,0.1
		c-0.9,0.3-1.7,0.8-1.7,1.6c-0.1-0.6-0.1-1.6-0.1-2.6L1598,440.2z M1597.8,451.7c0.8-1.7,1.9-3.4,3.2-5c0.7,0.5,1.8,0.9,2.9,1
		c0.2,0.5,0.8,0.9,1.9,1c0.4,0.1,0.8,0,1.2,0c-0.1,0.3-0.3,0.5-0.2,0.8c0.1,1,1,1.7,1.9,2.3c-0.4,0.8,0.2,1.5,1.2,2l0,0h0.1l0.4,0.2
		l0.7,0.5v0.6c-2.1,1.3-4.5,2.4-7.9,4c-6.5,3.1-9.8,4-9.8,4S1593.5,460.3,1597.8,451.7z M1575.3,389.6L1575.3,389.6l-0.2-0.1
		L1575.3,389.6z M1564.2,434.6c0.8,0.4,1.9,0.7,2.9,1c-0.6,0.8-1.2,1.7-1.7,2.3c-1.5,2.1-2.2-0.4-3-3.3
		C1563,434.6,1563.5,434.7,1564.2,434.6z M1538.8,334.9L1538.8,334.9l-0.1,0.4l-0.6-0.3L1538.8,334.9z M1492.3,434.4l0.7-0.2
		c0.9,1.2,2.3,2.2,4,2.5c3.4,0.7,7.9-0.3,10.4-2.4c0.2,0.3,0.5,0.6,0.8,0.8c1.1,0.8,2.2,1,3.2,0.7c1.5,1.2,3.6,2,5.3,1.6
		c1.5,2.8,3,5.9,5,9.6l0,0c-1.3-0.5-2.2,0-3,0.7c-0.2-0.9-0.8-1.6-2.1-1.6l-0.1-0.5c-0.5-0.9-1.3-1.3-2.3-1.4
		c0.7-1.1,0.9-2.2-0.1-3.1c-1.5-1.2-2.9-0.8-4.6-0.5c-0.7-0.8-2-0.8-3.2-0.6c-0.4-1-0.9-2-2.5-2.1c-1.5-0.2-2.8,0.3-3.6,1.1
		c-0.9-0.1-1.6,0.2-2.1,0.6l-0.1-0.1c-0.6-0.3-1.1-0.4-1.8-0.4l-0.3,0.1h-0.1l-0.3-0.1l-0.6-0.1h-0.4h-0.6l-0.3,0.1h-0.3l0,0
		l-0.5,0.1l-0.6-0.2c1.1-0.6,1.8-1.5,1.5-2.5c-0.3-0.8-0.9-1.5-2-1.8c-0.1,0-0.5-0.1-0.8-0.2
		C1491.3,434.4,1491.8,434.4,1492.3,434.4z M1498.7,478.2l-0.2,0.1l-0.5-0.3l0.7-0.6C1498.8,477.8,1498.8,478.1,1498.7,478.2z
		 M1490.6,490.6l0.3-0.1c2.1-1.3,3.3-3.9,2.5-5.9l0.7-0.3c1.5-0.3,2.6-0.9,2.6-2l0,0c1.3,0.4,2.5,0.9,3.5,1.3c5.3,2.1,8.7,7.2,12,12
		C1506.7,495.7,1498.3,493.3,1490.6,490.6z M1532.5,497.9c-0.9,1.7-9-5.5-20.3-12.9c-4.5-2.9-7.7-6.1-9.9-9c1.3-0.7,2-1.6,0.9-2.5
		c-0.7-0.6-1.1-0.3-1.4-1.1c-0.2-0.6,1.2-1,1.6-1.4l0.5-0.5c0.4-0.3,0.8-0.5,1-0.9c0.8,0,1.5-0.2,2-0.4l0.2-0.1
		c1.9,0.8,5.1,0.1,6.6-0.7c0.7-0.4,1.3-1,1.2-1.6c0.8-0.4,1.5-1,1.3-1.8c1.3-0.6,2.5-1.3,2.6-2.5c0-0.9-0.8-1.3-1.8-1.7
		c0.3-0.3,0.6-0.5,0.8-0.8c2.3-0.8,5.8-2.7,3.8-4.1c-0.4-0.3-0.7-0.3-1-0.4l-0.1-0.1l0,0l-0.3-0.5c0.3-0.3,0.5-0.6,0.7-0.9l0.7-0.5
		c0.8-0.8,0.8-1.6,0.1-2.2c0.4-0.6,0.9-1.5,1.1-2.4c5.8,10.8,8.7,19.7,8.8,30.2C1531.7,487,1533.3,496.2,1532.5,497.9z
		 M1543.3,471.3c-2.8-0.2-15.9-23.3-19.8-32.9c-0.1-0.4-0.3-0.8-0.5-1.3l0.7-0.2c1.4-0.7,1.3-1.9,0.8-3c0.6,0,1.3,0.1,1.9,0
		c1.8,0.8,4.5,1.6,6.5,1.6c0.5,2.4,2.8,4.8,5.9,5.2l0.8,0.1c0.1,0.5,0.2,0.9,0.3,1.4C1541.5,450.7,1546.1,471.6,1543.3,471.3z
		 M1555.5,457.2c-0.5,3.6-1.8,10-3.8,10.6s-3.1-3-5.3-17.8c-0.4-2.9-1.1-6.3-2-9.9c2-0.6,3.9-1.7,5-3.1c0.3,0.1,0.7,0.1,1,0.2
		c1.7,0.9,3.7,1.3,5.1,0.2c1.3,0.4,2.6,0.7,3.8,0.6c0.5,1.7,0.5,3.1,0.3,4.8C1559.1,446.9,1556,453.7,1555.5,457.2z M1580.5,516.1
		c-1.2,1.1-2.2,2.1-2.9,2.7c-3.8,3-8.3,8.1-10.8,10.7s-4.3,1.5-4.1-3.6c0.2-5.2-1.9-13.9-0.6-19.2c0.9-3.6,2.6-8.2,5.5-12.2
		c0.4,0.3,0.9,0.6,1.3,0.8c0.1,0.3,0.3,0.6,0.5,0.8c-0.9,0.1-1.8,0.4-2,1.2c-0.2,1.1,0.7,1.8,1.6,2.5c-0.3,0.7,0.1,1.2,0.7,1.7
		c-0.2,0.5,0.2,1.1,0.7,1.5c1.1,0.9,3.7,1.8,5.5,1.5l0.2,0.1c0.4,0.3,1,0.5,1.6,0.6c0.1,0.3,0.3,0.6,0.6,0.9l0.3,0.5
		c0.3,0.4,1.4,1,1.1,1.5c-0.4,0.6-0.7,0.3-1.4,0.7c-2,1.1,0.9,2.9,2.8,3.8c0.1,0.3,0.4,0.6,0.6,0.8c-0.9,0.2-1.7,0.5-1.8,1.3
		C1579.9,515.2,1580.1,515.7,1580.5,516.1z M1583.6,520.5h-0.3c-0.3,0-0.1-0.5,0.4-1.4l0.4,0.3
		C1583.9,519.8,1583.7,520.1,1583.6,520.5z M1578.9,476.5c-2,2.3-5.4,5-8.7,7.2c-0.4-0.3-1-0.5-1.7-0.3c-1.3,0.3-1.5,1.3-1.4,2.4
		c-2.4,1.5-4.5,2.5-5.5,2.7c-2.7,0.6-1.9-5.4-1.6-15.3c0.4-9.9,2.7-21.2,8.4-31.2c1.2-2.1,2.3-4,3.3-6c0.8-0.2,1.4-0.7,1.5-1.5
		c0-0.4,0-0.7-0.1-0.9c0.3-0.5,0.5-1,0.8-1.4c0.8-0.2,2.2,0.2,3,0.2c0.4,0,0.8,0,1.1-0.1c0.8,0.1,1.5,0.1,2.3-0.1
		c0.9,0.7,2,1.2,3.2,1.3l-0.1,0.5c0.2,1.2,1.5,1.9,2.8,2.4c-0.1,1.4,1.8,2,3.7,2.1c0.3,0.5,0.9,0.9,2,1c0.8,0.1,1.5-0.1,2.2-0.3
		c-1,8.2-3.2,16.6-4.5,20.5C1588.3,463.9,1586.2,468.2,1578.9,476.5z M1596,525.9L1596,525.9L1596,525.9L1596,525.9z M1629.4,473
		c-0.7,0.2-1.5,0.3-2.2,0.6l-0.8-0.5c-0.3-0.4-0.6-0.7-1-1c-1.1-0.9-3-2-4.7-2.1c-1.3-0.1-2.4,1.1-2.7,2l-0.3,0.1
		c-0.4,0.1-0.8,0.3-1.2,0.4l-0.1,0.1l-0.7-0.6c-0.4-0.2-0.9-0.4-1.4-0.4c-0.7-0.1-1.4,0.1-2.1,0.3c-0.4-0.3-0.7-0.5-1.2-0.6
		c-0.9-0.3-1.9,0-2.6,0.4c-0.4,0.3-1.6-0.2-2.2-0.1c-0.9,0.1-1.4,0.5-1.8,1.1l-0.1,0.3v0.1v0.1v0.1v0.1l0.1,0.3l0.1,0.3l0.1,0.1
		l0.1,0.2l0,0l0.1,0.1c0.5,0.7,0.8,0.9-0.3,0.7c-1.1-0.1-2,0-2.6,0.4l-0.5-0.1l0,0h-0.2h-0.3h-0.6h-0.3l-0.6,0.1l-0.1,0.1l-0.7,0.4
		l-0.4,0.7l-1.3,0.2c-1,0.1-1.7,0.6-2.1,1.3c-0.5,0.8,0,1.7,0.7,2.3l-0.5,0.1l-0.4-0.2l0,0l-0.2-0.1l-0.3-0.1l-0.5-0.1h-0.4h-0.5
		h-0.3h-0.1l-0.2-0.1c-0.6-0.1-1.1,0-1.6,0.1l-0.1,0.1c-0.3-0.4-0.8-0.8-1.6-0.8c-0.6-0.8-1.6-1.4-2.8-1.4
		c3.7-3.2,7.7-6.6,12.3-10.4c5.5-4.6,10-7.3,14-9.4c0.5,0.7,1.2,1.3,2,1.8c1.5,0.7,3.5,0.6,5.2,0l0.2,0.4c0.3,0.6,1,0.8,1.1,1.4
		c0.1,0.8,0.2,1.3,0.9,1.8c0.7,0.6,1.6,0.8,2.5,0.7l0.1,0.1c-0.4,2,0.9,4.3,2.9,5.4c0.4,0.2,0.8,0.3,1.3,0.4
		c0.3,0.3,0.7,0.5,1.1,0.7c0.7,0.4,1,0.9,1.7,1.3C1630.4,472.4,1630,472.8,1629.4,473z M1634.3,473l-0.3,0.2l-0.9-0.3l-0.4-0.3
		c0.5,0,1,0,1.5-0.1l0.4,0.3L1634.3,473z M1644.3,401.7l-0.2-0.1v-0.2l0.4,0.2L1644.3,401.7z M1652.5,430.2l-0.3,0.1
		c-0.4,0.1-0.8,0-1.1-0.4C1651.5,430.1,1652,430.2,1652.5,430.2L1652.5,430.2z M1663.4,415l-0.3-0.7l0.7-0.1l0.3,0.1l0.1,0.2
		l0.8,0.4C1664.4,414.9,1663.9,415,1663.4,415z M1671.3,416.2l-0.4,0.1l-0.8-0.5c-0.2-0.3-0.5-0.7-0.9-1l0,0c0.5,0,1,0,1.5-0.1
		c0.4-0.1,0.5-0.4,0.8-0.6c0.7-0.4,1.9,0.3,2.3,0.6c0.3,0.2,0.2,0.5,0.1,0.8h-0.6C1672.5,415.6,1671.9,415.9,1671.3,416.2z"/>
</g>
</svg>
