<?xml version="1.0" encoding="utf-8"?>
<!-- Generator: Adobe Illustrator 27.7.0, SVG Export Plug-In . SVG Version: 6.00 Build 0)  -->
<svg version="1.1" id="Layer_1" xmlns="http://www.w3.org/2000/svg" xmlns:xlink="http://www.w3.org/1999/xlink" x="0px" y="0px"
	 viewBox="0 0 1610 768" style="enable-background:new 0 0 1610 768;" xml:space="preserve">
<polygon points="-75.4,302.1 -75.4,302 -75.4,302.1 "/>
<polygon points="-49.9,88.4 -49.9,88.4 -50,88.3 "/>
<polygon points="-36.4,193.6 -36.4,193.5 -36.4,193.6 "/>
<polygon points="28.8,748.2 170.1,713.6 231,711.8 356.9,707.5 574.6,693.9 789.6,706.2 1004,683.6 1189.1,713.6 1385.4,703.6 
	1378.5,909.7 28.8,909.7 "/>
<polyline points="1401.8,699 1642.4,718.1 1694.2,714.3 1694.2,968.7 327.4,968.7 327.4,858.1 285.4,853.7 "/>
<path d="M28.8,748.2C-6,737-6,737-6,737"/>
<polyline points="111.5,728 -6,710.1 -6,968.7 353,968.7 "/>
<rect x="291" y="903" width="70" height="41"/>
<path d="M965.6,514.5c1.8,2.7-0.1,6.1-2,7.7c-2.3,1.9-5.6,1-7.9-0.2c-1.3-0.7-2.4-1.9-3.7-2.8c-0.6-0.4-1.7,0.8-2.1,1.2
	c-0.6,0.5-0.3,1.8-0.2,2.6c0,1.1-0.9,1.9-1.7,1.7c-2.6-0.4-5-0.9-6.7-3.4l-0.2-0.4c-0.8,1.3,1.4,2.7,2.1,3.6c0.6,1,0.6,2.3-0.2,3.1
	c-0.7,0.6-1.3,0.9-2.2,1c-1.5,0.2-1.1,0.3-0.5,1.8c0.8,2,0.6,4.2-0.7,5.9c-1.9,2.5-5.3,1.7-7.7,0c-2.2,1.3-4.4-0.8-6.1-3.1
	c-0.4-0.6-0.8-1.2-1.2-1.7l-0.1-0.1c-0.7,0.9,0.6,2.2,0.4,3.3l-0.2,1l0,0.1l-0.3,0.7l-0.2,0.3l-0.3,0.4l-0.7,0.5
	c-0.8,0.5-1.7,0.2-2.5,0c-0.6-0.2-1.1-0.7-1.7-0.8c-0.8-0.1-1.8,0.5-2.6,0.8c-2.1,0.7-4.5-1.5-5-3.9c-0.2-1.3-0.6,0.3-0.7,0.8
	c-0.1,0.8,0.1,1.7,0.3,2.4c0.3,0.9,0.6,2.1,0.3,3c-0.9,2.7-3.1,2.9-5.2,2.9c-1.9,0-3.8-1.3-4.7-3.4c-0.5-1.3-0.4-2.4-1.5-1.8
	c-0.8,0.4-1.8,0.3-2.5-0.1c-0.9-0.6-1.7-1.4-2.2-2.4l-0.2-0.6c-0.6-0.1-1.3,0-1.5,0.5c-0.7,1.5,0,1.5,0,3.1
	c-0.2,4.4-5.7,2.4-8.7,0.5c-0.6,0.1-1.2,0.1-1.8,0.1c0.4,1.6,0.6,3.3-0.7,4.4c-1.7,1.5-3.7,0.9-5.6,0c-1.7,2.1-4.3,0.8-6.1-1.4
	c-0.9,0.4-1.9,0.2-3-0.9l-0.6-0.9h-0.2c-0.8,0.8-2,1-3,0.8c-0.5-0.1-1.1-0.3-1.6-0.6c-1,0-1.9,0-2.9,0c-1.6,0-3.2,0-4.8,0.1
	c-0.6,0.2-1.4,0.2-2.3,0.1h-0.2l-0.8,0.1c-0.6,0.1-1.3,0.2-1.9,0.3l-0.9,0.1c-0.6,0.1-1.3,0.3-1.9,0.5l-0.8,0.2l-0.2,0
	c-0.2,0.4-0.4,0.9-0.8,1.2c-1.1,0.9-2.1,1-3.2,0.8c-1.5,1-2.9,2.2-3.9,3.8l-0.3,0.5c-4.1,6.5-5,16.4-5.6,24.1
	c-2,25.5-2.7,50.6,0.3,76.1c1.3,11.1,1.7,22.9,5.3,33.3c1.3,3.7,3,7.1,5.2,9.9l0.1,0l0.4,0.6c0.6,0.8,1.4,1.5,2.2,2.2
	c0.3-1,0.8-1.7,1.5-2.1c-0.5-1.2-1.1-2.4-1.7-3.5c-0.4-0.7,0.5-1.6,1-1l0.2,0.3c0.8-0.2,1.5,0.3,2.1,1.1c0.3-0.3,0.8-0.5,1.2,0
	c0.8,1.1,1.5,2.3,1.9,3.7l0.2-1.2c-0.6-1.8-2.8-4.8-0.6-5.9c0.4-0.2,1.1,0,1.5,0.4c0.4,0.5,0.8,1.1,1.1,1.7h0.1l1.1,0.4
	c1.3,1.7,1.8,3.7,1.7,5.8l0.1,0l0.4-0.7c-0.4-2.2-1.5-4.9-0.9-6.7c0.2-0.4,0.8-0.8,1.2-0.6c0.7,0.3,1.1,0.9,1.5,1.7
	c1.1,0,2.1,2.1,2.4,3.6l0.1,0l0.6,0.5c0.3-0.6,0.7-1.2,1.3-1.4c0.6-0.2,1.3,0.4,1.3,1.1c0.1,1.2-0.5,2.6-1.1,3.9l0,0.9
	c0.7-1.4,1.5-2.7,2.3-3.8c0.6-0.8,1.7,0.1,1.3,1.1c-1.1,2-2.4,3.8-3.5,5.8c0.5-0.3,0.9-0.7,1.4-1c0.8-1.1,1.7-1.9,2.9-2.2
	c0.4-0.1,0.8,0.3,1,0.8l0,0h0.6c0.6-0.5,1.1-1,1.7-1.2c1.1-0.3,2,0.9,1.5,2.1c-0.2,0.5-0.5,1-0.9,1.5l0.6-0.1l0.3,0
	c0.9-0.5,1.9-0.7,3-0.4c0.6,0.2,0.8,1,0.5,1.6c0.6-0.3,1.3,0,1.7,0.5l0.8,0.3l0.1,0.1l0.3,0c0.5,0.1,0.8,0.8,0.6,1.4
	c0.4-0.1,0.8-0.1,1.1-0.1l0.2-0.2c0.4-0.2,0.7,0.2,0.8,0.6l0.4,0.2c0.4,0.3,0.4,0.9,0.2,1.4l0,0.1c0.7-0.2,1.5-0.4,2.1-0.4
	c1,0,1.2,1.4,0.5,2l0,0c1.8-0.3,3.8-0.8,5.4-0.3c0.5,0.1,0.7,0.8,0.5,1.3c1.3,0.6,1.3,3.2-0.1,3.6c-3.6,1-7.1,0.6-10.7,0.1
	c-1.5,0.3-2.9,0.6-4.4,0.8c-2.3,0.6-4.7,0.7-7,0.8l-0.8-0.3c-0.5,0.2-0.9,0.5-1.4,0.8c-0.4,0.3-0.8-0.4-0.4-0.7
	c0.4-0.4,0.8-0.7,1.2-1l0-0.9c-1.1,0.2-2.2,0.4-3.4,0.6c0.9,0,1.9-0.1,2.7-0.2c0.4,0,0.4,0.7,0,0.8c-4.8,1-9.8,0.8-14.7,1.5
	c-0.5,0-0.6-0.9-0.2-1.1c0.9-0.3,1.9-0.5,2.9-0.7c-0.4-0.5-0.6-1.3-0.3-1.9l-0.6,0.4l-0.7-0.2h-0.1c-0.3,1.4-2,1.2-2.1-0.3v-0.2
	l-0.4,0.2l-0.4,0.3l-0.6,0.8l-0.5,0.2l0,0l-1,0.4l-0.6,0.4c-0.9,0.5-1.9-0.5-2-1.6c-0.6,0.9-1.9,1.2-2.5,0l-0.1-0.2l-0.3,0.8
	c-0.6,0.8-1,0.8-1.9,1.1c-0.4,0.1-0.8-0.1-1.1-0.4l0,0c-0.9,1-2.1,1-3.3,0.5l-0.4,0.7l-0.4,1c-1.1,0.7-2.3,1.3-3.4,1.9
	c-1.2,0.6-2.5,1.4-3.8,1c-0.7-0.1-0.9-1.1-0.5-1.7l0.2-0.2c-0.3-0.2-0.5-0.7-0.4-1.1l0.1-0.2c-0.5,0.2-1.1,0.5-1.6,0.7
	c-1.6,0.7-3.1,1.3-4.8,1.1c-0.5,0-0.7-0.4-0.8-0.9c-1.1,0.1-2.1,0-2.8-0.2c-0.6-0.2-0.9-0.8-1-1.4h-0.6l0.6,0.6
	c0.4,0.4,0.3,1.1,0,1.5c-0.2,0.6-0.8,1-1.4,0.6l0,0l-0.2-0.2l-0.1-0.1l0.3,0.3l-0.3,0.6c-1-0.7-2-1.5-2.8-2.4
	c-0.5,0-1.1-0.4-1.1-1.1l0-0.1c-0.4,0.5-0.8,1-1.3,1.5c0.4,0.5,0.8,1,1.1,1.5c0.3,0.5-0.4,1-0.7,0.5c-0.3-0.5-0.7-1-1.1-1.5
	l-0.4,0.3c-0.7,0.3-1.2-0.2-1.4-0.8l-0.4,0l-0.8-0.4l0.9,0.9l-0.4,0.7c-0.8-0.6-1.5-1.4-2.2-2.2h0c0.3,0.6,0.6,1.2,0.8,1.7
	c0.5,1.1-0.7,2-1.4,1.1c-0.4-0.6-0.8-1.4-1.1-2l-0.8-0.6l-0.7,0.1l0.3,0.3l0.5,0.3c0.4,0.3,0.2,1-0.3,1l-1-0.1
	c-1,0.3-2.2,0.1-3.1-0.5l-0.2,0c0.1,0.7-0.4,1.3-1,0.9l-0.6-0.2l-0.6,0.5c-1.4,0-3.6-0.2-4.8-1.4c-0.3,0.5-1,0.6-1.3,0l0,0
	c-0.7,0-1.4,0.1-2.1,0.1l-0.4,0.2l-0.2-0.2c-0.7,0-1.3,0-2,0l-0.1,0.4v0c-0.3,0.5-1,0.2-1.5-0.3l-1,0l0,0c0,1.2-1.2,2.1-2,1.2
	l-0.2-0.3l-0.2,0.4l-0.5-0.5l0.2-0.5l0,0c-0.6,0-1.1,0.2-1.7,0.2c-0.4,0.7-1.2,0.8-1.7,0.3l0,0c-0.4,0.1-0.8,0.1-1.3,0.2
	c-0.4,1.1-1.8,1.4-2.6,0.4c-0.7,0.1-1.4,0.2-2.1,0.3l-0.4,0h-0.2c-0.6,0-1.3,0-1.9,0h-0.6c-0.4,0.3-0.8,0.1-1.1-0.2
	c-0.5-0.1-1.1-0.2-1.6-0.4c0,0.7-0.2,1.3-0.8,1.8c-0.5,0.4-1.1-0.1-1.2-0.8c-0.1-0.7-0.3-1.4-0.6-1.9c-0.2-0.3-0.5-0.8-0.7-1.2
	l-0.4-0.4c0.4,1.2,0.4,2.3-1,2.6c-0.5,0.1-0.9-0.3-1.1-0.9l-0.2-0.3l-1-0.1l-0.4-0.5c-0.2,0.9-0.8,1.6-2,1.8c-1,0.1-1.3-1.3-0.8-2
	c0.4-0.6,0.4-1.3,0.2-2c0.1,0.5,0.1,1-0.1,1.5c-0.2,0.8-1.3,0.8-1.6,0.1l-0.2-0.4c-0.1,0.5-0.6,0.9-1.1,0.4l-0.4-0.5l-0.2,0.5
	c-0.3,0.4-0.9,0.2-1.1-0.3c-0.2-1-0.7-1.7-1.5-2.1c-0.4-0.2-0.2-1.1,0.2-0.9l0.6,0.2l-0.9-1.3c-0.4-0.4,0.2-1.1,0.6-0.7
	c1.1,1.2,2.5,2.2,3.4,3.6c-0.2-0.6-0.3-1.2-0.6-1.7l-0.4-0.6c-0.6,0-1.1-0.1-1.7-0.7v-1.1l0-0.5l-0.2-0.2c-0.3-0.3,0-1,0.4-0.7
	l0.2,0.1h0.1l0.2-0.6h0.1l-0.1-0.1c-0.4-0.5-0.4-1.4,0.1-1.8c1.5-1.2,3.6,0.3,4.7,1.5c0.4,0.4,0.6,0.9,0.8,1.4h0
	c0.3,0.3,1,0.8,1.9,1.5l-0.1-0.2c-0.4-0.5-0.8-1-1.2-1.5l0-0.7c-0.6-0.8-1.2-1.4-2.1-2c-0.4-0.3-0.4-1,0.1-1.2l0.9-0.2l0-0.1
	c-0.6-0.9,0.2-2,1.1-1.8c0.4,0,0.9,0.2,1.3,0.5c-0.4-0.4-0.4-1.4,0.1-1.7c0.8-0.6,1.6-0.5,2.2,0c-0.3-0.4-0.6-0.8-0.8-1.3l-0.1-0.5
	l-0.2-0.1c-0.4-0.2-0.4-1,0.1-1.2l0.4,0c0.3-0.5,0.8-0.8,1.4-0.7c1.7,0.3,3.2,2.1,4.5,3.7c1.6,0.8,2.8,2.3,3.7,4.1
	c0-0.6-0.1-1.3-0.1-1.8c-0.4-0.7-0.8-1.4-1.2-1.9c-0.8-1-1.9-1.3-2.7-2.2c-0.3-0.3-0.2-1.1,0.2-1.2c0.5-0.1,0.9,0,1.3,0.1
	c0.1-0.4,0.4-0.8,0.9-0.8c0.1-0.5,0.5-0.9,1-0.8c2.3,0.5,3.9,3.7,5.2,5.8c0.5,0.7,0.9,1.5,1.3,2.2l0.6,0.1c-0.1-0.4-0.2-0.9-0.4-1.3
	c-0.4-1.4-1.1-2.8-1.8-4c-0.8-1.4-2-1.8-3.1-2.8c-0.7-0.7-0.2-2.2,0.7-2.2c2.8,0,4.4,3,5.4,6.5c0.2-0.4,0.6-0.7,1-0.7
	c-1.3-3.1-3.1-5.2-5.1-7.8c-0.6-0.9,0-2.1,0.9-1.6c1.3,0.7,2.4,1.8,3.4,3.1h0c-0.4-0.5-0.6-1-0.8-1.8c-0.1-0.9,0.6-1.7,1.3-1.7
	c1.5,0,2.5,1.7,3.4,3l0.2-0.4c-0.6-0.9,0.2-2.2,1.1-1.6l0.8,0.7l0.7,0.6l0.4,0.3c0.8,0.2,1.5,0.8,2,1.4v-0.6c0-0.5,0.2-0.9,0.4-1.2
	l0-1c0.5-1.6,2.3-1.4,3.2-0.5c0.8,0.8,1.3,2,1.6,3.2c0.1-0.5,0.1-1,0.2-1.5c0.2-1.1,1.2-1.3,1.8-0.8c0.2-0.4,0.7-0.7,1.2-0.4
	c1.1,0.8,1.7,1.8,2.1,2.9c6.4-5.8,12.2-13.2,15.5-21.8c4-10.5,2.7-22.2,1.6-33.4c-1.1-10.9-2.7-21.5-1.9-32.5
	c0.9-12.5,3.2-24.6,2.5-37.1c-0.4-6.7-1.1-13.3-2.4-19.8c-1.9,0.4-4.8-0.8-6.8-2c-0.6,0.1-1.2,0.1-1.8,0.1c0.4,1.6,0.6,3.3-0.7,4.4
	c-1.7,1.5-3.7,1-5.6,0c-1.7,2.1-4.3,0.8-6.1-1.4c-0.9,0.4-1.9,0.2-3-0.9c-0.9-0.9-1.3-2.1-1.7-3.3l-0.9-0.2
	c-0.4-0.1-0.8-0.3-1.3-0.6c-1-0.4-1.9-1.1-2.7-2.2c-1.3,0.4-2.5,0-3.7-0.8c-0.6-0.1-1.2-0.1-1.8-0.1c-1.6,0.2-3.1-0.7-4.5-2
	c-1.2,1.2-2.6,1.2-4.5,0.2c-1.1-0.5-1.9-1.4-2.9-2.2l-0.2-0.1l-0.5,0.1c-0.4,0.1-1.9,1.2-2.3,0.6c1.4,2.1,2.5,5.1,0.4,7.2
	c-1.3,1.4-3,1.2-4.7,1c-0.6,1.6-2,1.8-3.6,1.5l0,0l-0.1,0c-0.5-0.1-1.1-0.3-1.7-0.6c-2.2,3.6-6.8,5.5-10.3,4.4
	c-2.9-0.9-4.9-4.5-5.1-8.2l-0.4,0.3c-0.8,0.4-1.7,0.8-2.5,0.4l-0.7-0.4l-0.5-0.5l-0.1,0l-0.2-0.4l-0.2-0.3l-0.1-0.2l-0.2-0.6l0,0
	l0,0c-0.3-1.1,0.8-2.6,0-3.4l-0.1,0.1c-0.4,0.6-0.7,1.3-1.1,1.9c-1.4,2.5-3.4,4.9-5.7,3.9c-2.1,2-5.5,3.3-7.6,1.1
	c-1.4-1.5-1.9-3.5-1.3-5.7c0.4-1.5,0.8-1.7-0.7-1.7c-0.8,0-1.5-0.1-2.2-0.6c-0.9-0.6-1.1-2-0.5-3c0.6-1.1,2.6-2.8,1.7-3.9l-0.2,0.4
	c-1.5,2.8-3.8,3.6-6.3,4.4c-0.8,0.2-1.9-0.4-1.9-1.5c0-0.7,0.1-2-0.5-2.5c-0.4-0.3-1.7-1.4-2.2-0.9c-1.2,1.1-2.1,2.4-3.4,3.3
	c-2.2,1.5-5.4,2.9-7.9,1.4c-2.1-1.3-4.2-4.4-2.8-7.4c0.8-1.5,1.9-2.2,3.1-2.9c-0.9-1.4-1.6-2.8-0.9-5c0.6-2.1,2.3-2.9,4-3.4
	c-0.2-0.5-0.3-1-0.4-1.6c-0.1-1.1,0.3-2.3,0.8-3.2c0.6-1.2,1.4-1.6,2.2-1.9c-0.2-0.7-0.1-1.5,0.4-2.5c0.3-0.6,0.7-1.1,1.1-1.5
	l0.4-0.3c0.4-0.2,0.7-0.5,1.1-0.7l0.1-0.1l0,0c0.4-0.2,0.8-0.3,1.1-0.5l0,0c0.4-0.1,0.8-0.3,1.2-0.4c0.9-0.3,1.7-0.3,2.3-1.1
	l0.9-0.8c-3,0.2-5-2.1-4.8-5.7h0l0.1-1.3c-2-1.5-2.9-4.4-1.5-7l0.6-1.2c1-1.4,3.2-2.5,4.7-1.9c1.1,0.4,0.8,0.4,1.6-0.2
	c0-0.4,0.1-0.8,0.2-1.2l0.1-0.3l0.4-0.7l0.5-0.9h0.3l0.3-0.2l0.1-0.1c-1.1-0.2-1.9-1-2.4-2.1c-2.3-0.8-5.5-2.6-5.2-5.6
	c0.2-2.1,1.1-3.3,2.3-4c-1.5-1.9-2.5-4.1-1.6-6.4c0.3-0.7,0.6-1.3,1-1.7l0,0l0.1-0.1l1-0.8l0.2-0.1c0.7-0.3,1.4-0.5,2.2-0.6h0.2
	c0.4,0,0.8-0.1,1.2-0.1c0.5-1.9,2.1-2.8,4-3c-0.1-2.3,0.2-4.5,2.2-5.7c1.8-1.1,3.8-0.8,5.4,0.4c1.1-0.6,2.1-0.4,3.1,0.2l0.2-0.3
	c0.6-0.9,1.2-1.5,2.2-1.8l0.9-0.2l0.2-1.1l0.6-0.9c0-1.3,0.1-2.6,0.5-3.6c0.7-1.9,1.7-2.7,2.9-2.8c-1.3-2.4-1.7-5.2-0.5-7.7
	c0.8-1.7,0.7-3.8,1.7-5.5c1-1.9,2.3-1.3,3.6-0.9c0.1-1.3,0.4-2.4,0.9-3.4c-2.1-2-4-4.8-5-7.7c-0.3-0.9-0.4-1.7-0.5-2.5l0-0.3
	c0-0.7,0.1-1.4,0.2-1.9l0.1-0.3c0.2-0.6,0.5-1.1,0.9-1.5l0.2-0.1c0.7-0.7,1.6-1.2,2.7-1.4c0.2-2.9,1.1-6.2,3.6-6.8
	c1.5-0.4,2.7,0.3,4,1.3c0.6,0.5,1.3,1.3,1.7,2.1c0.4-0.4,0.7-0.8,1-1.3c0.6-0.2,0.7-0.5,0.1-0.8c-0.6-0.7-1.3-1.3-1.7-2.1
	c-0.9-1.8-1.2-4-0.7-6c0.4-1.7,1.7-3,3.1-3.2s2.3,0.1,3.2,0.8c0.4-0.3,0.7-1,1.2-1.3c1-0.5,2-0.4,2.9,0.2c0.7,0.4,1.2,1.1,1.6,1.9
	c1.9-0.3,4.1,0.3,5.8,1.5l0.8-1.1c-0.4-1.3-0.1-2.7,1.3-3.5c0.7-0.4,1.5-0.7,2.2-1l0.9-0.4l-0.2-0.3l-0.5-1
	c-1.7,0.2-3.4,0.3-4.6-0.7c-2.1-1.7-2.6-3.9-2-6.3c-0.4-0.6-0.6-1.3-0.4-2.2c0.4-1.5,1.8-2.9,3.1-3.9c0-1.2,0.3-2.2,0.9-3.3l0.4-0.8
	l0-0.2c-0.3-1-0.4-1.8-0.3-2.8c0.2-3.2,3.3-5,5.7-5.4c0.5-0.5,1.1-0.9,1.7-1.3l0,0l0,0c1.7-1.1,3.5-1.8,5.4-1.9c1,0,1.9,0.3,2.6,1.1
	l0.4-0.2c0.4-0.2,0.7-0.3,1.1-0.4c0.6-0.2,1.3,0,1.9,0.2c1.1,0.4,2.2,2.6,3,2.7c2.1,0.3,3.2-0.1,4.8-1.7c0.5-0.5,1-0.8,1.5-1
	c0.7-1.5,1.8-2.7,3.2-3.6c0.3-1.1,0.8-2,1.4-2.8c-0.1-0.7-0.1-1.3,0.2-1.8c0.2-0.5,0.5-0.9,0.8-1.2c-1.4-2.6-3.1-6.7-1.2-9.4
	c0.9-1.4,1.9-2.1,3.4-2.3c0.7-0.1,1.4,0,2.1,0.1c0.4,0,0.8,0.1,1.1,0l0,0c0.8-0.1,1.1-0.6,0.6-2c-0.7-2.3-0.5-5.9,2-6.5l1,0h0l0,0
	c1.7,0.1,3.4,1.6,4.8,2.8l0.9,0.7c0.1,0,0.4-0.4,0.7-0.9l0.3-0.4l0.4-0.3c1.2-0.1,2.1,0.2,3.1,1.1c1.4,1.2,3-1.3,4-2.2
	c1.1-1,2.5-1.2,3.8-1.1c1.1,0,2,1.3,2,2.5c0,1.4-0.3,2.8-0.4,4.1c0,0.6,0.6,1.2,1.3,1.6c2-0.7,4.2-0.3,5.5,1.5
	c0.7-1,1.5-1.8,2.3-2.8c0.8-1,1.8-0.8,2.8-0.3c4.7,2.6,5.9,12,4,18.3l1-0.4c1.5-0.7,3.2,0.8,3.2,2.7c0,0.5,0,0.8-0.1,1.2l0,0l0,0.3
	l1,0.3l0.5,0.2v0l1,0.6l0.5,0.2l0.5,0.1l-0.3-0.6c-0.5-0.8-1.1-1.5-1.4-2.4c-0.6-1.9-0.6-4.2,0.1-6.1c0.6-1.6,2-2.6,3.5-2.6
	c1.4,0,2.2,0.6,3.1,1.4c0.4-0.2,0.8-0.9,1.3-1c1.1-0.3,2,0,2.9,0.8c0.6,0.6,1.1,1.4,1.3,2.2c2.5,0.1,5.1,1.7,6.7,3.8
	c1.4,1.8,2,4,1.5,6.4l-0.5,1.1l-0.1,0.2l-1.1,1.1l-0.1,0.1l0,0l-0.1,0.1h0l0.4,0.5c0.4,0.5,0.7,1.2,0.9,1.8l0.2-0.1l0,0.1
	c0.8-0.6,1.5-0.8,2.5-0.6c0.6-2.6,2.5-4.3,5.2-3.9c3,0.4,4.1,3.4,4.5,6.5c2.8,1.5,4.8,4.9,3.8,8.6l-0.4,1l0.6,0.1l0,0l0.2,0
	c0.6,0.1,1.1,0.2,1.7,0.5c0.9,0.5,0.7-0.4,1.8-0.9c0.6-0.2,1.2-0.5,1.8-0.8l0.7-0.3v0l0.5-0.1c1.5-0.2,2.5-1.5,4-1.8
	c2.2-0.4,4.6,1,6.3,2.5c1.7,1.5,3,3.8,3.3,6.4c0.2,2.1-0.4,3.6-1.3,5c1,0.6,1.9,1.5,2.6,2.5c1.9-0.8,3.9-1,5.9-0.2
	c2.1,0.8,2.1,3.2,3,5.2c1.2,2.9,3.2,5.2,2.4,8.8l-0.2,0.5l0.1,0.4c0.4,1.4,0,2.4-0.6,3.5c-0.3,0.5-0.8,0.9-1.4,1.3h0.7
	c0.5,0,0.9,0,1.4,0l0.4,0l1,0.1h0.2H914c0.8,0.1,1.5,0.4,2.2,0.9c1.1,0.8,1.6,2,1.8,3.3l0.4,0.1l0,0h0c0.5,0.1,1,0.4,1.5,0.7
	l0.1,0.1c0.4,0.3,0.8,0.7,1.1,1.1l0.1,0.1c0.3,0.4,0.5,0.9,0.6,1.5v0.1l0,0.2l0,0v0.1c0,0.4,0,0.9,0,1.5c2.1,2.4,2.4,6,0,7.2
	l0.3,0.5c0.3,0.6,0.7,2.2-0.2,2.7c-0.9,0.5-1.8,0.6-2.6,0.6c1.7,2.9,4.6,6.9,2.9,9.6l1,0.1c1.5-1.3,3.4-1.6,5.2-0.7
	c2,1,2.4,3.1,2.4,5.3c1.7,0.1,3.4,0.8,3.9,2.6c0.4,0,0.7,0,1.1,0h0.2c0.8,0,1.5,0.1,2.1,0.4l0.2,0.1l1,0.8l0.1,0.1l0,0
	c0.4,0.4,0.7,0.9,1,1.5c1,2.2,0,4.4-1.3,6.3c1.2,0.6,2.1,1.7,2.4,3.7c0.4,2.9-2.5,4.8-4.7,5.8c-0.4,1.1-1.2,1.9-2.2,2.2l0.1,0.1
	l0.4,0.3l0.2-0.1l0.6,0.8l0.4,0.6l0.1,0.3l0.2,1.2c0.8,0.6,0.6,0.6,1.6,0.1c1.4-0.6,3.6,0.2,4.6,1.5l0.6,1.1
	c1.4,2.4,0.7,5.2-1.2,6.8l0.2,1.2l0,0c0.3,3.5-1.5,5.9-4.5,5.8c0.5,0.4,0.9,0.9,1.2,1.5c0.6,1.4,0.8,2.5,0.4,4
	c-0.2,0.6-0.2,1-0.3,1.6l-0.2-0.2l0.2,0.3c0.4,0.6,0.8,1.2,1,1.8c0.4-0.3,0.9-0.4,1.5-0.3c0.1-1.7,0.7-3.4,2.3-3.8
	c0.9-0.2,1.9,0.2,2.6,0.9c0.7,0.7,1.5,0.6,2.4,0.8c0.4,0,0.8,0.1,1.2,0.2l0,0c0.4,0,0.8,0.1,1.2,0.3l0,0l0.2,0
	c0.4,0.1,0.7,0.3,1.1,0.5l0.4,0.2c0.5,0.3,0.9,0.7,1.3,1.3c0.5,0.9,0.7,1.6,0.6,2.4c0.9,0.2,1.7,0.5,2.4,1.6
	c0.6,0.9,1.1,1.9,1.1,3.1c0,0.6,0,1.1-0.2,1.6c1.7,0.2,3.5,0.8,4.3,2.8c0.9,2.1,0.4,3.5-0.4,5.1C963.5,513,964.6,513.6,965.6,514.5z
	 M709.5,502l-0.1-0.8c-0.5,0.3-1.1,0.7-1.6,0.8c0.3,0.5,0.5,1.2,0.6,1.8l0.5,0l0.2-0.3l0.3-0.6L709.5,502z M758.2,706.7
	c-0.4-0.6-0.7-1.2-1.1-1.7l-0.4-0.4c0.3,0.6,0.5,1.3,0.7,1.9L758.2,706.7z M761,700.7c-0.5-0.4-1.1-0.9-1.6-1.4
	c0.4,0.5,0.7,1.2,1,1.7l0.6-0.2V700.7z M766.9,706.2l-0.6-0.6l0.4,0.7L766.9,706.2z M776.6,702.8c-0.4-0.6-0.7-1.2-1.1-1.7
	c0.1,0.6,0.2,1.3,0.4,1.9L776.6,702.8z M784,694.4l-0.4-0.8c0.2,0.4,0.2,0.9,0.4,1.4V694.4z M821.4,427.1L821.4,427.1l0.4-0.1
	L821.4,427.1z M822.1,438.7l-0.6-0.6l-0.1,0.3l0.5,0.5L822.1,438.7z M876.6,704.5l0.2-0.1L876.6,704.5L876.6,704.5z M875.3,705.8
	l0.5-0.2l0.3-0.6L875.3,705.8z M879.6,447.4h-0.1l0,0.2L879.6,447.4z M899.9,424.7l0-0.1c-0.2-0.6-0.2-0.7-0.2-0.3h-0.9
	C899.1,424.4,899.5,424.5,899.9,424.7z M905.7,443.1l-0.1-0.5L905.7,443.1z"/>
<polygon points="-69.9,302.1 -69.9,302 -69.9,302.1 "/>
<polygon points="-44.4,88.4 -44.4,88.4 -44.5,88.3 "/>
<polygon points="-30.9,193.6 -30.9,193.5 -30.9,193.6 "/>
<path d="M539.6,511c1.8,2.7-0.1,6.1-2,7.7c-2.3,1.9-5.6,1-7.9-0.2c-1.3-0.7-2.4-1.9-3.7-2.8c-0.6-0.4-1.7,0.8-2.1,1.2
	c-0.6,0.5-0.3,1.8-0.2,2.6c0,1.1-0.9,1.9-1.7,1.7c-2.6-0.4-5-0.9-6.7-3.4l-0.2-0.4c-0.8,1.3,1.4,2.7,2.1,3.6c0.6,1,0.6,2.3-0.2,3.1
	c-0.7,0.6-1.3,0.9-2.2,1c-1.5,0.2-1.1,0.3-0.5,1.8c0.8,2,0.6,4.2-0.7,5.9c-1.9,2.5-5.3,1.7-7.7,0c-2.2,1.3-4.4-0.8-6.1-3.1
	c-0.4-0.6-0.8-1.2-1.2-1.7l-0.1-0.1c-0.7,0.9,0.6,2.2,0.4,3.3l-0.2,1l0,0.1l-0.3,0.7l-0.2,0.3l-0.3,0.4l-0.7,0.5
	c-0.8,0.5-1.7,0.2-2.5,0c-0.6-0.2-1.1-0.7-1.7-0.8c-0.8-0.1-1.8,0.5-2.6,0.8c-2.1,0.7-4.5-1.5-5-3.9c-0.2-1.3-0.6,0.3-0.7,0.8
	c-0.1,0.8,0.1,1.7,0.3,2.4c0.3,0.9,0.6,2.1,0.3,3c-0.9,2.7-3.1,2.9-5.2,2.9c-1.9,0-3.8-1.3-4.7-3.4c-0.5-1.3-0.4-2.4-1.5-1.8
	c-0.8,0.4-1.8,0.3-2.5-0.1c-0.9-0.6-1.7-1.4-2.2-2.4l-0.2-0.6c-0.6-0.1-1.3,0-1.5,0.5c-0.7,1.5,0,1.5,0,3.1
	c-0.2,4.4-5.7,2.4-8.7,0.5c-0.6,0.1-1.2,0.1-1.8,0.1c0.4,1.6,0.6,3.3-0.7,4.4c-1.7,1.5-3.7,0.9-5.6,0c-1.7,2.1-4.3,0.8-6.1-1.4
	c-0.9,0.4-1.9,0.2-3-0.9l-0.6-0.9h-0.2c-0.8,0.8-2,1-3,0.8c-0.5-0.1-1.1-0.3-1.6-0.6c-1,0-1.9,0-2.9,0c-1.6,0-3.2,0-4.8,0.1
	c-0.6,0.2-1.4,0.2-2.3,0.1h-0.2l-0.8,0.1c-0.6,0.1-1.3,0.2-1.9,0.3l-0.9,0.1c-0.6,0.1-1.3,0.3-1.9,0.5l-0.8,0.2l-0.2,0
	c-0.2,0.4-0.4,0.9-0.8,1.2c-1.1,0.9-2.1,1-3.2,0.8c-1.5,1-2.9,2.2-3.9,3.8l-0.3,0.5c-4.1,6.5-5,16.4-5.6,24.1
	c-2,25.5-2.7,50.6,0.3,76.1c1.3,11.1,1.7,22.9,5.3,33.3c1.3,3.7,3,7.1,5.2,9.9l0.1,0l0.4,0.6c0.6,0.8,1.4,1.5,2.2,2.2
	c0.3-1,0.8-1.7,1.5-2.1c-0.5-1.2-1.1-2.4-1.7-3.5c-0.4-0.7,0.5-1.6,1-1l0.2,0.3c0.8-0.2,1.5,0.3,2.1,1.1c0.3-0.3,0.8-0.5,1.2,0
	c0.8,1.1,1.5,2.3,1.9,3.7l0.2-1.2c-0.6-1.8-2.8-4.8-0.6-5.9c0.4-0.2,1.1,0,1.5,0.4c0.4,0.5,0.8,1.1,1.1,1.7h0.1l1.1,0.4
	c1.3,1.7,1.8,3.7,1.7,5.8l0.1,0l0.4-0.7c-0.4-2.2-1.5-4.9-0.9-6.7c0.2-0.4,0.8-0.8,1.2-0.6c0.7,0.3,1.1,0.9,1.5,1.7
	c1.1,0,2.1,2.1,2.4,3.6l0.1,0l0.6,0.5c0.3-0.6,0.7-1.2,1.3-1.4c0.6-0.2,1.3,0.4,1.3,1.1c0.1,1.2-0.5,2.6-1.1,3.9l0,0.9
	c0.7-1.4,1.5-2.7,2.3-3.8c0.6-0.8,1.7,0.1,1.3,1.1c-1.1,2-2.4,3.8-3.5,5.8c0.5-0.3,0.9-0.7,1.4-1c0.8-1.1,1.7-1.9,2.9-2.2
	c0.4-0.1,0.8,0.3,1,0.8l0,0h0.6c0.6-0.5,1.1-1,1.7-1.2c1.1-0.3,2,0.9,1.5,2.1c-0.2,0.5-0.5,1-0.9,1.5l0.6-0.1l0.3,0
	c0.9-0.5,1.9-0.7,3-0.4c0.6,0.2,0.8,1,0.5,1.6c0.6-0.3,1.3,0,1.7,0.5l0.8,0.3l0.1,0.1l0.3,0c0.5,0.1,0.8,0.8,0.6,1.4
	c0.4-0.1,0.8-0.1,1.1-0.1l0.2-0.2c0.4-0.2,0.7,0.2,0.8,0.6l0.4,0.2c0.4,0.3,0.4,0.9,0.2,1.4l0,0.1c0.7-0.2,1.5-0.4,2.1-0.4
	c1,0,1.2,1.4,0.5,2l0,0c1.8-0.3,3.8-0.8,5.4-0.3c0.5,0.1,0.7,0.8,0.5,1.3c1.3,0.6,1.3,3.2-0.1,3.6c-3.6,1-7.1,0.6-10.7,0.1
	c-1.5,0.3-2.9,0.6-4.4,0.8c-2.3,0.6-4.7,0.7-7,0.8l-0.8-0.3c-0.5,0.2-0.9,0.5-1.4,0.8c-0.4,0.3-0.8-0.4-0.4-0.7
	c0.4-0.4,0.8-0.7,1.2-1l0-0.9c-1.1,0.2-2.2,0.4-3.4,0.6c0.9,0,1.9-0.1,2.7-0.2c0.4,0,0.4,0.7,0,0.8c-4.8,1-9.8,0.8-14.7,1.5
	c-0.5,0-0.6-0.9-0.2-1.1c0.9-0.3,1.9-0.5,2.9-0.7c-0.4-0.5-0.6-1.3-0.3-1.9l-0.6,0.4l-0.7-0.2h-0.1c-0.3,1.4-2,1.2-2.1-0.3v-0.2
	l-0.4,0.2l-0.4,0.3l-0.6,0.8l-0.5,0.2l0,0l-1,0.4L421,708c-0.9,0.5-1.9-0.5-2-1.6c-0.6,0.9-1.9,1.2-2.5,0l-0.1-0.2l-0.3,0.8
	c-0.6,0.8-1,0.8-1.9,1.1c-0.4,0.1-0.8-0.1-1.1-0.4l0,0c-0.9,1-2.1,1-3.3,0.5l-0.4,0.7l-0.4,1c-1.1,0.7-2.3,1.3-3.4,1.9
	c-1.2,0.6-2.5,1.4-3.8,1c-0.7-0.1-0.9-1.1-0.5-1.7l0.2-0.2c-0.3-0.2-0.5-0.7-0.4-1.1l0.1-0.2c-0.5,0.2-1.1,0.5-1.6,0.7
	c-1.6,0.7-3.1,1.3-4.8,1.1c-0.5,0-0.7-0.4-0.8-0.9c-1.1,0.1-2.1,0-2.8-0.2c-0.6-0.2-0.9-0.8-1-1.4h-0.6l0.6,0.6
	c0.4,0.4,0.3,1.1,0,1.5c-0.2,0.6-0.8,1-1.4,0.6l0,0l-0.2-0.2l-0.1-0.1l0.3,0.3l-0.3,0.6c-1-0.7-2-1.5-2.8-2.4
	c-0.5,0-1.1-0.4-1.1-1.1l0-0.1c-0.4,0.5-0.8,1-1.3,1.5c0.4,0.5,0.8,1,1.1,1.5c0.3,0.5-0.4,1-0.7,0.5c-0.3-0.5-0.7-1-1.1-1.5
	l-0.4,0.3c-0.7,0.3-1.2-0.2-1.4-0.8l-0.4,0l-0.8-0.4l0.9,0.9l-0.4,0.7c-0.8-0.6-1.5-1.4-2.2-2.2h0c0.3,0.6,0.6,1.2,0.8,1.7
	c0.5,1.1-0.7,2-1.4,1.1c-0.4-0.6-0.8-1.4-1.1-2l-0.8-0.6l-0.7,0.1l0.3,0.3l0.5,0.3c0.4,0.3,0.2,1-0.3,1l-1-0.1
	c-1,0.3-2.2,0.1-3.1-0.5l-0.2,0c0.1,0.7-0.4,1.3-1,0.9l-0.6-0.2l-0.6,0.5c-1.4,0-3.6-0.2-4.8-1.4c-0.3,0.5-1,0.6-1.3,0l0,0
	c-0.7,0-1.4,0.1-2.1,0.1l-0.4,0.2l-0.2-0.2c-0.7,0-1.3,0-2,0l-0.1,0.4v0c-0.3,0.5-1,0.2-1.5-0.3l-1,0l0,0c0,1.2-1.2,2.1-2,1.2
	l-0.2-0.3l-0.2,0.4l-0.5-0.5l0.2-0.5l0,0c-0.6,0-1.1,0.2-1.7,0.2c-0.4,0.7-1.2,0.8-1.7,0.3l0,0c-0.4,0.1-0.8,0.1-1.3,0.2
	c-0.4,1.1-1.8,1.4-2.6,0.4c-0.7,0.1-1.4,0.2-2.1,0.3l-0.4,0h-0.2c-0.6,0-1.3,0-1.9,0h-0.6c-0.4,0.3-0.8,0.1-1.1-0.2
	c-0.5-0.1-1.1-0.2-1.6-0.4c0,0.7-0.2,1.3-0.8,1.8c-0.5,0.4-1.1-0.1-1.2-0.8c-0.1-0.7-0.3-1.4-0.6-1.9c-0.2-0.3-0.5-0.8-0.7-1.2
	l-0.4-0.4c0.4,1.2,0.4,2.3-1,2.6c-0.5,0.1-0.9-0.3-1.1-0.9l-0.2-0.3l-1-0.1l-0.4-0.5c-0.2,0.9-0.8,1.6-2,1.8c-1,0.1-1.3-1.3-0.8-2
	c0.4-0.6,0.4-1.3,0.2-2c0.1,0.5,0.1,1-0.1,1.5c-0.2,0.8-1.3,0.8-1.6,0.1l-0.2-0.4c-0.1,0.5-0.6,0.9-1.1,0.4l-0.4-0.5l-0.2,0.5
	c-0.3,0.4-0.9,0.2-1.1-0.3c-0.2-1-0.7-1.7-1.5-2.1c-0.4-0.2-0.2-1.1,0.2-0.9l0.6,0.2l-0.9-1.3c-0.4-0.4,0.2-1.1,0.6-0.7
	c1.1,1.2,2.5,2.2,3.4,3.6c-0.2-0.6-0.3-1.2-0.6-1.7l-0.4-0.6c-0.6,0-1.1-0.1-1.7-0.7v-1.1l0-0.5l-0.2-0.2c-0.3-0.3,0-1,0.4-0.7
	l0.2,0.1h0.1l0.2-0.6h0.1l-0.1-0.1c-0.4-0.5-0.4-1.4,0.1-1.8c1.5-1.2,3.6,0.3,4.7,1.5c0.4,0.4,0.6,0.9,0.8,1.4h0
	c0.3,0.3,1,0.8,1.9,1.5l-0.1-0.2c-0.4-0.5-0.8-1-1.2-1.5l0-0.7c-0.6-0.8-1.2-1.4-2.1-2c-0.4-0.3-0.4-1,0.1-1.2l0.9-0.2l0-0.1
	c-0.6-0.9,0.2-2,1.1-1.8c0.4,0,0.9,0.2,1.3,0.5c-0.4-0.4-0.4-1.4,0.1-1.7c0.8-0.6,1.6-0.5,2.2,0c-0.3-0.4-0.6-0.8-0.8-1.3l-0.1-0.5
	l-0.2-0.1c-0.4-0.2-0.4-1,0.1-1.2l0.4,0c0.3-0.5,0.8-0.8,1.4-0.7c1.7,0.3,3.2,2.1,4.5,3.7c1.6,0.8,2.8,2.3,3.7,4.1
	c0-0.6-0.1-1.3-0.1-1.8c-0.4-0.7-0.8-1.4-1.2-1.9c-0.8-1-1.9-1.3-2.7-2.2c-0.3-0.3-0.2-1.1,0.2-1.2s0.9,0,1.3,0.1
	c0.1-0.4,0.4-0.8,0.9-0.8c0.1-0.5,0.5-0.9,1-0.8c2.3,0.5,3.9,3.7,5.2,5.8c0.5,0.7,0.9,1.5,1.3,2.2l0.6,0.1c-0.1-0.4-0.2-0.9-0.4-1.3
	c-0.4-1.4-1.1-2.8-1.8-4c-0.8-1.4-2-1.8-3.1-2.8c-0.7-0.7-0.2-2.2,0.7-2.2c2.8,0,4.4,3,5.4,6.5c0.2-0.4,0.6-0.7,1-0.7
	c-1.3-3.1-3.1-5.2-5.1-7.8c-0.6-0.9,0-2.1,0.9-1.6c1.3,0.7,2.4,1.8,3.4,3.1h0c-0.4-0.5-0.6-1-0.8-1.8c-0.1-0.9,0.6-1.7,1.3-1.7
	c1.5,0,2.5,1.7,3.4,3l0.2-0.4c-0.6-0.9,0.2-2.2,1.1-1.6l0.8,0.7l0.7,0.6l0.4,0.3c0.8,0.2,1.5,0.8,2,1.4v-0.6c0-0.5,0.2-0.9,0.4-1.2
	l0-1c0.5-1.6,2.3-1.4,3.2-0.5c0.8,0.8,1.3,2,1.6,3.2c0.1-0.5,0.1-1,0.2-1.5c0.2-1.1,1.2-1.3,1.8-0.8c0.2-0.4,0.7-0.7,1.2-0.4
	c1.1,0.8,1.7,1.8,2.1,2.9c6.4-5.8,12.2-13.2,15.5-21.8c4-10.5,2.7-22.2,1.6-33.4c-1.1-10.9-2.7-21.5-1.9-32.5
	c0.9-12.5,3.2-24.6,2.5-37.1c-0.4-6.7-1.1-13.3-2.4-19.8c-1.9,0.4-4.8-0.8-6.8-2c-0.6,0.1-1.2,0.1-1.8,0.1c0.4,1.6,0.6,3.3-0.7,4.4
	c-1.7,1.5-3.7,1-5.6,0c-1.7,2.1-4.3,0.8-6.1-1.4c-0.9,0.4-1.9,0.2-3-0.9c-0.9-0.9-1.3-2.1-1.7-3.3l-0.9-0.2
	c-0.4-0.1-0.8-0.3-1.3-0.6c-1-0.4-1.9-1.1-2.7-2.2c-1.3,0.4-2.5,0-3.7-0.8c-0.6-0.1-1.2-0.1-1.8-0.1c-1.6,0.2-3.1-0.7-4.5-2
	c-1.2,1.2-2.6,1.2-4.5,0.2c-1.1-0.5-1.9-1.4-2.9-2.2l-0.2-0.1l-0.5,0.1c-0.4,0.1-1.9,1.2-2.3,0.6c1.4,2.1,2.5,5.1,0.4,7.2
	c-1.3,1.4-3,1.2-4.7,1c-0.6,1.6-2,1.8-3.6,1.5l0,0l-0.1,0c-0.5-0.1-1.1-0.3-1.7-0.6c-2.2,3.6-6.8,5.5-10.3,4.4
	c-2.9-0.9-4.9-4.5-5.1-8.2l-0.4,0.3c-0.8,0.4-1.7,0.8-2.5,0.4l-0.7-0.4l-0.5-0.5l-0.1,0l-0.2-0.4l-0.2-0.3l-0.1-0.2l-0.2-0.6l0,0
	l0,0c-0.3-1.1,0.8-2.6,0-3.4l-0.1,0.1c-0.4,0.6-0.7,1.3-1.1,1.9c-1.4,2.5-3.4,4.9-5.7,3.9c-2.1,2-5.5,3.3-7.6,1.1
	c-1.4-1.5-1.9-3.5-1.3-5.7c0.4-1.5,0.8-1.7-0.7-1.7c-0.8,0-1.5-0.1-2.2-0.6c-0.9-0.6-1.1-2-0.5-3c0.6-1.1,2.6-2.8,1.7-3.9l-0.2,0.4
	c-1.5,2.8-3.8,3.6-6.3,4.4c-0.8,0.2-1.9-0.4-1.9-1.5c0-0.7,0.1-2-0.5-2.5c-0.4-0.3-1.7-1.4-2.2-0.9c-1.2,1.1-2.1,2.4-3.4,3.3
	c-2.2,1.5-5.4,2.9-7.9,1.4c-2.1-1.3-4.2-4.4-2.8-7.4c0.8-1.5,1.9-2.2,3.1-2.9c-0.9-1.4-1.6-2.8-0.9-5c0.6-2.1,2.3-2.9,4-3.4
	c-0.2-0.5-0.3-1-0.4-1.6c-0.1-1.1,0.3-2.3,0.8-3.2c0.6-1.2,1.4-1.6,2.2-1.9c-0.2-0.7-0.1-1.5,0.4-2.5c0.3-0.6,0.7-1.1,1.1-1.5
	l0.4-0.3c0.4-0.2,0.7-0.5,1.1-0.7l0.1-0.1l0,0c0.4-0.2,0.8-0.3,1.1-0.5l0,0c0.4-0.1,0.8-0.3,1.2-0.4c0.9-0.3,1.7-0.3,2.3-1.1
	l0.9-0.8c-3,0.2-5-2.1-4.8-5.7h0l0.1-1.3c-2-1.5-2.9-4.4-1.5-7l0.6-1.2c1-1.4,3.2-2.5,4.7-1.9c1.1,0.4,0.8,0.4,1.6-0.2
	c0-0.4,0.1-0.8,0.2-1.2l0.1-0.3l0.4-0.7l0.5-0.9h0.3l0.3-0.2l0.1-0.1c-1.1-0.2-1.9-1-2.4-2.1c-2.3-0.8-5.5-2.6-5.2-5.6
	c0.2-2.1,1.1-3.3,2.3-4c-1.5-1.9-2.5-4.1-1.6-6.4c0.3-0.7,0.6-1.3,1-1.7l0,0l0.1-0.1l1-0.8l0.2-0.1c0.7-0.3,1.4-0.5,2.2-0.6h0.2
	c0.4,0,0.8-0.1,1.2-0.1c0.5-1.9,2.1-2.8,4-3c-0.1-2.3,0.2-4.5,2.2-5.7c1.8-1.1,3.8-0.8,5.4,0.4c1.1-0.6,2.1-0.4,3.1,0.2l0.2-0.3
	c0.6-0.9,1.2-1.5,2.2-1.8l0.9-0.2l0.2-1.1l0.6-0.9c0-1.3,0.1-2.6,0.5-3.6c0.7-1.9,1.7-2.7,2.9-2.8c-1.3-2.4-1.7-5.2-0.5-7.7
	c0.8-1.7,0.7-3.8,1.7-5.5c1-1.9,2.3-1.3,3.6-0.9c0.1-1.3,0.4-2.4,0.9-3.4c-2.1-2-4-4.8-5-7.7c-0.3-0.9-0.4-1.7-0.5-2.5l0-0.3
	c0-0.7,0.1-1.4,0.2-1.9l0.1-0.3c0.2-0.6,0.5-1.1,0.9-1.5l0.2-0.1c0.7-0.7,1.6-1.2,2.7-1.4c0.2-2.9,1.1-6.2,3.6-6.8
	c1.5-0.4,2.7,0.3,4,1.3c0.6,0.5,1.3,1.3,1.7,2.1c0.4-0.4,0.7-0.8,1-1.3c0.6-0.2,0.7-0.5,0.1-0.8c-0.6-0.7-1.3-1.3-1.7-2.1
	c-0.9-1.8-1.2-4-0.7-6c0.4-1.7,1.7-3,3.1-3.2c1.5-0.2,2.3,0.1,3.2,0.8c0.4-0.3,0.7-1,1.2-1.3c1-0.5,2-0.4,2.9,0.2
	c0.7,0.4,1.2,1.1,1.6,1.9c1.9-0.3,4.1,0.3,5.8,1.5l0.8-1.1c-0.4-1.3-0.1-2.7,1.3-3.5c0.7-0.4,1.5-0.7,2.2-1l0.9-0.4l-0.2-0.3l-0.5-1
	c-1.7,0.2-3.4,0.3-4.6-0.7c-2.1-1.7-2.6-3.9-2-6.3c-0.4-0.6-0.6-1.3-0.4-2.2c0.4-1.5,1.8-2.9,3.1-3.9c0-1.2,0.3-2.2,0.9-3.3l0.4-0.8
	l0-0.2c-0.3-1-0.4-1.8-0.3-2.8c0.2-3.2,3.3-5,5.7-5.4c0.5-0.5,1.1-0.9,1.7-1.3l0,0l0,0c1.7-1.1,3.5-1.8,5.4-1.9c1,0,1.9,0.3,2.6,1.1
	l0.4-0.2c0.4-0.2,0.7-0.3,1.1-0.4c0.6-0.2,1.3,0,1.9,0.2c1.1,0.4,2.2,2.6,3,2.7c2.1,0.3,3.2-0.1,4.8-1.7c0.5-0.5,1-0.8,1.5-1
	c0.7-1.5,1.8-2.7,3.2-3.6c0.3-1.1,0.8-2,1.4-2.8c-0.1-0.7-0.1-1.3,0.2-1.8c0.2-0.5,0.5-0.9,0.8-1.2c-1.4-2.6-3.1-6.7-1.2-9.4
	c0.9-1.4,1.9-2.1,3.4-2.3c0.7-0.1,1.4,0,2.1,0.1c0.4,0,0.8,0.1,1.1,0l0,0c0.8-0.1,1.1-0.6,0.6-2c-0.7-2.3-0.5-5.9,2-6.5l1,0h0l0,0
	c1.7,0.1,3.4,1.6,4.8,2.8l0.9,0.7c0.1,0,0.4-0.4,0.7-0.9l0.3-0.4l0.4-0.3c1.2-0.1,2.1,0.2,3.1,1.1c1.4,1.2,3-1.3,4-2.2
	c1.1-1,2.5-1.2,3.8-1.1c1.1,0,2,1.3,2,2.5c0,1.4-0.3,2.8-0.4,4.1c0,0.6,0.6,1.2,1.3,1.6c2-0.7,4.2-0.3,5.5,1.5
	c0.7-1,1.5-1.8,2.3-2.8c0.8-1,1.8-0.8,2.8-0.3c4.7,2.6,5.9,12,4,18.3l1-0.4c1.5-0.7,3.2,0.8,3.2,2.7c0,0.5,0,0.8-0.1,1.2l0,0l0,0.3
	l1,0.3l0.5,0.2v0l1,0.6l0.5,0.2l0.5,0.1l-0.3-0.6c-0.5-0.8-1.1-1.5-1.4-2.4c-0.6-1.9-0.6-4.2,0.1-6.1c0.6-1.6,2-2.6,3.5-2.6
	c1.4,0,2.2,0.6,3.1,1.4c0.4-0.2,0.8-0.9,1.3-1c1.1-0.3,2,0,2.9,0.8c0.6,0.6,1.1,1.4,1.3,2.2c2.5,0.1,5.1,1.7,6.7,3.8
	c1.4,1.8,2,4,1.5,6.4l-0.5,1.1l-0.1,0.2l-1.1,1.1l-0.1,0.1l0,0l-0.1,0.1h0l0.4,0.5c0.4,0.5,0.7,1.2,0.9,1.8l0.2-0.1l0,0.1
	c0.8-0.6,1.5-0.8,2.5-0.6c0.6-2.6,2.5-4.3,5.2-3.9c3,0.4,4.1,3.4,4.5,6.5c2.8,1.5,4.8,4.9,3.8,8.6l-0.4,1l0.6,0.1l0,0l0.2,0
	c0.6,0.1,1.1,0.2,1.7,0.5c0.9,0.5,0.7-0.4,1.8-0.9c0.6-0.2,1.2-0.5,1.8-0.8l0.7-0.3v0l0.5-0.1c1.5-0.2,2.5-1.5,4-1.8
	c2.2-0.4,4.6,1,6.3,2.5c1.7,1.5,3,3.8,3.3,6.4c0.2,2.1-0.4,3.6-1.3,5c1,0.6,1.9,1.5,2.6,2.5c1.9-0.8,3.9-1,5.9-0.2
	c2.1,0.8,2.1,3.2,3,5.2c1.2,2.9,3.2,5.2,2.4,8.8l-0.2,0.5l0.1,0.4c0.4,1.4,0,2.4-0.6,3.5c-0.3,0.5-0.8,0.9-1.4,1.3h0.7
	c0.5,0,0.9,0,1.4,0l0.4,0l1,0.1h0.2H488c0.8,0.1,1.5,0.4,2.2,0.9c1.1,0.8,1.6,2,1.8,3.3l0.4,0.1l0,0h0c0.5,0.1,1,0.4,1.5,0.7
	l0.1,0.1c0.4,0.3,0.8,0.7,1.1,1.1l0.1,0.1c0.3,0.4,0.5,0.9,0.6,1.5v0.1l0,0.2l0,0v0.1c0,0.4,0,0.9,0,1.5c2.1,2.4,2.4,6,0,7.2
	l0.3,0.5c0.3,0.6,0.7,2.2-0.2,2.7c-0.9,0.5-1.8,0.6-2.6,0.6c1.7,2.9,4.6,6.9,2.9,9.6l1,0.1c1.5-1.3,3.4-1.6,5.2-0.7
	c2,1,2.4,3.1,2.4,5.3c1.7,0.1,3.4,0.8,3.9,2.6c0.4,0,0.7,0,1.1,0h0.2c0.8,0,1.5,0.1,2.1,0.4l0.2,0.1l1,0.8l0.1,0.1l0,0
	c0.4,0.4,0.7,0.9,1,1.5c1,2.2,0,4.4-1.3,6.3c1.2,0.6,2.1,1.7,2.4,3.7c0.4,2.9-2.5,4.8-4.7,5.8c-0.4,1.1-1.2,1.9-2.2,2.2l0.1,0.1
	l0.4,0.3l0.2-0.1l0.6,0.8l0.4,0.6l0.1,0.3l0.2,1.2c0.8,0.6,0.6,0.6,1.6,0.1c1.4-0.6,3.6,0.2,4.6,1.5l0.6,1.1
	c1.4,2.4,0.7,5.2-1.2,6.8l0.2,1.2l0,0c0.3,3.5-1.5,5.9-4.5,5.8c0.5,0.4,0.9,0.9,1.2,1.5c0.6,1.4,0.8,2.5,0.4,4
	c-0.2,0.6-0.2,1-0.3,1.6l-0.2-0.2l0.2,0.3c0.4,0.6,0.8,1.2,1,1.8c0.4-0.3,0.9-0.4,1.5-0.3c0.1-1.7,0.7-3.4,2.3-3.8
	c0.9-0.2,1.9,0.2,2.6,0.9c0.7,0.7,1.5,0.6,2.4,0.8c0.4,0,0.8,0.1,1.2,0.2l0,0c0.4,0,0.8,0.1,1.2,0.3l0,0l0.2,0
	c0.4,0.1,0.7,0.3,1.1,0.5l0.4,0.2c0.5,0.3,0.9,0.7,1.3,1.3c0.5,0.9,0.7,1.6,0.6,2.4c0.9,0.2,1.7,0.5,2.4,1.6
	c0.6,0.9,1.1,1.9,1.1,3.1c0,0.6,0,1.1-0.2,1.6c1.7,0.2,3.5,0.8,4.3,2.8c0.9,2.1,0.4,3.5-0.4,5.1C537.4,509.5,538.6,510,539.6,511z
	 M283.4,498.4l-0.1-0.8c-0.5,0.3-1.1,0.7-1.6,0.8c0.3,0.5,0.5,1.2,0.6,1.8l0.5,0l0.2-0.3l0.3-0.6L283.4,498.4z M332.1,703.2
	c-0.4-0.6-0.7-1.2-1.1-1.7l-0.4-0.4c0.3,0.6,0.5,1.3,0.7,1.9L332.1,703.2z M335,697.2c-0.5-0.4-1.1-0.9-1.6-1.4
	c0.4,0.5,0.7,1.2,1,1.7l0.6-0.2V697.2z M340.9,702.7l-0.6-0.6l0.4,0.7L340.9,702.7z M350.6,699.3c-0.4-0.6-0.7-1.2-1.1-1.7
	c0.1,0.6,0.2,1.3,0.4,1.9L350.6,699.3z M357.9,690.9l-0.4-0.8c0.2,0.4,0.2,0.9,0.4,1.4V690.9z M395.4,423.5L395.4,423.5l0.4-0.1
	L395.4,423.5z M396.1,435.2l-0.6-0.6l-0.1,0.3l0.5,0.5L396.1,435.2z M450.5,700.9l0.2-0.1L450.5,700.9L450.5,700.9z M449.3,702.2
	l0.5-0.2l0.3-0.6L449.3,702.2z M453.6,443.9h-0.1l0,0.2L453.6,443.9z M473.8,421.2l0-0.1c-0.2-0.6-0.2-0.7-0.2-0.3h-0.9
	C473.1,420.8,473.4,421,473.8,421.2z M479.6,439.6l-0.1-0.5L479.6,439.6z"/>
<path d="M1390.6,518c1.8,2.7-0.1,6.1-2,7.7c-2.3,1.9-5.6,1-7.9-0.2c-1.3-0.7-2.4-1.9-3.7-2.8c-0.6-0.4-1.7,0.8-2.1,1.2
	c-0.6,0.5-0.3,1.8-0.2,2.6c0,1.1-0.9,1.9-1.7,1.7c-2.6-0.4-5-0.9-6.7-3.4l-0.2-0.4c-0.8,1.3,1.4,2.7,2.1,3.6c0.6,1,0.6,2.3-0.2,3.1
	c-0.7,0.6-1.3,0.9-2.2,1c-1.5,0.2-1.1,0.3-0.5,1.8c0.8,2,0.6,4.2-0.7,5.9c-1.9,2.5-5.3,1.7-7.7,0c-2.2,1.3-4.4-0.8-6.1-3.1
	c-0.4-0.6-0.8-1.2-1.2-1.7l-0.1-0.1c-0.7,0.9,0.6,2.2,0.4,3.3l-0.2,1l0,0.1l-0.3,0.7l-0.2,0.3l-0.3,0.4l-0.7,0.5
	c-0.8,0.5-1.7,0.2-2.5,0c-0.6-0.2-1.1-0.7-1.7-0.8c-0.8-0.1-1.8,0.5-2.6,0.8c-2.1,0.7-4.5-1.5-5-3.9c-0.2-1.3-0.6,0.3-0.7,0.8
	c-0.1,0.8,0.1,1.7,0.3,2.4c0.3,0.9,0.6,2.1,0.3,3c-0.9,2.7-3.1,2.9-5.2,2.9c-1.9,0-3.8-1.3-4.7-3.4c-0.5-1.3-0.4-2.4-1.5-1.8
	c-0.8,0.4-1.8,0.3-2.5-0.1c-0.9-0.6-1.7-1.4-2.2-2.4l-0.2-0.6c-0.6-0.1-1.3,0-1.5,0.5c-0.7,1.5,0,1.5,0,3.1
	c-0.2,4.4-5.7,2.4-8.7,0.5c-0.6,0.1-1.2,0.1-1.8,0.1c0.4,1.6,0.6,3.3-0.7,4.4c-1.7,1.5-3.7,0.9-5.6,0c-1.7,2.1-4.3,0.8-6.1-1.4
	c-0.9,0.4-1.9,0.2-3-0.9l-0.6-0.9h-0.2c-0.8,0.8-2,1-3,0.8c-0.5-0.1-1.1-0.3-1.6-0.6c-1,0-1.9,0-2.9,0c-1.6,0-3.2,0-4.8,0.1
	c-0.6,0.2-1.4,0.2-2.3,0.1h-0.2l-0.8,0.1c-0.6,0.1-1.3,0.2-1.9,0.3l-0.9,0.1c-0.6,0.1-1.3,0.3-1.9,0.5l-0.8,0.2l-0.2,0
	c-0.2,0.4-0.4,0.9-0.8,1.2c-1.1,0.9-2.1,1-3.2,0.8c-1.5,1-2.9,2.2-3.9,3.8l-0.3,0.5c-4.1,6.5-5,16.4-5.6,24.1
	c-2,25.5-2.7,50.6,0.3,76.1c1.3,11.1,1.7,22.9,5.3,33.3c1.3,3.7,3,7.1,5.2,9.9l0.1,0l0.4,0.6c0.6,0.8,1.4,1.5,2.2,2.2
	c0.3-1,0.8-1.7,1.5-2.1c-0.5-1.2-1.1-2.4-1.7-3.5c-0.4-0.7,0.5-1.6,1-1l0.2,0.3c0.8-0.2,1.5,0.3,2.1,1.1c0.3-0.3,0.8-0.5,1.2,0
	c0.8,1.1,1.5,2.3,1.9,3.7l0.2-1.2c-0.6-1.8-2.8-4.8-0.6-5.9c0.4-0.2,1.1,0,1.5,0.4c0.4,0.5,0.8,1.1,1.1,1.7h0.1l1.1,0.4
	c1.3,1.7,1.8,3.7,1.7,5.8l0.1,0l0.4-0.7c-0.4-2.2-1.5-4.9-0.9-6.7c0.2-0.4,0.8-0.8,1.2-0.6c0.7,0.3,1.1,0.9,1.5,1.7
	c1.1,0,2.1,2.1,2.4,3.6l0.1,0l0.6,0.5c0.3-0.6,0.7-1.2,1.3-1.4c0.6-0.2,1.3,0.4,1.3,1.1c0.1,1.2-0.5,2.6-1.1,3.9l0,0.9
	c0.7-1.4,1.5-2.7,2.3-3.8c0.6-0.8,1.7,0.1,1.3,1.1c-1.1,2-2.4,3.8-3.5,5.8c0.5-0.3,0.9-0.7,1.4-1c0.8-1.1,1.7-1.9,2.9-2.2
	c0.4-0.1,0.8,0.3,1,0.8l0,0h0.6c0.6-0.5,1.1-1,1.7-1.2c1.1-0.3,2,0.9,1.5,2.1c-0.2,0.5-0.5,1-0.9,1.5l0.6-0.1l0.3,0
	c0.9-0.5,1.9-0.7,3-0.4c0.6,0.2,0.8,1,0.5,1.6c0.6-0.3,1.3,0,1.7,0.5l0.8,0.3l0.1,0.1l0.3,0c0.5,0.1,0.8,0.8,0.6,1.4
	c0.4-0.1,0.8-0.1,1.1-0.1l0.2-0.2c0.4-0.2,0.7,0.2,0.8,0.6l0.4,0.2c0.4,0.3,0.4,0.9,0.2,1.4l0,0.1c0.7-0.2,1.5-0.4,2.1-0.4
	c1,0,1.2,1.4,0.5,2l0,0c1.8-0.3,3.8-0.8,5.4-0.3c0.5,0.1,0.7,0.8,0.5,1.3c1.3,0.6,1.3,3.2-0.1,3.6c-3.6,1-7.1,0.6-10.7,0.1
	c-1.5,0.3-2.9,0.6-4.4,0.8c-2.3,0.6-4.7,0.7-7,0.8l-0.8-0.3c-0.5,0.2-0.9,0.5-1.4,0.8c-0.4,0.3-0.8-0.4-0.4-0.7
	c0.4-0.4,0.8-0.7,1.2-1l0-0.9c-1.1,0.2-2.2,0.4-3.4,0.6c0.9,0,1.9-0.1,2.7-0.2c0.4,0,0.4,0.7,0,0.8c-4.8,1-9.8,0.8-14.7,1.5
	c-0.5,0-0.6-0.9-0.2-1.1c0.9-0.3,1.9-0.5,2.9-0.7c-0.4-0.5-0.6-1.3-0.3-1.9l-0.6,0.4l-0.7-0.2h-0.1c-0.3,1.4-2,1.2-2.1-0.3v-0.2
	l-0.4,0.2l-0.4,0.3l-0.6,0.8l-0.5,0.2l0,0l-1,0.4l-0.6,0.4c-0.9,0.5-1.9-0.5-2-1.6c-0.6,0.9-1.9,1.2-2.5,0l-0.1-0.2l-0.3,0.8
	c-0.6,0.8-1,0.8-1.9,1.1c-0.4,0.1-0.8-0.1-1.1-0.4l0,0c-0.9,1-2.1,1-3.3,0.5l-0.4,0.7l-0.4,1c-1.1,0.7-2.3,1.3-3.4,1.9
	c-1.2,0.6-2.5,1.4-3.8,1c-0.7-0.1-0.9-1.1-0.5-1.7l0.2-0.2c-0.3-0.2-0.5-0.7-0.4-1.1l0.1-0.2c-0.5,0.2-1.1,0.5-1.6,0.7
	c-1.6,0.7-3.1,1.3-4.8,1.1c-0.5,0-0.7-0.4-0.8-0.9c-1.1,0.1-2.1,0-2.8-0.2c-0.6-0.2-0.9-0.8-1-1.4h-0.6l0.6,0.6
	c0.4,0.4,0.3,1.1,0,1.5c-0.2,0.6-0.8,1-1.4,0.6l0,0l-0.2-0.2l-0.1-0.1l0.3,0.3l-0.3,0.6c-1-0.7-2-1.5-2.8-2.4
	c-0.5,0-1.1-0.4-1.1-1.1l0-0.1c-0.4,0.5-0.8,1-1.3,1.5c0.4,0.5,0.8,1,1.1,1.5c0.3,0.5-0.4,1-0.7,0.5c-0.3-0.5-0.7-1-1.1-1.5
	l-0.4,0.3c-0.7,0.3-1.2-0.2-1.4-0.8l-0.4,0l-0.8-0.4l0.9,0.9l-0.4,0.7c-0.8-0.6-1.5-1.4-2.2-2.2h0c0.3,0.6,0.6,1.2,0.8,1.7
	c0.5,1.1-0.7,2-1.4,1.1c-0.4-0.6-0.8-1.4-1.1-2l-0.8-0.6l-0.7,0.1l0.3,0.3l0.5,0.3c0.4,0.3,0.2,1-0.3,1l-1-0.1
	c-1,0.3-2.2,0.1-3.1-0.5l-0.2,0c0.1,0.7-0.4,1.3-1,0.9l-0.6-0.2l-0.6,0.5c-1.4,0-3.6-0.2-4.8-1.4c-0.3,0.5-1,0.6-1.3,0l0,0
	c-0.7,0-1.4,0.1-2.1,0.1l-0.4,0.2l-0.2-0.2c-0.7,0-1.3,0-2,0l-0.1,0.4v0c-0.3,0.5-1,0.2-1.5-0.3l-1,0l0,0c0,1.2-1.2,2.1-2,1.2
	l-0.2-0.3l-0.2,0.4l-0.5-0.5l0.2-0.5l0,0c-0.6,0-1.1,0.2-1.7,0.2c-0.4,0.7-1.2,0.8-1.7,0.3l0,0c-0.4,0.1-0.8,0.1-1.3,0.2
	c-0.4,1.1-1.8,1.4-2.6,0.4c-0.7,0.1-1.4,0.2-2.1,0.3l-0.4,0h-0.2c-0.6,0-1.3,0-1.9,0h-0.6c-0.4,0.3-0.8,0.1-1.1-0.2
	c-0.5-0.1-1.1-0.2-1.6-0.4c0,0.7-0.2,1.3-0.8,1.8c-0.5,0.4-1.1-0.1-1.2-0.8c-0.1-0.7-0.3-1.4-0.6-1.9c-0.2-0.3-0.5-0.8-0.7-1.2
	l-0.4-0.4c0.4,1.2,0.4,2.3-1,2.6c-0.5,0.1-0.9-0.3-1.1-0.9l-0.2-0.3l-1-0.1l-0.4-0.5c-0.2,0.9-0.8,1.6-2,1.8c-1,0.1-1.3-1.3-0.8-2
	c0.4-0.6,0.4-1.3,0.2-2c0.1,0.5,0.1,1-0.1,1.5c-0.2,0.8-1.3,0.8-1.6,0.1l-0.2-0.4c-0.1,0.5-0.6,0.9-1.1,0.4l-0.4-0.5l-0.2,0.5
	c-0.3,0.4-0.9,0.2-1.1-0.3c-0.2-1-0.7-1.7-1.5-2.1c-0.4-0.2-0.2-1.1,0.2-0.9l0.6,0.2l-0.9-1.3c-0.4-0.4,0.2-1.1,0.6-0.7
	c1.1,1.2,2.5,2.2,3.4,3.6c-0.2-0.6-0.3-1.2-0.6-1.7l-0.4-0.6c-0.6,0-1.1-0.1-1.7-0.7v-1.1l0-0.5l-0.2-0.2c-0.3-0.3,0-1,0.4-0.7
	l0.2,0.1h0.1l0.2-0.6h0.1l-0.1-0.1c-0.4-0.5-0.4-1.4,0.1-1.8c1.5-1.2,3.6,0.3,4.7,1.5c0.4,0.4,0.6,0.9,0.8,1.4h0
	c0.3,0.3,1,0.8,1.9,1.5l-0.1-0.2c-0.4-0.5-0.8-1-1.2-1.5l0-0.7c-0.6-0.8-1.2-1.4-2.1-2c-0.4-0.3-0.4-1,0.1-1.2l0.9-0.2l0-0.1
	c-0.6-0.9,0.2-2,1.1-1.8c0.4,0,0.9,0.2,1.3,0.5c-0.4-0.4-0.4-1.4,0.1-1.7c0.8-0.6,1.6-0.5,2.2,0c-0.3-0.4-0.6-0.8-0.8-1.3l-0.1-0.5
	l-0.2-0.1c-0.4-0.2-0.4-1,0.1-1.2l0.4,0c0.3-0.5,0.8-0.8,1.4-0.7c1.7,0.3,3.2,2.1,4.5,3.7c1.6,0.8,2.8,2.3,3.7,4.1
	c0-0.6-0.1-1.3-0.1-1.8c-0.4-0.7-0.8-1.4-1.2-1.9c-0.8-1-1.9-1.3-2.7-2.2c-0.3-0.3-0.2-1.1,0.2-1.2s0.9,0,1.3,0.1
	c0.1-0.4,0.4-0.8,0.9-0.8c0.1-0.5,0.5-0.9,1-0.8c2.3,0.5,3.9,3.7,5.2,5.8c0.5,0.7,0.9,1.5,1.3,2.2l0.6,0.1c-0.1-0.4-0.2-0.9-0.4-1.3
	c-0.4-1.4-1.1-2.8-1.8-4c-0.8-1.4-2-1.8-3.1-2.8c-0.7-0.7-0.2-2.2,0.7-2.2c2.8,0,4.4,3,5.4,6.5c0.2-0.4,0.6-0.7,1-0.7
	c-1.3-3.1-3.1-5.2-5.1-7.8c-0.6-0.9,0-2.1,0.9-1.6c1.3,0.7,2.4,1.8,3.4,3.1h0c-0.4-0.5-0.6-1-0.8-1.8c-0.1-0.9,0.6-1.7,1.3-1.7
	c1.5,0,2.5,1.7,3.4,3l0.2-0.4c-0.6-0.9,0.2-2.2,1.1-1.6l0.8,0.7l0.7,0.6l0.4,0.3c0.8,0.2,1.5,0.8,2,1.4v-0.6c0-0.5,0.2-0.9,0.4-1.2
	l0-1c0.5-1.6,2.3-1.4,3.2-0.5c0.8,0.8,1.3,2,1.6,3.2c0.1-0.5,0.1-1,0.2-1.5c0.2-1.1,1.2-1.3,1.8-0.8c0.2-0.4,0.7-0.7,1.2-0.4
	c1.1,0.8,1.7,1.8,2.1,2.9c6.4-5.8,12.2-13.2,15.5-21.8c4-10.5,2.7-22.2,1.6-33.4c-1.1-10.9-2.7-21.5-1.9-32.5
	c0.9-12.5,3.2-24.6,2.5-37.1c-0.4-6.7-1.1-13.3-2.4-19.8c-1.9,0.4-4.8-0.8-6.8-2c-0.6,0.1-1.2,0.1-1.8,0.1c0.4,1.6,0.6,3.3-0.7,4.4
	c-1.7,1.5-3.7,1-5.6,0c-1.7,2.1-4.3,0.8-6.1-1.4c-0.9,0.4-1.9,0.2-3-0.9c-0.9-0.9-1.3-2.1-1.7-3.3l-0.9-0.2
	c-0.4-0.1-0.8-0.3-1.3-0.6c-1-0.4-1.9-1.1-2.7-2.2c-1.3,0.4-2.5,0-3.7-0.8c-0.6-0.1-1.2-0.1-1.8-0.1c-1.6,0.2-3.1-0.7-4.5-2
	c-1.2,1.2-2.6,1.2-4.5,0.2c-1.1-0.5-1.9-1.4-2.9-2.2l-0.2-0.1l-0.5,0.1c-0.4,0.1-1.9,1.2-2.3,0.6c1.4,2.1,2.5,5.1,0.4,7.2
	c-1.3,1.4-3,1.2-4.7,1c-0.6,1.6-2,1.8-3.6,1.5l0,0l-0.1,0c-0.5-0.1-1.1-0.3-1.7-0.6c-2.2,3.6-6.8,5.5-10.3,4.4
	c-2.9-0.9-4.9-4.5-5.1-8.2l-0.4,0.3c-0.8,0.4-1.7,0.8-2.5,0.4l-0.7-0.4l-0.5-0.5l-0.1,0l-0.2-0.4l-0.2-0.3l-0.1-0.2l-0.2-0.6l0,0
	l0,0c-0.3-1.1,0.8-2.6,0-3.4l-0.1,0.1c-0.4,0.6-0.7,1.3-1.1,1.9c-1.4,2.5-3.4,4.9-5.7,3.9c-2.1,2-5.5,3.3-7.6,1.1
	c-1.4-1.5-1.9-3.5-1.3-5.7c0.4-1.5,0.8-1.7-0.7-1.7c-0.8,0-1.5-0.1-2.2-0.6c-0.9-0.6-1.1-2-0.5-3c0.6-1.1,2.6-2.8,1.7-3.9l-0.2,0.4
	c-1.5,2.8-3.8,3.6-6.3,4.4c-0.8,0.2-1.9-0.4-1.9-1.5c0-0.7,0.1-2-0.5-2.5c-0.4-0.3-1.7-1.4-2.2-0.9c-1.2,1.1-2.1,2.4-3.4,3.3
	c-2.2,1.5-5.4,2.9-7.9,1.4c-2.1-1.3-4.2-4.4-2.8-7.4c0.8-1.5,1.9-2.2,3.1-2.9c-0.9-1.4-1.6-2.8-0.9-5c0.6-2.1,2.3-2.9,4-3.4
	c-0.2-0.5-0.3-1-0.4-1.6c-0.1-1.1,0.3-2.3,0.8-3.2c0.6-1.2,1.4-1.6,2.2-1.9c-0.2-0.7-0.1-1.5,0.4-2.5c0.3-0.6,0.7-1.1,1.1-1.5
	l0.4-0.3c0.4-0.2,0.7-0.5,1.1-0.7l0.1-0.1l0,0c0.4-0.2,0.8-0.3,1.1-0.5l0,0c0.4-0.1,0.8-0.3,1.2-0.4c0.9-0.3,1.7-0.3,2.3-1.1
	l0.9-0.8c-3,0.2-5-2.1-4.8-5.7h0l0.1-1.3c-2-1.5-2.9-4.4-1.5-7l0.6-1.2c1-1.4,3.2-2.5,4.7-1.9c1.1,0.4,0.8,0.4,1.6-0.2
	c0-0.4,0.1-0.8,0.2-1.2l0.1-0.3l0.4-0.7l0.5-0.9h0.3l0.3-0.2l0.1-0.1c-1.1-0.2-1.9-1-2.4-2.1c-2.3-0.8-5.5-2.6-5.2-5.6
	c0.2-2.1,1.1-3.3,2.3-4c-1.5-1.9-2.5-4.1-1.6-6.4c0.3-0.7,0.6-1.3,1-1.7l0,0l0.1-0.1l1-0.8l0.2-0.1c0.7-0.3,1.4-0.5,2.2-0.6h0.2
	c0.4,0,0.8-0.1,1.2-0.1c0.5-1.9,2.1-2.8,4-3c-0.1-2.3,0.2-4.5,2.2-5.7c1.8-1.1,3.8-0.8,5.4,0.4c1.1-0.6,2.1-0.4,3.1,0.2l0.2-0.3
	c0.6-0.9,1.2-1.5,2.2-1.8l0.9-0.2l0.2-1.1l0.6-0.9c0-1.3,0.1-2.6,0.5-3.6c0.7-1.9,1.7-2.7,2.9-2.8c-1.3-2.4-1.7-5.2-0.5-7.7
	c0.8-1.7,0.7-3.8,1.7-5.5c1-1.9,2.3-1.3,3.6-0.9c0.1-1.3,0.4-2.4,0.9-3.4c-2.1-2-4-4.8-5-7.7c-0.3-0.9-0.4-1.7-0.5-2.5l0-0.3
	c0-0.7,0.1-1.4,0.2-1.9l0.1-0.3c0.2-0.6,0.5-1.1,0.9-1.5l0.2-0.1c0.7-0.7,1.6-1.2,2.7-1.4c0.2-2.9,1.1-6.2,3.6-6.8
	c1.5-0.4,2.7,0.3,4,1.3c0.6,0.5,1.3,1.3,1.7,2.1c0.4-0.4,0.7-0.8,1-1.3c0.6-0.2,0.7-0.5,0.1-0.8c-0.6-0.7-1.3-1.3-1.7-2.1
	c-0.9-1.8-1.2-4-0.7-6c0.4-1.7,1.7-3,3.1-3.2c1.5-0.2,2.3,0.1,3.2,0.8c0.4-0.3,0.7-1,1.2-1.3c1-0.5,2-0.4,2.9,0.2
	c0.7,0.4,1.2,1.1,1.6,1.9c1.9-0.3,4.1,0.3,5.8,1.5l0.8-1.1c-0.4-1.3-0.1-2.7,1.3-3.5c0.7-0.4,1.5-0.7,2.2-1l0.9-0.4l-0.2-0.3l-0.5-1
	c-1.7,0.2-3.4,0.3-4.6-0.7c-2.1-1.7-2.6-3.9-2-6.3c-0.4-0.6-0.6-1.3-0.4-2.2c0.4-1.5,1.8-2.9,3.1-3.9c0-1.2,0.3-2.2,0.9-3.3l0.4-0.8
	l0-0.2c-0.3-1-0.4-1.8-0.3-2.8c0.2-3.2,3.3-5,5.7-5.4c0.5-0.5,1.1-0.9,1.7-1.3l0,0l0,0c1.7-1.1,3.5-1.8,5.4-1.9c1,0,1.9,0.3,2.6,1.1
	l0.4-0.2c0.4-0.2,0.7-0.3,1.1-0.4c0.6-0.2,1.3,0,1.9,0.2c1.1,0.4,2.2,2.6,3,2.7c2.1,0.3,3.2-0.1,4.8-1.7c0.5-0.5,1-0.8,1.5-1
	c0.7-1.5,1.8-2.7,3.2-3.6c0.3-1.1,0.8-2,1.4-2.8c-0.1-0.7-0.1-1.3,0.2-1.8c0.2-0.5,0.5-0.9,0.8-1.2c-1.4-2.6-3.1-6.7-1.2-9.4
	c0.9-1.4,1.9-2.1,3.4-2.3c0.7-0.1,1.4,0,2.1,0.1c0.4,0,0.8,0.1,1.1,0l0,0c0.8-0.1,1.1-0.6,0.6-2c-0.7-2.3-0.5-5.9,2-6.5l1,0h0l0,0
	c1.7,0.1,3.4,1.6,4.8,2.8l0.9,0.7c0.1,0,0.4-0.4,0.7-0.9l0.3-0.4l0.4-0.3c1.2-0.1,2.1,0.2,3.1,1.1c1.4,1.2,3-1.3,4-2.2
	c1.1-1,2.5-1.2,3.8-1.1c1.1,0,2,1.3,2,2.5c0,1.4-0.3,2.8-0.4,4.1c0,0.6,0.6,1.2,1.3,1.6c2-0.7,4.2-0.3,5.5,1.5
	c0.7-1,1.5-1.8,2.3-2.8c0.8-1,1.8-0.8,2.8-0.3c4.7,2.6,5.9,12,4,18.3l1-0.4c1.5-0.7,3.2,0.8,3.2,2.7c0,0.5,0,0.8-0.1,1.2l0,0l0,0.3
	l1,0.3l0.5,0.2v0l1,0.6l0.5,0.2l0.5,0.1l-0.3-0.6c-0.5-0.8-1.1-1.5-1.4-2.4c-0.6-1.9-0.6-4.2,0.1-6.1c0.6-1.6,2-2.6,3.5-2.6
	c1.4,0,2.2,0.6,3.1,1.4c0.4-0.2,0.8-0.9,1.3-1c1.1-0.3,2,0,2.9,0.8c0.6,0.6,1.1,1.4,1.3,2.2c2.5,0.1,5.1,1.7,6.7,3.8
	c1.4,1.8,2,4,1.5,6.4l-0.5,1.1l-0.1,0.2l-1.1,1.1l-0.1,0.1l0,0l-0.1,0.1h0l0.4,0.5c0.4,0.5,0.7,1.2,0.9,1.8l0.2-0.1l0,0.1
	c0.8-0.6,1.5-0.8,2.5-0.6c0.6-2.6,2.5-4.3,5.2-3.9c3,0.4,4.1,3.4,4.5,6.5c2.8,1.5,4.8,4.9,3.8,8.6l-0.4,1l0.6,0.1l0,0l0.2,0
	c0.6,0.1,1.1,0.2,1.7,0.5c0.9,0.5,0.7-0.4,1.8-0.9c0.6-0.2,1.2-0.5,1.8-0.8l0.7-0.3v0l0.5-0.1c1.5-0.2,2.5-1.5,4-1.8
	c2.2-0.4,4.6,1,6.3,2.5c1.7,1.5,3,3.8,3.3,6.4c0.2,2.1-0.4,3.6-1.3,5c1,0.6,1.9,1.5,2.6,2.5c1.9-0.8,3.9-1,5.9-0.2
	c2.1,0.8,2.1,3.2,3,5.2c1.2,2.9,3.2,5.2,2.4,8.8l-0.2,0.5l0.1,0.4c0.4,1.4,0,2.4-0.6,3.5c-0.3,0.5-0.8,0.9-1.4,1.3h0.7
	c0.5,0,0.9,0,1.4,0l0.4,0l1,0.1h0.2h-0.1c0.8,0.1,1.5,0.4,2.2,0.9c1.1,0.8,1.6,2,1.8,3.3l0.4,0.1l0,0h0c0.5,0.1,1,0.4,1.5,0.7
	l0.1,0.1c0.4,0.3,0.8,0.7,1.1,1.1l0.1,0.1c0.3,0.4,0.5,0.9,0.6,1.5v0.1l0,0.2l0,0v0.1c0,0.4,0,0.9,0,1.5c2.1,2.4,2.4,6,0,7.2
	l0.3,0.5c0.3,0.6,0.7,2.2-0.2,2.7c-0.9,0.5-1.8,0.6-2.6,0.6c1.7,2.9,4.6,6.9,2.9,9.6l1,0.1c1.5-1.3,3.4-1.6,5.2-0.7
	c2,1,2.4,3.1,2.4,5.3c1.7,0.1,3.4,0.8,3.9,2.6c0.4,0,0.7,0,1.1,0h0.2c0.8,0,1.5,0.1,2.1,0.4l0.2,0.1l1,0.8l0.1,0.1l0,0
	c0.4,0.4,0.7,0.9,1,1.5c1,2.2,0,4.4-1.3,6.3c1.2,0.6,2.1,1.7,2.4,3.7c0.4,2.9-2.5,4.8-4.7,5.8c-0.4,1.1-1.2,1.9-2.2,2.2l0.1,0.1
	l0.4,0.3l0.2-0.1l0.6,0.8l0.4,0.6l0.1,0.3l0.2,1.2c0.8,0.6,0.6,0.6,1.6,0.1c1.4-0.6,3.6,0.2,4.6,1.5l0.6,1.1
	c1.4,2.4,0.7,5.2-1.2,6.8l0.2,1.2l0,0c0.3,3.5-1.5,5.9-4.5,5.8c0.5,0.4,0.9,0.9,1.2,1.5c0.6,1.4,0.8,2.5,0.4,4
	c-0.2,0.6-0.2,1-0.3,1.6l-0.2-0.2l0.2,0.3c0.4,0.6,0.8,1.2,1,1.8c0.4-0.3,0.9-0.4,1.5-0.3c0.1-1.7,0.7-3.4,2.3-3.8
	c0.9-0.2,1.9,0.2,2.6,0.9c0.7,0.7,1.5,0.6,2.4,0.8c0.4,0,0.8,0.1,1.2,0.2l0,0c0.4,0,0.8,0.1,1.2,0.3l0,0l0.2,0
	c0.4,0.1,0.7,0.3,1.1,0.5l0.4,0.2c0.5,0.3,0.9,0.7,1.3,1.3c0.5,0.9,0.7,1.6,0.6,2.4c0.9,0.2,1.7,0.5,2.4,1.6
	c0.6,0.9,1.1,1.9,1.1,3.1c0,0.6,0,1.1-0.2,1.6c1.7,0.2,3.5,0.8,4.3,2.8c0.9,2.1,0.4,3.5-0.4,5.1C1388.4,516.5,1389.6,517,1390.6,518
	z M1134.4,505.4l-0.1-0.8c-0.5,0.3-1.1,0.7-1.6,0.8c0.3,0.5,0.5,1.2,0.6,1.8l0.5,0l0.2-0.3l0.3-0.6L1134.4,505.4z M1183.1,710.2
	c-0.4-0.6-0.7-1.2-1.1-1.7l-0.4-0.4c0.3,0.6,0.5,1.3,0.7,1.9L1183.1,710.2z M1186,704.2c-0.5-0.4-1.1-0.9-1.6-1.4
	c0.4,0.5,0.7,1.2,1,1.7l0.6-0.2V704.2z M1191.9,709.7l-0.6-0.6l0.4,0.7L1191.9,709.7z M1201.6,706.3c-0.4-0.6-0.7-1.2-1.1-1.7
	c0.1,0.6,0.2,1.3,0.4,1.9L1201.6,706.3z M1208.9,697.9l-0.4-0.8c0.2,0.4,0.2,0.9,0.4,1.4V697.9z M1246.4,430.5L1246.4,430.5l0.4-0.1
	L1246.4,430.5z M1247.1,442.2l-0.6-0.6l-0.1,0.3l0.5,0.5L1247.1,442.2z M1301.5,707.9l0.2-0.1L1301.5,707.9L1301.5,707.9z
	 M1300.3,709.2l0.5-0.2l0.3-0.6L1300.3,709.2z M1304.6,450.9h-0.1l0,0.2L1304.6,450.9z M1324.8,428.2l0-0.1
	c-0.2-0.6-0.2-0.7-0.2-0.3h-0.9C1324.1,427.8,1324.4,428,1324.8,428.2z M1330.6,446.6l-0.1-0.5L1330.6,446.6z"/>
<polygon points="34.3,748.2 175.6,713.6 236.5,711.8 362.4,707.5 580.1,693.9 795.1,706.2 1009.5,683.6 1194.6,713.6 1390.9,703.6 
	1384,909.7 34.3,909.7 "/>
<polyline points="1407.3,699 1647.9,718.1 1699.7,714.3 1699.7,968.7 332.9,968.7 332.9,858.1 290.9,853.7 "/>
</svg>
