<?xml version="1.0" encoding="utf-8"?>
<!-- Generator: Adobe Illustrator 27.7.0, SVG Export Plug-In . SVG Version: 6.00 Build 0)  -->
<svg version="1.1" id="Layer_1" xmlns="http://www.w3.org/2000/svg" xmlns:xlink="http://www.w3.org/1999/xlink" x="0px" y="0px"
	 viewBox="0 0 1610 768" style="enable-background:new 0 0 1610 768;" xml:space="preserve">
<path d="M756.7,506.2c2.1,3.1,1.1,6.8-1.7,8.9c0.2,0.5,0.2,1.1,0.3,1.6h0c0.5,4.8-2.6,8.2-7.5,7.6c-1,1.4-2.3,2.1-4.1,1.8
	c-0.8-0.1-1.6-0.5-2.3-0.9c0,0.2-0.1,0.5-0.2,1.1c0,0.4,0.2,0.7,0.4,1.1l0.5,0.7c0.2,0.4,0.5,0.7,0.6,1.1c0.3,1.1-0.9,2.8-1.7,3.3
	c-2.3,1.4-4.8,2.6-7.2,3.6l-0.6,0.3l0.3,0.7l0.2,0.4l0.5,0.8c1,1.4,2.2,2.5,2.8,4.1c0.9,2.6-1.2,4.5-3.2,5.4c-1.1,0.4-2.5,0.7-4,0.8
	c-0.6,0.4-1.3,0.7-2,0.9c1.1,1.6,1.5,3.6,0.6,6.1c-1.4,3.6-6.3,3.3-9.6,2.6c-1.3,0.9-2.7,1.2-4.2,0.7v0.1l0.4,0.7l0.3,0
	c0.2,0.5,0.3,1.1,0.3,1.6v0.1v0.4l0,0.9l-0.1,0.4l-0.3,0.9c0.7,1.2,0.3,1.1,1.9,1.4c2.2,0.4,4.4,3.2,4.8,5.4
	c0.1,0.6,0.1,1.2,0.1,1.7c0.2,3.8-2.4,6.4-5.8,6.6c-0.1,0.5-0.3,1-0.5,1.5h0c-1.9,4.4-6.2,5.5-10.1,2.4c-1.4,0.6-2.7,0.4-4-0.5
	l-0.4,0.3c-0.9,2.1,0.2,2,0.3,4.1c0.2,5.8-8,4.1-12.7,2c-0.5,0.1-0.9,0.1-1.3,0.2c0.2,1.1,0.3,2.2,0.1,3.3c-0.2,1.1-0.8,1.8-1.6,2.3
	l-0.3,0.8c-2.4,2.3-5.4,1.8-8.2,0.9c-2.2,3-6.2,1.7-9.2-0.8c-1.2,0.7-2.8,0.6-4.5-0.7c-1.6-1.1-2.4-2.9-3.1-4.6
	c-2.7,0.5-5.2-0.4-7.1-2.5c-1.1,0.4-2.1,0.4-3.2,0.3c-0.5,0.1-1,0.2-1.6,0.2c-1.4,0-4.1-1.2-4.9,0.2c-0.3,0.5-0.4,0.9-0.5,1.2
	c-0.2,0.9,0.5,1.4,0.4,2.9c-0.3,5.8-8.3,3.2-12.8,0.7l-0.7,0l-0.3,0.2c-0.5,0.2-1,0.4-1.5,0.6c0.5,1.9,0.5,3.8-1.2,5.1
	c-2.2,1.8-4.7,1.4-7.1,0.5c-1.8,3-3.8,5.8-4.7,9.3c-0.9,3.3-1.2,6.7-1.2,10.1c-0.2,15.9,3.8,31.4,5.1,47.1
	c0.4,4.5,0.6,10.6,2.2,15.6l0.1-0.4c0.6-5,0.8-10,3.4-14.4c0.4-0.7,1.4-0.1,1,0.6l-0.2,0.6v0.1c-0.9,3.6-1.1,7-1.1,10.6
	c0.9-4,2.4-7.9,4.4-11.5c0.2-0.4,0.8,0,0.7,0.4c-2.8,6.8-3.8,13.9-4,21.1l0.3,0.4c-0.2-2.1,0.9-4.8,1.2-6.3c0.9-4.1,2.6-7.7,5.1-11
	l0.2,0.2l-0.5,1c0.7-1,1.3-2,1.9-3c0.3-0.6,1-0.1,0.8,0.5c-1.4,3.5-3.5,6.7-4.2,10.4c-0.2,1.2-0.4,2.4-0.5,3.7
	c1.7-3.5,4.1-6.6,7.2-8.5c0.4-0.2,0.7,0.4,0.4,0.7l-0.9,0.9c0.3-0.2,0.7,0.1,0.5,0.6c-0.2,0.5-0.5,0.9-0.7,1.4
	c0.6-0.6,1.1-1.2,1.7-1.7l0.6,0.6c-1.7,2.4-3.4,4.7-4.7,7.4c-0.9,1.9-1.4,3.7-1.8,5.5l0.6-1.1c1.4-2.2,3.1-4.5,5.4-5.5l0.5,0.6
	l-0.1,0.1c0.7-0.4,1.4-0.7,2.2-1l0.2,0.6c-2,1.1-3.7,3-4.9,5.2c0.6-0.6,1.2-1.1,1.8-1.6l0.5,0.5c-1.6,1.9-3.3,3.8-4.2,6.1
	c-0.1,0.6-0.2,1.1-0.2,1.6l-0.3,0.7l-0.1,0.4c-0.1,1.1-1.7,1.4-1.8,0.3v0c-1.3,1.1-4,1.5-5,1.7c2.7,3.6-1.8,4.6-4.3,5
	c-3.2,0.6-6.3,1.5-9.5,1.5l-0.3,0l0.2,0.2l0,0.4c-0.6,0-1.3,0-1.9-0.1c-1.3-0.1-3.6,0.1-4.5-1c-0.3-0.5-0.5-1.1-0.7-1.6l-0.4,0
	c0.1,0.4,0.1,0.8,0.2,1.2h-0.2l-0.5-0.4c-0.7-0.5-1.2-0.6-1.6-0.5v-0.1l-0.9,0.2l0,0.5c-0.4,0-0.8,0-1.2,0.1l-0.5,0.1l0-0.4h-0.1
	l0,0.4c-0.6,0.2-1.2,0.4-1.8,0.7c-1.2,1.3-1.7,3.2-4,3.4c-2,0.2-4.2,0-6.1-0.3c-2.8-0.4-5.5-1.2-7.9-2.7c-0.5-0.3-1-0.7-1.3-1.3
	c-0.5,0.1-0.9,0-1.3-0.4c-0.5-0.7-0.2-2.1,0.2-3.1c-1.1,0.5-2.3,1-3.5,1.3c-1.9-0.4-3.8-1-5.7-1.4c-1.1,0-2.3-0.1-3.4-0.2
	c-2.4-0.3-3.2-0.9-3.1-1.7l-0.2,0c-3.8-3.1-7.1-6.2-12.2-6.3c-0.4,0-0.5-0.6-0.1-0.7c4.1-0.7,7.6,0.4,10.8,2.4
	c-0.4-0.6-0.9-1.2-1.4-1.8l0,0c-0.9-0.9-2-1.6-3.2-1.8v-0.3l0.9,0.1c-0.7-0.5-1.4-0.9-2.2-1.2c-0.4-0.1-0.3-0.8,0.1-0.7
	c1.1,0.2,2.2,0.5,3.2,1c-1.7-1.7-3.8-2.9-6.2-3v-0.6c3.7-0.4,7.5,1.5,10,4.4c1.1,1.2,2.7,3.1,3.6,5l0,0c-0.1-0.4-0.1-0.9-0.2-1.5
	c-0.2-1.3-0.6-2.7-1.1-3.9c-1.1-2.5-2.8-5.2-5.2-6.6l0.2-0.5c2.6,1.2,4.5,3.2,6.1,5.7l0.6,0.9l0-0.5c-0.5-3-1.6-6.7-4.2-8.4
	c-0.5-0.3-0.1-1,0.4-0.7c3,1.4,4.3,4.9,5.4,7.9c0.4,1,1,2.6,1.4,4.4c1-5.4,0.7-11.8-3.4-15.6l0.2-0.3c2.2,1.2,3.7,3.3,4.6,5.6
	c0.9,1.4,1.6,2.9,2,4.4c0.2-0.4,0.3-0.8,0.4-1.2c0-3.4-0.4-6.8-2.1-9.9l0.3-0.3c1.5,1.9,2.3,4,2.8,6.2c0.7-4,0.7-8.1,0.7-12.2
	c0.1-9.6-0.2-19.1,0-28.6c0.1-5.2,0.4-10.4,0.9-15.5c0.5-4.5,0.1-9-0.1-13.6c-0.2-4.5-0.6-8.3-2.6-12.2c-2.1,0.7-4.4,0.1-6.6-0.8
	c-2.5,2.7-6.3,1.1-9-1.8c-1.3,0.6-2.8,0.3-4.5-1.2c-0.5-0.5-0.9-1-1.2-1.5c-3.4,4.2-9.7,6.4-14.5,5.1c-2.4-0.7-4.3-2.5-5.7-4.8
	l-1,0.4c-1.5,0.4-3-0.1-4.5-0.4c-1.6-0.4-3.1,0-4.7-0.4c-3-0.8-4.3-3.8-5.2-6.6l-0.3-0.5c0.2,1.6-0.2,3.1-1.6,4.4
	c-1.9,1.8-4.5,1.5-6.9,1.3c-0.9,2.1-3,2.5-5.3,1.9l0,0h0c-0.8-0.2-1.7-0.5-2.5-0.8c-3.2,4.7-10,7.2-15.1,5.9
	c-5.2-1.4-8.5-8.2-7.4-13.7c-0.8-1-1.4-2.1-1.9-3.3c-4.7-1.9-6.1-7.4-4-11.9h-0.1c-3.1,3.4-9.8,3.9-13.4,2.7
	c-2.1-0.7-4.5-2.7-3.6-5.4c0.6-1.8,1.8-3,2.7-4.5c0.2-0.4,0.5-1,0.7-1.6l0.2-0.4l-0.6-0.2c-2.6-0.8-5.2-1.9-7.7-3.2
	c-0.9-0.4-2.2-2.2-1.9-3.3c0.1-0.4,0.3-0.8,0.6-1.1l0.5-0.8c0.2-0.4,0.3-0.7,0.3-1.1c-0.1-0.6-0.2-0.9-0.2-1.1
	c-0.7,0.4-1.5,1-2.4,1.1c-1.9,0.4-3.3-0.3-4.3-1.6c-5,0.9-8.5-2.4-8.2-7.4h0c0-0.6,0.1-1.1,0.2-1.7c-3-2-4.2-5.8-2.3-9.2
	c0.2-0.5,0.5-1,0.9-1.5c1.4-1.8,4.7-3.2,7.2-2.2c1.6,0.5,1.2,0.5,2.4-0.4l0.1-1.1l0.1-0.4l0.4-0.9l0.2-0.4l0.1-0.1
	c0.3-0.5,0.6-0.9,1-1.3l0.2,0.1l0.6-0.4l0.1-0.1c-1.6-0.4-2.8-1.4-3.6-2.8c-3.4-1-8.1-3.3-7.6-7.4c0.2-2.7,1.6-4.3,3.3-5.2
	c-2.1-2.5-3.7-5.4-2.4-8.5c0.4-1,0.9-1.7,1.4-2.2h0l0.2-0.2l0,0c0.5-0.4,0.9-0.7,1.4-1l0.3-0.2c0.9-0.4,2-0.7,3.2-0.7l0.4,0
	c0.5,0,1.1,0,1.7-0.1c0.6-2.1,2.4-3.2,4.5-3.7c-0.2-1.7-0.5-3.4-1.4-4.3c-2.4-2.6,0.6-5.4,2.9-3.1c0.1-1.4,0.3-2.7,1.3-3.7
	c-0.4-1.3-0.2-2.6,0.5-3.8c-1.2-1.1-1.8-2.6-1-4.5c0.2-0.4,0.5-0.8,0.8-1.1c0-1.8,0.2-3.4,0.7-4.8c1-2.6,2.5-3.5,4.3-3.7
	c-1.8-3.1-2.5-6.8-0.7-10.1c1.3-2.3,1.1-5,2.5-7.3c1.5-2.6,3.4-1.7,5.3-1.1c0.1-1.6,0.5-3.1,1.4-4.4c-3.2-2.7-5.9-6.3-7.4-10.1
	c-0.2-0.7-0.5-1.3-0.6-1.9l-0.1-0.7l-0.1-1.1l0-0.7l0.1-0.9l0.2-0.7l0.2-0.7l0.3-0.6l0.5-0.6l0.5-0.5l0.6-0.5l0.5-0.4l0.9-0.4
	c0.7-0.3,1.4-0.6,2.2-0.7c0.4-3.8,1.7-8.1,5.4-9c2.2-0.5,4,0.4,5.9,1.7c0.9,0.7,2,1.7,2.6,2.7c0.6-0.4,1-1,1.4-1.7
	c1-0.3,1-0.6,0.2-1.1c-0.9-0.9-1.8-1.7-2.4-2.8c-1.3-2.4-1.7-5.3-1-8c0.6-2.2,2.4-3.9,4.6-4.2c2.1-0.3,3.3,0.2,4.7,1.1
	c0.6-0.4,1-1.3,1.7-1.6c1.5-0.7,2.9-0.5,4.3,0.3c1,0.6,1.8,1.5,2.4,2.5c2.8-0.4,6,0.5,8.5,2c0.4-0.5,0.8-1,1.3-1.5
	c-0.6-1.6-0.2-3.4,1.9-4.6c1-0.6,2.2-0.9,3.3-1.3c0.5-0.2,0.9-0.4,1.4-0.6l-0.4-0.5c-0.3-0.4-0.5-0.9-0.7-1.3
	c-2.4,0.3-5.1,0.4-6.9-0.9c-3.1-2.2-3.8-5.2-2.9-8.3c-0.6-0.8-0.9-1.8-0.5-3c0.6-2,2.7-3.9,4.5-5.1c0-1.5,0.4-2.9,1.3-4.4l0.6-1
	l0-0.4c-0.4-1.2-0.5-2.4-0.5-3.7c0.2-4.3,4.9-6.6,8.4-7.1c0.8-0.6,1.6-1.2,2.5-1.7l0.1,0l0,0c2.4-1.4,5.1-2.3,8-2.5
	c1.5-0.1,2.8,0.4,3.8,1.4l0.6-0.2c0.5-0.3,1.1-0.4,1.7-0.5c0.9-0.2,1.9,0,2.7,0.3c1.6,0.6,3.3,3.3,4.4,3.5c3.1,0.4,4.7-0.2,7.1-2.2
	c1.4-1.2,2.8-1.6,4-1.3c0.7-1.9,2.4-3.1,4.7-4c1.2-0.4,2.5-0.7,3.8-0.6c-0.9-2.7-1.2-5.5,0.4-7.8c1.4-1.8,2.8-2.8,5-3
	c1-0.1,2.1,0,3.1,0.1c0.6,0,1.2,0.1,1.6,0c1.3-0.1,1.6-0.7,1-2.6c-1-3-0.7-7.7,2.9-8.5c0.5-0.1,0.9-0.1,1.4-0.1h0l0,0
	c1.8,0.2,3.6,1.2,5.3,2.4l0,0l1.1,0.7l0.7,0.5c0.5,0.4,1,0.7,1.5,0.9c0.2,0.1,0.7-0.7,1.2-1.4l0.2-0.3l0.7-0.4
	c1.8-0.2,3.2,0.3,4.6,1.4c2.1,1.6,4.4-1.7,5.9-2.9c1.6-1.3,3.6-1.5,5.5-1.5c1.6,0.1,2.9,1.6,2.9,3.3c0,1.8-0.4,3.6-0.6,5.4
	c-0.1,0.8,0.8,1.5,1.9,2.2c2.9-1,6.2-0.4,8.1,2c1.1-1.2,2.2-2.4,3.4-3.6c1.3-1.2,2.7-1.1,4.2-0.4c6.3,3.1,8.3,13.5,6.6,21.5
	c1.1,0.4,2.1,1.1,3.1,1.9c1.2,0.4,2.1,1.6,2.4,3.1l0.2,0.4c0.6-0.4,1.2-0.8,1.7-1.4c1-0.1,1.1-0.4,0.3-1.1c-0.7-1-1.5-1.9-2-3.1
	c-0.9-2.5-0.9-5.5,0.2-8c0.9-2.1,3-3.4,5.1-3.4c2.1,0,3.3,0.7,4.5,1.8c0.6-0.3,1.2-1.1,1.9-1.3c1.6-0.4,2.9-0.1,4.2,1
	c0.9,0.7,1.5,1.7,1.9,2.8c3.7,0.1,7.5,2.3,9.9,5.1c2.1,2.4,2.9,5.3,2.2,8.4l-0.4,0.9l-0.2,0.3l-0.4,0.5l-0.3,0.3l-0.4,0.4l-0.5,0.4
	l0,0l0,0l-0.4,0.3l-0.2,0.1l0,0l-0.2,0.1l0.7,0.7c0.5,0.6,1.1,1.5,1.3,2.4l0.3-0.2l0,0c1.1-0.8,2.2-1,3.6-0.7
	c0.8-3.4,3.7-5.6,7.6-5.1c4.5,0.6,6.1,4.5,6.7,8.5c4.1,1.9,7.1,6.4,5.6,11.3c-0.2,0.4-0.4,0.8-0.6,1.3l0.9,0.2v0l0.2,0.1
	c0.8,0.1,1.6,0.4,2.4,0.7c1.4,0.6,1.1-0.7,2.6-1.2c0.9-0.3,1.7-0.7,2.6-1c0.4-0.1,0.7-0.3,1.1-0.4v0.1l0.7-0.2
	c2.3-0.3,3.6-2.1,5.8-2.4c3.2-0.5,6.7,1.3,9.2,3.3c2.6,2,4.4,5,4.8,8.5c0.4,2.7-0.7,4.7-1.9,6.6c1.5,0.8,2.8,1.9,3.8,3.3
	c2.8-1.1,5.8-1.4,8.8-0.4c3.1,1.1,3.2,4.3,4.3,6.9c1.7,3.8,4.7,6.9,3.5,11.5l-0.4,0.7l0.2,0.6c0.6,1.8,0,3.1-0.9,4.6
	c-0.4,0.7-1.2,1.2-2,1.7h1.1c0.7,0,1.4,0,2.1,0h0.3c0.6,0,1.2,0.1,1.8,0.2h0.2h0c1.1,0.2,2.2,0.5,3.3,1.2c1.6,1.1,2.3,2.6,2.6,4.4
	l0.6,0.1l0,0l0.2,0.1l0.7,0.3l0.5,0.2l0.7,0.4l0.5,0.3l0.5,0.4l0.4,0.4l0.4,0.4l0.4,0.5l0.3,0.5l0.2,0.6l0.2,0.5l0.1,0.4h0v0.2
	l0,0.2l0.1,0.5c0,0.4,0,0.8-0.1,1.3c3,3.1,3.6,7.9,0,9.5l0.4,0.7c0.5,0.9,1,3-0.2,3.5c-1.4,0.7-2.6,0.8-3.9,0.8
	c2.7,4.3,7.7,10.2,3.3,13.7l-0.1,0c0.4,0.4,0.8,0.9,1,1.6c0.5,0,1.1,0,1.6,0h0.4c1.1,0,2.1,0.2,3.1,0.5l0.3,0.1
	c0.5,0.2,0.9,0.4,1.3,0.8l0,0l0,0l0.2,0.2h0l0,0c0.6,0.5,1.1,1.2,1.5,2.1c1.5,2.8,0.1,5.8-1.8,8.2c1.7,0.8,3.1,2.2,3.5,4.8
	c0.6,3.8-3.8,6.3-6.9,7.5c-0.7,1.5-1.8,2.5-3.3,2.9l0.1,0.1l0.6,0.4l0.2-0.1c0.4,0.4,0.7,0.7,1,1.2l0.1,0.1l0.2,0.3l0.4,0.8l0.1,0.4
	l0.2,1c1.2,0.7,0.8,0.8,2.3,0.2c2.1-0.9,5.3,0.3,6.8,1.9C756.1,505.2,756.4,505.6,756.7,506.2z M589.9,401L589.9,401l-1,0.3l0.9,0.6
	L589.9,401z M633.6,681.3c0.9-1.1,1.8-2.1,2.6-3.3C635.2,679,634.3,680.1,633.6,681.3z M644.1,505.2l-0.2-0.1l0.1,0.2L644.1,505.2z
	 M676.7,477.3c-0.4,0-0.7-0.1-1.1-0.2c0.2,0.5,0.3,1,0.5,1.5C676.2,478.2,676.4,477.8,676.7,477.3z M711.5,452.7c-0.2-1-0.4-2-0.6-3
	l-0.1-0.6c-0.2-0.8-0.3-1-0.2-0.4c-0.5-0.1-1.5,0-2.4,0.2c1,1.1,1.7,2.3,2.1,3.7C710.7,452.5,711.1,452.6,711.5,452.7z"/>
<polygon points="-75.4,302.1 -75.4,302 -75.4,302.1 "/>
<polygon points="-49.9,88.4 -49.9,88.4 -50,88.3 "/>
<polygon points="-36.4,193.6 -36.4,193.5 -36.4,193.6 "/>
<path d="M359.6,505.2c2.2,3.5,1.2,7.6-1.8,9.9c0.2,0.6,0.3,1.2,0.3,1.8h0c0.5,5.4-2.9,9.2-8.1,8.5c-1.1,1.5-2.5,2.3-4.4,2.1
	c-0.9-0.1-1.7-0.6-2.5-1c0,0.2-0.1,0.6-0.2,1.2c0,0.4,0.2,0.8,0.4,1.2l0.5,0.8c0.3,0.4,0.5,0.8,0.7,1.2c0.4,1.2-1,3.1-1.8,3.6
	c-2.5,1.5-5.2,3-7.9,4l-0.6,0.3l0.3,0.7l0.2,0.5l0.5,0.9c1.1,1.5,2.4,2.8,3.1,4.6c1,2.9-1.3,5.1-3.5,6c-1.2,0.5-2.7,0.8-4.4,0.9
	c-0.7,0.4-1.4,0.7-2.2,1c1.2,1.8,1.7,4,0.7,6.8c-1.5,4-6.8,3.7-10.4,2.9c-1.4,1-3,1.3-4.6,0.8v0.1l0.4,0.8l0.3,0
	c0.2,0.6,0.3,1.2,0.3,1.8v0.1v0.4l0,1l-0.1,0.4l-0.4,1c0.7,1.4,0.4,1.2,2.1,1.6c2.4,0.4,4.8,3.5,5.3,6.1c0.1,0.7,0.1,1.3,0.1,1.9
	c0.3,4.2-2.6,7.1-6.3,7.4c-0.1,0.6-0.4,1.1-0.6,1.7h0c-2.1,5-6.8,6.2-11,2.7c-1.5,0.6-2.9,0.5-4.4-0.5l-0.4,0.3
	c-0.9,2.3,0.3,2.2,0.4,4.5c0.2,6.4-8.7,4.5-13.8,2.3c-0.5,0.1-0.9,0.1-1.4,0.2c0.2,1.2,0.3,2.5,0.1,3.7c-0.2,1.3-0.9,2.1-1.8,2.6
	l-0.3,0.9c-2.7,2.6-5.8,2-8.9,1c-2.4,3.3-6.7,1.9-10-0.9c-1.3,0.8-3.1,0.6-4.9-0.8c-1.7-1.3-2.6-3.2-3.4-5.1
	c-2.9,0.5-5.6-0.5-7.7-2.8c-1.2,0.4-2.3,0.5-3.5,0.3c-0.5,0.1-1.1,0.2-1.7,0.2c-1.5,0-4.5-1.3-5.3,0.2c-0.3,0.5-0.4,1-0.5,1.3
	c-0.2,1,0.5,1.5,0.4,3.2c-0.4,6.4-9.1,3.5-14,0.7l-0.8,0l-0.3,0.2c-0.5,0.2-1.1,0.4-1.7,0.7c0.5,2.1,0.5,4.3-1.3,5.7
	c-2.4,2-5.1,1.6-7.7,0.6c-1.9,3.3-4.1,6.5-5.1,10.4c-0.9,3.7-1.3,7.5-1.3,11.3c-0.3,17.7,4.1,35.1,5.5,52.7
	c0.4,5.1,0.7,11.9,2.4,17.4l0.1-0.4c0.7-5.6,0.9-11.2,3.7-16.1c0.4-0.8,1.5-0.1,1.1,0.7l-0.3,0.7v0.1c-0.9,4-1.2,7.9-1.2,11.8
	c1-4.5,2.6-8.9,4.8-12.8c0.3-0.5,0.9,0,0.7,0.5c-3,7.6-4.1,15.5-4.4,23.6l0.3,0.4c-0.2-2.3,1-5.4,1.3-7c1-4.6,2.8-8.6,5.6-12.3
	l0.2,0.2l-0.5,1.1c0.7-1.1,1.4-2.2,2-3.3c0.4-0.6,1.1-0.1,0.9,0.5c-1.5,3.9-3.8,7.5-4.6,11.7c-0.2,1.3-0.4,2.7-0.5,4.1
	c1.9-3.9,4.4-7.4,7.8-9.5c0.4-0.2,0.8,0.4,0.4,0.7l-1,1c0.4-0.2,0.8,0.1,0.6,0.6c-0.3,0.5-0.5,1-0.8,1.5c0.6-0.6,1.2-1.3,1.8-1.9
	l0.6,0.7c-1.8,2.7-3.7,5.3-5.2,8.3c-1,2.1-1.5,4.1-1.9,6.2l0.6-1.2c1.5-2.5,3.3-5,5.9-6.2l0.5,0.7l-0.1,0.1c0.8-0.4,1.6-0.8,2.4-1.1
	l0.3,0.6c-2.2,1.3-4,3.4-5.3,5.9c0.7-0.6,1.3-1.2,1.9-1.8l0.5,0.6c-1.7,2.2-3.6,4.2-4.5,6.8c-0.1,0.6-0.2,1.2-0.3,1.8l-0.4,0.8
	l-0.1,0.4c-0.1,1.2-1.8,1.6-2,0.3v0c-1.4,1.2-4.3,1.7-5.4,1.9c3,4-1.9,5.1-4.6,5.6c-3.5,0.6-6.9,1.7-10.4,1.7l-0.4,0l0.2,0.2l0,0.4
	c-0.7,0-1.4,0-2.1-0.1c-1.4-0.1-3.9,0.1-4.9-1.1c-0.3-0.6-0.6-1.2-0.8-1.8l-0.4,0c0.1,0.4,0.1,0.9,0.2,1.3h-0.2l-0.5-0.4
	c-0.7-0.5-1.3-0.7-1.8-0.5v-0.1l-1,0.2l0,0.6c-0.4,0-0.9,0-1.3,0.1l-0.5,0.1l0-0.4h-0.1l0,0.4c-0.7,0.2-1.3,0.5-2,0.8
	c-1.3,1.4-1.9,3.5-4.3,3.8c-2.2,0.2-4.5,0-6.7-0.3c-3-0.4-6-1.3-8.6-3.1c-0.6-0.3-1.1-0.8-1.4-1.5c-0.5,0.1-1,0-1.4-0.4
	c-0.6-0.8-0.2-2.3,0.2-3.5c-1.2,0.6-2.5,1.1-3.8,1.4c-2-0.5-4.1-1.1-6.2-1.6c-1.2,0-2.5-0.1-3.7-0.2c-2.7-0.3-3.5-1-3.3-1.9l-0.2,0
	c-4.1-3.5-7.7-6.9-13.3-7c-0.4,0-0.5-0.7-0.1-0.8c4.5-0.8,8.2,0.4,11.8,2.7c-0.4-0.7-0.9-1.4-1.5-2l0,0c-1-1-2.2-1.8-3.5-2v-0.3
	l1,0.1c-0.8-0.5-1.5-1-2.4-1.4c-0.4-0.1-0.4-0.9,0.1-0.8c1.2,0.2,2.4,0.6,3.5,1.1c-1.9-1.9-4.1-3.2-6.8-3.3v-0.6
	c4-0.5,8.2,1.7,10.9,4.9c1.2,1.4,3,3.4,3.9,5.6l0,0c-0.1-0.5-0.1-1-0.3-1.7c-0.3-1.5-0.6-3-1.2-4.3c-1.2-2.8-3.1-5.8-5.6-7.4
	l0.2-0.6c2.9,1.3,4.9,3.6,6.7,6.3l0.6,1l0-0.5c-0.6-3.4-1.8-7.5-4.6-9.3c-0.5-0.3-0.1-1.1,0.4-0.8c3.3,1.5,4.6,5.5,5.8,8.8
	c0.4,1.1,1.1,3,1.5,4.9c1.1-6,0.8-13.1-3.7-17.4l0.2-0.3c2.4,1.4,4,3.6,5,6.2c0.9,1.6,1.7,3.2,2.2,5c0.2-0.4,0.3-0.9,0.4-1.3
	c0-3.8-0.4-7.6-2.3-11l0.4-0.3c1.6,2.1,2.5,4.4,3,6.9c0.7-4.4,0.7-9.1,0.8-13.6c0.1-10.7-0.2-21.3,0-32c0.1-5.8,0.4-11.6,1-17.4
	c0.5-5.1,0.1-10.1-0.1-15.2c-0.3-5.1-0.7-9.3-2.9-13.6c-2.3,0.8-4.8,0.1-7.2-0.9c-2.7,3.1-6.9,1.2-9.8-2c-1.4,0.6-3.1,0.3-4.9-1.3
	c-0.5-0.5-0.9-1.1-1.3-1.7c-3.7,4.7-10.6,7.1-15.8,5.7c-2.6-0.7-4.7-2.8-6.2-5.3l-1.1,0.5c-1.7,0.4-3.3-0.1-4.9-0.5
	c-1.8-0.4-3.4,0-5.2-0.4c-3.2-0.9-4.7-4.3-5.6-7.4l-0.3-0.6c0.2,1.8-0.3,3.5-1.8,4.9c-2.1,2-4.9,1.7-7.5,1.5
	c-0.9,2.4-3.3,2.8-5.8,2.2l0,0h0c-0.9-0.2-1.8-0.5-2.7-0.9c-3.5,5.2-10.9,8.1-16.5,6.5c-5.6-1.5-9.3-9.2-8.1-15.4
	c-0.9-1.1-1.5-2.3-2.1-3.6c-5.1-2.1-6.7-8.2-4.4-13.3h-0.1c-3.4,3.8-10.7,4.3-14.6,3c-2.3-0.8-4.9-3-4-6c0.6-2,1.9-3.3,3-5
	c0.3-0.4,0.6-1.1,0.8-1.8l0.2-0.5l-0.7-0.2c-2.8-0.9-5.7-2.2-8.4-3.6c-0.9-0.5-2.4-2.4-2.1-3.7c0.1-0.4,0.4-0.9,0.6-1.3l0.5-0.9
	c0.2-0.4,0.4-0.8,0.3-1.3c-0.1-0.6-0.2-1-0.2-1.2c-0.8,0.5-1.7,1.1-2.6,1.2c-2,0.4-3.6-0.3-4.7-1.8c-5.4,1-9.2-2.7-8.9-8.3h0
	c0-0.6,0.1-1.2,0.2-1.9c-3.3-2.3-4.6-6.4-2.5-10.2c0.3-0.5,0.6-1.1,1-1.7c1.6-2.1,5.2-3.6,7.8-2.5c1.8,0.6,1.3,0.5,2.6-0.4l0.1-1.2
	l0.1-0.4l0.4-1l0.2-0.4l0.1-0.1c0.3-0.5,0.6-1,1.1-1.5l0.3,0.1l0.7-0.5l0.1-0.1c-1.7-0.4-3.1-1.5-3.9-3.1c-3.7-1.1-8.8-3.7-8.3-8.3
	c0.3-3.1,1.7-4.8,3.6-5.9c-2.3-2.8-4-6.1-2.6-9.4c0.4-1.1,1-1.9,1.6-2.5h0l0.2-0.2l0,0c0.5-0.5,1-0.8,1.5-1.1l0.4-0.2
	c1-0.5,2.2-0.7,3.5-0.8l0.4,0c0.6,0,1.2,0,1.8-0.1c0.7-2.4,2.6-3.5,4.9-4.1c-0.3-1.9-0.6-3.8-1.5-4.8c-2.6-2.9,0.6-6.1,3.2-3.4
	c0.1-1.6,0.3-3.1,1.4-4.1c-0.4-1.5-0.3-2.9,0.5-4.3c-1.3-1.3-1.9-3-1.1-5c0.2-0.5,0.5-0.9,0.9-1.3c0-2,0.2-3.8,0.8-5.4
	c1.1-2.9,2.7-3.9,4.7-4.1c-2-3.5-2.7-7.6-0.8-11.3c1.4-2.6,1.2-5.6,2.7-8.1c1.7-2.9,3.7-1.9,5.8-1.3c0.1-1.8,0.6-3.4,1.5-5
	c-3.5-3-6.4-7-8-11.3c-0.3-0.7-0.5-1.5-0.6-2.2l-0.1-0.7l-0.1-1.2l0-0.8l0.1-1l0.2-0.8l0.3-0.8l0.4-0.7l0.5-0.7l0.5-0.6l0.7-0.6
	l0.5-0.4l1-0.5c0.7-0.3,1.5-0.6,2.4-0.8c0.4-4.2,1.8-9.1,5.8-10c2.4-0.5,4.4,0.5,6.4,1.9c1,0.7,2.2,1.9,2.8,3.1
	c0.6-0.5,1.1-1.1,1.6-1.9c1.1-0.3,1.1-0.7,0.2-1.2c-0.9-1-2-1.9-2.7-3.1c-1.4-2.7-1.8-6-1.1-8.9c0.6-2.5,2.7-4.4,5-4.7
	c2.3-0.3,3.6,0.2,5.2,1.2c0.6-0.4,1.1-1.5,1.9-1.8c1.6-0.7,3.1-0.6,4.7,0.3c1.1,0.7,1.9,1.7,2.6,2.8c3.1-0.4,6.5,0.6,9.3,2.3
	c0.4-0.6,0.9-1.1,1.4-1.6c-0.6-1.8-0.2-3.8,2.1-5.2c1.1-0.6,2.4-1,3.6-1.5c0.5-0.2,1-0.4,1.5-0.6l-0.4-0.5c-0.3-0.5-0.6-1-0.8-1.5
	c-2.7,0.3-5.5,0.4-7.5-1c-3.3-2.5-4.2-5.8-3.1-9.3c-0.7-0.9-1-2-0.6-3.3c0.7-2.3,2.9-4.3,4.9-5.7c0-1.7,0.4-3.2,1.4-4.9l0.7-1.1
	l0-0.4c-0.4-1.4-0.6-2.7-0.5-4.1c0.2-4.8,5.3-7.4,9.1-8c0.9-0.7,1.8-1.3,2.7-1.9l0.1,0l0,0c2.7-1.6,5.5-2.6,8.7-2.8
	c1.6-0.1,3.1,0.4,4.1,1.6l0.7-0.2c0.6-0.3,1.2-0.5,1.8-0.6c1-0.2,2,0,3,0.3c1.7,0.6,3.6,3.7,4.8,3.9c3.4,0.4,5.2-0.2,7.8-2.5
	c1.6-1.4,3.1-1.8,4.4-1.4c0.7-2.2,2.6-3.4,5.1-4.5c1.3-0.5,2.7-0.7,4.1-0.6c-1-3-1.3-6.2,0.4-8.7c1.5-2,3.1-3.1,5.5-3.3
	c1.1-0.1,2.2,0,3.4,0.1c0.7,0,1.3,0.1,1.7,0c1.4-0.1,1.8-0.8,1.1-2.9c-1.1-3.4-0.8-8.6,3.2-9.5c0.5-0.1,1-0.1,1.6-0.1h0l0,0
	c1.9,0.2,3.9,1.4,5.8,2.7l0,0l1.2,0.8l0.8,0.5c0.6,0.4,1.1,0.7,1.6,1c0.2,0.1,0.7-0.8,1.3-1.5l0.2-0.3l0.7-0.5
	c1.9-0.2,3.5,0.3,5,1.6c2.3,1.8,4.8-1.9,6.4-3.2c1.8-1.5,3.9-1.7,6-1.6c1.7,0.1,3.2,1.8,3.2,3.7c0,2-0.4,4-0.6,6.1
	c-0.1,0.9,0.9,1.7,2,2.4c3.1-1.1,6.8-0.4,8.9,2.2c1.2-1.4,2.4-2.7,3.7-4c1.4-1.4,2.9-1.3,4.5-0.4c6.9,3.4,9,15.1,7.2,24.1
	c1.2,0.4,2.3,1.2,3.4,2.2c1.3,0.5,2.3,1.8,2.6,3.4l0.3,0.5c0.7-0.4,1.3-0.9,1.8-1.6c1.1-0.1,1.2-0.5,0.4-1.2
	c-0.8-1.1-1.7-2.2-2.2-3.5c-1-2.8-1-6.2,0.2-9c1-2.4,3.2-3.8,5.6-3.8c2.3,0,3.6,0.8,4.9,2c0.7-0.3,1.3-1.3,2.1-1.5
	c1.7-0.4,3.2-0.1,4.6,1.1c1,0.8,1.6,1.9,2.1,3.1c4,0.1,8.2,2.6,10.7,5.7c2.2,2.7,3.1,5.9,2.4,9.4l-0.4,1l-0.2,0.3l-0.4,0.6l-0.3,0.3
	l-0.4,0.4l-0.5,0.4l0,0l0,0l-0.4,0.3l-0.2,0.1l0,0l-0.2,0.1l0.7,0.8c0.6,0.7,1.2,1.7,1.4,2.7l0.3-0.2l0,0c1.2-0.9,2.4-1.1,4-0.8
	c0.9-3.8,4-6.3,8.3-5.7c4.9,0.6,6.7,5,7.3,9.5c4.4,2.1,7.7,7.1,6.1,12.6c-0.2,0.5-0.4,0.9-0.6,1.4l1,0.2v0l0.3,0.1
	c0.9,0.1,1.7,0.4,2.6,0.8c1.5,0.7,1.2-0.7,2.8-1.3c0.9-0.3,1.8-0.7,2.8-1.1c0.4-0.1,0.8-0.3,1.2-0.4v0.1l0.8-0.2
	c2.5-0.3,3.9-2.3,6.3-2.7c3.5-0.6,7.3,1.4,10,3.6c2.8,2.3,4.8,5.6,5.3,9.4c0.4,3.1-0.7,5.2-2.1,7.4c1.6,0.9,3.1,2.2,4.2,3.7
	c3.1-1.2,6.3-1.5,9.6-0.4c3.4,1.2,3.5,4.8,4.7,7.7c1.8,4.3,5.1,7.7,3.8,12.8l-0.4,0.8l0.2,0.6c0.6,2,0,3.5-0.9,5.2
	c-0.4,0.8-1.3,1.4-2.2,1.9h1.2c0.8,0,1.5,0,2.3,0h0.4c0.7,0,1.3,0.1,1.9,0.2h0.2h0c1.2,0.2,2.4,0.5,3.6,1.3c1.7,1.2,2.5,3,2.8,4.9
	l0.6,0.1l0,0l0.3,0.1l0.8,0.3l0.5,0.2l0.7,0.4l0.5,0.3l0.6,0.4l0.4,0.4l0.4,0.5l0.4,0.6l0.3,0.5l0.3,0.7l0.2,0.6l0.1,0.4h0v0.2
	l0,0.2l0.1,0.5c0,0.4,0,0.9-0.1,1.4c3.3,3.4,3.9,8.8,0,10.6l0.4,0.7c0.6,1,1.1,3.3-0.2,3.9c-1.5,0.7-2.8,0.9-4.2,0.9
	c3,4.8,8.4,11.4,3.6,15.4l-0.1,0c0.4,0.5,0.9,1,1.1,1.8c0.6,0,1.2,0,1.7,0h0.4c1.2,0,2.3,0.2,3.3,0.6l0.4,0.1c0.5,0.2,1,0.5,1.4,0.9
	l0,0l0,0l0.2,0.2h0l0,0c0.6,0.6,1.2,1.3,1.7,2.3c1.6,3.1,0.1,6.4-2,9.2c1.9,0.9,3.4,2.5,3.8,5.4c0.6,4.3-4.1,7.1-7.6,8.4
	c-0.7,1.6-1.9,2.8-3.6,3.2l0.1,0.1l0.7,0.4l0.3-0.1c0.4,0.4,0.8,0.8,1.1,1.3l0.1,0.1l0.2,0.3l0.4,0.9l0.1,0.4l0.2,1.1
	c1.3,0.8,0.9,0.9,2.5,0.2c2.2-1,5.8,0.3,7.4,2.2C358.9,504.1,359.3,504.6,359.6,505.2z M178,387.7L178,387.7l-1.1,0.3l0.9,0.7
	L178,387.7z M225.6,700.9c1-1.2,2-2.4,2.8-3.7C227.3,698.3,226.3,699.6,225.6,700.9z M237,504.1l-0.3-0.1l0.1,0.2L237,504.1z
	 M272.5,473c-0.4,0-0.8-0.1-1.2-0.2c0.2,0.5,0.4,1.1,0.5,1.7C272,473.9,272.2,473.5,272.5,473z M310.4,445.4
	c-0.2-1.1-0.4-2.2-0.7-3.3l-0.1-0.7c-0.3-0.9-0.3-1.1-0.2-0.5c-0.6-0.1-1.6,0-2.6,0.2c1.1,1.2,1.8,2.6,2.3,4.1
	C309.6,445.3,310,445.3,310.4,445.4z"/>
<path d="M1188.7,510.1c2.1,3.1,1.1,6.8-1.7,8.9c0.2,0.5,0.2,1.1,0.3,1.6h0c0.5,4.8-2.6,8.2-7.5,7.6c-1,1.4-2.3,2.1-4.1,1.8
	c-0.8-0.1-1.6-0.5-2.3-0.9c0,0.2-0.1,0.5-0.2,1.1c0,0.4,0.2,0.7,0.4,1.1l0.5,0.7c0.2,0.4,0.5,0.7,0.6,1.1c0.3,1.1-0.9,2.8-1.7,3.3
	c-2.3,1.4-4.8,2.6-7.2,3.6l-0.6,0.3l0.3,0.7l0.2,0.4l0.5,0.8c1,1.4,2.2,2.5,2.8,4.1c0.9,2.6-1.2,4.5-3.2,5.4c-1.1,0.4-2.5,0.7-4,0.8
	c-0.6,0.4-1.3,0.7-2,0.9c1.1,1.6,1.5,3.6,0.6,6.1c-1.4,3.6-6.3,3.3-9.6,2.6c-1.3,0.9-2.7,1.2-4.2,0.7v0.1l0.4,0.7l0.3,0
	c0.2,0.5,0.3,1.1,0.3,1.6v0.1v0.4l0,0.9l-0.1,0.4l-0.3,0.9c0.7,1.2,0.3,1.1,1.9,1.4c2.2,0.4,4.4,3.2,4.8,5.4
	c0.1,0.6,0.1,1.2,0.1,1.7c0.2,3.8-2.4,6.4-5.8,6.6c-0.1,0.5-0.3,1-0.5,1.5h0c-1.9,4.4-6.2,5.5-10.1,2.4c-1.4,0.6-2.7,0.4-4-0.5
	l-0.4,0.3c-0.9,2.1,0.2,2,0.3,4.1c0.2,5.8-8,4.1-12.7,2c-0.5,0.1-0.9,0.1-1.3,0.2c0.2,1.1,0.3,2.2,0.1,3.3c-0.2,1.1-0.8,1.8-1.6,2.3
	l-0.3,0.8c-2.4,2.3-5.4,1.8-8.2,0.9c-2.2,3-6.2,1.7-9.2-0.8c-1.2,0.7-2.8,0.6-4.5-0.7c-1.6-1.1-2.4-2.9-3.1-4.6
	c-2.7,0.5-5.2-0.4-7.1-2.5c-1.1,0.4-2.1,0.4-3.2,0.3c-0.5,0.1-1,0.2-1.6,0.2c-1.4,0-4.1-1.2-4.9,0.2c-0.3,0.5-0.4,0.9-0.5,1.2
	c-0.2,0.9,0.5,1.4,0.4,2.9c-0.3,5.8-8.3,3.2-12.8,0.7l-0.7,0l-0.3,0.2c-0.5,0.2-1,0.4-1.5,0.6c0.5,1.9,0.5,3.8-1.2,5.1
	c-2.2,1.8-4.7,1.4-7.1,0.5c-1.8,3-3.8,5.8-4.7,9.3c-0.9,3.3-1.2,6.7-1.2,10.1c-0.2,15.9,3.8,31.4,5.1,47.1
	c0.4,4.5,0.6,10.6,2.2,15.6l0.1-0.4c0.6-5,0.8-10,3.4-14.4c0.4-0.7,1.4-0.1,1,0.6l-0.2,0.6v0.1c-0.9,3.6-1.1,7-1.1,10.6
	c0.9-4,2.4-7.9,4.4-11.5c0.2-0.4,0.8,0,0.7,0.4c-2.8,6.8-3.8,13.9-4,21.1l0.3,0.4c-0.2-2.1,0.9-4.8,1.2-6.3c0.9-4.1,2.6-7.7,5.1-11
	l0.2,0.2l-0.5,1c0.7-1,1.3-2,1.9-3c0.3-0.6,1-0.1,0.8,0.5c-1.4,3.5-3.5,6.7-4.2,10.4c-0.2,1.2-0.4,2.4-0.5,3.7
	c1.7-3.5,4.1-6.6,7.2-8.5c0.4-0.2,0.7,0.4,0.4,0.7l-0.9,0.9c0.3-0.2,0.7,0.1,0.5,0.6c-0.2,0.5-0.5,0.9-0.7,1.4
	c0.6-0.6,1.1-1.2,1.7-1.7l0.6,0.6c-1.7,2.4-3.4,4.7-4.7,7.4c-0.9,1.9-1.4,3.7-1.8,5.5l0.6-1.1c1.4-2.2,3.1-4.5,5.4-5.5l0.5,0.6
	l-0.1,0.1c0.7-0.4,1.4-0.7,2.2-1l0.2,0.6c-2,1.1-3.7,3-4.9,5.2c0.6-0.6,1.2-1.1,1.8-1.6l0.5,0.5c-1.6,1.9-3.3,3.8-4.2,6.1
	c-0.1,0.6-0.2,1.1-0.2,1.6l-0.3,0.7l-0.1,0.4c-0.1,1.1-1.7,1.4-1.8,0.3v0c-1.3,1.1-4,1.5-5,1.7c2.7,3.6-1.8,4.6-4.3,5
	c-3.2,0.6-6.3,1.5-9.5,1.5l-0.3,0l0.2,0.2l0,0.4c-0.6,0-1.3,0-1.9-0.1c-1.3-0.1-3.6,0.1-4.5-1c-0.3-0.5-0.5-1.1-0.7-1.6l-0.4,0
	c0.1,0.4,0.1,0.8,0.2,1.2h-0.2l-0.5-0.4c-0.7-0.5-1.2-0.6-1.6-0.5v-0.1l-0.9,0.2l0,0.5c-0.4,0-0.8,0-1.2,0.1l-0.5,0.1l0-0.4h-0.1
	l0,0.4c-0.6,0.2-1.2,0.4-1.8,0.7c-1.2,1.3-1.7,3.2-4,3.4c-2,0.2-4.2,0-6.1-0.3c-2.8-0.4-5.5-1.2-7.9-2.7c-0.5-0.3-1-0.7-1.3-1.3
	c-0.5,0.1-0.9,0-1.3-0.4c-0.5-0.7-0.2-2.1,0.2-3.1c-1.1,0.5-2.3,1-3.5,1.3c-1.9-0.4-3.8-1-5.7-1.4c-1.1,0-2.3-0.1-3.4-0.2
	c-2.4-0.3-3.2-0.9-3.1-1.7l-0.2,0c-3.8-3.1-7.1-6.2-12.2-6.3c-0.4,0-0.5-0.6-0.1-0.7c4.1-0.7,7.6,0.4,10.8,2.4
	c-0.4-0.6-0.9-1.2-1.4-1.8l0,0c-0.9-0.9-2-1.6-3.2-1.8v-0.3l0.9,0.1c-0.7-0.5-1.4-0.9-2.2-1.2c-0.4-0.1-0.3-0.8,0.1-0.7
	c1.1,0.2,2.2,0.5,3.2,1c-1.7-1.7-3.8-2.9-6.2-3v-0.6c3.7-0.4,7.5,1.5,10,4.4c1.1,1.2,2.7,3.1,3.6,5l0,0c-0.1-0.4-0.1-0.9-0.2-1.5
	c-0.2-1.3-0.6-2.7-1.1-3.9c-1.1-2.5-2.8-5.2-5.2-6.6l0.2-0.5c2.6,1.2,4.5,3.2,6.1,5.7l0.6,0.9l0-0.5c-0.5-3-1.6-6.7-4.2-8.4
	c-0.5-0.3-0.1-1,0.4-0.7c3,1.4,4.3,4.9,5.4,7.9c0.4,1,1,2.6,1.4,4.4c1-5.4,0.7-11.8-3.4-15.6l0.2-0.3c2.2,1.2,3.7,3.3,4.6,5.6
	c0.9,1.4,1.6,2.9,2,4.4c0.2-0.4,0.3-0.8,0.4-1.2c0-3.4-0.4-6.8-2.1-9.9l0.3-0.3c1.5,1.9,2.3,4,2.8,6.2c0.7-4,0.7-8.1,0.7-12.2
	c0.1-9.6-0.2-19.1,0-28.6c0.1-5.2,0.4-10.4,0.9-15.5c0.5-4.5,0.1-9-0.1-13.6c-0.2-4.5-0.6-8.3-2.6-12.2c-2.1,0.7-4.4,0.1-6.6-0.8
	c-2.5,2.7-6.3,1.1-9-1.8c-1.3,0.6-2.8,0.3-4.5-1.2c-0.5-0.5-0.9-1-1.2-1.5c-3.4,4.2-9.7,6.4-14.5,5.1c-2.4-0.7-4.3-2.5-5.7-4.8
	l-1,0.4c-1.5,0.4-3-0.1-4.5-0.4c-1.6-0.4-3.1,0-4.7-0.4c-3-0.8-4.3-3.8-5.2-6.6l-0.3-0.5c0.2,1.6-0.2,3.1-1.6,4.4
	c-1.9,1.8-4.5,1.5-6.9,1.3c-0.9,2.1-3,2.5-5.3,1.9l0,0h0c-0.8-0.2-1.7-0.5-2.5-0.8c-3.2,4.7-10,7.2-15.1,5.9
	c-5.2-1.4-8.5-8.2-7.4-13.7c-0.8-1-1.4-2.1-1.9-3.3c-4.7-1.9-6.1-7.4-4-11.9h-0.1c-3.1,3.4-9.8,3.9-13.4,2.7
	c-2.1-0.7-4.5-2.7-3.6-5.4c0.6-1.8,1.8-3,2.7-4.5c0.2-0.4,0.5-1,0.7-1.6l0.2-0.4l-0.6-0.2c-2.6-0.8-5.2-1.9-7.7-3.2
	c-0.9-0.4-2.2-2.2-1.9-3.3c0.1-0.4,0.3-0.8,0.6-1.1l0.5-0.8c0.2-0.4,0.3-0.7,0.3-1.1c-0.1-0.6-0.2-0.9-0.2-1.1
	c-0.7,0.4-1.5,1-2.4,1.1c-1.9,0.4-3.3-0.3-4.3-1.6c-5,0.9-8.5-2.4-8.2-7.4h0c0-0.6,0.1-1.1,0.2-1.7c-3-2-4.2-5.8-2.3-9.2
	c0.2-0.5,0.5-1,0.9-1.5c1.4-1.8,4.7-3.2,7.2-2.2c1.6,0.5,1.2,0.5,2.4-0.4l0.1-1.1l0.1-0.4l0.4-0.9l0.2-0.4l0.1-0.1
	c0.3-0.5,0.6-0.9,1-1.3l0.2,0.1l0.6-0.4l0.1-0.1c-1.6-0.4-2.8-1.4-3.6-2.8c-3.4-1-8.1-3.3-7.6-7.4c0.2-2.7,1.6-4.3,3.3-5.2
	c-2.1-2.5-3.7-5.4-2.4-8.5c0.4-1,0.9-1.7,1.4-2.2h0l0.2-0.2l0,0c0.5-0.4,0.9-0.7,1.4-1l0.3-0.2c0.9-0.4,2-0.7,3.2-0.7l0.4,0
	c0.5,0,1.1,0,1.7-0.1c0.6-2.1,2.4-3.2,4.5-3.7c-0.2-1.7-0.5-3.4-1.4-4.3c-2.4-2.6,0.6-5.4,2.9-3.1c0.1-1.4,0.3-2.7,1.3-3.7
	c-0.4-1.3-0.2-2.6,0.5-3.8c-1.2-1.1-1.8-2.6-1-4.5c0.2-0.4,0.5-0.8,0.8-1.1c0-1.8,0.2-3.4,0.7-4.8c1-2.6,2.5-3.5,4.3-3.7
	c-1.8-3.1-2.5-6.8-0.7-10.1c1.3-2.3,1.1-5,2.5-7.3c1.5-2.6,3.4-1.7,5.3-1.1c0.1-1.6,0.5-3.1,1.4-4.4c-3.2-2.7-5.9-6.3-7.4-10.1
	c-0.2-0.7-0.5-1.3-0.6-1.9l-0.1-0.7l-0.1-1.1l0-0.7l0.1-0.9l0.2-0.7l0.2-0.7l0.3-0.6l0.5-0.6l0.5-0.5l0.6-0.5l0.5-0.4l0.9-0.4
	c0.7-0.3,1.4-0.6,2.2-0.7c0.4-3.8,1.7-8.1,5.4-9c2.2-0.5,4,0.4,5.9,1.7c0.9,0.7,2,1.7,2.6,2.7c0.6-0.4,1-1,1.4-1.7
	c1-0.3,1-0.6,0.2-1.1c-0.9-0.9-1.8-1.7-2.4-2.8c-1.3-2.4-1.7-5.3-1-8c0.6-2.2,2.4-3.9,4.6-4.2c2.1-0.3,3.3,0.2,4.7,1.1
	c0.6-0.4,1-1.3,1.7-1.6c1.5-0.7,2.9-0.5,4.3,0.3c1,0.6,1.8,1.5,2.4,2.5c2.8-0.4,6,0.5,8.5,2c0.4-0.5,0.8-1,1.3-1.5
	c-0.6-1.6-0.2-3.4,1.9-4.6c1-0.6,2.2-0.9,3.3-1.3c0.5-0.2,0.9-0.4,1.4-0.6l-0.4-0.5c-0.3-0.4-0.5-0.9-0.7-1.3
	c-2.4,0.3-5.1,0.4-6.9-0.9c-3.1-2.2-3.8-5.2-2.9-8.3c-0.6-0.8-0.9-1.8-0.5-3c0.6-2,2.7-3.9,4.5-5.1c0-1.5,0.4-2.9,1.3-4.4l0.6-1
	l0-0.4c-0.4-1.2-0.5-2.4-0.5-3.7c0.2-4.3,4.9-6.6,8.4-7.1c0.8-0.6,1.6-1.2,2.5-1.7l0.1,0l0,0c2.4-1.4,5.1-2.3,8-2.5
	c1.5-0.1,2.8,0.4,3.8,1.4l0.6-0.2c0.5-0.3,1.1-0.4,1.7-0.5c0.9-0.2,1.9,0,2.7,0.3c1.6,0.6,3.3,3.3,4.4,3.5c3.1,0.4,4.7-0.2,7.1-2.2
	c1.4-1.2,2.8-1.6,4-1.3c0.7-1.9,2.4-3.1,4.7-4c1.2-0.4,2.5-0.7,3.8-0.6c-0.9-2.7-1.2-5.5,0.4-7.8c1.4-1.8,2.8-2.8,5-3
	c1-0.1,2.1,0,3.1,0.1c0.6,0,1.2,0.1,1.6,0c1.3-0.1,1.6-0.7,1-2.6c-1-3-0.7-7.7,2.9-8.5c0.5-0.1,0.9-0.1,1.4-0.1h0l0,0
	c1.8,0.2,3.6,1.2,5.3,2.4l0,0l1.1,0.7l0.7,0.5c0.5,0.4,1,0.7,1.5,0.9c0.2,0.1,0.7-0.7,1.2-1.4l0.2-0.3l0.7-0.4
	c1.8-0.2,3.2,0.3,4.6,1.4c2.1,1.6,4.4-1.7,5.9-2.9c1.6-1.3,3.6-1.5,5.5-1.5c1.6,0.1,2.9,1.6,2.9,3.3c0,1.8-0.4,3.6-0.6,5.4
	c-0.1,0.8,0.8,1.5,1.9,2.2c2.9-1,6.2-0.4,8.1,2c1.1-1.2,2.2-2.4,3.4-3.6c1.3-1.2,2.7-1.1,4.2-0.4c6.3,3.1,8.3,13.5,6.6,21.5
	c1.1,0.4,2.1,1.1,3.1,1.9c1.2,0.4,2.1,1.6,2.4,3.1l0.2,0.4c0.6-0.4,1.2-0.8,1.7-1.4c1-0.1,1.1-0.4,0.3-1.1c-0.7-1-1.5-1.9-2-3.1
	c-0.9-2.5-0.9-5.5,0.2-8c0.9-2.1,3-3.4,5.1-3.4c2.1,0,3.3,0.7,4.5,1.8c0.6-0.3,1.2-1.1,1.9-1.3c1.6-0.4,2.9-0.1,4.2,1
	c0.9,0.7,1.5,1.7,1.9,2.8c3.7,0.1,7.5,2.3,9.9,5.1c2.1,2.4,2.9,5.3,2.2,8.4l-0.4,0.9l-0.2,0.3l-0.4,0.5l-0.3,0.3l-0.4,0.4l-0.5,0.4
	l0,0l0,0l-0.4,0.3l-0.2,0.1l0,0l-0.2,0.1l0.7,0.7c0.5,0.6,1.1,1.5,1.3,2.4l0.3-0.2l0,0c1.1-0.8,2.2-1,3.6-0.7
	c0.8-3.4,3.7-5.6,7.6-5.1c4.5,0.6,6.1,4.5,6.7,8.5c4.1,1.9,7.1,6.4,5.6,11.3c-0.2,0.4-0.4,0.8-0.6,1.3l0.9,0.2v0l0.2,0.1
	c0.8,0.1,1.6,0.4,2.4,0.7c1.4,0.6,1.1-0.7,2.6-1.2c0.9-0.3,1.7-0.7,2.6-1c0.4-0.1,0.7-0.3,1.1-0.4v0.1l0.7-0.2
	c2.3-0.3,3.6-2.1,5.8-2.4c3.2-0.5,6.7,1.3,9.2,3.3c2.6,2,4.4,5,4.8,8.5c0.4,2.7-0.7,4.7-1.9,6.6c1.5,0.8,2.8,1.9,3.8,3.3
	c2.8-1.1,5.8-1.4,8.8-0.4c3.1,1.1,3.2,4.3,4.3,6.9c1.7,3.8,4.7,6.9,3.5,11.5l-0.4,0.7l0.2,0.6c0.6,1.8,0,3.1-0.9,4.6
	c-0.4,0.7-1.2,1.2-2,1.7h1.1c0.7,0,1.4,0,2.1,0h0.3c0.6,0,1.2,0.1,1.8,0.2h0.2h0c1.1,0.2,2.2,0.5,3.3,1.2c1.6,1.1,2.3,2.6,2.6,4.4
	l0.6,0.1l0,0l0.2,0.1l0.7,0.3l0.5,0.2l0.7,0.4l0.5,0.3l0.5,0.4l0.4,0.4l0.4,0.4l0.4,0.5l0.3,0.5l0.2,0.6l0.2,0.5l0.1,0.4h0v0.2
	l0,0.2l0.1,0.5c0,0.4,0,0.8-0.1,1.3c3,3.1,3.6,7.9,0,9.5l0.4,0.7c0.5,0.9,1,3-0.2,3.5c-1.4,0.7-2.6,0.8-3.9,0.8
	c2.7,4.3,7.7,10.2,3.3,13.7l-0.1,0c0.4,0.4,0.8,0.9,1,1.6c0.5,0,1.1,0,1.6,0h0.4c1.1,0,2.1,0.2,3.1,0.5l0.3,0.1
	c0.5,0.2,0.9,0.4,1.3,0.8l0,0l0,0l0.2,0.2h0l0,0c0.6,0.5,1.1,1.2,1.5,2.1c1.5,2.8,0.1,5.8-1.8,8.2c1.7,0.8,3.1,2.2,3.5,4.8
	c0.6,3.8-3.8,6.3-6.9,7.5c-0.7,1.5-1.8,2.5-3.3,2.9l0.1,0.1l0.6,0.4l0.2-0.1c0.4,0.4,0.7,0.7,1,1.2l0.1,0.1l0.2,0.3l0.4,0.8l0.1,0.4
	l0.2,1c1.2,0.7,0.8,0.8,2.3,0.2c2.1-0.9,5.3,0.3,6.8,1.9C1188.1,509.1,1188.4,509.6,1188.7,510.1z M1021.9,405L1021.9,405l-1,0.3
	l0.9,0.6L1021.9,405z M1065.6,685.3c0.9-1.1,1.8-2.1,2.6-3.3C1067.2,683,1066.3,684.1,1065.6,685.3z M1076.1,509.1l-0.2-0.1l0.1,0.2
	L1076.1,509.1z M1108.7,481.3c-0.4,0-0.7-0.1-1.1-0.2c0.2,0.5,0.3,1,0.5,1.5C1108.2,482.2,1108.4,481.7,1108.7,481.3z M1143.5,456.6
	c-0.2-1-0.4-2-0.6-3l-0.1-0.6c-0.2-0.8-0.3-1-0.2-0.4c-0.5-0.1-1.5,0-2.4,0.2c1,1.1,1.7,2.3,2.1,3.7
	C1142.8,456.5,1143.1,456.5,1143.5,456.6z"/>
<path d="M1596.1,505.7c2.2,3.5,1.2,7.6-1.8,9.9c0.2,0.6,0.3,1.2,0.3,1.8h0c0.5,5.4-2.9,9.2-8.1,8.5c-1.1,1.5-2.5,2.3-4.4,2.1
	c-0.9-0.1-1.7-0.6-2.5-1c0,0.2-0.1,0.6-0.2,1.2c0,0.4,0.2,0.8,0.4,1.2l0.5,0.8c0.3,0.4,0.5,0.8,0.7,1.2c0.4,1.2-1,3.1-1.8,3.6
	c-2.5,1.5-5.2,3-7.9,4l-0.6,0.3l0.3,0.7l0.2,0.5l0.5,0.9c1.1,1.5,2.4,2.8,3.1,4.6c1,2.9-1.3,5.1-3.5,6c-1.2,0.5-2.7,0.8-4.4,0.9
	c-0.7,0.4-1.4,0.7-2.2,1c1.2,1.8,1.7,4,0.7,6.8c-1.5,4-6.8,3.7-10.4,2.9c-1.4,1-3,1.3-4.6,0.8v0.1l0.4,0.8l0.3,0
	c0.2,0.6,0.3,1.2,0.3,1.8v0.1v0.4l0,1l-0.1,0.4l-0.4,1c0.7,1.4,0.4,1.2,2.1,1.6c2.4,0.4,4.8,3.5,5.3,6.1c0.1,0.7,0.1,1.3,0.1,1.9
	c0.3,4.2-2.6,7.1-6.3,7.4c-0.1,0.6-0.4,1.1-0.6,1.7h0c-2.1,5-6.8,6.2-11,2.7c-1.5,0.6-2.9,0.5-4.4-0.5l-0.4,0.3
	c-0.9,2.3,0.3,2.2,0.4,4.5c0.2,6.4-8.7,4.5-13.8,2.3c-0.5,0.1-0.9,0.1-1.4,0.2c0.2,1.2,0.3,2.5,0.1,3.7c-0.2,1.3-0.9,2.1-1.8,2.6
	l-0.3,0.9c-2.7,2.6-5.8,2-8.9,1c-2.4,3.3-6.7,1.9-10-0.9c-1.3,0.8-3.1,0.6-4.9-0.8c-1.7-1.3-2.6-3.2-3.4-5.1
	c-2.9,0.5-5.6-0.5-7.7-2.8c-1.2,0.4-2.3,0.5-3.5,0.3c-0.5,0.1-1.1,0.2-1.7,0.2c-1.5,0-4.5-1.3-5.3,0.2c-0.3,0.5-0.4,1-0.5,1.3
	c-0.2,1,0.5,1.5,0.4,3.2c-0.4,6.4-9.1,3.5-14,0.7l-0.8,0l-0.3,0.2c-0.5,0.2-1.1,0.4-1.7,0.7c0.5,2.1,0.5,4.3-1.3,5.7
	c-2.4,2-5.1,1.6-7.7,0.6c-1.9,3.3-4.1,6.5-5.1,10.4c-0.9,3.7-1.3,7.5-1.3,11.3c-0.3,17.7,4.1,35.1,5.5,52.7
	c0.4,5.1,0.7,11.9,2.4,17.4l0.1-0.4c0.7-5.6,0.9-11.2,3.7-16.1c0.4-0.8,1.5-0.1,1.1,0.7l-0.3,0.7v0.1c-0.9,4-1.2,7.9-1.2,11.8
	c1-4.5,2.6-8.9,4.8-12.8c0.3-0.5,0.9,0,0.7,0.5c-3,7.6-4.1,15.5-4.4,23.6l0.3,0.4c-0.2-2.3,1-5.4,1.3-7c1-4.6,2.8-8.6,5.6-12.3
	l0.2,0.2l-0.5,1.1c0.7-1.1,1.4-2.2,2-3.3c0.4-0.6,1.1-0.1,0.9,0.5c-1.5,3.9-3.8,7.5-4.6,11.7c-0.2,1.3-0.4,2.7-0.5,4.1
	c1.9-3.9,4.5-7.4,7.8-9.5c0.4-0.2,0.8,0.4,0.4,0.7l-1,1c0.4-0.2,0.8,0.1,0.6,0.6c-0.3,0.5-0.5,1-0.8,1.5c0.6-0.6,1.2-1.3,1.8-1.9
	l0.6,0.7c-1.8,2.7-3.7,5.3-5.2,8.3c-1,2.1-1.5,4.1-1.9,6.2l0.6-1.2c1.5-2.5,3.3-5,5.9-6.2l0.5,0.7l-0.1,0.1c0.8-0.4,1.6-0.8,2.4-1.1
	l0.3,0.6c-2.2,1.3-4,3.4-5.3,5.9c0.7-0.6,1.3-1.2,1.9-1.8l0.5,0.6c-1.7,2.2-3.6,4.2-4.5,6.8c-0.1,0.6-0.2,1.2-0.3,1.8l-0.4,0.8
	l-0.1,0.4c-0.1,1.2-1.8,1.6-2,0.3v0c-1.4,1.2-4.3,1.7-5.4,1.9c3,4-1.9,5.1-4.6,5.6c-3.5,0.6-6.9,1.7-10.4,1.7l-0.4,0l0.2,0.2l0,0.4
	c-0.7,0-1.4,0-2.1-0.1c-1.4-0.1-3.9,0.1-4.9-1.1c-0.3-0.6-0.6-1.2-0.8-1.8l-0.4,0c0.1,0.4,0.1,0.9,0.2,1.3h-0.2l-0.5-0.4
	c-0.7-0.5-1.3-0.7-1.8-0.5v-0.1l-1,0.2l0,0.6c-0.4,0-0.9,0-1.3,0.1l-0.5,0.1l0-0.4h-0.1l0,0.4c-0.7,0.2-1.3,0.5-2,0.8
	c-1.3,1.4-1.9,3.5-4.3,3.8c-2.2,0.2-4.5,0-6.7-0.3c-3-0.4-6-1.3-8.6-3.1c-0.6-0.3-1.1-0.8-1.4-1.5c-0.5,0.1-1,0-1.4-0.4
	c-0.6-0.8-0.2-2.3,0.2-3.5c-1.2,0.6-2.5,1.1-3.8,1.4c-2-0.5-4.1-1.1-6.2-1.6c-1.2,0-2.5-0.1-3.7-0.2c-2.7-0.3-3.5-1-3.3-1.9l-0.2,0
	c-4.1-3.5-7.7-6.9-13.3-7c-0.4,0-0.5-0.7-0.1-0.8c4.5-0.8,8.2,0.4,11.8,2.7c-0.4-0.7-0.9-1.4-1.5-2l0,0c-1-1-2.2-1.8-3.5-2v-0.3
	l1,0.1c-0.8-0.5-1.5-1-2.4-1.4c-0.4-0.1-0.4-0.9,0.1-0.8c1.2,0.2,2.4,0.6,3.5,1.1c-1.9-1.9-4.1-3.2-6.8-3.3v-0.6
	c4-0.5,8.2,1.7,10.9,4.9c1.2,1.4,3,3.4,3.9,5.6l0,0c-0.1-0.5-0.1-1-0.3-1.7c-0.3-1.5-0.6-3-1.2-4.3c-1.2-2.8-3.1-5.8-5.6-7.4
	l0.2-0.6c2.9,1.3,4.9,3.6,6.7,6.3l0.6,1l0-0.5c-0.6-3.4-1.8-7.5-4.6-9.3c-0.5-0.3-0.1-1.1,0.4-0.8c3.3,1.5,4.6,5.5,5.8,8.8
	c0.4,1.1,1.1,3,1.5,4.9c1.1-6,0.8-13.1-3.7-17.4l0.2-0.3c2.4,1.4,4,3.6,5,6.2c0.9,1.6,1.7,3.2,2.2,5c0.2-0.4,0.3-0.9,0.4-1.3
	c0-3.8-0.4-7.6-2.3-11l0.4-0.3c1.6,2.1,2.5,4.4,3,6.9c0.7-4.4,0.7-9.1,0.8-13.6c0.1-10.7-0.2-21.3,0-32c0.1-5.8,0.4-11.6,1-17.4
	c0.5-5.1,0.1-10.1-0.1-15.2c-0.3-5.1-0.7-9.3-2.9-13.6c-2.3,0.8-4.8,0.1-7.2-0.9c-2.7,3.1-6.9,1.2-9.8-2c-1.4,0.6-3.1,0.3-4.9-1.3
	c-0.5-0.5-0.9-1.1-1.3-1.7c-3.7,4.7-10.6,7.1-15.8,5.7c-2.6-0.7-4.7-2.8-6.2-5.3l-1.1,0.5c-1.7,0.4-3.3-0.1-4.9-0.5
	c-1.8-0.4-3.4,0-5.2-0.4c-3.2-0.9-4.7-4.3-5.6-7.4l-0.3-0.6c0.2,1.8-0.3,3.5-1.8,4.9c-2.1,2-4.9,1.7-7.5,1.5
	c-0.9,2.4-3.3,2.8-5.8,2.2l0,0h0c-0.9-0.2-1.8-0.5-2.7-0.9c-3.5,5.2-10.9,8.1-16.5,6.5c-5.6-1.5-9.3-9.2-8.1-15.4
	c-0.9-1.1-1.5-2.3-2.1-3.6c-5.1-2.1-6.7-8.2-4.4-13.3h-0.1c-3.4,3.8-10.7,4.3-14.6,3c-2.3-0.8-4.9-3-4-6c0.6-2,1.9-3.3,3-5
	c0.3-0.4,0.6-1.1,0.8-1.8l0.2-0.5l-0.7-0.2c-2.8-0.9-5.7-2.2-8.4-3.6c-0.9-0.5-2.4-2.4-2.1-3.7c0.1-0.4,0.4-0.9,0.6-1.3l0.5-0.9
	c0.2-0.4,0.4-0.8,0.3-1.3c-0.1-0.6-0.2-1-0.2-1.2c-0.8,0.5-1.7,1.1-2.6,1.2c-2,0.4-3.6-0.3-4.7-1.8c-5.4,1-9.2-2.7-8.9-8.3h0
	c0-0.6,0.1-1.2,0.2-1.9c-3.3-2.3-4.6-6.4-2.5-10.2c0.3-0.5,0.6-1.1,1-1.7c1.6-2.1,5.2-3.6,7.8-2.5c1.8,0.6,1.3,0.5,2.6-0.4l0.1-1.2
	l0.1-0.4l0.4-1l0.2-0.4l0.1-0.1c0.3-0.5,0.6-1,1.1-1.5l0.3,0.1l0.7-0.5l0.1-0.1c-1.7-0.4-3.1-1.5-3.9-3.1c-3.7-1.1-8.8-3.7-8.3-8.3
	c0.3-3.1,1.7-4.8,3.6-5.9c-2.3-2.8-4-6.1-2.6-9.4c0.4-1.1,1-1.9,1.6-2.5h0l0.2-0.2l0,0c0.5-0.5,1-0.8,1.5-1.1l0.4-0.2
	c1-0.5,2.2-0.7,3.5-0.8l0.4,0c0.6,0,1.2,0,1.8-0.1c0.7-2.4,2.6-3.5,4.9-4.1c-0.3-1.9-0.6-3.8-1.5-4.8c-2.6-2.9,0.6-6.1,3.2-3.4
	c0.1-1.6,0.3-3.1,1.4-4.1c-0.4-1.5-0.3-2.9,0.5-4.3c-1.3-1.3-1.9-3-1.1-5c0.2-0.5,0.5-0.9,0.9-1.3c0-2,0.2-3.8,0.8-5.4
	c1.1-2.9,2.7-3.9,4.7-4.1c-2-3.5-2.7-7.6-0.8-11.3c1.4-2.6,1.2-5.6,2.7-8.1c1.7-2.9,3.7-1.9,5.8-1.3c0.1-1.8,0.6-3.4,1.5-5
	c-3.5-3-6.4-7-8-11.3c-0.3-0.7-0.5-1.5-0.6-2.2l-0.1-0.7l-0.1-1.2l0-0.8l0.1-1l0.2-0.8l0.3-0.8l0.4-0.7l0.5-0.7l0.5-0.6l0.7-0.6
	l0.5-0.4l1-0.5c0.7-0.3,1.5-0.6,2.4-0.8c0.4-4.2,1.8-9.1,5.8-10c2.4-0.5,4.4,0.5,6.4,1.9c1,0.7,2.2,1.9,2.8,3.1
	c0.6-0.5,1.1-1.1,1.6-1.9c1.1-0.3,1.1-0.7,0.2-1.2c-0.9-1-2-1.9-2.7-3.1c-1.4-2.7-1.8-6-1.1-8.9c0.6-2.5,2.7-4.4,5-4.7
	c2.3-0.3,3.6,0.2,5.2,1.2c0.6-0.4,1.1-1.5,1.9-1.8c1.6-0.7,3.1-0.6,4.7,0.3c1.1,0.7,1.9,1.7,2.6,2.8c3.1-0.4,6.5,0.6,9.3,2.3
	c0.4-0.6,0.9-1.1,1.4-1.6c-0.6-1.8-0.2-3.8,2.1-5.2c1.1-0.6,2.4-1,3.6-1.5c0.5-0.2,1-0.4,1.5-0.6l-0.4-0.5c-0.3-0.5-0.6-1-0.8-1.5
	c-2.7,0.3-5.5,0.4-7.5-1c-3.3-2.5-4.2-5.8-3.1-9.3c-0.7-0.9-1-2-0.6-3.3c0.7-2.3,2.9-4.3,4.9-5.7c0-1.7,0.4-3.2,1.4-4.9l0.7-1.1
	l0-0.4c-0.4-1.4-0.6-2.7-0.5-4.1c0.2-4.8,5.3-7.4,9.1-8c0.9-0.7,1.8-1.3,2.7-1.9l0.1,0l0,0c2.7-1.6,5.5-2.6,8.7-2.8
	c1.6-0.1,3.1,0.4,4.1,1.6l0.7-0.2c0.6-0.3,1.2-0.5,1.8-0.6c1-0.2,2,0,3,0.3c1.7,0.6,3.6,3.7,4.8,3.9c3.4,0.4,5.2-0.2,7.8-2.5
	c1.6-1.4,3.1-1.8,4.4-1.4c0.7-2.2,2.6-3.4,5.1-4.5c1.3-0.5,2.7-0.7,4.1-0.6c-1-3-1.3-6.2,0.4-8.7c1.5-2,3.1-3.1,5.5-3.3
	c1.1-0.1,2.2,0,3.4,0.1c0.7,0,1.3,0.1,1.7,0c1.4-0.1,1.8-0.8,1.1-2.9c-1.1-3.4-0.8-8.6,3.2-9.5c0.5-0.1,1-0.1,1.6-0.1h0l0,0
	c1.9,0.2,3.9,1.4,5.8,2.7l0,0l1.2,0.8l0.8,0.5c0.6,0.4,1.1,0.7,1.6,1c0.2,0.1,0.7-0.8,1.3-1.5l0.2-0.3l0.7-0.5
	c1.9-0.2,3.5,0.3,5,1.6c2.3,1.8,4.8-1.9,6.4-3.2c1.8-1.5,3.9-1.7,6-1.6c1.7,0.1,3.2,1.8,3.2,3.7c0,2-0.4,4-0.6,6.1
	c-0.1,0.9,0.9,1.7,2,2.4c3.1-1.1,6.8-0.4,8.9,2.2c1.2-1.4,2.4-2.7,3.7-4c1.4-1.4,2.9-1.3,4.5-0.4c6.9,3.4,9,15.1,7.2,24.1
	c1.2,0.4,2.3,1.2,3.4,2.2c1.3,0.5,2.3,1.8,2.6,3.4l0.3,0.5c0.7-0.4,1.3-0.9,1.8-1.6c1.1-0.1,1.2-0.5,0.4-1.2
	c-0.8-1.1-1.7-2.2-2.2-3.5c-1-2.8-1-6.2,0.2-9c1-2.4,3.2-3.8,5.6-3.8c2.3,0,3.6,0.8,4.9,2c0.7-0.3,1.3-1.3,2.1-1.5
	c1.7-0.4,3.2-0.1,4.6,1.1c1,0.8,1.6,1.9,2.1,3.1c4,0.1,8.2,2.6,10.7,5.7c2.2,2.7,3.1,5.9,2.4,9.4l-0.4,1l-0.2,0.3l-0.4,0.6l-0.3,0.3
	l-0.4,0.4l-0.5,0.4l0,0l0,0l-0.4,0.3l-0.2,0.1l0,0l-0.2,0.1l0.7,0.8c0.6,0.7,1.2,1.7,1.4,2.7l0.3-0.2l0,0c1.2-0.9,2.4-1.1,4-0.8
	c0.9-3.8,4-6.3,8.3-5.7c4.9,0.6,6.7,5,7.3,9.5c4.4,2.1,7.7,7.1,6.1,12.6c-0.2,0.5-0.4,0.9-0.6,1.4l1,0.2v0l0.3,0.1
	c0.9,0.1,1.7,0.4,2.6,0.8c1.5,0.7,1.2-0.7,2.8-1.3c0.9-0.3,1.8-0.7,2.8-1.1c0.4-0.1,0.8-0.3,1.2-0.4v0.1l0.8-0.2
	c2.5-0.3,3.9-2.3,6.3-2.7c3.5-0.6,7.3,1.4,10,3.6c2.8,2.3,4.8,5.6,5.3,9.4c0.4,3.1-0.7,5.2-2.1,7.4c1.6,0.9,3.1,2.2,4.2,3.7
	c3.1-1.2,6.3-1.5,9.6-0.4c3.4,1.2,3.5,4.8,4.7,7.7c1.8,4.3,5.1,7.7,3.8,12.8l-0.4,0.8l0.2,0.6c0.6,2,0,3.5-0.9,5.2
	c-0.4,0.8-1.3,1.4-2.2,1.9h1.2c0.8,0,1.5,0,2.3,0h0.4c0.7,0,1.3,0.1,1.9,0.2h0.2h0c1.2,0.2,2.4,0.5,3.6,1.3c1.7,1.2,2.5,3,2.8,4.9
	l0.6,0.1l0,0l0.3,0.1l0.8,0.3l0.5,0.2l0.7,0.4l0.5,0.3l0.6,0.4l0.4,0.4l0.4,0.5l0.4,0.6l0.3,0.5l0.3,0.7l0.2,0.6l0.1,0.4h0v0.2
	l0,0.2l0.1,0.5c0,0.4,0,0.9-0.1,1.4c3.3,3.4,3.9,8.8,0,10.6l0.4,0.7c0.6,1,1.1,3.3-0.2,3.9c-1.5,0.7-2.8,0.9-4.2,0.9
	c3,4.8,8.4,11.4,3.6,15.4l-0.1,0c0.4,0.5,0.9,1,1.1,1.8c0.6,0,1.2,0,1.7,0h0.4c1.2,0,2.3,0.2,3.3,0.6l0.4,0.1c0.5,0.2,1,0.5,1.4,0.9
	l0,0l0,0l0.2,0.2h0l0,0c0.6,0.6,1.2,1.3,1.7,2.3c1.6,3.1,0.1,6.4-2,9.2c1.9,0.9,3.4,2.5,3.8,5.4c0.6,4.3-4.1,7.1-7.6,8.4
	c-0.7,1.6-1.9,2.8-3.6,3.2l0.1,0.1l0.7,0.4l0.3-0.1c0.4,0.4,0.8,0.8,1.1,1.3l0.1,0.1l0.2,0.3l0.4,0.9l0.1,0.4l0.2,1.1
	c1.3,0.8,0.9,0.9,2.5,0.2c2.2-1,5.8,0.3,7.4,2.2C1595.5,504.5,1595.8,505.1,1596.1,505.7z M1414.5,388.2L1414.5,388.2l-1.1,0.3
	l0.9,0.7L1414.5,388.2z M1462.1,701.4c1-1.2,2-2.4,2.8-3.7C1463.8,698.8,1462.8,700,1462.1,701.4z M1473.5,504.6l-0.3-0.1l0.1,0.2
	L1473.5,504.6z M1509,473.4c-0.4,0-0.8-0.1-1.2-0.2c0.2,0.5,0.4,1.1,0.5,1.7C1508.5,474.4,1508.7,473.9,1509,473.4z M1546.9,445.9
	c-0.2-1.1-0.4-2.2-0.7-3.3l-0.1-0.7c-0.3-0.9-0.3-1.1-0.2-0.5c-0.6-0.1-1.6,0-2.6,0.2c1.1,1.2,1.8,2.6,2.3,4.1
	C1546.1,445.7,1546.5,445.8,1546.9,445.9z"/>
<polygon points="28.8,748.2 170.1,713.6 231,711.8 356.9,707.5 574.6,693.9 789.6,706.2 1004,683.6 1189.1,713.6 1385.4,703.6 
	1378.5,909.7 28.8,909.7 "/>
<polyline points="1401.8,699 1642.4,718.1 1694.2,714.3 1694.2,968.7 327.4,968.7 327.4,858.1 285.4,853.7 "/>
<path d="M28.8,748.2C-6,737-6,737-6,737"/>
<polyline points="111.5,728 -6,710.1 -6,968.7 353,968.7 "/>
<rect x="291" y="903" width="70" height="41"/>
</svg>
