<?xml version="1.0" encoding="utf-8"?>
<!-- Generator: Adobe Illustrator 27.7.0, SVG Export Plug-In . SVG Version: 6.00 Build 0)  -->
<svg version="1.1" id="Layer_1" xmlns="http://www.w3.org/2000/svg" xmlns:xlink="http://www.w3.org/1999/xlink" x="0px" y="0px"
	 viewBox="0 0 1610 768" style="enable-background:new 0 0 1610 768;" xml:space="preserve">
<path d="M756.7,506.2c2.1,3.1,1.1,6.8-1.7,8.9c0.2,0.5,0.2,1.1,0.3,1.6l0,0c0.5,4.8-2.6,8.2-7.5,7.6c-1,1.4-2.3,2.1-4.1,1.8
	c-0.8-0.1-1.6-0.5-2.3-0.9c0,0.2-0.1,0.5-0.2,1.1c0,0.4,0.2,0.7,0.4,1.1l0.5,0.7c0.2,0.4,0.5,0.7,0.6,1.1c0.3,1.1-0.9,2.8-1.7,3.3
	c-2.3,1.4-4.8,2.6-7.2,3.6l-0.6,0.3l0.3,0.7l0.2,0.4l0.5,0.8c1,1.4,2.2,2.5,2.8,4.1c0.9,2.6-1.2,4.5-3.2,5.4c-1.1,0.4-2.5,0.7-4,0.8
	c-0.6,0.4-1.3,0.7-2,0.9c1.1,1.6,1.5,3.6,0.6,6.1c-1.4,3.6-6.3,3.3-9.6,2.6c-1.3,0.9-2.7,1.2-4.2,0.7v0.1l0.4,0.7h0.3
	c0.2,0.5,0.3,1.1,0.3,1.6v0.1v0.4v0.9l-0.1,0.4l-0.3,0.9c0.7,1.2,0.3,1.1,1.9,1.4c2.2,0.4,4.4,3.2,4.8,5.4c0.1,0.6,0.1,1.2,0.1,1.7
	c0.2,3.8-2.4,6.4-5.8,6.6c-0.1,0.5-0.3,1-0.5,1.5l0,0c-1.9,4.4-6.2,5.5-10.1,2.4c-1.4,0.6-2.7,0.4-4-0.5l-0.4,0.3
	c-0.9,2.1,0.2,2,0.3,4.1c0.2,5.8-8,4.1-12.7,2c-0.5,0.1-0.9,0.1-1.3,0.2c0.2,1.1,0.3,2.2,0.1,3.3s-0.8,1.8-1.6,2.3l-0.3,0.8
	c-2.4,2.3-5.4,1.8-8.2,0.9c-2.2,3-6.2,1.7-9.2-0.8c-1.2,0.7-2.8,0.6-4.5-0.7c-1.6-1.1-2.4-2.9-3.1-4.6c-2.7,0.5-5.2-0.4-7.1-2.5
	c-1.1,0.4-2.1,0.4-3.2,0.3c-0.5,0.1-1,0.2-1.6,0.2c-1.4,0-4.1-1.2-4.9,0.2c-0.3,0.5-0.4,0.9-0.5,1.2c-0.2,0.9,0.5,1.4,0.4,2.9
	c-0.3,5.8-8.3,3.2-12.8,0.7h-0.7l-0.3,0.2c-0.5,0.2-1,0.4-1.5,0.6c0.5,1.9,0.5,3.8-1.2,5.1c-2.2,1.8-4.7,1.4-7.1,0.5
	c-1.8,3-3.8,5.8-4.7,9.3c-0.9,3.3-1.2,6.7-1.2,10.1c-0.2,15.9,3.8,31.4,5.1,47.1c0.4,4.5,0.6,10.6,2.2,15.6l0.1-0.4
	c0.6-5,0.8-10,3.4-14.4c0.4-0.7,1.4-0.1,1,0.6l-0.2,0.6v0.1c-0.9,3.6-1.1,7-1.1,10.6c0.9-4,2.4-7.9,4.4-11.5c0.2-0.4,0.8,0,0.7,0.4
	c-2.8,6.8-3.8,13.9-4,21.1l0.3,0.4c-0.2-2.1,0.9-4.8,1.2-6.3c0.9-4.1,2.6-7.7,5.1-11l0.2,0.2l-0.5,1c0.7-1,1.3-2,1.9-3
	c0.3-0.6,1-0.1,0.8,0.5c-1.4,3.5-3.5,6.7-4.2,10.4c-0.2,1.2-0.4,2.4-0.5,3.7c1.7-3.5,4.1-6.6,7.2-8.5c0.4-0.2,0.7,0.4,0.4,0.7
	l-0.9,0.9c0.3-0.2,0.7,0.1,0.5,0.6s-0.5,0.9-0.7,1.4c0.6-0.6,1.1-1.2,1.7-1.7l0.6,0.6c-1.7,2.4-3.4,4.7-4.7,7.4
	c-0.9,1.9-1.4,3.7-1.8,5.5l0.6-1.1c1.4-2.2,3.1-4.5,5.4-5.5l0.5,0.6l-0.1,0.1c0.7-0.4,1.4-0.7,2.2-1l0.2,0.6c-2,1.1-3.7,3-4.9,5.2
	c0.6-0.6,1.2-1.1,1.8-1.6l0.5,0.5c-1.6,1.9-3.3,3.8-4.2,6.1c-0.1,0.6-0.2,1.1-0.2,1.6l-0.3,0.7l-0.1,0.4c-0.1,1.1-1.7,1.4-1.8,0.3
	l0,0c-1.3,1.1-4,1.5-5,1.7c2.7,3.6-1.8,4.6-4.3,5c-3.2,0.6-6.3,1.5-9.5,1.5H613l0.2,0.2v0.4c-0.6,0-1.3,0-1.9-0.1
	c-1.3-0.1-3.6,0.1-4.5-1c-0.3-0.5-0.5-1.1-0.7-1.6h-0.4c0.1,0.4,0.1,0.8,0.2,1.2h-0.2l-0.5-0.4c-0.7-0.5-1.2-0.6-1.6-0.5v-0.1
	l-0.9,0.2v0.5c-0.4,0-0.8,0-1.2,0.1l-0.5,0.1v-0.4h-0.1v0.4c-0.6,0.2-1.2,0.4-1.8,0.7c-1.2,1.3-1.7,3.2-4,3.4c-2,0.2-4.2,0-6.1-0.3
	c-2.8-0.4-5.5-1.2-7.9-2.7c-0.5-0.3-1-0.7-1.3-1.3c-0.5,0.1-0.9,0-1.3-0.4c-0.5-0.7-0.2-2.1,0.2-3.1c-1.1,0.5-2.3,1-3.5,1.3
	c-1.9-0.4-3.8-1-5.7-1.4c-1.1,0-2.3-0.1-3.4-0.2c-2.4-0.3-3.2-0.9-3.1-1.7h-0.2c-3.8-3.1-7.1-6.2-12.2-6.3c-0.4,0-0.5-0.6-0.1-0.7
	c4.1-0.7,7.6,0.4,10.8,2.4c-0.4-0.6-0.9-1.2-1.4-1.8l0,0c-0.9-0.9-2-1.6-3.2-1.8v-0.3l0.9,0.1c-0.7-0.5-1.4-0.9-2.2-1.2
	c-0.4-0.1-0.3-0.8,0.1-0.7c1.1,0.2,2.2,0.5,3.2,1c-1.7-1.7-3.8-2.9-6.2-3v-0.6c3.7-0.4,7.5,1.5,10,4.4c1.1,1.2,2.7,3.1,3.6,5l0,0
	c-0.1-0.4-0.1-0.9-0.2-1.5c-0.2-1.3-0.6-2.7-1.1-3.9c-1.1-2.5-2.8-5.2-5.2-6.6l0.2-0.5c2.6,1.2,4.5,3.2,6.1,5.7l0.6,0.9v-0.5
	c-0.5-3-1.6-6.7-4.2-8.4c-0.5-0.3-0.1-1,0.4-0.7c3,1.4,4.3,4.9,5.4,7.9c0.4,1,1,2.6,1.4,4.4c1-5.4,0.7-11.8-3.4-15.6l0.2-0.3
	c2.2,1.2,3.7,3.3,4.6,5.6c0.9,1.4,1.6,2.9,2,4.4c0.2-0.4,0.3-0.8,0.4-1.2c0-3.4-0.4-6.8-2.1-9.9l0.3-0.3c1.5,1.9,2.3,4,2.8,6.2
	c0.7-4,0.7-8.1,0.7-12.2c0.1-9.6-0.2-19.1,0-28.6c0.1-5.2,0.4-10.4,0.9-15.5c0.5-4.5,0.1-9-0.1-13.6c-0.2-4.5-0.6-8.3-2.6-12.2
	c-2.1,0.7-4.4,0.1-6.6-0.8c-2.5,2.7-6.3,1.1-9-1.8c-1.3,0.6-2.8,0.3-4.5-1.2c-0.5-0.5-0.9-1-1.2-1.5c-3.4,4.2-9.7,6.4-14.5,5.1
	c-2.4-0.7-4.3-2.5-5.7-4.8l-1,0.4c-1.5,0.4-3-0.1-4.5-0.4c-1.6-0.4-3.1,0-4.7-0.4c-3-0.8-4.3-3.8-5.2-6.6l-0.3-0.5
	c0.2,1.6-0.2,3.1-1.6,4.4c-1.9,1.8-4.5,1.5-6.9,1.3c-0.9,2.1-3,2.5-5.3,1.9l0,0l0,0c-0.8-0.2-1.7-0.5-2.5-0.8
	c-3.2,4.7-10,7.2-15.1,5.9c-5.2-1.4-8.5-8.2-7.4-13.7c-0.8-1-1.4-2.1-1.9-3.3c-4.7-1.9-6.1-7.4-4-11.9h-0.1
	c-3.1,3.4-9.8,3.9-13.4,2.7c-2.1-0.7-4.5-2.7-3.6-5.4c0.6-1.8,1.8-3,2.7-4.5c0.2-0.4,0.5-1,0.7-1.6l0.2-0.4l-0.6-0.2
	c-2.6-0.8-5.2-1.9-7.7-3.2c-0.9-0.4-2.2-2.2-1.9-3.3c0.1-0.4,0.3-0.8,0.6-1.1l0.5-0.8c0.2-0.4,0.3-0.7,0.3-1.1
	c-0.1-0.6-0.2-0.9-0.2-1.1c-0.7,0.4-1.5,1-2.4,1.1c-1.9,0.4-3.3-0.3-4.3-1.6c-5,0.9-8.5-2.4-8.2-7.4l0,0c0-0.6,0.1-1.1,0.2-1.7
	c-3-2-4.2-5.8-2.3-9.2c0.2-0.5,0.5-1,0.9-1.5c1.4-1.8,4.7-3.2,7.2-2.2c1.6,0.5,1.2,0.5,2.4-0.4l0.1-1.1l0.1-0.4l0.4-0.9l0.2-0.4
	l0.1-0.1c0.3-0.5,0.6-0.9,1-1.3l0.2,0.1l0.6-0.4l0.1-0.1c-1.6-0.4-2.8-1.4-3.6-2.8c-3.4-1-8.1-3.3-7.6-7.4c0.2-2.7,1.6-4.3,3.3-5.2
	c-2.1-2.5-3.7-5.4-2.4-8.5c0.4-1,0.9-1.7,1.4-2.2l0,0l0.2-0.2l0,0c0.5-0.4,0.9-0.7,1.4-1l0.3-0.2c0.9-0.4,2-0.7,3.2-0.7h0.4
	c0.5,0,1.1,0,1.7-0.1c0.6-2.1,2.4-3.2,4.5-3.7c-0.2-1.7-0.5-3.4-1.4-4.3c-2.4-2.6,0.6-5.4,2.9-3.1c0.1-1.4,0.3-2.7,1.3-3.7
	c-0.4-1.3-0.2-2.6,0.5-3.8c-1.2-1.1-1.8-2.6-1-4.5c0.2-0.4,0.5-0.8,0.8-1.1c0-1.8,0.2-3.4,0.7-4.8c1-2.6,2.5-3.5,4.3-3.7
	c-1.8-3.1-2.5-6.8-0.7-10.1c1.3-2.3,1.1-5,2.5-7.3c1.5-2.6,3.4-1.7,5.3-1.1c0.1-1.6,0.5-3.1,1.4-4.4c-3.2-2.7-5.9-6.3-7.4-10.1
	c-0.2-0.7-0.5-1.3-0.6-1.9l-0.1-0.7l-0.1-1.1v-0.7l0.1-0.9l0.2-0.7l0.2-0.7l0.3-0.6l0.5-0.6l0.5-0.5l0.6-0.5l0.5-0.4l0.9-0.4
	c0.7-0.3,1.4-0.6,2.2-0.7c0.4-3.8,1.7-8.1,5.4-9c2.2-0.5,4,0.4,5.9,1.7c0.9,0.7,2,1.7,2.6,2.7c0.6-0.4,1-1,1.4-1.7
	c1-0.3,1-0.6,0.2-1.1c-0.9-0.9-1.8-1.7-2.4-2.8c-1.3-2.4-1.7-5.3-1-8c0.6-2.2,2.4-3.9,4.6-4.2c2.1-0.3,3.3,0.2,4.7,1.1
	c0.6-0.4,1-1.3,1.7-1.6c1.5-0.7,2.9-0.5,4.3,0.3c1,0.6,1.8,1.5,2.4,2.5c2.8-0.4,6,0.5,8.5,2c0.4-0.5,0.8-1,1.3-1.5
	c-0.6-1.6-0.2-3.4,1.9-4.6c1-0.6,2.2-0.9,3.3-1.3c0.5-0.2,0.9-0.4,1.4-0.6l-0.4-0.5c-0.3-0.4-0.5-0.9-0.7-1.3
	c-2.4,0.3-5.1,0.4-6.9-0.9c-3.1-2.2-3.8-5.2-2.9-8.3c-0.6-0.8-0.9-1.8-0.5-3c0.6-2,2.7-3.9,4.5-5.1c0-1.5,0.4-2.9,1.3-4.4l0.6-1
	v-0.4c-0.4-1.2-0.5-2.4-0.5-3.7c0.2-4.3,4.9-6.6,8.4-7.1c0.8-0.6,1.6-1.2,2.5-1.7h0.1l0,0c2.4-1.4,5.1-2.3,8-2.5
	c1.5-0.1,2.8,0.4,3.8,1.4l0.6-0.2c0.5-0.3,1.1-0.4,1.7-0.5c0.9-0.2,1.9,0,2.7,0.3c1.6,0.6,3.3,3.3,4.4,3.5c3.1,0.4,4.7-0.2,7.1-2.2
	c1.4-1.2,2.8-1.6,4-1.3c0.7-1.9,2.4-3.1,4.7-4c1.2-0.4,2.5-0.7,3.8-0.6c-0.9-2.7-1.2-5.5,0.4-7.8c1.4-1.8,2.8-2.8,5-3
	c1-0.1,2.1,0,3.1,0.1c0.6,0,1.2,0.1,1.6,0c1.3-0.1,1.6-0.7,1-2.6c-1-3-0.7-7.7,2.9-8.5c0.5-0.1,0.9-0.1,1.4-0.1l0,0l0,0
	c1.8,0.2,3.6,1.2,5.3,2.4l0,0l1.1,0.7l0.7,0.5c0.5,0.4,1,0.7,1.5,0.9c0.2,0.1,0.7-0.7,1.2-1.4l0.2-0.3l0.7-0.4
	c1.8-0.2,3.2,0.3,4.6,1.4c2.1,1.6,4.4-1.7,5.9-2.9c1.6-1.3,3.6-1.5,5.5-1.5c1.6,0.1,2.9,1.6,2.9,3.3c0,1.8-0.4,3.6-0.6,5.4
	c-0.1,0.8,0.8,1.5,1.9,2.2c2.9-1,6.2-0.4,8.1,2c1.1-1.2,2.2-2.4,3.4-3.6c1.3-1.2,2.7-1.1,4.2-0.4c6.3,3.1,8.3,13.5,6.6,21.5
	c1.1,0.4,2.1,1.1,3.1,1.9c1.2,0.4,2.1,1.6,2.4,3.1l0.2,0.4c0.6-0.4,1.2-0.8,1.7-1.4c1-0.1,1.1-0.4,0.3-1.1c-0.7-1-1.5-1.9-2-3.1
	c-0.9-2.5-0.9-5.5,0.2-8c0.9-2.1,3-3.4,5.1-3.4s3.3,0.7,4.5,1.8c0.6-0.3,1.2-1.1,1.9-1.3c1.6-0.4,2.9-0.1,4.2,1
	c0.9,0.7,1.5,1.7,1.9,2.8c3.7,0.1,7.5,2.3,9.9,5.1c2.1,2.4,2.9,5.3,2.2,8.4l-0.4,0.9l-0.2,0.3l-0.4,0.5l-0.3,0.3l-0.4,0.4l-0.5,0.4
	l0,0l0,0l-0.4,0.3l-0.2,0.1l0,0l-0.2,0.1l0.7,0.7c0.5,0.6,1.1,1.5,1.3,2.4l0.3-0.2l0,0c1.1-0.8,2.2-1,3.6-0.7
	c0.8-3.4,3.7-5.6,7.6-5.1c4.5,0.6,6.1,4.5,6.7,8.5c4.1,1.9,7.1,6.4,5.6,11.3c-0.2,0.4-0.4,0.8-0.6,1.3l0.9,0.2l0,0l0.2,0.1
	c0.8,0.1,1.6,0.4,2.4,0.7c1.4,0.6,1.1-0.7,2.6-1.2c0.9-0.3,1.7-0.7,2.6-1c0.4-0.1,0.7-0.3,1.1-0.4v0.1l0.7-0.2
	c2.3-0.3,3.6-2.1,5.8-2.4c3.2-0.5,6.7,1.3,9.2,3.3c2.6,2,4.4,5,4.8,8.5c0.4,2.7-0.7,4.7-1.9,6.6c1.5,0.8,2.8,1.9,3.8,3.3
	c2.8-1.1,5.8-1.4,8.8-0.4c3.1,1.1,3.2,4.3,4.3,6.9c1.7,3.8,4.7,6.9,3.5,11.5l-0.4,0.7l0.2,0.6c0.6,1.8,0,3.1-0.9,4.6
	c-0.4,0.7-1.2,1.2-2,1.7h1.1c0.7,0,1.4,0,2.1,0h0.3c0.6,0,1.2,0.1,1.8,0.2h0.2l0,0c1.1,0.2,2.2,0.5,3.3,1.2c1.6,1.1,2.3,2.6,2.6,4.4
	l0.6,0.1l0,0l0.2,0.1l0.7,0.3l0.5,0.2l0.7,0.4l0.5,0.3l0.5,0.4l0.4,0.4l0.4,0.4l0.4,0.5l0.3,0.5l0.2,0.6l0.2,0.5l0.1,0.4l0,0v0.2
	v0.2l0.1,0.5c0,0.4,0,0.8-0.1,1.3c3,3.1,3.6,7.9,0,9.5l0.4,0.7c0.5,0.9,1,3-0.2,3.5c-1.4,0.7-2.6,0.8-3.9,0.8
	c2.7,4.3,7.7,10.2,3.3,13.7h-0.1c0.4,0.4,0.8,0.9,1,1.6c0.5,0,1.1,0,1.6,0h0.4c1.1,0,2.1,0.2,3.1,0.5l0.3,0.1
	c0.5,0.2,0.9,0.4,1.3,0.8l0,0l0,0l0.2,0.2l0,0l0,0c0.6,0.5,1.1,1.2,1.5,2.1c1.5,2.8,0.1,5.8-1.8,8.2c1.7,0.8,3.1,2.2,3.5,4.8
	c0.6,3.8-3.8,6.3-6.9,7.5c-0.7,1.5-1.8,2.5-3.3,2.9l0.1,0.1l0.6,0.4l0.2-0.1c0.4,0.4,0.7,0.7,1,1.2l0.1,0.1l0.2,0.3l0.4,0.8l0.1,0.4
	l0.2,1c1.2,0.7,0.8,0.8,2.3,0.2c2.1-0.9,5.3,0.3,6.8,1.9C756.1,505.2,756.4,505.6,756.7,506.2z M589.9,401L589.9,401l-1,0.3l0.9,0.6
	L589.9,401z M633.6,681.3c0.9-1.1,1.8-2.1,2.6-3.3C635.2,679,634.3,680.1,633.6,681.3z M644.1,505.2l-0.2-0.1l0.1,0.2L644.1,505.2z
	 M676.7,477.3c-0.4,0-0.7-0.1-1.1-0.2c0.2,0.5,0.3,1,0.5,1.5C676.2,478.2,676.4,477.8,676.7,477.3z M711.5,452.7c-0.2-1-0.4-2-0.6-3
	l-0.1-0.6c-0.2-0.8-0.3-1-0.2-0.4c-0.5-0.1-1.5,0-2.4,0.2c1,1.1,1.7,2.3,2.1,3.7C710.7,452.5,711.1,452.6,711.5,452.7z"/>
<path d="M-75.4,302.1V302V302.1z"/>
<polygon points="-49.9,88.4 -49.9,88.4 -50,88.3 "/>
<path d="M-36.4,193.6v-0.1V193.6z"/>
<path d="M359.6,505.2c2.2,3.5,1.2,7.6-1.8,9.9c0.2,0.6,0.3,1.2,0.3,1.8l0,0c0.5,5.4-2.9,9.2-8.1,8.5c-1.1,1.5-2.5,2.3-4.4,2.1
	c-0.9-0.1-1.7-0.6-2.5-1c0,0.2-0.1,0.6-0.2,1.2c0,0.4,0.2,0.8,0.4,1.2l0.5,0.8c0.3,0.4,0.5,0.8,0.7,1.2c0.4,1.2-1,3.1-1.8,3.6
	c-2.5,1.5-5.2,3-7.9,4l-0.6,0.3l0.3,0.7l0.2,0.5l0.5,0.9c1.1,1.5,2.4,2.8,3.1,4.6c1,2.9-1.3,5.1-3.5,6c-1.2,0.5-2.7,0.8-4.4,0.9
	c-0.7,0.4-1.4,0.7-2.2,1c1.2,1.8,1.7,4,0.7,6.8c-1.5,4-6.8,3.7-10.4,2.9c-1.4,1-3,1.3-4.6,0.8v0.1l0.4,0.8h0.3
	c0.2,0.6,0.3,1.2,0.3,1.8v0.1v0.4v1l-0.1,0.4l-0.4,1c0.7,1.4,0.4,1.2,2.1,1.6c2.4,0.4,4.8,3.5,5.3,6.1c0.1,0.7,0.1,1.3,0.1,1.9
	c0.3,4.2-2.6,7.1-6.3,7.4c-0.1,0.6-0.4,1.1-0.6,1.7l0,0c-2.1,5-6.8,6.2-11,2.7c-1.5,0.6-2.9,0.5-4.4-0.5l-0.4,0.3
	c-0.9,2.3,0.3,2.2,0.4,4.5c0.2,6.4-8.7,4.5-13.8,2.3c-0.5,0.1-0.9,0.1-1.4,0.2c0.2,1.2,0.3,2.5,0.1,3.7c-0.2,1.3-0.9,2.1-1.8,2.6
	l-0.3,0.9c-2.7,2.6-5.8,2-8.9,1c-2.4,3.3-6.7,1.9-10-0.9c-1.3,0.8-3.1,0.6-4.9-0.8c-1.7-1.3-2.6-3.2-3.4-5.1
	c-2.9,0.5-5.6-0.5-7.7-2.8c-1.2,0.4-2.3,0.5-3.5,0.3c-0.5,0.1-1.1,0.2-1.7,0.2c-1.5,0-4.5-1.3-5.3,0.2c-0.3,0.5-0.4,1-0.5,1.3
	c-0.2,1,0.5,1.5,0.4,3.2c-0.4,6.4-9.1,3.5-14,0.7h-0.8l-0.3,0.2c-0.5,0.2-1.1,0.4-1.7,0.7c0.5,2.1,0.5,4.3-1.3,5.7
	c-2.4,2-5.1,1.6-7.7,0.6c-1.9,3.3-4.1,6.5-5.1,10.4c-0.9,3.7-1.3,7.5-1.3,11.3c-0.3,17.7,4.1,35.1,5.5,52.7
	c0.4,5.1,0.7,11.9,2.4,17.4l0.1-0.4c0.7-5.6,0.9-11.2,3.7-16.1c0.4-0.8,1.5-0.1,1.1,0.7l-0.3,0.7v0.1c-0.9,4-1.2,7.9-1.2,11.8
	c1-4.5,2.6-8.9,4.8-12.8c0.3-0.5,0.9,0,0.7,0.5c-3,7.6-4.1,15.5-4.4,23.6l0.3,0.4c-0.2-2.3,1-5.4,1.3-7c1-4.6,2.8-8.6,5.6-12.3
	l0.2,0.2l-0.5,1.1c0.7-1.1,1.4-2.2,2-3.3c0.4-0.6,1.1-0.1,0.9,0.5c-1.5,3.9-3.8,7.5-4.6,11.7c-0.2,1.3-0.4,2.7-0.5,4.1
	c1.9-3.9,4.4-7.4,7.8-9.5c0.4-0.2,0.8,0.4,0.4,0.7l-1,1c0.4-0.2,0.8,0.1,0.6,0.6c-0.3,0.5-0.5,1-0.8,1.5c0.6-0.6,1.2-1.3,1.8-1.9
	l0.6,0.7c-1.8,2.7-3.7,5.3-5.2,8.3c-1,2.1-1.5,4.1-1.9,6.2l0.6-1.2c1.5-2.5,3.3-5,5.9-6.2l0.5,0.7l-0.1,0.1c0.8-0.4,1.6-0.8,2.4-1.1
	l0.3,0.6c-2.2,1.3-4,3.4-5.3,5.9c0.7-0.6,1.3-1.2,1.9-1.8l0.5,0.6c-1.7,2.2-3.6,4.2-4.5,6.8c-0.1,0.6-0.2,1.2-0.3,1.8l-0.4,0.8
	l-0.1,0.4c-0.1,1.2-1.8,1.6-2,0.3l0,0c-1.4,1.2-4.3,1.7-5.4,1.9c3,4-1.9,5.1-4.6,5.6c-3.5,0.6-6.9,1.7-10.4,1.7h-0.4l0.2,0.2v0.4
	c-0.7,0-1.4,0-2.1-0.1c-1.4-0.1-3.9,0.1-4.9-1.1c-0.3-0.6-0.6-1.2-0.8-1.8h-0.4c0.1,0.4,0.1,0.9,0.2,1.3h-0.2l-0.5-0.4
	c-0.7-0.5-1.3-0.7-1.8-0.5v-0.1l-1,0.2v0.6c-0.4,0-0.9,0-1.3,0.1l-0.5,0.1v-0.4h-0.1v0.4c-0.7,0.2-1.3,0.5-2,0.8
	c-1.3,1.4-1.9,3.5-4.3,3.8c-2.2,0.2-4.5,0-6.7-0.3c-3-0.4-6-1.3-8.6-3.1c-0.6-0.3-1.1-0.8-1.4-1.5c-0.5,0.1-1,0-1.4-0.4
	c-0.6-0.8-0.2-2.3,0.2-3.5c-1.2,0.6-2.5,1.1-3.8,1.4c-2-0.5-4.1-1.1-6.2-1.6c-1.2,0-2.5-0.1-3.7-0.2c-2.7-0.3-3.5-1-3.3-1.9h-0.2
	c-4.1-3.5-7.7-6.9-13.3-7c-0.4,0-0.5-0.7-0.1-0.8c4.5-0.8,8.2,0.4,11.8,2.7c-0.4-0.7-0.9-1.4-1.5-2l0,0c-1-1-2.2-1.8-3.5-2v-0.3
	l1,0.1c-0.8-0.5-1.5-1-2.4-1.4c-0.4-0.1-0.4-0.9,0.1-0.8c1.2,0.2,2.4,0.6,3.5,1.1c-1.9-1.9-4.1-3.2-6.8-3.3v-0.6
	c4-0.5,8.2,1.7,10.9,4.9c1.2,1.4,3,3.4,3.9,5.6l0,0c-0.1-0.5-0.1-1-0.3-1.7c-0.3-1.5-0.6-3-1.2-4.3c-1.2-2.8-3.1-5.8-5.6-7.4
	l0.2-0.6c2.9,1.3,4.9,3.6,6.7,6.3l0.6,1v-0.5c-0.6-3.4-1.8-7.5-4.6-9.3c-0.5-0.3-0.1-1.1,0.4-0.8c3.3,1.5,4.6,5.5,5.8,8.8
	c0.4,1.1,1.1,3,1.5,4.9c1.1-6,0.8-13.1-3.7-17.4l0.2-0.3c2.4,1.4,4,3.6,5,6.2c0.9,1.6,1.7,3.2,2.2,5c0.2-0.4,0.3-0.9,0.4-1.3
	c0-3.8-0.4-7.6-2.3-11l0.4-0.3c1.6,2.1,2.5,4.4,3,6.9c0.7-4.4,0.7-9.1,0.8-13.6c0.1-10.7-0.2-21.3,0-32c0.1-5.8,0.4-11.6,1-17.4
	c0.5-5.1,0.1-10.1-0.1-15.2c-0.3-5.1-0.7-9.3-2.9-13.6c-2.3,0.8-4.8,0.1-7.2-0.9c-2.7,3.1-6.9,1.2-9.8-2c-1.4,0.6-3.1,0.3-4.9-1.3
	c-0.5-0.5-0.9-1.1-1.3-1.7c-3.7,4.7-10.6,7.1-15.8,5.7c-2.6-0.7-4.7-2.8-6.2-5.3l-1.1,0.5c-1.7,0.4-3.3-0.1-4.9-0.5
	c-1.8-0.4-3.4,0-5.2-0.4c-3.2-0.9-4.7-4.3-5.6-7.4l-0.3-0.6c0.2,1.8-0.3,3.5-1.8,4.9c-2.1,2-4.9,1.7-7.5,1.5
	c-0.9,2.4-3.3,2.8-5.8,2.2l0,0l0,0c-0.9-0.2-1.8-0.5-2.7-0.9c-3.5,5.2-10.9,8.1-16.5,6.5c-5.6-1.5-9.3-9.2-8.1-15.4
	c-0.9-1.1-1.5-2.3-2.1-3.6c-5.1-2.1-6.7-8.2-4.4-13.3h-0.1c-3.4,3.8-10.7,4.3-14.6,3c-2.3-0.8-4.9-3-4-6c0.6-2,1.9-3.3,3-5
	c0.3-0.4,0.6-1.1,0.8-1.8l0.2-0.5l-0.7-0.2c-2.8-0.9-5.7-2.2-8.4-3.6c-0.9-0.5-2.4-2.4-2.1-3.7c0.1-0.4,0.4-0.9,0.6-1.3l0.5-0.9
	c0.2-0.4,0.4-0.8,0.3-1.3c-0.1-0.6-0.2-1-0.2-1.2c-0.8,0.5-1.7,1.1-2.6,1.2c-2,0.4-3.6-0.3-4.7-1.8c-5.4,1-9.2-2.7-8.9-8.3l0,0
	c0-0.6,0.1-1.2,0.2-1.9c-3.3-2.3-4.6-6.4-2.5-10.2c0.3-0.5,0.6-1.1,1-1.7c1.6-2.1,5.2-3.6,7.8-2.5c1.8,0.6,1.3,0.5,2.6-0.4l0.1-1.2
	l0.1-0.4l0.4-1l0.2-0.4l0.1-0.1c0.3-0.5,0.6-1,1.1-1.5l0.3,0.1l0.7-0.5l0.1-0.1c-1.7-0.4-3.1-1.5-3.9-3.1c-3.7-1.1-8.8-3.7-8.3-8.3
	c0.3-3.1,1.7-4.8,3.6-5.9c-2.3-2.8-4-6.1-2.6-9.4c0.4-1.1,1-1.9,1.6-2.5l0,0l0.2-0.2l0,0c0.5-0.5,1-0.8,1.5-1.1l0.4-0.2
	c1-0.5,2.2-0.7,3.5-0.8h0.4c0.6,0,1.2,0,1.8-0.1c0.7-2.4,2.6-3.5,4.9-4.1c-0.3-1.9-0.6-3.8-1.5-4.8c-2.6-2.9,0.6-6.1,3.2-3.4
	c0.1-1.6,0.3-3.1,1.4-4.1c-0.4-1.5-0.3-2.9,0.5-4.3c-1.3-1.3-1.9-3-1.1-5c0.2-0.5,0.5-0.9,0.9-1.3c0-2,0.2-3.8,0.8-5.4
	c1.1-2.9,2.7-3.9,4.7-4.1c-2-3.5-2.7-7.6-0.8-11.3c1.4-2.6,1.2-5.6,2.7-8.1c1.7-2.9,3.7-1.9,5.8-1.3c0.1-1.8,0.6-3.4,1.5-5
	c-3.5-3-6.4-7-8-11.3c-0.3-0.7-0.5-1.5-0.6-2.2l-0.1-0.7l-0.1-1.2V415l0.1-1l0.2-0.8l0.3-0.8l0.4-0.7l0.5-0.7l0.5-0.6l0.7-0.6
	l0.5-0.4l1-0.5c0.7-0.3,1.5-0.6,2.4-0.8c0.4-4.2,1.8-9.1,5.8-10c2.4-0.5,4.4,0.5,6.4,1.9c1,0.7,2.2,1.9,2.8,3.1
	c0.6-0.5,1.1-1.1,1.6-1.9c1.1-0.3,1.1-0.7,0.2-1.2c-0.9-1-2-1.9-2.7-3.1c-1.4-2.7-1.8-6-1.1-8.9c0.6-2.5,2.7-4.4,5-4.7
	c2.3-0.3,3.6,0.2,5.2,1.2c0.6-0.4,1.1-1.5,1.9-1.8c1.6-0.7,3.1-0.6,4.7,0.3c1.1,0.7,1.9,1.7,2.6,2.8c3.1-0.4,6.5,0.6,9.3,2.3
	c0.4-0.6,0.9-1.1,1.4-1.6c-0.6-1.8-0.2-3.8,2.1-5.2c1.1-0.6,2.4-1,3.6-1.5c0.5-0.2,1-0.4,1.5-0.6l-0.4-0.5c-0.3-0.5-0.6-1-0.8-1.5
	c-2.7,0.3-5.5,0.4-7.5-1c-3.3-2.5-4.2-5.8-3.1-9.3c-0.7-0.9-1-2-0.6-3.3c0.7-2.3,2.9-4.3,4.9-5.7c0-1.7,0.4-3.2,1.4-4.9l0.7-1.1
	v-0.4c-0.4-1.4-0.6-2.7-0.5-4.1c0.2-4.8,5.3-7.4,9.1-8c0.9-0.7,1.8-1.3,2.7-1.9h0.1l0,0c2.7-1.6,5.5-2.6,8.7-2.8
	c1.6-0.1,3.1,0.4,4.1,1.6l0.7-0.2c0.6-0.3,1.2-0.5,1.8-0.6c1-0.2,2,0,3,0.3c1.7,0.6,3.6,3.7,4.8,3.9c3.4,0.4,5.2-0.2,7.8-2.5
	c1.6-1.4,3.1-1.8,4.4-1.4c0.7-2.2,2.6-3.4,5.1-4.5c1.3-0.5,2.7-0.7,4.1-0.6c-1-3-1.3-6.2,0.4-8.7c1.5-2,3.1-3.1,5.5-3.3
	c1.1-0.1,2.2,0,3.4,0.1c0.7,0,1.3,0.1,1.7,0c1.4-0.1,1.8-0.8,1.1-2.9c-1.1-3.4-0.8-8.6,3.2-9.5c0.5-0.1,1-0.1,1.6-0.1l0,0l0,0
	c1.9,0.2,3.9,1.4,5.8,2.7l0,0l1.2,0.8l0.8,0.5c0.6,0.4,1.1,0.7,1.6,1c0.2,0.1,0.7-0.8,1.3-1.5l0.2-0.3l0.7-0.5
	c1.9-0.2,3.5,0.3,5,1.6c2.3,1.8,4.8-1.9,6.4-3.2c1.8-1.5,3.9-1.7,6-1.6c1.7,0.1,3.2,1.8,3.2,3.7c0,2-0.4,4-0.6,6.1
	c-0.1,0.9,0.9,1.7,2,2.4c3.1-1.1,6.8-0.4,8.9,2.2c1.2-1.4,2.4-2.7,3.7-4c1.4-1.4,2.9-1.3,4.5-0.4c6.9,3.4,9,15.1,7.2,24.1
	c1.2,0.4,2.3,1.2,3.4,2.2c1.3,0.5,2.3,1.8,2.6,3.4l0.3,0.5c0.7-0.4,1.3-0.9,1.8-1.6c1.1-0.1,1.2-0.5,0.4-1.2
	c-0.8-1.1-1.7-2.2-2.2-3.5c-1-2.8-1-6.2,0.2-9c1-2.4,3.2-3.8,5.6-3.8c2.3,0,3.6,0.8,4.9,2c0.7-0.3,1.3-1.3,2.1-1.5
	c1.7-0.4,3.2-0.1,4.6,1.1c1,0.8,1.6,1.9,2.1,3.1c4,0.1,8.2,2.6,10.7,5.7c2.2,2.7,3.1,5.9,2.4,9.4l-0.4,1l-0.2,0.3l-0.4,0.6l-0.3,0.3
	l-0.4,0.4l-0.5,0.4l0,0l0,0l-0.4,0.3l-0.2,0.1l0,0l-0.2,0.1l0.7,0.8c0.6,0.7,1.2,1.7,1.4,2.7l0.3-0.2l0,0c1.2-0.9,2.4-1.1,4-0.8
	c0.9-3.8,4-6.3,8.3-5.7c4.9,0.6,6.7,5,7.3,9.5c4.4,2.1,7.7,7.1,6.1,12.6c-0.2,0.5-0.4,0.9-0.6,1.4l1,0.2l0,0l0.3,0.1
	c0.9,0.1,1.7,0.4,2.6,0.8c1.5,0.7,1.2-0.7,2.8-1.3c0.9-0.3,1.8-0.7,2.8-1.1c0.4-0.1,0.8-0.3,1.2-0.4v0.1l0.8-0.2
	c2.5-0.3,3.9-2.3,6.3-2.7c3.5-0.6,7.3,1.4,10,3.6c2.8,2.3,4.8,5.6,5.3,9.4c0.4,3.1-0.7,5.2-2.1,7.4c1.6,0.9,3.1,2.2,4.2,3.7
	c3.1-1.2,6.3-1.5,9.6-0.4c3.4,1.2,3.5,4.8,4.7,7.7c1.8,4.3,5.1,7.7,3.8,12.8l-0.4,0.8l0.2,0.6c0.6,2,0,3.5-0.9,5.2
	c-0.4,0.8-1.3,1.4-2.2,1.9h1.2c0.8,0,1.5,0,2.3,0h0.4c0.7,0,1.3,0.1,1.9,0.2h0.2l0,0c1.2,0.2,2.4,0.5,3.6,1.3c1.7,1.2,2.5,3,2.8,4.9
	l0.6,0.1l0,0l0.3,0.1l0.8,0.3l0.5,0.2l0.7,0.4l0.5,0.3l0.6,0.4l0.4,0.4l0.4,0.5l0.4,0.6l0.3,0.5l0.3,0.7l0.2,0.6l0.1,0.4l0,0v0.2
	v0.2l0.1,0.5c0,0.4,0,0.9-0.1,1.4c3.3,3.4,3.9,8.8,0,10.6l0.4,0.7c0.6,1,1.1,3.3-0.2,3.9c-1.5,0.7-2.8,0.9-4.2,0.9
	c3,4.8,8.4,11.4,3.6,15.4h-0.1c0.4,0.5,0.9,1,1.1,1.8c0.6,0,1.2,0,1.7,0h0.4c1.2,0,2.3,0.2,3.3,0.6l0.4,0.1c0.5,0.2,1,0.5,1.4,0.9
	l0,0l0,0l0.2,0.2l0,0l0,0c0.6,0.6,1.2,1.3,1.7,2.3c1.6,3.1,0.1,6.4-2,9.2c1.9,0.9,3.4,2.5,3.8,5.4c0.6,4.3-4.1,7.1-7.6,8.4
	c-0.7,1.6-1.9,2.8-3.6,3.2l0.1,0.1l0.7,0.4l0.3-0.1c0.4,0.4,0.8,0.8,1.1,1.3l0.1,0.1l0.2,0.3l0.4,0.9l0.1,0.4l0.2,1.1
	c1.3,0.8,0.9,0.9,2.5,0.2c2.2-1,5.8,0.3,7.4,2.2C358.9,504.1,359.3,504.6,359.6,505.2z M178,387.7L178,387.7l-1.1,0.3l0.9,0.7
	L178,387.7z M225.6,700.9c1-1.2,2-2.4,2.8-3.7C227.3,698.3,226.3,699.6,225.6,700.9z M237,504.1l-0.3-0.1l0.1,0.2L237,504.1z
	 M272.5,473c-0.4,0-0.8-0.1-1.2-0.2c0.2,0.5,0.4,1.1,0.5,1.7C272,473.9,272.2,473.5,272.5,473z M310.4,445.4
	c-0.2-1.1-0.4-2.2-0.7-3.3l-0.1-0.7c-0.3-0.9-0.3-1.1-0.2-0.5c-0.6-0.1-1.6,0-2.6,0.2c1.1,1.2,1.8,2.6,2.3,4.1
	C309.6,445.3,310,445.3,310.4,445.4z"/>
<polygon points="28.8,748.2 170.1,713.6 231,711.8 356.9,707.5 574.6,693.9 789.6,706.2 1004,683.6 1189.1,713.6 1385.4,703.6 
	1378.5,909.7 28.8,909.7 "/>
<polyline points="1401.8,699 1642.4,718.1 1694.2,714.3 1694.2,968.7 327.4,968.7 327.4,858.1 285.4,853.7 "/>
<rect x="291" y="903" width="70" height="41"/>
<path d="M944.9,521.8c1.8,2.7-0.1,6.1-2,7.7c-2.3,1.9-5.6,1-7.9-0.2c-1.3-0.7-2.4-1.9-3.7-2.8c-0.6-0.4-1.7,0.8-2.1,1.2
	c-0.6,0.5-0.3,1.8-0.2,2.6c0,1.1-0.9,1.9-1.7,1.7c-2.6-0.4-5-0.9-6.7-3.4l-0.2-0.4c-0.8,1.3,1.4,2.7,2.1,3.6c0.6,1,0.6,2.3-0.2,3.1
	c-0.7,0.6-1.3,0.9-2.2,1c-1.5,0.2-1.1,0.3-0.5,1.8c0.8,2,0.6,4.2-0.7,5.9c-1.9,2.5-5.3,1.7-7.7,0c-2.2,1.3-4.4-0.8-6.1-3.1
	c-0.4-0.6-0.8-1.2-1.2-1.7l-0.1-0.1c-0.7,0.9,0.6,2.2,0.4,3.3l-0.2,1v0.1l-0.3,0.7l-0.2,0.3l-0.3,0.4l-0.7,0.5
	c-0.8,0.5-1.7,0.2-2.5,0c-0.6-0.2-1.1-0.7-1.7-0.8c-0.8-0.1-1.8,0.5-2.6,0.8c-2.1,0.7-4.5-1.5-5-3.9c-0.2-1.3-0.6,0.3-0.7,0.8
	c-0.1,0.8,0.1,1.7,0.3,2.4c0.3,0.9,0.6,2.1,0.3,3c-0.9,2.7-3.1,2.9-5.2,2.9c-1.9,0-3.8-1.3-4.7-3.4c-0.5-1.3-0.4-2.4-1.5-1.8
	c-0.8,0.4-1.8,0.3-2.5-0.1c-0.9-0.6-1.7-1.4-2.2-2.4l-0.2-0.6c-0.6-0.1-1.3,0-1.5,0.5c-0.7,1.5,0,1.5,0,3.1
	c-0.2,4.4-5.7,2.4-8.7,0.5c-0.6,0.1-1.2,0.1-1.8,0.1c0.4,1.6,0.6,3.3-0.7,4.4c-1.7,1.5-3.7,0.9-5.6,0c-1.7,2.1-4.3,0.8-6.1-1.4
	c-0.9,0.4-1.9,0.2-3-0.9l-0.6-0.9h-0.2c-0.8,0.8-2,1-3,0.8c-0.5-0.1-1.1-0.3-1.6-0.6c-1,0-1.9,0-2.9,0c-1.6,0-3.2,0-4.8,0.1
	c-0.6,0.2-1.4,0.2-2.3,0.1h-0.2l-0.8,0.1c-0.6,0.1-1.3,0.2-1.9,0.3l-0.9,0.1c-0.6,0.1-1.3,0.3-1.9,0.5l-0.8,0.2h-0.2
	c-0.2,0.4-0.4,0.9-0.8,1.2c-1.1,0.9-2.1,1-3.2,0.8c-1.5,1-2.9,2.2-3.9,3.8l-0.3,0.5c-4.1,6.5-5,16.4-5.6,24.1
	c-2,25.5-2.7,50.6,0.3,76.1c1.3,11.1,1.7,22.9,5.3,33.3c1.3,3.7,3,7.1,5.2,9.9h0.1l0.4,0.6c0.6,0.8,1.4,1.5,2.2,2.2
	c0.3-1,0.8-1.7,1.5-2.1c-0.5-1.2-1.1-2.4-1.7-3.5c-0.4-0.7,0.5-1.6,1-1l0.2,0.3c0.8-0.2,1.5,0.3,2.1,1.1c0.3-0.3,0.8-0.5,1.2,0
	c0.8,1.1,1.5,2.3,1.9,3.7l0.2-1.2c-0.6-1.8-2.8-4.8-0.6-5.9c0.4-0.2,1.1,0,1.5,0.4c0.4,0.5,0.8,1.1,1.1,1.7h0.1l1.1,0.4
	c1.3,1.7,1.8,3.7,1.7,5.8h0.1l0.4-0.7c-0.4-2.2-1.5-4.9-0.9-6.7c0.2-0.4,0.8-0.8,1.2-0.6c0.7,0.3,1.1,0.9,1.5,1.7
	c1.1,0,2.1,2.1,2.4,3.6h0.1l0.6,0.5c0.3-0.6,0.7-1.2,1.3-1.4s1.3,0.4,1.3,1.1c0.1,1.2-0.5,2.6-1.1,3.9v0.9c0.7-1.4,1.5-2.7,2.3-3.8
	c0.6-0.8,1.7,0.1,1.3,1.1c-1.1,2-2.4,3.8-3.5,5.8c0.5-0.3,0.9-0.7,1.4-1c0.8-1.1,1.7-1.9,2.9-2.2c0.4-0.1,0.8,0.3,1,0.8l0,0h0.6
	c0.6-0.5,1.1-1,1.7-1.2c1.1-0.3,2,0.9,1.5,2.1c-0.2,0.5-0.5,1-0.9,1.5l0.6-0.1h0.3c0.9-0.5,1.9-0.7,3-0.4c0.6,0.2,0.8,1,0.5,1.6
	c0.6-0.3,1.3,0,1.7,0.5l0.8,0.3l0.1,0.1h0.3c0.5,0.1,0.8,0.8,0.6,1.4c0.4-0.1,0.8-0.1,1.1-0.1l0.2-0.2c0.4-0.2,0.7,0.2,0.8,0.6
	l0.4,0.2c0.4,0.3,0.4,0.9,0.2,1.4v0.1c0.7-0.2,1.5-0.4,2.1-0.4c1,0,1.2,1.4,0.5,2l0,0c1.8-0.3,3.8-0.8,5.4-0.3
	c0.5,0.1,0.7,0.8,0.5,1.3c1.3,0.6,1.3,3.2-0.1,3.6c-3.6,1-7.1,0.6-10.7,0.1c-1.5,0.3-2.9,0.6-4.4,0.8c-2.3,0.6-4.7,0.7-7,0.8
	l-0.8-0.3c-0.5,0.2-0.9,0.5-1.4,0.8c-0.4,0.3-0.8-0.4-0.4-0.7c0.4-0.4,0.8-0.7,1.2-1v-0.9c-1.1,0.2-2.2,0.4-3.4,0.6
	c0.9,0,1.9-0.1,2.7-0.2c0.4,0,0.4,0.7,0,0.8c-4.8,1-9.8,0.8-14.7,1.5c-0.5,0-0.6-0.9-0.2-1.1c0.9-0.3,1.9-0.5,2.9-0.7
	c-0.4-0.5-0.6-1.3-0.3-1.9l-0.6,0.4l-0.7-0.2h-0.1c-0.3,1.4-2,1.2-2.1-0.3v-0.2l-0.4,0.2l-0.4,0.3l-0.6,0.8l-0.5,0.2l0,0l-1,0.4
	l-0.6,0.4c-0.9,0.5-1.9-0.5-2-1.6c-0.6,0.9-1.9,1.2-2.5,0l-0.1-0.2l-0.3,0.8c-0.6,0.8-1,0.8-1.9,1.1c-0.4,0.1-0.8-0.1-1.1-0.4l0,0
	c-0.9,1-2.1,1-3.3,0.5l-0.4,0.7l-0.4,1c-1.1,0.7-2.3,1.3-3.4,1.9c-1.2,0.6-2.5,1.4-3.8,1c-0.7-0.1-0.9-1.1-0.5-1.7l0.2-0.2
	c-0.3-0.2-0.5-0.7-0.4-1.1l0.1-0.2c-0.5,0.2-1.1,0.5-1.6,0.7c-1.6,0.7-3.1,1.3-4.8,1.1c-0.5,0-0.7-0.4-0.8-0.9
	c-1.1,0.1-2.1,0-2.8-0.2c-0.6-0.2-0.9-0.8-1-1.4h-0.6l0.6,0.6c0.4,0.4,0.3,1.1,0,1.5c-0.2,0.6-0.8,1-1.4,0.6l0,0l-0.2-0.2L794,722
	l0.3,0.3l-0.3,0.6c-1-0.7-2-1.5-2.8-2.4c-0.5,0-1.1-0.4-1.1-1.1v-0.1c-0.4,0.5-0.8,1-1.3,1.5c0.4,0.5,0.8,1,1.1,1.5s-0.4,1-0.7,0.5
	s-0.7-1-1.1-1.5l-0.4,0.3c-0.7,0.3-1.2-0.2-1.4-0.8h-0.4l-0.8-0.4l0.9,0.9l-0.4,0.7c-0.8-0.6-1.5-1.4-2.2-2.2l0,0
	c0.3,0.6,0.6,1.2,0.8,1.7c0.5,1.1-0.7,2-1.4,1.1c-0.4-0.6-0.8-1.4-1.1-2l-0.8-0.6l-0.7,0.1l0.3,0.3l0.5,0.3c0.4,0.3,0.2,1-0.3,1
	l-1-0.1c-1,0.3-2.2,0.1-3.1-0.5h-0.2c0.1,0.7-0.4,1.3-1,0.9l-0.6-0.2l-0.6,0.5c-1.4,0-3.6-0.2-4.8-1.4c-0.3,0.5-1,0.6-1.3,0l0,0
	c-0.7,0-1.4,0.1-2.1,0.1l-0.4,0.2l-0.2-0.2c-0.7,0-1.3,0-2,0l-0.1,0.4l0,0c-0.3,0.5-1,0.2-1.5-0.3h-1l0,0c0,1.2-1.2,2.1-2,1.2
	l-0.2-0.3l-0.2,0.4l-0.5-0.5l0.2-0.5l0,0c-0.6,0-1.1,0.2-1.7,0.2c-0.4,0.7-1.2,0.8-1.7,0.3l0,0c-0.4,0.1-0.8,0.1-1.3,0.2
	c-0.4,1.1-1.8,1.4-2.6,0.4c-0.7,0.1-1.4,0.2-2.1,0.3h-0.4h-0.2c-0.6,0-1.3,0-1.9,0h-0.6c-0.4,0.3-0.8,0.1-1.1-0.2
	c-0.5-0.1-1.1-0.2-1.6-0.4c0,0.7-0.2,1.3-0.8,1.8c-0.5,0.4-1.1-0.1-1.2-0.8c-0.1-0.7-0.3-1.4-0.6-1.9c-0.2-0.3-0.5-0.8-0.7-1.2
	l-0.4-0.4c0.4,1.2,0.4,2.3-1,2.6c-0.5,0.1-0.9-0.3-1.1-0.9l-0.2-0.3l-1-0.1l-0.4-0.5c-0.2,0.9-0.8,1.6-2,1.8c-1,0.1-1.3-1.3-0.8-2
	c0.4-0.6,0.4-1.3,0.2-2c0.1,0.5,0.1,1-0.1,1.5c-0.2,0.8-1.3,0.8-1.6,0.1l-0.2-0.4c-0.1,0.5-0.6,0.9-1.1,0.4l-0.4-0.5l-0.2,0.5
	c-0.3,0.4-0.9,0.2-1.1-0.3c-0.2-1-0.7-1.7-1.5-2.1c-0.4-0.2-0.2-1.1,0.2-0.9l0.6,0.2l-0.9-1.3c-0.4-0.4,0.2-1.1,0.6-0.7
	c1.1,1.2,2.5,2.2,3.4,3.6c-0.2-0.6-0.3-1.2-0.6-1.7l-0.4-0.6c-0.6,0-1.1-0.1-1.7-0.7v-1.1v-0.5l-0.2-0.2c-0.3-0.3,0-1,0.4-0.7
	l0.2,0.1h0.1l0.2-0.6h0.1l-0.1-0.1c-0.4-0.5-0.4-1.4,0.1-1.8c1.5-1.2,3.6,0.3,4.7,1.5c0.4,0.4,0.6,0.9,0.8,1.4l0,0
	c0.3,0.3,1,0.8,1.9,1.5l-0.1-0.2c-0.4-0.5-0.8-1-1.2-1.5v-0.7c-0.6-0.8-1.2-1.4-2.1-2c-0.4-0.3-0.4-1,0.1-1.2l0.9-0.2V709
	c-0.6-0.9,0.2-2,1.1-1.8c0.4,0,0.9,0.2,1.3,0.5c-0.4-0.4-0.4-1.4,0.1-1.7c0.8-0.6,1.6-0.5,2.2,0c-0.3-0.4-0.6-0.8-0.8-1.3l-0.1-0.5
	l-0.2-0.1c-0.4-0.2-0.4-1,0.1-1.2h0.4c0.3-0.5,0.8-0.8,1.4-0.7c1.7,0.3,3.2,2.1,4.5,3.7c1.6,0.8,2.8,2.3,3.7,4.1
	c0-0.6-0.1-1.3-0.1-1.8c-0.4-0.7-0.8-1.4-1.2-1.9c-0.8-1-1.9-1.3-2.7-2.2c-0.3-0.3-0.2-1.1,0.2-1.2c0.5-0.1,0.9,0,1.3,0.1
	c0.1-0.4,0.4-0.8,0.9-0.8c0.1-0.5,0.5-0.9,1-0.8c2.3,0.5,3.9,3.7,5.2,5.8c0.5,0.7,0.9,1.5,1.3,2.2l0.6,0.1c-0.1-0.4-0.2-0.9-0.4-1.3
	c-0.4-1.4-1.1-2.8-1.8-4c-0.8-1.4-2-1.8-3.1-2.8c-0.7-0.7-0.2-2.2,0.7-2.2c2.8,0,4.4,3,5.4,6.5c0.2-0.4,0.6-0.7,1-0.7
	c-1.3-3.1-3.1-5.2-5.1-7.8c-0.6-0.9,0-2.1,0.9-1.6c1.3,0.7,2.4,1.8,3.4,3.1l0,0c-0.4-0.5-0.6-1-0.8-1.8c-0.1-0.9,0.6-1.7,1.3-1.7
	c1.5,0,2.5,1.7,3.4,3l0.2-0.4c-0.6-0.9,0.2-2.2,1.1-1.6l0.8,0.7l0.7,0.6l0.4,0.3c0.8,0.2,1.5,0.8,2,1.4v-0.6c0-0.5,0.2-0.9,0.4-1.2
	v-1c0.5-1.6,2.3-1.4,3.2-0.5c0.8,0.8,1.3,2,1.6,3.2c0.1-0.5,0.1-1,0.2-1.5c0.2-1.1,1.2-1.3,1.8-0.8c0.2-0.4,0.7-0.7,1.2-0.4
	c1.1,0.8,1.7,1.8,2.1,2.9c6.4-5.8,12.2-13.2,15.5-21.8c4-10.5,2.7-22.2,1.6-33.4c-1.1-10.9-2.7-21.5-1.9-32.5
	c0.9-12.5,3.2-24.6,2.5-37.1c-0.4-6.7-1.1-13.3-2.4-19.8c-1.9,0.4-4.8-0.8-6.8-2c-0.6,0.1-1.2,0.1-1.8,0.1c0.4,1.6,0.6,3.3-0.7,4.4
	c-1.7,1.5-3.7,1-5.6,0c-1.7,2.1-4.3,0.8-6.1-1.4c-0.9,0.4-1.9,0.2-3-0.9c-0.9-0.9-1.3-2.1-1.7-3.3l-0.9-0.2
	c-0.4-0.1-0.8-0.3-1.3-0.6c-1-0.4-1.9-1.1-2.7-2.2c-1.3,0.4-2.5,0-3.7-0.8c-0.6-0.1-1.2-0.1-1.8-0.1c-1.6,0.2-3.1-0.7-4.5-2
	c-1.2,1.2-2.6,1.2-4.5,0.2c-1.1-0.5-1.9-1.4-2.9-2.2l-0.2-0.1l-0.5,0.1c-0.4,0.1-1.9,1.2-2.3,0.6c1.4,2.1,2.5,5.1,0.4,7.2
	c-1.3,1.4-3,1.2-4.7,1c-0.6,1.6-2,1.8-3.6,1.5l0,0h-0.1c-0.5-0.1-1.1-0.3-1.7-0.6c-2.2,3.6-6.8,5.5-10.3,4.4
	c-2.9-0.9-4.9-4.5-5.1-8.2l-0.4,0.3c-0.8,0.4-1.7,0.8-2.5,0.4l-0.7-0.4l-0.5-0.5h-0.1l-0.2-0.4l-0.2-0.3l-0.1-0.2l-0.2-0.6l0,0l0,0
	c-0.3-1.1,0.8-2.6,0-3.4l-0.1,0.1c-0.4,0.6-0.7,1.3-1.1,1.9c-1.4,2.5-3.4,4.9-5.7,3.9c-2.1,2-5.5,3.3-7.6,1.1
	c-1.4-1.5-1.9-3.5-1.3-5.7c0.4-1.5,0.8-1.7-0.7-1.7c-0.8,0-1.5-0.1-2.2-0.6c-0.9-0.6-1.1-2-0.5-3c0.6-1.1,2.6-2.8,1.7-3.9l-0.2,0.4
	c-1.5,2.8-3.8,3.6-6.3,4.4c-0.8,0.2-1.9-0.4-1.9-1.5c0-0.7,0.1-2-0.5-2.5c-0.4-0.3-1.7-1.4-2.2-0.9c-1.2,1.1-2.1,2.4-3.4,3.3
	c-2.2,1.5-5.4,2.9-7.9,1.4c-2.1-1.3-4.2-4.4-2.8-7.4c0.8-1.5,1.9-2.2,3.1-2.9c-0.9-1.4-1.6-2.8-0.9-5c0.6-2.1,2.3-2.9,4-3.4
	c-0.2-0.5-0.3-1-0.4-1.6c-0.1-1.1,0.3-2.3,0.8-3.2c0.6-1.2,1.4-1.6,2.2-1.9c-0.2-0.7-0.1-1.5,0.4-2.5c0.3-0.6,0.7-1.1,1.1-1.5
	l0.4-0.3c0.4-0.2,0.7-0.5,1.1-0.7l0.1-0.1l0,0c0.4-0.2,0.8-0.3,1.1-0.5l0,0c0.4-0.1,0.8-0.3,1.2-0.4c0.9-0.3,1.7-0.3,2.3-1.1
	l0.9-0.8c-3,0.2-5-2.1-4.8-5.7l0,0l0.1-1.3c-2-1.5-2.9-4.4-1.5-7l0.6-1.2c1-1.4,3.2-2.5,4.7-1.9c1.1,0.4,0.8,0.4,1.6-0.2
	c0-0.4,0.1-0.8,0.2-1.2l0.1-0.3l0.4-0.7l0.5-0.9h0.3l0.3-0.2l0.1-0.1c-1.1-0.2-1.9-1-2.4-2.1c-2.3-0.8-5.5-2.6-5.2-5.6
	c0.2-2.1,1.1-3.3,2.3-4c-1.5-1.9-2.5-4.1-1.6-6.4c0.3-0.7,0.6-1.3,1-1.7l0,0l0.1-0.1l1-0.8l0.2-0.1c0.7-0.3,1.4-0.5,2.2-0.6h0.2
	c0.4,0,0.8-0.1,1.2-0.1c0.5-1.9,2.1-2.8,4-3c-0.1-2.3,0.2-4.5,2.2-5.7c1.8-1.1,3.8-0.8,5.4,0.4c1.1-0.6,2.1-0.4,3.1,0.2l0.2-0.3
	c0.6-0.9,1.2-1.5,2.2-1.8l0.9-0.2l0.2-1.1l0.6-0.9c0-1.3,0.1-2.6,0.5-3.6c0.7-1.9,1.7-2.7,2.9-2.8c-1.3-2.4-1.7-5.2-0.5-7.7
	c0.8-1.7,0.7-3.8,1.7-5.5c1-1.9,2.3-1.3,3.6-0.9c0.1-1.3,0.4-2.4,0.9-3.4c-2.1-2-4-4.8-5-7.7c-0.3-0.9-0.4-1.7-0.5-2.5v-0.3
	c0-0.7,0.1-1.4,0.2-1.9l0.1-0.3c0.2-0.6,0.5-1.1,0.9-1.5l0.2-0.1c0.7-0.7,1.6-1.2,2.7-1.4c0.2-2.9,1.1-6.2,3.6-6.8
	c1.5-0.4,2.7,0.3,4,1.3c0.6,0.5,1.3,1.3,1.7,2.1c0.4-0.4,0.7-0.8,1-1.3c0.6-0.2,0.7-0.5,0.1-0.8c-0.6-0.7-1.3-1.3-1.7-2.1
	c-0.9-1.8-1.2-4-0.7-6c0.4-1.7,1.7-3,3.1-3.2s2.3,0.1,3.2,0.8c0.4-0.3,0.7-1,1.2-1.3c1-0.5,2-0.4,2.9,0.2c0.7,0.4,1.2,1.1,1.6,1.9
	c1.9-0.3,4.1,0.3,5.8,1.5l0.8-1.1c-0.4-1.3-0.1-2.7,1.3-3.5c0.7-0.4,1.5-0.7,2.2-1l0.9-0.4l-0.2-0.3l-0.5-1
	c-1.7,0.2-3.4,0.3-4.6-0.7c-2.1-1.7-2.6-3.9-2-6.3c-0.4-0.6-0.6-1.3-0.4-2.2c0.4-1.5,1.8-2.9,3.1-3.9c0-1.2,0.3-2.2,0.9-3.3l0.4-0.8
	v-0.2c-0.3-1-0.4-1.8-0.3-2.8c0.2-3.2,3.3-5,5.7-5.4c0.5-0.5,1.1-0.9,1.7-1.3l0,0l0,0c1.7-1.1,3.5-1.8,5.4-1.9c1,0,1.9,0.3,2.6,1.1
	l0.4-0.2c0.4-0.2,0.7-0.3,1.1-0.4c0.6-0.2,1.3,0,1.9,0.2c1.1,0.4,2.2,2.6,3,2.7c2.1,0.3,3.2-0.1,4.8-1.7c0.5-0.5,1-0.8,1.5-1
	c0.7-1.5,1.8-2.7,3.2-3.6c0.3-1.1,0.8-2,1.4-2.8c-0.1-0.7-0.1-1.3,0.2-1.8c0.2-0.5,0.5-0.9,0.8-1.2c-1.4-2.6-3.1-6.7-1.2-9.4
	c0.9-1.4,1.9-2.1,3.4-2.3c0.7-0.1,1.4,0,2.1,0.1c0.4,0,0.8,0.1,1.1,0l0,0c0.8-0.1,1.1-0.6,0.6-2c-0.7-2.3-0.5-5.9,2-6.5h1l0,0l0,0
	c1.7,0.1,3.4,1.6,4.8,2.8l0.9,0.7c0.1,0,0.4-0.4,0.7-0.9l0.3-0.4l0.4-0.3c1.2-0.1,2.1,0.2,3.1,1.1c1.4,1.2,3-1.3,4-2.2
	c1.1-1,2.5-1.2,3.8-1.1c1.1,0,2,1.3,2,2.5c0,1.4-0.3,2.8-0.4,4.1c0,0.6,0.6,1.2,1.3,1.6c2-0.7,4.2-0.3,5.5,1.5
	c0.7-1,1.5-1.8,2.3-2.8s1.8-0.8,2.8-0.3c4.7,2.6,5.9,12,4,18.3l1-0.4c1.5-0.7,3.2,0.8,3.2,2.7c0,0.5,0,0.8-0.1,1.2l0,0v0.3l1,0.3
	l0.5,0.2l0,0l1,0.6l0.5,0.2l0.5,0.1l-0.3-0.6c-0.5-0.8-1.1-1.5-1.4-2.4c-0.6-1.9-0.6-4.2,0.1-6.1c0.6-1.6,2-2.6,3.5-2.6
	c1.4,0,2.2,0.6,3.1,1.4c0.4-0.2,0.8-0.9,1.3-1c1.1-0.3,2,0,2.9,0.8c0.6,0.6,1.1,1.4,1.3,2.2c2.5,0.1,5.1,1.7,6.7,3.8
	c1.4,1.8,2,4,1.5,6.4l-0.5,1.1l-0.1,0.2l-1.1,1.1l-0.1,0.1l0,0l-0.1,0.1l0,0l0.4,0.5c0.4,0.5,0.7,1.2,0.9,1.8l0.2-0.1v0.1
	c0.8-0.6,1.5-0.8,2.5-0.6c0.6-2.6,2.5-4.3,5.2-3.9c3,0.4,4.1,3.4,4.5,6.5c2.8,1.5,4.8,4.9,3.8,8.6l-0.4,1l0.6,0.1l0,0h0.2
	c0.6,0.1,1.1,0.2,1.7,0.5c0.9,0.5,0.7-0.4,1.8-0.9c0.6-0.2,1.2-0.5,1.8-0.8l0.7-0.3l0,0l0.5-0.1c1.5-0.2,2.5-1.5,4-1.8
	c2.2-0.4,4.6,1,6.3,2.5s3,3.8,3.3,6.4c0.2,2.1-0.4,3.6-1.3,5c1,0.6,1.9,1.5,2.6,2.5c1.9-0.8,3.9-1,5.9-0.2c2.1,0.8,2.1,3.2,3,5.2
	c1.2,2.9,3.2,5.2,2.4,8.8l-0.2,0.5l0.1,0.4c0.4,1.4,0,2.4-0.6,3.5c-0.3,0.5-0.8,0.9-1.4,1.3h0.7c0.5,0,0.9,0,1.4,0h0.4l1,0.1h0.2
	h-0.5c0.8,0.1,1.5,0.4,2.2,0.9c1.1,0.8,1.6,2,1.8,3.3l0.4,0.1l0,0l0,0c0.5,0.1,1,0.4,1.5,0.7l0.1,0.1c0.4,0.3,0.8,0.7,1.1,1.1
	l0.1,0.1c0.3,0.4,0.5,0.9,0.6,1.5v0.1v0.2l0,0v0.1c0,0.4,0,0.9,0,1.5c2.1,2.4,2.4,6,0,7.2l0.3,0.5c0.3,0.6,0.7,2.2-0.2,2.7
	s-1.8,0.6-2.6,0.6c1.7,2.9,4.6,6.9,2.9,9.6l1,0.1c1.5-1.3,3.4-1.6,5.2-0.7c2,1,2.4,3.1,2.4,5.3c1.7,0.1,3.4,0.8,3.9,2.6
	c0.4,0,0.7,0,1.1,0h0.2c0.8,0,1.5,0.1,2.1,0.4l0.2,0.1l1,0.8l0.1,0.1l0,0c0.4,0.4,0.7,0.9,1,1.5c1,2.2,0,4.4-1.3,6.3
	c1.2,0.6,2.1,1.7,2.4,3.7c0.4,2.9-2.5,4.8-4.7,5.8c-0.4,1.1-1.2,1.9-2.2,2.2l0.1,0.1l0.4,0.3l0.2-0.1l0.6,0.8l0.4,0.6l0.1,0.3
	l0.2,1.2c0.8,0.6,0.6,0.6,1.6,0.1c1.4-0.6,3.6,0.2,4.6,1.5l0.6,1.1c1.4,2.4,0.7,5.2-1.2,6.8l0.2,1.2l0,0c0.3,3.5-1.5,5.9-4.5,5.8
	c0.5,0.4,0.9,0.9,1.2,1.5c0.6,1.4,0.8,2.5,0.4,4c-0.2,0.6-0.2,1-0.3,1.6l-0.2-0.2l0.2,0.3c0.4,0.6,0.8,1.2,1,1.8
	c0.4-0.3,0.9-0.4,1.5-0.3c0.1-1.7,0.7-3.4,2.3-3.8c0.9-0.2,1.9,0.2,2.6,0.9c0.7,0.7,1.5,0.6,2.4,0.8c0.4,0,0.8,0.1,1.2,0.2l0,0
	c0.4,0,0.8,0.1,1.2,0.3l0,0h0.2c0.4,0.1,0.7,0.3,1.1,0.5l0.4,0.2c0.5,0.3,0.9,0.7,1.3,1.3c0.5,0.9,0.7,1.6,0.6,2.4
	c0.9,0.2,1.7,0.5,2.4,1.6c0.6,0.9,1.1,1.9,1.1,3.1c0,0.6,0,1.1-0.2,1.6c1.7,0.2,3.5,0.8,4.3,2.8c0.9,2.1,0.4,3.5-0.4,5.1
	C942.8,520.3,943.9,520.9,944.9,521.8z M688.8,509.3l-0.1-0.8c-0.5,0.3-1.1,0.7-1.6,0.8c0.3,0.5,0.5,1.2,0.6,1.8h0.5l0.2-0.3
	l0.3-0.6L688.8,509.3z M737.5,714c-0.4-0.6-0.7-1.2-1.1-1.7l-0.4-0.4c0.3,0.6,0.5,1.3,0.7,1.9L737.5,714z M740.3,708
	c-0.5-0.4-1.1-0.9-1.6-1.4c0.4,0.5,0.7,1.2,1,1.7L740.3,708L740.3,708z M746.2,713.5l-0.6-0.6l0.4,0.7L746.2,713.5z M755.9,710.1
	c-0.4-0.6-0.7-1.2-1.1-1.7c0.1,0.6,0.2,1.3,0.4,1.9L755.9,710.1z M763.3,701.7l-0.4-0.8c0.2,0.4,0.2,0.9,0.4,1.4V701.7z
	 M800.7,434.4L800.7,434.4l0.4-0.1L800.7,434.4z M801.4,446l-0.6-0.6l-0.1,0.3l0.5,0.5L801.4,446z M855.9,711.8l0.2-0.1L855.9,711.8
	L855.9,711.8z M854.6,713.1l0.5-0.2l0.3-0.6L854.6,713.1z M858.9,454.7L858.9,454.7l-0.1,0.2L858.9,454.7z M879.2,432v-0.1
	c-0.2-0.6-0.2-0.7-0.2-0.3h-0.9C878.4,431.7,878.8,431.8,879.2,432z M885,450.4l-0.1-0.5L885,450.4z"/>
<path d="M518.9,518.3c1.8,2.7-0.1,6.1-2,7.7c-2.3,1.9-5.6,1-7.9-0.2c-1.3-0.7-2.4-1.9-3.7-2.8c-0.6-0.4-1.7,0.8-2.1,1.2
	c-0.6,0.5-0.3,1.8-0.2,2.6c0,1.1-0.9,1.9-1.7,1.7c-2.6-0.4-5-0.9-6.7-3.4l-0.2-0.4c-0.8,1.3,1.4,2.7,2.1,3.6c0.6,1,0.6,2.3-0.2,3.1
	c-0.7,0.6-1.3,0.9-2.2,1c-1.5,0.2-1.1,0.3-0.5,1.8c0.8,2,0.6,4.2-0.7,5.9c-1.9,2.5-5.3,1.7-7.7,0c-2.2,1.3-4.4-0.8-6.1-3.1
	c-0.4-0.6-0.8-1.2-1.2-1.7l-0.1-0.1c-0.7,0.9,0.6,2.2,0.4,3.3l-0.2,1v0.1l-0.3,0.7l-0.2,0.3l-0.3,0.4l-0.7,0.5
	c-0.8,0.5-1.7,0.2-2.5,0c-0.6-0.2-1.1-0.7-1.7-0.8c-0.8-0.1-1.8,0.5-2.6,0.8c-2.1,0.7-4.5-1.5-5-3.9c-0.2-1.3-0.6,0.3-0.7,0.8
	c-0.1,0.8,0.1,1.7,0.3,2.4c0.3,0.9,0.6,2.1,0.3,3c-0.9,2.7-3.1,2.9-5.2,2.9c-1.9,0-3.8-1.3-4.7-3.4c-0.5-1.3-0.4-2.4-1.5-1.8
	c-0.8,0.4-1.8,0.3-2.5-0.1c-0.9-0.6-1.7-1.4-2.2-2.4l-0.2-0.6c-0.6-0.1-1.3,0-1.5,0.5c-0.7,1.5,0,1.5,0,3.1
	c-0.2,4.4-5.7,2.4-8.7,0.5c-0.6,0.1-1.2,0.1-1.8,0.1c0.4,1.6,0.6,3.3-0.7,4.4c-1.7,1.5-3.7,0.9-5.6,0c-1.7,2.1-4.3,0.8-6.1-1.4
	c-0.9,0.4-1.9,0.2-3-0.9l-0.6-0.9h-0.2c-0.8,0.8-2,1-3,0.8c-0.5-0.1-1.1-0.3-1.6-0.6c-1,0-1.9,0-2.9,0c-1.6,0-3.2,0-4.8,0.1
	c-0.6,0.2-1.4,0.2-2.3,0.1h-0.2l-0.8,0.1c-0.6,0.1-1.3,0.2-1.9,0.3l-0.9,0.1c-0.6,0.1-1.3,0.3-1.9,0.5l-0.8,0.2h-0.2
	c-0.2,0.4-0.4,0.9-0.8,1.2c-1.1,0.9-2.1,1-3.2,0.8c-1.5,1-2.9,2.2-3.9,3.8l-0.3,0.5c-4.1,6.5-5,16.4-5.6,24.1
	c-2,25.5-2.7,50.6,0.3,76.1c1.3,11.1,1.7,22.9,5.3,33.3c1.3,3.7,3,7.1,5.2,9.9h0.1l0.4,0.6c0.6,0.8,1.4,1.5,2.2,2.2
	c0.3-1,0.8-1.7,1.5-2.1c-0.5-1.2-1.1-2.4-1.7-3.5c-0.4-0.7,0.5-1.6,1-1l0.2,0.3c0.8-0.2,1.5,0.3,2.1,1.1c0.3-0.3,0.8-0.5,1.2,0
	c0.8,1.1,1.5,2.3,1.9,3.7l0.2-1.2c-0.6-1.8-2.8-4.8-0.6-5.9c0.4-0.2,1.1,0,1.5,0.4c0.4,0.5,0.8,1.1,1.1,1.7h0.1l1.1,0.4
	c1.3,1.7,1.8,3.7,1.7,5.8h0.1l0.4-0.7c-0.4-2.2-1.5-4.9-0.9-6.7c0.2-0.4,0.8-0.8,1.2-0.6c0.7,0.3,1.1,0.9,1.5,1.7
	c1.1,0,2.1,2.1,2.4,3.6h0.1l0.6,0.5c0.3-0.6,0.7-1.2,1.3-1.4c0.6-0.2,1.3,0.4,1.3,1.1c0.1,1.2-0.5,2.6-1.1,3.9v0.9
	c0.7-1.4,1.5-2.7,2.3-3.8c0.6-0.8,1.7,0.1,1.3,1.1c-1.1,2-2.4,3.8-3.5,5.8c0.5-0.3,0.9-0.7,1.4-1c0.8-1.1,1.7-1.9,2.9-2.2
	c0.4-0.1,0.8,0.3,1,0.8l0,0h0.6c0.6-0.5,1.1-1,1.7-1.2c1.1-0.3,2,0.9,1.5,2.1c-0.2,0.5-0.5,1-0.9,1.5l0.6-0.1h0.3
	c0.9-0.5,1.9-0.7,3-0.4c0.6,0.2,0.8,1,0.5,1.6c0.6-0.3,1.3,0,1.7,0.5l0.8,0.3l0.1,0.1h0.3c0.5,0.1,0.8,0.8,0.6,1.4
	c0.4-0.1,0.8-0.1,1.1-0.1l0.2-0.2c0.4-0.2,0.7,0.2,0.8,0.6l0.4,0.2c0.4,0.3,0.4,0.9,0.2,1.4v0.1c0.7-0.2,1.5-0.4,2.1-0.4
	c1,0,1.2,1.4,0.5,2l0,0c1.8-0.3,3.8-0.8,5.4-0.3c0.5,0.1,0.7,0.8,0.5,1.3c1.3,0.6,1.3,3.2-0.1,3.6c-3.6,1-7.1,0.6-10.7,0.1
	c-1.5,0.3-2.9,0.6-4.4,0.8c-2.3,0.6-4.7,0.7-7,0.8l-0.8-0.3c-0.5,0.2-0.9,0.5-1.4,0.8c-0.4,0.3-0.8-0.4-0.4-0.7
	c0.4-0.4,0.8-0.7,1.2-1v-0.9c-1.1,0.2-2.2,0.4-3.4,0.6c0.9,0,1.9-0.1,2.7-0.2c0.4,0,0.4,0.7,0,0.8c-4.8,1-9.8,0.8-14.7,1.5
	c-0.5,0-0.6-0.9-0.2-1.1c0.9-0.3,1.9-0.5,2.9-0.7c-0.4-0.5-0.6-1.3-0.3-1.9l-0.6,0.4l-0.7-0.2h-0.1c-0.3,1.4-2,1.2-2.1-0.3v-0.2
	l-0.4,0.2l-0.4,0.3l-0.6,0.8l-0.5,0.2l0,0l-1,0.4l-0.8,0.5c-0.9,0.5-1.9-0.5-2-1.6c-0.6,0.9-1.9,1.2-2.5,0l-0.1-0.2l-0.3,0.8
	c-0.6,0.8-1,0.8-1.9,1.1c-0.4,0.1-0.8-0.1-1.1-0.4l0,0c-0.9,1-2.1,1-3.3,0.5l-0.4,0.7l-0.4,1c-1.1,0.7-2.3,1.3-3.4,1.9
	c-1.2,0.6-2.5,1.4-3.8,1c-0.7-0.1-0.9-1.1-0.5-1.7l0.2-0.2c-0.3-0.2-0.5-0.7-0.4-1.1l0.1-0.2c-0.5,0.2-1.1,0.5-1.6,0.7
	c-1.6,0.7-3.1,1.3-4.8,1.1c-0.5,0-0.7-0.4-0.8-0.9c-1.1,0.1-2.1,0-2.8-0.2c-0.6-0.2-0.9-0.8-1-1.4h-0.6l0.6,0.6
	c0.4,0.4,0.3,1.1,0,1.5c-0.2,0.6-0.8,1-1.4,0.6l0,0l-0.2-0.2l-0.1-0.1l0.3,0.3l-0.3,0.6c-1-0.7-2-1.5-2.8-2.4
	c-0.5,0-1.1-0.4-1.1-1.1v-0.1c-0.4,0.5-0.8,1-1.3,1.5c0.4,0.5,0.8,1,1.1,1.5c0.3,0.5-0.4,1-0.7,0.5c-0.3-0.5-0.7-1-1.1-1.5l-0.4,0.3
	c-0.7,0.3-1.2-0.2-1.4-0.8h-0.4l-0.8-0.4l0.9,0.9l-0.4,0.7c-0.8-0.6-1.5-1.4-2.2-2.2l0,0c0.3,0.6,0.6,1.2,0.8,1.7
	c0.5,1.1-0.7,2-1.4,1.1c-0.4-0.6-0.8-1.4-1.1-2l-0.8-0.6l-0.7,0.1l0.3,0.3l0.5,0.3c0.4,0.3,0.2,1-0.3,1l-1-0.1
	c-1,0.3-2.2,0.1-3.1-0.5h-0.2c0.1,0.7-0.4,1.3-1,0.9l-0.6-0.2l-0.6,0.5c-1.4,0-3.6-0.2-4.8-1.4c-0.3,0.5-1,0.6-1.3,0l0,0
	c-0.7,0-1.4,0.1-2.1,0.1l-0.4,0.2l-0.2-0.2c-0.7,0-1.3,0-2,0l-0.1,0.4l0,0c-0.3,0.5-1,0.2-1.5-0.3h-1l0,0c0,1.2-1.2,2.1-2,1.2
	l-0.2-0.3l-0.2,0.4l-0.5-0.5l0.2-0.5l0,0c-0.6,0-1.1,0.2-1.7,0.2c-0.4,0.7-1.2,0.8-1.7,0.3l0,0c-0.4,0.1-0.8,0.1-1.3,0.2
	c-0.4,1.1-1.8,1.4-2.6,0.4c-0.7,0.1-1.4,0.2-2.1,0.3h-0.4h-0.2c-0.6,0-1.3,0-1.9,0h-0.6c-0.4,0.3-0.8,0.1-1.1-0.2
	c-0.5-0.1-1.1-0.2-1.6-0.4c0,0.7-0.2,1.3-0.8,1.8c-0.5,0.4-1.1-0.1-1.2-0.8s-0.3-1.4-0.6-1.9c-0.2-0.3-0.5-0.8-0.7-1.2l-0.4-0.4
	c0.4,1.2,0.4,2.3-1,2.6c-0.5,0.1-0.9-0.3-1.1-0.9l-0.2-0.3l-1-0.1l-0.4-0.5c-0.2,0.9-0.8,1.6-2,1.8c-1,0.1-1.3-1.3-0.8-2
	c0.4-0.6,0.4-1.3,0.2-2c0.1,0.5,0.1,1-0.1,1.5c-0.2,0.8-1.3,0.8-1.6,0.1l-0.2-0.4c-0.1,0.5-0.6,0.9-1.1,0.4l-0.4-0.5l-0.2,0.5
	c-0.3,0.4-0.9,0.2-1.1-0.3c-0.2-1-0.7-1.7-1.5-2.1c-0.4-0.2-0.2-1.1,0.2-0.9l0.6,0.2l-0.9-1.3c-0.4-0.4,0.2-1.1,0.6-0.7
	c1.1,1.2,2.5,2.2,3.4,3.6c-0.2-0.6-0.3-1.2-0.6-1.7l-0.4-0.6c-0.6,0-1.1-0.1-1.7-0.7v-1.1v-0.5l-0.2-0.2c-0.3-0.3,0-1,0.4-0.7
	l0.2,0.1h0.1l0.2-0.6h0.1l-0.1-0.1c-0.4-0.5-0.4-1.4,0.1-1.8c1.5-1.2,3.6,0.3,4.7,1.5c0.4,0.4,0.6,0.9,0.8,1.4l0,0
	c0.3,0.3,1,0.8,1.9,1.5l-0.1-0.2c-0.4-0.5-0.8-1-1.2-1.5v-0.7c-0.6-0.8-1.2-1.4-2.1-2c-0.4-0.3-0.4-1,0.1-1.2l0.9-0.2v-0.1
	c-0.6-0.9,0.2-2,1.1-1.8c0.4,0,0.9,0.2,1.3,0.5c-0.4-0.4-0.4-1.4,0.1-1.7c0.8-0.6,1.6-0.5,2.2,0c-0.3-0.4-0.6-0.8-0.8-1.3l-0.1-0.5
	l-0.2-0.1c-0.4-0.2-0.4-1,0.1-1.2h0.4c0.3-0.5,0.8-0.8,1.4-0.7c1.7,0.3,3.2,2.1,4.5,3.7c1.6,0.8,2.8,2.3,3.7,4.1
	c0-0.6-0.1-1.3-0.1-1.8c-0.4-0.7-0.8-1.4-1.2-1.9c-0.8-1-1.9-1.3-2.7-2.2c-0.3-0.3-0.2-1.1,0.2-1.2s0.9,0,1.3,0.1
	c0.1-0.4,0.4-0.8,0.9-0.8c0.1-0.5,0.5-0.9,1-0.8c2.3,0.5,3.9,3.7,5.2,5.8c0.5,0.7,0.9,1.5,1.3,2.2l0.6,0.1c-0.1-0.4-0.2-0.9-0.4-1.3
	c-0.4-1.4-1.1-2.8-1.8-4c-0.8-1.4-2-1.8-3.1-2.8c-0.7-0.7-0.2-2.2,0.7-2.2c2.8,0,4.4,3,5.4,6.5c0.2-0.4,0.6-0.7,1-0.7
	c-1.3-3.1-3.1-5.2-5.1-7.8c-0.6-0.9,0-2.1,0.9-1.6c1.3,0.7,2.4,1.8,3.4,3.1l0,0c-0.4-0.5-0.6-1-0.8-1.8c-0.1-0.9,0.6-1.7,1.3-1.7
	c1.5,0,2.5,1.7,3.4,3l0.2-0.4c-0.6-0.9,0.2-2.2,1.1-1.6l0.8,0.7l0.7,0.6l0.4,0.3c0.8,0.2,1.5,0.8,2,1.4v-0.6c0-0.5,0.2-0.9,0.4-1.2
	v-1c0.5-1.6,2.3-1.4,3.2-0.5c0.8,0.8,1.3,2,1.6,3.2c0.1-0.5,0.1-1,0.2-1.5c0.2-1.1,1.2-1.3,1.8-0.8c0.2-0.4,0.7-0.7,1.2-0.4
	c1.1,0.8,1.7,1.8,2.1,2.9c6.4-5.8,12.2-13.2,15.5-21.8c4-10.5,2.7-22.2,1.6-33.4c-1.1-10.9-2.7-21.5-1.9-32.5
	c0.9-12.5,3.2-24.6,2.5-37.1c-0.4-6.7-1.1-13.3-2.4-19.8c-1.9,0.4-4.8-0.8-6.8-2c-0.6,0.1-1.2,0.1-1.8,0.1c0.4,1.6,0.6,3.3-0.7,4.4
	c-1.7,1.5-3.7,1-5.6,0c-1.7,2.1-4.3,0.8-6.1-1.4c-0.9,0.4-1.9,0.2-3-0.9c-0.9-0.9-1.3-2.1-1.7-3.3L337,548c-0.4-0.1-0.8-0.3-1.3-0.6
	c-1-0.4-1.9-1.1-2.7-2.2c-1.3,0.4-2.5,0-3.7-0.8c-0.6-0.1-1.2-0.1-1.8-0.1c-1.6,0.2-3.1-0.7-4.5-2c-1.2,1.2-2.6,1.2-4.5,0.2
	c-1.1-0.5-1.9-1.4-2.9-2.2l-0.2-0.1l-0.5,0.1c-0.4,0.1-1.9,1.2-2.3,0.6c1.4,2.1,2.5,5.1,0.4,7.2c-1.3,1.4-3,1.2-4.7,1
	c-0.6,1.6-2,1.8-3.6,1.5l0,0h-0.1c-0.5-0.1-1.1-0.3-1.7-0.6c-2.2,3.6-6.8,5.5-10.3,4.4c-2.9-0.9-4.9-4.5-5.1-8.2l-0.4,0.3
	c-0.8,0.4-1.7,0.8-2.5,0.4l-0.7-0.4l-0.5-0.5h-0.1l-0.2-0.4l-0.2-0.3l-0.1-0.2l-0.2-0.6l0,0l0,0c-0.3-1.1,0.8-2.6,0-3.4l-0.1,0.1
	c-0.4,0.6-0.7,1.3-1.1,1.9c-1.4,2.5-3.4,4.9-5.7,3.9c-2.1,2-5.5,3.3-7.6,1.1c-1.4-1.5-1.9-3.5-1.3-5.7c0.4-1.5,0.8-1.7-0.7-1.7
	c-0.8,0-1.5-0.1-2.2-0.6c-0.9-0.6-1.1-2-0.5-3c0.6-1.1,2.6-2.8,1.7-3.9l-0.2,0.4c-1.5,2.8-3.8,3.6-6.3,4.4c-0.8,0.2-1.9-0.4-1.9-1.5
	c0-0.7,0.1-2-0.5-2.5c-0.4-0.3-1.7-1.4-2.2-0.9c-1.2,1.1-2.1,2.4-3.4,3.3c-2.2,1.5-5.4,2.9-7.9,1.4c-2.1-1.3-4.2-4.4-2.8-7.4
	c0.8-1.5,1.9-2.2,3.1-2.9c-0.9-1.4-1.6-2.8-0.9-5c0.6-2.1,2.3-2.9,4-3.4c-0.2-0.5-0.3-1-0.4-1.6c-0.1-1.1,0.3-2.3,0.8-3.2
	c0.6-1.2,1.4-1.6,2.2-1.9c-0.2-0.7-0.1-1.5,0.4-2.5c0.3-0.6,0.7-1.1,1.1-1.5l0.4-0.3c0.4-0.2,0.7-0.5,1.1-0.7l0.1-0.1l0,0
	c0.4-0.2,0.8-0.3,1.1-0.5l0,0c0.4-0.1,0.8-0.3,1.2-0.4c0.9-0.3,1.7-0.3,2.3-1.1l0.9-0.8c-3,0.2-5-2.1-4.8-5.7l0,0l0.1-1.3
	c-2-1.5-2.9-4.4-1.5-7l0.6-1.2c1-1.4,3.2-2.5,4.7-1.9c1.1,0.4,0.8,0.4,1.6-0.2c0-0.4,0.1-0.8,0.2-1.2l0.1-0.3l0.4-0.7l0.5-0.9h0.3
	l0.3-0.2l0.1-0.1c-1.1-0.2-1.9-1-2.4-2.1c-2.3-0.8-5.5-2.6-5.2-5.6c0.2-2.1,1.1-3.3,2.3-4c-1.5-1.9-2.5-4.1-1.6-6.4
	c0.3-0.7,0.6-1.3,1-1.7l0,0l0.1-0.1l1-0.8l0.2-0.1c0.7-0.3,1.4-0.5,2.2-0.6h0.2c0.4,0,0.8-0.1,1.2-0.1c0.5-1.9,2.1-2.8,4-3
	c-0.1-2.3,0.2-4.5,2.2-5.7c1.8-1.1,3.8-0.8,5.4,0.4c1.1-0.6,2.1-0.4,3.1,0.2l0.2-0.3c0.6-0.9,1.2-1.5,2.2-1.8l0.9-0.2l0.2-1.1
	l0.6-0.9c0-1.3,0.1-2.6,0.5-3.6c0.7-1.9,1.7-2.7,2.9-2.8c-1.3-2.4-1.7-5.2-0.5-7.7c0.8-1.7,0.7-3.8,1.7-5.5c1-1.9,2.3-1.3,3.6-0.9
	c0.1-1.3,0.4-2.4,0.9-3.4c-2.1-2-4-4.8-5-7.7c-0.3-0.9-0.4-1.7-0.5-2.5v-0.3c0-0.7,0.1-1.4,0.2-1.9l0.1-0.3c0.2-0.6,0.5-1.1,0.9-1.5
	l0.2-0.1c0.7-0.7,1.6-1.2,2.7-1.4c0.2-2.9,1.1-6.2,3.6-6.8c1.5-0.4,2.7,0.3,4,1.3c0.6,0.5,1.3,1.3,1.7,2.1c0.4-0.4,0.7-0.8,1-1.3
	c0.6-0.2,0.7-0.5,0.1-0.8c-0.6-0.7-1.3-1.3-1.7-2.1c-0.9-1.8-1.2-4-0.7-6c0.4-1.7,1.7-3,3.1-3.2c1.5-0.2,2.3,0.1,3.2,0.8
	c0.4-0.3,0.7-1,1.2-1.3c1-0.5,2-0.4,2.9,0.2c0.7,0.4,1.2,1.1,1.6,1.9c1.9-0.3,4.1,0.3,5.8,1.5l0.8-1.1c-0.4-1.3-0.1-2.7,1.3-3.5
	c0.7-0.4,1.5-0.7,2.2-1l0.9-0.4l-0.2-0.3l-0.5-1c-1.7,0.2-3.4,0.3-4.6-0.7c-2.1-1.7-2.6-3.9-2-6.3c-0.4-0.6-0.6-1.3-0.4-2.2
	c0.4-1.5,1.8-2.9,3.1-3.9c0-1.2,0.3-2.2,0.9-3.3l0.4-0.8v-0.2c-0.3-1-0.4-1.8-0.3-2.8c0.2-3.2,3.3-5,5.7-5.4
	c0.5-0.5,1.1-0.9,1.7-1.3l0,0l0,0c1.7-1.1,3.5-1.8,5.4-1.9c1,0,1.9,0.3,2.6,1.1l0.4-0.2c0.4-0.2,0.7-0.3,1.1-0.4
	c0.6-0.2,1.3,0,1.9,0.2c1.1,0.4,2.2,2.6,3,2.7c2.1,0.3,3.2-0.1,4.8-1.7c0.5-0.5,1-0.8,1.5-1c0.7-1.5,1.8-2.7,3.2-3.6
	c0.3-1.1,0.8-2,1.4-2.8c-0.1-0.7-0.1-1.3,0.2-1.8c0.2-0.5,0.5-0.9,0.8-1.2c-1.4-2.6-3.1-6.7-1.2-9.4c0.9-1.4,1.9-2.1,3.4-2.3
	c0.7-0.1,1.4,0,2.1,0.1c0.4,0,0.8,0.1,1.1,0l0,0c0.8-0.1,1.1-0.6,0.6-2c-0.7-2.3-0.5-5.9,2-6.5h1l0,0l0,0c1.7,0.1,3.4,1.6,4.8,2.8
	l0.9,0.7c0.1,0,0.4-0.4,0.7-0.9l0.3-0.4l0.4-0.3c1.2-0.1,2.1,0.2,3.1,1.1c1.4,1.2,3-1.3,4-2.2c1.1-1,2.5-1.2,3.8-1.1
	c1.1,0,2,1.3,2,2.5c0,1.4-0.3,2.8-0.4,4.1c0,0.6,0.6,1.2,1.3,1.6c2-0.7,4.2-0.3,5.5,1.5c0.7-1,1.5-1.8,2.3-2.8s1.8-0.8,2.8-0.3
	c4.7,2.6,5.9,12,4,18.3l1-0.4c1.5-0.7,3.2,0.8,3.2,2.7c0,0.5,0,0.8-0.1,1.2l0,0v0.3l1,0.3l0.5,0.2l0,0l1,0.6l0.5,0.2l0.5,0.1
	l-0.3-0.6c-0.5-0.8-1.1-1.5-1.4-2.4c-0.6-1.9-0.6-4.2,0.1-6.1c0.6-1.6,2-2.6,3.5-2.6c1.4,0,2.2,0.6,3.1,1.4c0.4-0.2,0.8-0.9,1.3-1
	c1.1-0.3,2,0,2.9,0.8c0.6,0.6,1.1,1.4,1.3,2.2c2.5,0.1,5.1,1.7,6.7,3.8c1.4,1.8,2,4,1.5,6.4l-0.5,1.1l-0.1,0.2l-1.1,1.1l-0.1,0.1
	l0,0l-0.1,0.1l0,0l0.4,0.5c0.4,0.5,0.7,1.2,0.9,1.8l0.2-0.1v0.1c0.8-0.6,1.5-0.8,2.5-0.6c0.6-2.6,2.5-4.3,5.2-3.9
	c3,0.4,4.1,3.4,4.5,6.5c2.8,1.5,4.8,4.9,3.8,8.6l-0.4,1l0.6,0.1l0,0h0.2c0.6,0.1,1.1,0.2,1.7,0.5c0.9,0.5,0.7-0.4,1.8-0.9
	c0.6-0.2,1.2-0.5,1.8-0.8l0.7-0.3l0,0l0.5-0.1c1.5-0.2,2.5-1.5,4-1.8c2.2-0.4,4.6,1,6.3,2.5c1.7,1.5,3,3.8,3.3,6.4
	c0.2,2.1-0.4,3.6-1.3,5c1,0.6,1.9,1.5,2.6,2.5c1.9-0.8,3.9-1,5.9-0.2c2.1,0.8,2.1,3.2,3,5.2c1.2,2.9,3.2,5.2,2.4,8.8l-0.2,0.5
	l0.1,0.4c0.4,1.4,0,2.4-0.6,3.5c-0.3,0.5-0.8,0.9-1.4,1.3h0.7c0.5,0,0.9,0,1.4,0h0.4l1,0.1h0.2h-0.3c0.8,0.1,1.5,0.4,2.2,0.9
	c1.1,0.8,1.6,2,1.8,3.3l0.4,0.1l0,0l0,0c0.5,0.1,1,0.4,1.5,0.7l0.1,0.1c0.4,0.3,0.8,0.7,1.1,1.1l0.1,0.1c0.3,0.4,0.5,0.9,0.6,1.5
	v0.1v0.2l0,0v0.1c0,0.4,0,0.9,0,1.5c2.1,2.4,2.4,6,0,7.2l0.3,0.5c0.3,0.6,0.7,2.2-0.2,2.7c-0.9,0.5-1.8,0.6-2.6,0.6
	c1.7,2.9,4.6,6.9,2.9,9.6l1,0.1c1.5-1.3,3.4-1.6,5.2-0.7c2,1,2.4,3.1,2.4,5.3c1.7,0.1,3.4,0.8,3.9,2.6c0.4,0,0.7,0,1.1,0h0.2
	c0.8,0,1.5,0.1,2.1,0.4l0.2,0.1l1,0.8l0.1,0.1l0,0c0.4,0.4,0.7,0.9,1,1.5c1,2.2,0,4.4-1.3,6.3c1.2,0.6,2.1,1.7,2.4,3.7
	c0.4,2.9-2.5,4.8-4.7,5.8c-0.4,1.1-1.2,1.9-2.2,2.2l0.1,0.1l0.4,0.3l0.2-0.1l0.6,0.8l0.4,0.6l0.1,0.3l0.2,1.2
	c0.8,0.6,0.6,0.6,1.6,0.1c1.4-0.6,3.6,0.2,4.6,1.5l0.6,1.1c1.4,2.4,0.7,5.2-1.2,6.8l0.2,1.2l0,0c0.3,3.5-1.5,5.9-4.5,5.8
	c0.5,0.4,0.9,0.9,1.2,1.5c0.6,1.4,0.8,2.5,0.4,4c-0.2,0.6-0.2,1-0.3,1.6l-0.2-0.2l0.2,0.3c0.4,0.6,0.8,1.2,1,1.8
	c0.4-0.3,0.9-0.4,1.5-0.3c0.1-1.7,0.7-3.4,2.3-3.8c0.9-0.2,1.9,0.2,2.6,0.9c0.7,0.7,1.5,0.6,2.4,0.8c0.4,0,0.8,0.1,1.2,0.2l0,0
	c0.4,0,0.8,0.1,1.2,0.3l0,0h0.2c0.4,0.1,0.7,0.3,1.1,0.5l0.4,0.2c0.5,0.3,0.9,0.7,1.3,1.3c0.5,0.9,0.7,1.6,0.6,2.4
	c0.9,0.2,1.7,0.5,2.4,1.6c0.6,0.9,1.1,1.9,1.1,3.1c0,0.6,0,1.1-0.2,1.6c1.7,0.2,3.5,0.8,4.3,2.8c0.9,2.1,0.4,3.5-0.4,5.1
	C516.7,516.8,517.9,517.3,518.9,518.3z M262.7,505.7l-0.1-0.8c-0.5,0.3-1.1,0.7-1.6,0.8c0.3,0.5,0.5,1.2,0.6,1.8h0.5l0.2-0.3
	l0.3-0.6L262.7,505.7z M311.4,710.5c-0.4-0.6-0.7-1.2-1.1-1.7l-0.4-0.4c0.3,0.6,0.5,1.3,0.7,1.9L311.4,710.5z M314.3,704.5
	c-0.5-0.4-1.1-0.9-1.6-1.4c0.4,0.5,0.7,1.2,1,1.7L314.3,704.5L314.3,704.5z M320.2,710l-0.6-0.6l0.4,0.7L320.2,710z M329.9,706.6
	c-0.4-0.6-0.7-1.2-1.1-1.7c0.1,0.6,0.2,1.3,0.4,1.9L329.9,706.6z M337.2,698.2l-0.4-0.8c0.2,0.4,0.2,0.9,0.4,1.4V698.2z
	 M374.7,430.8L374.7,430.8l0.4-0.1L374.7,430.8z M375.4,442.5l-0.6-0.6l-0.1,0.3l0.5,0.5L375.4,442.5z M429.8,708.2l0.2-0.1
	L429.8,708.2L429.8,708.2z M428.6,709.5l0.5-0.2l0.3-0.6L428.6,709.5z M432.9,451.2h-0.1v0.2L432.9,451.2z M453.1,428.5v-0.1
	c-0.2-0.6-0.2-0.7-0.2-0.3H452C452.4,428.1,452.7,428.3,453.1,428.5z M458.9,446.9l-0.1-0.5L458.9,446.9z"/>
<polyline points="91.8,732.8 -17.8,747.1 -17.8,909.7 -17.8,968.7 327.4,968.7 "/>
<rect x="236.7" y="892.6" width="124.1" height="76.1"/>
</svg>
