<?xml version="1.0" encoding="utf-8"?>
<!-- Generator: Adobe Illustrator 27.7.0, SVG Export Plug-In . SVG Version: 6.00 Build 0)  -->
<svg version="1.1" id="Layer_1" xmlns="http://www.w3.org/2000/svg" xmlns:xlink="http://www.w3.org/1999/xlink" x="0px" y="0px"
	 viewBox="0 0 1610 966" style="enable-background:new 0 0 1610 966;" xml:space="preserve">
<style type="text/css">
	.st0{fill:#606060;}
</style>
<path class="st0" d="M846.4,415.2c1.5-1.7,4.7-2.8,6.8-1.9c1.5,0.6,1.2,0.5,2.3-0.2l0.2-1l0.1-0.4l0.4-0.8l0.2-0.3l0.1-0.1
	c0.3-0.4,0.6-0.8,1-1.2l0.2,0.1l0.6-0.4l0.1-0.1c-1.5-0.4-2.6-1.5-3.3-2.9c-3.2-1.2-7.5-3.7-6.9-7.5c0.4-2.6,1.8-4.1,3.5-4.8
	c-1.9-2.5-3.3-5.4-1.8-8.2c0.5-0.9,0.9-1.5,1.5-2.1l0,0l0,0l0.2-0.2l0,0l0,0c0.4-0.4,0.9-0.6,1.3-0.8l0.3-0.1c0.9-0.4,2-0.5,3.1-0.5
	h0.4c0.5,0,1,0,1.6,0c0.2-0.7,0.6-1.1,1-1.6h-0.1c-4.4-3.5,0.5-9.4,3.3-13.7c-1.3,0-2.5-0.2-3.9-0.8c-1.2-0.6-0.7-2.6-0.2-3.5
	l0.4-0.7c-3.6-1.6-3.1-6.4,0-9.5c-0.1-0.4-0.1-0.9-0.1-1.3l0.1-0.5V350v-0.2l0,0l0.1-0.4l0.2-0.5l0.2-0.6l0.3-0.5l0.4-0.5l0.4-0.4
	l0.4-0.4l0.5-0.4l0.5-0.3l0.7-0.4l0.5-0.2l0.7-0.3l0.2-0.1l0,0l0.6-0.1c0.2-1.7,1-3.3,2.6-4.4c1-0.7,2.1-1,3.3-1.2l0,0h0.2
	c0.6-0.1,1.2-0.1,1.8-0.2h0.3c0.7,0,1.4,0,2.1,0h1.1c-0.8-0.5-1.6-1-2-1.7c-0.9-1.5-1.4-2.9-0.9-4.6l0.2-0.6l-0.4-0.7
	c-1.2-4.6,1.8-7.7,3.5-11.5c1.2-2.6,1.2-5.8,4.3-6.9c3-1,6-0.7,8.8,0.4c1-1.4,2.4-2.5,3.8-3.3c-1.2-1.9-2.3-3.9-1.9-6.6
	c0.5-3.4,2.2-6.4,4.8-8.5c2.5-2,6-3.8,9.2-3.3c2.2,0.4,3.6,2.2,5.8,2.4l0.7,0.2v-0.1c0.4,0.1,0.7,0.2,1.1,0.4c0.9,0.3,1.7,0.7,2.6,1
	c1.5,0.5,1.2,1.8,2.6,1.2c0.8-0.4,1.6-0.6,2.4-0.7l0.2-0.1l0,0l0.9-0.2c-0.2-0.4-0.4-0.8-0.6-1.3c-1.5-4.9,1.5-9.4,5.6-11.3
	c0.6-4.1,2.2-8,6.7-8.5c3.9-0.5,6.8,1.7,7.6,5.1c1.4-0.3,2.5-0.1,3.6,0.7l0,0l0.3,0.2c0.2-0.9,0.8-1.8,1.3-2.4l0.7-0.7l-0.2-0.1l0,0
	l-0.2-0.1L946,277l0,0l0,0l-0.5-0.4l-0.4-0.4l-0.3-0.3l-0.4-0.5l-0.2-0.3l-0.4-0.9c-0.7-3.1,0.2-6,2.2-8.4c2.4-2.8,6.2-4.9,9.9-5.1
	c0.5-1.1,1-2.1,1.9-2.8c1.3-1.1,2.6-1.4,4.2-1c0.8,0.2,1.3,1,1.9,1.3c1.3-1.1,2.4-1.8,4.5-1.8s4.2,1.3,5.1,3.4
	c1.1,2.5,1.1,5.5,0.2,8c-0.5,1.2-1.3,2.2-2,3.1c-0.8,0.6-0.7,1,0.3,1.1c0.5,0.6,1,1.1,1.7,1.4l0.2-0.4c0.2-1.5,1.2-2.6,2.4-3.1
	c0.9-0.8,2-1.5,3.1-1.9c-1.7-8.1,0.3-18.5,6.6-21.5c1.5-0.7,2.9-0.8,4.2,0.4c1.2,1.2,2.4,2.4,3.4,3.6c1.9-2.4,5.2-3,8.1-2
	c1-0.6,1.9-1.3,1.9-2.2c-0.2-1.8-0.6-3.6-0.6-5.4c0-1.7,1.4-3.2,2.9-3.3c1.9,0,3.9,0.1,5.5,1.5c1.5,1.2,3.8,4.5,5.9,2.9
	c1.4-1.1,2.8-1.6,4.6-1.4l0.7,0.4l0.2,0.3c0.5,0.7,1,1.5,1.2,1.4c0.5-0.3,0.9-0.6,1.5-0.9l0.7-0.5l1.1-0.7l0,0
	c1.7-1.1,3.5-2.2,5.3-2.4l0,0l0,0c0.5,0,1,0,1.4,0.1c3.7,0.8,4,5.5,2.9,8.5c-0.6,1.8-0.3,2.5,1,2.6c0.4,0,0.9,0,1.6,0
	c1-0.1,2.1-0.3,3.1-0.1c2.2,0.2,3.7,1.2,5,3c1.7,2.2,1.4,5.1,0.4,7.8c1.3-0.1,2.6,0.1,3.8,0.6c2.3,0.9,4,2.1,4.7,4
	c1.2-0.4,2.6,0,4,1.3c2.4,2,4,2.6,7.1,2.2c1.1-0.1,2.8-2.9,4.4-3.5c0.9-0.3,1.8-0.5,2.7-0.3c0.6,0.1,1.1,0.3,1.7,0.5l0.6,0.2
	c1-1,2.3-1.5,3.8-1.4c2.9,0.1,5.5,1.1,8,2.5l0,0h0.1c0.9,0.5,1.7,1.1,2.5,1.7c3.5,0.5,8.2,2.9,8.4,7.1c0.1,1.3-0.1,2.4-0.5,3.7v0.4
	l0.6,1c0.9,1.5,1.3,2.9,1.3,4.4c1.9,1.2,3.9,3,4.5,5.1c0.4,1.2,0.1,2.2-0.5,3c0.9,3.1,0.2,6-2.9,8.3c-1.8,1.3-4.4,1.2-6.9,0.9
	c-0.2,0.4-0.4,0.9-0.7,1.3l-0.4,0.5c0.5,0.2,0.9,0.4,1.4,0.6c1.1,0.4,2.3,0.7,3.3,1.3c2.1,1.2,2.5,3,1.9,4.6
	c0.5,0.4,0.9,0.9,1.3,1.5c2.5-1.5,5.7-2.4,8.5-2c0.6-1,1.3-1.9,2.4-2.5c1.4-0.8,2.8-1,4.3-0.3c0.7,0.3,1.2,1.2,1.7,1.6
	c1.4-0.8,2.6-1.4,4.7-1.1s4,2,4.6,4.2c0.7,2.6,0.3,5.6-1,8c-0.6,1.1-1.6,1.9-2.4,2.8c-0.9,0.5-0.8,0.8,0.2,1.1
	c0.4,0.7,0.9,1.2,1.4,1.7c0.6-1.1,1.6-2.1,2.6-2.7c1.8-1.2,3.7-2.2,5.9-1.7c3.7,0.8,5,5.2,5.4,9c0.8,0.1,1.5,0.4,2.2,0.7l0.9,0.4
	l0.5,0.4l0.6,0.5l0.5,0.5l0.5,0.6l0.3,0.6l0.2,0.7l0.2,0.7l0.1,0.9v0.7l-0.1,1.1l-0.1,0.7c-0.1,0.6-0.3,1.3-0.6,1.9
	c-1.5,3.8-4.2,7.4-7.4,10.1c0.8,1.4,1.3,2.8,1.4,4.4c1.9-0.5,3.8-1.4,5.3,1.1c1.4,2.2,1.2,5,2.5,7.3c1.8,3.3,1.1,7-0.7,10.1
	c1.8,0.2,3.3,1.1,4.3,3.7c0.5,1.4,0.7,3,0.7,4.8c0.3,0.3,0.6,0.7,0.8,1.1c0.7,1.8,0.1,3.3-1,4.5c0.7,1.2,0.9,2.5,0.5,3.8
	c1,0.9,1.2,2.2,1.3,3.7c2.4-2.3,5.3,0.5,2.9,3.1c-0.9,0.9-1.2,2.6-1.4,4.3c2.1,0.5,3.9,1.6,4.5,3.7c0.5,0,1.1,0,1.7,0.1h0.4
	c1.2,0.1,2.2,0.3,3.2,0.7l0.3,0.2c0.5,0.3,0.9,0.6,1.4,1l0,0l0.2,0.2l0,0c0.5,0.6,1,1.3,1.4,2.2c1.4,3-0.2,6-2.4,8.5
	c1.8,0.9,3.1,2.5,3.3,5.2c0.4,4.1-4.3,6.4-7.6,7.4c-0.7,1.5-2,2.5-3.6,2.8l0.1,0.1l0.6,0.4l0.2-0.1c0.4,0.4,0.7,0.8,1,1.3l0.1,0.1
	l0.2,0.4l0.4,0.9l0.1,0.4l0.1,1.1c1.2,0.8,0.8,0.9,2.4,0.4c2.4-1,5.7,0.4,7.2,2.2c0.4,0.5,0.7,1,0.9,1.5c1.9,3.4,0.7,7.1-2.3,9.2
	c0.1,0.6,0.2,1.1,0.2,1.7l0,0c0.2,5.1-3.2,8.3-8.2,7.4c-1.1,1.4-2.5,2-4.3,1.6c-0.8-0.1-1.6-0.7-2.4-1.1c0,0.2-0.1,0.5-0.2,1.1
	c0,0.4,0.1,0.8,0.3,1.1l0.5,0.8c0.2,0.4,0.5,0.7,0.6,1.1c0.3,1.1-1.1,2.9-1.9,3.3c-2.4,1.3-5.1,2.4-7.7,3.2l-0.6,0.2l0.2,0.4
	c0.2,0.6,0.5,1.2,0.7,1.6c0.9,1.5,2.1,2.7,2.7,4.5c0.9,2.7-1.5,4.6-3.6,5.4c-3.6,1.2-10.3,0.7-13.4-2.7h-0.1c2.1,4.6,0.6,10-4,11.9
	c-0.5,1.2-1.1,2.3-1.9,3.3c1.1,5.5-2.3,12.4-7.4,13.7c-5.1,1.4-11.9-1.2-15.1-5.9c-0.8,0.4-1.7,0.7-2.5,0.8l0,0l0,0
	c-2.3,0.5-4.5,0.2-5.3-1.9c-2.4,0.2-5,0.4-6.9-1.3c-1.4-1.2-1.8-2.8-1.6-4.4l-0.3,0.5c-0.9,2.8-2.2,5.8-5.2,6.6
	c-1.7,0.4-3.1,0-4.7,0.4c-1.5,0.3-3,0.8-4.5,0.4l-1-0.4c-1.4,2.3-3.3,4.1-5.7,4.8c-4.8,1.3-11.1-0.9-14.5-5.1
	c-0.3,0.5-0.7,1.1-1.2,1.5c-1.6,1.5-3.1,1.8-4.5,1.2c-2.7,2.8-6.6,4.5-9,1.8c-2.2,0.9-4.5,1.6-6.6,0.8c-2,3.9-2.4,7.6-2.6,12.2
	s-0.6,9.1-0.1,13.6c0.5,5.2,0.8,10.3,0.9,15.5c0.2,9.6-0.1,19.1,0,28.6c0,4,0,8.2,0.7,12.2c0.5-2.2,1.3-4.3,2.8-6.2l0.3,0.3
	c-1.7,3.1-2.1,6.4-2.1,9.9c0.1,0.4,0.2,0.8,0.4,1.2c0.5-1.6,1.2-3,2-4.4c0.9-2.3,2.4-4.4,4.6-5.6l0.2,0.3
	c-4.1,3.8-4.4,10.2-3.4,15.6c0.4-1.7,1-3.4,1.4-4.4c1.1-3,2.4-6.5,5.4-7.9c0.5-0.2,0.9,0.5,0.4,0.7c-2.6,1.7-3.7,5.3-4.2,8.4v0.5
	l0.6-0.9c1.7-2.5,3.5-4.5,6.1-5.7l0.2,0.5c-2.3,1.5-4,4.1-5.2,6.6c-0.5,1.2-0.9,2.6-1.1,3.9c-0.1,0.6-0.1,1.1-0.2,1.5l0,0
	c0.9-1.9,2.5-3.7,3.6-5c2.5-2.9,6.3-4.8,10-4.4v0.6c-2.4,0.1-4.5,1.3-6.2,3c1-0.5,2.1-0.8,3.2-1c0.4,0,0.5,0.6,0.1,0.7
	c-0.8,0.3-1.5,0.7-2.2,1.2l0.9-0.1v0.3c-1.2,0.2-2.3,0.8-3.2,1.8l0,0c-0.5,0.5-0.9,1.1-1.4,1.8c3.3-2,6.7-3.1,10.8-2.4
	c0.4,0.1,0.3,0.7-0.1,0.7c-5.1,0.1-8.4,3.2-12.2,6.3h-0.2c0.1,0.8-0.6,1.4-3.1,1.7c-1.1,0.1-2.3,0.2-3.4,0.2c-1.9,0.4-3.8,1-5.7,1.4
	c-1.2-0.3-2.4-0.7-3.5-1.3c0.4,1.1,0.7,2.4,0.2,3.1c-0.4,0.4-0.8,0.5-1.3,0.4c-0.3,0.6-0.8,1-1.3,1.3c-2.4,1.5-5.2,2.3-7.9,2.7
	c-1.9,0.3-4.1,0.5-6.1,0.3c-2.2-0.2-2.8-2.1-4-3.4c-0.6-0.3-1.2-0.5-1.8-0.7v-0.4h-0.1v0.4l-0.5-0.1c-0.4-0.1-0.8-0.1-1.2-0.1v-0.5
	l-0.9-0.2v0.1c-0.4-0.1-0.9,0-1.6,0.5l-0.5,0.4h-0.2c0-0.4,0.1-0.8,0.2-1.2h-0.4c-0.2,0.6-0.5,1.1-0.7,1.6c-1,1.1-3.2,0.9-4.5,1
	c-0.6,0-1.3,0-1.9,0.1v-0.4l0.2-0.2h-0.3c-3.2,0-6.4-0.9-9.5-1.5c-2.5-0.4-7-1.4-4.3-5c-1-0.2-3.7-0.6-5-1.7l0,0
	c-0.2,1.1-1.7,0.8-1.8-0.3l-0.1-0.4l-0.3-0.7c0-0.5-0.1-1.1-0.2-1.6c-0.9-2.3-2.6-4.1-4.2-6.1l0.5-0.5c0.5,0.5,1.2,1,1.8,1.6
	c-1.2-2.2-2.9-4.1-4.9-5.2l0.2-0.6c0.7,0.3,1.5,0.6,2.2,1l-0.1-0.1l0.5-0.6c2.4,1.1,4,3.3,5.4,5.5l0.6,1.1c-0.4-1.8-0.8-3.6-1.8-5.5
	c-1.3-2.7-3.1-5-4.7-7.4l0.6-0.6c0.6,0.5,1.1,1.1,1.7,1.7c-0.2-0.4-0.5-0.9-0.7-1.4c-0.2-0.4,0.2-0.7,0.5-0.6l-0.9-0.9
	c-0.3-0.3,0-0.9,0.4-0.7c3.1,1.9,5.5,5,7.2,8.5c-0.1-1.2-0.3-2.5-0.5-3.7c-0.7-3.7-2.8-7-4.2-10.4c-0.2-0.6,0.5-1.1,0.8-0.5
	c0.6,1,1.2,2,1.9,3l-0.5-1l0.2-0.2c2.5,3.3,4.2,6.9,5.1,11c0.3,1.5,1.4,4.2,1.2,6.3l0.3-0.4c-0.2-7.3-1.3-14.4-4-21.1
	c-0.2-0.5,0.4-0.9,0.7-0.4c2.1,3.6,3.5,7.5,4.4,11.5c0-3.5-0.2-7-1.1-10.6v-0.1l-0.2-0.6c-0.4-0.7,0.6-1.3,1-0.6
	c2.6,4.4,2.8,9.4,3.4,14.4l0.1,0.4c1.6-5,1.8-11.1,2.2-15.6c1.3-15.7,5.3-31.3,5.1-47.1c0-3.4-0.4-6.8-1.2-10.1
	c-0.9-3.5-2.9-6.3-4.7-9.3c-2.4,0.9-4.8,1.2-7.1-0.5c-1.7-1.3-1.7-3.2-1.2-5.1c-0.5-0.2-1.1-0.4-1.5-0.6l-0.3-0.2h-0.7
	c-4.5,2.5-12.5,5.1-12.8-0.7c-0.1-1.5,0.5-2,0.4-2.9c0-0.3-0.2-0.7-0.5-1.2c-0.8-1.4-3.5-0.2-4.9-0.2c-0.6,0-1.1-0.1-1.6-0.2
	c-1.1,0.2-2.1,0.1-3.2-0.3c-1.9,2.1-4.4,3-7.1,2.5c-0.8,1.7-1.6,3.4-3.1,4.6c-1.7,1.3-3.3,1.4-4.5,0.7c-3,2.5-7,3.8-9.2,0.8
	c-2.8,0.9-5.8,1.4-8.2-0.9l-0.3-0.8c-0.8-0.4-1.4-1.1-1.6-2.3c-0.2-1.1,0-2.2,0.1-3.3c-0.5,0-0.9-0.1-1.3-0.2
	c-4.7,2-12.9,3.7-12.7-2c0.1-2.1,1.2-2,0.3-4.1l-0.9,0.1c-1.3,0.9-2.6,1.1-4,0.5c-3.9,3.2-8.2,2.1-10.1-2.4l0,0
	c-0.2-0.5-0.4-1-0.5-1.5c-3.4-0.3-6-2.9-5.8-6.6c0-0.5,0-1.1,0.1-1.7c0.5-2.2,2.6-5,4.8-5.4c1.6-0.3,1.2-0.2,1.9-1.4l-0.3-0.9
	l-0.1-0.4v-0.9v-0.4v-0.1c0-0.5,0.1-1.1,0.3-1.6h0.3l0.4-0.7v-0.1c-1.5,0.5-2.9,0.2-4.2-0.7c-3.3,0.7-8.2,1-9.6-2.6
	c-0.9-2.5-0.5-4.4,0.6-6.1c-0.7-0.3-1.4-0.6-2-0.9c-1.5-0.1-2.9-0.4-4-0.8c-2-0.8-4.2-2.8-3.2-5.4c0.6-1.6,1.9-2.8,2.8-4.1l0.5-0.8
	l0.2-0.4l0.3-0.7l-0.6-0.3c-2.4-0.9-5-2.2-7.2-3.6c-0.8-0.5-2-2.2-1.7-3.3c0.1-0.4,0.4-0.7,0.6-1.1l0.5-0.7c0.2-0.4,0.4-0.7,0.4-1.1
	c0-0.5-0.1-0.9-0.2-1.1c-0.7,0.4-1.5,0.8-2.3,0.9c-1.8,0.2-3.1-0.5-4.1-1.8c-4.8,0.6-8-2.8-7.5-7.6l0,0c0-0.5,0.1-1.1,0.3-1.6
	c-2.8-2.1-3.8-5.8-1.7-8.9C845.7,416.1,846.1,415.7,846.4,415.2z M1012.5,312.4l0.9-0.6l-1-0.3l0,0L1012.5,312.4z M966,588.5
	c0.8,1.2,1.7,2.2,2.6,3.3C967.9,590.6,967,589.5,966,588.5z M958.2,415.7l0.1-0.2l-0.2,0.1L958.2,415.7z M926.2,389.1
	c0.1-0.5,0.3-1,0.5-1.5c-0.4,0-0.7,0.2-1.1,0.2C925.7,388.3,925.9,388.7,926.2,389.1z M891.8,363c0.5-1.4,1.2-2.6,2.1-3.7
	c-0.9-0.2-1.8-0.3-2.4-0.2c0.1-0.5,0-0.4-0.2,0.4l-0.1,0.6c-0.2,1-0.4,2-0.6,3C891,363.1,891.4,363,891.8,363z"/>
<path class="st0" d="M1677.6,212.6v-0.1V212.6z"/>
<polygon class="st0" points="1652,-1.1 1652.1,-1.1 1652.1,-1.2 "/>
<path class="st0" d="M1638.6,104.1L1638.6,104.1L1638.6,104.1z"/>
<path class="st0" d="M187.8,299.6l0.9-0.7l-1.1-0.3l0,0L187.8,299.6z M137.2,608.2c0.9,1.3,1.8,2.5,2.8,3.7
	C139.3,610.5,138.3,609.3,137.2,608.2z M128.7,415.1l0.1-0.2l-0.3,0.1L128.7,415.1z M93.9,385.4c0.1-0.6,0.3-1.1,0.5-1.7
	c-0.4,0-0.8,0.2-1.2,0.2C93.4,384.4,93.6,384.9,93.9,385.4z M56.5,356.2c0.5-1.5,1.3-3,2.3-4.1c-0.9-0.2-2-0.3-2.6-0.2
	c0.1-0.6,0-0.4-0.2,0.5l-0.1,0.7c-0.2,1.1-0.4,2.3-0.7,3.3C55.7,356.3,56.1,356.2,56.5,356.2z"/>
<polygon class="st0" points="1577.7,643.6 1434.7,616.9 1373.1,615.5 1245.7,612.2 1025.4,601.6 807.7,611.2 590.7,593.7 
	403.5,616.9 204.7,609.2 211.7,768.2 1577.7,768.2 "/>
<rect x="183.7" y="724" class="st0" width="1426.3" height="44"/>
<polygon class="st0" points="162.3,606.4 0,618.3 0,768.2 234.8,768.2 230.9,625.7 "/>
<polyline class="st0" points="1426.4,613.7 1610,630.5 1610,768 "/>
<polygon class="st0" points="162.3,606.4 204.7,609.2 205.2,621.6 "/>
<polyline class="st0" points="1433.9,616.9 1399.2,616.1 1425.8,613.7 1610,630.5 1610,768 "/>
<rect y="768.2" class="st0" width="1610" height="197.8"/>
</svg>
