<?xml version="1.0" encoding="utf-8"?>
<!-- Generator: Adobe Illustrator 27.7.0, SVG Export Plug-In . SVG Version: 6.00 Build 0)  -->
<svg version="1.1" id="Layer_1" xmlns="http://www.w3.org/2000/svg" xmlns:xlink="http://www.w3.org/1999/xlink" x="0px" y="0px"
	 viewBox="0 0 1610 966" style="enable-background:new 0 0 1610 966;" xml:space="preserve">
<style type="text/css">
	.st0{fill:#606060;}
</style>
<path class="st0" d="M1677.6,211.2v-0.1V211.2z"/>
<polygon class="st0" points="1652,-2.5 1652.1,-2.5 1652.1,-2.6 "/>
<path class="st0" d="M1638.6,102.7L1638.6,102.7L1638.6,102.7z"/>
<path class="st0" d="M7.1,413.1c1.6-1.9,5.1-3.1,7.4-2.2c1.6,0.7,1.3,0.6,2.5-0.2l0.2-1.1l0.1-0.4l0.4-0.9l0.2-0.3l0.1-0.1
	c0.3-0.5,0.6-0.9,1.1-1.3l0.3,0.1l0.7-0.4l0.1-0.1c-1.6-0.5-2.8-1.6-3.6-3.2c-3.5-1.3-8.2-4.1-7.6-8.4c0.4-3,1.9-4.5,3.8-5.4
	c-2.1-2.8-3.6-6.1-2-9.2c0.5-1,1-1.7,1.7-2.3l0,0l0,0l0.2-0.2l0,0l0,0c0.4-0.4,0.9-0.7,1.4-0.9l0.4-0.1c1-0.4,2.2-0.5,3.3-0.6h0.4
	c0.5,0,1.1,0,1.7,0c0.2-0.7,0.6-1.3,1.1-1.8h-0.1c-4.8-3.9,0.6-10.5,3.6-15.4c-1.4,0-2.7-0.2-4.2-0.9c-1.3-0.6-0.8-3-0.2-3.9
	l0.4-0.7c-4-1.8-3.3-7.1,0-10.6c-0.1-0.5-0.1-1-0.1-1.4l0.1-0.5v-0.2v-0.2l0,0l0.1-0.4l0.2-0.6l0.3-0.7l0.3-0.5l0.4-0.6l0.4-0.5
	l0.4-0.4l0.6-0.4l0.5-0.3l0.7-0.4l0.5-0.2l0.8-0.3l0.3-0.1l0,0l0.6-0.1c0.3-1.9,1.1-3.7,2.8-4.9c1.1-0.8,2.3-1.1,3.6-1.3l0,0h0.2
	c0.6-0.1,1.3-0.1,1.9-0.2h0.4c0.8,0,1.5,0,2.3,0H39c-0.9-0.5-1.8-1.1-2.2-1.9c-0.9-1.7-1.6-3.2-0.9-5.2l0.2-0.6l-0.4-0.8
	c-1.3-5.2,1.9-8.6,3.8-12.8c1.3-2.9,1.3-6.5,4.7-7.7c3.3-1.1,6.5-0.8,9.6,0.4c1.1-1.5,2.6-2.8,4.2-3.7c-1.3-2.2-2.5-4.3-2.1-7.4
	c0.5-3.8,2.4-7.2,5.3-9.4c2.7-2.2,6.5-4.2,10-3.6c2.4,0.4,3.9,2.4,6.3,2.7l0.8,0.2v-0.1c0.4,0.1,0.8,0.2,1.2,0.4
	c0.9,0.3,1.8,0.7,2.8,1.1c1.7,0.6,1.3,2,2.8,1.3c0.9-0.4,1.8-0.6,2.6-0.8l0.3-0.1l0,0l1-0.2c-0.2-0.5-0.4-0.9-0.6-1.4
	c-1.6-5.5,1.7-10.5,6.1-12.6c0.6-4.5,2.4-8.9,7.3-9.5c4.3-0.6,7.4,1.9,8.3,5.7c1.5-0.3,2.7-0.1,4,0.8l0,0l0.3,0.2
	c0.3-1,0.9-2,1.4-2.7l0.7-0.8l-0.2-0.1l0,0l-0.2-0.1l-0.4-0.3l0,0l0,0l-0.5-0.4l-0.4-0.4l-0.3-0.3l-0.4-0.6l-0.2-0.3l-0.4-1
	c-0.7-3.5,0.2-6.7,2.4-9.4c2.6-3.1,6.7-5.5,10.7-5.7c0.5-1.2,1.1-2.3,2.1-3.1c1.4-1.2,2.9-1.6,4.6-1.1c0.9,0.2,1.4,1.1,2.1,1.5
	c1.4-1.2,2.7-2,4.9-2c2.3,0,4.6,1.5,5.6,3.8c1.2,2.8,1.2,6.2,0.2,9c-0.5,1.3-1.4,2.4-2.2,3.5c-0.9,0.7-0.8,1.1,0.4,1.2
	c0.5,0.6,1.1,1.2,1.8,1.6l0.3-0.5c0.2-1.6,1.3-3,2.6-3.4c1-0.9,2.2-1.7,3.4-2.2c-1.8-9,0.3-20.6,7.2-24.1c1.6-0.8,3.1-0.9,4.5,0.4
	c1.3,1.3,2.6,2.7,3.7,4c2.1-2.7,5.7-3.3,8.9-2.2c1.1-0.7,2.1-1.5,2-2.4c-0.2-2-0.7-4-0.6-6.1c0-1.9,1.5-3.6,3.2-3.7
	c2.1,0,4.3,0.1,6,1.6c1.6,1.3,4.1,5.1,6.4,3.2c1.5-1.2,3.1-1.8,5-1.6l0.7,0.5l0.2,0.3c0.5,0.7,1.1,1.7,1.3,1.5c0.5-0.3,1-0.6,1.6-1
	l0.8-0.5l1.2-0.8l0,0c1.8-1.3,3.8-2.5,5.8-2.7l0,0l0,0c0.5,0,1.1,0,1.6,0.1c4,0.9,4.3,6.2,3.2,9.5c-0.7,2.1-0.3,2.8,1.1,2.9
	c0.4,0,1,0,1.7,0c1.1-0.1,2.2-0.3,3.4-0.1c2.4,0.2,4,1.3,5.5,3.3c1.8,2.5,1.5,5.7,0.4,8.7c1.4-0.1,2.9,0.1,4.1,0.6
	c2.5,1,4.4,2.3,5.1,4.5c1.3-0.4,2.8,0,4.4,1.4c2.6,2.3,4.4,3,7.8,2.5c1.2-0.1,3.1-3.2,4.8-3.9c0.9-0.3,2-0.6,3-0.3
	c0.6,0.1,1.2,0.3,1.8,0.6l0.7,0.2c1.1-1.1,2.5-1.7,4.1-1.6c3.1,0.1,6,1.2,8.7,2.8l0,0h0.1c0.9,0.6,1.8,1.2,2.7,1.9
	c3.8,0.5,8.9,3.2,9.1,8c0.1,1.4-0.1,2.7-0.5,4.1v0.4l0.7,1.1c1,1.7,1.4,3.2,1.4,4.9c2,1.3,4.3,3.4,4.9,5.7c0.4,1.3,0.1,2.4-0.6,3.3
	c1,3.5,0.2,6.7-3.1,9.3c-1.9,1.5-4.8,1.3-7.5,1c-0.2,0.5-0.4,1-0.8,1.5l-0.4,0.5c0.5,0.2,1,0.4,1.5,0.6c1.2,0.4,2.5,0.8,3.6,1.5
	c2.2,1.3,2.7,3.3,2.1,5.2c0.5,0.5,1,1,1.4,1.6c2.7-1.7,6.2-2.7,9.3-2.3c0.6-1.1,1.4-2.1,2.6-2.8c1.5-0.9,3.1-1.1,4.7-0.3
	c0.8,0.3,1.3,1.4,1.9,1.8c1.6-0.9,2.9-1.5,5.2-1.2s4.4,2.2,5,4.7c0.8,3,0.3,6.2-1.1,8.9c-0.7,1.2-1.7,2.1-2.7,3.1
	c-0.9,0.5-0.9,0.9,0.2,1.2c0.4,0.7,0.9,1.4,1.6,1.9c0.6-1.2,1.8-2.3,2.8-3.1c2-1.4,4-2.4,6.4-1.9c4,0.9,5.4,5.8,5.8,10
	c0.9,0.1,1.7,0.4,2.4,0.8l1,0.5l0.5,0.4l0.7,0.6l0.5,0.6l0.5,0.7l0.4,0.7l0.3,0.8l0.2,0.8l0.1,1v0.8l-0.1,1.2l-0.1,0.7
	c-0.1,0.7-0.4,1.4-0.6,2.2c-1.6,4.3-4.5,8.3-8,11.3c0.9,1.5,1.4,3.1,1.5,5c2.1-0.6,4.1-1.6,5.8,1.3c1.5,2.5,1.3,5.6,2.7,8.1
	c2,3.7,1.2,7.8-0.8,11.3c1.9,0.2,3.6,1.3,4.7,4.1c0.6,1.6,0.8,3.4,0.8,5.4c0.4,0.3,0.7,0.8,0.9,1.3c0.8,2.1,0.1,3.7-1.1,5
	c0.8,1.4,0.9,2.8,0.5,4.3c1.1,1,1.3,2.5,1.4,4.1c2.6-2.6,5.8,0.6,3.2,3.4c-0.9,1-1.3,3-1.5,4.8c2.3,0.6,4.3,1.8,4.9,4.1
	c0.6,0,1.2,0,1.8,0.1h0.4c1.3,0.1,2.4,0.3,3.5,0.8l0.4,0.2c0.5,0.3,1,0.6,1.5,1.1l0,0l0.2,0.2l0,0c0.6,0.6,1.1,1.4,1.6,2.5
	c1.5,3.4-0.3,6.7-2.6,9.4c1.9,1,3.4,2.8,3.6,5.9c0.4,4.5-4.6,7.1-8.3,8.3c-0.8,1.6-2.2,2.8-3.9,3.1l0.1,0.1l0.7,0.5l0.3-0.1
	c0.4,0.4,0.8,0.9,1.1,1.5l0.1,0.1l0.2,0.4l0.4,1l0.1,0.4l0.1,1.2c1.3,0.9,0.9,1,2.6,0.4c2.7-1.1,6.2,0.4,7.8,2.5
	c0.4,0.5,0.7,1.1,1,1.7c2.1,3.8,0.8,8-2.5,10.2c0.1,0.6,0.2,1.2,0.2,1.9l0,0c0.3,5.7-3.5,9.3-8.9,8.3c-1.2,1.5-2.7,2.2-4.7,1.8
	c-0.9-0.1-1.8-0.7-2.6-1.2c0,0.2-0.1,0.5-0.2,1.2c0,0.4,0.1,0.9,0.3,1.3l0.5,0.9c0.3,0.4,0.5,0.8,0.6,1.3c0.3,1.3-1.2,3.2-2.1,3.7
	c-2.7,1.4-5.6,2.7-8.4,3.6l-0.7,0.2l0.2,0.5c0.2,0.6,0.5,1.3,0.8,1.8c1,1.7,2.3,3.1,3,5c0.9,3-1.6,5.2-4,6c-3.9,1.3-11.2,0.8-14.6-3
	h-0.7c2.2,5.1,0.7,11.2-4.4,13.3c-0.5,1.3-1.2,2.6-2.1,3.6c1.2,6.2-2.5,13.8-8.1,15.4c-5.5,1.5-12.9-1.3-16.5-6.5
	c-0.9,0.4-1.8,0.7-2.7,0.9l0,0l0,0c-2.5,0.6-4.9,0.2-5.8-2.2c-2.7,0.2-5.4,0.5-7.5-1.5c-1.5-1.4-1.9-3.1-1.8-4.9l-0.3,0.6
	c-0.9,3.1-2.4,6.4-5.6,7.4c-1.8,0.5-3.4,0-5.2,0.4c-1.6,0.3-3.2,0.9-4.9,0.5l-1.1-0.5c-1.5,2.6-3.6,4.6-6.2,5.3
	c-5.2,1.4-12-1-15.8-5.7c-0.4,0.6-0.8,1.2-1.3,1.7c-1.8,1.6-3.4,2-4.9,1.3c-3,3.1-7.1,5-9.8,2c-2.4,1-4.9,1.8-7.2,0.9
	c-2.2,4.3-2.6,8.5-2.9,13.6c-0.2,5.1-0.7,10.1-0.1,15.2c0.6,5.8,0.9,11.6,1,17.4c0.3,10.7-0.1,21.3,0,32c0,4.5,0,9.2,0.8,13.6
	c0.5-2.5,1.4-4.8,3-6.9l0.4,0.3c-1.9,3.4-2.3,7.2-2.3,11c0.1,0.4,0.3,0.9,0.4,1.3c0.5-1.8,1.3-3.4,2.2-5c1-2.6,2.6-4.9,5-6.2
	l0.2,0.3c-4.5,4.3-4.8,11.4-3.7,17.4c0.4-1.9,1.1-3.8,1.5-4.9c1.2-3.3,2.6-7.3,5.8-8.8c0.5-0.2,1,0.5,0.4,0.8c-2.8,1.9-4,6-4.6,9.3
	v0.5l0.6-1c1.8-2.8,3.8-5,6.7-6.3l0.2,0.6c-2.5,1.7-4.4,4.6-5.6,7.4c-0.6,1.3-0.9,2.9-1.2,4.3c-0.1,0.6-0.1,1.2-0.3,1.7l0,0
	c0.9-2.1,2.7-4.2,3.9-5.6c2.7-3.2,6.9-5.4,10.9-4.9v0.6c-2.7,0.1-4.9,1.4-6.8,3.3c1.1-0.5,2.2-0.9,3.5-1.1c0.4,0,0.5,0.7,0.1,0.8
	c-0.9,0.3-1.7,0.8-2.4,1.4l1-0.1v0.3c-1.3,0.2-2.5,0.9-3.5,2l0,0c-0.5,0.6-1,1.3-1.5,2c3.6-2.3,7.3-3.5,11.8-2.7
	c0.4,0.1,0.3,0.8-0.1,0.8c-5.6,0.1-9.2,3.5-13.3,7h-0.2c0.1,0.9-0.7,1.6-3.3,1.9c-1.2,0.1-2.5,0.2-3.7,0.2c-2.1,0.4-4.2,1.1-6.2,1.6
	c-1.3-0.3-2.6-0.8-3.8-1.4c0.4,1.2,0.8,2.7,0.2,3.5c-0.4,0.5-0.9,0.6-1.4,0.4c-0.4,0.6-0.9,1.1-1.4,1.5c-2.7,1.7-5.6,2.6-8.6,3.1
	c-2.1,0.3-4.5,0.6-6.7,0.3c-2.4-0.2-3-2.4-4.3-3.8c-0.6-0.3-1.3-0.6-2-0.8v-0.4h-0.1v0.4l-0.5-0.1c-0.4-0.1-0.9-0.1-1.3-0.1V637
	l-1-0.2v0.1c-0.4-0.1-1,0-1.8,0.5l-0.5,0.4h-0.2c0-0.4,0.1-0.9,0.2-1.3h-0.4c-0.2,0.6-0.5,1.2-0.8,1.8c-1.1,1.2-3.5,1-4.9,1.1
	c-0.7,0-1.4,0-2.1,0.1v-0.4l0.2-0.2h-0.4c-3.5,0-6.9-1-10.4-1.7c-2.7-0.5-7.6-1.6-4.6-5.6c-1.1-0.2-4-0.7-5.4-1.9l0,0
	c-0.2,1.3-1.9,0.9-2-0.3l-0.1-0.4l-0.4-0.8c0-0.6-0.1-1.2-0.3-1.8c-1-2.6-2.8-4.6-4.5-6.8l0.5-0.6c0.6,0.5,1.3,1.1,1.9,1.8
	c-1.3-2.5-3.2-4.6-5.3-5.9l0.3-0.6c0.8,0.3,1.6,0.7,2.4,1.1l-0.1-0.1l0.5-0.7c2.6,1.2,4.4,3.7,5.9,6.2l0.6,1.2
	c-0.4-2.1-0.9-4-1.9-6.2c-1.4-3-3.4-5.6-5.2-8.3l0.6-0.7c0.7,0.5,1.2,1.2,1.8,1.9c-0.3-0.5-0.5-1-0.8-1.5c-0.2-0.5,0.2-0.8,0.6-0.6
	l-1-1c-0.4-0.3,0-1,0.4-0.7c3.4,2.1,5.9,5.6,7.8,9.5c-0.1-1.4-0.3-2.8-0.5-4.1c-0.8-4.2-3.1-7.8-4.6-11.7c-0.2-0.6,0.5-1.2,0.9-0.5
	c0.6,1.1,1.3,2.2,2,3.3l-0.5-1.1l0.2-0.2c2.7,3.6,4.6,7.7,5.6,12.3c0.4,1.7,1.5,4.7,1.3,7l0.3-0.4c-0.3-8.1-1.4-16-4.4-23.6
	c-0.2-0.5,0.4-1,0.7-0.5c2.2,4,3.8,8.4,4.8,12.8c0-3.9-0.2-7.8-1.2-11.8v-0.1l-0.3-0.7c-0.4-0.8,0.7-1.5,1.1-0.7
	c2.9,4.9,3.1,10.5,3.7,16.1l0.1,0.4c1.7-5.6,2-12.4,2.4-17.4c1.4-17.6,5.8-34.9,5.5-52.7c0-3.8-0.4-7.6-1.3-11.3
	c-1-3.9-3.2-7-5.1-10.4c-2.6,1-5.3,1.4-7.7-0.6c-1.8-1.4-1.8-3.6-1.3-5.7c-0.6-0.2-1.2-0.4-1.7-0.7l-0.3-0.2h-0.8
	c-4.9,2.8-13.6,5.7-14-0.7c-0.1-1.7,0.6-2.2,0.4-3.2c0-0.3-0.2-0.8-0.5-1.3c-0.9-1.6-3.8-0.2-5.3-0.2c-0.6,0-1.2-0.1-1.7-0.2
	c-1.2,0.2-2.3,0.1-3.5-0.3c-2.1,2.3-4.8,3.3-7.7,2.8c-0.9,1.9-1.7,3.8-3.4,5.1c-1.9,1.4-3.6,1.6-4.9,0.8c-3.2,2.8-7.6,4.2-10,0.9
	c-3.1,1-6.3,1.5-8.9-1l-0.3-0.9c-0.9-0.5-1.6-1.3-1.8-2.6c-0.2-1.2,0-2.5,0.1-3.7c-0.5,0-0.9-0.1-1.4-0.2
	c-5.1,2.3-14.1,4.2-13.8-2.3c0.1-2.3,1.3-2.2,0.4-4.5l-0.4-0.3c-1.4,1-2.9,1.2-4.4,0.5c-4.2,3.5-8.9,2.3-11-2.7l0,0
	c-0.2-0.5-0.4-1.1-0.6-1.7c-3.7-0.3-6.6-3.2-6.3-7.4c0-0.6,0-1.2,0.1-1.9c0.5-2.5,2.9-5.6,5.3-6.1c1.7-0.3,1.3-0.2,2.1-1.6l-0.4-1
	l-0.1-0.4v-1v-0.4v-0.1c0-0.6,0.1-1.2,0.3-1.8h0.3l0.4-0.8v-0.1c-1.6,0.5-3.2,0.2-4.6-0.8c-3.6,0.8-8.9,1.1-10.4-2.9
	c-1-2.8-0.5-5,0.7-6.8c-0.8-0.3-1.5-0.6-2.2-1c-1.7-0.1-3.2-0.4-4.4-0.9c-2.2-0.9-4.5-3.1-3.5-6c0.7-1.8,2-3.1,3.1-4.6l0.5-0.9
	l0.2-0.5l0.3-0.7l-0.6-0.3c-2.7-1-5.4-2.5-7.9-4c-0.9-0.5-2.2-2.5-1.8-3.6c0.1-0.4,0.4-0.8,0.7-1.2l0.5-0.8c0.2-0.4,0.4-0.8,0.4-1.2
	c0-0.6-0.1-1-0.2-1.2c-0.8,0.4-1.6,0.9-2.5,1c-2,0.2-3.4-0.5-4.4-2.1c-5.3,0.6-8.7-3.1-8.1-8.5l0,0c0-0.6,0.1-1.2,0.3-1.8
	c-3.1-2.4-4.1-6.4-1.8-9.9C6.4,414.2,6.7,413.6,7.1,413.1z M187.8,298.2l0.9-0.7l-1.1-0.3l0,0L187.8,298.2z M137.2,606.8
	c0.9,1.3,1.8,2.5,2.8,3.7C139.3,609.1,138.3,607.9,137.2,606.8z M128.7,413.7l0.1-0.2l-0.3,0.1L128.7,413.7z M93.9,384
	c0.1-0.6,0.3-1.1,0.5-1.7c-0.4,0-0.8,0.2-1.2,0.2C93.4,383,93.6,383.5,93.9,384z M56.5,354.8c0.5-1.5,1.3-3,2.3-4.1
	c-0.9-0.2-2-0.3-2.6-0.2c0.1-0.6,0-0.4-0.2,0.5l-0.1,0.7c-0.2,1.1-0.4,2.3-0.7,3.3C55.7,354.9,56.1,354.8,56.5,354.8z"/>
<polygon class="st0" points="1577.7,642.2 1434.7,615.5 1373.1,614.1 1245.7,610.8 1025.4,600.2 807.7,609.8 590.7,592.3 
	403.5,615.5 204.7,607.8 211.7,766.8 1577.7,766.8 "/>
<rect x="183.7" y="722.6" class="st0" width="1426.3" height="44"/>
<polygon class="st0" points="162.3,605 0,616.9 0,766.8 234.8,766.8 230.9,624.3 "/>
<polyline class="st0" points="1426.4,612.3 1610,629.1 1610,766.6 "/>
<polyline class="st0" points="1433.9,615.5 1399.2,614.7 1425.8,612.3 1610,629.1 1610,766.6 "/>
<rect y="766.8" class="st0" width="1610" height="199.2"/>
</svg>
