<?xml version="1.0" encoding="utf-8"?>
<!-- Generator: Adobe Illustrator 27.7.0, SVG Export Plug-In . SVG Version: 6.00 Build 0)  -->
<svg version="1.1" id="Layer_1" xmlns="http://www.w3.org/2000/svg" xmlns:xlink="http://www.w3.org/1999/xlink" x="0px" y="0px"
	 viewBox="0 0 1610 966" style="enable-background:new 0 0 1610 966;" xml:space="preserve">
<style type="text/css">
	.st0{fill:#606060;}
</style>
<path class="st0" d="M1677.6,212.2v-0.1V212.2z"/>
<polygon class="st0" points="1652,-1.5 1652.1,-1.5 1652.1,-1.6 "/>
<path class="st0" d="M1638.6,103.7L1638.6,103.7L1638.6,103.7z"/>
<polygon class="st0" points="1577.7,643.2 1434.7,616.5 1373.1,615.1 1245.7,611.8 1025.4,601.2 807.7,610.8 590.7,593.3 
	403.5,616.5 204.7,608.8 211.7,767.8 1577.7,767.8 "/>
<rect x="183.7" y="723.6" class="st0" width="1426.3" height="44"/>
<polygon class="st0" points="162.3,606 0,617.9 0,767.8 234.8,767.8 230.9,625.3 "/>
<polyline class="st0" points="1433.9,616.5 1399.2,615.7 1425.8,613.3 1610,630.1 1610,767.6 "/>
<polygon class="st0" points="162.3,606 204.7,608.8 205.2,620.6 "/>
<rect y="767.8" class="st0" width="1610" height="198.2"/>
</svg>
