<?xml version="1.0" encoding="utf-8"?>
<!-- Generator: Adobe Illustrator 27.7.0, SVG Export Plug-In . SVG Version: 6.00 Build 0)  -->
<svg version="1.1" id="Layer_1" xmlns="http://www.w3.org/2000/svg" xmlns:xlink="http://www.w3.org/1999/xlink" x="0px" y="0px"
	 viewBox="0 0 1610 966" style="enable-background:new 0 0 1610 966;" xml:space="preserve">
<style type="text/css">
	.st0{clip-path:url(#SVGID_00000183933022914685460850000001120887239656596377_);}
	.st1{clip-path:url(#SVGID_00000132071442444465855630000004731929448564087174_);fill:#606060;}
</style>
<g>
	<defs>
		<rect id="SVGID_1_" width="1610" height="966"/>
	</defs>
	<clipPath id="SVGID_00000008845960971716448350000007104763132975306390_">
		<use xlink:href="#SVGID_1_"  style="overflow:visible;"/>
	</clipPath>
	<g style="clip-path:url(#SVGID_00000008845960971716448350000007104763132975306390_);">
		<defs>
			<rect id="SVGID_00000087389942777354562070000014498488782149776056_" width="1610" height="966"/>
		</defs>
		<clipPath id="SVGID_00000053509921363446795860000012539633216884953733_">
			<use xlink:href="#SVGID_00000087389942777354562070000014498488782149776056_"  style="overflow:visible;"/>
		</clipPath>
		<path style="clip-path:url(#SVGID_00000053509921363446795860000012539633216884953733_);fill:#606060;" d="M1457.2,434.8
			c-0.8-1.5-1.3-3-0.4-5.1c0.8-2,2.6-2.6,4.3-2.8c-0.1-0.5-0.2-1-0.2-1.6c0-1.2,0.5-2.2,1.1-3.1c0.7-1.1,1.5-1.4,2.4-1.6
			c-0.1-0.8,0.1-1.5,0.6-2.4c0.4-0.5,0.8-0.9,1.3-1.3l0.4-0.2c0.4-0.2,0.7-0.4,1.1-0.5h0.2l0,0c0.4-0.1,0.8-0.2,1.2-0.3l0,0
			c0.4-0.1,0.8-0.1,1.2-0.2c0.9-0.1,1.7-0.1,2.4-0.8c0.7-0.7,1.7-1.1,2.6-0.9c1.6,0.4,2.2,2.1,2.3,3.8c0.6-0.1,1.1,0,1.5,0.3
			c0.2-0.6,0.6-1.2,1-1.8l0.2-0.3l-0.2,0.2c0-0.6-0.1-1-0.3-1.6c-0.4-1.5-0.2-2.6,0.4-4c0.3-0.5,0.7-1,1.2-1.5c-3,0-4.8-2.3-4.5-5.8
			l0,0l0.2-1.2c-1.9-1.6-2.5-4.4-1.2-6.8l0.6-1.1c1-1.3,3.2-2.1,4.6-1.5c1,0.5,0.8,0.4,1.6-0.1l0.2-1.2l0.1-0.3l0.4-0.6l0.6-0.8
			l0.2,0.1l0.4-0.3l0.1-0.1c-1-0.3-1.7-1.1-2.2-2.2c-2.2-0.9-5.1-2.8-4.7-5.8c0.3-2,1.2-3.1,2.4-3.7c-1.3-1.9-2.2-4.1-1.3-6.3
			c0.3-0.7,0.6-1.2,1-1.5l0,0l0.1-0.1l1-0.8l0.2-0.1c0.6-0.3,1.4-0.4,2.1-0.4h0.2c0.4,0,0.7,0,1.1,0c0.6-1.8,2.2-2.5,3.9-2.6
			c0-2.2,0.4-4.4,2.4-5.3c1.8-0.9,3.7-0.5,5.2,0.7l1-0.1c-1.7-2.7,1.2-6.7,2.9-9.6c-0.8,0-1.7-0.1-2.6-0.6c-0.8-0.4-0.5-2-0.2-2.7
			l0.3-0.5c-2.5-1.2-2.1-4.8,0-7.2c-0.1-0.5-0.1-1,0-1.5V339l0,0v-0.2v-0.1c0.1-0.5,0.4-1,0.6-1.5l0.1-0.1c0.3-0.4,0.7-0.8,1.1-1.1
			l0.1-0.1c0.4-0.3,0.9-0.5,1.5-0.7l0,0l0,0l0.4-0.1c0.2-1.3,0.7-2.5,1.8-3.3c0.7-0.5,1.5-0.8,2.2-0.9h-0.1h0.2l1-0.1h0.4
			c0.5,0,0.9,0,1.4,0h0.7c-0.6-0.4-1.1-0.8-1.4-1.3c-0.6-1.1-1-2.2-0.6-3.5l0.1-0.4l-0.2-0.5c-0.8-3.5,1.2-5.9,2.4-8.8
			c0.8-2,0.8-4.4,3-5.2c2-0.8,4-0.5,5.9,0.2c0.7-1.1,1.6-1.9,2.6-2.5c-0.8-1.5-1.5-2.9-1.3-5c0.3-2.6,1.5-4.9,3.3-6.4
			c1.7-1.5,4.1-2.9,6.3-2.5c1.5,0.3,2.4,1.6,4,1.8l0.5,0.1l0,0l0.7,0.3c0.6,0.2,1.2,0.5,1.8,0.8c1.1,0.4,0.8,1.4,1.8,0.9
			c0.6-0.3,1.1-0.4,1.7-0.5h0.2l0,0l0.6-0.1l-0.4-1c-1-3.7,1.1-7.2,3.8-8.6c0.4-3.1,1.5-6.1,4.5-6.5c2.6-0.4,4.6,1.3,5.2,3.9
			c1-0.2,1.7,0,2.5,0.6v-0.1l0.2,0.1c0.2-0.7,0.5-1.4,0.9-1.8l0.4-0.5l0,0l-0.1-0.1l0,0l-0.1-0.1l-1.1-1.1l-0.1-0.2l-0.5-1.1
			c-0.4-2.4,0.1-4.6,1.5-6.4c1.6-2.1,4.2-3.7,6.7-3.8c0.3-0.8,0.7-1.5,1.3-2.2c0.8-0.8,1.8-1.1,2.9-0.8c0.5,0.1,0.9,0.8,1.3,1
			c0.9-0.8,1.7-1.4,3.1-1.4c1.5,0,2.9,1,3.5,2.6c0.7,1.9,0.7,4.2,0.1,6.1c-0.3,0.9-0.9,1.6-1.4,2.4l-0.3,0.6l0.5-0.1l0.5-0.2l1-0.6
			l0,0l0.5-0.2l1-0.3v-0.3l0,0c-0.1-0.4-0.1-0.7-0.1-1.2c0-1.9,1.7-3.4,3.2-2.7l1,0.4c-1.9-6.3-0.6-15.7,4-18.3c1-0.5,2-0.7,2.8,0.3
			c0.8,0.9,1.6,1.8,2.3,2.8c1.3-1.8,3.6-2.2,5.5-1.5c0.7-0.5,1.3-1,1.3-1.6c-0.1-1.4-0.4-2.7-0.4-4.1c0-1.3,0.9-2.5,2-2.5
			c1.3,0,2.7,0.1,3.8,1.1c1,0.9,2.5,3.4,4,2.2c1-0.8,1.9-1.2,3.1-1.1l0.4,0.3l0.3,0.4c0.3,0.5,0.6,1,0.7,0.9l0.9-0.7
			c1.5-1.1,3.2-2.6,4.8-2.8l0,0l0,0h1c2.5,0.6,2.7,4.2,2,6.5c-0.4,1.4-0.2,1.9,0.6,2l0,0c0.3,0,0.6,0,1.1,0c0.7-0.1,1.4-0.2,2.1-0.1
			c1.5,0.2,2.5,0.9,3.4,2.3c1.9,2.8,0.2,6.8-1.2,9.4c0.3,0.3,0.6,0.7,0.8,1.2c0.2,0.5,0.3,1.1,0.2,1.8c0.6,0.8,1.1,1.7,1.4,2.8
			c1.4,0.9,2.5,2.2,3.2,3.6c0.5,0.1,1,0.5,1.5,1c1.6,1.5,2.7,2,4.8,1.7c0.7-0.1,1.9-2.2,3-2.7c0.6-0.2,1.2-0.4,1.9-0.2
			c0.4,0.1,0.7,0.2,1.1,0.4l0.4,0.2c0.7-0.8,1.6-1.1,2.6-1.1c1.9,0.1,3.8,0.8,5.4,1.9l0,0l0,0c0.6,0.4,1.2,0.8,1.7,1.3
			c2.4,0.4,5.5,2.2,5.7,5.4c0,1,0,1.8-0.3,2.8v0.2l0.4,0.8c0.6,1.2,0.9,2.2,0.9,3.3c1.3,0.9,2.7,2.3,3.1,3.9c0.2,0.9,0,1.6-0.4,2.2
			c0.6,2.4,0.1,4.6-2,6.3c-1.2,1-3,0.9-4.6,0.7l-0.5,1l-0.2,0.3l0.9,0.4c0.7,0.3,1.5,0.6,2.2,1c1.4,0.9,1.7,2.3,1.3,3.5l0.8,1.1
			c1.7-1.2,3.8-1.8,5.8-1.5c0.4-0.8,0.9-1.5,1.6-1.9c0.9-0.6,1.9-0.7,2.9-0.2c0.5,0.2,0.8,0.9,1.2,1.3c1-0.7,1.8-1.1,3.2-0.8
			c1.5,0.2,2.7,1.5,3.1,3.2c0.5,2,0.2,4.3-0.7,6c-0.4,0.8-1.1,1.5-1.7,2.1c-0.6,0.3-0.5,0.6,0.1,0.8c0.3,0.5,0.6,0.9,1,1.3
			c0.4-0.8,1.1-1.6,1.7-2.1c1.2-0.9,2.5-1.6,4-1.3c2.5,0.6,3.4,4,3.6,6.8c1.1,0.2,2,0.7,2.7,1.4l0.2,0.1c0.4,0.4,0.7,0.9,0.9,1.5
			l0.1,0.3c0.2,0.6,0.3,1.3,0.2,1.9v0.3c0,0.8-0.2,1.6-0.5,2.5c-1,2.9-2.8,5.7-5,7.7c0.5,1,0.8,2.1,0.9,3.4c1.3-0.4,2.6-1.1,3.6,0.9
			c0.9,1.7,0.8,3.8,1.7,5.5c1.3,2.5,0.8,5.3-0.5,7.7c1.2,0.1,2.2,0.9,2.9,2.8c0.4,1.1,0.5,2.3,0.5,3.6l0.6,0.9l0.2,1.1l0.9,0.2
			c1,0.3,1.5,0.9,2.2,1.8l0.2,0.3c0.9-0.6,2-0.8,3.1-0.2c1.6-1.2,3.6-1.5,5.4-0.4c2,1.2,2.3,3.4,2.2,5.7c1.8,0.3,3.4,1.1,4,3
			c0.4,0,0.8,0,1.2,0.1h0.2c0.8,0,1.5,0.2,2.2,0.6l0.2,0.1l1,0.8l0.1,0.1l0,0c0.4,0.4,0.7,1,1,1.7c0.9,2.3-0.2,4.5-1.6,6.4
			c1.2,0.7,2.1,1.9,2.3,4c0.3,3-2.9,4.8-5.2,5.6c-0.5,1.1-1.3,1.9-2.4,2.1l0.1,0.1l0.3,0.2h0.3l0.5,0.9l0.4,0.7l0.1,0.3
			c0.1,0.4,0.2,0.8,0.2,1.2c0.8,0.6,0.6,0.7,1.6,0.2c1.5-0.6,3.7,0.5,4.7,1.9l0.6,1.2c1.3,2.6,0.5,5.4-1.5,7l0.1,1.3l0,0
			c0.1,3.6-1.9,5.9-4.8,5.7l0.9,0.8c0.6,0.8,1.4,0.8,2.3,1.1c0.4,0.1,0.8,0.2,1.2,0.4l0,0c0.4,0.1,0.8,0.3,1.1,0.5l0,0l0.1,0.1
			c0.4,0.2,0.7,0.4,1.1,0.7l0.4,0.3c0.4,0.4,0.8,0.9,1.1,1.5c0.4,0.9,0.5,1.7,0.4,2.5c0.8,0.3,1.6,0.8,2.2,1.9
			c0.5,0.9,0.9,2.1,0.8,3.2c-0.1,0.6-0.2,1.1-0.4,1.6c1.7,0.5,3.4,1.3,4,3.4c0.7,2.2,0,3.6-0.9,5c1.2,0.6,2.3,1.3,3.1,2.9
			c1.5,2.9-0.7,6.1-2.8,7.4c-2.5,1.5-5.7,0.1-7.9-1.4c-1.3-0.9-2.2-2.2-3.4-3.3c-0.5-0.5-1.8,0.6-2.2,0.9c-0.6,0.5-0.4,1.8-0.5,2.5
			c0,1-1.1,1.7-1.9,1.5c-2.5-0.8-4.9-1.6-6.3-4.4l-0.2-0.4c-0.9,1.2,1.1,2.9,1.7,3.9c0.6,1.1,0.4,2.4-0.5,3
			c-0.7,0.5-1.4,0.6-2.2,0.6c-1.5,0-1.2,0.2-0.7,1.7c0.6,2.2,0.2,4.2-1.3,5.7c-2.1,2.2-5.5,0.9-7.6-1.1c-2.3,1-4.3-1.4-5.7-3.9
			c-0.4-0.6-0.7-1.3-1.1-1.9l-0.1-0.1c-0.8,0.8,0.3,2.3,0,3.4l0,0l0,0l-0.2,0.6l-0.1,0.2l-0.2,0.3l-0.2,0.4h-0.1l-0.5,0.5l-0.7,0.4
			c-0.8,0.4-1.7,0-2.5-0.4l-0.4-0.3c-0.2,3.6-2.3,7.3-5.1,8.2c-3.5,1.1-8-0.9-10.3-4.4c-0.6,0.3-1.1,0.5-1.7,0.6h-0.1l0,0
			c-1.6,0.4-3,0.1-3.6-1.5c-1.7,0.1-3.4,0.3-4.7-1c-2-2.1-1-5.1,0.4-7.2c-0.4,0.5-1.9-0.5-2.3-0.6l-0.5-0.1l-0.2,0.1
			c-0.9,0.8-1.8,1.7-2.9,2.2c-1.9,0.9-3.3,0.9-4.5-0.2c-1.4,1.3-2.9,2.2-4.5,2c-0.6,0-1.2,0-1.8,0.1c-1.2,0.8-2.5,1.2-3.7,0.8
			c-0.7,1.1-1.7,1.8-2.7,2.2c-0.4,0.2-0.8,0.4-1.3,0.6l-0.9,0.2c-0.4,1.2-0.8,2.4-1.7,3.3c-1.1,1.1-2.1,1.3-3,0.9
			c-1.9,2.1-4.4,3.4-6.1,1.4c-1.9,0.9-3.8,1.5-5.6,0c-1.3-1.1-1.2-2.8-0.7-4.4c-0.6,0-1.2,0-1.8-0.1c-2,1.2-4.9,2.5-6.8,2
			c-1.3,6.5-2,13.2-2.4,19.8c-0.7,12.6,1.6,24.7,2.5,37.1c0.8,11.1-0.8,21.6-1.9,32.5c-1.1,11.1-2.4,22.8,1.6,33.4
			c3.3,8.6,9.1,16,15.5,21.8c0.4-1.1,1-2.1,2.1-2.9c0.5-0.3,0.9,0,1.2,0.4c0.6-0.5,1.7-0.3,1.8,0.8c0.1,0.5,0.1,1,0.2,1.5
			c0.3-1.3,0.8-2.4,1.6-3.2c0.9-0.9,2.7-1.1,3.2,0.5v1c0.2,0.3,0.4,0.7,0.4,1.2v0.6c0.5-0.6,1.2-1.2,2-1.4l0.4-0.3l0.7-0.6l0.8-0.7
			c0.9-0.6,1.7,0.8,1.1,1.6l0.2,0.4c0.8-1.3,1.9-3,3.4-3c0.7,0,1.4,0.9,1.3,1.7s-0.4,1.3-0.8,1.8l0,0c0.9-1.3,2-2.4,3.4-3.1
			c0.9-0.4,1.5,0.8,0.9,1.6c-1.9,2.6-3.8,4.7-5.1,7.8c0.4,0,0.7,0.3,1,0.7c1-3.5,2.6-6.5,5.4-6.5c0.9,0,1.4,1.5,0.7,2.2
			c-1.1,1-2.3,1.4-3.1,2.8c-0.7,1.3-1.3,2.6-1.8,4c-0.2,0.4-0.3,0.9-0.4,1.3l0.6-0.1c0.4-0.8,0.8-1.5,1.3-2.2c1.3-2.1,3-5.3,5.2-5.8
			c0.5-0.1,0.9,0.3,1,0.8c0.4,0,0.8,0.4,0.9,0.8c0.4-0.1,0.8-0.2,1.3-0.1s0.5,0.9,0.2,1.2c-0.8,0.9-1.9,1.3-2.7,2.2
			c-0.4,0.6-0.8,1.3-1.2,1.9c0,0.6,0,1.2-0.1,1.8c0.9-1.8,2.1-3.3,3.7-4.1c1.3-1.6,2.8-3.4,4.5-3.7c0.6-0.1,1.1,0.2,1.4,0.7h0.4
			c0.4,0.1,0.5,0.9,0.1,1.2l-0.2,0.1l-0.1,0.5c-0.2,0.5-0.5,0.9-0.8,1.3c0.6-0.5,1.4-0.6,2.2,0c0.5,0.4,0.5,1.4,0.1,1.7
			c0.4-0.2,0.8-0.4,1.3-0.5c0.8-0.1,1.6,0.9,1.1,1.8v0.1l0.9,0.2c0.5,0.2,0.5,0.9,0.1,1.2c-0.9,0.6-1.6,1.2-2.1,2v0.7
			c-0.4,0.5-0.8,1-1.2,1.5l-0.1,0.2c0.8-0.6,1.5-1.2,1.9-1.5l0,0c0.2-0.5,0.5-1,0.8-1.4c1.1-1.3,3.2-2.7,4.7-1.5
			c0.5,0.4,0.5,1.3,0.1,1.8l-0.1,0.1h0.1l0.2,0.6h0.1l0.2-0.1c0.4-0.2,0.7,0.4,0.4,0.7l-0.2,0.2v0.5v1.1c-0.5,0.6-1.1,0.8-1.7,0.7
			l-0.4,0.6c-0.3,0.5-0.4,1.1-0.6,1.7c0.9-1.4,2.3-2.4,3.4-3.6c0.4-0.4,0.9,0.3,0.6,0.7l-0.9,1.3l0.6-0.2c0.4-0.2,0.6,0.7,0.2,0.9
			c-0.8,0.4-1.3,1.1-1.5,2.1c-0.1,0.5-0.8,0.7-1.1,0.3l-0.2-0.5l-0.4,0.5c-0.4,0.5-0.9,0.1-1.1-0.4l-0.2,0.4
			c-0.3,0.7-1.4,0.7-1.6-0.1c-0.2-0.5-0.2-1-0.1-1.5c-0.2,0.7-0.2,1.5,0.2,2c0.5,0.8,0.2,2.2-0.8,2c-1.2-0.2-1.8-0.9-2-1.8l-0.4,0.5
			l-1,0.1l-0.2,0.3c-0.2,0.5-0.6,1-1.1,0.9c-1.4-0.2-1.4-1.4-1-2.6l-0.4,0.4c-0.2,0.4-0.4,0.9-0.7,1.2c-0.3,0.6-0.5,1.2-0.6,1.9
			c-0.1,0.6-0.7,1.2-1.2,0.8c-0.6-0.5-0.8-1.2-0.8-1.8c-0.5,0.2-1.1,0.3-1.6,0.4c-0.3,0.3-0.7,0.5-1.1,0.2h-0.6c-0.6,0-1.3,0-1.9,0
			h-0.2h-0.4c-0.7,0-1.4-0.1-2.1-0.3c-0.8,1-2.2,0.7-2.6-0.4c-0.4-0.1-0.8-0.1-1.3-0.2l0,0c-0.5,0.5-1.3,0.4-1.7-0.3
			c-0.5,0-1.1-0.2-1.7-0.2l0,0l0.2,0.5l-0.5,0.5l-0.2-0.4l-0.2,0.3c-0.8,0.9-2,0-2-1.2l0,0h-1c-0.4,0.5-1.1,0.8-1.5,0.3l0,0
			l-0.1-0.4c-0.7,0-1.3,0-2,0l-0.2,0.2l-0.4-0.2c-0.7,0-1.4,0-2.1-0.1l0,0c-0.3,0.6-1,0.5-1.3,0c-1.3,1.2-3.5,1.5-4.8,1.4l-0.6-0.5
			l-0.6,0.2c-0.6,0.3-1.1-0.2-1-0.9h-0.2c-0.9,0.7-2.1,0.9-3.1,0.5l-1,0.1c-0.5,0-0.7-0.6-0.3-1l0.5-0.3l0.3-0.3l-0.7-0.1l-0.8,0.6
			c-0.3,0.7-0.7,1.4-1.1,2c-0.6,1-1.9,0-1.4-1.1c0.2-0.6,0.5-1.2,0.8-1.7l0,0c-0.7,0.8-1.4,1.5-2.2,2.2l-0.4-0.7l0.9-0.9l-0.8,0.4
			h-0.4c-0.2,0.6-0.7,1.2-1.4,0.8l-0.4-0.3c-0.4,0.5-0.8,1-1.1,1.5c-0.3,0.5-1,0-0.7-0.5s0.7-1.1,1.1-1.5c-0.5-0.5-0.9-1-1.3-1.5
			v0.1c0,0.7-0.6,1.1-1.1,1.1c-0.8,0.9-1.8,1.7-2.8,2.4l-0.3-0.6l0.3-0.3l-0.1,0.1l-0.2,0.2l0,0c-0.5,0.3-1.1,0-1.4-0.6
			c-0.3-0.4-0.4-1.1,0-1.5l0.6-0.6h-0.6c-0.1,0.6-0.4,1.2-1,1.4c-0.7,0.3-1.7,0.3-2.8,0.2c-0.1,0.4-0.3,0.8-0.8,0.9
			c-1.7,0.2-3.2-0.4-4.8-1.1c-0.5-0.2-1.1-0.5-1.6-0.7l0.1,0.2c0.1,0.4-0.1,0.9-0.4,1.1l0.2,0.2c0.4,0.6,0.2,1.6-0.5,1.7
			c-1.3,0.4-2.6-0.4-3.8-1c-1.1-0.6-2.3-1.2-3.4-1.9l-0.4-1l-0.4-0.7c-1.2,0.5-2.3,0.5-3.3-0.5l0,0c-0.3,0.3-0.6,0.5-1.1,0.4
			c-0.8-0.3-1.2-0.2-1.9-1.1l-0.3-0.8l-0.1,0.2c-0.6,1.2-1.9,0.9-2.5,0c-0.1,1.1-1.1,2.1-2,1.6l-0.6-0.4l-1-0.4l0,0l-0.5-0.2
			l-0.6-0.8l-0.4-0.3l-0.4-0.2v0.2c-0.1,1.5-1.8,1.6-2.1,0.3h-0.1l-0.7,0.2l-0.6-0.4c0.3,0.6,0.1,1.4-0.3,1.9c1,0.1,1.9,0.3,2.9,0.7
			c0.5,0.2,0.4,1.1-0.2,1.1c-4.9-0.7-9.9-0.5-14.7-1.5c-0.4-0.1-0.4-0.9,0-0.8c0.9,0.1,1.8,0.2,2.7,0.2c-1.1-0.2-2.2-0.3-3.4-0.6
			v0.9c0.4,0.3,0.8,0.6,1.2,1c0.4,0.3,0,1-0.4,0.7s-0.9-0.5-1.4-0.8l-0.8,0.3c-2.3,0-4.7-0.1-7-0.8c-1.5-0.2-2.9-0.5-4.4-0.8
			c-3.6,0.5-7.1,0.8-10.7-0.1c-1.5-0.4-1.4-2.9-0.1-3.6c-0.2-0.5,0-1.2,0.5-1.3c1.7-0.5,3.6,0,5.4,0.3l0,0c-0.7-0.6-0.4-2,0.5-2
			c0.6,0,1.4,0.2,2.1,0.4v-0.1c-0.2-0.5-0.2-1.1,0.2-1.4l0.4-0.2c0.1-0.4,0.4-0.8,0.8-0.6l0.2,0.2c0.4,0,0.8,0,1.1,0.1
			c-0.2-0.5,0-1.2,0.6-1.4h0.3l0.1-0.1l0.8-0.3c0.4-0.5,1-0.8,1.7-0.5c-0.3-0.6-0.1-1.4,0.5-1.6c1.1-0.3,2.1-0.1,3,0.4h0.3l0.6,0.1
			c-0.4-0.5-0.7-1-0.9-1.5c-0.5-1.2,0.4-2.4,1.5-2.1c0.6,0.1,1.1,0.6,1.7,1.2h0.6l0,0c0.2-0.5,0.5-0.9,1-0.8
			c1.2,0.2,2.1,1.1,2.9,2.2c0.5,0.3,0.9,0.7,1.4,1c-1.1-2-2.4-3.8-3.5-5.8c-0.5-0.9,0.7-1.8,1.3-1.1c0.8,1.2,1.7,2.5,2.3,3.8v-0.9
			c-0.6-1.3-1.2-2.7-1.1-3.9c0.1-0.7,0.7-1.4,1.3-1.1c0.6,0.2,1,0.8,1.3,1.4l0.6-0.5h0.1c0.3-1.5,1.3-3.6,2.4-3.6
			c0.4-0.8,0.8-1.4,1.5-1.7c0.4-0.1,1,0.2,1.2,0.6c0.6,1.8-0.4,4.5-0.9,6.7l0.4,0.7h0.1c-0.1-2.1,0.4-4.1,1.7-5.8l1.1-0.4h0.1
			c0.3-0.6,0.6-1.2,1.1-1.7c0.3-0.4,1-0.6,1.5-0.4c2.2,1.1,0,4.1-0.6,5.9l0.2,1.2c0.5-1.4,1.1-2.6,1.9-3.7c0.4-0.5,0.8-0.3,1.2,0
			c0.6-0.8,1.3-1.3,2.1-1.1l0.2-0.3c0.5-0.7,1.4,0.2,1,1c-0.6,1.1-1.2,2.3-1.7,3.5c0.7,0.4,1.2,1.2,1.5,2.1c0.8-0.7,1.5-1.5,2.2-2.2
			l0.4-0.6h0.1c2.2-2.8,3.9-6.2,5.2-9.9c3.7-10.4,4-22.2,5.3-33.3c3-25.5,2.3-50.5,0.3-76.1c-0.6-7.7-1.5-17.6-5.6-24.1l-0.3-0.5
			c-1.1-1.5-2.4-2.8-3.9-3.8c-1.1,0.2-2.2,0-3.2-0.8c-0.4-0.3-0.6-0.8-0.8-1.2h-0.2l-0.8-0.2c-0.6-0.2-1.3-0.3-1.9-0.5l-0.9-0.1
			c-0.6-0.1-1.3-0.2-1.9-0.3l-0.8-0.1h-0.4c-0.8,0.1-1.6,0.1-2.3-0.1c-1.6,0-3.2-0.1-4.8-0.1c-1,0-1.9,0-2.9,0
			c-0.6,0.3-1.1,0.5-1.6,0.6c-1,0.2-2.3,0-3-0.8h-0.2l-0.6,0.9c-1.1,1.1-2.1,1.4-3,0.9c-1.9,2.1-4.4,3.4-6.1,1.4
			c-1.9,0.9-3.8,1.5-5.6,0c-1.3-1.1-1.2-2.8-0.7-4.4c-0.6,0-1.2,0-1.8-0.1c-3,1.9-8.5,3.9-8.7-0.5c-0.1-1.6,0.7-1.6,0-3.1
			c-0.2-0.5-0.8-0.6-1.5-0.5l-0.2,0.6c-0.6,1-1.3,1.7-2.2,2.4c-0.7,0.5-1.7,0.5-2.5,0.1c-1.1-0.6-1,0.5-1.5,1.8
			c-0.9,2.1-2.8,3.4-4.7,3.4c-2.1,0-4.3-0.2-5.2-2.9c-0.3-1,0-2.1,0.3-3c0.2-0.7,0.4-1.6,0.3-2.4c-0.1-0.5-0.5-2.1-0.7-0.8
			c-0.4,2.4-2.9,4.6-5,3.9c-0.8-0.2-1.8-0.9-2.6-0.8c-0.6,0.1-1.1,0.6-1.7,0.8c-0.8,0.2-1.7,0.5-2.5,0l-0.7-0.5l-0.3-0.4l-0.2-0.3
			l-0.3-0.7v-0.1l-0.2-1c-0.2-1.1,1.1-2.5,0.4-3.3l-0.1,0.1c-0.4,0.6-0.8,1.2-1.2,1.7c-1.7,2.3-3.9,4.4-6.1,3.1
			c-2.3,1.7-5.8,2.5-7.7,0c-1.3-1.7-1.5-3.8-0.7-5.9c0.6-1.5,0.9-1.6-0.5-1.8c-0.8-0.1-1.5-0.3-2.2-1c-0.8-0.8-0.8-2.1-0.2-3.1
			c0.7-1,2.9-2.4,2.1-3.6l-0.2,0.4c-1.7,2.5-4.2,3-6.7,3.4c-0.8,0.1-1.8-0.7-1.7-1.7c0-0.7,0.3-2-0.2-2.6c-0.4-0.4-1.5-1.6-2.1-1.2
			c-1.3,0.9-2.3,2.1-3.7,2.8c-2.3,1.2-5.6,2.1-7.9,0.2c-1.9-1.6-3.8-5-2-7.7C1454.8,435.7,1455.9,435.2,1457.2,434.8z M1710.1,425
			l0.3,0.6l0.2,0.3h0.5c0.1-0.6,0.3-1.3,0.6-1.8c-0.5-0.1-1.1-0.5-1.6-0.8l-0.1,0.8L1710.1,425z M1662,628.7
			c0.2-0.6,0.4-1.3,0.7-1.9l-0.4,0.4c-0.4,0.5-0.8,1.1-1.1,1.7L1662,628.7z M1658.4,623.1l0.6,0.2c0.3-0.6,0.6-1.2,1-1.7
			C1659.5,622.1,1658.9,622.5,1658.4,623.1L1658.4,623.1z M1652.7,628.5l0.4-0.7l-0.6,0.6L1652.7,628.5z M1643.5,625.2
			c0.1-0.6,0.2-1.3,0.4-1.9c-0.4,0.6-0.7,1.2-1.1,1.7L1643.5,625.2z M1635.4,617.2c0.1-0.5,0.2-1,0.4-1.4l-0.4,0.8V617.2z
			 M1597.6,349.1l0.4,0.2v-0.1L1597.6,349.1z M1597.5,361.2l0.5-0.5l-0.1-0.3l-0.6,0.6L1597.5,361.2z M1542.7,626.5L1542.7,626.5
			L1542.7,626.5L1542.7,626.5z M1543.3,627.1l0.3,0.6l0.5,0.2L1543.3,627.1z M1539.9,369.7v-0.2h-0.1L1539.9,369.7z M1520.7,346.4
			h-0.9c0.1-0.4,0-0.3-0.2,0.3v0.1C1519.9,346.7,1520.3,346.5,1520.7,346.4z M1513.8,364.8l-0.1,0.5L1513.8,364.8z"/>
		<path style="clip-path:url(#SVGID_00000053509921363446795860000012539633216884953733_);fill:#606060;" d="M1677.6,212.6v-0.1
			V212.6z"/>
		<polygon style="clip-path:url(#SVGID_00000053509921363446795860000012539633216884953733_);fill:#606060;" points="1652,-1.1 
			1652.1,-1.1 1652.1,-1.2 		"/>
		<path style="clip-path:url(#SVGID_00000053509921363446795860000012539633216884953733_);fill:#606060;" d="M1638.6,104.1
			L1638.6,104.1L1638.6,104.1z"/>
		<path style="clip-path:url(#SVGID_00000053509921363446795860000012539633216884953733_);fill:#606060;" d="M187.8,299.6l0.9-0.7
			l-1.1-0.3l0,0L187.8,299.6z M137.2,608.2c0.9,1.3,1.8,2.5,2.8,3.7C139.3,610.5,138.3,609.3,137.2,608.2z M128.7,415.1l0.1-0.2
			l-0.3,0.1L128.7,415.1z M93.9,385.4c0.1-0.6,0.3-1.1,0.5-1.7c-0.4,0-0.8,0.2-1.2,0.2C93.4,384.4,93.6,384.9,93.9,385.4z
			 M56.5,356.2c0.5-1.5,1.3-3,2.3-4.1c-0.9-0.2-2-0.3-2.6-0.2c0.1-0.6,0-0.4-0.2,0.5l-0.1,0.7c-0.2,1.1-0.4,2.3-0.7,3.3
			C55.7,356.3,56.1,356.2,56.5,356.2z"/>
		<polygon style="clip-path:url(#SVGID_00000053509921363446795860000012539633216884953733_);fill:#606060;" points="1577.7,643.6 
			1434.7,616.9 1373.1,615.5 1245.7,612.2 1025.4,601.6 807.7,611.2 590.7,593.7 403.5,616.9 204.7,609.2 211.7,768.2 1577.7,768.2 
					"/>
		
			<rect x="183.7" y="724" style="clip-path:url(#SVGID_00000053509921363446795860000012539633216884953733_);fill:#606060;" width="1426.3" height="44"/>
		<polygon style="clip-path:url(#SVGID_00000053509921363446795860000012539633216884953733_);fill:#606060;" points="162.3,606.4 
			0,618.3 0,768.2 234.8,768.2 230.9,625.7 		"/>
		<polyline style="clip-path:url(#SVGID_00000053509921363446795860000012539633216884953733_);fill:#606060;" points="
			1426.4,613.7 1610,630.5 1610,768 		"/>
		<polygon style="clip-path:url(#SVGID_00000053509921363446795860000012539633216884953733_);fill:#606060;" points="162.3,606.4 
			204.7,609.2 205.2,621.6 		"/>
		<polyline style="clip-path:url(#SVGID_00000053509921363446795860000012539633216884953733_);fill:#606060;" points="
			1433.9,616.9 1399.2,616.1 1425.8,613.7 1610,630.5 1610,768 		"/>
		
			<rect y="768.2" style="clip-path:url(#SVGID_00000053509921363446795860000012539633216884953733_);fill:#606060;" width="1610" height="197.8"/>
	</g>
</g>
</svg>
