<?xml version="1.0" encoding="utf-8"?>
<!-- Generator: Adobe Illustrator 27.7.0, SVG Export Plug-In . SVG Version: 6.00 Build 0)  -->
<svg version="1.1" id="Layer_1" xmlns="http://www.w3.org/2000/svg" xmlns:xlink="http://www.w3.org/1999/xlink" x="0px" y="0px"
	 viewBox="0 0 1610 768" style="enable-background:new 0 0 1610 768;" xml:space="preserve">
<polygon points="-75.4,302.1 -75.4,302 -75.4,302.1 "/>
<polygon points="-49.9,88.4 -49.9,88.4 -50,88.3 "/>
<polygon points="-36.4,193.6 -36.4,193.5 -36.4,193.6 "/>
<polygon points="28.8,748.2 170.1,713.6 231,711.8 356.9,707.5 574.6,693.9 789.6,706.2 1004,683.6 1189.1,713.6 1385.4,703.6 
	1378.5,909.7 28.8,909.7 "/>
<polyline points="1401.8,699 1642.4,718.1 1694.2,714.3 1694.2,968.7 327.4,968.7 327.4,858.1 285.4,853.7 "/>
<path d="M28.8,748.2C-6,737-6,737-6,737"/>
<polyline points="111.5,728 -6,710.1 -6,968.7 353,968.7 "/>
<rect x="291" y="903" width="70" height="41"/>
</svg>
