<?xml version="1.0" encoding="utf-8"?>
<!-- Generator: Adobe Illustrator 27.7.0, SVG Export Plug-In . SVG Version: 6.00 Build 0)  -->
<svg version="1.1" id="Layer_1" xmlns="http://www.w3.org/2000/svg" xmlns:xlink="http://www.w3.org/1999/xlink" x="0px" y="0px"
	 viewBox="0 0 1610 768" style="enable-background:new 0 0 1610 768;" xml:space="preserve">
<path d="M-75.4,302.1V302V302.1z"/>
<polygon points="-49.9,88.4 -49.9,88.4 -50,88.3 "/>
<path d="M-36.4,193.6v-0.1V193.6z"/>
<polygon points="28.8,748.2 170.1,713.6 231,711.8 356.9,707.5 574.6,693.9 789.6,706.2 1004,683.6 1189.1,713.6 1385.4,703.6 
	1378.5,909.7 28.8,909.7 "/>
<polyline points="1401.8,699 1642.4,718.1 1694.2,714.3 1694.2,968.7 327.4,968.7 327.4,858.1 285.4,853.7 "/>
<rect x="291" y="903" width="70" height="41"/>
<polyline points="91.8,732.8 -17.8,747.1 -17.8,909.7 -17.8,968.7 327.4,968.7 "/>
<rect x="236.7" y="892.6" width="124.1" height="76.1"/>
</svg>
