<?xml version="1.0" encoding="utf-8"?>
<!-- Generator: Adobe Illustrator 27.7.0, SVG Export Plug-In . SVG Version: 6.00 Build 0)  -->
<svg version="1.1" id="Layer_1" xmlns="http://www.w3.org/2000/svg" xmlns:xlink="http://www.w3.org/1999/xlink" x="0px" y="0px"
	 viewBox="0 0 1610 966" style="enable-background:new 0 0 1610 966;" xml:space="preserve">
<style type="text/css">
	.st0{clip-path:url(#SVGID_00000062158451542386382480000011856243553659267207_);fill:#A0A0A0;}
	.st1{fill:#A0A0A0;}
</style>
<g>
	<defs>
		<rect id="SVGID_1_" width="1610" height="966"/>
	</defs>
	<clipPath id="SVGID_00000099626287541653103090000012649684008596826521_">
		<use xlink:href="#SVGID_1_"  style="overflow:visible;"/>
	</clipPath>
	<path style="clip-path:url(#SVGID_00000099626287541653103090000012649684008596826521_);fill:#A0A0A0;" d="M-64.4,127.1
		L-64.4,127.1L-64.4,127.1z"/>
	<path style="clip-path:url(#SVGID_00000099626287541653103090000012649684008596826521_);fill:#A0A0A0;" d="M-25.4,18.6L-25.4,18.6
		L-25.4,18.6z"/>
	<polygon style="clip-path:url(#SVGID_00000099626287541653103090000012649684008596826521_);fill:#A0A0A0;" points="39.8,573.2 
		181.1,538.6 242,536.8 367.9,532.5 585.6,518.9 800.6,531.2 1015,508.6 1200.1,538.6 1396.4,528.6 1389.5,734.7 39.8,734.7 	"/>
	<polyline style="clip-path:url(#SVGID_00000099626287541653103090000012649684008596826521_);fill:#A0A0A0;" points="1412.8,524 
		1653.4,543.1 1705.2,539.3 1705.2,793.7 338.4,793.7 338.4,683.1 296.4,678.7 	"/>
	
		<rect x="-64.4" y="540.6" style="clip-path:url(#SVGID_00000099626287541653103090000012649684008596826521_);fill:#A0A0A0;" width="1795.4" height="346.4"/>
	<polyline style="clip-path:url(#SVGID_00000099626287541653103090000012649684008596826521_);fill:#A0A0A0;" points="181.1,538.6 
		5.1,531 5.1,743 151.5,743 152.5,729.5 	"/>
	<polyline style="clip-path:url(#SVGID_00000099626287541653103090000012649684008596826521_);fill:#A0A0A0;" points="5.1,531 
		-64.4,534.1 -64.4,540.6 5.1,545.3 	"/>
	
		<rect y="887" style="clip-path:url(#SVGID_00000099626287541653103090000012649684008596826521_);fill:#A0A0A0;" width="1610" height="79"/>
</g>
<path class="st1" d="M281,419.8c1.2,2,0.7,4.3-1,5.6c0.1,0.3,0.2,0.7,0.2,1l0,0c0.3,3-1.6,5.2-4.4,4.8c-0.6,0.8-1.4,1.3-2.4,1.2
	c-0.5-0.1-0.9-0.3-1.4-0.6c0,0.1-0.1,0.3-0.1,0.7c0,0.2,0.1,0.4,0.2,0.7l0.3,0.4c0.2,0.2,0.3,0.4,0.4,0.7c0.2,0.7-0.5,1.7-1,2
	c-1.4,0.8-2.8,1.7-4.3,2.2l-0.3,0.2l0.2,0.4l0.1,0.3l0.3,0.5c0.6,0.8,1.3,1.6,1.7,2.6c0.5,1.6-0.7,2.9-1.9,3.4
	c-0.7,0.3-1.5,0.4-2.4,0.5c-0.4,0.2-0.8,0.4-1.2,0.6c0.7,1,0.9,2.2,0.4,3.8c-0.8,2.2-3.7,2.1-5.6,1.6c-0.8,0.6-1.6,0.7-2.5,0.4v0.1
	l0.2,0.4h0.2c0.1,0.3,0.2,0.7,0.2,1v0.1v0.2v0.6l-0.1,0.2l-0.2,0.6c0.4,0.8,0.2,0.7,1.1,0.9c1.3,0.2,2.6,2,2.9,3.4
	c0.1,0.4,0.1,0.7,0.1,1.1c0.2,2.4-1.4,4-3.4,4.2c-0.1,0.3-0.2,0.6-0.3,1l0,0c-1.1,2.8-3.7,3.5-6,1.5c-0.8,0.3-1.6,0.3-2.4-0.3
	l-0.2,0.2c-0.5,1.3,0.2,1.2,0.2,2.5c0.1,3.6-4.7,2.5-7.5,1.3c-0.3,0.1-0.5,0.1-0.8,0.1c0.1,0.7,0.2,1.4,0.1,2.1
	c-0.1,0.7-0.5,1.2-1,1.5l-0.2,0.5c-1.5,1.5-3.1,1.1-4.8,0.6c-1.3,1.9-3.6,1.1-5.4-0.5c-0.7,0.4-1.7,0.3-2.7-0.4
	c-0.9-0.7-1.4-1.8-1.8-2.9c-1.6,0.3-3-0.3-4.2-1.6c-0.7,0.2-1.2,0.3-1.9,0.2c-0.3,0.1-0.6,0.1-0.9,0.1c-0.8,0-2.4-0.7-2.9,0.1
	c-0.2,0.3-0.2,0.6-0.3,0.7c-0.1,0.6,0.3,0.8,0.2,1.8c-0.2,3.6-4.9,2-7.6,0.4h-0.4l-0.2,0.1c-0.3,0.1-0.6,0.2-0.9,0.4
	c0.3,1.2,0.3,2.4-0.7,3.2c-1.3,1.1-2.8,0.9-4.2,0.3c-1,1.9-2.2,3.7-2.8,5.8c-0.5,2.1-0.7,4.2-0.7,6.4c-0.2,10,2.2,19.7,3,29.6
	c0.2,2.9,0.4,6.7,1.3,9.8l0.1-0.2c0.4-3.1,0.5-6.3,2-9.1c0.2-0.4,0.8-0.1,0.6,0.4l-0.2,0.4v0.1c-0.5,2.2-0.7,4.4-0.7,6.6
	c0.5-2.5,1.4-5,2.6-7.2c0.2-0.3,0.5,0,0.4,0.3c-1.6,4.3-2.2,8.7-2.4,13.3l0.2,0.2c-0.1-1.3,0.5-3,0.7-3.9c0.5-2.6,1.5-4.8,3-6.9
	l0.1,0.1l-0.3,0.6c0.4-0.6,0.8-1.2,1.1-1.9c0.2-0.3,0.6-0.1,0.5,0.3c-0.8,2.2-2.1,4.2-2.5,6.6c-0.1,0.7-0.2,1.5-0.3,2.3
	c1-2.2,2.4-4.2,4.2-5.3c0.2-0.1,0.4,0.2,0.2,0.4l-0.5,0.6c0.2-0.1,0.4,0.1,0.3,0.3c-0.2,0.3-0.3,0.6-0.4,0.8c0.3-0.3,0.7-0.7,1-1.1
	l0.3,0.4c-1,1.5-2,3-2.8,4.7c-0.5,1.2-0.8,2.3-1,3.5l0.3-0.7c0.8-1.4,1.8-2.8,3.2-3.5l0.3,0.4l-0.1,0.1c0.4-0.2,0.9-0.4,1.3-0.6
	l0.2,0.3c-1.2,0.7-2.2,1.9-2.9,3.3c0.4-0.3,0.7-0.7,1-1l0.3,0.3c-0.9,1.2-2,2.4-2.4,3.8c-0.1,0.3-0.1,0.7-0.2,1l-0.2,0.4l-0.1,0.2
	c-0.1,0.7-1,0.9-1.1,0.2l0,0c-0.8,0.7-2.3,1-2.9,1.1c1.6,2.2-1,2.9-2.5,3.1c-1.9,0.3-3.7,1-5.6,1H196l0.1,0.1v0.2
	c-0.4,0-0.8,0-1.1-0.1c-0.8-0.1-2.1,0.1-2.7-0.6c-0.2-0.3-0.3-0.7-0.4-1h-0.2c0.1,0.2,0.1,0.5,0.1,0.7h-0.1l-0.3-0.2
	c-0.4-0.3-0.7-0.4-1-0.3v-0.1l-0.5,0.1v0.3c-0.2,0-0.5,0-0.7,0.1l-0.3,0.1v-0.2h-0.1v0.2c-0.4,0.1-0.7,0.3-1.1,0.4
	c-0.7,0.8-1,2-2.3,2.1c-1.2,0.1-2.4,0-3.6-0.2c-1.6-0.2-3.3-0.7-4.7-1.7c-0.3-0.2-0.6-0.4-0.8-0.8c-0.3,0.1-0.5,0-0.8-0.2
	c-0.3-0.4-0.1-1.3,0.1-2c-0.7,0.3-1.4,0.6-2.1,0.8c-1.1-0.3-2.2-0.6-3.4-0.9c-0.7,0-1.4-0.1-2-0.1c-1.5-0.2-1.9-0.6-1.8-1.1h-0.1
	c-2.2-2-4.2-3.9-7.2-3.9c-0.2,0-0.3-0.4-0.1-0.4c2.4-0.4,4.4,0.2,6.4,1.5c-0.2-0.4-0.5-0.8-0.8-1.1l0,0c-0.5-0.6-1.2-1-1.9-1.1v-0.2
	l0.5,0.1c-0.4-0.3-0.8-0.6-1.3-0.8c-0.2-0.1-0.2-0.5,0.1-0.4c0.7,0.1,1.3,0.3,1.9,0.6c-1-1.1-2.2-1.8-3.7-1.9v-0.3
	c2.2-0.3,4.4,1,5.9,2.8c0.7,0.8,1.6,1.9,2.1,3.1l0,0c-0.1-0.3-0.1-0.6-0.2-1c-0.2-0.8-0.3-1.7-0.7-2.4c-0.7-1.6-1.7-3.3-3-4.2
	l0.1-0.3c1.6,0.7,2.7,2,3.6,3.5l0.3,0.6v-0.3c-0.3-1.9-1-4.2-2.5-5.2c-0.3-0.2-0.1-0.6,0.2-0.4c1.8,0.8,2.5,3.1,3.1,4.9
	c0.2,0.6,0.6,1.7,0.8,2.8c0.6-3.4,0.4-7.4-2-9.8l0.1-0.2c1.3,0.8,2.2,2,2.7,3.5c0.5,0.9,0.9,1.8,1.2,2.8c0.1-0.2,0.2-0.5,0.2-0.7
	c0-2.1-0.2-4.3-1.2-6.2l0.2-0.2c0.9,1.2,1.4,2.5,1.6,3.9c0.4-2.5,0.4-5.1,0.4-7.6c0.1-6-0.1-12,0-18c0.1-3.3,0.2-6.5,0.5-9.8
	c0.3-2.9,0.1-5.7-0.1-8.5c-0.2-2.9-0.4-5.2-1.6-7.6c-1.2,0.4-2.6,0.1-3.9-0.5c-1.5,1.7-3.7,0.7-5.3-1.1c-0.8,0.3-1.7,0.2-2.7-0.7
	c-0.3-0.3-0.5-0.6-0.7-1c-2,2.6-5.7,4-8.6,3.2c-1.4-0.4-2.5-1.6-3.4-3l-0.6,0.3c-0.9,0.2-1.8-0.1-2.7-0.3c-1-0.2-1.8,0-2.8-0.2
	c-1.7-0.5-2.5-2.4-3-4.2l-0.2-0.3c0.1,1-0.2,2-1,2.8c-1.1,1.1-2.7,1-4.1,0.8c-0.5,1.3-1.8,1.6-3.1,1.2l0,0l0,0
	c-0.5-0.1-1-0.3-1.5-0.5c-1.9,2.9-5.9,4.6-8.9,3.7c-3-0.8-5-5.2-4.4-8.7c-0.5-0.6-0.8-1.3-1.1-2c-2.8-1.2-3.6-4.6-2.4-7.5h-0.1
	c-1.8,2.1-5.8,2.4-7.9,1.7c-1.2-0.4-2.7-1.7-2.2-3.4c0.3-1.1,1-1.9,1.6-2.8c0.2-0.2,0.3-0.6,0.4-1l0.1-0.3l-0.4-0.1
	c-1.5-0.5-3.1-1.2-4.6-2c-0.5-0.3-1.3-1.3-1.1-2.1c0.1-0.2,0.2-0.5,0.3-0.7l0.3-0.5c0.1-0.2,0.2-0.4,0.2-0.7
	c-0.1-0.3-0.1-0.6-0.1-0.7c-0.4,0.3-0.9,0.6-1.4,0.7c-1.1,0.2-2-0.2-2.5-1c-2.9,0.6-5-1.5-4.8-4.7l0,0c0-0.3,0.1-0.7,0.1-1.1
	c-1.8-1.3-2.5-3.6-1.4-5.7c0.2-0.3,0.3-0.6,0.5-1c0.9-1.2,2.8-2,4.2-1.4c1,0.3,0.7,0.3,1.4-0.2l0.1-0.7l0.1-0.2l0.2-0.6l0.1-0.2
	l0.1-0.1c0.2-0.3,0.3-0.6,0.6-0.8l0.2,0.1l0.4-0.3l0.1-0.1c-0.9-0.2-1.7-0.8-2.1-1.7c-2-0.6-4.8-2.1-4.5-4.7c0.2-1.7,0.9-2.7,2-3.3
	c-1.2-1.6-2.2-3.4-1.4-5.3c0.2-0.6,0.5-1.1,0.9-1.4l0,0l0.1-0.1l0,0c0.3-0.3,0.5-0.4,0.8-0.6l0.2-0.1c0.5-0.3,1.2-0.4,1.9-0.4h0.2
	c0.3,0,0.7,0,1-0.1c0.4-1.3,1.4-2,2.7-2.3c-0.2-1.1-0.3-2.1-0.8-2.7c-1.4-1.6,0.3-3.4,1.7-1.9c0.1-0.9,0.2-1.7,0.8-2.3
	c-0.2-0.8-0.2-1.6,0.3-2.4c-0.7-0.7-1-1.7-0.6-2.8c0.1-0.3,0.3-0.5,0.5-0.7c0-1.1,0.1-2.1,0.4-3c0.6-1.6,1.5-2.2,2.5-2.3
	c-1.1-2-1.5-4.3-0.4-6.4c0.8-1.5,0.7-3.1,1.5-4.6c0.9-1.6,2-1.1,3.1-0.7c0.1-1,0.3-1.9,0.8-2.8c-1.9-1.7-3.5-3.9-4.3-6.4
	c-0.2-0.4-0.3-0.8-0.3-1.2l-0.1-0.4l-0.1-0.7v-0.4l0.1-0.6l0.1-0.4l0.2-0.4l0.2-0.4l0.3-0.4l0.3-0.3l0.4-0.3l0.3-0.2l0.5-0.3
	c0.4-0.2,0.8-0.3,1.3-0.4c0.2-2.4,1-5.1,3.1-5.6c1.3-0.3,2.4,0.3,3.5,1.1c0.5,0.4,1.2,1.1,1.5,1.7c0.3-0.3,0.6-0.6,0.9-1.1
	c0.6-0.2,0.6-0.4,0.1-0.7c-0.5-0.6-1.1-1.1-1.5-1.7c-0.8-1.5-1-3.4-0.6-5c0.3-1.4,1.5-2.5,2.7-2.6c1.2-0.2,2,0.1,2.8,0.7
	c0.3-0.2,0.6-0.8,1-1c0.9-0.4,1.7-0.3,2.5,0.2c0.6,0.4,1,1,1.4,1.6c1.7-0.2,3.5,0.3,5,1.3c0.2-0.3,0.5-0.6,0.8-0.9
	c-0.3-1-0.1-2.1,1.1-2.9c0.6-0.3,1.3-0.6,2-0.8c0.3-0.1,0.5-0.2,0.8-0.3l-0.2-0.3c-0.2-0.3-0.3-0.6-0.4-0.8c-1.5,0.2-3,0.2-4.1-0.6
	c-1.8-1.4-2.3-3.3-1.7-5.2c-0.4-0.5-0.5-1.1-0.3-1.9c0.4-1.3,1.6-2.4,2.7-3.2c0-1,0.2-1.8,0.8-2.8l0.4-0.6v-0.2
	c-0.2-0.8-0.3-1.5-0.3-2.3c0.1-2.7,2.9-4.2,4.9-4.5c0.5-0.4,1-0.7,1.5-1.1h0.1l0,0c1.5-0.9,3-1.5,4.7-1.6c0.9-0.1,1.7,0.2,2.2,0.9
	l0.4-0.1c0.3-0.2,0.7-0.3,1-0.3c0.5-0.1,1.1,0,1.6,0.2c0.9,0.3,2,2.1,2.6,2.2c1.8,0.2,2.8-0.1,4.2-1.4c0.9-0.8,1.7-1,2.4-0.8
	c0.4-1.2,1.4-1.9,2.8-2.5c0.7-0.3,1.5-0.4,2.2-0.3c-0.5-1.7-0.7-3.5,0.2-4.9c0.8-1.1,1.7-1.7,3-1.9c0.6-0.1,1.2,0,1.8,0.1
	c0.4,0,0.7,0.1,0.9,0c0.8-0.1,1-0.4,0.6-1.6c-0.6-1.9-0.4-4.8,1.7-5.3c0.3-0.1,0.5-0.1,0.9-0.1l0,0l0,0c1,0.1,2.1,0.8,3.1,1.5l0,0
	l0.7,0.4l0.4,0.3c0.3,0.2,0.6,0.4,0.9,0.6c0.1,0.1,0.4-0.4,0.7-0.8l0.1-0.2l0.4-0.3c1-0.1,1.9,0.2,2.7,0.9c1.2,1,2.6-1.1,3.5-1.8
	c1-0.8,2.1-1,3.3-0.9c0.9,0.1,1.7,1,1.7,2.1c0,1.1-0.2,2.2-0.3,3.4c-0.1,0.5,0.5,1,1.1,1.3c1.7-0.6,3.7-0.2,4.8,1.2
	c0.7-0.8,1.3-1.5,2-2.2c0.8-0.8,1.6-0.7,2.4-0.2c3.7,1.9,4.9,8.5,3.9,13.6c0.7,0.2,1.2,0.7,1.8,1.2c0.7,0.3,1.2,1,1.4,1.9l0.2,0.3
	c0.4-0.2,0.7-0.5,1-0.9c0.6-0.1,0.7-0.3,0.2-0.7c-0.4-0.6-0.9-1.2-1.2-2c-0.5-1.6-0.5-3.5,0.1-5.1c0.5-1.3,1.7-2.1,3-2.1
	c1.2,0,2,0.4,2.7,1.1c0.4-0.2,0.7-0.7,1.1-0.8c0.9-0.2,1.7-0.1,2.5,0.6c0.5,0.4,0.9,1.1,1.1,1.7c2.2,0.1,4.4,1.5,5.8,3.2
	c1.2,1.5,1.7,3.3,1.3,5.3l-0.2,0.6l-0.1,0.2l-0.2,0.3l-0.2,0.2l-0.2,0.2l-0.3,0.2l0,0l0,0l-0.2,0.2l-0.1,0.1l0,0l-0.1,0.1l0.4,0.4
	c0.3,0.4,0.7,1,0.8,1.5l0.2-0.1l0,0c0.7-0.5,1.3-0.6,2.2-0.4c0.5-2.1,2.2-3.5,4.5-3.2c2.7,0.3,3.6,2.8,4,5.3c2.4,1.2,4.2,4,3.3,7.1
	c-0.1,0.3-0.2,0.5-0.3,0.8l0.5,0.1l0,0l0.2,0.1c0.5,0.1,0.9,0.2,1.4,0.4c0.8,0.4,0.7-0.4,1.5-0.7c0.5-0.2,1-0.4,1.5-0.6
	c0.2-0.1,0.4-0.2,0.7-0.2v0.1l0.4-0.1c1.4-0.2,2.1-1.3,3.4-1.5c1.9-0.3,4,0.8,5.4,2c1.5,1.3,2.6,3.1,2.9,5.3
	c0.2,1.7-0.4,2.9-1.1,4.2c0.9,0.5,1.7,1.2,2.3,2.1c1.7-0.7,3.4-0.8,5.2-0.2c1.8,0.7,1.9,2.7,2.5,4.3c1,2.4,2.8,4.3,2.1,7.2l-0.2,0.4
	l0.1,0.3c0.3,1.1,0,2-0.5,2.9c-0.2,0.4-0.7,0.8-1.2,1.1h0.7c0.4,0,0.8,0,1.2,0h0.2c0.4,0,0.7,0.1,1,0.1h0.1l0,0
	c0.7,0.1,1.3,0.3,2,0.7c0.9,0.7,1.4,1.7,1.5,2.8l0.3,0.1l0,0l0.2,0.1l0.4,0.2l0.3,0.1l0.4,0.2l0.3,0.2l0.3,0.2l0.2,0.2l0.2,0.3
	l0.2,0.3l0.2,0.3l0.2,0.4l0.1,0.3l0.1,0.2l0,0v0.1v0.1l0.1,0.3c0,0.2,0,0.5-0.1,0.8c1.8,1.9,2.1,4.9,0,6l0.2,0.4
	c0.3,0.6,0.6,1.9-0.1,2.2c-0.8,0.4-1.5,0.5-2.3,0.5c1.6,2.7,4.6,6.4,2,8.7h-0.1c0.2,0.3,0.5,0.6,0.6,1c0.3,0,0.7,0,0.9,0h0.2
	c0.7,0,1.2,0.1,1.8,0.3l0.2,0.1c0.3,0.1,0.5,0.3,0.8,0.5l0,0l0,0l0.1,0.1l0,0l0,0c0.3,0.3,0.7,0.7,0.9,1.3c0.9,1.7,0.1,3.6-1.1,5.2
	c1,0.5,1.8,1.4,2.1,3c0.3,2.4-2.2,4-4.1,4.7c-0.4,0.9-1,1.6-2,1.8l0.1,0.1l0.4,0.2l0.2-0.1c0.2,0.2,0.4,0.4,0.6,0.7l0.1,0.1l0.1,0.2
	l0.2,0.5l0.1,0.2l0.1,0.6c0.7,0.4,0.5,0.5,1.4,0.1c1.2-0.6,3.1,0.2,4,1.2C280.6,419.2,280.9,419.5,281,419.8z M182.6,353.8
	L182.6,353.8l-0.6,0.2l0.5,0.4L182.6,353.8z M208.4,529.9c0.5-0.7,1.1-1.3,1.5-2.1C209.3,528.4,208.8,529.1,208.4,529.9z
	 M214.6,419.2l-0.2-0.1l0.1,0.1L214.6,419.2z M233.8,401.7c-0.2,0-0.4-0.1-0.7-0.1c0.1,0.3,0.2,0.6,0.3,1
	C233.6,402.2,233.7,402,233.8,401.7z M254.4,386.2c-0.1-0.6-0.2-1.2-0.4-1.9l-0.1-0.4c-0.2-0.5-0.2-0.6-0.1-0.3
	c-0.3-0.1-0.9,0-1.4,0.1c0.6,0.7,1,1.5,1.2,2.3C253.9,386.2,254.1,386.2,254.4,386.2z"/>
</svg>
