<?xml version="1.0" encoding="utf-8"?>
<!-- Generator: Adobe Illustrator 27.7.0, SVG Export Plug-In . SVG Version: 6.00 Build 0)  -->
<svg version="1.1" id="Layer_1" xmlns="http://www.w3.org/2000/svg" xmlns:xlink="http://www.w3.org/1999/xlink" x="0px" y="0px"
	 viewBox="0 0 1610 966" style="enable-background:new 0 0 1610 966;" xml:space="preserve">
<style type="text/css">
	.st0{clip-path:url(#SVGID_00000133509095092421592980000013983663738231571585_);fill:#A0A0A0;}
	.st1{fill:#A0A0A0;}
</style>
<g>
	<defs>
		<rect id="SVGID_1_" width="1610" height="966"/>
	</defs>
	<clipPath id="SVGID_00000034068823800935241210000006745005121084986515_">
		<use xlink:href="#SVGID_1_"  style="overflow:visible;"/>
	</clipPath>
	<path style="clip-path:url(#SVGID_00000034068823800935241210000006745005121084986515_);fill:#A0A0A0;" d="M-64.4,127.1
		L-64.4,127.1L-64.4,127.1z"/>
	<path style="clip-path:url(#SVGID_00000034068823800935241210000006745005121084986515_);fill:#A0A0A0;" d="M-25.4,18.6L-25.4,18.6
		L-25.4,18.6z"/>
	<polygon style="clip-path:url(#SVGID_00000034068823800935241210000006745005121084986515_);fill:#A0A0A0;" points="39.8,573.2 
		181.1,538.6 242,536.8 367.9,532.5 585.6,518.9 800.6,531.2 1015,508.6 1200.1,538.6 1396.4,528.6 1389.5,734.7 39.8,734.7 	"/>
	<polyline style="clip-path:url(#SVGID_00000034068823800935241210000006745005121084986515_);fill:#A0A0A0;" points="1412.8,524 
		1653.4,543.1 1705.2,539.3 1705.2,793.7 338.4,793.7 338.4,683.1 296.4,678.7 	"/>
	
		<rect x="-64.4" y="540.6" style="clip-path:url(#SVGID_00000034068823800935241210000006745005121084986515_);fill:#A0A0A0;" width="1795.4" height="346.4"/>
	<polyline style="clip-path:url(#SVGID_00000034068823800935241210000006745005121084986515_);fill:#A0A0A0;" points="181.1,538.6 
		5.1,531 5.1,743 151.5,743 152.5,729.5 	"/>
	<polyline style="clip-path:url(#SVGID_00000034068823800935241210000006745005121084986515_);fill:#A0A0A0;" points="5.1,531 
		-64.4,534.1 -64.4,540.6 5.1,545.3 	"/>
	
		<rect y="887" style="clip-path:url(#SVGID_00000034068823800935241210000006745005121084986515_);fill:#A0A0A0;" width="1610" height="79"/>
</g>
<path class="st1" d="M1005.3,412.5c1,1.5-0.1,3.4-1.1,4.3c-1.3,1.1-3.1,0.6-4.4-0.1c-0.7-0.4-1.3-1.1-2.1-1.6
	c-0.3-0.2-1,0.4-1.2,0.7c-0.3,0.3-0.2,1-0.1,1.5c0,0.6-0.5,1.1-1,1c-1.5-0.2-2.8-0.5-3.7-1.9l-0.1-0.2c-0.4,0.7,0.8,1.5,1.2,2
	c0.3,0.6,0.3,1.3-0.1,1.7c-0.4,0.3-0.7,0.5-1.2,0.6c-0.8,0.1-0.6,0.2-0.3,1c0.4,1.1,0.3,2.3-0.4,3.3c-1.1,1.4-3,1-4.3,0
	c-1.2,0.7-2.5-0.4-3.4-1.7c-0.2-0.3-0.4-0.7-0.7-1l-0.1-0.1c-0.4,0.5,0.3,1.2,0.2,1.8l-0.1,0.6v0.1l-0.2,0.4l-0.1,0.2l-0.2,0.2
	l-0.4,0.3c-0.4,0.3-1,0.1-1.4,0c-0.3-0.1-0.6-0.4-1-0.4c-0.4-0.1-1,0.3-1.5,0.4c-1.2,0.4-2.5-0.8-2.8-2.2c-0.1-0.7-0.3,0.2-0.4,0.4
	c-0.1,0.4,0.1,1,0.2,1.3c0.2,0.5,0.3,1.2,0.2,1.7c-0.5,1.5-1.7,1.6-2.9,1.6c-1.1,0-2.1-0.7-2.6-1.9c-0.3-0.7-0.2-1.3-0.8-1
	c-0.4,0.2-1,0.2-1.4-0.1c-0.5-0.3-1-0.8-1.2-1.3l-0.1-0.3c-0.3-0.1-0.7,0-0.8,0.3c-0.4,0.8,0,0.8,0,1.7c-0.1,2.5-3.2,1.3-4.9,0.3
	c-0.3,0.1-0.7,0.1-1,0.1c0.2,0.9,0.3,1.8-0.4,2.5c-1,0.8-2.1,0.5-3.1,0c-1,1.2-2.4,0.4-3.4-0.8c-0.5,0.2-1.1,0.1-1.7-0.5l-0.3-0.5
	h-0.2c-0.4,0.4-1.1,0.6-1.7,0.4c-0.3-0.1-0.6-0.2-0.9-0.3c-0.6,0-1.1,0-1.6,0c-0.9,0-1.8,0-2.7,0.1c-0.3,0.1-0.8,0.1-1.3,0.1h-0.1
	l-0.4,0.1c-0.3,0.1-0.7,0.1-1.1,0.2l-0.5,0.1c-0.3,0.1-0.7,0.2-1.1,0.3l-0.4,0.1H938c-0.1,0.2-0.2,0.5-0.4,0.7
	c-0.6,0.5-1.2,0.6-1.8,0.4c-0.8,0.6-1.6,1.2-2.2,2.1l-0.2,0.3c-2.3,3.6-2.8,9.2-3.1,13.5c-1.1,14.3-1.5,28.3,0.2,42.5
	c0.7,6.2,1,12.8,3,18.6c0.7,2.1,1.7,4,2.9,5.5h0.1l0.2,0.3c0.3,0.4,0.8,0.8,1.2,1.2c0.2-0.6,0.4-1,0.8-1.2c-0.3-0.7-0.6-1.3-1-2
	c-0.2-0.4,0.3-0.9,0.6-0.6l0.1,0.2c0.4-0.1,0.8,0.2,1.2,0.6c0.2-0.2,0.4-0.3,0.7,0c0.4,0.6,0.8,1.3,1.1,2.1l0.1-0.7
	c-0.3-1-1.6-2.7-0.3-3.3c0.2-0.1,0.6,0,0.8,0.2c0.2,0.3,0.4,0.6,0.6,1h0.1l0.6,0.2c0.7,1,1,2.1,1,3.2h0.1l0.2-0.4
	c-0.2-1.2-0.8-2.7-0.5-3.7c0.1-0.2,0.4-0.4,0.7-0.3c0.4,0.2,0.6,0.5,0.8,1c0.6,0,1.2,1.2,1.3,2h0.1l0.3,0.3c0.2-0.3,0.4-0.7,0.7-0.8
	c0.3-0.1,0.7,0.2,0.7,0.6c0.1,0.7-0.3,1.5-0.6,2.2v0.5c0.4-0.8,0.8-1.5,1.3-2.1c0.3-0.4,1,0.1,0.7,0.6c-0.6,1.1-1.3,2.1-2,3.2
	c0.3-0.2,0.5-0.4,0.8-0.6c0.4-0.6,1-1.1,1.6-1.2c0.2-0.1,0.4,0.2,0.6,0.4l0,0h0.3c0.3-0.3,0.6-0.6,1-0.7c0.6-0.2,1.1,0.5,0.8,1.2
	c-0.1,0.3-0.3,0.6-0.5,0.8l0.3-0.1h0.2c0.5-0.3,1.1-0.4,1.7-0.2c0.3,0.1,0.4,0.6,0.3,0.9c0.3-0.2,0.7,0,1,0.3l0.4,0.2l0.1,0.1h0.2
	c0.3,0.1,0.4,0.4,0.3,0.8c0.2-0.1,0.4-0.1,0.6-0.1l0.1-0.1c0.2-0.1,0.4,0.1,0.4,0.3l0.2,0.1c0.2,0.2,0.2,0.5,0.1,0.8v0.1
	c0.4-0.1,0.8-0.2,1.2-0.2c0.6,0,0.7,0.8,0.3,1.1l0,0c1-0.2,2.1-0.4,3-0.2c0.3,0.1,0.4,0.4,0.3,0.7c0.7,0.3,0.7,1.8-0.1,2
	c-2,0.6-4,0.3-6,0.1c-0.8,0.2-1.6,0.3-2.5,0.4c-1.3,0.3-2.6,0.4-3.9,0.4l-0.4-0.2c-0.3,0.1-0.5,0.3-0.8,0.4
	c-0.2,0.2-0.4-0.2-0.2-0.4c0.2-0.2,0.4-0.4,0.7-0.6v-0.5c-0.6,0.1-1.2,0.2-1.9,0.3c0.5,0,1.1-0.1,1.5-0.1c0.2,0,0.2,0.4,0,0.4
	c-2.7,0.6-5.5,0.4-8.2,0.8c-0.3,0-0.3-0.5-0.1-0.6c0.5-0.2,1.1-0.3,1.6-0.4c-0.2-0.3-0.3-0.7-0.2-1.1l-0.3,0.2l-0.4-0.1h-0.1
	c-0.2,0.8-1.1,0.7-1.2-0.2v-0.1l-0.2,0.1l-0.2,0.2l-0.3,0.4l-0.3,0.1l0,0l-0.6,0.2l-0.4,0.3c-0.5,0.3-1.1-0.3-1.1-0.9
	c-0.3,0.5-1.1,0.7-1.4,0l-0.1-0.1l-0.2,0.4c-0.3,0.4-0.6,0.4-1.1,0.6c-0.2,0.1-0.4-0.1-0.6-0.2l0,0c-0.5,0.6-1.2,0.6-1.8,0.3
	l-0.2,0.4l-0.2,0.6c-0.6,0.4-1.3,0.7-1.9,1.1c-0.7,0.3-1.4,0.8-2.1,0.6c-0.4-0.1-0.5-0.6-0.3-1l0.1-0.1c-0.2-0.1-0.3-0.4-0.2-0.6
	l0.1-0.1c-0.3,0.1-0.6,0.3-0.9,0.4c-0.9,0.4-1.7,0.7-2.7,0.6c-0.3,0-0.4-0.2-0.4-0.5c-0.6,0.1-1.2,0-1.6-0.1
	c-0.3-0.1-0.5-0.4-0.6-0.8h-0.3l0.3,0.3c0.2,0.2,0.2,0.6,0,0.8c-0.1,0.3-0.4,0.6-0.8,0.3l0,0l-0.1-0.1l-0.1-0.1l0.2,0.2l-0.2,0.3
	c-0.6-0.4-1.1-0.8-1.6-1.3c-0.3,0-0.6-0.2-0.6-0.6v-0.1c-0.2,0.3-0.4,0.6-0.7,0.8c0.2,0.3,0.4,0.6,0.6,0.8s-0.2,0.6-0.4,0.3
	s-0.4-0.6-0.6-0.8l-0.2,0.2c-0.4,0.2-0.7-0.1-0.8-0.4h-0.2l-0.4-0.2l0.5,0.5l-0.2,0.4c-0.4-0.3-0.8-0.8-1.2-1.2l0,0
	c0.2,0.3,0.3,0.7,0.4,1c0.3,0.6-0.4,1.1-0.8,0.6c-0.2-0.3-0.4-0.8-0.6-1.1l-0.4-0.3l-0.4,0.1l0.2,0.2l0.3,0.2
	c0.2,0.2,0.1,0.6-0.2,0.6l-0.6-0.1c-0.6,0.2-1.2,0.1-1.7-0.3h-0.1c0.1,0.4-0.2,0.7-0.6,0.5l-0.3-0.1l-0.3,0.3c-0.8,0-2-0.1-2.7-0.8
	c-0.2,0.3-0.6,0.3-0.7,0l0,0c-0.4,0-0.8,0.1-1.2,0.1l-0.2,0.1l-0.1-0.1c-0.4,0-0.7,0-1.1,0l-0.1,0.2l0,0c-0.2,0.3-0.6,0.1-0.8-0.2
	h-0.6l0,0c0,0.7-0.7,1.2-1.1,0.7l-0.1-0.2l-0.1,0.2l-0.3-0.3l0.1-0.3l0,0c-0.3,0-0.6,0.1-1,0.1c-0.2,0.4-0.7,0.4-1,0.2l0,0
	c-0.2,0.1-0.4,0.1-0.7,0.1c-0.2,0.6-1,0.8-1.5,0.2c-0.4,0.1-0.8,0.1-1.2,0.2h-0.2H895c-0.3,0-0.7,0-1.1,0h-0.3
	c-0.2,0.2-0.4,0.1-0.6-0.1c-0.3-0.1-0.6-0.1-0.9-0.2c0,0.4-0.1,0.7-0.4,1c-0.3,0.2-0.6-0.1-0.7-0.4c-0.1-0.4-0.2-0.8-0.3-1.1
	c-0.1-0.2-0.3-0.4-0.4-0.7l-0.2-0.2c0.2,0.7,0.2,1.3-0.6,1.5c-0.3,0.1-0.5-0.2-0.6-0.5l-0.1-0.2l-0.6-0.1l-0.2-0.3
	c-0.1,0.5-0.4,0.9-1.1,1c-0.6,0.1-0.7-0.7-0.4-1.1c0.2-0.3,0.2-0.7,0.1-1.1c0.1,0.3,0.1,0.6-0.1,0.8c-0.1,0.4-0.7,0.4-0.9,0.1
	l-0.1-0.2c-0.1,0.3-0.3,0.5-0.6,0.2l-0.2-0.3l-0.1,0.3c-0.2,0.2-0.5,0.1-0.6-0.2c-0.1-0.6-0.4-1-0.8-1.2c-0.2-0.1-0.1-0.6,0.1-0.5
	l0.3,0.1l-0.5-0.7c-0.2-0.2,0.1-0.6,0.3-0.4c0.6,0.7,1.4,1.2,1.9,2c-0.1-0.3-0.2-0.7-0.3-1l-0.2-0.3c-0.3,0-0.6-0.1-1-0.4v-0.6v-0.3
	l-0.1-0.1c-0.2-0.2,0-0.6,0.2-0.4l0.1,0.1h0.1l0.1-0.3h0.1l-0.1-0.1c-0.2-0.3-0.2-0.8,0.1-1c0.8-0.7,2,0.2,2.6,0.8
	c0.2,0.2,0.3,0.5,0.4,0.8l0,0c0.2,0.2,0.6,0.4,1.1,0.8l-0.1-0.1c-0.2-0.3-0.4-0.6-0.7-0.8v-0.4c-0.3-0.4-0.7-0.8-1.2-1.1
	c-0.2-0.2-0.2-0.6,0.1-0.7l0.5-0.1v-0.1c-0.3-0.5,0.1-1.1,0.6-1c0.2,0,0.5,0.1,0.7,0.3c-0.2-0.2-0.2-0.8,0.1-1
	c0.4-0.3,0.9-0.3,1.2,0c-0.2-0.2-0.3-0.4-0.4-0.7l-0.1-0.3l-0.1-0.1c-0.2-0.1-0.2-0.6,0.1-0.7h0.2c0.2-0.3,0.4-0.4,0.8-0.4
	c1,0.2,1.8,1.2,2.5,2.1c0.9,0.4,1.6,1.3,2.1,2.3c0-0.3-0.1-0.7-0.1-1c-0.2-0.4-0.4-0.8-0.7-1.1c-0.4-0.6-1.1-0.7-1.5-1.2
	c-0.2-0.2-0.1-0.6,0.1-0.7c0.3-0.1,0.5,0,0.7,0.1c0.1-0.2,0.2-0.4,0.5-0.4c0.1-0.3,0.3-0.5,0.6-0.4c1.3,0.3,2.2,2.1,2.9,3.2
	c0.3,0.4,0.5,0.8,0.7,1.2l0.3,0.1c-0.1-0.2-0.1-0.5-0.2-0.7c-0.2-0.8-0.6-1.6-1-2.2c-0.4-0.8-1.1-1-1.7-1.6
	c-0.4-0.4-0.1-1.2,0.4-1.2c1.6,0,2.5,1.7,3,3.6c0.1-0.2,0.3-0.4,0.6-0.4c-0.7-1.7-1.7-2.9-2.9-4.4c-0.3-0.5,0-1.2,0.5-0.9
	c0.7,0.4,1.3,1,1.9,1.7l0,0c-0.2-0.3-0.3-0.6-0.4-1c-0.1-0.5,0.3-1,0.7-1c0.8,0,1.4,1,1.9,1.7l0.1-0.2c-0.3-0.5,0.1-1.2,0.6-0.9
	l0.4,0.4l0.4,0.3l0.2,0.2c0.4,0.1,0.8,0.4,1.1,0.8v-0.3c0-0.3,0.1-0.5,0.2-0.7v-0.6c0.3-0.9,1.3-0.8,1.8-0.3
	c0.4,0.4,0.7,1.1,0.9,1.8c0.1-0.3,0.1-0.6,0.1-0.8c0.1-0.6,0.7-0.7,1-0.4c0.1-0.2,0.4-0.4,0.7-0.2c0.6,0.4,1,1,1.2,1.6
	c3.6-3.2,6.8-7.4,8.7-12.2c2.2-5.9,1.5-12.4,0.9-18.7c-0.6-6.1-1.5-12-1.1-18.2c0.5-7,1.8-13.7,1.4-20.7c-0.2-3.7-0.6-7.4-1.3-11.1
	c-1.1,0.2-2.7-0.4-3.8-1.1c-0.3,0.1-0.7,0.1-1,0.1c0.2,0.9,0.3,1.8-0.4,2.5c-1,0.8-2.1,0.6-3.1,0c-1,1.2-2.4,0.4-3.4-0.8
	c-0.5,0.2-1.1,0.1-1.7-0.5c-0.5-0.5-0.7-1.2-1-1.8l-0.5-0.1c-0.2-0.1-0.4-0.2-0.7-0.3c-0.6-0.2-1.1-0.6-1.5-1.2
	c-0.7,0.2-1.4,0-2.1-0.4c-0.3-0.1-0.7-0.1-1-0.1c-0.9,0.1-1.7-0.4-2.5-1.1c-0.7,0.7-1.5,0.7-2.5,0.1c-0.6-0.3-1.1-0.8-1.6-1.2
	l-0.1-0.1l-0.3,0.1c-0.2,0.1-1.1,0.7-1.3,0.3c0.8,1.2,1.4,2.9,0.2,4c-0.7,0.8-1.7,0.7-2.6,0.6c-0.3,0.9-1.1,1-2,0.8l0,0h-0.1
	c-0.3-0.1-0.6-0.2-1-0.3c-1.2,2-3.8,3.1-5.8,2.5c-1.6-0.5-2.7-2.5-2.9-4.6l-0.2,0.2c-0.4,0.2-1,0.4-1.4,0.2l-0.4-0.2l-0.3-0.3h-0.1
	l-0.1-0.2l-0.2-0.2l-0.1-0.1l-0.1-0.3l0,0l0,0c-0.2-0.6,0.4-1.5,0-1.9l-0.1,0.1c-0.2,0.3-0.4,0.7-0.6,1.1c-0.8,1.4-1.9,2.7-3.2,2.2
	c-1.2,1.1-3.1,1.8-4.3,0.6c-0.8-0.8-1.1-2-0.7-3.2c0.2-0.8,0.4-1-0.4-1c-0.4,0-0.8-0.1-1.2-0.3c-0.5-0.3-0.6-1.1-0.3-1.7
	c0.3-0.6,1.5-1.6,1-2.2l-0.1,0.2c-0.8,1.6-2.1,2-3.5,2.5c-0.4,0.1-1.1-0.2-1.1-0.8c0-0.4,0.1-1.1-0.3-1.4c-0.2-0.2-1-0.8-1.2-0.5
	c-0.7,0.6-1.2,1.3-1.9,1.8c-1.2,0.8-3,1.6-4.4,0.8c-1.2-0.7-2.3-2.5-1.6-4.1c0.4-0.8,1.1-1.2,1.7-1.6c-0.5-0.8-0.9-1.6-0.5-2.8
	c0.3-1.2,1.3-1.6,2.2-1.9c-0.1-0.3-0.2-0.6-0.2-0.9c-0.1-0.6,0.2-1.3,0.4-1.8c0.3-0.7,0.8-0.9,1.2-1.1c-0.1-0.4-0.1-0.8,0.2-1.4
	c0.2-0.3,0.4-0.6,0.6-0.8l0.2-0.2c0.2-0.1,0.4-0.3,0.6-0.4l0.1-0.1l0,0c0.2-0.1,0.4-0.2,0.6-0.3l0,0c0.2-0.1,0.4-0.2,0.7-0.2
	c0.5-0.2,1-0.2,1.3-0.6l0.5-0.4c-1.7,0.1-2.8-1.2-2.7-3.2l0,0l0.1-0.7c-1.1-0.8-1.6-2.5-0.8-3.9l0.3-0.7c0.6-0.8,1.8-1.4,2.6-1.1
	c0.6,0.2,0.4,0.2,0.9-0.1c0-0.2,0.1-0.4,0.1-0.7l0.1-0.2l0.2-0.4l0.3-0.5h0.2l0.2-0.1l0.1-0.1c-0.6-0.1-1.1-0.6-1.3-1.2
	c-1.3-0.4-3.1-1.5-2.9-3.1c0.1-1.2,0.6-1.8,1.3-2.2c-0.8-1.1-1.4-2.3-0.9-3.6c0.2-0.4,0.3-0.7,0.6-1l0,0l0.1-0.1l0.6-0.4l0.1-0.1
	c0.4-0.2,0.8-0.3,1.2-0.3h0.1c0.2,0,0.4-0.1,0.7-0.1c0.3-1.1,1.2-1.6,2.2-1.7c-0.1-1.3,0.1-2.5,1.2-3.2c1-0.6,2.1-0.4,3,0.2
	c0.6-0.3,1.2-0.2,1.7,0.1l0.1-0.2c0.3-0.5,0.7-0.8,1.2-1l0.5-0.1l0.1-0.6l0.3-0.5c0-0.7,0.1-1.5,0.3-2c0.4-1.1,1-1.5,1.6-1.6
	c-0.7-1.3-1-2.9-0.3-4.3c0.4-1,0.4-2.1,1-3.1c0.6-1.1,1.3-0.7,2-0.5c0.1-0.7,0.2-1.3,0.5-1.9c-1.2-1.1-2.2-2.7-2.8-4.3
	c-0.2-0.5-0.2-1-0.3-1.4V355c0-0.4,0.1-0.8,0.1-1.1l0.1-0.2c0.1-0.3,0.3-0.6,0.5-0.8l0.1-0.1c0.4-0.4,0.9-0.7,1.5-0.8
	c0.1-1.6,0.6-3.5,2-3.8c0.8-0.2,1.5,0.2,2.2,0.7c0.3,0.3,0.7,0.7,1,1.2c0.2-0.2,0.4-0.4,0.6-0.7c0.3-0.1,0.4-0.3,0.1-0.4
	c-0.3-0.4-0.7-0.7-1-1.2c-0.5-1-0.7-2.2-0.4-3.4c0.2-1,1-1.7,1.7-1.8c0.8-0.1,1.3,0.1,1.8,0.4c0.2-0.2,0.4-0.6,0.7-0.7
	c0.6-0.3,1.1-0.2,1.6,0.1c0.4,0.2,0.7,0.6,0.9,1.1c1.1-0.2,2.3,0.2,3.2,0.8l0.4-0.6c-0.2-0.7-0.1-1.5,0.7-2c0.4-0.2,0.8-0.4,1.2-0.6
	l0.5-0.2l-0.1-0.2l-0.3-0.6c-1,0.1-1.9,0.2-2.6-0.4c-1.2-1-1.5-2.2-1.1-3.5c-0.2-0.3-0.3-0.7-0.2-1.2c0.2-0.8,1-1.6,1.7-2.2
	c0-0.7,0.2-1.2,0.5-1.8l0.2-0.4v-0.1c-0.2-0.6-0.2-1-0.2-1.6c0.1-1.8,1.8-2.8,3.2-3c0.3-0.3,0.6-0.5,1-0.7l0,0l0,0c1-0.6,2-1,3-1.1
	c0.6,0,1.1,0.2,1.5,0.6l0.2-0.1c0.2-0.1,0.4-0.2,0.6-0.2c0.3-0.1,0.7,0,1.1,0.1c0.6,0.2,1.2,1.5,1.7,1.5c1.2,0.2,1.8-0.1,2.7-1
	c0.3-0.3,0.6-0.4,0.8-0.6c0.4-0.8,1-1.5,1.8-2c0.2-0.6,0.4-1.1,0.8-1.6c-0.1-0.4-0.1-0.7,0.1-1c0.1-0.3,0.3-0.5,0.4-0.7
	c-0.8-1.5-1.7-3.7-0.7-5.3c0.5-0.8,1.1-1.2,1.9-1.3c0.4-0.1,0.8,0,1.2,0.1c0.2,0,0.4,0.1,0.6,0l0,0c0.4-0.1,0.6-0.3,0.3-1.1
	c-0.4-1.3-0.3-3.3,1.1-3.6h0.6l0,0l0,0c1,0.1,1.9,0.9,2.7,1.6l0.5,0.4c0.1,0,0.2-0.2,0.4-0.5l0.2-0.2l0.2-0.2
	c0.7-0.1,1.2,0.1,1.7,0.6c0.8,0.7,1.7-0.7,2.2-1.2c0.6-0.6,1.4-0.7,2.1-0.6c0.6,0,1.1,0.7,1.1,1.4c0,0.8-0.2,1.6-0.2,2.3
	c0,0.3,0.3,0.7,0.7,0.9c1.1-0.4,2.3-0.2,3.1,0.8c0.4-0.6,0.8-1,1.3-1.6c0.4-0.6,1-0.4,1.6-0.2c2.6,1.5,3.3,6.7,2.2,10.2l0.6-0.2
	c0.8-0.4,1.8,0.4,1.8,1.5c0,0.3,0,0.4-0.1,0.7l0,0v0.2l0.6,0.2l0.3,0.1l0,0l0.6,0.3l0.3,0.1l0.3,0.1l-0.2-0.3
	c-0.3-0.4-0.6-0.8-0.8-1.3c-0.3-1.1-0.3-2.3,0.1-3.4c0.3-0.9,1.1-1.5,2-1.5c0.8,0,1.2,0.3,1.7,0.8c0.2-0.1,0.4-0.5,0.7-0.6
	c0.6-0.2,1.1,0,1.6,0.4c0.3,0.3,0.6,0.8,0.7,1.2c1.4,0.1,2.9,1,3.7,2.1c0.8,1,1.1,2.2,0.8,3.6l-0.3,0.6l-0.1,0.1l-0.6,0.6l-0.1,0.1
	l0,0l-0.1,0.1l0,0l0.2,0.3c0.2,0.3,0.4,0.7,0.5,1l0.1-0.1v0.1c0.4-0.3,0.8-0.4,1.4-0.3c0.3-1.5,1.4-2.4,2.9-2.2
	c1.7,0.2,2.3,1.9,2.5,3.6c1.6,0.8,2.7,2.7,2.1,4.8l-0.2,0.6l0.3,0.1l0,0h0.1c0.3,0.1,0.6,0.1,1,0.3c0.5,0.3,0.4-0.2,1-0.5
	c0.3-0.1,0.7-0.3,1-0.4l0.4-0.2l0,0l0.3-0.1c0.8-0.1,1.4-0.8,2.2-1c1.2-0.2,2.6,0.6,3.5,1.4c1,0.8,1.7,2.1,1.8,3.6
	c0.1,1.2-0.2,2-0.7,2.8c0.6,0.3,1.1,0.8,1.5,1.4c1.1-0.4,2.2-0.6,3.3-0.1c1.2,0.4,1.2,1.8,1.7,2.9c0.7,1.6,1.8,2.9,1.3,4.9l-0.1,0.3
	l0.1,0.2c0.2,0.8,0,1.3-0.3,2c-0.2,0.3-0.4,0.5-0.8,0.7h0.4c0.3,0,0.5,0,0.8,0h0.2l0.6,0.1h0.1h-0.2c0.4,0.1,0.8,0.2,1.2,0.5
	c0.6,0.4,0.9,1.1,1,1.8l0.2,0.1l0,0l0,0c0.3,0.1,0.6,0.2,0.8,0.4l0.1,0.1c0.2,0.2,0.4,0.4,0.6,0.6l0.1,0.1c0.2,0.2,0.3,0.5,0.3,0.8
	v0.1v0.1l0,0v0.1c0,0.2,0,0.5,0,0.8c1.2,1.3,1.3,3.4,0,4l0.2,0.3c0.2,0.3,0.4,1.2-0.1,1.5s-1,0.3-1.5,0.3c1,1.6,2.6,3.9,1.6,5.4
	l0.6,0.1c0.8-0.7,1.9-0.9,2.9-0.4c1.1,0.6,1.3,1.7,1.3,3c1,0.1,1.9,0.4,2.2,1.5c0.2,0,0.4,0,0.6,0h0.1c0.4,0,0.8,0.1,1.2,0.2
	l0.1,0.1l0.6,0.4l0.1,0.1l0,0c0.2,0.2,0.4,0.5,0.6,0.8c0.6,1.2,0,2.5-0.7,3.5c0.7,0.3,1.2,1,1.3,2.1c0.2,1.6-1.4,2.7-2.6,3.2
	c-0.2,0.6-0.7,1.1-1.2,1.2l0.1,0.1l0.2,0.2l0.1-0.1l0.3,0.4l0.2,0.3l0.1,0.2l0.1,0.7c0.4,0.3,0.3,0.3,0.9,0.1c0.8-0.3,2,0.1,2.6,0.8
	l0.3,0.6c0.8,1.3,0.4,2.9-0.7,3.8l0.1,0.7l0,0c0.2,2-0.8,3.3-2.5,3.2c0.3,0.2,0.5,0.5,0.7,0.8c0.3,0.8,0.4,1.4,0.2,2.2
	c-0.1,0.3-0.1,0.6-0.2,0.9l-0.1-0.1l0.1,0.2c0.2,0.3,0.4,0.7,0.6,1c0.2-0.2,0.5-0.2,0.8-0.2c0.1-1,0.4-1.9,1.3-2.1
	c0.5-0.1,1.1,0.1,1.5,0.5c0.4,0.4,0.8,0.3,1.3,0.4c0.2,0,0.4,0.1,0.7,0.1l0,0c0.2,0,0.4,0.1,0.7,0.2l0,0h0.1
	c0.2,0.1,0.4,0.2,0.6,0.3l0.2,0.1c0.3,0.2,0.5,0.4,0.7,0.7c0.3,0.5,0.4,0.9,0.3,1.3c0.5,0.1,1,0.3,1.3,0.9c0.3,0.5,0.6,1.1,0.6,1.7
	c0,0.3,0,0.6-0.1,0.9c1,0.1,2,0.4,2.4,1.6c0.5,1.2,0.2,2-0.2,2.9C1004,411.6,1004.7,411.9,1005.3,412.5z M861.9,405.4l-0.1-0.4
	c-0.3,0.2-0.6,0.4-0.9,0.4c0.2,0.3,0.3,0.7,0.3,1h0.3l0.1-0.2l0.2-0.3L861.9,405.4z M889.2,519.9c-0.2-0.3-0.4-0.7-0.6-1l-0.2-0.2
	c0.2,0.3,0.3,0.7,0.4,1.1L889.2,519.9z M890.8,516.5c-0.3-0.2-0.6-0.5-0.9-0.8c0.2,0.3,0.4,0.7,0.6,1L890.8,516.5L890.8,516.5z
	 M894.1,519.6l-0.3-0.3l0.2,0.4L894.1,519.6z M899.5,517.7c-0.2-0.3-0.4-0.7-0.6-1c0.1,0.3,0.1,0.7,0.2,1.1L899.5,517.7z M903.6,513
	l-0.2-0.4c0.1,0.2,0.1,0.5,0.2,0.8V513z M924.6,363.6L924.6,363.6l0.2-0.1L924.6,363.6z M925,370.1l-0.3-0.3l-0.1,0.2l0.3,0.3
	L925,370.1z M955.4,518.6l0.1-0.1L955.4,518.6L955.4,518.6z M954.8,519.3l0.3-0.1l0.2-0.3L954.8,519.3z M957.2,375L957.2,375
	l-0.1,0.1L957.2,375z M968.5,362.3L968.5,362.3c-0.1-0.4-0.1-0.4-0.1-0.2h-0.5C968.1,362,968.2,362.2,968.5,362.3z M971.7,372.5
	l-0.1-0.3L971.7,372.5z"/>
</svg>
