<?xml version="1.0" encoding="utf-8"?>
<!-- Generator: Adobe Illustrator 27.7.0, SVG Export Plug-In . SVG Version: 6.00 Build 0)  -->
<svg version="1.1" id="Layer_1" xmlns="http://www.w3.org/2000/svg" xmlns:xlink="http://www.w3.org/1999/xlink" x="0px" y="0px"
	 viewBox="0 0 1610 966" style="enable-background:new 0 0 1610 966;" xml:space="preserve">
<style type="text/css">
	.st0{clip-path:url(#SVGID_00000090276097205870783940000009959654719717949831_);fill:#A0A0A0;}
	.st1{fill:#A0A0A0;}
</style>
<g>
	<defs>
		<rect id="SVGID_1_" width="1610" height="966"/>
	</defs>
	<clipPath id="SVGID_00000023271585731301453730000011892921316909156262_">
		<use xlink:href="#SVGID_1_"  style="overflow:visible;"/>
	</clipPath>
	<path style="clip-path:url(#SVGID_00000023271585731301453730000011892921316909156262_);fill:#A0A0A0;" d="M-64.4,127.1
		L-64.4,127.1L-64.4,127.1z"/>
	<path style="clip-path:url(#SVGID_00000023271585731301453730000011892921316909156262_);fill:#A0A0A0;" d="M-25.4,18.6L-25.4,18.6
		L-25.4,18.6z"/>
	<polygon style="clip-path:url(#SVGID_00000023271585731301453730000011892921316909156262_);fill:#A0A0A0;" points="39.8,573.2 
		181.1,538.6 242,536.8 367.9,532.5 585.6,518.9 800.6,531.2 1015,508.6 1200.1,538.6 1396.4,528.6 1389.5,734.7 39.8,734.7 	"/>
	<polyline style="clip-path:url(#SVGID_00000023271585731301453730000011892921316909156262_);fill:#A0A0A0;" points="1412.8,524 
		1653.4,543.1 1705.2,539.3 1705.2,793.7 338.4,793.7 338.4,683.1 296.4,678.7 	"/>
	
		<rect x="-64.4" y="540.6" style="clip-path:url(#SVGID_00000023271585731301453730000011892921316909156262_);fill:#A0A0A0;" width="1795.4" height="346.4"/>
	<polyline style="clip-path:url(#SVGID_00000023271585731301453730000011892921316909156262_);fill:#A0A0A0;" points="181.1,538.6 
		5.1,531 5.1,743 151.5,743 152.5,729.5 	"/>
	<polyline style="clip-path:url(#SVGID_00000023271585731301453730000011892921316909156262_);fill:#A0A0A0;" points="5.1,531 
		-64.4,534.1 -64.4,540.6 5.1,545.3 	"/>
	
		<rect y="887" style="clip-path:url(#SVGID_00000023271585731301453730000011892921316909156262_);fill:#A0A0A0;" width="1610" height="79"/>
</g>
<path class="st1" d="M583.6,413.7c1.2,1.9,0.7,4.1-1,5.3c0.1,0.3,0.2,0.6,0.2,1l0,0c0.3,2.9-1.6,4.9-4.5,4.5
	c-0.6,0.8-1.4,1.2-2.4,1.1c-0.5-0.1-0.9-0.3-1.4-0.5c0,0.1-0.1,0.3-0.1,0.6c0,0.2,0.1,0.4,0.2,0.6l0.3,0.4c0.2,0.2,0.3,0.4,0.4,0.6
	c0.2,0.6-0.6,1.7-1,1.9c-1.4,0.8-2.9,1.6-4.4,2.1l-0.3,0.2l0.2,0.4l0.1,0.3l0.3,0.5c0.6,0.8,1.3,1.5,1.7,2.5
	c0.6,1.5-0.7,2.7-1.9,3.2c-0.7,0.3-1.5,0.4-2.4,0.5c-0.4,0.2-0.8,0.4-1.2,0.5c0.7,1,0.9,2.1,0.4,3.6c-0.8,2.1-3.8,2-5.8,1.5
	c-0.8,0.5-1.7,0.7-2.6,0.4v0.1l0.2,0.4h0.2c0.1,0.3,0.2,0.6,0.2,1v0.1v0.2v0.5l-0.1,0.2l-0.2,0.5c0.4,0.7,0.2,0.6,1.2,0.9
	c1.3,0.2,2.7,1.9,2.9,3.3c0.1,0.4,0.1,0.7,0.1,1c0.2,2.2-1.4,3.8-3.5,4c-0.1,0.3-0.2,0.6-0.3,0.9l0,0c-1.2,2.7-3.8,3.3-6.1,1.4
	c-0.8,0.3-1.6,0.3-2.4-0.3l-0.2,0.2c-0.5,1.2,0.2,1.2,0.2,2.4c0.1,3.4-4.8,2.4-7.7,1.2c-0.3,0.1-0.5,0.1-0.8,0.1
	c0.1,0.6,0.2,1.3,0.1,2c-0.1,0.7-0.5,1.1-1,1.4l-0.2,0.5c-1.5,1.4-3.2,1.1-5,0.5c-1.3,1.8-3.7,1-5.6-0.5c-0.7,0.4-1.7,0.3-2.7-0.4
	c-0.9-0.7-1.4-1.7-1.9-2.7c-1.6,0.3-3.1-0.3-4.3-1.5c-0.7,0.2-1.3,0.3-1.9,0.2c-0.3,0.1-0.6,0.1-0.9,0.1c-0.8,0-2.5-0.7-2.9,0.1
	c-0.2,0.3-0.2,0.5-0.3,0.7c-0.1,0.5,0.3,0.8,0.2,1.7c-0.2,3.4-5.1,1.9-7.8,0.4h-0.4l-0.2,0.1c-0.3,0.1-0.6,0.2-0.9,0.4
	c0.3,1.1,0.3,2.3-0.7,3c-1.3,1.1-2.8,0.9-4.3,0.3c-1.1,1.8-2.3,3.5-2.8,5.6c-0.5,2-0.7,4-0.7,6c-0.2,9.5,2.3,18.7,3.1,28.1
	c0.2,2.7,0.4,6.4,1.3,9.3l0.1-0.2c0.4-3,0.5-6,2.1-8.6c0.2-0.4,0.8-0.1,0.6,0.4l-0.2,0.4v0.1c-0.5,2.1-0.7,4.2-0.7,6.3
	c0.6-2.4,1.4-4.8,2.7-6.8c0.2-0.3,0.5,0,0.4,0.3c-1.7,4.1-2.3,8.3-2.4,12.6l0.2,0.2c-0.1-1.2,0.6-2.9,0.7-3.7
	c0.6-2.5,1.6-4.6,3.1-6.6l0.1,0.1l-0.3,0.6c0.4-0.6,0.8-1.2,1.1-1.8c0.2-0.3,0.6-0.1,0.5,0.3c-0.8,2.1-2.1,4-2.6,6.2
	c-0.1,0.7-0.2,1.4-0.3,2.2c1.1-2.1,2.4-4,4.3-5.1c0.2-0.1,0.4,0.2,0.2,0.4l-0.6,0.5c0.2-0.1,0.4,0.1,0.3,0.3
	c-0.2,0.3-0.3,0.5-0.4,0.8c0.3-0.3,0.7-0.7,1-1l0.3,0.4c-1,1.4-2.1,2.8-2.9,4.4c-0.6,1.1-0.8,2.2-1.1,3.3l0.3-0.6
	c0.8-1.3,1.8-2.7,3.3-3.3l0.3,0.4l-0.1,0.1c0.4-0.2,0.9-0.4,1.3-0.6l0.2,0.3c-1.2,0.7-2.2,1.8-2.9,3.2c0.4-0.3,0.7-0.6,1.1-1
	l0.3,0.3c-0.9,1.2-2,2.2-2.5,3.6c-0.1,0.3-0.1,0.6-0.2,1l-0.2,0.4l-0.1,0.2c-0.1,0.6-1,0.9-1.1,0.2l0,0c-0.8,0.6-2.4,0.9-3,1
	c1.7,2.1-1.1,2.7-2.6,3c-1.9,0.3-3.8,0.9-5.8,0.9h-0.2l0.1,0.1v0.2c-0.4,0-0.8,0-1.2-0.1c-0.8-0.1-2.2,0.1-2.7-0.6
	c-0.2-0.3-0.3-0.6-0.4-1h-0.2c0.1,0.2,0.1,0.5,0.1,0.7h-0.1l-0.3-0.2c-0.4-0.3-0.7-0.4-1-0.3v-0.1l-0.6,0.1v0.3
	c-0.2,0-0.5,0-0.7,0.1l-0.3,0.1v-0.2h-0.1v0.2c-0.4,0.1-0.7,0.3-1.1,0.4c-0.7,0.7-1.1,1.9-2.4,2c-1.2,0.1-2.5,0-3.7-0.2
	c-1.7-0.2-3.3-0.7-4.8-1.7c-0.3-0.2-0.6-0.4-0.8-0.8c-0.3,0.1-0.6,0-0.8-0.2c-0.3-0.4-0.1-1.2,0.1-1.9c-0.7,0.3-1.4,0.6-2.1,0.7
	c-1.1-0.3-2.3-0.6-3.5-0.9c-0.7,0-1.4-0.1-2.1-0.1c-1.5-0.2-1.9-0.5-1.8-1h-0.1c-2.3-1.9-4.3-3.7-7.4-3.7c-0.2,0-0.3-0.4-0.1-0.4
	c2.5-0.4,4.6,0.2,6.6,1.4c-0.2-0.4-0.5-0.7-0.8-1.1l0,0c-0.6-0.5-1.2-1-1.9-1.1v-0.2l0.6,0.1c-0.4-0.3-0.8-0.5-1.3-0.7
	c-0.2-0.1-0.2-0.5,0.1-0.4c0.7,0.1,1.3,0.3,1.9,0.6c-1.1-1-2.3-1.7-3.8-1.8v-0.3c2.2-0.3,4.6,0.9,6.1,2.6c0.7,0.7,1.7,1.8,2.2,3l0,0
	c-0.1-0.3-0.1-0.5-0.2-0.9c-0.2-0.8-0.3-1.6-0.7-2.3c-0.7-1.5-1.7-3.1-3.1-4l0.1-0.3c1.6,0.7,2.7,1.9,3.7,3.4l0.3,0.5v-0.3
	c-0.3-1.8-1-4-2.6-5c-0.3-0.2-0.1-0.6,0.2-0.4c1.8,0.8,2.6,2.9,3.2,4.7c0.2,0.6,0.6,1.6,0.8,2.6c0.6-3.2,0.4-7-2.1-9.3l0.1-0.2
	c1.3,0.7,2.2,1.9,2.8,3.3c0.5,0.9,0.9,1.7,1.2,2.7c0.1-0.2,0.2-0.5,0.2-0.7c0-2-0.2-4.1-1.3-5.9l0.2-0.2c0.9,1.1,1.4,2.3,1.7,3.7
	c0.4-2.3,0.4-4.9,0.4-7.3c0.1-5.7-0.1-11.4,0-17.1c0.1-3.1,0.2-6.2,0.6-9.3c0.3-2.7,0.1-5.4-0.1-8.1c-0.2-2.7-0.4-5-1.6-7.3
	c-1.3,0.4-2.7,0.1-4-0.5c-1.5,1.7-3.8,0.6-5.5-1.1c-0.8,0.3-1.7,0.2-2.7-0.7c-0.3-0.3-0.5-0.6-0.7-0.9c-2.1,2.5-5.9,3.8-8.8,3
	c-1.4-0.4-2.6-1.5-3.5-2.8l-0.6,0.3c-0.9,0.2-1.8-0.1-2.7-0.3c-1-0.2-1.9,0-2.9-0.2c-1.8-0.5-2.6-2.3-3.1-4l-0.2-0.3
	c0.1,1-0.2,1.9-1,2.6c-1.2,1.1-2.7,0.9-4.2,0.8c-0.5,1.3-1.8,1.5-3.2,1.2l0,0l0,0c-0.5-0.1-1-0.3-1.5-0.5c-1.9,2.8-6.1,4.3-9.2,3.5
	c-3.1-0.8-5.2-4.9-4.5-8.2c-0.5-0.6-0.8-1.2-1.2-1.9c-2.8-1.1-3.7-4.4-2.4-7.1h-0.1c-1.9,2-6,2.3-8.1,1.6c-1.3-0.4-2.7-1.6-2.2-3.2
	c0.3-1.1,1.1-1.8,1.7-2.7c0.2-0.2,0.3-0.6,0.4-1l0.1-0.3l-0.4-0.1c-1.6-0.5-3.2-1.2-4.7-1.9c-0.5-0.3-1.3-1.3-1.2-2
	c0.1-0.2,0.2-0.5,0.3-0.7l0.3-0.5c0.1-0.2,0.2-0.4,0.2-0.7c-0.1-0.3-0.1-0.5-0.1-0.6c-0.4,0.3-0.9,0.6-1.4,0.6c-1.1,0.2-2-0.2-2.6-1
	c-3,0.5-5.1-1.4-5-4.4l0,0c0-0.3,0.1-0.6,0.1-1c-1.8-1.2-2.6-3.4-1.4-5.4c0.2-0.3,0.3-0.6,0.6-0.9c0.9-1.1,2.9-1.9,4.3-1.3
	c1,0.3,0.7,0.3,1.4-0.2l0.1-0.6l0.1-0.2l0.2-0.5l0.1-0.2l0.1-0.1c0.2-0.3,0.3-0.5,0.6-0.8l0.2,0.1l0.4-0.3l0.1-0.1
	c-0.9-0.2-1.7-0.8-2.2-1.7c-2.1-0.6-4.9-2-4.6-4.4c0.2-1.7,0.9-2.6,2-3.2c-1.3-1.5-2.2-3.3-1.4-5c0.2-0.6,0.6-1,0.9-1.3l0,0l0.1-0.1
	l0,0c0.3-0.3,0.6-0.4,0.8-0.6l0.2-0.1c0.6-0.3,1.2-0.4,1.9-0.4h0.2c0.3,0,0.7,0,1-0.1c0.4-1.3,1.4-1.9,2.7-2.2c-0.2-1-0.3-2-0.8-2.6
	c-1.4-1.5,0.3-3.3,1.8-1.8c0.1-0.9,0.2-1.7,0.8-2.2c-0.2-0.8-0.2-1.5,0.3-2.3c-0.7-0.7-1.1-1.6-0.6-2.7c0.1-0.3,0.3-0.5,0.5-0.7
	c0-1.1,0.1-2,0.4-2.9c0.6-1.5,1.5-2.1,2.6-2.2c-1.1-1.9-1.5-4.1-0.4-6c0.8-1.4,0.7-3,1.5-4.3c0.9-1.5,2.1-1,3.2-0.7
	c0.1-1,0.3-1.8,0.8-2.7c-1.9-1.6-3.6-3.7-4.5-6c-0.2-0.4-0.3-0.8-0.3-1.2l-0.1-0.4l-0.1-0.6v-0.4l0.1-0.5l0.1-0.4l0.2-0.4l0.2-0.4
	l0.3-0.4l0.3-0.3l0.4-0.3l0.3-0.2l0.6-0.3c0.4-0.2,0.8-0.3,1.3-0.4c0.2-2.2,1-4.9,3.2-5.3c1.3-0.3,2.4,0.3,3.6,1
	c0.6,0.4,1.2,1,1.6,1.7c0.3-0.3,0.6-0.6,0.9-1c0.6-0.2,0.6-0.4,0.1-0.6c-0.5-0.5-1.1-1-1.5-1.7c-0.8-1.4-1-3.2-0.6-4.8
	c0.3-1.3,1.5-2.3,2.8-2.5c1.3-0.2,2,0.1,2.9,0.6c0.3-0.2,0.6-0.8,1.1-1c0.9-0.4,1.7-0.3,2.6,0.2c0.6,0.4,1.1,0.9,1.4,1.5
	c1.7-0.2,3.6,0.3,5.2,1.2c0.2-0.3,0.5-0.6,0.8-0.9c-0.3-1-0.1-2,1.2-2.8c0.6-0.3,1.3-0.5,2-0.8c0.3-0.1,0.6-0.2,0.8-0.3l-0.2-0.3
	c-0.2-0.3-0.3-0.5-0.4-0.8c-1.5,0.2-3.1,0.2-4.2-0.5c-1.8-1.3-2.3-3.1-1.7-5c-0.4-0.5-0.6-1.1-0.3-1.8c0.4-1.2,1.6-2.3,2.7-3
	c0-0.9,0.2-1.7,0.8-2.6l0.4-0.6v-0.2c-0.2-0.7-0.3-1.4-0.3-2.2c0.1-2.6,2.9-4,5.1-4.3c0.5-0.4,1-0.7,1.5-1h0.1l0,0
	c1.5-0.9,3.1-1.4,4.8-1.5c0.9-0.1,1.7,0.2,2.3,0.9l0.4-0.1c0.3-0.2,0.7-0.3,1-0.3c0.6-0.1,1.1,0,1.7,0.2c0.9,0.3,2,2,2.7,2.1
	c1.9,0.2,2.9-0.1,4.3-1.3c0.9-0.7,1.7-1,2.4-0.7c0.4-1.2,1.4-1.8,2.8-2.4c0.7-0.3,1.5-0.4,2.3-0.3c-0.6-1.6-0.7-3.3,0.2-4.6
	c0.8-1.1,1.7-1.7,3.1-1.8c0.6-0.1,1.2,0,1.9,0.1c0.4,0,0.7,0.1,0.9,0c0.8-0.1,1-0.4,0.6-1.5c-0.6-1.8-0.4-4.6,1.8-5.1
	c0.3-0.1,0.6-0.1,0.9-0.1l0,0l0,0c1.1,0.1,2.2,0.7,3.2,1.4l0,0l0.7,0.4l0.4,0.3c0.3,0.2,0.6,0.4,0.9,0.5c0.1,0.1,0.4-0.4,0.7-0.8
	l0.1-0.2l0.4-0.3c1.1-0.1,1.9,0.2,2.8,0.9c1.3,1,2.7-1,3.6-1.7c1-0.8,2.2-0.9,3.3-0.9c0.9,0.1,1.8,1,1.8,2c0,1.1-0.2,2.1-0.3,3.3
	c-0.1,0.5,0.5,0.9,1.1,1.3c1.7-0.6,3.8-0.2,5,1.2c0.7-0.7,1.3-1.4,2.1-2.1c0.8-0.7,1.6-0.7,2.5-0.2c3.8,1.8,5,8.1,4,12.9
	c0.7,0.2,1.3,0.6,1.9,1.2c0.7,0.3,1.3,1,1.4,1.8l0.2,0.3c0.4-0.2,0.7-0.5,1-0.9c0.6-0.1,0.7-0.3,0.2-0.6c-0.4-0.6-0.9-1.2-1.2-1.9
	c-0.6-1.5-0.6-3.3,0.1-4.8c0.6-1.3,1.8-2,3.1-2c1.3,0,2,0.4,2.7,1.1c0.4-0.2,0.7-0.7,1.2-0.8c0.9-0.2,1.8-0.1,2.6,0.6
	c0.6,0.4,0.9,1,1.2,1.7c2.2,0.1,4.6,1.4,6,3c1.2,1.4,1.7,3.2,1.3,5l-0.2,0.5l-0.1,0.2l-0.2,0.3l-0.2,0.2l-0.2,0.2l-0.3,0.2l0,0l0,0
	l-0.2,0.2l-0.1,0.1l0,0l-0.1,0.1l0.4,0.4c0.3,0.4,0.7,0.9,0.8,1.4l0.2-0.1l0,0c0.7-0.5,1.3-0.6,2.2-0.4c0.5-2,2.2-3.4,4.6-3
	c2.7,0.3,3.7,2.7,4.1,5.1c2.4,1.1,4.3,3.8,3.4,6.7c-0.1,0.3-0.2,0.5-0.3,0.7l0.6,0.1l0,0l0.2,0.1c0.5,0.1,0.9,0.2,1.4,0.4
	c0.8,0.4,0.7-0.4,1.6-0.7c0.5-0.2,1-0.4,1.6-0.6c0.2-0.1,0.4-0.2,0.7-0.2v0.1l0.4-0.1c1.4-0.2,2.2-1.2,3.5-1.4
	c1.9-0.3,4.1,0.7,5.6,1.9c1.6,1.2,2.7,3,2.9,5c0.2,1.7-0.4,2.8-1.2,4c0.9,0.5,1.7,1.2,2.3,2c1.7-0.6,3.5-0.8,5.3-0.2
	c1.9,0.6,1.9,2.6,2.6,4.1c1,2.3,2.8,4.1,2.1,6.8l-0.2,0.4l0.1,0.3c0.3,1.1,0,1.9-0.5,2.8c-0.2,0.4-0.7,0.7-1.2,1h0.7
	c0.4,0,0.8,0,1.3,0h0.2c0.4,0,0.7,0.1,1.1,0.1h0.1l0,0c0.7,0.1,1.3,0.3,2,0.7c0.9,0.6,1.4,1.6,1.6,2.6l0.3,0.1l0,0l0.2,0.1l0.4,0.2
	l0.3,0.1l0.4,0.2l0.3,0.2l0.3,0.2l0.2,0.2l0.2,0.3l0.2,0.3l0.2,0.3l0.2,0.4l0.1,0.3l0.1,0.2l0,0v0.1v0.1l0.1,0.3
	c0,0.2,0,0.5-0.1,0.7c1.8,1.8,2.2,4.7,0,5.7l0.2,0.4c0.3,0.5,0.6,1.8-0.1,2.1c-0.8,0.4-1.6,0.5-2.3,0.5c1.7,2.6,4.7,6.1,2,8.2h-0.1
	c0.2,0.3,0.5,0.5,0.6,1c0.3,0,0.7,0,0.9,0h0.2c0.7,0,1.3,0.1,1.8,0.3l0.2,0.1c0.3,0.1,0.6,0.3,0.8,0.5l0,0l0,0l0.1,0.1l0,0l0,0
	c0.3,0.3,0.7,0.7,0.9,1.2c0.9,1.7,0.1,3.4-1.1,4.9c1.1,0.5,1.9,1.3,2.1,2.9c0.3,2.3-2.3,3.8-4.2,4.5c-0.4,0.9-1.1,1.5-2,1.7l0.1,0.1
	l0.4,0.2l0.2-0.1c0.2,0.2,0.4,0.4,0.6,0.7l0.1,0.1l0.1,0.2l0.2,0.5l0.1,0.2l0.1,0.6c0.7,0.4,0.5,0.5,1.4,0.1
	c1.2-0.5,3.2,0.2,4.1,1.2C583.2,413.1,583.4,413.4,583.6,413.7z M482.5,351L482.5,351l-0.6,0.2l0.5,0.4L482.5,351z M509,518.2
	c0.6-0.6,1.1-1.3,1.6-2C509.9,516.9,509.4,517.5,509,518.2z M515.3,413.1l-0.2-0.1l0.1,0.1L515.3,413.1z M535.1,396.5
	c-0.2,0-0.4-0.1-0.7-0.1c0.1,0.3,0.2,0.6,0.3,0.9C534.8,397,534.9,396.8,535.1,396.5z M556.2,381.8c-0.1-0.6-0.2-1.2-0.4-1.8
	l-0.1-0.4c-0.2-0.5-0.2-0.6-0.1-0.3c-0.3-0.1-0.9,0-1.4,0.1c0.6,0.6,1,1.4,1.3,2.2C555.7,381.7,556,381.7,556.2,381.8z"/>
</svg>
