<?xml version="1.0" encoding="utf-8"?>
<!-- Generator: Adobe Illustrator 27.7.0, SVG Export Plug-In . SVG Version: 6.00 Build 0)  -->
<svg version="1.1" id="Layer_1" xmlns="http://www.w3.org/2000/svg" xmlns:xlink="http://www.w3.org/1999/xlink" x="0px" y="0px"
	 viewBox="0 0 1610 966" style="enable-background:new 0 0 1610 966;" xml:space="preserve">
<style type="text/css">
	.st0{clip-path:url(#SVGID_00000042007090946736827010000011997278771396181656_);fill:#A0A0A0;}
	.st1{fill:#A0A0A0;}
</style>
<g>
	<defs>
		<rect id="SVGID_1_" width="1610" height="966"/>
	</defs>
	<clipPath id="SVGID_00000073705293050104759590000018399959746178725008_">
		<use xlink:href="#SVGID_1_"  style="overflow:visible;"/>
	</clipPath>
	<path style="clip-path:url(#SVGID_00000073705293050104759590000018399959746178725008_);fill:#A0A0A0;" d="M-64.4,127.1
		L-64.4,127.1L-64.4,127.1z"/>
	<path style="clip-path:url(#SVGID_00000073705293050104759590000018399959746178725008_);fill:#A0A0A0;" d="M-25.4,18.6L-25.4,18.6
		L-25.4,18.6z"/>
	<polygon style="clip-path:url(#SVGID_00000073705293050104759590000018399959746178725008_);fill:#A0A0A0;" points="39.8,573.2 
		181.1,538.6 242,536.8 367.9,532.5 585.6,518.9 800.6,531.2 1015,508.6 1200.1,538.6 1396.4,528.6 1389.5,734.7 39.8,734.7 	"/>
	<polyline style="clip-path:url(#SVGID_00000073705293050104759590000018399959746178725008_);fill:#A0A0A0;" points="1412.8,524 
		1653.4,543.1 1705.2,539.3 1705.2,793.7 338.4,793.7 338.4,683.1 296.4,678.7 	"/>
	
		<rect x="-64.4" y="540.6" style="clip-path:url(#SVGID_00000073705293050104759590000018399959746178725008_);fill:#A0A0A0;" width="1795.4" height="346.4"/>
	<polyline style="clip-path:url(#SVGID_00000073705293050104759590000018399959746178725008_);fill:#A0A0A0;" points="181.1,538.6 
		5.1,531 5.1,743 151.5,743 152.5,729.5 	"/>
	<polyline style="clip-path:url(#SVGID_00000073705293050104759590000018399959746178725008_);fill:#A0A0A0;" points="5.1,531 
		-64.4,534.1 -64.4,540.6 5.1,545.3 	"/>
	
		<rect y="887" style="clip-path:url(#SVGID_00000073705293050104759590000018399959746178725008_);fill:#A0A0A0;" width="1610" height="79"/>
</g>
<path class="st1" d="M1553,438.6c1,1.3-0.1,2.9-1.1,3.6c-1.3,0.9-3.1,0.5-4.4-0.1c-0.7-0.3-1.3-0.9-2.1-1.3c-0.3-0.2-1,0.4-1.2,0.6
	c-0.3,0.2-0.2,0.9-0.1,1.2c0,0.5-0.5,0.9-1,0.8c-1.5-0.2-2.8-0.4-3.7-1.6l-0.1-0.2c-0.4,0.6,0.8,1.3,1.2,1.7
	c0.3,0.5,0.3,1.1-0.1,1.5c-0.4,0.3-0.7,0.4-1.2,0.5c-0.8,0.1-0.6,0.1-0.3,0.9c0.4,0.9,0.3,2-0.4,2.8c-1.1,1.2-3,0.8-4.3,0
	c-1.2,0.6-2.5-0.4-3.4-1.5c-0.2-0.3-0.4-0.6-0.7-0.8l-0.1,0c-0.4,0.4,0.3,1,0.2,1.6l-0.1,0.5v0l-0.2,0.3l-0.1,0.1l-0.2,0.2l-0.4,0.2
	c-0.4,0.2-1,0.1-1.4,0c-0.3-0.1-0.6-0.3-1-0.4c-0.4,0-1,0.2-1.5,0.4c-1.2,0.3-2.5-0.7-2.8-1.8c-0.1-0.6-0.3,0.1-0.4,0.4
	c-0.1,0.4,0.1,0.8,0.2,1.1c0.2,0.4,0.3,1,0.2,1.4c-0.5,1.3-1.7,1.4-2.9,1.4c-1.1,0-2.1-0.6-2.6-1.6c-0.3-0.6-0.2-1.1-0.8-0.9
	c-0.4,0.2-1,0.1-1.4,0c-0.5-0.3-1-0.7-1.2-1.1l-0.1-0.3c-0.3,0-0.7,0-0.8,0.2c-0.4,0.7,0,0.7,0,1.5c-0.1,2.1-3.2,1.1-4.9,0.2
	c-0.3,0-0.7,0-1,0c0.2,0.8,0.3,1.6-0.4,2.1c-1,0.7-2.1,0.4-3.1,0c-1,1-2.4,0.4-3.4-0.7c-0.5,0.2-1.1,0.1-1.7-0.4l-0.3-0.4h-0.2
	c-0.4,0.4-1.1,0.5-1.7,0.4c-0.3,0-0.6-0.1-0.9-0.3c-0.6,0-1.1,0-1.6,0c-0.9,0-1.8,0-2.7,0c-0.3,0.1-0.8,0.1-1.3,0h-0.1l-0.4,0
	c-0.3,0-0.7,0.1-1.1,0.1l-0.5,0c-0.3,0-0.7,0.1-1.1,0.2l-0.4,0.1h-0.1c-0.1,0.2-0.2,0.4-0.4,0.6c-0.6,0.4-1.2,0.5-1.8,0.4
	c-0.8,0.5-1.6,1-2.2,1.8l-0.2,0.2c-2.3,3.1-2.8,7.8-3.1,11.4c-1.1,12.1-1.5,24,0.2,36c0.7,5.3,1,10.8,3,15.8
	c0.7,1.8,1.7,3.4,2.9,4.7h0.1l0.2,0.3c0.3,0.4,0.8,0.7,1.2,1c0.2-0.5,0.4-0.8,0.8-1c-0.3-0.6-0.6-1.1-1-1.7
	c-0.2-0.3,0.3-0.8,0.6-0.5l0.1,0.1c0.4-0.1,0.8,0.1,1.2,0.5c0.2-0.1,0.4-0.2,0.7,0c0.4,0.5,0.8,1.1,1.1,1.8l0.1-0.6
	c-0.3-0.9-1.6-2.3-0.3-2.8c0.2-0.1,0.6,0,0.8,0.2c0.2,0.2,0.4,0.5,0.6,0.8h0.1l0.6,0.2c0.7,0.8,1,1.8,1,2.7h0.1l0.2-0.3
	c-0.2-1-0.8-2.3-0.5-3.2c0.1-0.2,0.4-0.4,0.7-0.3c0.4,0.1,0.6,0.4,0.8,0.8c0.6,0,1.2,1,1.3,1.7h0.1l0.3,0.2c0.2-0.3,0.4-0.6,0.7-0.7
	c0.3-0.1,0.7,0.2,0.7,0.5c0.1,0.6-0.3,1.2-0.6,1.8v0.4c0.4-0.7,0.8-1.3,1.3-1.8c0.3-0.4,1,0,0.7,0.5c-0.6,0.9-1.3,1.8-2,2.7
	c0.3-0.1,0.5-0.3,0.8-0.5c0.4-0.5,1-0.9,1.6-1c0.2,0,0.4,0.1,0.6,0.4l0,0h0.3c0.3-0.2,0.6-0.5,1-0.6c0.6-0.1,1.1,0.4,0.8,1
	c-0.1,0.2-0.3,0.5-0.5,0.7l0.3,0h0.2c0.5-0.2,1.1-0.3,1.7-0.2c0.3,0.1,0.4,0.5,0.3,0.8c0.3-0.1,0.7,0,1,0.2l0.4,0.1l0.1,0h0.2
	c0.3,0,0.4,0.4,0.3,0.7c0.2,0,0.4,0,0.6,0l0.1-0.1c0.2-0.1,0.4,0.1,0.4,0.3l0.2,0.1c0.2,0.1,0.2,0.4,0.1,0.7v0
	c0.4-0.1,0.8-0.2,1.2-0.2c0.6,0,0.7,0.7,0.3,0.9l0,0c1-0.1,2.1-0.4,3-0.1c0.3,0,0.4,0.4,0.3,0.6c0.7,0.3,0.7,1.5-0.1,1.7
	c-2,0.5-4,0.3-6,0c-0.8,0.1-1.6,0.3-2.5,0.4c-1.3,0.3-2.6,0.3-3.9,0.4l-0.4-0.1c-0.3,0.1-0.5,0.2-0.8,0.4c-0.2,0.1-0.4-0.2-0.2-0.3
	c0.2-0.2,0.4-0.3,0.7-0.5v-0.4c-0.6,0.1-1.2,0.2-1.9,0.3c0.5,0,1.1,0,1.5-0.1c0.2,0,0.2,0.3,0,0.4c-2.7,0.5-5.5,0.4-8.2,0.7
	c-0.3,0-0.3-0.4-0.1-0.5c0.5-0.1,1.1-0.2,1.6-0.3c-0.2-0.2-0.3-0.6-0.2-0.9l-0.3,0.2l-0.4-0.1h-0.1c-0.2,0.7-1.1,0.6-1.2-0.1v-0.1
	l-0.2,0.1l-0.2,0.1l-0.3,0.4l-0.3,0.1l0,0l-0.6,0.2l-0.4,0.2c-0.5,0.2-1.1-0.2-1.1-0.8c-0.3,0.4-1.1,0.6-1.4,0l-0.1-0.1l-0.2,0.4
	c-0.3,0.4-0.6,0.4-1.1,0.5c-0.2,0-0.4,0-0.6-0.2l0,0c-0.5,0.5-1.2,0.5-1.8,0.2l-0.2,0.3l-0.2,0.5c-0.6,0.3-1.3,0.6-1.9,0.9
	c-0.7,0.3-1.4,0.7-2.1,0.5c-0.4,0-0.5-0.5-0.3-0.8l0.1-0.1c-0.2-0.1-0.3-0.3-0.2-0.5l0.1-0.1c-0.3,0.1-0.6,0.2-0.9,0.3
	c-0.9,0.3-1.7,0.6-2.7,0.5c-0.3,0-0.4-0.2-0.4-0.4c-0.6,0-1.2,0-1.6-0.1c-0.3-0.1-0.5-0.4-0.6-0.7h-0.3l0.3,0.3
	c0.2,0.2,0.2,0.5,0,0.7c-0.1,0.3-0.4,0.5-0.8,0.3l0,0l-0.1-0.1l-0.1,0l0.2,0.1l-0.2,0.3c-0.6-0.3-1.1-0.7-1.6-1.1
	c-0.3,0-0.6-0.2-0.6-0.5v0c-0.2,0.2-0.4,0.5-0.7,0.7c0.2,0.2,0.4,0.5,0.6,0.7s-0.2,0.5-0.4,0.2c-0.2-0.2-0.4-0.5-0.6-0.7l-0.2,0.1
	c-0.4,0.1-0.7-0.1-0.8-0.4h-0.2l-0.4-0.2l0.5,0.4l-0.2,0.3c-0.4-0.3-0.8-0.7-1.2-1l0,0c0.2,0.3,0.3,0.6,0.4,0.8
	c0.3,0.5-0.4,0.9-0.8,0.5c-0.2-0.3-0.4-0.7-0.6-0.9l-0.4-0.3l-0.4,0l0.2,0.1l0.3,0.1c0.2,0.1,0.1,0.5-0.2,0.5l-0.6,0
	c-0.6,0.1-1.2,0-1.7-0.2h-0.1c0.1,0.3-0.2,0.6-0.6,0.4l-0.3-0.1l-0.3,0.2c-0.8,0-2-0.1-2.7-0.7c-0.2,0.2-0.6,0.3-0.7,0l0,0
	c-0.4,0-0.8,0-1.2,0l-0.2,0.1l-0.1-0.1c-0.4,0-0.7,0-1.1,0l-0.1,0.2l0,0c-0.2,0.2-0.6,0.1-0.8-0.1h-0.6l0,0c0,0.6-0.7,1-1.1,0.6
	l-0.1-0.1l-0.1,0.2l-0.3-0.2l0.1-0.2l0,0c-0.3,0-0.6,0.1-1,0.1c-0.2,0.3-0.7,0.4-1,0.1l0,0c-0.2,0-0.4,0-0.7,0.1
	c-0.2,0.5-1,0.7-1.5,0.2c-0.4,0-0.8,0.1-1.2,0.1h-0.2h-0.1c-0.3,0-0.7,0-1.1,0h-0.3c-0.2,0.1-0.4,0-0.6-0.1c-0.3,0-0.6-0.1-0.9-0.2
	c0,0.3-0.1,0.6-0.4,0.9c-0.3,0.2-0.6,0-0.7-0.4c-0.1-0.3-0.2-0.7-0.3-0.9c-0.1-0.1-0.3-0.4-0.4-0.6l-0.2-0.2
	c0.2,0.6,0.2,1.1-0.6,1.2c-0.3,0-0.5-0.1-0.6-0.4l-0.1-0.1l-0.6,0l-0.2-0.2c-0.1,0.4-0.4,0.8-1.1,0.9c-0.6,0-0.7-0.6-0.4-0.9
	c0.2-0.3,0.2-0.6,0.1-0.9c0.1,0.2,0.1,0.5-0.1,0.7c-0.1,0.4-0.7,0.4-0.9,0l-0.1-0.2c-0.1,0.2-0.3,0.4-0.6,0.2l-0.2-0.2l-0.1,0.2
	c-0.2,0.2-0.5,0.1-0.6-0.1c-0.1-0.5-0.4-0.8-0.8-1c-0.2-0.1-0.1-0.5,0.1-0.4l0.3,0.1l-0.5-0.6c-0.2-0.2,0.1-0.5,0.3-0.3
	c0.6,0.6,1.4,1,1.9,1.7c-0.1-0.3-0.2-0.6-0.3-0.8l-0.2-0.3c-0.3,0-0.6,0-1-0.3v-0.5v-0.2l-0.1-0.1c-0.2-0.1,0-0.5,0.2-0.3l0.1,0h0.1
	l0.1-0.3h0.1l-0.1,0c-0.2-0.2-0.2-0.7,0.1-0.9c0.8-0.6,2,0.1,2.6,0.7c0.2,0.2,0.3,0.4,0.4,0.7l0,0c0.2,0.1,0.6,0.4,1.1,0.7l-0.1-0.1
	c-0.2-0.2-0.4-0.5-0.7-0.7v-0.3c-0.3-0.4-0.7-0.7-1.2-0.9c-0.2-0.1-0.2-0.5,0.1-0.6l0.5-0.1v0c-0.3-0.4,0.1-0.9,0.6-0.9
	c0.2,0,0.5,0.1,0.7,0.2c-0.2-0.2-0.2-0.7,0.1-0.8c0.4-0.3,0.9-0.2,1.2,0c-0.2-0.2-0.3-0.4-0.4-0.6l-0.1-0.2l-0.1,0
	c-0.2-0.1-0.2-0.5,0.1-0.6h0.2c0.2-0.2,0.4-0.4,0.8-0.3c1,0.1,1.8,1,2.5,1.8c0.9,0.4,1.6,1.1,2.1,1.9c0-0.3-0.1-0.6-0.1-0.9
	c-0.2-0.3-0.4-0.7-0.7-0.9c-0.4-0.5-1.1-0.6-1.5-1c-0.2-0.1-0.1-0.5,0.1-0.6c0.3,0,0.5,0,0.7,0c0.1-0.2,0.2-0.4,0.5-0.4
	c0.1-0.2,0.3-0.4,0.6-0.4c1.3,0.2,2.2,1.8,2.9,2.7c0.3,0.3,0.5,0.7,0.7,1l0.3,0c-0.1-0.2-0.1-0.4-0.2-0.6c-0.2-0.7-0.6-1.3-1-1.9
	c-0.4-0.7-1.1-0.9-1.7-1.3c-0.4-0.3-0.1-1,0.4-1c1.6,0,2.5,1.4,3,3.1c0.1-0.2,0.3-0.3,0.6-0.3c-0.7-1.5-1.7-2.5-2.9-3.7
	c-0.3-0.4,0-1,0.5-0.8c0.7,0.3,1.3,0.9,1.9,1.5l0,0c-0.2-0.2-0.3-0.5-0.4-0.9c-0.1-0.4,0.3-0.8,0.7-0.8c0.8,0,1.4,0.8,1.9,1.4
	l0.1-0.2c-0.3-0.4,0.1-1,0.6-0.8l0.4,0.3l0.4,0.3l0.2,0.1c0.4,0.1,0.8,0.4,1.1,0.7v-0.3c0-0.2,0.1-0.4,0.2-0.6v-0.5
	c0.3-0.8,1.3-0.7,1.8-0.2c0.4,0.4,0.7,0.9,0.9,1.5c0.1-0.2,0.1-0.5,0.1-0.7c0.1-0.5,0.7-0.6,1-0.4c0.1-0.2,0.4-0.3,0.7-0.2
	c0.6,0.4,1,0.9,1.2,1.4c3.6-2.7,6.8-6.3,8.7-10.3c2.2-5,1.5-10.5,0.9-15.8c-0.6-5.2-1.5-10.2-1.1-15.4c0.5-5.9,1.8-11.6,1.4-17.6
	c-0.2-3.2-0.6-6.3-1.3-9.4c-1.1,0.2-2.7-0.4-3.8-0.9c-0.3,0-0.7,0-1,0c0.2,0.8,0.3,1.6-0.4,2.1c-1,0.7-2.1,0.5-3.1,0
	c-1,1-2.4,0.4-3.4-0.7c-0.5,0.2-1.1,0.1-1.7-0.4c-0.5-0.4-0.7-1-1-1.6l-0.5-0.1c-0.2,0-0.4-0.1-0.7-0.3c-0.6-0.2-1.1-0.5-1.5-1
	c-0.7,0.2-1.4,0-2.1-0.4c-0.3,0-0.7,0-1,0c-0.9,0.1-1.7-0.3-2.5-0.9c-0.7,0.6-1.5,0.6-2.5,0.1c-0.6-0.2-1.1-0.7-1.6-1l-0.1,0l-0.3,0
	c-0.2,0-1.1,0.6-1.3,0.3c0.8,1,1.4,2.4,0.2,3.4c-0.7,0.7-1.7,0.6-2.6,0.5c-0.3,0.8-1.1,0.9-2,0.7l0,0h-0.1c-0.3,0-0.6-0.1-1-0.3
	c-1.2,1.7-3.8,2.6-5.8,2.1c-1.6-0.4-2.7-2.1-2.9-3.9l-0.2,0.1c-0.4,0.2-1,0.4-1.4,0.2l-0.4-0.2l-0.3-0.2h-0.1l-0.1-0.2l-0.2-0.1
	l-0.1-0.1l-0.1-0.3l0,0l0,0c-0.2-0.5,0.4-1.2,0-1.6l-0.1,0c-0.2,0.3-0.4,0.6-0.6,0.9c-0.8,1.2-1.9,2.3-3.2,1.8
	c-1.2,0.9-3.1,1.6-4.3,0.5c-0.8-0.7-1.1-1.7-0.7-2.7c0.2-0.7,0.4-0.8-0.4-0.8c-0.4,0-0.8,0-1.2-0.3c-0.5-0.3-0.6-0.9-0.3-1.4
	c0.3-0.5,1.5-1.3,1-1.8l-0.1,0.2c-0.8,1.3-2.1,1.7-3.5,2.1c-0.4,0.1-1.1-0.2-1.1-0.7c0-0.3,0.1-0.9-0.3-1.2c-0.2-0.1-1-0.7-1.2-0.4
	c-0.7,0.5-1.2,1.1-1.9,1.6c-1.2,0.7-3,1.4-4.4,0.7c-1.2-0.6-2.3-2.1-1.6-3.5c0.4-0.7,1.1-1,1.7-1.4c-0.5-0.7-0.9-1.3-0.5-2.4
	c0.3-1,1.3-1.4,2.2-1.6c-0.1-0.2-0.2-0.5-0.2-0.8c-0.1-0.5,0.2-1.1,0.4-1.5c0.3-0.6,0.8-0.8,1.2-0.9c-0.1-0.3-0.1-0.7,0.2-1.2
	c0.2-0.3,0.4-0.5,0.6-0.7l0.2-0.1c0.2-0.1,0.4-0.2,0.6-0.3l0.1,0l0,0c0.2-0.1,0.4-0.1,0.6-0.2l0,0c0.2,0,0.4-0.1,0.7-0.2
	c0.5-0.1,1-0.1,1.3-0.5l0.5-0.4c-1.7,0.1-2.8-1-2.7-2.7l0,0l0.1-0.6c-1.1-0.7-1.6-2.1-0.8-3.3l0.3-0.6c0.6-0.7,1.8-1.2,2.6-0.9
	c0.6,0.2,0.4,0.2,0.9-0.1c0-0.2,0.1-0.4,0.1-0.6l0.1-0.1l0.2-0.3l0.3-0.4h0.2l0.2-0.1l0.1,0c-0.6-0.1-1.1-0.5-1.3-1
	c-1.3-0.4-3.1-1.2-2.9-2.7c0.1-1,0.6-1.6,1.3-1.9c-0.8-0.9-1.4-1.9-0.9-3c0.2-0.3,0.3-0.6,0.6-0.8l0,0l0.1,0l0.6-0.4l0.1,0
	c0.4-0.1,0.8-0.2,1.2-0.3h0.1c0.2,0,0.4,0,0.7,0c0.3-0.9,1.2-1.3,2.2-1.4c-0.1-1.1,0.1-2.1,1.2-2.7c1-0.5,2.1-0.4,3,0.2
	c0.6-0.3,1.2-0.2,1.7,0.1l0.1-0.1c0.3-0.4,0.7-0.7,1.2-0.9l0.5-0.1l0.1-0.5l0.3-0.4c0-0.6,0.1-1.2,0.3-1.7c0.4-0.9,1-1.3,1.6-1.3
	c-0.7-1.1-1-2.5-0.3-3.6c0.4-0.8,0.4-1.8,1-2.6c0.6-0.9,1.3-0.6,2-0.4c0.1-0.6,0.2-1.1,0.5-1.6c-1.2-0.9-2.2-2.3-2.8-3.6
	c-0.2-0.4-0.2-0.8-0.3-1.2v-0.1c0-0.3,0.1-0.7,0.1-0.9l0.1-0.1c0.1-0.3,0.3-0.5,0.5-0.7l0.1,0c0.4-0.3,0.9-0.6,1.5-0.7
	c0.1-1.4,0.6-2.9,2-3.2c0.8-0.2,1.5,0.1,2.2,0.6c0.3,0.2,0.7,0.6,1,1c0.2-0.2,0.4-0.4,0.6-0.6c0.3-0.1,0.4-0.2,0.1-0.4
	c-0.3-0.3-0.7-0.6-1-1c-0.5-0.9-0.7-1.9-0.4-2.8c0.2-0.8,1-1.4,1.7-1.5c0.8-0.1,1.3,0,1.8,0.4c0.2-0.1,0.4-0.5,0.7-0.6
	c0.6-0.2,1.1-0.2,1.6,0.1c0.4,0.2,0.7,0.5,0.9,0.9c1.1-0.1,2.3,0.1,3.2,0.7l0.4-0.5c-0.2-0.6-0.1-1.3,0.7-1.7
	c0.4-0.2,0.8-0.3,1.2-0.5l0.5-0.2l-0.1-0.1l-0.3-0.5c-1,0.1-1.9,0.1-2.6-0.3c-1.2-0.8-1.5-1.8-1.1-3c-0.2-0.3-0.3-0.6-0.2-1
	c0.2-0.7,1-1.4,1.7-1.8c0-0.6,0.2-1,0.5-1.6l0.2-0.4v-0.1c-0.2-0.5-0.2-0.9-0.2-1.3c0.1-1.5,1.8-2.4,3.2-2.6c0.3-0.2,0.6-0.4,1-0.6
	l0,0l0,0c1-0.5,2-0.9,3-0.9c0.6,0,1.1,0.1,1.5,0.5l0.2-0.1c0.2-0.1,0.4-0.1,0.6-0.2c0.3-0.1,0.7,0,1.1,0.1c0.6,0.2,1.2,1.2,1.7,1.3
	c1.2,0.1,1.8,0,2.7-0.8c0.3-0.2,0.6-0.4,0.8-0.5c0.4-0.7,1-1.3,1.8-1.7c0.2-0.5,0.4-0.9,0.8-1.3c-0.1-0.3-0.1-0.6,0.1-0.9
	c0.1-0.2,0.3-0.4,0.4-0.6c-0.8-1.2-1.7-3.2-0.7-4.5c0.5-0.7,1.1-1,1.9-1.1c0.4,0,0.8,0,1.2,0c0.2,0,0.4,0,0.6,0l0,0
	c0.4,0,0.6-0.3,0.3-0.9c-0.4-1.1-0.3-2.8,1.1-3.1h0.6l0,0l0,0c1,0,1.9,0.8,2.7,1.3l0.5,0.3c0.1,0,0.2-0.2,0.4-0.4l0.2-0.2l0.2-0.1
	c0.7,0,1.2,0.1,1.7,0.5c0.8,0.6,1.7-0.6,2.2-1c0.6-0.5,1.4-0.6,2.1-0.5c0.6,0,1.1,0.6,1.1,1.2c0,0.7-0.2,1.3-0.2,1.9
	c0,0.3,0.3,0.6,0.7,0.8c1.1-0.3,2.3-0.1,3.1,0.7c0.4-0.5,0.8-0.9,1.3-1.3s1-0.4,1.6-0.1c2.6,1.2,3.3,5.7,2.2,8.7l0.6-0.2
	c0.8-0.3,1.8,0.4,1.8,1.3c0,0.2,0,0.4-0.1,0.6l0,0v0.1l0.6,0.1l0.3,0.1l0,0l0.6,0.3l0.3,0.1l0.3,0l-0.2-0.3
	c-0.3-0.4-0.6-0.7-0.8-1.1c-0.3-0.9-0.3-2,0.1-2.9c0.3-0.8,1.1-1.2,2-1.2c0.8,0,1.2,0.3,1.7,0.7c0.2-0.1,0.4-0.4,0.7-0.5
	c0.6-0.1,1.1,0,1.6,0.4c0.3,0.3,0.6,0.7,0.7,1c1.4,0,2.9,0.8,3.7,1.8c0.8,0.9,1.1,1.9,0.8,3l-0.3,0.5l-0.1,0.1l-0.6,0.5l-0.1,0l0,0
	l-0.1,0l0,0l0.2,0.2c0.2,0.2,0.4,0.6,0.5,0.9l0.1,0v0c0.4-0.3,0.8-0.4,1.4-0.3c0.3-1.2,1.4-2,2.9-1.8c1.7,0.2,2.3,1.6,2.5,3.1
	c1.6,0.7,2.7,2.3,2.1,4.1l-0.2,0.5l0.3,0l0,0h0.1c0.3,0,0.6,0.1,1,0.2c0.5,0.2,0.4-0.2,1-0.4c0.3-0.1,0.7-0.2,1-0.4l0.4-0.1l0,0
	l0.3,0c0.8-0.1,1.4-0.7,2.2-0.9c1.2-0.2,2.6,0.5,3.5,1.2c1,0.7,1.7,1.8,1.8,3c0.1,1-0.2,1.7-0.7,2.4c0.6,0.3,1.1,0.7,1.5,1.2
	c1.1-0.4,2.2-0.5,3.3-0.1c1.2,0.4,1.2,1.5,1.7,2.5c0.7,1.4,1.8,2.5,1.3,4.2l-0.1,0.2l0.1,0.2c0.2,0.7,0,1.1-0.3,1.7
	c-0.2,0.2-0.4,0.4-0.8,0.6h0.4c0.3,0,0.5,0,0.8,0h0.2l0.6,0h0.1h-0.2c0.4,0,0.8,0.2,1.2,0.4c0.6,0.4,0.9,0.9,1,1.6l0.2,0l0,0l0,0
	c0.3,0,0.6,0.2,0.8,0.3l0.1,0c0.2,0.1,0.4,0.3,0.6,0.5l0.1,0c0.2,0.2,0.3,0.4,0.3,0.7v0v0.1l0,0v0c0,0.2,0,0.4,0,0.7
	c1.2,1.1,1.3,2.8,0,3.4l0.2,0.2c0.2,0.3,0.4,1-0.1,1.3c-0.5,0.2-1,0.3-1.5,0.3c1,1.4,2.6,3.3,1.6,4.5l0.6,0c0.8-0.6,1.9-0.8,2.9-0.3
	c1.1,0.5,1.3,1.5,1.3,2.5c1,0,1.9,0.4,2.2,1.2c0.2,0,0.4,0,0.6,0h0.1c0.4,0,0.8,0,1.2,0.2l0.1,0l0.6,0.4l0.1,0l0,0
	c0.2,0.2,0.4,0.4,0.6,0.7c0.6,1,0,2.1-0.7,3c0.7,0.3,1.2,0.8,1.3,1.8c0.2,1.4-1.4,2.3-2.6,2.7c-0.2,0.5-0.7,0.9-1.2,1l0.1,0l0.2,0.1
	l0.1,0l0.3,0.4l0.2,0.3l0.1,0.1l0.1,0.6c0.4,0.3,0.3,0.3,0.9,0c0.8-0.3,2,0.1,2.6,0.7l0.3,0.5c0.8,1.1,0.4,2.5-0.7,3.2l0.1,0.6l0,0
	c0.2,1.7-0.8,2.8-2.5,2.7c0.3,0.2,0.5,0.4,0.7,0.7c0.3,0.7,0.4,1.2,0.2,1.9c-0.1,0.3-0.1,0.5-0.2,0.8l-0.1-0.1l0.1,0.1
	c0.2,0.3,0.4,0.6,0.6,0.9c0.2-0.1,0.5-0.2,0.8-0.1c0.1-0.8,0.4-1.6,1.3-1.8c0.5-0.1,1.1,0.1,1.5,0.4s0.8,0.3,1.3,0.4
	c0.2,0,0.4,0,0.7,0.1l0,0c0.2,0,0.4,0,0.7,0.1l0,0h0.1c0.2,0,0.4,0.1,0.6,0.2l0.2,0.1c0.3,0.1,0.5,0.3,0.7,0.6
	c0.3,0.4,0.4,0.8,0.3,1.1c0.5,0.1,1,0.2,1.3,0.8c0.3,0.4,0.6,0.9,0.6,1.5c0,0.3,0,0.5-0.1,0.8c1,0.1,2,0.4,2.4,1.3
	c0.5,1,0.2,1.7-0.2,2.4C1551.8,437.8,1552.4,438.1,1553,438.6z M1409.7,432.6l-0.1-0.4c-0.3,0.1-0.6,0.3-0.9,0.4
	c0.2,0.2,0.3,0.6,0.3,0.9h0.3l0.1-0.1l0.2-0.3L1409.7,432.6z M1436.9,529.6c-0.2-0.3-0.4-0.6-0.6-0.8l-0.2-0.2
	c0.2,0.3,0.3,0.6,0.4,0.9L1436.9,529.6z M1438.5,526.7c-0.3-0.2-0.6-0.4-0.9-0.7c0.2,0.2,0.4,0.6,0.6,0.8L1438.5,526.7L1438.5,526.7
	z M1441.8,529.3l-0.3-0.3l0.2,0.3L1441.8,529.3z M1447.3,527.7c-0.2-0.3-0.4-0.6-0.6-0.8c0.1,0.3,0.1,0.6,0.2,0.9L1447.3,527.7z
	 M1451.3,523.7l-0.2-0.4c0.1,0.2,0.1,0.4,0.2,0.7V523.7z M1472.3,397.1L1472.3,397.1l0.2,0L1472.3,397.1z M1472.7,402.7l-0.3-0.3
	l-0.1,0.1l0.3,0.2L1472.7,402.7z M1503.1,528.5l0.1,0L1503.1,528.5L1503.1,528.5z M1502.5,529.1l0.3-0.1l0.2-0.3L1502.5,529.1z
	 M1504.9,406.8L1504.9,406.8L1504.9,406.8L1504.9,406.8z M1516.2,396L1516.2,396c-0.1-0.3-0.1-0.4-0.1-0.2h-0.5
	C1515.8,395.8,1515.9,395.9,1516.2,396z M1519.4,404.7l-0.1-0.2L1519.4,404.7z"/>
</svg>
