<?xml version="1.0" encoding="utf-8"?>
<!-- Generator: Adobe Illustrator 27.7.0, SVG Export Plug-In . SVG Version: 6.00 Build 0)  -->
<svg version="1.1" id="Layer_1" xmlns="http://www.w3.org/2000/svg" xmlns:xlink="http://www.w3.org/1999/xlink" x="0px" y="0px"
	 viewBox="0 0 1610 966" style="enable-background:new 0 0 1610 966;" xml:space="preserve">
<style type="text/css">
	.st0{clip-path:url(#SVGID_00000063605991912386914010000006977831007723065501_);fill:#A0A0A0;}
</style>
<g>
	<defs>
		<rect id="SVGID_1_" width="1610" height="966"/>
	</defs>
	<clipPath id="SVGID_00000172413153948540741050000010180854474080177318_">
		<use xlink:href="#SVGID_1_"  style="overflow:visible;"/>
	</clipPath>
	<path style="clip-path:url(#SVGID_00000172413153948540741050000010180854474080177318_);fill:#A0A0A0;" d="M-64.4,127.1
		L-64.4,127.1L-64.4,127.1z"/>
	<path style="clip-path:url(#SVGID_00000172413153948540741050000010180854474080177318_);fill:#A0A0A0;" d="M-25.4,18.6L-25.4,18.6
		L-25.4,18.6z"/>
	<polygon style="clip-path:url(#SVGID_00000172413153948540741050000010180854474080177318_);fill:#A0A0A0;" points="39.8,573.2 
		181.1,538.6 242,536.8 367.9,532.5 585.6,518.9 800.6,531.2 1015,508.6 1200.1,538.6 1396.4,528.6 1389.5,734.7 39.8,734.7 	"/>
	<polyline style="clip-path:url(#SVGID_00000172413153948540741050000010180854474080177318_);fill:#A0A0A0;" points="1412.8,524 
		1653.4,543.1 1705.2,539.3 1705.2,793.7 338.4,793.7 338.4,683.1 296.4,678.7 	"/>
	
		<rect x="-64.4" y="540.6" style="clip-path:url(#SVGID_00000172413153948540741050000010180854474080177318_);fill:#A0A0A0;" width="1795.4" height="346.4"/>
	<polyline style="clip-path:url(#SVGID_00000172413153948540741050000010180854474080177318_);fill:#A0A0A0;" points="181.1,538.6 
		5.1,531 5.1,743 151.5,743 152.5,729.5 	"/>
	<polyline style="clip-path:url(#SVGID_00000172413153948540741050000010180854474080177318_);fill:#A0A0A0;" points="5.1,531 
		-64.4,534.1 -64.4,540.6 5.1,545.3 	"/>
	
		<rect y="887" style="clip-path:url(#SVGID_00000172413153948540741050000010180854474080177318_);fill:#A0A0A0;" width="1610" height="79"/>
</g>
</svg>
