<?xml version="1.0" encoding="utf-8"?>
<!-- Generator: Adobe Illustrator 27.7.0, SVG Export Plug-In . SVG Version: 6.00 Build 0)  -->
<svg version="1.1" id="Layer_1" xmlns="http://www.w3.org/2000/svg" xmlns:xlink="http://www.w3.org/1999/xlink" x="0px" y="0px"
	 viewBox="0 0 1610 966" style="enable-background:new 0 0 1610 966;" xml:space="preserve">
<style type="text/css">
	.st0{clip-path:url(#SVGID_00000137846863079394258020000007509746718894835624_);fill:#A0A0A0;}
	.st1{fill:#A0A0A0;}
</style>
<g>
	<defs>
		<rect id="SVGID_1_" width="1610" height="966"/>
	</defs>
	<clipPath id="SVGID_00000098923380221450046240000013608257522577535156_">
		<use xlink:href="#SVGID_1_"  style="overflow:visible;"/>
	</clipPath>
	<path style="clip-path:url(#SVGID_00000098923380221450046240000013608257522577535156_);fill:#A0A0A0;" d="M-64.4,127.1
		L-64.4,127.1L-64.4,127.1z"/>
	<path style="clip-path:url(#SVGID_00000098923380221450046240000013608257522577535156_);fill:#A0A0A0;" d="M-25.4,18.6L-25.4,18.6
		L-25.4,18.6z"/>
	<polygon style="clip-path:url(#SVGID_00000098923380221450046240000013608257522577535156_);fill:#A0A0A0;" points="39.8,573.2 
		181.1,538.6 242,536.8 367.9,532.5 585.6,518.9 800.6,531.2 1015,508.6 1200.1,538.6 1396.4,528.6 1389.5,734.7 39.8,734.7 	"/>
	<polyline style="clip-path:url(#SVGID_00000098923380221450046240000013608257522577535156_);fill:#A0A0A0;" points="1412.8,524 
		1653.4,543.1 1705.2,539.3 1705.2,793.7 338.4,793.7 338.4,683.1 296.4,678.7 	"/>
	
		<rect x="-64.4" y="540.6" style="clip-path:url(#SVGID_00000098923380221450046240000013608257522577535156_);fill:#A0A0A0;" width="1795.4" height="346.4"/>
	<polyline style="clip-path:url(#SVGID_00000098923380221450046240000013608257522577535156_);fill:#A0A0A0;" points="181.1,538.6 
		5.1,531 5.1,743 151.5,743 152.5,729.5 	"/>
	<polyline style="clip-path:url(#SVGID_00000098923380221450046240000013608257522577535156_);fill:#A0A0A0;" points="5.1,531 
		-64.4,534.1 -64.4,540.6 5.1,545.3 	"/>
	
		<rect y="887" style="clip-path:url(#SVGID_00000098923380221450046240000013608257522577535156_);fill:#A0A0A0;" width="1610" height="79"/>
</g>
<path class="st1" d="M716.6,425c1,1.5-0.1,3.3-1.1,4.1c-1.2,1-3,0.5-4.2-0.1c-0.7-0.4-1.3-1-2-1.5c-0.3-0.2-0.9,0.4-1.1,0.6
	c-0.3,0.3-0.2,1-0.1,1.4c0,0.6-0.5,1-0.9,0.9c-1.4-0.2-2.7-0.5-3.6-1.8l-0.1-0.2c-0.4,0.7,0.7,1.5,1.1,1.9c0.3,0.5,0.3,1.2-0.1,1.7
	c-0.4,0.3-0.7,0.5-1.2,0.5c-0.8,0.1-0.6,0.2-0.3,1c0.4,1.1,0.3,2.3-0.4,3.2c-1,1.3-2.8,0.9-4.1,0c-1.2,0.7-2.3-0.4-3.2-1.7
	c-0.2-0.3-0.4-0.6-0.6-0.9l-0.1-0.1c-0.4,0.5,0.3,1.2,0.2,1.8l-0.1,0.5v0.1l-0.2,0.4l-0.1,0.2l-0.2,0.2l-0.4,0.3
	c-0.4,0.3-0.9,0.1-1.3,0c-0.3-0.1-0.6-0.4-0.9-0.4c-0.4-0.1-1,0.3-1.4,0.4c-1.1,0.4-2.4-0.8-2.7-2.1c-0.1-0.7-0.3,0.2-0.4,0.4
	c-0.1,0.4,0.1,0.9,0.2,1.3c0.2,0.5,0.3,1.1,0.2,1.6c-0.5,1.5-1.7,1.6-2.8,1.6c-1,0-2-0.7-2.5-1.8c-0.3-0.7-0.2-1.3-0.8-1
	c-0.4,0.2-1,0.2-1.3-0.1c-0.5-0.3-0.9-0.8-1.2-1.3l-0.1-0.3c-0.3-0.1-0.7,0-0.8,0.3c-0.4,0.8,0,0.8,0,1.7c-0.1,2.4-3,1.3-4.6,0.3
	c-0.3,0.1-0.6,0.1-1,0.1c0.2,0.9,0.3,1.8-0.4,2.4c-0.9,0.8-2,0.5-3,0c-0.9,1.1-2.3,0.4-3.2-0.8c-0.5,0.2-1,0.1-1.6-0.5l-0.3-0.5H664
	c-0.4,0.4-1.1,0.5-1.6,0.4c-0.3-0.1-0.6-0.2-0.9-0.3c-0.5,0-1,0-1.5,0c-0.9,0-1.7,0-2.6,0.1c-0.3,0.1-0.7,0.1-1.2,0.1h-0.1l-0.4,0.1
	c-0.3,0.1-0.7,0.1-1,0.2l-0.5,0.1c-0.3,0.1-0.7,0.2-1,0.3l-0.4,0.1h-0.1c-0.1,0.2-0.2,0.5-0.4,0.6c-0.6,0.5-1.1,0.5-1.7,0.4
	c-0.8,0.5-1.5,1.2-2.1,2l-0.2,0.3c-2.2,3.5-2.7,8.8-3,13c-1.1,13.7-1.4,27.2,0.2,41c0.7,6,0.9,12.3,2.8,17.9c0.7,2,1.6,3.8,2.8,5.3
	h0.1l0.2,0.3c0.3,0.4,0.7,0.8,1.2,1.2c0.2-0.5,0.4-0.9,0.8-1.1c-0.3-0.6-0.6-1.3-0.9-1.9c-0.2-0.4,0.3-0.9,0.5-0.5l0.1,0.2
	c0.4-0.1,0.8,0.2,1.1,0.6c0.2-0.2,0.4-0.3,0.6,0c0.4,0.6,0.8,1.2,1,2l0.1-0.6c-0.3-1-1.5-2.6-0.3-3.2c0.2-0.1,0.6,0,0.8,0.2
	c0.2,0.3,0.4,0.6,0.6,0.9h0.1l0.6,0.2c0.7,0.9,1,2,0.9,3.1h0.1l0.2-0.4c-0.2-1.2-0.8-2.6-0.5-3.6c0.1-0.2,0.4-0.4,0.6-0.3
	c0.4,0.2,0.6,0.5,0.8,0.9c0.6,0,1.1,1.1,1.3,1.9h0.1l0.3,0.3c0.2-0.3,0.4-0.6,0.7-0.8s0.7,0.2,0.7,0.6c0.1,0.6-0.3,1.4-0.6,2.1v0.5
	c0.4-0.8,0.8-1.5,1.2-2c0.3-0.4,0.9,0.1,0.7,0.6c-0.6,1.1-1.3,2-1.9,3.1c0.3-0.2,0.5-0.4,0.7-0.5c0.4-0.6,0.9-1,1.5-1.2
	c0.2-0.1,0.4,0.2,0.5,0.4l0,0h0.3c0.3-0.3,0.6-0.5,0.9-0.6c0.6-0.2,1.1,0.5,0.8,1.1c-0.1,0.3-0.3,0.5-0.5,0.8l0.3-0.1h0.2
	c0.5-0.3,1-0.4,1.6-0.2c0.3,0.1,0.4,0.5,0.3,0.9c0.3-0.2,0.7,0,0.9,0.3l0.4,0.2l0.1,0.1h0.2c0.3,0.1,0.4,0.4,0.3,0.8
	c0.2-0.1,0.4-0.1,0.6-0.1l0.1-0.1c0.2-0.1,0.4,0.1,0.4,0.3l0.2,0.1c0.2,0.2,0.2,0.5,0.1,0.8v0.1c0.4-0.1,0.8-0.2,1.1-0.2
	c0.5,0,0.6,0.8,0.3,1.1l0,0c1-0.2,2-0.4,2.9-0.2c0.3,0.1,0.4,0.4,0.3,0.7c0.7,0.3,0.7,1.7-0.1,1.9c-1.9,0.5-3.8,0.3-5.7,0.1
	c-0.8,0.2-1.5,0.3-2.3,0.4c-1.2,0.3-2.5,0.4-3.7,0.4l-0.4-0.2c-0.3,0.1-0.5,0.3-0.7,0.4c-0.2,0.2-0.4-0.2-0.2-0.4
	c0.2-0.2,0.4-0.4,0.6-0.5v-0.5c-0.6,0.1-1.2,0.2-1.8,0.3c0.5,0,1-0.1,1.4-0.1c0.2,0,0.2,0.4,0,0.4c-2.6,0.5-5.2,0.4-7.8,0.8
	c-0.3,0-0.3-0.5-0.1-0.6c0.5-0.2,1-0.3,1.5-0.4c-0.2-0.3-0.3-0.7-0.2-1l-0.3,0.2l-0.4-0.1h-0.1c-0.2,0.8-1.1,0.6-1.1-0.2v-0.1
	l-0.2,0.1L655,530l-0.3,0.4l-0.3,0.1l0,0l-0.5,0.2l-0.4,0.3c-0.5,0.3-1-0.3-1.1-0.9c-0.3,0.5-1,0.6-1.3,0l-0.1-0.1l-0.2,0.4
	c-0.3,0.4-0.5,0.4-1,0.6c-0.2,0.1-0.4-0.1-0.6-0.2l0,0c-0.5,0.5-1.1,0.5-1.8,0.3l-0.2,0.4l-0.2,0.5c-0.6,0.4-1.2,0.7-1.8,1
	c-0.6,0.3-1.3,0.8-2,0.5c-0.4-0.1-0.5-0.6-0.3-0.9l0.1-0.1c-0.2-0.1-0.3-0.4-0.2-0.6l0.1-0.1c-0.3,0.1-0.6,0.3-0.9,0.4
	c-0.9,0.4-1.7,0.7-2.6,0.6c-0.3,0-0.4-0.2-0.4-0.5c-0.6,0.1-1.1,0-1.5-0.1c-0.3-0.1-0.5-0.4-0.5-0.8h-0.3l0.3,0.3
	c0.2,0.2,0.2,0.6,0,0.8c-0.1,0.3-0.4,0.5-0.7,0.3l0,0l-0.1-0.1l-0.1-0.1l0.2,0.2l-0.2,0.3c-0.5-0.4-1.1-0.8-1.5-1.3
	c-0.3,0-0.6-0.2-0.6-0.6v-0.1c-0.2,0.3-0.4,0.5-0.7,0.8c0.2,0.3,0.4,0.5,0.6,0.8s-0.2,0.5-0.4,0.3c-0.2-0.3-0.4-0.5-0.6-0.8
	l-0.2,0.2c-0.4,0.2-0.6-0.1-0.7-0.4h-0.2l-0.4-0.2l0.5,0.5l-0.2,0.4c-0.4-0.3-0.8-0.8-1.2-1.2l0,0c0.2,0.3,0.3,0.6,0.4,0.9
	c0.3,0.6-0.4,1.1-0.7,0.6c-0.2-0.3-0.4-0.8-0.6-1.1l-0.4-0.3l-0.4,0.1l0.2,0.2l0.3,0.2c0.2,0.2,0.1,0.5-0.2,0.5l-0.5-0.1
	c-0.5,0.2-1.2,0.1-1.7-0.3h-0.1c0.1,0.4-0.2,0.7-0.5,0.5l-0.3-0.1l-0.3,0.3c-0.7,0-1.9-0.1-2.6-0.8c-0.2,0.3-0.5,0.3-0.7,0l0,0
	c-0.4,0-0.7,0.1-1.1,0.1l-0.2,0.1l-0.1-0.1c-0.4,0-0.7,0-1.1,0l-0.1,0.2l0,0c-0.2,0.3-0.5,0.1-0.8-0.2h-0.5l0,0
	c0,0.6-0.6,1.1-1.1,0.6l-0.1-0.2l-0.1,0.2l-0.3-0.3l0.1-0.3l0,0c-0.3,0-0.6,0.1-0.9,0.1c-0.2,0.4-0.6,0.4-0.9,0.2l0,0
	c-0.2,0.1-0.4,0.1-0.7,0.1c-0.2,0.6-1,0.8-1.4,0.2c-0.4,0.1-0.7,0.1-1.1,0.2h-0.2h-0.1c-0.3,0-0.7,0-1,0h-0.3
	c-0.2,0.2-0.4,0.1-0.6-0.1c-0.3-0.1-0.6-0.1-0.9-0.2c0,0.4-0.1,0.7-0.4,1c-0.3,0.2-0.6-0.1-0.6-0.4s-0.2-0.8-0.3-1
	c-0.1-0.2-0.3-0.4-0.4-0.6l-0.2-0.2c0.2,0.6,0.2,1.2-0.5,1.4c-0.3,0.1-0.5-0.2-0.6-0.5l-0.1-0.2l-0.5-0.1L605,532
	c-0.1,0.5-0.4,0.9-1.1,1c-0.5,0.1-0.7-0.7-0.4-1.1c0.2-0.3,0.2-0.7,0.1-1.1c0.1,0.3,0.1,0.5-0.1,0.8c-0.1,0.4-0.7,0.4-0.9,0.1
	l-0.1-0.2c-0.1,0.3-0.3,0.5-0.6,0.2l-0.2-0.3l-0.1,0.3c-0.2,0.2-0.5,0.1-0.6-0.2c-0.1-0.5-0.4-0.9-0.8-1.1c-0.2-0.1-0.1-0.6,0.1-0.5
	l0.3,0.1l-0.5-0.7c-0.2-0.2,0.1-0.6,0.3-0.4c0.6,0.6,1.3,1.2,1.8,1.9c-0.1-0.3-0.2-0.6-0.3-0.9l-0.2-0.3c-0.3,0-0.6-0.1-0.9-0.4
	v-0.6v-0.3l-0.1-0.1c-0.2-0.2,0-0.5,0.2-0.4l0.1,0.1h0.1l0.1-0.3h0.1l-0.1-0.1c-0.2-0.3-0.2-0.8,0.1-1c0.8-0.6,1.9,0.2,2.5,0.8
	c0.2,0.2,0.3,0.5,0.4,0.8l0,0c0.2,0.2,0.5,0.4,1,0.8l-0.1-0.1c-0.2-0.3-0.4-0.5-0.6-0.8v-0.4c-0.3-0.4-0.6-0.8-1.1-1.1
	c-0.2-0.2-0.2-0.5,0.1-0.6l0.5-0.1v-0.1c-0.3-0.5,0.1-1.1,0.6-1c0.2,0,0.5,0.1,0.7,0.3c-0.2-0.2-0.2-0.8,0.1-0.9
	c0.4-0.3,0.9-0.3,1.2,0c-0.2-0.2-0.3-0.4-0.4-0.7l-0.1-0.3l-0.1-0.1c-0.2-0.1-0.2-0.5,0.1-0.6h0.2c0.2-0.3,0.4-0.4,0.7-0.4
	c0.9,0.2,1.7,1.1,2.4,2c0.9,0.4,1.5,1.2,2,2.2c0-0.3-0.1-0.7-0.1-1c-0.2-0.4-0.4-0.8-0.6-1c-0.4-0.5-1-0.7-1.4-1.2
	c-0.2-0.2-0.1-0.6,0.1-0.6c0.3-0.1,0.5,0,0.7,0.1c0.1-0.2,0.2-0.4,0.5-0.4c0.1-0.3,0.3-0.5,0.5-0.4c1.2,0.3,2.1,2,2.8,3.1
	c0.3,0.4,0.5,0.8,0.7,1.2l0.3,0.1c-0.1-0.2-0.1-0.5-0.2-0.7c-0.2-0.8-0.6-1.5-1-2.2c-0.4-0.8-1.1-1-1.7-1.5
	c-0.4-0.4-0.1-1.2,0.4-1.2c1.5,0,2.3,1.6,2.9,3.5c0.1-0.2,0.3-0.4,0.5-0.4c-0.7-1.7-1.7-2.8-2.7-4.2c-0.3-0.5,0-1.1,0.5-0.9
	c0.7,0.4,1.3,1,1.8,1.7l0,0c-0.2-0.3-0.3-0.5-0.4-1c-0.1-0.5,0.3-0.9,0.7-0.9c0.8,0,1.3,0.9,1.8,1.6l0.1-0.2
	c-0.3-0.5,0.1-1.2,0.6-0.9l0.4,0.4l0.4,0.3l0.2,0.2c0.4,0.1,0.8,0.4,1.1,0.8v-0.3c0-0.3,0.1-0.5,0.2-0.6v-0.5
	c0.3-0.9,1.2-0.8,1.7-0.3c0.4,0.4,0.7,1.1,0.9,1.7c0.1-0.3,0.1-0.5,0.1-0.8c0.1-0.6,0.6-0.7,1-0.4c0.1-0.2,0.4-0.4,0.6-0.2
	c0.6,0.4,0.9,1,1.1,1.6c3.4-3.1,6.5-7.1,8.3-11.7c2.1-5.7,1.4-11.9,0.9-18c-0.6-5.9-1.4-11.6-1-17.5c0.5-6.7,1.7-13.2,1.3-20
	c-0.2-3.6-0.6-7.2-1.3-10.7c-1,0.2-2.6-0.4-3.6-1.1c-0.3,0.1-0.6,0.1-1,0.1c0.2,0.9,0.3,1.8-0.4,2.4c-0.9,0.8-2,0.5-3,0
	c-0.9,1.1-2.3,0.4-3.2-0.8c-0.5,0.2-1,0.1-1.6-0.5c-0.5-0.5-0.7-1.1-0.9-1.8l-0.5-0.1c-0.2-0.1-0.4-0.2-0.7-0.3
	c-0.5-0.2-1-0.6-1.4-1.2c-0.7,0.2-1.3,0-2-0.4c-0.3-0.1-0.6-0.1-1-0.1c-0.9,0.1-1.7-0.4-2.4-1.1c-0.6,0.6-1.4,0.6-2.4,0.1
	c-0.6-0.3-1-0.8-1.5-1.2l-0.1-0.1l-0.3,0.1c-0.2,0.1-1,0.6-1.2,0.3c0.7,1.1,1.3,2.7,0.2,3.9c-0.7,0.8-1.6,0.6-2.5,0.5
	c-0.3,0.9-1.1,1-1.9,0.8l0,0h-0.1c-0.3-0.1-0.6-0.2-0.9-0.3c-1.2,1.9-3.6,3-5.5,2.4c-1.5-0.5-2.6-2.4-2.7-4.4l-0.2,0.2
	c-0.4,0.2-0.9,0.4-1.3,0.2l-0.4-0.2l-0.3-0.3h-0.1l-0.1-0.2l-0.2-0.2l-0.1-0.1l-0.1-0.3l0,0l0,0c-0.2-0.6,0.4-1.4,0-1.8l-0.1,0.1
	c-0.2,0.3-0.4,0.7-0.6,1c-0.7,1.3-1.8,2.6-3,2.1c-1.1,1.1-2.9,1.8-4,0.6c-0.7-0.8-1-1.9-0.7-3.1c0.2-0.8,0.4-0.9-0.4-0.9
	c-0.4,0-0.8-0.1-1.2-0.3c-0.5-0.3-0.6-1.1-0.3-1.6c0.3-0.6,1.4-1.5,0.9-2.1l-0.1,0.2c-0.8,1.5-2,1.9-3.4,2.4c-0.4,0.1-1-0.2-1-0.8
	c0-0.4,0.1-1.1-0.3-1.3c-0.2-0.2-0.9-0.8-1.2-0.5c-0.6,0.6-1.1,1.3-1.8,1.8c-1.2,0.8-2.9,1.6-4.2,0.8c-1.1-0.7-2.2-2.4-1.5-4
	c0.4-0.8,1-1.2,1.7-1.6c-0.5-0.8-0.9-1.5-0.5-2.7c0.3-1.1,1.2-1.6,2.1-1.8c-0.1-0.3-0.2-0.5-0.2-0.9c-0.1-0.6,0.2-1.2,0.4-1.7
	c0.3-0.6,0.7-0.9,1.2-1c-0.1-0.4-0.1-0.8,0.2-1.3c0.2-0.3,0.4-0.6,0.6-0.8l0.2-0.2c0.2-0.1,0.4-0.3,0.6-0.4l0.1-0.1l0,0
	c0.2-0.1,0.4-0.2,0.6-0.3l0,0c0.2-0.1,0.4-0.2,0.6-0.2c0.5-0.2,0.9-0.2,1.2-0.6l0.5-0.4c-1.6,0.1-2.7-1.1-2.6-3.1l0,0l0.1-0.7
	c-1.1-0.8-1.5-2.4-0.8-3.8l0.3-0.6c0.5-0.8,1.7-1.3,2.5-1c0.6,0.2,0.4,0.2,0.9-0.1c0-0.2,0.1-0.4,0.1-0.6l0.1-0.2l0.2-0.4l0.3-0.5
	h0.2l0.2-0.1l0.1-0.1c-0.6-0.1-1-0.5-1.3-1.1c-1.2-0.4-2.9-1.4-2.8-3c0.1-1.1,0.6-1.8,1.2-2.2c-0.8-1-1.3-2.2-0.9-3.4
	c0.2-0.4,0.3-0.7,0.5-0.9l0,0l0.1-0.1l0.5-0.4l0.1-0.1c0.4-0.2,0.7-0.3,1.2-0.3h0.1c0.2,0,0.4-0.1,0.6-0.1c0.3-1,1.1-1.5,2.1-1.6
	c-0.1-1.2,0.1-2.4,1.2-3.1c1-0.6,2-0.4,2.9,0.2c0.6-0.3,1.1-0.2,1.7,0.1l0.1-0.2c0.3-0.5,0.6-0.8,1.2-1l0.5-0.1l0.1-0.6l0.3-0.5
	c0-0.7,0.1-1.4,0.3-1.9c0.4-1,0.9-1.5,1.5-1.5c-0.7-1.3-0.9-2.8-0.3-4.1c0.4-0.9,0.4-2,0.9-3c0.5-1,1.2-0.7,1.9-0.5
	c0.1-0.7,0.2-1.3,0.5-1.8c-1.1-1.1-2.1-2.6-2.7-4.1c-0.2-0.5-0.2-0.9-0.3-1.3v-0.2c0-0.4,0.1-0.8,0.1-1l0.1-0.2
	c0.1-0.3,0.3-0.6,0.5-0.8l0.1-0.1c0.4-0.4,0.9-0.6,1.4-0.8c0.1-1.6,0.6-3.3,1.9-3.7c0.8-0.2,1.4,0.2,2.1,0.7
	c0.3,0.3,0.7,0.7,0.9,1.1c0.2-0.2,0.4-0.4,0.5-0.7c0.3-0.1,0.4-0.3,0.1-0.4c-0.3-0.4-0.7-0.7-0.9-1.1c-0.5-1-0.6-2.2-0.4-3.2
	c0.2-0.9,0.9-1.6,1.7-1.7c0.8-0.1,1.2,0.1,1.7,0.4c0.2-0.2,0.4-0.5,0.6-0.7c0.5-0.3,1.1-0.2,1.5,0.1c0.4,0.2,0.6,0.6,0.9,1
	c1-0.2,2.2,0.2,3.1,0.8l0.4-0.6c-0.2-0.7-0.1-1.5,0.7-1.9c0.4-0.2,0.8-0.4,1.2-0.5l0.5-0.2l-0.1-0.2l-0.3-0.5
	c-0.9,0.1-1.8,0.2-2.4-0.4c-1.1-0.9-1.4-2.1-1.1-3.4c-0.2-0.3-0.3-0.7-0.2-1.2c0.2-0.8,1-1.6,1.7-2.1c0-0.6,0.2-1.2,0.5-1.8l0.2-0.4
	v-0.1c-0.2-0.5-0.2-1-0.2-1.5c0.1-1.7,1.8-2.7,3-2.9c0.3-0.3,0.6-0.5,0.9-0.7l0,0l0,0c0.9-0.6,1.9-1,2.9-1c0.5,0,1,0.2,1.4,0.6
	l0.2-0.1c0.2-0.1,0.4-0.2,0.6-0.2c0.3-0.1,0.7,0,1,0.1c0.6,0.2,1.2,1.4,1.6,1.5c1.1,0.2,1.7-0.1,2.6-0.9c0.3-0.3,0.5-0.4,0.8-0.5
	c0.4-0.8,1-1.5,1.7-1.9c0.2-0.6,0.4-1.1,0.7-1.5c-0.1-0.4-0.1-0.7,0.1-1c0.1-0.3,0.3-0.5,0.4-0.6c-0.7-1.4-1.7-3.6-0.6-5.1
	c0.5-0.8,1-1.1,1.8-1.2c0.4-0.1,0.7,0,1.1,0.1c0.2,0,0.4,0.1,0.6,0l0,0c0.4-0.1,0.6-0.3,0.3-1.1c-0.4-1.2-0.3-3.2,1.1-3.5h0.5l0,0
	l0,0c0.9,0.1,1.8,0.9,2.6,1.5l0.5,0.4c0.1,0,0.2-0.2,0.4-0.5l0.2-0.2l0.2-0.2c0.6-0.1,1.1,0.1,1.7,0.6c0.7,0.6,1.6-0.7,2.1-1.2
	c0.6-0.5,1.3-0.6,2-0.6c0.6,0,1.1,0.7,1.1,1.3c0,0.8-0.2,1.5-0.2,2.2c0,0.3,0.3,0.6,0.7,0.9c1.1-0.4,2.2-0.2,2.9,0.8
	c0.4-0.5,0.8-1,1.2-1.5c0.4-0.5,1-0.4,1.5-0.2c2.5,1.4,3.1,6.5,2.1,9.8l0.5-0.2c0.8-0.4,1.7,0.4,1.7,1.5c0,0.3,0,0.4-0.1,0.6l0,0
	v0.2l0.5,0.2l0.3,0.1l0,0l0.5,0.3l0.3,0.1l0.3,0.1l-0.2-0.3c-0.3-0.4-0.6-0.8-0.7-1.3c-0.3-1-0.3-2.3,0.1-3.3
	c0.3-0.9,1.1-1.4,1.9-1.4c0.7,0,1.2,0.3,1.7,0.8c0.2-0.1,0.4-0.5,0.7-0.5c0.6-0.2,1.1,0,1.5,0.4c0.3,0.3,0.6,0.8,0.7,1.2
	c1.3,0.1,2.7,0.9,3.6,2c0.7,1,1.1,2.2,0.8,3.4l-0.3,0.6l-0.1,0.1l-0.6,0.6l-0.1,0.1l0,0l-0.1,0.1l0,0l0.2,0.3c0.2,0.3,0.4,0.6,0.5,1
	l0.1-0.1v0.1c0.4-0.3,0.8-0.4,1.3-0.3c0.3-1.4,1.3-2.3,2.8-2.1c1.6,0.2,2.2,1.8,2.4,3.5c1.5,0.8,2.6,2.6,2,4.6l-0.2,0.5l0.3,0.1l0,0
	h0.1c0.3,0.1,0.6,0.1,0.9,0.3c0.5,0.3,0.4-0.2,1-0.5c0.3-0.1,0.6-0.3,1-0.4l0.4-0.2l0,0l0.3-0.1c0.8-0.1,1.3-0.8,2.1-1
	c1.2-0.2,2.4,0.5,3.4,1.3c0.9,0.8,1.6,2,1.8,3.4c0.1,1.1-0.2,1.9-0.7,2.7c0.5,0.3,1,0.8,1.4,1.3c1-0.4,2.1-0.5,3.1-0.1
	c1.1,0.4,1.1,1.7,1.6,2.8c0.6,1.6,1.7,2.8,1.3,4.7l-0.1,0.3l0.1,0.2c0.2,0.8,0,1.3-0.3,1.9c-0.2,0.3-0.4,0.5-0.7,0.7h0.4
	c0.3,0,0.5,0,0.7,0h0.2l0.5,0.1h0.1H689c0.4,0.1,0.8,0.2,1.2,0.5c0.6,0.4,0.9,1.1,1,1.8l0.2,0.1l0,0l0,0c0.3,0.1,0.5,0.2,0.8,0.4
	l0.1,0.1c0.2,0.2,0.4,0.4,0.6,0.6l0.1,0.1c0.2,0.2,0.3,0.5,0.3,0.8v0.1v0.1l0,0v0.1c0,0.2,0,0.5,0,0.8c1.1,1.3,1.3,3.2,0,3.9
	l0.2,0.3c0.2,0.3,0.4,1.2-0.1,1.5c-0.5,0.3-1,0.3-1.4,0.3c0.9,1.6,2.4,3.7,1.5,5.2l0.5,0.1c0.8-0.7,1.8-0.9,2.8-0.4
	c1.1,0.5,1.3,1.7,1.3,2.9c0.9,0.1,1.8,0.4,2.1,1.4c0.2,0,0.4,0,0.6,0h0.1c0.4,0,0.8,0.1,1.1,0.2l0.1,0.1l0.5,0.4l0.1,0.1l0,0
	c0.2,0.2,0.4,0.5,0.5,0.8c0.5,1.2,0,2.4-0.7,3.4c0.6,0.3,1.1,0.9,1.3,2c0.2,1.6-1.3,2.6-2.5,3.1c-0.2,0.6-0.6,1-1.2,1.2l0.1,0.1
	l0.2,0.2l0.1-0.1l0.3,0.4l0.2,0.3l0.1,0.2l0.1,0.6c0.4,0.3,0.3,0.3,0.9,0.1c0.7-0.3,1.9,0.1,2.4,0.8l0.3,0.6
	c0.7,1.3,0.4,2.8-0.6,3.7l0.1,0.6l0,0c0.2,1.9-0.8,3.2-2.4,3.1c0.3,0.2,0.5,0.5,0.6,0.8c0.3,0.8,0.4,1.3,0.2,2.2
	c-0.1,0.3-0.1,0.5-0.2,0.9l-0.1-0.1l0.1,0.2c0.2,0.3,0.4,0.6,0.5,1c0.2-0.2,0.5-0.2,0.8-0.2c0.1-0.9,0.4-1.8,1.2-2
	c0.5-0.1,1,0.1,1.4,0.5s0.8,0.3,1.3,0.4c0.2,0,0.4,0.1,0.6,0.1l0,0c0.2,0,0.4,0.1,0.6,0.2l0,0h0.1c0.2,0.1,0.4,0.2,0.6,0.3l0.2,0.1
	c0.3,0.2,0.5,0.4,0.7,0.7c0.3,0.5,0.4,0.9,0.3,1.3c0.5,0.1,0.9,0.3,1.3,0.9c0.3,0.5,0.6,1,0.6,1.7c0,0.3,0,0.6-0.1,0.9
	c0.9,0.1,1.9,0.4,2.3,1.5c0.5,1.1,0.2,1.9-0.2,2.7C715.4,424.2,716.1,424.5,716.6,425z M580.2,418.2l-0.1-0.4
	c-0.3,0.2-0.6,0.4-0.9,0.4c0.2,0.3,0.3,0.6,0.3,1h0.3l0.1-0.2l0.2-0.3L580.2,418.2z M606.1,528.5c-0.2-0.3-0.4-0.6-0.6-0.9l-0.2-0.2
	c0.2,0.3,0.3,0.7,0.4,1L606.1,528.5z M607.7,525.2c-0.3-0.2-0.6-0.5-0.9-0.8c0.2,0.3,0.4,0.6,0.5,0.9L607.7,525.2L607.7,525.2z
	 M610.8,528.2l-0.3-0.3l0.2,0.4L610.8,528.2z M616,526.4c-0.2-0.3-0.4-0.6-0.6-0.9c0.1,0.3,0.1,0.7,0.2,1L616,526.4z M619.9,521.9
	l-0.2-0.4c0.1,0.2,0.1,0.5,0.2,0.8V521.9z M639.8,377.9L639.8,377.9l0.2-0.1L639.8,377.9z M640.2,384.2l-0.3-0.3l-0.1,0.2l0.3,0.3
	L640.2,384.2z M669.2,527.2l0.1-0.1L669.2,527.2L669.2,527.2z M668.5,527.9l0.3-0.1l0.2-0.3L668.5,527.9z M670.8,388.9L670.8,388.9
	l-0.1,0.1L670.8,388.9z M681.6,376.7L681.6,376.7c-0.1-0.4-0.1-0.4-0.1-0.2H681C681.2,376.5,681.4,376.6,681.6,376.7z M684.7,386.6
	l-0.1-0.3L684.7,386.6z"/>
</svg>
