<?xml version="1.0" encoding="utf-8"?>
<!-- Generator: Adobe Illustrator 27.7.0, SVG Export Plug-In . SVG Version: 6.00 Build 0)  -->
<svg version="1.1" id="Layer_1" xmlns="http://www.w3.org/2000/svg" xmlns:xlink="http://www.w3.org/1999/xlink" x="0px" y="0px"
	 viewBox="0 0 1610 768" style="enable-background:new 0 0 1610 768;" xml:space="preserve">
<style type="text/css">
	.st0{fill:#454545;}
</style>
<path class="st0" d="M820.8,432.4c0-1.6-1.1-2.9-2.8-3.7l-0.6-0.3l0,0c-0.4-0.2-0.8-0.3-1.2-0.4l0,0h-0.1l-0.8-0.1l-0.4-0.1
	c-0.4,0-0.8,0.1-1.2,0.2l-1.8-0.4c-0.5-0.1-1,0-1.5,0c-1.5-0.5-1.7-0.7-0.9-0.6l0.7-0.1c1.2-0.3,2.1-0.5,2.1-1.5
	c0-1.1-0.6-3.1-2-3.7c-0.7-0.3-1.4-0.4-2.1-0.6c-1.3-0.3-0.4-0.8,0.6-0.9c1.5-0.1,2.2-0.7,2-1.8l-0.2-0.2c0.4-0.5,0.7-1.1,0.5-1.7
	s-0.8-1-1.5-1.2c0.2-0.3,0.4-0.6,0.7-0.9c-0.1-0.3-0.4-0.6-0.7-0.9c-0.3-0.2-0.6-0.4-0.8-0.7c-0.3-0.4-0.4-0.8-0.8-1.1
	c-0.4-0.4-1-0.9-1.7-1c-0.5-0.1-1,0.1-1.3,0.4c-0.4,0.4-0.5,0.8-1.2,0.9c-0.4,0.1-0.8,0.1-1.2,0.2s-0.6,0.3-0.8,0.5l-0.6,0.5
	l-0.4,0.1c-0.8-0.2-1.5-0.5-2.2-0.8c-0.5,0.1-1,0.1-1.5,0.2l-0.2-0.5c-0.9-1.3-2.5-2.9-4.3-3.5c-1.4-0.4-3.2,0.6-3.8,1.5h-0.4
	l-0.7,0.1c0.3-0.3,0.4-0.6,0.3-1.1c-0.3-1.1-1.4-2.9-3-3.2c-0.7-0.1-1.5-0.1-2.2-0.2c-1.4-0.1-0.6-0.8,0.3-1c1.4-0.4,2-1,1.5-2.1
	l-0.2-0.2c0.3-0.6,0.4-1.2,0-1.7l-0.4-0.3c3.2,0.2,5.4-1.4,5.1-3.8l0,0c0-0.3-0.1-0.5-0.1-0.8c2-1,2.8-2.9,1.4-4.6
	c-0.2-0.3-0.4-0.5-0.7-0.8c-1-0.9-3.3-1.5-4.8-1.1c-1.1,0.3-0.8,0.3-1.7-0.1c0-0.3-0.1-0.6-0.3-0.8l-0.1-0.2l-0.4-0.4l-0.6-0.6
	l-0.2,0.1l-0.4-0.2l-0.1-0.1c1.1-0.2,1.9-0.7,2.4-1.5c2.3-0.6,5.4-1.8,5.1-3.8c-0.2-1.3-1.2-2.1-2.4-2.5c1.4-1.3,2.4-2.7,1.5-4.2
	c-0.3-0.5-0.7-0.8-1.1-1.1l0,0l0,0l-0.1-0.1l0,0l-0.1,0.2l-0.8-0.4l-0.3-0.1l-0.9-0.2h-0.1c-0.4-0.1-0.7-0.1-1.1-0.1h-0.3
	c-0.4,0-0.7,0-1.1,0c-0.1-0.3-0.4-0.6-0.7-0.8h0.1c3.2-1.7-0.2-4.9-2.1-7.1c0.9,0,1.8,0,2.8-0.4c0.9-0.3,0.6-1.3,0.2-1.8l-0.3-0.4
	c2.6-0.8,2.3-3.2,0.2-4.9l0.1-0.7V357v-0.1v-0.1l0,0v-0.2l-0.1-0.2l-0.2-0.3l-0.2-0.2l-0.3-0.3l-0.3-0.2l-0.3-0.2l-0.4-0.2l-0.4-0.2
	l-0.4-0.2l-0.4-0.1l-0.4-0.1l-0.3-0.1l0,0l-0.4-0.1c-0.1-0.9-0.7-1.7-1.8-2.3c-0.7-0.4-1.5-0.6-2.3-0.7l0,0h-0.1
	c-0.4-0.1-0.8-0.1-1.2-0.1h-0.4c-0.5,0-1,0-1.5,0h-0.8c0.6-0.2,1.2-0.5,1.5-0.8c0.7-0.8,1.1-1.5,0.7-2.4l-0.1-0.3l0.3-0.4
	c1-2.4-1.1-4-2.2-6c-0.8-1.3-0.8-3-2.9-3.6c-2.1-0.6-4.2-0.5-6.3,0c-0.7-0.7-1.6-1.3-2.6-1.8c0.9-1,1.7-2,1.5-3.4
	c-0.3-1.8-1.5-3.4-3.3-4.5c-1.7-1.1-4.2-2-6.5-1.8c-1.6,0.1-2.6,1.1-4.2,1.2l-0.5,0.1l0,0l-0.8,0.2c-0.6,0.1-1.2,0.3-1.8,0.4
	c-1.1,0.3-0.9,0.9-1.9,0.6c-0.5-0.2-1.1-0.3-1.7-0.4l-0.2-0.1l0,0l-0.7-0.1l0.4-0.6c1.2-2.5-0.9-4.9-3.8-5.9
	c-0.3-2.1-1.4-4.2-4.6-4.5c-2.8-0.3-4.9,0.8-5.5,2.5c-1-0.1-1.8-0.1-2.6,0.3l0,0l-0.2,0.1c-0.1-0.5-0.5-0.9-0.9-1.3l-0.5-0.4
	l0.1-0.1l0.1-0.1l0.1-0.1l0.3-0.1l0,0l0.1-0.1l0.8-0.5l0.1-0.1c0.3-0.2,0.5-0.4,0.6-0.7c0.5-1.6,0-3.1-1.4-4.4
	c-1.6-1.5-4.3-2.6-6.9-2.8c-0.3-0.6-0.7-1.1-1.3-1.5c-0.9-0.6-1.8-0.8-3-0.6c-0.5,0.1-1,0.5-1.4,0.7c-0.9-0.6-1.7-1-3.2-1
	c-1.6-0.1-3,0.6-3.7,1.7c-0.8,1.3-0.9,2.8-0.3,4.1c0.3,0.6,0.9,1.1,1.4,1.7c0.5,0.3,0.5,0.5-0.3,0.5c-0.4,0.3-0.8,0.5-1.2,0.7
	l-0.2-0.3c-0.1-0.6-0.7-1.1-1.4-1.4c-0.7-0.5-1.5-0.9-2.3-1.1c1.4-4.1,0.1-9.5-4.3-11.2c-1.1-0.4-2.1-0.5-3,0.1s-1.7,1.2-2.5,1.8
	c-1.3-1.3-3.7-1.6-5.7-1.1c-0.7-0.3-1.3-0.7-1.3-1.1c0.2-0.9,0.5-1.8,0.5-2.8c0-0.8-0.9-1.7-2-1.7c-1.4-0.1-2.8,0-4,0.6
	c-1.1,0.6-2.8,2.3-4.2,1.4c-1-0.6-2-0.9-3.3-0.8l-0.5,0.2l-0.4,0.3l0,0l-0.1,0.1l0,0l-0.5,0.4c-0.3-0.1-0.7-0.3-1-0.5
	c-1.5-0.8-3.3-1.8-5-2l0,0l0,0c-0.4,0-0.7,0-1.1,0c-2.6,0.4-2.9,2.8-2.2,4.4c0.4,1,0.1,1.3-0.8,1.3l0,0c-0.3,0-0.7,0-1.1-0.1
	c-0.7-0.1-1.5-0.2-2.2-0.1c-1.6,0.1-2.6,0.5-3.7,1.5c-1.3,1.1-1.1,2.7-0.4,4.1c-0.9-0.1-1.9,0-2.7,0.2c-1.7,0.4-2.9,1-3.4,2
	c-0.8-0.2-1.8,0-2.9,0.6c-1.7,1-2.9,1.3-5.1,1.1c-0.8-0.1-1.9-1.6-3-1.9c-0.6-0.2-1.3-0.3-1.9-0.2c-0.4,0.1-0.8,0.1-1.2,0.2
	l-0.4,0.1c-0.7-0.5-1.6-0.8-2.7-0.8c-2,0-4,0.4-5.7,1.1l0,0h-0.1c-0.6,0.3-1.2,0.5-1.8,0.8c-2.5,0.2-5.9,1.4-6.1,3.6
	c-0.1,0.7,0,1.2,0.3,1.9v0.2l-0.5,0.5c-0.7,0.8-1,1.4-1.1,2.2c-1.3,0.6-2.9,1.5-3.3,2.5c-0.3,0.6-0.1,1.1,0.3,1.5
	c-0.8,1.6-0.2,3.1,1.9,4.3c1.3,0.7,3.1,0.7,4.9,0.6l0.5,0.7l0.3,0.3c-0.3,0.1-0.7,0.2-1,0.3c-0.8,0.2-1.7,0.3-2.4,0.6
	c-1.5,0.6-1.8,1.5-1.4,2.4c-0.4,0.2-0.7,0.5-0.9,0.7c-1.8-0.8-4-1.3-6.1-1.2c-0.4-0.5-0.9-1-1.6-1.3c-1-0.5-2-0.5-3-0.2
	c-0.5,0.1-0.9,0.6-1.3,0.8c-1-0.5-1.8-0.8-3.4-0.6c-1.5,0.1-2.9,1-3.4,2.1c-0.5,1.3-0.3,2.9,0.5,4.1c0.4,0.6,1.1,1,1.7,1.5
	c0.6,0.3,0.6,0.4-0.1,0.6c-0.3,0.3-0.7,0.6-1.1,0.8c-0.4-0.5-1.1-1.1-1.8-1.5c-1.3-0.6-2.6-1.2-4.1-1c-2.6,0.4-3.7,2.6-4,4.6
	c-0.6,0.1-1.2,0.2-1.7,0.3l-0.6,0.2l-0.4,0.2l-0.4,0.2l-0.4,0.3l-0.3,0.3l-0.3,0.4l-0.2,0.3l-0.1,0.4l-0.1,0.4v0.4l0.1,0.5l0.1,0.4
	c0.1,0.3,0.2,0.6,0.4,1c1,2,2.8,3.9,5,5.3c-0.6,0.7-1,1.4-1.1,2.3c-1.4-0.3-2.7-0.8-3.8,0.5c-1,1.1-0.9,2.5-1.9,3.7
	c-1.4,1.7-0.9,3.6,0.3,5.2c-1.3,0.1-2.4,0.5-3.1,1.8c-0.4,0.7-0.6,1.6-0.6,2.5l-0.6,0.6c-0.5,0.9-0.1,1.7,0.7,2.3
	c-0.5,0.6-0.7,1.3-0.4,2c-0.7,0.5-0.9,1.1-1,1.9c-1.6-1.3-3.8,0.2-2.2,1.5c0.6,0.5,0.8,1.4,0.9,2.2c-1.5,0.2-2.8,0.8-3.3,1.8
	c-0.4,0-0.8,0-1.2,0h-0.3c-0.4,0-0.8,0-1.2,0.1l0,0c-0.4,0.1-0.7,0.1-1,0.2l-0.3,0.1l-0.9,0.4l0,0l0,0l-0.1,0.1l0,0l0,0
	c-0.4,0.3-0.8,0.6-1.1,1.1c-1,1.5,0,3.1,1.5,4.4c-1.3,0.4-2.2,1.2-2.5,2.7c-0.4,2.1,2.9,3.4,5.3,4c0.5,0.8,1.4,1.3,2.5,1.5l-0.1,0.1
	l-0.4,0.2l-0.2-0.1L566,396l-0.4,0.4l-0.1,0.2c-0.1,0.3-0.2,0.5-0.3,0.8c-0.9,0.4-0.6,0.4-1.7,0.1c-1.6-0.4-3.9,0.2-5,1.2
	c-0.3,0.3-0.5,0.5-0.7,0.8c-1.5,1.7-0.7,3.7,1.5,4.7c-0.1,0.3-0.1,0.6-0.2,0.9l0,0c-0.3,2.6,2.1,4.3,5.7,4c0.7,0.7,1.7,1.1,3.1,0.9
	c0.6-0.1,1.2-0.3,1.7-0.5c0,0.1,0.1,0.3,0.1,0.6l-0.2,0.6l-0.4,0.4l-0.4,0.6c-0.2,0.6,0.7,1.5,1.3,1.7c1.7,0.7,3.6,1.3,5.4,1.8
	l0.4,0.1l-0.1,0.2c-0.1,0.3-0.4,0.6-0.6,0.8c-0.7,0.8-1.6,1.4-2,2.3c-0.7,1.4,1,2.4,2.5,2.8c2.5,0.7,7.3,0.5,9.6-1.2h0.1
	c-0.3,0.5-0.6,1-0.7,1.5c-1-0.5-2.5-0.5-3.3,0.2c-0.5,0.4-0.7,1-0.6,1.7l-0.3,0.1c-0.9,1-0.5,1.7,0.7,2.4c0.8,0.4,1.3,1.3-0.1,1
	c-0.7-0.1-1.4-0.3-2.2-0.3c-1.6,0-3.3,1.5-4,2.5c-0.6,0.9,0,1.5,0.9,2.1l0.6,0.3c0.8,0.2,0.4,0.3-1.2,0.2c-0.4-0.2-0.9-0.4-1.3-0.5
	l-1.8-0.3c-0.3-0.3-0.6-0.5-1-0.6l-0.3-0.1c-0.3-0.1-0.6-0.2-0.9-0.2h-0.1l0,0c-0.4-0.1-0.9-0.1-1.3-0.1l0,0l-0.8,0.1
	c-2.1,0.1-3.8,0.8-4.7,2.3c-0.9,1.3,0.9,2.5-0.1,3.6c-0.4,0.4-0.5,0.8-0.5,1.3c-0.4,0.4-0.8,0.8-1.1,1.2c-0.4,0.8,0.1,1.6-0.4,2.4
	l-0.1,0.3l0,0l-0.1,0.3c-0.1,0.4-0.1,0.8-0.3,1.1c-0.1,0.6,0.4,0.7-0.1,1.1c-0.4,0.2-0.6,0.4-0.9,0.7l-0.1,0.1l0,0l-0.3,0.3
	l-0.4-0.4c-1.7-1.4-4.3-1.1-6.1,0c-1.8-0.5-3.8-0.6-5.2,0.8c-1.2,1.3-0.9,2.6,0.3,3.5c-0.4,0.4-0.7,0.9-0.5,1.4v-0.1v0.1
	c-0.4-0.1-0.9,0-1.3,0l-0.4,0.1l0,0l0,0v-0.2V450l0,0v-0.1v-0.1l-0.1-0.4l-0.1-0.2l-0.5-0.6c-1.2-0.8-2.6-1-4.1-0.7
	c-1.7,0.3-3.5,1.3-4.5,2.5c-0.5,0-1.1,0-1.7,0.2c-0.8,0.3-1.2,0.7-1.4,1.3c-0.1,0.3,0.1,0.6,0.1,0.9c-0.8,0.3-1.3,0.5-1.8,1.2
	s-0.5,1.7,0.2,2.4c0.8,0.8,2,1.3,3.3,1.5c0.6,0.1,1.2-0.1,1.8-0.1c0.4-0.2,0.6-0.1,0.4,0.3c0.1,0.3,0.2,0.5,0.2,0.8
	c-0.6-0.1-1.3,0-1.8,0.2c-1,0.3-1.9,0.7-2.4,1.5c-0.8,1.3,0.4,2.7,1.7,3.7l-0.3,0.7l-0.1-0.1l-0.1,0.4l-0.1,0.5l0.1,0.6l0.2,0.4
	l0.6,0.6l0.3,0.3c0.4,0.3,1,0.4,1.6,0.6c1.9,0.4,4.1,0.3,6.1-0.1c0.3,0.6,0.7,1,1.3,1.4c-0.8,0.5-1.7,0.9-1.2,1.9
	c0.4,0.9,1.5,1.5,2,2.4c0.7,1.3,2.3,1.9,4,2c-0.5,0.6-0.6,1.3,0.1,2.2c0.4,0.5,0.9,0.9,1.6,1.3l0.2,0.5l0.4,0.4l-0.2,0.1
	c-1.1,0.7-2.3,1.7-2,2.9c0.2,0.5,0.5,0.9,0.8,1.3l0.3,0.6v0.1c-0.3,0.8-1.1,2-0.5,2.7c0.8,1.1,1.8,1.5,3.3,1.8c0,0-0.4,0.3-0.6,0.6
	c-0.3,0.5-0.4,1.1-0.1,1.7c0.2,0.5,0.5,0.8,1,1c-0.8,0.6-1.4,1.3-0.8,2.1c0.6,0.8,1.6,1.2,2.5,1.7c-0.8,1-1.4,2.2,0.4,3
	c1.3,0.6,3.3,1.3,4.9,1h0.4c0.4,0,0.8,0,1.3-0.1c1.1,1,2.7,1.3,4.5,0.7c1.1-0.4,1.8-0.5,3-0.5l0,0c0,0.5,0,1,0.3,1.4
	s0.7,0.6,1.2,0.6c0.6,0.9,1.7,1.4,3.2,1.3c-0.1,0.5-0.7,1-1.1,1.4c-0.9,1.1-1.5,2.6-0.2,3.7c0.7,0.6,1.6,0.8,2.5,0.8
	c0.7,1.9,3.2,3.1,5.7,2.2c0.6,0.2,1.2,0.3,1.8,0.3c1.5,1.7,5,2.5,7.3,1.4c1.8-0.9,3.1-2.7,3.3-4.5c0.5-0.4,0.8-1,0.6-1.5l0.5-0.2
	l0,0l0,0c0.3-0.2,0.6-0.4,0.8-0.6c1,0.3,2.1,0.4,3.1-0.1c0.7-0.3,1.1-0.9,1.8-1.2c0.4-0.2,0.8-0.4,1.2-0.7c0.5-0.1,0.9-0.2,1.3-0.4
	c2.1-1,3.5-3.3,3.3-5.3l0.1-0.1c0.9,0.1,1.8,0,2.5-0.6c0.7-0.5,0.8-1,1-1.8c0.1-0.6,0.8-0.8,1.2-1.3c0.4-0.6,0.7-1.3,0.7-2
	c0.4,0.1,0.8,0.1,1.3,0.1c1.1-0.1,1.7-0.4,2-1c1.7,0,3.4-0.6,3.7-1.7c12,5.5,19,5.6,29.4,9.1c11.9,4,20.5,17,23.1,31.7
	s1.7,108.6,1.5,114.4c-0.1,4.3-1.3,9.6-2.2,13.5c0.3-2.7,0.8-5.2,0.8-5.2s-3.4,2.9-5,9.7c-3.4-5.3-10.9-8.1-10.9-8.1
	s4.8,3.9,6.4,7.9C657,658.6,645,657,645,657s16,5.2,15.9,12.1c-0.5,1.1,9.5,2.5,25.6,3.1c16.1,0.5,23.8,1,25-1
	c1.2-1.9,5.1-5.9,11.6-6.8c-8.4,0.3-12.6,2.1-14.3,3.9c5.7-7.2,11.7-10.4,11.7-10.4s-11.3,0.5-17,7.3V665c2.8-6,3-9.3,3-9.3l-3.8,5
	c-3.7-25.9-3.4-113.5-1.1-122.6c2-7.7,11.6-11.8,18.7-13.3c1.7,0.9,4.3,0.9,5.9-0.1c0.5,0.1,1.1,0.1,1.6,0.1
	c0.8,0.6,1.7,0.7,2.6,0.6l-0.8,0.2c-1.2,0.5-1,1.8-0.7,2.6c0.2,0.5,0.7,0.8,0.7,1.3c0,0.7,0,1.1,0.5,1.7c0.5,0.6,1.2,0.8,2,0.8
	l0.5,0.6c-0.4,0.6-0.1,1.2,0.7,1.8l0,0l0,0l0.9,0.6c-0.9,1.7-0.1,4.1,1.6,5.4c1.3,1,3.5,1,5.1,0.5c-0.6,0.7-0.3,1.7,0.7,2.1
	c0.7,0.3,1.3,0.4,1.7,1c0.5,0.7,1.3,1.1,2.2,1.5c1.1,0.4,3.7,0.9,4.8,0.1c0.6-0.4,0.9-0.8,0.9-1.5c0-0.2-0.3-0.7,0.1-0.8h0.1
	c1.6,0.6,2.8-0.3,3-1.6c0.7-0.1,1.2-0.5,1.2-1.3c0-0.4-0.2-0.8-0.3-1.2l-0.1-0.5h0.3h0.6c0.5,0.8,1.1,1.5,2,1.8
	c1.5,0.5,2.7,0.2,3.6-0.6c0.4,0,0.8,0,1.2-0.4l0.2-0.4c0,0.6,0,1.3,0.7,1.8c0.5,0.3,0.9,0.5,1.5,0.6c1,0.2,1.6,0.4,2.4,0.8
	c1.4,0.8,3,0.7,4.1,0c0.4,0.1,0.7,0.2,1.1,0.3h0.4c1.2,0.5,3.1,0.2,4.4-0.1c1.7-0.5,1.5-1.5,1.1-2.5c0.9-0.3,1.8-0.5,2.5-1.1
	s0.4-1.3-0.2-1.9c0.4-0.1,0.8-0.3,1.1-0.7s0.4-1,0.3-1.5c-0.1-0.3-0.4-0.6-0.4-0.6c1.4,0,2.3-0.2,3.2-1.1c0.7-0.6,0.2-1.7,0.1-2.4
	v-0.1l0.4-0.5c0.3-0.4,0.8-0.6,1-1c0.6-1-0.2-2-1-2.8l-0.2-0.1l0.4-0.3l0.3-0.4c0.7-0.3,1.2-0.5,1.7-0.9c0.8-0.7,0.8-1.3,0.6-1.8
	c1.5,0.1,3-0.2,3.9-1.2c0.6-0.7,1.7-1,2.2-1.8c0.7-0.8,0-1.3-0.6-1.8c0.6-0.3,1.1-0.6,1.4-1c1.6,0.6,3.4,0.9,5.2,0.9
	c0.6,0,1.1-0.1,1.5-0.3l0.4-0.2l0.6-0.4l0.3-0.3l0.3-0.5v-0.5v-0.3l-0.1,0.1l-0.1-0.6c1.3-0.6,2.7-1.6,2.3-2.9
	c-0.3-0.8-1-1.2-1.8-1.6c-0.4-0.2-1-0.4-1.5-0.4l0.3-0.7c-0.1-0.3,0-0.4,0.4-0.2c0.5,0.1,1,0.3,1.5,0.4c1.1,0.1,2.3-0.2,3.2-0.8
	c0.7-0.5,1-1.3,0.7-2s-0.7-1-1.3-1.3c0-0.2,0.3-0.5,0.3-0.8c0-0.6-0.3-1-0.9-1.3c-0.4-0.2-0.9-0.3-1.4-0.4c-0.5-1.2-1.9-2.2-3.3-2.8
	c-1.2-0.4-2.5-0.4-3.6,0.1l-0.5,0.5l-0.3,0.3l-0.1,0.2l0,0l-0.1,0.1v0.1v0.1v0.1l-0.4-0.1c-0.3-0.1-0.7-0.2-1.1-0.2v-0.1l0,0
	c0.2-0.4,0.1-0.8-0.1-1.3c1.3-0.6,1.7-1.7,1.1-3c-0.8-1.4-2.6-1.6-4.2-1.4c-1.3-1.1-3.4-1.7-5.2-0.8l-0.4,0.3l-0.2-0.3h0.1
	c-0.2-0.3-0.4-0.5-0.7-0.8c-0.4-0.4,0.1-0.4,0.1-1l0.1-0.7v-0.3v-0.4l0,0v-0.3c-0.2-0.8,0.4-1.4,0.2-2.1c-0.1-0.4-0.3-0.8-0.6-1.2
	c0.1-0.4,0.1-0.8-0.1-1.1c-0.6-1.1,1.2-1.9,0.8-3.1c-0.5-1.4-1.8-2.2-3.6-2.6l-0.6-0.1l0,0c-0.4-0.1-0.8-0.1-1.2-0.1l0,0h-0.1
	l-0.7,0.1l-0.4,0.1c-0.4,0.1-0.7,0.2-0.9,0.4h-1.6c-0.4,0.1-0.9,0.2-1.3,0.3c-1.4-0.1-1.7-0.3-0.9-0.3l0.5-0.2
	c0.8-0.4,1.4-0.8,1.3-1.5c1.6-0.1,3.1-0.7,4-1.7c0.6,0,1.2-0.1,1.8-0.2c2.4,1,5,0,5.8-1.9c0.9,0,1.8-0.1,2.5-0.7
	c1.4-1,0.9-2.5,0.1-3.7c-0.3-0.4-0.8-0.9-0.9-1.4c1.5,0.2,2.6-0.3,3.3-1.2c0.5,0,0.9-0.1,1.2-0.5c0.5-0.7,0.5-1.7,0.3-2.5l0.1-0.1
	l0.3,0.3c0.6,0.3,1.1,0.5,1.8,0.5c1.2,0.1,1.9,0.2,2.9,0.6c1.8,0.7,3.5,0.4,4.6-0.5c0.4,0.1,0.9,0.1,1.3,0.1h0.4
	c1.5,0.4,3.6-0.2,4.9-0.7c1.9-0.7,1.3-1.9,0.6-3c0.9-0.5,1.9-0.8,2.6-1.6c0.7-0.7,0.1-1.5-0.6-2.1c0.4-0.2,0.8-0.5,1.1-1
	s0.3-1.1,0-1.7c-0.2-0.4-0.5-0.6-0.5-0.6c1.6-0.1,2.6-0.6,3.4-1.6c0.6-0.8-0.1-1.9-0.4-2.7v-0.1l0.3-0.6c0.3-0.4,0.7-0.8,0.9-1.3
	c0.5-1.2-0.7-2.3-1.7-3c-0.3-0.2-0.7-0.4-1-0.6l-0.4-0.1l-0.6-0.2H815h-0.5l-0.5,0.1l-0.4,0.1l0,0l-0.3,0.1
	c-0.1-0.3-0.3-0.5-0.5-0.8c-0.4-0.6-1.1-1-1.6-1.4c1.4-0.6,2.9-1.2,2.6-2.6c-0.2-1.1-0.7-2.2-1.2-3.3c0.9,0.3,1.9,0.5,3,0.3
	c0.5-0.1,0.9-0.2,1.3-0.4l0.3-0.2l0.7-0.5l0.1-0.1h-0.1c0.4-0.4,0.6-0.9,0.5-1.5C818.5,434.2,820.8,433.8,820.8,432.4z M670.8,666.1
	L670.8,666.1L670.8,666.1L670.8,666.1z M758.7,360.9c-0.1-0.3,0-0.2,0.1,0.2l0.1,0.3c0.1,0.5,0.3,1,0.4,1.6l-0.8-0.1
	c-0.3-0.7-0.8-1.4-1.5-1.9C757.6,360.9,758.3,360.9,758.7,360.9z M734,375.2l-0.5,0.7c-0.1-0.3-0.2-0.5-0.3-0.8L734,375.2z
	 M732.9,439.7L732.9,439.7c0.4,0.4,0.8,0.7,1.3,1l0.1,0.1c-0.9,0.3-1.7,0.8-1.7,1.6c-0.1-0.6-0.1-1.6-0.1-2.6L732.9,439.7z
	 M732.7,451.2c0.8-1.7,1.9-3.4,3.2-5c0.7,0.5,1.8,0.9,2.9,1c0.2,0.5,0.8,0.9,1.9,1c0.4,0.1,0.8,0,1.2,0c-0.1,0.3-0.3,0.5-0.2,0.8
	c0.1,1,1,1.7,1.9,2.3c-0.4,0.8,0.2,1.5,1.2,2l0,0h0.1l0.4,0.2l0.7,0.5v0.6c-2.1,1.3-4.5,2.4-7.9,4c-6.5,3.1-9.8,4-9.8,4
	S728.4,459.8,732.7,451.2z M710.2,389.1L710.2,389.1L710,389L710.2,389.1z M699.1,434.1c0.8,0.4,1.9,0.7,2.9,1
	c-0.6,0.8-1.2,1.7-1.7,2.3c-1.5,2.1-2.2-0.4-3-3.3C697.9,434.1,698.4,434.2,699.1,434.1z M673.7,334.4L673.7,334.4l-0.1,0.4
	l-0.6-0.3L673.7,334.4z M627.2,433.9l0.7-0.2c0.9,1.2,2.3,2.2,4,2.5c3.4,0.7,7.9-0.3,10.4-2.4c0.2,0.3,0.5,0.6,0.8,0.8
	c1.1,0.8,2.2,1,3.2,0.7c1.5,1.2,3.6,2,5.3,1.6c1.5,2.8,3,5.9,5,9.6l0,0c-1.3-0.5-2.2,0-3,0.7c-0.2-0.9-0.8-1.6-2.1-1.6l-0.1-0.5
	c-0.5-0.9-1.3-1.3-2.3-1.4c0.7-1.1,0.9-2.2-0.1-3.1c-1.5-1.2-2.9-0.8-4.6-0.5c-0.7-0.8-2-0.8-3.2-0.6c-0.4-1-0.9-2-2.5-2.1
	c-1.5-0.2-2.8,0.3-3.6,1.1c-0.9-0.1-1.6,0.2-2.1,0.6l-0.1-0.1c-0.6-0.3-1.1-0.4-1.8-0.4l-0.3,0.1h-0.1l-0.3-0.1l-0.6-0.1h-0.4h-0.6
	l-0.3,0.1h-0.3l0,0l-0.5,0.1l-0.6-0.2c1.1-0.6,1.8-1.5,1.5-2.5c-0.3-0.8-0.9-1.5-2-1.8c-0.1,0-0.5-0.1-0.8-0.2
	C626.2,433.9,626.7,433.9,627.2,433.9z M633.6,477.7l-0.2,0.1l-0.5-0.3l0.7-0.6C633.7,477.3,633.7,477.6,633.6,477.7z M625.5,490.1
	l0.3-0.1c2.1-1.3,3.3-3.9,2.5-5.9l0.7-0.3c1.5-0.3,2.6-0.9,2.6-2l0,0c1.3,0.4,2.5,0.9,3.5,1.3c5.3,2.1,8.7,7.2,12,12
	C641.6,495.2,633.2,492.8,625.5,490.1z M667.4,497.4c-0.9,1.7-9-5.5-20.3-12.9c-4.5-2.9-7.7-6.1-9.9-9c1.3-0.7,2-1.6,0.9-2.5
	c-0.7-0.6-1.1-0.3-1.4-1.1c-0.2-0.6,1.2-1,1.6-1.4l0.5-0.5c0.4-0.3,0.8-0.5,1-0.9c0.8,0,1.5-0.2,2-0.4l0.2-0.1
	c1.9,0.8,5.1,0.1,6.6-0.7c0.7-0.4,1.3-1,1.2-1.6c0.8-0.4,1.5-1,1.3-1.8c1.3-0.6,2.5-1.3,2.6-2.5c0-0.9-0.8-1.3-1.8-1.7
	c0.3-0.3,0.6-0.5,0.8-0.8c2.3-0.8,5.8-2.7,3.8-4.1c-0.4-0.3-0.7-0.3-1-0.4l-0.1-0.1l0,0l-0.3-0.5c0.3-0.3,0.5-0.6,0.7-0.9l0.7-0.5
	c0.8-0.8,0.8-1.6,0.1-2.2c0.4-0.6,0.9-1.5,1.1-2.4c5.8,10.8,8.7,19.7,8.8,30.2C666.6,486.5,668.2,495.7,667.4,497.4z M678.2,470.8
	c-2.8-0.2-15.9-23.3-19.8-32.9c-0.1-0.4-0.3-0.8-0.5-1.3l0.7-0.2c1.4-0.7,1.3-1.9,0.8-3c0.6,0,1.3,0.1,1.9,0
	c1.8,0.8,4.5,1.6,6.5,1.6c0.5,2.4,2.8,4.8,5.9,5.2l0.8,0.1c0.1,0.5,0.2,0.9,0.3,1.4C676.4,450.2,681,471.1,678.2,470.8z
	 M690.4,456.7c-0.5,3.6-1.8,10-3.8,10.6s-3.1-3-5.3-17.8c-0.4-2.9-1.1-6.3-2-9.9c2-0.6,3.9-1.7,5-3.1c0.3,0.1,0.7,0.1,1,0.2
	c1.7,0.9,3.7,1.3,5.1,0.2c1.3,0.4,2.6,0.7,3.8,0.6c0.5,1.7,0.5,3.1,0.3,4.8C694,446.4,690.9,453.2,690.4,456.7z M715.4,515.6
	c-1.2,1.1-2.2,2.1-2.9,2.7c-3.8,3-8.3,8.1-10.8,10.7c-2.5,2.6-4.3,1.5-4.1-3.6s-1.9-13.9-0.6-19.2c0.9-3.6,2.6-8.2,5.5-12.2
	c0.4,0.3,0.9,0.6,1.3,0.8c0.1,0.3,0.3,0.6,0.5,0.8c-0.9,0.1-1.8,0.4-2,1.2c-0.2,1.1,0.7,1.8,1.6,2.5c-0.3,0.7,0.1,1.2,0.7,1.7
	c-0.2,0.5,0.2,1.1,0.7,1.5c1.1,0.9,3.7,1.8,5.5,1.5l0.2,0.1c0.4,0.3,1,0.5,1.6,0.6c0.1,0.3,0.3,0.6,0.6,0.9l0.3,0.5
	c0.3,0.4,1.4,1,1.1,1.5c-0.4,0.6-0.7,0.3-1.4,0.7c-2,1.1,0.9,2.9,2.8,3.8c0.1,0.3,0.4,0.6,0.6,0.8c-0.9,0.2-1.7,0.5-1.8,1.3
	C714.8,514.7,715,515.2,715.4,515.6z M718.5,520h-0.3c-0.3,0-0.1-0.5,0.4-1.4l0.4,0.3C718.8,519.3,718.6,519.6,718.5,520z
	 M713.8,476c-2,2.3-5.4,5-8.7,7.2c-0.4-0.3-1-0.5-1.7-0.3c-1.3,0.3-1.5,1.3-1.4,2.4c-2.4,1.5-4.5,2.5-5.5,2.7
	c-2.7,0.6-1.9-5.4-1.6-15.3c0.4-9.9,2.7-21.2,8.4-31.2c1.2-2.1,2.3-4,3.3-6c0.8-0.2,1.4-0.7,1.5-1.5c0-0.4,0-0.7-0.1-0.9
	c0.3-0.5,0.5-1,0.8-1.4c0.8-0.2,2.2,0.2,3,0.2c0.4,0,0.8,0,1.1-0.1c0.8,0.1,1.5,0.1,2.3-0.1c0.9,0.7,2,1.2,3.2,1.3l-0.1,0.5
	c0.2,1.2,1.5,1.9,2.8,2.4c-0.1,1.4,1.8,2,3.7,2.1c0.3,0.5,0.9,0.9,2,1c0.8,0.1,1.5-0.1,2.2-0.3c-1,8.2-3.2,16.6-4.5,20.5
	C723.2,463.4,721.1,467.7,713.8,476z M730.9,525.4L730.9,525.4L730.9,525.4L730.9,525.4z M764.3,472.5c-0.7,0.2-1.5,0.3-2.2,0.6
	l-0.8-0.5c-0.3-0.4-0.6-0.7-1-1c-1.1-0.9-3-2-4.7-2.1c-1.3-0.1-2.4,1.1-2.7,2l-0.3,0.1c-0.4,0.1-0.8,0.3-1.2,0.4l-0.1,0.1l-0.7-0.6
	c-0.4-0.2-0.9-0.4-1.4-0.4c-0.7-0.1-1.4,0.1-2.1,0.3c-0.4-0.3-0.7-0.5-1.2-0.6c-0.9-0.3-1.9,0-2.6,0.4c-0.4,0.3-1.6-0.2-2.2-0.1
	c-0.9,0.1-1.4,0.5-1.8,1.1l-0.1,0.3v0.1v0.1v0.1v0.1l0.1,0.3l0.1,0.3l0.1,0.1l0.1,0.2l0,0l0.1,0.1c0.5,0.7,0.8,0.9-0.3,0.7
	s-2,0-2.6,0.4l-0.5-0.1l0,0h-0.2h-0.3h-0.6h-0.3l-0.6,0.1l-0.1,0.1l-0.7,0.4l-0.4,0.7l-1.3,0.2c-1,0.1-1.7,0.6-2.1,1.3
	c-0.5,0.8,0,1.7,0.7,2.3l-0.5,0.1l-0.4-0.2l0,0l-0.2-0.1l-0.3-0.1l-0.5-0.1h-0.4h-0.5h-0.3h-0.1l-0.2-0.1c-0.6-0.1-1.1,0-1.6,0.1
	l-0.1,0.1c-0.3-0.4-0.8-0.8-1.6-0.8c-0.6-0.8-1.6-1.4-2.8-1.4c3.7-3.2,7.7-6.6,12.3-10.4c5.5-4.6,10-7.3,14-9.4
	c0.5,0.7,1.2,1.3,2,1.8c1.5,0.7,3.5,0.6,5.2,0l0.2,0.4c0.3,0.6,1,0.8,1.1,1.4c0.1,0.8,0.2,1.3,0.9,1.8c0.7,0.6,1.6,0.8,2.5,0.7
	l0.1,0.1c-0.4,2,0.9,4.3,2.9,5.4c0.4,0.2,0.8,0.3,1.3,0.4c0.3,0.3,0.7,0.5,1.1,0.7c0.7,0.4,1,0.9,1.7,1.3
	C765.3,471.9,764.9,472.3,764.3,472.5z M769.2,472.5l-0.3,0.2l-0.9-0.3l-0.4-0.3c0.5,0,1,0,1.5-0.1l0.4,0.3L769.2,472.5z
	 M779.2,401.2l-0.2-0.1v-0.2l0.4,0.2L779.2,401.2z M787.4,429.7l-0.3,0.1c-0.4,0.1-0.8,0-1.1-0.4
	C786.4,429.6,786.9,429.7,787.4,429.7L787.4,429.7z M798.3,414.5l-0.3-0.7l0.7-0.1l0.3,0.1l0.1,0.2l0.8,0.4
	C799.3,414.4,798.8,414.5,798.3,414.5z M806.2,415.7l-0.4,0.1l-0.8-0.5c-0.2-0.3-0.5-0.7-0.9-1l0,0c0.5,0,1,0,1.5-0.1
	c0.4-0.1,0.5-0.4,0.8-0.6c0.7-0.4,1.9,0.3,2.3,0.6c0.3,0.2,0.2,0.5,0.1,0.8h-0.6C807.4,415.1,806.8,415.4,806.2,415.7z"/>
<path class="st0" d="M524.8,429.4c0-1.6-1.1-2.9-2.8-3.7l-0.6-0.3l0,0c-0.4-0.2-0.8-0.3-1.2-0.4l0,0h-0.1l-0.8-0.1l-0.4-0.1
	c-0.4,0-0.8,0.1-1.2,0.2l-1.8-0.4c-0.5-0.1-1,0-1.5,0c-1.5-0.5-1.7-0.7-0.9-0.6l0.7-0.1c1.2-0.3,2.1-0.5,2.1-1.5
	c0-1.1-0.6-3.1-2-3.7c-0.7-0.3-1.4-0.4-2.1-0.6c-1.3-0.3-0.4-0.8,0.6-0.9c1.5-0.1,2.2-0.7,2-1.8l-0.2-0.2c0.4-0.5,0.7-1.1,0.5-1.7
	s-0.8-1-1.5-1.2c0.2-0.3,0.4-0.6,0.7-0.9c-0.1-0.3-0.4-0.6-0.7-0.9c-0.3-0.2-0.6-0.4-0.8-0.7c-0.3-0.4-0.4-0.8-0.8-1.1
	c-0.4-0.4-1-0.9-1.7-1c-0.5-0.1-1,0.1-1.3,0.4c-0.4,0.4-0.5,0.8-1.2,0.9c-0.4,0.1-0.8,0.1-1.2,0.2s-0.6,0.3-0.8,0.5l-0.6,0.5
	l-0.4,0.1c-0.8-0.2-1.5-0.5-2.2-0.8c-0.5,0.1-1,0.1-1.5,0.2l-0.2-0.5c-0.9-1.3-2.5-2.9-4.3-3.5c-1.4-0.4-3.2,0.6-3.8,1.5h-0.4
	l-0.7,0.1c0.3-0.3,0.4-0.6,0.3-1.1c-0.3-1.1-1.4-2.9-3-3.2c-0.7-0.1-1.5-0.1-2.2-0.2c-1.4-0.1-0.6-0.8,0.3-1c1.4-0.4,2-1,1.5-2.1
	l-0.2-0.2c0.3-0.6,0.4-1.2,0-1.7l-0.4-0.3c3.2,0.2,5.4-1.4,5.1-3.8l0,0c0-0.3-0.1-0.5-0.1-0.8c2-1,2.8-2.9,1.4-4.6
	c-0.2-0.3-0.4-0.5-0.7-0.8c-1-0.9-3.3-1.5-4.8-1.1c-1.1,0.3-0.8,0.3-1.7-0.1c0-0.3-0.1-0.6-0.3-0.8l-0.1-0.2l-0.4-0.4l-0.6-0.6
	l-0.2,0.1l-0.4-0.2l-0.1-0.1c1.1-0.2,1.9-0.7,2.4-1.5c2.3-0.6,5.4-1.8,5.1-3.8c-0.2-1.3-1.2-2.1-2.4-2.5c1.4-1.3,2.4-2.7,1.5-4.2
	c-0.3-0.5-0.7-0.8-1.1-1.1l0,0l0,0l-0.1-0.1l0,0l-0.1,0.2l-0.8-0.4l-0.3-0.1l-0.9-0.2h-0.1c-0.4-0.1-0.7-0.1-1.1-0.1h-0.3
	c-0.4,0-0.7,0-1.1,0c-0.1-0.3-0.4-0.6-0.7-0.8h0.1c3.2-1.7-0.2-4.9-2.1-7.1c0.9,0,1.8,0,2.8-0.4c0.9-0.3,0.6-1.3,0.2-1.8l-0.3-0.4
	c2.6-0.8,2.3-3.2,0.2-4.9l0.1-0.7V354v-0.1v-0.1l0,0v-0.2l-0.1-0.2l-0.2-0.3l-0.2-0.2l-0.3-0.3l-0.3-0.2l-0.3-0.2l-0.4-0.2l-0.4-0.2
	l-0.4-0.2l-0.4-0.1l-0.4-0.1l-0.3-0.1l0,0l-0.4-0.1c-0.1-0.9-0.7-1.7-1.8-2.3c-0.7-0.4-1.5-0.6-2.3-0.7l0,0h-0.1
	c-0.4-0.1-0.8-0.1-1.2-0.1h-0.4c-0.5,0-1,0-1.5,0h-0.8c0.6-0.2,1.2-0.5,1.5-0.8c0.7-0.8,1.1-1.5,0.7-2.4l-0.1-0.3l0.3-0.4
	c1-2.4-1.1-4-2.2-6c-0.8-1.3-0.8-3-2.9-3.6s-4.2-0.5-6.3,0c-0.7-0.7-1.6-1.3-2.6-1.8c0.9-1,1.7-2,1.5-3.4c-0.3-1.8-1.5-3.4-3.3-4.5
	c-1.7-1.1-4.2-2-6.5-1.8c-1.6,0.1-2.6,1.1-4.2,1.2l-0.5,0.1l0,0l-0.8,0.2c-0.6,0.1-1.2,0.3-1.8,0.4c-1.1,0.3-0.9,0.9-1.9,0.6
	c-0.5-0.2-1.1-0.3-1.7-0.4l-0.2-0.1l0,0l-0.7-0.1l0.4-0.6c1.2-2.5-0.9-4.9-3.8-5.9c-0.3-2.1-1.4-4.2-4.6-4.5
	c-2.8-0.3-4.9,0.8-5.5,2.5c-1-0.1-1.8-0.1-2.6,0.3l0,0l-0.2,0.1c-0.1-0.5-0.5-0.9-0.9-1.3l-0.5-0.4l0.1-0.1l0.1-0.1l0.1-0.1l0.3-0.1
	l0,0l0.1-0.1l0.8-0.5l0.1-0.1c0.3-0.2,0.5-0.4,0.6-0.7c0.5-1.6,0-3.1-1.4-4.4c-1.6-1.5-4.3-2.6-6.9-2.8c-0.3-0.6-0.7-1.1-1.3-1.5
	c-0.9-0.6-1.8-0.8-3-0.6c-0.5,0.1-1,0.5-1.4,0.7c-0.9-0.6-1.7-1-3.2-1c-1.6-0.1-3,0.6-3.7,1.7c-0.8,1.3-0.9,2.8-0.3,4.1
	c0.3,0.6,0.9,1.1,1.4,1.7c0.5,0.3,0.5,0.5-0.3,0.5c-0.4,0.3-0.8,0.5-1.2,0.7l-0.2-0.3c-0.1-0.6-0.7-1.1-1.4-1.4
	c-0.7-0.5-1.5-0.9-2.3-1.1c1.4-4.1,0.1-9.5-4.3-11.2c-1.1-0.4-2.1-0.5-3,0.1s-1.7,1.2-2.5,1.8c-1.3-1.3-3.7-1.6-5.7-1.1
	c-0.7-0.3-1.3-0.7-1.3-1.1c0.2-0.9,0.5-1.8,0.5-2.8c0-0.8-0.9-1.7-2-1.7c-1.4-0.1-2.8,0-4,0.6c-1.1,0.6-2.8,2.3-4.2,1.4
	c-1-0.6-2-0.9-3.3-0.8l-0.5,0.2l-0.4,0.3l0,0l-0.1,0.1l0,0l-0.5,0.4c-0.3-0.1-0.7-0.3-1-0.5c-1.5-0.8-3.3-1.8-5-2l0,0l0,0
	c-0.4,0-0.7,0-1.1,0c-2.6,0.4-2.9,2.8-2.2,4.4c0.4,1,0.1,1.3-0.8,1.3l0,0c-0.3,0-0.7,0-1.1-0.1c-0.7-0.1-1.5-0.2-2.2-0.1
	c-1.6,0.1-2.6,0.5-3.7,1.5c-1.3,1.1-1.1,2.7-0.4,4.1c-0.9-0.1-1.9,0-2.7,0.2c-1.7,0.4-2.9,1-3.4,2c-0.8-0.2-1.8,0-2.9,0.6
	c-1.7,1-2.9,1.3-5.1,1.1c-0.8-0.1-1.9-1.6-3-1.9c-0.6-0.2-1.3-0.3-1.9-0.2c-0.4,0.1-0.8,0.1-1.2,0.2l-0.4,0.1
	c-0.7-0.5-1.6-0.8-2.7-0.8c-2,0-4,0.4-5.7,1.1l0,0h-0.1c-0.6,0.3-1.2,0.5-1.8,0.8c-2.5,0.2-5.9,1.4-6.1,3.6c-0.1,0.7,0,1.2,0.3,1.9
	v0.2l-0.5,0.5c-0.7,0.8-1,1.4-1.1,2.2c-1.3,0.6-2.9,1.5-3.3,2.5c-0.3,0.6-0.1,1.1,0.3,1.5c-0.8,1.6-0.2,3.1,1.9,4.3
	c1.3,0.7,3.1,0.7,4.9,0.6l0.5,0.7l0.3,0.3c-0.3,0.1-0.7,0.2-1,0.3c-0.8,0.2-1.7,0.3-2.4,0.6c-1.5,0.6-1.8,1.5-1.4,2.4
	c-0.4,0.2-0.7,0.5-0.9,0.7c-1.8-0.8-4-1.3-6.1-1.2c-0.4-0.5-0.9-1-1.6-1.3c-1-0.5-2-0.5-3-0.2c-0.5,0.1-0.9,0.6-1.3,0.8
	c-1-0.5-1.8-0.8-3.4-0.6c-1.5,0.1-2.9,1-3.4,2.1c-0.5,1.3-0.3,2.9,0.5,4.1c0.4,0.6,1.1,1,1.7,1.5c0.6,0.3,0.6,0.4-0.1,0.6
	c-0.3,0.3-0.7,0.6-1.1,0.8c-0.4-0.5-1.1-1.1-1.8-1.5c-1.3-0.6-2.6-1.2-4.1-1c-2.6,0.4-3.7,2.6-4,4.6c-0.6,0.1-1.2,0.2-1.7,0.3
	l-0.6,0.2l-0.4,0.2l-0.4,0.2l-0.4,0.3l-0.3,0.3l-0.3,0.4l-0.2,0.3l-0.1,0.4l-0.1,0.4v0.4l0.1,0.5l0.1,0.4c0.1,0.3,0.2,0.6,0.4,1
	c1,2,2.8,3.9,5,5.3c-0.6,0.7-1,1.4-1.1,2.3c-1.4-0.3-2.7-0.8-3.8,0.5c-1,1.1-0.9,2.5-1.9,3.7c-1.4,1.7-0.9,3.6,0.3,5.2
	c-1.3,0.1-2.4,0.5-3.1,1.8c-0.4,0.7-0.6,1.6-0.6,2.5l-0.6,0.6c-0.5,0.9-0.1,1.7,0.7,2.3c-0.5,0.6-0.7,1.3-0.4,2
	c-0.7,0.5-0.9,1.1-1,1.9c-1.6-1.3-3.8,0.2-2.2,1.5c0.6,0.5,0.8,1.4,0.9,2.2c-1.5,0.2-2.8,0.8-3.3,1.8c-0.4,0-0.8,0-1.2,0h-0.3
	c-0.4,0-0.8,0-1.2,0.1l0,0c-0.4,0.1-0.7,0.1-1,0.2l-0.3,0.1l-0.9,0.4l0,0l0,0l-0.1,0.1l0,0l0,0c-0.4,0.3-0.8,0.6-1.1,1.1
	c-1,1.5,0,3.1,1.5,4.4c-1.3,0.4-2.2,1.2-2.5,2.7c-0.4,2.1,2.9,3.4,5.3,4c0.5,0.8,1.4,1.3,2.5,1.5l-0.1,0.1l-0.4,0.2l-0.2-0.1
	L270,393l-0.4,0.4l-0.1,0.2c-0.1,0.3-0.2,0.5-0.3,0.8c-0.9,0.4-0.6,0.4-1.7,0.1c-1.6-0.4-3.9,0.2-5,1.2c-0.3,0.3-0.5,0.5-0.7,0.8
	c-1.5,1.7-0.7,3.7,1.5,4.7c-0.1,0.3-0.1,0.6-0.2,0.9l0,0c-0.3,2.6,2.1,4.3,5.7,4c0.7,0.7,1.7,1.1,3.1,0.9c0.6-0.1,1.2-0.3,1.7-0.5
	c0,0.1,0.1,0.3,0.1,0.6l-0.2,0.6l-0.4,0.4l-0.4,0.6c-0.2,0.6,0.7,1.5,1.3,1.7c1.7,0.7,3.6,1.3,5.4,1.8l0.4,0.1l-0.1,0.2
	c-0.1,0.3-0.4,0.6-0.6,0.8c-0.7,0.8-1.6,1.4-2,2.3c-0.7,1.4,1,2.4,2.5,2.8c2.5,0.7,7.3,0.5,9.6-1.2h0.1c-0.3,0.5-0.6,1-0.7,1.5
	c-1-0.5-2.5-0.5-3.3,0.2c-0.5,0.4-0.7,1-0.6,1.7l-0.3,0.1c-0.9,1-0.5,1.7,0.7,2.4c0.8,0.4,1.3,1.3-0.1,1c-0.7-0.1-1.4-0.3-2.2-0.3
	c-1.6,0-3.3,1.5-4,2.5c-0.6,0.9,0,1.5,0.9,2.1l0.6,0.3c0.8,0.2,0.4,0.3-1.2,0.2c-0.4-0.2-0.9-0.4-1.3-0.5l-1.8-0.3
	c-0.3-0.3-0.6-0.5-1-0.6l-0.3-0.1c-0.3-0.1-0.6-0.2-0.9-0.2h-0.1l0,0c-0.4-0.1-0.9-0.1-1.3-0.1l0,0l-0.8,0.1
	c-2.1,0.1-3.8,0.8-4.7,2.3c-0.9,1.3,0.9,2.5-0.1,3.6c-0.4,0.4-0.5,0.8-0.5,1.3c-0.4,0.4-0.8,0.8-1.1,1.2c-0.4,0.8,0.1,1.6-0.4,2.4
	l-0.1,0.3l0,0l-0.1,0.3c-0.1,0.4-0.1,0.8-0.3,1.1c-0.1,0.6,0.4,0.7-0.1,1.1c-0.4,0.2-0.6,0.4-0.9,0.7l-0.1,0.1l0,0l-0.3,0.3
	l-0.4-0.4c-1.7-1.4-4.3-1.1-6.1,0c-1.8-0.5-3.8-0.6-5.2,0.8c-1.2,1.3-0.9,2.6,0.3,3.5c-0.4,0.4-0.7,0.9-0.5,1.4v-0.1v0.1
	c-0.4-0.1-0.9,0-1.3,0l-0.4,0.1l0,0l0,0v-0.2V447l0,0v-0.1v-0.1l-0.1-0.4l-0.1-0.2l-0.5-0.6c-1.2-0.8-2.6-1-4.1-0.7
	c-1.7,0.3-3.5,1.3-4.5,2.5c-0.5,0-1.1,0-1.7,0.2c-0.8,0.3-1.2,0.7-1.4,1.3c-0.1,0.3,0.1,0.6,0.1,0.9c-0.8,0.3-1.3,0.5-1.8,1.2
	s-0.5,1.7,0.2,2.4c0.8,0.8,2,1.3,3.3,1.5c0.6,0.1,1.2-0.1,1.8-0.1c0.4-0.2,0.6-0.1,0.4,0.3c0.1,0.3,0.2,0.5,0.2,0.8
	c-0.6-0.1-1.3,0-1.8,0.2c-1,0.3-1.9,0.7-2.4,1.5c-0.8,1.3,0.4,2.7,1.7,3.7l-0.3,0.7l-0.1-0.1l-0.1,0.4l-0.1,0.5l0.1,0.6l0.2,0.4
	l0.6,0.6l0.3,0.3c0.4,0.3,1,0.4,1.6,0.6c1.9,0.4,4.1,0.3,6.1-0.1c0.3,0.6,0.7,1,1.3,1.4c-0.8,0.5-1.7,0.9-1.2,1.9
	c0.4,0.9,1.5,1.5,2,2.4c0.7,1.3,2.3,1.9,4,2c-0.5,0.6-0.6,1.3,0.1,2.2c0.4,0.5,0.9,0.9,1.6,1.3l0.2,0.5l0.4,0.4l-0.2,0.1
	c-1.1,0.7-2.3,1.7-2,2.9c0.2,0.5,0.5,0.9,0.8,1.3l0.3,0.6v0.1c-0.3,0.8-1.1,2-0.5,2.7c0.8,1.1,1.8,1.5,3.3,1.8c0,0-0.4,0.3-0.6,0.6
	c-0.3,0.5-0.4,1.1-0.1,1.7c0.2,0.5,0.5,0.8,1,1c-0.8,0.6-1.4,1.3-0.8,2.1c0.6,0.8,1.6,1.2,2.5,1.7c-0.8,1-1.4,2.2,0.4,3
	c1.3,0.6,3.3,1.3,4.9,1h0.4c0.4,0,0.8,0,1.3-0.1c1.1,1,2.7,1.3,4.5,0.7c1.1-0.4,1.8-0.5,3-0.5l0,0c0,0.5,0,1,0.3,1.4
	s0.7,0.6,1.2,0.6c0.6,0.9,1.7,1.4,3.2,1.3c-0.1,0.5-0.7,1-1.1,1.4c-0.9,1.1-1.5,2.6-0.2,3.7c0.7,0.6,1.6,0.8,2.5,0.8
	c0.7,1.9,3.2,3.1,5.7,2.2c0.6,0.2,1.2,0.3,1.8,0.3c1.5,1.7,5,2.5,7.3,1.4c1.8-0.9,3.1-2.7,3.3-4.5c0.5-0.4,0.8-1,0.6-1.5l0.5-0.2
	l0,0l0,0c0.3-0.2,0.6-0.4,0.8-0.6c1,0.3,2.1,0.4,3.1-0.1c0.7-0.3,1.1-0.9,1.8-1.2c0.4-0.2,0.8-0.4,1.2-0.7c0.5-0.1,0.9-0.2,1.3-0.4
	c2.1-1,3.5-3.3,3.3-5.3l0.1-0.1c0.9,0.1,1.8,0,2.5-0.6c0.7-0.5,0.8-1,1-1.8c0.1-0.6,0.8-0.8,1.2-1.3c0.4-0.6,0.7-1.3,0.7-2
	c0.4,0.1,0.8,0.1,1.3,0.1c1.1-0.1,1.7-0.4,2-1c1.7,0,3.4-0.6,3.7-1.7c12,5.5,19,5.6,29.4,9.1c11.9,4,20.5,17,23.1,31.7
	s1.7,108.6,1.5,114.4c-0.1,4.3-1.3,9.6-2.2,13.5c0.3-2.7,0.8-5.2,0.8-5.2s-3.4,2.9-5,9.7c-3.4-5.3-10.9-8.1-10.9-8.1
	s4.8,3.9,6.4,7.9C361,655.6,349,654,349,654s16,5.2,15.9,12.1c-0.5,1.1,9.5,2.5,25.6,3.1c16.1,0.5,23.8,1,25-1
	c1.2-1.9,5.1-5.9,11.6-6.8c-8.4,0.3-12.6,2.1-14.3,3.9c5.7-7.2,11.7-10.4,11.7-10.4s-11.3,0.5-17,7.3V662c2.8-6,3-9.3,3-9.3l-3.8,5
	c-3.7-25.9-3.4-113.5-1.1-122.6c2-7.7,11.6-11.8,18.7-13.3c1.7,0.9,4.3,0.9,5.9-0.1c0.5,0.1,1.1,0.1,1.6,0.1
	c0.8,0.6,1.7,0.7,2.6,0.6l-0.8,0.2c-1.2,0.5-1,1.8-0.7,2.6c0.2,0.5,0.7,0.8,0.7,1.3c0,0.7,0,1.1,0.5,1.7c0.5,0.6,1.2,0.8,2,0.8
	l0.5,0.6c-0.4,0.6-0.1,1.2,0.7,1.8l0,0l0,0l0.9,0.6c-0.9,1.7-0.1,4.1,1.6,5.4c1.3,1,3.5,1,5.1,0.5c-0.6,0.7-0.3,1.7,0.7,2.1
	c0.7,0.3,1.3,0.4,1.7,1c0.5,0.7,1.3,1.1,2.2,1.5c1.1,0.4,3.7,0.9,4.8,0.1c0.6-0.4,0.9-0.8,0.9-1.5c0-0.2-0.3-0.7,0.1-0.8h0.1
	c1.6,0.6,2.8-0.3,3-1.6c0.7-0.1,1.2-0.5,1.2-1.3c0-0.4-0.2-0.8-0.3-1.2l-0.1-0.5h0.3h0.6c0.5,0.8,1.1,1.5,2,1.8
	c1.5,0.5,2.7,0.2,3.6-0.6c0.4,0,0.8,0,1.2-0.4l0.2-0.4c0,0.6,0,1.3,0.7,1.8c0.5,0.3,0.9,0.5,1.5,0.6c1,0.2,1.6,0.4,2.4,0.8
	c1.4,0.8,3,0.7,4.1,0c0.4,0.1,0.7,0.2,1.1,0.3h0.4c1.2,0.5,3.1,0.2,4.4-0.1c1.7-0.5,1.5-1.5,1.1-2.5c0.9-0.3,1.8-0.5,2.5-1.1
	s0.4-1.3-0.2-1.9c0.4-0.1,0.8-0.3,1.1-0.7c0.3-0.4,0.4-1,0.3-1.5c-0.1-0.3-0.4-0.6-0.4-0.6c1.4,0,2.3-0.2,3.2-1.1
	c0.7-0.6,0.2-1.7,0.1-2.4v-0.1l0.4-0.5c0.3-0.4,0.8-0.6,1-1c0.6-1-0.2-2-1-2.8l-0.2-0.1l0.4-0.3l0.3-0.4c0.7-0.3,1.2-0.5,1.7-0.9
	c0.8-0.7,0.8-1.3,0.6-1.8c1.5,0.1,3-0.2,3.9-1.2c0.6-0.7,1.7-1,2.2-1.8c0.7-0.8,0-1.3-0.6-1.8c0.6-0.3,1.1-0.6,1.4-1
	c1.6,0.6,3.4,0.9,5.2,0.9c0.6,0,1.1-0.1,1.5-0.3l0.4-0.2l0.6-0.4l0.3-0.3l0.3-0.5v-0.5v-0.3l-0.1,0.1l-0.1-0.6
	c1.3-0.6,2.7-1.6,2.3-2.9c-0.3-0.8-1-1.2-1.8-1.6c-0.4-0.2-1-0.4-1.5-0.4l0.3-0.7c-0.1-0.3,0-0.4,0.4-0.2c0.5,0.1,1,0.3,1.5,0.4
	c1.1,0.1,2.3-0.2,3.2-0.8c0.7-0.5,1-1.3,0.7-2s-0.7-1-1.3-1.3c0-0.2,0.3-0.5,0.3-0.8c0-0.6-0.3-1-0.9-1.3c-0.4-0.2-0.9-0.3-1.4-0.4
	c-0.5-1.2-1.9-2.2-3.3-2.8c-1.2-0.4-2.5-0.4-3.6,0.1l-0.5,0.5l-0.3,0.3l-0.1,0.2l0,0l-0.1,0.1v0.1v0.1v0.1l-0.4-0.1
	c-0.3-0.1-0.7-0.2-1.1-0.2v-0.1l0,0c0.2-0.4,0.1-0.8-0.1-1.3c1.3-0.6,1.7-1.7,1.1-3c-0.8-1.4-2.6-1.6-4.2-1.4
	c-1.3-1.1-3.4-1.7-5.2-0.8l-0.4,0.3l-0.2-0.3h0.1c-0.2-0.3-0.4-0.5-0.7-0.8c-0.4-0.4,0.1-0.4,0.1-1l0.1-0.7v-0.3v-0.4l0,0v-0.3
	c-0.2-0.8,0.4-1.4,0.2-2.1c-0.1-0.4-0.3-0.8-0.6-1.2c0.1-0.4,0.1-0.8-0.1-1.1c-0.6-1.1,1.2-1.9,0.8-3.1c-0.5-1.4-1.8-2.2-3.6-2.6
	l-0.6-0.1l0,0c-0.4-0.1-0.8-0.1-1.2-0.1l0,0h-0.1l-0.7,0.1l-0.4,0.1c-0.4,0.1-0.7,0.2-0.9,0.4h-1.6c-0.4,0.1-0.9,0.2-1.3,0.3
	c-1.4-0.1-1.7-0.3-0.9-0.3l0.5-0.2c0.8-0.4,1.4-0.8,1.3-1.5c1.6-0.1,3.1-0.7,4-1.7c0.6,0,1.2-0.1,1.8-0.2c2.4,1,5,0,5.8-1.9
	c0.9,0,1.8-0.1,2.5-0.7c1.4-1,0.9-2.5,0.1-3.7c-0.3-0.4-0.8-0.9-0.9-1.4c1.5,0.2,2.6-0.3,3.3-1.2c0.5,0,0.9-0.1,1.2-0.5
	c0.5-0.7,0.5-1.7,0.3-2.5l0.1-0.1l0.3,0.3c0.6,0.3,1.1,0.5,1.8,0.5c1.2,0.1,1.9,0.2,2.9,0.6c1.8,0.7,3.5,0.4,4.6-0.5
	c0.4,0.1,0.9,0.1,1.3,0.1h0.4c1.5,0.4,3.6-0.2,4.9-0.7c1.9-0.7,1.3-1.9,0.6-3c0.9-0.5,1.9-0.8,2.6-1.6c0.7-0.7,0.1-1.5-0.6-2.1
	c0.4-0.2,0.8-0.5,1.1-1s0.3-1.1,0-1.7c-0.2-0.4-0.5-0.6-0.5-0.6c1.6-0.1,2.6-0.6,3.4-1.6c0.6-0.8-0.1-1.9-0.4-2.7v-0.1l0.3-0.6
	c0.3-0.4,0.7-0.8,0.9-1.3c0.5-1.2-0.7-2.3-1.7-3c-0.3-0.2-0.7-0.4-1-0.6l-0.4-0.1l-0.6-0.2H519h-0.5l-0.5,0.1l-0.4,0.1l0,0l-0.3,0.1
	c-0.1-0.3-0.3-0.5-0.5-0.8c-0.4-0.6-1.1-1-1.6-1.4c1.4-0.6,2.9-1.2,2.6-2.6c-0.2-1.1-0.7-2.2-1.2-3.3c0.9,0.3,1.9,0.5,3,0.3
	c0.5-0.1,0.9-0.2,1.3-0.4l0.3-0.2l0.7-0.5l0.1-0.1h-0.1c0.4-0.4,0.6-0.9,0.5-1.5C522.5,431.2,524.8,430.8,524.8,429.4z M374.8,663.1
	L374.8,663.1L374.8,663.1L374.8,663.1z M462.7,357.9c-0.1-0.3,0-0.2,0.1,0.2l0.1,0.3c0.1,0.5,0.3,1,0.4,1.6l-0.8-0.1
	c-0.3-0.7-0.8-1.4-1.5-1.9C461.6,357.9,462.3,357.9,462.7,357.9z M438,372.2l-0.5,0.7c-0.1-0.3-0.2-0.5-0.3-0.8L438,372.2z
	 M436.9,436.7L436.9,436.7c0.4,0.4,0.8,0.7,1.3,1l0.1,0.1c-0.9,0.3-1.7,0.8-1.7,1.6c-0.1-0.6-0.1-1.6-0.1-2.6L436.9,436.7z
	 M436.7,448.2c0.8-1.7,1.9-3.4,3.2-5c0.7,0.5,1.8,0.9,2.9,1c0.2,0.5,0.8,0.9,1.9,1c0.4,0.1,0.8,0,1.2,0c-0.1,0.3-0.3,0.5-0.2,0.8
	c0.1,1,1,1.7,1.9,2.3c-0.4,0.8,0.2,1.5,1.2,2l0,0h0.1l0.4,0.2l0.7,0.5v0.6c-2.1,1.3-4.5,2.4-7.9,4c-6.5,3.1-9.8,4-9.8,4
	S432.4,456.8,436.7,448.2z M414.2,386.1h-0.1L414,386L414.2,386.1z M403.1,431.1c0.8,0.4,1.9,0.7,2.9,1c-0.6,0.8-1.2,1.7-1.7,2.3
	c-1.5,2.1-2.2-0.4-3-3.3C401.9,431.1,402.4,431.2,403.1,431.1z M377.7,331.4L377.7,331.4l-0.1,0.4l-0.6-0.3L377.7,331.4z
	 M331.2,430.9l0.7-0.2c0.9,1.2,2.3,2.2,4,2.5c3.4,0.7,7.9-0.3,10.4-2.4c0.2,0.3,0.5,0.6,0.8,0.8c1.1,0.8,2.2,1,3.2,0.7
	c1.5,1.2,3.6,2,5.3,1.6c1.5,2.8,3,5.9,5,9.6l0,0c-1.3-0.5-2.2,0-3,0.7c-0.2-0.9-0.8-1.6-2.1-1.6l-0.1-0.5c-0.5-0.9-1.3-1.3-2.3-1.4
	c0.7-1.1,0.9-2.2-0.1-3.1c-1.5-1.2-2.9-0.8-4.6-0.5c-0.7-0.8-2-0.8-3.2-0.6c-0.4-1-0.9-2-2.5-2.1c-1.5-0.2-2.8,0.3-3.6,1.1
	c-0.9-0.1-1.6,0.2-2.1,0.6l-0.1-0.1c-0.6-0.3-1.1-0.4-1.8-0.4l-0.3,0.1h-0.1l-0.3-0.1l-0.6-0.1h-0.4h-0.6l-0.3,0.1h-0.3l0,0
	l-0.5,0.1l-0.6-0.2c1.1-0.6,1.8-1.5,1.5-2.5c-0.3-0.8-0.9-1.5-2-1.8c-0.1,0-0.5-0.1-0.8-0.2C330.2,430.9,330.7,430.9,331.2,430.9z
	 M337.6,474.7l-0.2,0.1l-0.5-0.3l0.7-0.6C337.7,474.3,337.7,474.6,337.6,474.7z M329.5,487.1l0.3-0.1c2.1-1.3,3.3-3.9,2.5-5.9
	l0.7-0.3c1.5-0.3,2.6-0.9,2.6-2l0,0c1.3,0.4,2.5,0.9,3.5,1.3c5.3,2.1,8.7,7.2,12,12C345.6,492.2,337.2,489.8,329.5,487.1z
	 M371.4,494.4c-0.9,1.7-9-5.5-20.3-12.9c-4.5-2.9-7.7-6.1-9.9-9c1.3-0.7,2-1.6,0.9-2.5c-0.7-0.6-1.1-0.3-1.4-1.1
	c-0.2-0.6,1.2-1,1.6-1.4l0.5-0.5c0.4-0.3,0.8-0.5,1-0.9c0.8,0,1.5-0.2,2-0.4l0.2-0.1c1.9,0.8,5.1,0.1,6.6-0.7c0.7-0.4,1.3-1,1.2-1.6
	c0.8-0.4,1.5-1,1.3-1.8c1.3-0.6,2.5-1.3,2.6-2.5c0-0.9-0.8-1.3-1.8-1.7c0.3-0.3,0.6-0.5,0.8-0.8c2.3-0.8,5.8-2.7,3.8-4.1
	c-0.4-0.3-0.7-0.3-1-0.4l-0.1-0.1l0,0l-0.3-0.5c0.3-0.3,0.5-0.6,0.7-0.9l0.7-0.5c0.8-0.8,0.8-1.6,0.1-2.2c0.4-0.6,0.9-1.5,1.1-2.4
	c5.8,10.8,8.7,19.7,8.8,30.2C370.6,483.5,372.2,492.7,371.4,494.4z M382.2,467.8c-2.8-0.2-15.9-23.3-19.8-32.9
	c-0.1-0.4-0.3-0.8-0.5-1.3l0.7-0.2c1.4-0.7,1.3-1.9,0.8-3c0.6,0,1.3,0.1,1.9,0c1.8,0.8,4.5,1.6,6.5,1.6c0.5,2.4,2.8,4.8,5.9,5.2
	l0.8,0.1c0.1,0.5,0.2,0.9,0.3,1.4C380.4,447.2,385,468.1,382.2,467.8z M394.4,453.7c-0.5,3.6-1.8,10-3.8,10.6s-3.1-3-5.3-17.8
	c-0.4-2.9-1.1-6.3-2-9.9c2-0.6,3.9-1.7,5-3.1c0.3,0.1,0.7,0.1,1,0.2c1.7,0.9,3.7,1.3,5.1,0.2c1.3,0.4,2.6,0.7,3.8,0.6
	c0.5,1.7,0.5,3.1,0.3,4.8C398,443.4,394.9,450.2,394.4,453.7z M419.4,512.6c-1.2,1.1-2.2,2.1-2.9,2.7c-3.8,3-8.3,8.1-10.8,10.7
	s-4.3,1.5-4.1-3.6c0.2-5.2-1.9-13.9-0.6-19.2c0.9-3.6,2.6-8.2,5.5-12.2c0.4,0.3,0.9,0.6,1.3,0.8c0.1,0.3,0.3,0.6,0.5,0.8
	c-0.9,0.1-1.8,0.4-2,1.2c-0.2,1.1,0.7,1.8,1.6,2.5c-0.3,0.7,0.1,1.2,0.7,1.7c-0.2,0.5,0.2,1.1,0.7,1.5c1.1,0.9,3.7,1.8,5.5,1.5
	l0.2,0.1c0.4,0.3,1,0.5,1.6,0.6c0.1,0.3,0.3,0.6,0.6,0.9l0.3,0.5c0.3,0.4,1.4,1,1.1,1.5c-0.4,0.6-0.7,0.3-1.4,0.7
	c-2,1.1,0.9,2.9,2.8,3.8c0.1,0.3,0.4,0.6,0.6,0.8c-0.9,0.2-1.7,0.5-1.8,1.3C418.8,511.7,419,512.2,419.4,512.6z M422.5,517h-0.3
	c-0.3,0-0.1-0.5,0.4-1.4l0.4,0.3C422.8,516.3,422.6,516.6,422.5,517z M417.8,473c-2,2.3-5.4,5-8.7,7.2c-0.4-0.3-1-0.5-1.7-0.3
	c-1.3,0.3-1.5,1.3-1.4,2.4c-2.4,1.5-4.5,2.5-5.5,2.7c-2.7,0.6-1.9-5.4-1.6-15.3c0.4-9.9,2.7-21.2,8.4-31.2c1.2-2.1,2.3-4,3.3-6
	c0.8-0.2,1.4-0.7,1.5-1.5c0-0.4,0-0.7-0.1-0.9c0.3-0.5,0.5-1,0.8-1.4c0.8-0.2,2.2,0.2,3,0.2c0.4,0,0.8,0,1.1-0.1
	c0.8,0.1,1.5,0.1,2.3-0.1c0.9,0.7,2,1.2,3.2,1.3l-0.1,0.5c0.2,1.2,1.5,1.9,2.8,2.4c-0.1,1.4,1.8,2,3.7,2.1c0.3,0.5,0.9,0.9,2,1
	c0.8,0.1,1.5-0.1,2.2-0.3c-1,8.2-3.2,16.6-4.5,20.5C427.2,460.4,425.1,464.7,417.8,473z M434.9,522.4L434.9,522.4L434.9,522.4
	L434.9,522.4z M468.3,469.5c-0.7,0.2-1.5,0.3-2.2,0.6l-0.8-0.5c-0.3-0.4-0.6-0.7-1-1c-1.1-0.9-3-2-4.7-2.1c-1.3-0.1-2.4,1.1-2.7,2
	l-0.3,0.1c-0.4,0.1-0.8,0.3-1.2,0.4l-0.1,0.1l-0.7-0.6c-0.4-0.2-0.9-0.4-1.4-0.4c-0.7-0.1-1.4,0.1-2.1,0.3c-0.4-0.3-0.7-0.5-1.2-0.6
	c-0.9-0.3-1.9,0-2.6,0.4c-0.4,0.3-1.6-0.2-2.2-0.1c-0.9,0.1-1.4,0.5-1.8,1.1l-0.1,0.3v0.1v0.1v0.1v0.1l0.1,0.3l0.1,0.3l0.1,0.1
	l0.1,0.2l0,0l0.1,0.1c0.5,0.7,0.8,0.9-0.3,0.7c-1.1-0.1-2,0-2.6,0.4l-0.5-0.1l0,0h-0.2h-0.3h-0.6h-0.3l-0.6,0.1l-0.1,0.1l-0.7,0.4
	l-0.4,0.7l-1.3,0.2c-1,0.1-1.7,0.6-2.1,1.3c-0.5,0.8,0,1.7,0.7,2.3l-0.5,0.1l-0.4-0.2l0,0l-0.2-0.1l-0.3-0.1l-0.5-0.1h-0.4h-0.5
	h-0.3h-0.1l-0.2-0.1c-0.6-0.1-1.1,0-1.6,0.1l-0.1,0.1c-0.3-0.4-0.8-0.8-1.6-0.8c-0.6-0.8-1.6-1.4-2.8-1.4c3.7-3.2,7.7-6.6,12.3-10.4
	c5.5-4.6,10-7.3,14-9.4c0.5,0.7,1.2,1.3,2,1.8c1.5,0.7,3.5,0.6,5.2,0l0.2,0.4c0.3,0.6,1,0.8,1.1,1.4c0.1,0.8,0.2,1.3,0.9,1.8
	c0.7,0.6,1.6,0.8,2.5,0.7l0.1,0.1c-0.4,2,0.9,4.3,2.9,5.4c0.4,0.2,0.8,0.3,1.3,0.4c0.3,0.3,0.7,0.5,1.1,0.7c0.7,0.4,1,0.9,1.7,1.3
	C469.3,468.9,468.9,469.3,468.3,469.5z M473.2,469.5l-0.3,0.2l-0.9-0.3l-0.4-0.3c0.5,0,1,0,1.5-0.1l0.4,0.3L473.2,469.5z
	 M483.2,398.2l-0.2-0.1v-0.2l0.4,0.2L483.2,398.2z M491.4,426.7l-0.3,0.1c-0.4,0.1-0.8,0-1.1-0.4
	C490.4,426.6,490.9,426.7,491.4,426.7L491.4,426.7z M502.3,411.5l-0.3-0.7l0.7-0.1l0.3,0.1l0.1,0.2l0.8,0.4
	C503.3,411.4,502.8,411.5,502.3,411.5z M510.2,412.7l-0.4,0.1l-0.8-0.5c-0.2-0.3-0.5-0.7-0.9-1l0,0c0.5,0,1,0,1.5-0.1
	c0.4-0.1,0.5-0.4,0.8-0.6c0.7-0.4,1.9,0.3,2.3,0.6c0.3,0.2,0.2,0.5,0.1,0.8h-0.6C511.4,412.1,510.8,412.4,510.2,412.7z"/>
</svg>
