<?xml version="1.0" encoding="utf-8"?>
<!-- Generator: Adobe Illustrator 27.7.0, SVG Export Plug-In . SVG Version: 6.00 Build 0)  -->
<svg version="1.1" id="Layer_1" xmlns="http://www.w3.org/2000/svg" xmlns:xlink="http://www.w3.org/1999/xlink" x="0px" y="0px"
	 viewBox="0 0 1610 966" style="enable-background:new 0 0 1610 966;" xml:space="preserve">
<style type="text/css">
	.st0{fill:#FFFFFF;}
</style>
<g>
	<g transform="translate(0.000000,1280.000000) scale(0.100000,-0.100000)">
		<path d="M7166,4205.4c-0.2,0.8-0.5,1.5-0.7,2.3c-7.5,17.4-15,34.8-22.2,52.4c-27.8,57.9-62.4,112.2-97.7,166
			c-23.3,9.6-47.7,15-73.3,13.6c-29.4-1.6-61.3-10.1-87.8-22.9c-33.8-16.4-61.8-41.7-91.8-63.9c-10.7-24.8-23.4-41.5-40-52.5
			c-2.1-5.2-4.9-10.4-8.9-15.5c-16.6-21.2-24.7-40.9-30.3-63.3c-1.4-11.4-3.6-22.9-6.9-34.6c-1.4-5.1-3.4-9.5-5.7-13.4
			c0-0.1,0-0.3,0-0.4c0.1-25.6,5.6-50.5,9.6-75.7c0.8-1.8,1.6-3.4,2.4-5.2c3.5-8,8.8-19.3,12.1-25.2c17.1-31.4,22.2-65.3,19.4-130.5
			c-1.5-36.6-3.9-53.8-20.9-149.8c-9.2-52.8-9.4-53-15.4-118.5c-6-65.1-9.5-87.1-20.9-134.3c-12.1-49.7-26-97.4-37.5-127.2
			c-6.3-16.5-11.5-33.6-20.1-65.9c-4-15.3-9.1-33.3-11.3-39.7c-6.3-19.2-10-33.9-20.8-81.7c-5.5-24.9-11.3-49.6-12.7-54.6
			c-1.6-6-2.1-9.5-1.2-9.9c5-2.8,105.4-5,221.6-4.8c61.9,0.1,117.1,0,122.6-0.2c8.6-0.2,10.9,0.1,15.7,2.6c3.2,1.7,7.2,5,9.2,7.6
			c6.7,9,8.6,17.6,12.6,58.2c1.6,16.1,4.4,28.2,8,35c1.6,3.2,2.7,10.3,3.9,27c0.8,12.5,3.9,42.4,6.8,66.3
			c7.9,64.8,9.2,79.7,10.7,116c1.7,42.2,4.6,78.7,9.5,125.9c8,75.5,9.2,87.1,11.3,109.9c1.1,12.9,2.7,42.7,3.3,66.3
			c2.8,82.9,10.2,146.5,22.1,190.1c7.1,25.9,13.3,35.6,45.4,70.9c34.6,38.1,42.2,51.1,62.4,106.8c4.8,13.3,8.7,23.5,12,32
			c-1,3.8-0.7,8.1,1,11.6c-0.5,8.6,0.9,17.3,4.2,25.2C7165.9,4202.5,7166,4203.9,7166,4205.4z"/>
	</g>
	<g transform="translate(0.000000,1280.000000) scale(0.100000,-0.100000)">
		<path d="M7371.2,5122.9c-4.4,15.6-10.7,38.1-13.9,49.7c-8.4,31.8-17.8,54.3-28,67.6c-9.3,12-13.3,13.8-25.1,12
			c-4.1-0.6-9.2-0.3-11.2,0.8c-3.5,1.9-3.4,2.6-0.7,6.7c1.7,2.5,5.8,7.5,9.2,11c3.3,3.4,7.1,9.4,8.3,13l2.2,6.8l-29.1,63.8
			l-29.1,63.8l-4.7-0.8c-2.6-0.6-10.5-2.6-17.4-4.9c-7-2.1-13.7-3.8-15-3.9c-1.3,0-4,2.4-5.7,5.5c-3.1,5.3-3.1,5.7,1.5,9.2
			c9.2,6.7,24.4,23.1,26.4,28.3c1.7,4.8,0,9.9-19,58.4c-11.4,29.2-26.3,68.7-32.9,87.6c-11.7,33.1-50.1,119.9-53.5,120.5
			c-0.7,0.1-6.7-1.7-13.1-4l-11.8-4.5l7.9,7.2c4.4,3.8,9.6,9.3,11.8,12.2c3.5,4.8,3.5,5.3-2.3,17.2c-9.4,19.8-20.5,26.8-36.1,23
			c-3.8-0.8-20.1-6.2-36.3-11.8c-27-9.5-36.3-13.6-112.8-49.6c-61.1-28.7-93.5-43.3-120.7-54c-20.5-8.3-55.9-23.7-79-34.4
			c-43.8-20.4-106.7-47.7-141.7-61.3c-11.2-4.4-37.4-15.5-57.8-24.4l-37.5-16.4l-13.3,30c-12.8,28.9-13.6,30.1-20.7,35
			c-14.7,9.6-45.7,10.4-79.7,1.7c-18.1-4.8-59.1-22.1-75.4-32.1c-23.9-14.7-46-34.6-61.7-56l-9.3-12.3l9-20.2
			c5-11.1,11.7-26.4,15.1-33.8c3.4-7.4,5.8-13.9,5.7-14.5c-0.8-1.5-355.8-163.8-425.5-194.6c-83.6-36.9-129.4-58.2-127.1-59.3
			c1.3-0.5-2.2-2.3-11.1-5.6c-7-2.6-17.7-7-23.7-9.8l-10.9-5.1l1.5-6.5c1-3.5,6.2-16.6,12-29.1c11.8-25.4,10.3-24.5,26.1-17.1
			c15.3,7.1,17.1,6,9.8-5.8l-6.1-10.2l23.1-50.4c17-37.5,24.4-55.1,28-68.6c5-19.3,7.7-32.1,7-34.5c-0.4-2,3.5-27.5,7.1-43.3
			c1.6-7.6,6.3-23,10.3-34.4c12.7-35.2,22.6-67.4,33-106.3c2.2-8.6,6.8-21.2,10.1-27.8c4.9-10.5,6.3-12.1,9.8-11.9
			c2.3,0.3,4.4-0.5,4.9-1.4c0.4-0.9,3.5-2.4,7-3.1l6.2-1.4l-3.8-8.5c-4.3-9.2-4-11.8,1.7-13.1c3.5-0.9,3.8-1.6,2.9-7.3
			c-1.3-9.6,2.1-10.2,18.8-3.4c13,5.3,13.8,5.5,15.8,2.6c2.5-4,2-5.2-7.3-17.1c-4.2-5.3-10.4-14.3-14-19.7l-6.2-9.9l19.8-45.3
			c20-45.7,39-85.1,45.7-94.7l3.5-5.2l41,19.6l41,19.6l2.2-3.3c2.9-4.3,10.7-2.1,30.3,9c7.7,4.3,18.8,10,24.3,12.4
			c5.5,2.4,78.6,35.7,162.3,73.9c125.3,57,317.8,142.6,319.8,141.9c0.2,0,19.6-43,43-95.5c39.9-89.4,58.4-131.4,141-320.8
			c18-41.4,47.3-110.8,65.2-154.5c41.1-100.5,119.4-274,125.6-278.4c6.2-4.3,30.2-7.5,45.7-5.9c35.2,3.8,96.9,25.5,124.9,44
			c20.1,13.4,39,35.5,45.4,53.4l3.7,10.5l-18.1,45.8c-33.8,86.2-47.3,118.6-83.2,200.3c-16.3,36.9-35.2,80.8-46.6,107.7
			c-3.8,3-5.6,8-5.3,12.8c-0.3,0.7-0.6,1.4-0.8,2.1c-52.7,128.3-83,202.2-95.8,233.8c-23,56.8-54,130.1-81.7,192.8l-25.7,58l7.8,3.6
			c16.5,7.7,114.3,46.9,196.3,78.7c83.3,32.3,119,47.2,199.8,83.6c45.7,20.5,92.6,40.9,103.9,45.1c22.5,8.6,49.5,21.8,63,31.3
			l8.5,5.9L7371.2,5122.9z"/>
	</g>
	<g>
		<path class="st0" d="M597.6,798c-0.1,0-0.4,0-1-0.1l-8.2-13l-1.9,0.1l-0.9-2.4c1-0.5,1.8-1,2.4-1.4c0.6-0.4,1.2-0.7,1.8-1
			c0.5-0.3,0.8-0.5,0.9-0.5c0.1,0,0.3,0,0.7,0.1s0.7,0.2,1,0.3c0.3,0.1,0.6,0.3,0.6,0.4l4.5,7.9l1.5,2.7l0.4-0.1l0.2-7.5l-1.7-2.1
			l-1.9,0.2l-0.9-2.4c1-0.5,1.8-1,2.4-1.4c0.6-0.4,1.2-0.7,1.8-1s0.8-0.5,0.9-0.5c0.1,0,0.3,0,0.7,0.1c0.3,0.1,0.7,0.2,1,0.3
			c0.3,0.1,0.6,0.3,0.6,0.4l4.9,7.8l1.7,2.6l0.4-0.1l-1.6-10l-2.6,0.6l-0.9-2.6c0.8-0.4,1.4-0.7,2-0.9c0.6-0.3,1.2-0.5,1.7-0.8
			c0.6-0.3,1.1-0.5,1.5-0.7c0.4-0.2,0.7-0.3,0.8-0.3c0.1,0,0.3,0,0.6,0.2c0.3,0.2,0.6,0.4,0.8,0.6c0.3,0.2,0.4,0.4,0.5,0.5l1.8,17.1
			c-0.7,0.4-1.3,0.7-1.9,1c-0.5,0.3-1.1,0.5-1.6,0.8c-0.5,0.3-1,0.5-1.4,0.7c-0.4,0.2-0.6,0.3-0.7,0.3c-0.1,0-0.4,0-1-0.1l-4.3-5.8
			l-0.3,0.1l0.2,7c-0.7,0.4-1.3,0.7-1.8,0.9c-0.5,0.3-1.1,0.5-1.6,0.8c-0.5,0.3-1,0.5-1.4,0.7C597.9,797.9,597.6,798,597.6,798z"/>
		<path class="st0" d="M622,779.4c0.3,1,0.7,1.7,1.2,2.3c0.5,0.6,0.9,1,1.4,1.2c0.5,0.2,1,0.2,1.4,0.1c0,0,0.3-0.1,0.7-0.3
			c0.4-0.2,1-0.4,1.6-0.7c0.7-0.3,1.3-0.5,1.9-0.8c0.6-0.3,1.1-0.5,1.4-0.6l0.9,2.4c-0.3,0.2-0.7,0.6-1.3,1
			c-0.6,0.5-1.2,0.9-1.8,1.4s-1.2,0.9-1.8,1.3c-0.5,0.4-0.9,0.6-1.2,0.7c-1.6,0.6-3,0.7-4.4,0.5c-1.4-0.2-2.5-0.9-3.6-1.9
			s-1.9-2.3-2.5-4c-0.4-1.2-0.7-2.4-0.9-3.5c-0.2-1.2-0.3-2.1-0.3-2.8c0.1-0.4,0.4-0.9,0.9-1.6c0.5-0.7,1-1.4,1.6-2.1
			c0.6-0.7,1.2-1.4,1.7-1.9c0.5-0.6,1-0.9,1.3-1c1.5-0.5,2.8-0.7,4.1-0.6c1.2,0.1,2.4,0.8,3.4,2c1,1.2,2,3,2.8,5.5l-10.6,5.2
			l-0.9-2.4l5.1-3c-0.4-1.3-0.9-2.2-1.4-2.9c-0.5-0.7-1-1-1.4-0.9c-0.1,0-0.3,0-0.6,0.1c-0.3,0.1-0.4,0.1-0.5,0.2
			c-0.2,0.3-0.1,1,0.1,2.3C620.8,775.7,621.3,777.3,622,779.4z"/>
		<path class="st0" d="M638.2,783.2c-0.1,0-0.3,0-0.7-0.1c-0.4-0.1-0.7-0.2-1.1-0.4c-0.4-0.2-0.6-0.3-0.6-0.4l-7.3-20l-1.8,0
			l-0.9-2.4c0.7-0.4,1.3-0.7,1.8-1c0.5-0.3,1.1-0.6,1.6-0.9c0.5-0.3,1-0.5,1.5-0.7c0.4-0.2,0.7-0.3,0.8-0.4c0.1,0,0.3,0,0.6,0.1
			c0.3,0.1,0.6,0.3,0.9,0.5c0.3,0.2,0.5,0.3,0.5,0.4l7.3,20l1.7,0l0.8,2.3c-1,0.6-1.8,1-2.4,1.4s-1.3,0.7-1.8,1
			C638.7,782.9,638.4,783.1,638.2,783.2z"/>
		<path class="st0" d="M651.9,778.2c-1.4,0.5-2.7,0.6-4,0.3c-1.2-0.3-2.4-1-3.3-2c-1-1-1.8-2.4-2.4-4.1c-0.4-1.2-0.7-2.3-0.9-3.5
			c-0.2-1.1-0.3-2-0.2-2.7c0.1-0.4,0.4-0.9,0.9-1.6c0.5-0.7,1-1.4,1.5-2.2c0.6-0.7,1.1-1.4,1.6-2c0.5-0.6,0.9-0.9,1.2-1
			c0.7-0.2,1.5-0.5,2.6-0.7c1-0.2,2-0.3,2.9-0.3l2,5.8l-3.2,1.2l-1.8-2.8c-0.3-0.1-0.6-0.1-0.9-0.1c-0.3,0-0.6,0-0.8,0.1
			c-0.1,0-0.2,0.1-0.2,0.1c-0.1,0.1-0.1,0.1-0.2,0.2c-0.1,0.2-0.1,0.6-0.1,1.1s0.2,1.3,0.5,2.2c0.2,0.8,0.5,1.8,0.9,2.9
			c0.3,0.9,0.7,1.7,1.2,2.4c0.4,0.7,0.9,1.2,1.4,1.5c0.5,0.3,1.1,0.3,1.6,0.1l4.3-1.6l0.9,2.4c-0.3,0.2-0.6,0.5-1.1,0.9
			c-0.5,0.4-1,0.8-1.5,1.3s-1.1,0.8-1.6,1.2C652.7,777.8,652.3,778.1,651.9,778.2z"/>
		<path class="st0" d="M668.9,772c-2.9,1-5.4,1.2-7.4,0.4c-2.1-0.8-3.6-2.5-4.6-5.4c-0.4-1.1-0.7-2.2-0.9-3.4s-0.3-2.1-0.2-2.7
			c0.1-0.4,0.5-0.9,0.9-1.7s1-1.4,1.6-2.2c0.6-0.7,1.2-1.4,1.7-2c0.5-0.6,1-0.9,1.3-1c2.9-1.1,5.4-1.2,7.4-0.3
			c2,0.9,3.5,2.6,4.5,5.3c0.5,1.3,0.8,2.4,1,3.6c0.2,1.1,0.3,2,0.2,2.7c-0.1,0.4-0.4,0.9-0.9,1.6c-0.5,0.7-1,1.4-1.6,2.1
			c-0.6,0.7-1.2,1.4-1.7,1.9C669.6,771.6,669.2,771.9,668.9,772z M667.8,769.1c0.1-0.1,0.2-0.2,0.4-0.3s0.4-0.4,0.7-0.7
			c-0.1-0.6-0.3-1.4-0.6-2.4s-0.7-2.2-1.2-3.8c-0.4-1-0.8-1.9-1.3-2.8s-1-1.5-1.7-1.9c-0.6-0.4-1.3-0.5-2-0.2
			c-0.1,0-0.2,0.1-0.4,0.2c-0.1,0.1-0.2,0.1-0.4,0.2c-0.2,0.2-0.2,0.9,0.1,2.1c0.2,1.2,0.7,2.8,1.4,4.7c0.6,1.6,1.2,2.7,1.8,3.5
			c0.6,0.7,1.2,1.2,1.7,1.4S667.4,769.3,667.8,769.1z"/>
		<path class="st0" d="M681.6,767.4c-0.1,0-0.3,0-0.7-0.1c-0.4-0.1-0.7-0.2-1.1-0.4c-0.4-0.2-0.6-0.3-0.6-0.4l-4.7-12.9l-1.8,0
			l-0.9-2.4c1-0.6,1.8-1,2.5-1.4c0.7-0.4,1.3-0.7,1.9-1c0.6-0.3,0.9-0.5,1.1-0.5c0.1,0,0.3,0,0.6,0.2c0.3,0.1,0.6,0.3,0.9,0.5
			c0.3,0.2,0.5,0.3,0.5,0.4l0.3,0.9c0.2-0.3,0.4-0.7,0.6-1.1c0.2-0.4,0.5-0.8,0.7-1.2c0.2-0.4,0.4-0.7,0.6-0.9
			c0.2-0.2,0.3-0.4,0.4-0.4c1.3-0.5,2.5-0.7,3.5-0.6c1.1,0.1,2,0.4,2.7,1.2c0.2-0.3,0.4-0.7,0.6-1.1c0.2-0.4,0.4-0.8,0.6-1.2
			c0.2-0.4,0.4-0.7,0.6-0.9c0.2-0.2,0.3-0.4,0.3-0.4c1.4-0.5,2.6-0.8,3.7-0.8c1.1,0,2,0.3,2.8,1c0.8,0.6,1.4,1.7,2,3.1l3.2,8.8
			l1.7,0l0.8,2.3c-1,0.6-1.8,1-2.4,1.4c-0.7,0.4-1.3,0.7-1.8,1c-0.5,0.3-0.9,0.5-1,0.5c-0.1,0-0.3,0-0.7-0.1
			c-0.4-0.1-0.7-0.2-1.1-0.4c-0.4-0.2-0.6-0.3-0.6-0.4l-4-10.9c-0.1-0.4-0.3-0.7-0.5-0.8c-0.2-0.2-0.4-0.3-0.6-0.4
			c-0.2-0.1-0.4-0.1-0.5,0c-0.1,0-0.3,0.1-0.4,0.1c0,0-0.1,0.1-0.2,0.2c-0.1,0.1-0.2,0.2-0.4,0.4c-0.1,0.1-0.3,0.3-0.4,0.5
			c-0.1,0.2-0.3,0.3-0.4,0.4l3.5,9.5l1.6,0.1l0.8,2.3c-0.9,0.5-1.7,1-2.4,1.3c-0.6,0.4-1.2,0.7-1.8,1s-0.9,0.5-1,0.5
			c-0.1,0-0.3,0-0.7-0.1c-0.4-0.1-0.7-0.2-1.1-0.4c-0.4-0.2-0.6-0.3-0.6-0.4l-4-10.9c-0.2-0.5-0.4-0.8-0.6-1
			c-0.2-0.2-0.5-0.2-0.7-0.2c-0.2,0-0.4,0-0.5,0.1c0,0-0.1,0.1-0.2,0.2s-0.2,0.2-0.4,0.4c-0.1,0.2-0.3,0.3-0.4,0.5
			c-0.1,0.2-0.3,0.3-0.4,0.4l3.5,9.5l1.6,0.1l0.8,2.3c-0.9,0.5-1.7,1-2.4,1.3c-0.6,0.4-1.2,0.7-1.8,1
			C682.1,767.1,681.8,767.3,681.6,767.4z"/>
		<path class="st0" d="M709.3,747.7c0.3,1,0.7,1.7,1.2,2.3c0.5,0.6,0.9,1,1.4,1.2c0.5,0.2,1,0.2,1.4,0.1c0,0,0.3-0.1,0.7-0.3
			s1-0.4,1.6-0.7c0.7-0.3,1.3-0.5,1.9-0.8c0.6-0.3,1.1-0.5,1.4-0.6l0.9,2.4c-0.3,0.2-0.7,0.6-1.3,1s-1.2,0.9-1.8,1.4
			c-0.7,0.5-1.2,0.9-1.8,1.3c-0.5,0.4-0.9,0.6-1.2,0.7c-1.6,0.6-3,0.7-4.4,0.5c-1.4-0.2-2.5-0.9-3.6-1.9c-1-1-1.9-2.3-2.5-4
			c-0.4-1.2-0.7-2.4-0.9-3.5c-0.2-1.2-0.3-2.1-0.3-2.8c0.1-0.4,0.4-0.9,0.9-1.6c0.5-0.7,1-1.4,1.6-2.1c0.6-0.7,1.2-1.4,1.7-1.9
			c0.5-0.5,1-0.9,1.3-1c1.5-0.5,2.8-0.7,4.1-0.6c1.2,0.1,2.4,0.8,3.4,2c1,1.2,2,3,2.8,5.5l-10.6,5.2l-0.9-2.4l5.1-3.1
			c-0.4-1.3-0.9-2.2-1.4-2.9c-0.5-0.7-1-1-1.4-0.9c-0.1,0-0.3,0-0.6,0.1c-0.3,0.1-0.4,0.1-0.5,0.2c-0.2,0.3-0.1,1,0.1,2.3
			C708,743.9,708.5,745.6,709.3,747.7z"/>
	</g>
</g>
</svg>
